ply
format ascii 1.0
comment Created by Blender 2.71 (sub 0) - www.blender.org, source file: 'door.blend'
element vertex 164
property float x
property float y
property float z
property float nx
property float ny
property float nz
property uchar red
property uchar green
property uchar blue
element face 42
property list uchar uint vertex_indices
end_header
3.189257 -0.930510 0.344626 1.000000 0.000000 0.000000 56 28 11
3.189257 -1.020865 -0.057621 1.000000 0.000000 0.000000 123 63 24
3.189257 -0.433162 -0.189634 1.000000 0.000000 0.000000 56 28 11
3.189257 -0.342807 0.212612 1.000000 0.000000 0.000000 57 28 11
-3.189257 1.020865 -0.093705 0.000000 0.975688 -0.219165 56 28 11
3.189257 1.020865 -0.093705 0.000000 0.975688 -0.219165 56 28 11
3.189257 0.930510 -0.495951 0.000000 0.975688 -0.219165 56 28 11
-3.189257 0.930510 -0.495951 0.000000 0.975688 -0.219165 56 28 11
3.189257 -1.020865 -0.057621 1.000000 0.000000 0.000000 255 255 255
3.189257 0.930510 -0.495951 1.000000 0.000000 0.000000 255 255 255
3.189257 0.342807 -0.363937 1.000000 0.000000 0.000000 255 255 255
3.189257 -0.433162 -0.189634 1.000000 0.000000 0.000000 255 255 255
-3.189257 -1.020865 -0.057621 0.000000 -0.975688 0.219165 56 28 11
3.189257 -1.020865 -0.057621 0.000000 -0.975688 0.219165 56 28 11
3.189257 -0.930510 0.344626 0.000000 -0.975688 0.219165 56 28 11
-3.189257 -0.930510 0.344626 0.000000 -0.975688 0.219165 56 28 11
-3.189257 -1.020865 -0.057621 0.000000 -0.219165 -0.975688 138 70 27
-3.189257 0.930510 -0.495951 0.000000 -0.219165 -0.975688 138 70 27
3.189257 0.930510 -0.495951 0.000000 -0.219165 -0.975688 151 77 29
3.189257 -1.020865 -0.057621 0.000000 -0.219165 -0.975688 138 70 27
3.189257 -0.930510 0.344626 0.000000 0.219165 0.975688 56 28 11
3.189257 1.020865 -0.093705 0.000000 0.219165 0.975688 56 28 11
-3.189257 1.020865 -0.093705 0.000000 0.219165 0.975688 56 28 11
-3.189257 -0.930510 0.344626 0.000000 0.219165 0.975688 56 28 11
3.189257 -0.342807 0.212612 0.000000 -0.993903 0.110255 153 78 30
3.189257 -0.433162 -0.189634 0.000000 -0.993903 0.110255 138 70 27
3.553721 -0.397653 -0.281797 0.000000 -0.993903 0.110255 144 73 27
3.553721 -0.397653 0.130472 0.000000 -0.993903 0.110255 153 78 30
3.189257 -0.433162 -0.189634 0.000000 -0.110255 -0.993903 138 70 27
3.189257 0.342807 -0.363937 0.000000 -0.110255 -0.993903 138 70 27
3.553721 0.397653 -0.281797 0.000000 -0.110255 -0.993903 147 75 27
3.553721 -0.397653 -0.281797 0.000000 -0.110255 -0.993903 144 73 27
3.189257 1.020865 -0.093705 1.000000 -0.000000 -0.000000 255 255 255
3.189257 -0.930510 0.344626 1.000000 -0.000000 -0.000000 255 255 255
3.189257 -0.342807 0.212612 1.000000 -0.000000 -0.000000 255 255 255
3.189257 0.433162 0.038309 1.000000 -0.000000 -0.000000 255 255 255
3.189257 0.930510 -0.495951 1.000000 -0.000000 0.000000 151 77 29
3.189257 1.020865 -0.093705 1.000000 -0.000000 0.000000 153 78 30
3.189257 0.433162 0.038309 1.000000 -0.000000 0.000000 153 78 30
3.189257 0.342807 -0.363937 1.000000 -0.000000 0.000000 138 70 27
-3.189257 0.930510 -0.495951 -1.000000 -0.000000 -0.000000 255 255 255
-3.189257 -1.020865 -0.057621 -1.000000 -0.000000 -0.000000 255 255 255
-3.189257 -0.433162 -0.189634 -1.000000 -0.000000 -0.000000 255 255 255
-3.189257 0.342807 -0.363937 -1.000000 -0.000000 -0.000000 255 255 255
-3.189257 1.020865 -0.093705 -1.000000 0.000000 0.000000 56 28 11
-3.189257 0.930510 -0.495951 -1.000000 0.000000 0.000000 56 28 11
-3.189257 0.342807 -0.363937 -1.000000 0.000000 0.000000 56 28 11
-3.189257 0.433162 0.038309 -1.000000 0.000000 0.000000 56 28 11
-3.189257 -0.930510 0.344626 -1.000000 0.000000 0.000000 255 255 255
-3.189257 1.020865 -0.093705 -1.000000 0.000000 0.000000 255 255 255
-3.189257 0.433162 0.038309 -1.000000 0.000000 0.000000 255 255 255
-3.189257 -0.342807 0.212612 -1.000000 0.000000 0.000000 255 255 255
-3.189257 -1.020865 -0.057621 -1.000000 -0.000000 0.000000 56 28 11
-3.189257 -0.930510 0.344626 -1.000000 -0.000000 0.000000 56 28 11
-3.189257 -0.342807 0.212612 -1.000000 -0.000000 0.000000 56 28 11
-3.189257 -0.433162 -0.189634 -1.000000 -0.000000 0.000000 56 28 11
-3.553721 -0.397653 0.130472 -1.000000 0.000000 0.000000 138 70 27
-3.553721 0.397653 0.130472 -1.000000 0.000000 0.000000 138 70 27
-3.553721 0.397653 -0.281797 -1.000000 0.000000 0.000000 138 70 27
-3.553721 -0.397653 -0.281797 -1.000000 0.000000 0.000000 138 70 27
3.553721 0.397653 0.130472 1.000000 0.000000 -0.000000 153 78 30
3.553721 -0.397653 0.130472 1.000000 0.000000 -0.000000 153 78 30
3.553721 -0.397653 -0.281797 1.000000 0.000000 -0.000000 151 77 30
3.553721 0.397653 -0.281797 1.000000 0.000000 -0.000000 147 75 27
-3.189257 0.433162 0.038309 -0.048440 0.998825 0.001725 138 70 27
-3.553721 0.397653 0.130472 -0.048440 0.998825 0.001725 138 70 27
-3.553721 0.397653 10.365122 -0.048440 0.998825 0.001725 153 78 30
-3.189257 0.397653 10.365122 -0.048440 0.998825 0.001725 153 78 30
3.189257 0.342807 -0.363937 0.000000 0.993903 -0.110255 138 70 27
3.189257 0.433162 0.038309 0.000000 0.993903 -0.110255 144 73 27
3.553721 0.397653 0.130472 0.000000 0.993903 -0.110255 138 70 27
3.553721 0.397653 -0.281797 0.000000 0.993903 -0.110255 138 70 27
-3.189257 0.342807 -0.363937 0.000000 -0.110255 -0.993903 138 70 27
-3.189257 -0.433162 -0.189634 0.000000 -0.110255 -0.993903 138 70 27
-3.553721 -0.397653 -0.281797 0.000000 -0.110255 -0.993903 138 70 27
-3.553721 0.397653 -0.281797 0.000000 -0.110255 -0.993903 138 70 27
-3.189257 0.433162 0.038309 -0.000000 0.993903 -0.110255 138 70 27
-3.189257 0.342807 -0.363937 -0.000000 0.993903 -0.110255 138 70 27
-3.553721 0.397653 -0.281797 -0.000000 0.993903 -0.110255 138 70 27
-3.553721 0.397653 0.130472 -0.000000 0.993903 -0.110255 138 70 27
-3.553721 -0.397653 0.130472 0.075329 -0.997155 -0.002683 153 78 30
-3.189257 -0.342807 0.212612 0.075329 -0.997155 -0.002683 145 74 28
-3.189257 -0.397653 10.365122 0.075329 -0.997155 -0.002683 138 70 27
-3.553721 -0.397653 10.365122 0.075329 -0.997155 -0.002683 138 70 27
-3.189257 -0.433162 -0.189634 -0.000000 -0.993903 0.110255 137 69 27
-3.189257 -0.342807 0.212612 -0.000000 -0.993903 0.110255 145 74 28
-3.553721 -0.397653 0.130472 -0.000000 -0.993903 0.110255 153 78 30
-3.553721 -0.397653 -0.281797 -0.000000 -0.993903 0.110255 149 76 29
-3.189257 0.397653 10.365122 0.000000 1.000000 0.000000 153 78 30
-3.553721 0.397653 10.365122 0.000000 1.000000 0.000000 153 78 30
-3.553721 0.397653 10.770326 0.000000 1.000000 0.000000 153 78 30
-3.189257 0.397653 10.770326 0.000000 1.000000 0.000000 153 78 30
-3.553721 -0.397653 10.365122 0.000000 -1.000000 -0.000000 138 70 27
-3.189257 -0.397653 10.365122 0.000000 -1.000000 -0.000000 138 70 27
-3.189257 -0.397653 10.770326 0.000000 -1.000000 -0.000000 138 70 27
-3.553721 -0.397653 10.770326 0.000000 -1.000000 -0.000000 138 70 27
3.553721 0.397653 0.130472 0.048440 0.998825 0.001725 138 70 27
3.189257 0.433162 0.038309 0.048440 0.998825 0.001725 144 73 27
3.189257 0.397653 10.365122 0.048440 0.998825 0.001725 153 78 30
3.553721 0.397653 10.365122 0.048440 0.998825 0.001725 149 75 29
3.189257 -0.342807 0.212612 -0.075329 -0.997155 -0.002683 153 78 30
3.553721 -0.397653 0.130472 -0.075329 -0.997155 -0.002683 153 78 30
3.553721 -0.397653 10.365122 -0.075329 -0.997155 -0.002683 138 70 27
3.189257 -0.397653 10.365122 -0.075329 -0.997155 -0.002683 138 70 27
3.553721 0.397653 10.365122 1.000000 0.000000 0.000000 149 75 29
3.553721 -0.397653 10.365122 1.000000 0.000000 0.000000 153 78 30
-3.553721 0.397653 0.130472 -1.000000 0.000000 -0.000000 150 77 29
-3.553721 -0.397653 0.130472 -1.000000 0.000000 -0.000000 153 78 30
-3.553721 -0.397653 10.365122 -1.000000 0.000000 -0.000000 142 72 27
-3.553721 0.397653 10.365122 -1.000000 0.000000 -0.000000 153 78 30
3.189257 0.433162 0.038309 -1.000000 0.000000 -0.000000 138 70 27
3.189257 -0.342807 0.212612 -1.000000 0.000000 -0.000000 138 70 27
3.189257 -0.397653 10.365122 -1.000000 0.000000 -0.000000 138 70 27
3.189257 0.397653 10.365122 -1.000000 0.000000 -0.000000 138 70 27
-3.189257 -0.342807 0.212612 1.000000 0.000000 0.000000 138 70 27
-3.189257 0.433162 0.038309 1.000000 0.000000 0.000000 138 70 27
-3.189257 0.397653 10.365122 1.000000 0.000000 0.000000 153 78 30
-3.189257 -0.397653 10.365122 1.000000 0.000000 0.000000 153 78 30
3.189257 0.397653 10.770326 0.000000 0.000000 1.000000 153 78 30
3.189257 -0.397653 10.770326 0.000000 0.000000 1.000000 151 77 29
3.553721 -0.397653 10.770326 0.000000 0.000000 1.000000 153 78 30
3.553721 0.397653 10.770326 0.000000 0.000000 1.000000 153 78 30
-3.189257 -0.397653 10.770326 -0.000000 0.000000 1.000000 153 78 30
-3.189257 0.397653 10.770326 -0.000000 0.000000 1.000000 153 78 30
-3.553721 0.397653 10.770326 -0.000000 0.000000 1.000000 153 78 30
-3.553721 -0.397653 10.770326 -0.000000 0.000000 1.000000 153 78 30
3.553721 0.397653 10.365122 0.000000 1.000000 0.000000 149 75 29
3.189257 0.397653 10.365122 0.000000 1.000000 0.000000 153 78 30
3.189257 0.397653 10.770326 0.000000 1.000000 0.000000 153 78 30
3.553721 0.397653 10.770326 0.000000 1.000000 0.000000 153 78 30
3.189257 -0.397653 10.365122 0.000000 -1.000000 -0.000000 138 70 27
3.553721 -0.397653 10.365122 0.000000 -1.000000 -0.000000 138 70 27
3.553721 -0.397653 10.770326 0.000000 -1.000000 -0.000000 138 70 27
3.189257 -0.397653 10.770326 0.000000 -1.000000 -0.000000 138 70 27
3.553721 0.397653 10.770326 1.000000 0.000000 0.000000 153 78 30
3.553721 -0.397653 10.770326 1.000000 0.000000 0.000000 153 78 30
-3.553721 0.397653 10.365122 -1.000000 0.000000 -0.000000 138 70 27
-3.553721 -0.397653 10.365122 -1.000000 0.000000 -0.000000 138 70 27
-3.553721 -0.397653 10.770326 -1.000000 0.000000 -0.000000 138 70 27
-3.553721 0.397653 10.770326 -1.000000 0.000000 -0.000000 138 70 27
3.189257 0.397653 10.365122 -1.000000 0.000000 -0.000000 255 255 255
3.189257 -0.397653 10.365122 -1.000000 0.000000 -0.000000 255 255 255
3.189257 -0.397653 10.770326 -1.000000 0.000000 -0.000000 255 255 255
3.189257 0.397653 10.770326 -1.000000 0.000000 -0.000000 255 255 255
-3.189257 -0.397653 10.365122 1.000000 0.000000 0.000000 255 255 255
-3.189257 0.397653 10.365122 1.000000 0.000000 0.000000 255 255 255
-3.189257 0.397653 10.770326 1.000000 0.000000 0.000000 255 255 255
-3.189257 -0.397653 10.770326 1.000000 0.000000 0.000000 255 255 255
-3.189257 -0.397653 10.770326 -0.000000 0.000000 -1.000000 153 78 30
-3.189257 0.397653 10.770326 -0.000000 0.000000 -1.000000 153 78 30
3.189257 0.397653 10.770326 -0.000000 0.000000 -1.000000 153 78 30
3.189257 -0.397653 10.770326 -0.000000 0.000000 -1.000000 151 77 29
3.189257 0.397653 10.365122 0.000000 -0.000000 1.000000 138 70 27
-3.189257 0.397653 10.365122 0.000000 -0.000000 1.000000 138 70 27
-3.189257 -0.397653 10.365122 0.000000 -0.000000 1.000000 138 70 27
3.189257 -0.397653 10.365122 0.000000 -0.000000 1.000000 138 70 27
-3.189257 0.397653 10.365122 0.000000 -1.000000 -0.000000 153 78 30
3.189257 0.397653 10.365122 0.000000 -1.000000 -0.000000 153 78 30
3.189257 0.397653 10.770326 0.000000 -1.000000 -0.000000 153 78 30
-3.189257 0.397653 10.770326 0.000000 -1.000000 -0.000000 153 78 30
3.189257 -0.397653 10.365122 0.000000 1.000000 0.000000 138 70 27
-3.189257 -0.397653 10.365122 0.000000 1.000000 0.000000 138 70 27
-3.189257 -0.397653 10.770326 0.000000 1.000000 0.000000 138 70 27
3.189257 -0.397653 10.770326 0.000000 1.000000 0.000000 138 70 27
4 0 1 2 3
4 4 5 6 7
4 8 9 10 11
4 12 13 14 15
4 16 17 18 19
4 20 21 22 23
4 24 25 26 27
4 28 29 30 31
4 32 33 34 35
4 36 37 38 39
4 40 41 42 43
4 44 45 46 47
4 48 49 50 51
4 52 53 54 55
4 56 57 58 59
4 60 61 62 63
4 64 65 66 67
4 68 69 70 71
4 72 73 74 75
4 76 77 78 79
4 80 81 82 83
4 84 85 86 87
4 88 89 90 91
4 92 93 94 95
4 96 97 98 99
4 100 101 102 103
4 61 60 104 105
4 106 107 108 109
4 110 111 112 113
4 114 115 116 117
4 118 119 120 121
4 122 123 124 125
4 126 127 128 129
4 130 131 132 133
4 105 104 134 135
4 136 137 138 139
4 140 141 142 143
4 144 145 146 147
4 148 149 150 151
4 152 153 154 155
4 156 157 158 159
4 160 161 162 163
