ply
format ascii 1.0
comment Created by Blender 2.71 (sub 0) - www.blender.org, source file: 'door.blend'
element vertex 333
property float x
property float y
property float z
property float nx
property float ny
property float nz
property uchar red
property uchar green
property uchar blue
element face 100
property list uchar uint vertex_indices
end_header
-2.142856 0.188490 0.000000 0.000000 0.000000 -1.000000 145 74 28
-2.142858 -0.188490 0.000000 0.000000 0.000000 -1.000000 145 74 28
-3.000000 -0.188490 0.000000 0.000000 0.000000 -1.000000 145 74 28
-2.999999 0.188490 0.000000 0.000000 0.000000 -1.000000 145 74 28
-2.142856 0.188490 10.346321 0.000000 -0.000000 1.000000 145 74 28
-2.999999 0.188490 10.346321 0.000000 -0.000000 1.000000 145 74 28
-3.000001 -0.188490 10.346321 0.000000 -0.000000 1.000000 145 74 28
-2.142858 -0.188490 10.346321 0.000000 -0.000000 1.000000 145 74 28
3.000000 0.188490 0.000000 1.000000 -0.000004 -0.000000 151 84 40
3.000002 0.188490 10.346321 1.000000 -0.000004 -0.000000 145 74 28
2.999998 -0.188490 10.346321 1.000000 -0.000004 -0.000000 145 74 28
3.000000 -0.188490 0.000000 1.000000 -0.000004 -0.000000 147 77 32
-3.207841 0.257549 0.000000 0.000000 -0.000000 -1.000000 145 74 28
-1.935014 0.257549 0.000000 0.000000 -0.000000 -1.000000 145 74 28
-3.000000 -0.188490 0.000000 -1.000000 0.000004 -0.000000 145 74 28
-3.000001 -0.188490 10.346321 -1.000000 0.000004 -0.000000 145 74 28
-2.999999 0.188490 10.346321 -1.000000 0.000004 -0.000000 145 74 28
-2.999999 0.188490 0.000000 -1.000000 0.000004 -0.000000 145 74 28
-0.428573 -0.188490 10.346321 0.000000 -0.000000 1.000000 145 74 28
-1.285715 -0.188490 10.346321 0.000000 -0.000000 1.000000 145 74 28
-1.493558 -0.257549 10.346321 0.000000 -0.000000 1.000000 145 74 28
-0.220730 -0.257549 10.346321 0.000000 -0.000000 1.000000 145 74 28
3.000000 0.188490 0.000000 0.000000 0.000000 -1.000000 145 74 28
3.000000 -0.188490 0.000000 0.000000 0.000000 -1.000000 145 74 28
2.142857 -0.188490 0.000000 0.000000 0.000000 -1.000000 145 74 28
2.142857 0.188490 0.000000 0.000000 0.000000 -1.000000 145 74 28
1.285714 -0.188490 0.000000 0.000000 0.000000 -1.000000 145 74 28
1.285715 0.188490 0.000000 0.000000 0.000000 -1.000000 145 74 28
0.428571 -0.188490 0.000000 0.000000 0.000000 -1.000000 145 74 28
0.428572 0.188490 0.000000 0.000000 0.000000 -1.000000 145 74 28
-0.428572 -0.188490 0.000000 0.000000 0.000000 -1.000000 145 74 28
-0.428571 0.188490 0.000000 0.000000 0.000000 -1.000000 145 74 28
-1.285715 -0.188490 0.000000 0.000000 0.000000 -1.000000 145 74 28
-1.285713 0.188490 0.000000 0.000000 0.000000 -1.000000 145 74 28
3.000002 0.188490 10.346321 0.000000 -0.000000 1.000000 145 74 28
2.142859 0.188490 10.346321 0.000000 -0.000000 1.000000 145 74 28
2.142856 -0.188490 10.346321 0.000000 -0.000000 1.000000 145 74 28
2.999998 -0.188490 10.346321 0.000000 -0.000000 1.000000 145 74 28
1.285716 0.188490 10.346321 0.000000 -0.000000 1.000000 145 74 28
1.285713 -0.188490 10.346321 0.000000 -0.000000 1.000000 145 74 28
0.428573 0.188490 10.346321 0.000000 -0.000000 1.000000 145 74 28
0.428570 -0.188490 10.346321 0.000000 -0.000000 1.000000 145 74 28
-0.428570 0.188490 10.346321 0.000000 -0.000000 1.000000 145 74 28
-1.285713 0.188490 10.346321 0.000000 -0.000000 1.000000 145 74 28
0.428572 0.188490 0.000000 -0.315315 -0.948987 0.000000 145 74 28
0.428573 0.188490 10.346321 -0.315315 -0.948987 0.000000 145 74 28
0.220730 0.257549 10.346321 -0.315315 -0.948987 0.000000 145 74 28
0.220729 0.257549 0.000000 -0.315315 -0.948987 0.000000 145 74 28
2.142857 -0.188490 0.000000 -0.000000 -1.000000 -0.000000 145 74 28
2.142856 -0.188490 10.346321 -0.000000 -1.000000 -0.000000 145 74 28
1.285713 -0.188490 10.346321 -0.000000 -1.000000 -0.000000 145 74 28
1.285714 -0.188490 0.000000 -0.000000 -1.000000 -0.000000 145 74 28
0.220729 0.257549 0.000000 0.000000 -0.000000 -1.000000 145 74 28
1.493557 0.257549 0.000000 0.000000 -0.000000 -1.000000 145 74 28
0.428571 -0.188490 0.000000 -0.000000 -1.000000 -0.000000 145 74 28
0.428570 -0.188490 10.346321 -0.000000 -1.000000 -0.000000 145 74 28
-0.428573 -0.188490 10.346321 -0.000000 -1.000000 -0.000000 145 74 28
-0.428572 -0.188490 0.000000 -0.000000 -1.000000 -0.000000 145 74 28
-1.935015 -0.257549 0.000000 0.000000 0.000000 -1.000000 145 74 28
-3.207843 -0.257549 0.000000 0.000000 0.000000 -1.000000 145 74 28
-1.285715 -0.188490 0.000000 -0.000000 -1.000000 -0.000000 145 74 28
-1.285715 -0.188490 10.346321 -0.000000 -1.000000 -0.000000 145 74 28
-2.142858 -0.188490 10.346321 -0.000000 -1.000000 -0.000000 145 74 28
-2.142858 -0.188490 0.000000 -0.000000 -1.000000 -0.000000 145 74 28
-1.285713 0.188490 0.000000 -0.315316 -0.948987 -0.000000 145 74 28
-1.285713 0.188490 10.346321 -0.315316 -0.948987 -0.000000 145 74 28
-1.493556 0.257549 10.346321 -0.315316 -0.948987 -0.000000 145 74 28
-1.493556 0.257549 0.000000 -0.315316 -0.948987 -0.000000 145 74 28
2.142859 0.188490 10.346321 0.000000 1.000000 0.000000 145 74 28
2.142857 0.188490 0.000000 0.000000 1.000000 0.000000 145 74 28
1.285715 0.188490 0.000000 0.000000 1.000000 0.000000 145 74 28
1.285716 0.188490 10.346321 0.000000 1.000000 0.000000 145 74 28
-1.493556 0.257549 0.000000 0.000000 -0.000000 -1.000000 145 74 28
-0.220728 0.257549 0.000000 0.000000 -0.000000 -1.000000 145 74 28
0.428573 0.188490 10.346321 0.000000 1.000000 0.000000 145 74 28
0.428572 0.188490 0.000000 0.000000 1.000000 0.000000 145 74 28
-0.428571 0.188490 0.000000 0.000000 1.000000 0.000000 145 74 28
-0.428570 0.188490 10.346321 0.000000 1.000000 0.000000 145 74 28
1.285714 -0.188490 0.000000 0.315315 0.948987 0.000000 145 74 28
1.285713 -0.188490 10.346321 0.315315 0.948987 0.000000 145 74 28
1.493555 -0.257549 10.346321 0.315315 0.948987 0.000000 145 74 28
1.493557 -0.257549 0.000000 0.315315 0.948987 0.000000 145 74 28
-1.285713 0.188490 10.346321 0.000000 1.000000 0.000000 145 74 28
-1.285713 0.188490 0.000000 0.000000 1.000000 0.000000 145 74 28
-2.142856 0.188490 0.000000 0.000000 1.000000 0.000000 145 74 28
-2.142856 0.188490 10.346321 0.000000 1.000000 0.000000 145 74 28
-1.935015 -0.257549 0.000000 -0.000000 -1.000000 -0.000000 145 74 28
-1.935016 -0.257549 10.346321 -0.000000 -1.000000 -0.000000 145 74 28
-3.207843 -0.257549 10.346321 -0.000000 -1.000000 -0.000000 145 74 28
-3.207843 -0.257549 0.000000 -0.000000 -1.000000 -0.000000 145 74 28
-1.935014 0.257549 10.346321 0.000000 1.000000 0.000000 145 74 28
-1.935014 0.257549 0.000000 0.000000 1.000000 0.000000 145 74 28
-3.207841 0.257549 0.000000 0.000000 1.000000 0.000000 145 74 28
-3.207842 0.257549 10.346321 0.000000 1.000000 0.000000 145 74 28
3.207843 -0.257549 0.000000 -0.000000 -1.000000 -0.000000 145 74 28
3.207840 -0.257549 10.346321 -0.000000 -1.000000 -0.000000 145 74 28
1.935013 -0.257549 10.346321 -0.000000 -1.000000 -0.000000 145 74 28
1.935015 -0.257549 0.000000 -0.000000 -1.000000 -0.000000 145 74 28
1.493557 -0.257549 0.000000 -0.000000 -1.000000 -0.000000 145 74 28
1.493555 -0.257549 10.346321 -0.000000 -1.000000 -0.000000 145 74 28
0.220727 -0.257549 10.346321 -0.000000 -1.000000 -0.000000 145 74 28
0.220729 -0.257549 0.000000 -0.000000 -1.000000 -0.000000 145 74 28
-0.220729 -0.257549 0.000000 -0.000000 -1.000000 -0.000000 145 74 28
-0.220730 -0.257549 10.346321 -0.000000 -1.000000 -0.000000 145 74 28
-1.493558 -0.257549 10.346321 -0.000000 -1.000000 -0.000000 145 74 28
-1.493557 -0.257549 0.000000 -0.000000 -1.000000 -0.000000 145 74 28
3.207845 0.257549 10.346321 0.000000 1.000000 0.000000 145 74 28
3.207842 0.257549 0.000000 0.000000 1.000000 0.000000 145 74 28
1.935014 0.257549 0.000000 0.000000 1.000000 0.000000 145 74 28
1.935016 0.257549 10.346321 0.000000 1.000000 0.000000 145 74 28
1.493558 0.257549 10.346321 0.000000 1.000000 0.000000 145 74 28
1.493557 0.257549 0.000000 0.000000 1.000000 0.000000 145 74 28
0.220729 0.257549 0.000000 0.000000 1.000000 0.000000 145 74 28
0.220730 0.257549 10.346321 0.000000 1.000000 0.000000 145 74 28
-0.220728 0.257549 10.346321 0.000000 1.000000 0.000000 145 74 28
-0.220728 0.257549 0.000000 0.000000 1.000000 0.000000 145 74 28
-1.493556 0.257549 0.000000 0.000000 1.000000 0.000000 145 74 28
-1.493556 0.257549 10.346321 0.000000 1.000000 0.000000 145 74 28
1.935014 0.257549 0.000000 0.000000 -0.000000 -1.000000 145 74 28
3.207842 0.257549 0.000000 0.000000 -0.000000 -1.000000 145 74 28
2.142857 0.188490 0.000000 -0.315315 -0.948987 0.000000 145 74 28
2.142859 0.188490 10.346321 -0.315315 -0.948987 0.000000 145 74 28
1.935016 0.257549 10.346321 -0.315315 -0.948987 0.000000 145 74 28
1.935014 0.257549 0.000000 -0.315315 -0.948987 0.000000 145 74 28
0.220727 -0.257549 10.346321 0.000000 -0.000000 1.000000 145 74 28
1.493555 -0.257549 10.346321 0.000000 -0.000000 1.000000 145 74 28
-3.207843 -0.257549 10.346321 0.000000 -0.000000 1.000000 145 74 28
-1.935016 -0.257549 10.346321 0.000000 -0.000000 1.000000 145 74 28
-1.285715 -0.188490 10.346321 -0.315315 0.948987 -0.000000 145 74 28
-1.285715 -0.188490 0.000000 -0.315315 0.948987 -0.000000 145 74 28
-1.493557 -0.257549 0.000000 -0.315315 0.948987 -0.000000 145 74 28
-1.493558 -0.257549 10.346321 -0.315315 0.948987 -0.000000 145 74 28
1.935013 -0.257549 10.346321 0.000000 -0.000000 1.000000 145 74 28
3.207840 -0.257549 10.346321 0.000000 -0.000000 1.000000 145 74 28
0.428570 -0.188490 10.346321 -0.315315 0.948987 -0.000000 145 74 28
0.428571 -0.188490 0.000000 -0.315315 0.948987 -0.000000 145 74 28
0.220729 -0.257549 0.000000 -0.315315 0.948987 -0.000000 145 74 28
0.220727 -0.257549 10.346321 -0.315315 0.948987 -0.000000 145 74 28
-0.220728 0.257549 10.346321 0.000000 0.000000 1.000000 145 74 28
-1.493556 0.257549 10.346321 0.000000 0.000000 1.000000 145 74 28
-3.000001 -0.188490 10.346321 -0.315315 0.948987 -0.000000 145 74 28
-3.000000 -0.188490 0.000000 -0.315315 0.948987 -0.000000 145 74 28
-3.207843 -0.257549 0.000000 -0.315315 0.948987 -0.000000 145 74 28
-3.207843 -0.257549 10.346321 -0.315315 0.948987 -0.000000 145 74 28
-2.142856 0.188490 10.346321 0.315316 -0.948987 -0.000000 145 74 28
-2.142856 0.188490 0.000000 0.315316 -0.948987 -0.000000 145 74 28
-1.935014 0.257549 0.000000 0.315316 -0.948987 -0.000000 145 74 28
-1.935014 0.257549 10.346321 0.315316 -0.948987 -0.000000 145 74 28
2.142856 -0.188490 10.346321 -0.315315 0.948987 -0.000000 145 74 28
2.142857 -0.188490 0.000000 -0.315315 0.948987 -0.000000 145 74 28
1.935015 -0.257549 0.000000 -0.315315 0.948987 -0.000000 145 74 28
1.935013 -0.257549 10.346321 -0.315315 0.948987 -0.000000 145 74 28
3.000000 -0.188490 0.000000 0.315316 0.948987 0.000000 145 74 28
2.999998 -0.188490 10.346321 0.315316 0.948987 0.000000 145 74 28
3.207840 -0.257549 10.346321 0.315316 0.948987 0.000000 145 74 28
3.207843 -0.257549 0.000000 0.315316 0.948987 0.000000 145 74 28
1.493558 0.257549 10.346321 0.000000 0.000000 1.000000 145 74 28
0.220730 0.257549 10.346321 0.000000 0.000000 1.000000 145 74 28
-0.428570 0.188490 10.346321 0.315315 -0.948987 -0.000000 145 74 28
-0.428571 0.188490 0.000000 0.315315 -0.948987 -0.000000 145 74 28
-0.220728 0.257549 0.000000 0.315315 -0.948987 -0.000000 145 74 28
-0.220728 0.257549 10.346321 0.315315 -0.948987 -0.000000 145 74 28
3.000002 0.188490 10.346321 0.315315 -0.948987 -0.000000 145 74 28
3.000000 0.188490 0.000000 0.315315 -0.948987 -0.000000 145 74 28
3.207842 0.257549 0.000000 0.315315 -0.948987 -0.000000 145 74 28
3.207845 0.257549 10.346321 0.315315 -0.948987 -0.000000 145 74 28
3.207845 0.257549 10.346321 0.000000 0.000000 1.000000 145 74 28
1.935016 0.257549 10.346321 0.000000 0.000000 1.000000 145 74 28
1.285716 0.188490 10.346321 0.315315 -0.948987 -0.000000 145 74 28
1.285715 0.188490 0.000000 0.315315 -0.948987 -0.000000 145 74 28
1.493557 0.257549 0.000000 0.315315 -0.948987 -0.000000 145 74 28
1.493558 0.257549 10.346321 0.315315 -0.948987 -0.000000 145 74 28
-0.220729 -0.257549 0.000000 0.000000 0.000000 -1.000000 145 74 28
-1.493557 -0.257549 0.000000 0.000000 0.000000 -1.000000 145 74 28
-2.142858 -0.188490 0.000000 0.315315 0.948987 0.000000 145 74 28
-2.142858 -0.188490 10.346321 0.315315 0.948987 0.000000 145 74 28
-1.935016 -0.257549 10.346321 0.315315 0.948987 0.000000 145 74 28
-1.935015 -0.257549 0.000000 0.315315 0.948987 0.000000 145 74 28
-1.935014 0.257549 10.346321 0.000000 0.000000 1.000000 145 74 28
-3.207842 0.257549 10.346321 0.000000 0.000000 1.000000 145 74 28
1.493557 -0.257549 0.000000 0.000000 0.000000 -1.000000 145 74 28
0.220729 -0.257549 0.000000 0.000000 0.000000 -1.000000 145 74 28
-0.428572 -0.188490 0.000000 0.315315 0.948987 0.000000 145 74 28
-0.428573 -0.188490 10.346321 0.315315 0.948987 0.000000 145 74 28
-0.220730 -0.257549 10.346321 0.315315 0.948987 0.000000 145 74 28
-0.220729 -0.257549 0.000000 0.315315 0.948987 0.000000 145 74 28
-2.999999 0.188490 0.000000 -0.315315 -0.948987 -0.000000 145 74 28
-2.999999 0.188490 10.346321 -0.315315 -0.948987 -0.000000 145 74 28
-3.207842 0.257549 10.346321 -0.315315 -0.948987 -0.000000 145 74 28
-3.207841 0.257549 0.000000 -0.315315 -0.948987 -0.000000 145 74 28
3.207843 -0.257549 0.000000 0.000000 0.000000 -1.000000 145 74 28
1.935015 -0.257549 0.000000 0.000000 0.000000 -1.000000 145 74 28
-2.242072 0.539126 5.067143 0.463924 0.372952 -0.803543 77 39 15
-2.501924 0.539127 4.917118 0.463924 0.372952 -0.803543 77 39 15
-2.501924 0.684982 4.984815 0.463924 0.372952 -0.803543 77 39 15
-2.300698 0.684982 5.100992 0.463924 0.372952 -0.803543 77 39 15
-2.369921 0.394928 5.140957 0.374124 -0.663414 -0.648006 77 39 15
-2.501924 0.394928 5.064745 0.374124 -0.663414 -0.648006 77 39 15
-2.501924 0.539127 4.917118 0.374124 -0.663414 -0.648006 77 39 15
-2.242072 0.539126 5.067143 0.374124 -0.663414 -0.648006 77 39 15
-2.501924 0.394928 5.369593 0.499999 -0.000001 0.866026 77 39 15
-2.501924 -0.394928 5.369593 0.499999 -0.000001 0.866026 77 39 15
-2.369921 -0.394928 5.293381 0.499999 -0.000001 0.866026 77 39 15
-2.369921 0.394928 5.293381 0.499999 -0.000001 0.866026 77 39 15
-2.501924 0.539127 4.917118 -0.463924 0.372952 -0.803543 77 39 15
-2.761776 0.539126 5.067143 -0.463924 0.372952 -0.803543 77 39 15
-2.703150 0.684982 5.100992 -0.463924 0.372952 -0.803543 77 39 15
-2.501924 0.684982 4.984815 -0.463924 0.372952 -0.803543 77 39 15
-2.501924 0.394928 5.064745 -0.374124 -0.663414 -0.648006 77 39 15
-2.633927 0.394928 5.140957 -0.374124 -0.663414 -0.648006 77 39 15
-2.761776 0.539126 5.067143 -0.374124 -0.663414 -0.648006 77 39 15
-2.501924 0.539127 4.917118 -0.374124 -0.663414 -0.648006 77 39 15
-2.369921 0.394928 5.293381 1.000000 0.000000 -0.000000 77 39 15
-2.369921 -0.394928 5.293381 1.000000 0.000000 -0.000000 77 39 15
-2.369921 -0.394928 5.140956 1.000000 0.000000 -0.000000 77 39 15
-2.369921 0.394928 5.140957 1.000000 0.000000 -0.000000 77 39 15
-2.501924 0.684981 5.449525 -0.000000 1.000000 0.000002 77 39 15
-2.300698 0.684981 5.333348 -0.000000 1.000000 0.000002 77 39 15
-2.703150 0.684981 5.333348 -0.000000 1.000000 0.000002 77 39 15
-2.300698 0.684982 5.100992 0.000000 1.000000 0.000002 77 39 15
-2.501924 0.684982 4.984815 0.000000 1.000000 0.000002 77 39 15
-2.703150 0.684982 5.100992 -0.000000 1.000000 0.000002 77 39 15
-2.300698 0.684981 5.333348 0.000000 1.000000 0.000003 77 39 15
-2.501924 0.684982 4.984815 0.000000 1.000000 0.000003 77 39 15
-2.703150 0.684981 5.333348 0.000000 1.000000 0.000003 77 39 15
-2.633927 0.394928 5.140957 -0.748251 -0.663416 -0.000001 77 39 15
-2.633927 0.394928 5.293381 -0.748251 -0.663416 -0.000001 77 39 15
-2.761776 0.539126 5.367195 -0.748251 -0.663416 -0.000001 77 39 15
-2.761776 0.539126 5.067143 -0.748251 -0.663416 -0.000001 77 39 15
-2.369921 0.394928 5.140957 0.499999 0.000001 -0.866026 77 39 15
-2.369921 -0.394928 5.140956 0.499999 0.000001 -0.866026 77 39 15
-2.501924 -0.394928 5.064744 0.499999 0.000001 -0.866026 77 39 15
-2.501924 0.394928 5.064745 0.499999 0.000001 -0.866026 77 39 15
-2.501924 0.394928 5.369593 0.374125 -0.663417 0.648004 255 255 255
-2.369921 0.394928 5.293381 0.374125 -0.663417 0.648004 255 255 255
-2.242072 0.539126 5.367195 0.374125 -0.663417 0.648004 255 255 255
-2.501924 0.539125 5.517220 0.374125 -0.663417 0.648004 255 255 255
-2.501924 0.539125 5.517220 0.463925 0.372947 0.803545 77 39 15
-2.242072 0.539126 5.367195 0.463925 0.372947 0.803545 77 39 15
-2.300698 0.684981 5.333348 0.463925 0.372947 0.803545 77 39 15
-2.501924 0.684981 5.449525 0.463925 0.372947 0.803545 77 39 15
-2.501924 0.394928 5.064745 -0.499999 0.000001 -0.866026 77 39 15
-2.501924 -0.394928 5.064744 -0.499999 0.000001 -0.866026 77 39 15
-2.633927 -0.394928 5.140956 -0.499999 0.000001 -0.866026 77 39 15
-2.633927 0.394928 5.140957 -0.499999 0.000001 -0.866026 77 39 15
-2.501924 -0.394928 5.369593 -0.404018 0.589132 0.699781 77 39 15
-2.633927 -0.394928 5.293381 -0.404018 0.589132 0.699781 77 39 15
-2.740092 -0.540540 5.354674 -0.404018 0.589132 0.699781 77 39 15
-2.501924 -0.540540 5.492181 -0.404018 0.589132 0.699781 77 39 15
-2.633927 0.394928 5.293381 -0.499999 -0.000001 0.866026 77 39 15
-2.633927 -0.394928 5.293381 -0.499999 -0.000001 0.866026 77 39 15
-2.501924 -0.394928 5.369593 -0.499999 -0.000001 0.866026 77 39 15
-2.501924 0.394928 5.369593 -0.499999 -0.000001 0.866026 77 39 15
-2.633927 0.394928 5.140957 -1.000000 0.000000 -0.000000 77 39 15
-2.633927 -0.394928 5.140956 -1.000000 0.000000 -0.000000 77 39 15
-2.633927 -0.394928 5.293381 -1.000000 0.000000 -0.000000 77 39 15
-2.633927 0.394928 5.293381 -1.000000 0.000000 -0.000000 77 39 15
-2.242072 0.539126 5.367195 0.927851 0.372950 0.000001 77 39 15
-2.242072 0.539126 5.067143 0.927851 0.372950 0.000001 77 39 15
-2.300698 0.684982 5.100992 0.927851 0.372950 0.000001 77 39 15
-2.300698 0.684981 5.333348 0.927851 0.372950 0.000001 77 39 15
-2.369921 0.394928 5.293381 0.748251 -0.663416 -0.000001 77 39 15
-2.369921 0.394928 5.140957 0.748251 -0.663416 -0.000001 77 39 15
-2.242072 0.539126 5.067143 0.748251 -0.663416 -0.000001 77 39 15
-2.242072 0.539126 5.367195 0.748251 -0.663416 -0.000001 79 41 17
-2.633927 0.394928 5.293381 -0.374125 -0.663417 0.648004 77 39 15
-2.501924 0.394928 5.369593 -0.374125 -0.663417 0.648004 77 39 15
-2.501924 0.539125 5.517220 -0.374125 -0.663417 0.648004 77 39 15
-2.761776 0.539126 5.367195 -0.374125 -0.663417 0.648004 77 39 15
-2.761776 0.539126 5.067143 -0.927851 0.372950 0.000001 77 39 15
-2.761776 0.539126 5.367195 -0.927851 0.372950 0.000001 77 39 15
-2.703150 0.684981 5.333348 -0.927851 0.372950 0.000001 77 39 15
-2.703150 0.684982 5.100992 -0.927851 0.372950 0.000001 77 39 15
-2.761776 0.539126 5.367195 -0.463925 0.372947 0.803545 77 39 15
-2.501924 0.539125 5.517220 -0.463925 0.372947 0.803545 77 39 15
-2.501924 0.684981 5.449525 -0.463925 0.372947 0.803545 77 39 15
-2.703150 0.684981 5.333348 -0.463925 0.372947 0.803545 77 39 15
-2.501924 -0.540540 5.492181 -0.457885 -0.401707 0.793078 77 39 15
-2.740092 -0.540540 5.354674 -0.457885 -0.401707 0.793078 77 39 15
-2.673686 -0.691927 5.316334 -0.457885 -0.401707 0.793078 77 39 15
-2.501924 -0.691927 5.415501 -0.457885 -0.401707 0.793078 77 39 15
-2.633927 -0.394928 5.293381 -0.808036 0.589133 0.000001 77 39 15
-2.633927 -0.394928 5.140956 -0.808036 0.589133 0.000001 77 39 15
-2.740092 -0.540539 5.079662 -0.808036 0.589133 0.000001 77 39 15
-2.740092 -0.540540 5.354674 -0.808036 0.589133 0.000001 77 39 15
-2.633927 -0.394928 5.140956 -0.404017 0.589135 -0.699779 77 39 15
-2.501924 -0.394928 5.064744 -0.404017 0.589135 -0.699779 77 39 15
-2.501924 -0.540539 4.942156 -0.404017 0.589135 -0.699779 77 39 15
-2.740092 -0.540539 5.079662 -0.404017 0.589135 -0.699779 77 39 15
-2.501924 -0.394928 5.064744 0.404016 0.589135 -0.699779 77 39 15
-2.369921 -0.394928 5.140956 0.404016 0.589135 -0.699779 77 39 15
-2.263756 -0.540539 5.079662 0.404016 0.589135 -0.699779 78 40 16
-2.501924 -0.540539 4.942156 0.404016 0.589135 -0.699779 83 45 22
-2.369921 -0.394928 5.140956 0.808034 0.589135 0.000001 77 39 15
-2.369921 -0.394928 5.293381 0.808034 0.589135 0.000001 77 39 15
-2.263756 -0.540540 5.354674 0.808034 0.589135 0.000001 77 39 15
-2.263756 -0.540539 5.079662 0.808034 0.589135 0.000001 77 39 15
-2.369921 -0.394928 5.293381 0.404017 0.589133 0.699780 77 39 15
-2.501924 -0.394928 5.369593 0.404017 0.589133 0.699780 77 39 15
-2.501924 -0.540540 5.492181 0.404017 0.589133 0.699780 77 39 15
-2.263756 -0.540540 5.354674 0.404017 0.589133 0.699780 77 39 15
-2.330162 -0.691927 5.316334 0.000001 -1.000000 -0.000002 77 39 15
-2.501924 -0.691927 5.415501 0.000001 -1.000000 -0.000002 77 39 15
-2.330162 -0.691926 5.118001 0.000001 -1.000000 -0.000002 77 39 15
-2.501924 -0.691927 5.415501 -0.000001 -1.000000 -0.000002 77 39 15
-2.673686 -0.691927 5.316334 -0.000001 -1.000000 -0.000002 77 39 15
-2.673686 -0.691926 5.118001 -0.000001 -1.000000 -0.000002 77 39 15
-2.673686 -0.691926 5.118001 0.000000 -1.000000 -0.000003 77 39 15
-2.501924 -0.691926 5.018835 0.000000 -1.000000 -0.000003 77 39 15
-2.330162 -0.691926 5.118001 0.000000 -1.000000 -0.000003 77 39 15
-2.501924 -0.691927 5.415501 -0.000000 -1.000000 -0.000002 77 39 15
-2.673686 -0.691926 5.118001 -0.000000 -1.000000 -0.000002 77 39 15
-2.330162 -0.691926 5.118001 -0.000000 -1.000000 -0.000002 77 39 15
-2.740092 -0.540540 5.354674 -0.915769 -0.401705 -0.000001 77 39 15
-2.740092 -0.540539 5.079662 -0.915769 -0.401705 -0.000001 77 39 15
-2.673686 -0.691926 5.118001 -0.915769 -0.401705 -0.000001 77 39 15
-2.673686 -0.691927 5.316334 -0.915769 -0.401705 -0.000001 77 39 15
-2.740092 -0.540539 5.079662 -0.457882 -0.401702 -0.793082 77 39 15
-2.501924 -0.540539 4.942156 -0.457882 -0.401702 -0.793082 77 39 15
-2.501924 -0.691926 5.018835 -0.457882 -0.401702 -0.793082 77 39 15
-2.673686 -0.691926 5.118001 -0.457882 -0.401702 -0.793082 77 39 15
-2.501924 -0.540539 4.942156 0.457882 -0.401702 -0.793082 77 39 15
-2.263756 -0.540539 5.079662 0.457882 -0.401702 -0.793082 77 39 15
-2.330162 -0.691926 5.118001 0.457882 -0.401702 -0.793082 77 39 15
-2.501924 -0.691926 5.018835 0.457882 -0.401702 -0.793082 77 39 15
-2.263756 -0.540539 5.079662 0.915769 -0.401705 -0.000001 77 39 15
-2.263756 -0.540540 5.354674 0.915769 -0.401705 -0.000001 77 39 15
-2.330162 -0.691927 5.316334 0.915769 -0.401705 -0.000001 77 39 15
-2.330162 -0.691926 5.118001 0.915769 -0.401705 -0.000001 77 39 15
-2.263756 -0.540540 5.354674 0.457885 -0.401707 0.793078 77 39 15
-2.501924 -0.540540 5.492181 0.457885 -0.401707 0.793078 77 39 15
-2.501924 -0.691927 5.415501 0.457885 -0.401707 0.793078 77 39 15
-2.330162 -0.691927 5.316334 0.457885 -0.401707 0.793078 77 39 15
4 0 1 2 3
4 4 5 6 7
4 8 9 10 11
4 0 3 12 13
4 14 15 16 17
4 18 19 20 21
4 22 23 24 25
4 25 24 26 27
4 27 26 28 29
4 29 28 30 31
4 31 30 32 33
4 33 32 1 0
4 34 35 36 37
4 35 38 39 36
4 38 40 41 39
4 40 42 18 41
4 42 43 19 18
4 43 4 7 19
4 44 45 46 47
4 48 49 50 51
4 27 29 52 53
4 54 55 56 57
4 2 1 58 59
4 60 61 62 63
4 64 65 66 67
4 68 69 70 71
4 31 33 72 73
4 74 75 76 77
4 78 79 80 81
4 82 83 84 85
4 86 87 88 89
4 90 91 92 93
4 94 95 96 97
4 98 99 100 101
4 102 103 104 105
4 106 107 108 109
4 110 111 112 113
4 114 115 116 117
4 22 25 118 119
4 120 121 122 123
4 39 41 124 125
4 7 6 126 127
4 128 129 130 131
4 37 36 132 133
4 134 135 136 137
4 43 42 138 139
4 140 141 142 143
4 144 145 146 147
4 148 149 150 151
4 152 153 154 155
4 40 38 156 157
4 158 159 160 161
4 162 163 164 165
4 35 34 166 167
4 168 169 170 171
4 32 30 172 173
4 174 175 176 177
4 5 4 178 179
4 28 26 180 181
4 182 183 184 185
4 186 187 188 189
4 24 23 190 191
4 192 193 194 195
4 196 197 198 199
4 200 201 202 203
4 204 205 206 207
4 208 209 210 211
4 212 213 214 215
3 216 217 218
3 217 219 220
3 220 221 218
3 222 223 224
4 225 226 227 228
4 229 230 231 232
4 233 234 235 236
4 237 238 239 240
4 241 242 243 244
4 245 246 247 248
4 249 250 251 252
4 253 254 255 256
4 257 258 259 260
4 261 262 263 264
4 265 266 267 268
4 269 270 271 272
4 273 274 275 276
4 277 278 279 280
4 281 282 283 284
4 285 286 287 288
4 289 290 291 292
4 293 294 295 296
4 297 298 299 300
3 301 302 303
3 304 305 306
3 307 308 309
3 310 311 312
4 313 314 315 316
4 317 318 319 320
4 321 322 323 324
4 325 326 327 328
4 329 330 331 332
