ply
format ascii 1.0
comment Created by Blender 2.71 (sub 0) - www.blender.org, source file: 'door.blend'
element vertex 148
property float x
property float y
property float z
property float nx
property float ny
property float nz
property uchar red
property uchar green
property uchar blue
element face 42
property list uchar uint vertex_indices
end_header
3.189257 -1.000000 0.130472 1.000000 0.000000 0.000000 56 28 11
3.189257 -1.000000 -0.281797 1.000000 0.000000 0.000000 123 63 24
3.189257 -0.397653 -0.281797 1.000000 0.000000 0.000000 56 28 11
3.189257 -0.397653 0.130472 1.000000 0.000000 0.000000 57 28 11
-3.189257 1.000000 0.130472 0.000000 1.000000 -0.000000 56 28 11
3.189257 1.000000 0.130472 0.000000 1.000000 -0.000000 56 28 11
3.189257 1.000000 -0.281797 0.000000 1.000000 -0.000000 56 28 11
-3.189257 1.000000 -0.281797 0.000000 1.000000 -0.000000 56 28 11
3.189257 -1.000000 -0.281797 0.000000 0.000000 0.000000 255 255 255
3.189257 1.000000 -0.281797 0.000000 0.000000 0.000000 255 255 255
3.189257 0.397653 -0.281797 0.000000 0.000000 0.000000 255 255 255
3.189257 -0.397653 -0.281797 0.000000 0.000000 0.000000 255 255 255
-3.189257 -1.000000 -0.281797 0.000000 -1.000000 -0.000000 56 28 11
3.189257 -1.000000 -0.281797 0.000000 -1.000000 -0.000000 56 28 11
3.189257 -1.000000 0.130472 0.000000 -1.000000 -0.000000 56 28 11
-3.189257 -1.000000 0.130472 0.000000 -1.000000 -0.000000 56 28 11
-3.189257 -1.000000 -0.281797 -0.000000 0.000000 -1.000000 138 70 27
-3.189257 1.000000 -0.281797 -0.000000 0.000000 -1.000000 138 70 27
3.189257 1.000000 -0.281797 -0.000000 0.000000 -1.000000 151 77 29
3.189257 -1.000000 -0.281797 -0.000000 0.000000 -1.000000 138 70 27
3.189257 -1.000000 0.130472 -0.000000 0.000000 1.000000 56 28 11
3.189257 1.000000 0.130472 -0.000000 0.000000 1.000000 56 28 11
-3.189257 1.000000 0.130472 -0.000000 0.000000 1.000000 56 28 11
-3.189257 -1.000000 0.130472 -0.000000 0.000000 1.000000 56 28 11
3.189257 -0.397653 0.130472 -0.000000 -1.000000 0.000000 153 78 30
3.189257 -0.397653 -0.281797 -0.000000 -1.000000 0.000000 138 70 27
3.553721 -0.397653 -0.281797 -0.000000 -1.000000 0.000000 144 73 27
3.553721 -0.397653 0.130472 -0.000000 -1.000000 0.000000 153 78 30
3.189257 -0.397653 -0.281797 -0.000000 0.000000 -1.000000 138 70 27
3.189257 0.397653 -0.281797 -0.000000 0.000000 -1.000000 138 70 27
3.553721 0.397653 -0.281797 -0.000000 0.000000 -1.000000 147 75 27
3.553721 -0.397653 -0.281797 -0.000000 0.000000 -1.000000 144 73 27
3.189257 1.000000 0.130472 0.000000 0.000000 0.000000 255 255 255
3.189257 -1.000000 0.130472 0.000000 0.000000 0.000000 255 255 255
3.189257 -0.397653 0.130472 0.000000 0.000000 0.000000 255 255 255
3.189257 0.397653 0.130472 0.000000 0.000000 0.000000 255 255 255
3.189257 1.000000 -0.281797 1.000000 -0.000000 0.000000 151 77 29
3.189257 1.000000 0.130472 1.000000 -0.000000 0.000000 153 78 30
3.189257 0.397653 0.130472 1.000000 -0.000000 0.000000 153 78 30
3.189257 0.397653 -0.281797 1.000000 -0.000000 0.000000 138 70 27
-3.189257 1.000000 -0.281797 0.000000 0.000000 0.000000 255 255 255
-3.189257 -1.000000 -0.281797 0.000000 0.000000 0.000000 255 255 255
-3.189257 -0.397653 -0.281797 0.000000 0.000000 0.000000 255 255 255
-3.189257 0.397653 -0.281797 0.000000 0.000000 0.000000 255 255 255
-3.189257 1.000000 0.130472 -1.000000 0.000000 0.000000 56 28 11
-3.189257 1.000000 -0.281797 -1.000000 0.000000 0.000000 56 28 11
-3.189257 0.397653 -0.281797 -1.000000 0.000000 0.000000 56 28 11
-3.189257 0.397653 0.130472 -1.000000 0.000000 0.000000 56 28 11
-3.189257 -1.000000 0.130472 0.000000 0.000000 0.000000 255 255 255
-3.189257 1.000000 0.130472 0.000000 0.000000 0.000000 255 255 255
-3.189257 0.397653 0.130472 0.000000 0.000000 0.000000 255 255 255
-3.189257 -0.397653 0.130472 0.000000 0.000000 0.000000 255 255 255
-3.189257 -1.000000 -0.281797 -1.000000 -0.000000 0.000000 56 28 11
-3.189257 -1.000000 0.130472 -1.000000 -0.000000 0.000000 56 28 11
-3.189257 -0.397653 0.130472 -1.000000 -0.000000 0.000000 56 28 11
-3.189257 -0.397653 -0.281797 -1.000000 -0.000000 0.000000 56 28 11
-3.553721 -0.397653 0.130472 -1.000000 0.000000 0.000000 138 70 27
-3.553721 0.397653 0.130472 -1.000000 0.000000 0.000000 138 70 27
-3.553721 0.397653 -0.281797 -1.000000 0.000000 0.000000 138 70 27
-3.553721 -0.397653 -0.281797 -1.000000 0.000000 0.000000 138 70 27
3.553721 0.397653 0.130472 1.000000 0.000000 -0.000000 153 78 30
3.553721 -0.397653 0.130472 1.000000 0.000000 -0.000000 153 78 30
3.553721 -0.397653 -0.281797 1.000000 0.000000 -0.000000 151 77 30
3.553721 0.397653 -0.281797 1.000000 0.000000 -0.000000 147 75 27
-3.189257 0.397653 0.130472 0.000000 1.000000 0.000000 138 70 27
-3.553721 0.397653 0.130472 0.000000 1.000000 0.000000 138 70 27
-3.553721 0.397653 10.365122 0.000000 1.000000 0.000000 153 78 30
-3.189257 0.397653 10.365122 0.000000 1.000000 0.000000 153 78 30
3.189257 0.397653 -0.281797 0.000000 1.000000 0.000000 138 70 27
3.189257 0.397653 0.130472 0.000000 1.000000 0.000000 144 73 27
3.553721 0.397653 0.130472 0.000000 1.000000 0.000000 138 70 27
3.553721 0.397653 -0.281797 0.000000 1.000000 0.000000 138 70 27
-3.189257 0.397653 -0.281797 0.000000 0.000000 -1.000000 138 70 27
-3.189257 -0.397653 -0.281797 0.000000 0.000000 -1.000000 138 70 27
-3.553721 -0.397653 -0.281797 0.000000 0.000000 -1.000000 138 70 27
-3.553721 0.397653 -0.281797 0.000000 0.000000 -1.000000 138 70 27
-3.189257 0.397653 -0.281797 -0.000000 1.000000 0.000000 138 70 27
-3.553721 0.397653 -0.281797 -0.000000 1.000000 0.000000 138 70 27
-3.553721 -0.397653 0.130472 0.000000 -1.000000 -0.000000 153 78 30
-3.189257 -0.397653 0.130472 0.000000 -1.000000 -0.000000 145 74 28
-3.189257 -0.397653 10.365122 0.000000 -1.000000 -0.000000 138 70 27
-3.553721 -0.397653 10.365122 0.000000 -1.000000 -0.000000 138 70 27
-3.189257 -0.397653 -0.281797 0.000000 -1.000000 0.000000 137 69 27
-3.553721 -0.397653 -0.281797 0.000000 -1.000000 0.000000 149 76 29
-3.553721 0.397653 10.770326 0.000000 1.000000 0.000000 153 78 30
-3.189257 0.397653 10.770326 0.000000 1.000000 0.000000 153 78 30
-3.189257 -0.397653 10.770326 0.000000 -1.000000 -0.000000 138 70 27
-3.553721 -0.397653 10.770326 0.000000 -1.000000 -0.000000 138 70 27
3.189257 0.397653 10.365122 0.000000 1.000000 0.000000 153 78 30
3.553721 0.397653 10.365122 0.000000 1.000000 0.000000 149 75 29
3.553721 -0.397653 10.365122 0.000000 -1.000000 -0.000000 138 70 27
3.189257 -0.397653 10.365122 0.000000 -1.000000 -0.000000 138 70 27
3.553721 0.397653 10.365122 1.000000 0.000000 0.000000 149 75 29
3.553721 -0.397653 10.365122 1.000000 0.000000 0.000000 153 78 30
-3.553721 0.397653 0.130472 -1.000000 0.000000 -0.000000 150 77 29
-3.553721 -0.397653 0.130472 -1.000000 0.000000 -0.000000 153 78 30
-3.553721 -0.397653 10.365122 -1.000000 0.000000 -0.000000 142 72 27
-3.553721 0.397653 10.365122 -1.000000 0.000000 -0.000000 153 78 30
3.189257 0.397653 0.130472 -1.000000 0.000000 -0.000000 138 70 27
3.189257 -0.397653 0.130472 -1.000000 0.000000 -0.000000 138 70 27
3.189257 -0.397653 10.365122 -1.000000 0.000000 -0.000000 138 70 27
3.189257 0.397653 10.365122 -1.000000 0.000000 -0.000000 138 70 27
-3.189257 -0.397653 0.130472 1.000000 0.000000 0.000000 138 70 27
-3.189257 0.397653 0.130472 1.000000 0.000000 0.000000 138 70 27
-3.189257 0.397653 10.365122 1.000000 0.000000 0.000000 153 78 30
-3.189257 -0.397653 10.365122 1.000000 0.000000 0.000000 153 78 30
3.189257 0.397653 10.770326 0.000000 0.000000 1.000000 153 78 30
3.189257 -0.397653 10.770326 0.000000 0.000000 1.000000 151 77 29
3.553721 -0.397653 10.770326 0.000000 0.000000 1.000000 153 78 30
3.553721 0.397653 10.770326 0.000000 0.000000 1.000000 153 78 30
-3.189257 -0.397653 10.770326 -0.000000 0.000000 1.000000 153 78 30
-3.189257 0.397653 10.770326 -0.000000 0.000000 1.000000 153 78 30
-3.553721 0.397653 10.770326 -0.000000 0.000000 1.000000 153 78 30
-3.553721 -0.397653 10.770326 -0.000000 0.000000 1.000000 153 78 30
3.189257 0.397653 10.770326 0.000000 1.000000 0.000000 153 78 30
3.553721 0.397653 10.770326 0.000000 1.000000 0.000000 153 78 30
3.553721 -0.397653 10.770326 0.000000 -1.000000 -0.000000 138 70 27
3.189257 -0.397653 10.770326 0.000000 -1.000000 -0.000000 138 70 27
3.553721 0.397653 10.770326 1.000000 0.000000 0.000000 153 78 30
3.553721 -0.397653 10.770326 1.000000 0.000000 0.000000 153 78 30
-3.553721 0.397653 10.365122 -1.000000 0.000000 -0.000000 138 70 27
-3.553721 -0.397653 10.365122 -1.000000 0.000000 -0.000000 138 70 27
-3.553721 -0.397653 10.770326 -1.000000 0.000000 -0.000000 138 70 27
-3.553721 0.397653 10.770326 -1.000000 0.000000 -0.000000 138 70 27
3.189257 0.397653 10.365122 -1.000000 0.000000 -0.000000 255 255 255
3.189257 -0.397653 10.365122 -1.000000 0.000000 -0.000000 255 255 255
3.189257 -0.397653 10.770326 -1.000000 0.000000 -0.000000 255 255 255
3.189257 0.397653 10.770326 -1.000000 0.000000 -0.000000 255 255 255
-3.189257 -0.397653 10.365122 1.000000 0.000000 0.000000 255 255 255
-3.189257 0.397653 10.365122 1.000000 0.000000 0.000000 255 255 255
-3.189257 0.397653 10.770326 1.000000 0.000000 0.000000 255 255 255
-3.189257 -0.397653 10.770326 1.000000 0.000000 0.000000 255 255 255
-3.189257 -0.397653 10.770326 -0.000000 0.000000 -1.000000 153 78 30
-3.189257 0.397653 10.770326 -0.000000 0.000000 -1.000000 153 78 30
3.189257 0.397653 10.770326 -0.000000 0.000000 -1.000000 153 78 30
3.189257 -0.397653 10.770326 -0.000000 0.000000 -1.000000 151 77 29
3.189257 0.397653 10.365122 0.000000 -0.000000 1.000000 138 70 27
-3.189257 0.397653 10.365122 0.000000 -0.000000 1.000000 138 70 27
-3.189257 -0.397653 10.365122 0.000000 -0.000000 1.000000 138 70 27
3.189257 -0.397653 10.365122 0.000000 -0.000000 1.000000 138 70 27
-3.189257 0.397653 10.365122 0.000000 -1.000000 -0.000000 153 78 30
3.189257 0.397653 10.365122 0.000000 -1.000000 -0.000000 153 78 30
3.189257 0.397653 10.770326 0.000000 -1.000000 -0.000000 153 78 30
-3.189257 0.397653 10.770326 0.000000 -1.000000 -0.000000 153 78 30
3.189257 -0.397653 10.365122 0.000000 1.000000 0.000000 138 70 27
-3.189257 -0.397653 10.365122 0.000000 1.000000 0.000000 138 70 27
-3.189257 -0.397653 10.770326 0.000000 1.000000 0.000000 138 70 27
3.189257 -0.397653 10.770326 0.000000 1.000000 0.000000 138 70 27
4 0 1 2 3
4 4 5 6 7
4 8 9 10 11
4 12 13 14 15
4 16 17 18 19
4 20 21 22 23
4 24 25 26 27
4 28 29 30 31
4 32 33 34 35
4 36 37 38 39
4 40 41 42 43
4 44 45 46 47
4 48 49 50 51
4 52 53 54 55
4 56 57 58 59
4 60 61 62 63
4 64 65 66 67
4 68 69 70 71
4 72 73 74 75
4 64 76 77 65
4 78 79 80 81
4 82 79 78 83
4 67 66 84 85
4 81 80 86 87
4 70 69 88 89
4 24 27 90 91
4 61 60 92 93
4 94 95 96 97
4 98 99 100 101
4 102 103 104 105
4 106 107 108 109
4 110 111 112 113
4 89 88 114 115
4 91 90 116 117
4 93 92 118 119
4 120 121 122 123
4 124 125 126 127
4 128 129 130 131
4 132 133 134 135
4 136 137 138 139
4 140 141 142 143
4 144 145 146 147
