ply
format ascii 1.0
comment Created by Blender 2.71 (sub 0) - www.blender.org, source file: 'bellow.blend'
element vertex 303
property float x
property float y
property float z
property float nx
property float ny
property float nz
property uchar red
property uchar green
property uchar blue
element face 86
property list uchar uint vertex_indices
end_header
1.234683 -0.414764 -0.538044 0.000000 -0.000000 -1.000000 153 82 7
0.381331 -0.414764 -0.538044 0.000000 -0.000000 -1.000000 153 82 7
0.381332 0.424971 -0.538044 0.000000 -0.000000 -1.000000 153 83 8
1.234684 0.424970 -0.538044 0.000000 -0.000000 -1.000000 153 82 7
1.234683 -0.414764 -0.538044 -0.233996 0.000000 -0.972237 153 82 7
1.234684 0.424970 -0.538044 -0.233996 0.000000 -0.972237 152 81 7
4.909414 1.418386 -1.422472 -0.233996 0.000000 -0.972237 153 82 7
4.909411 -1.408186 -1.422472 -0.233996 0.000000 -0.972237 152 82 7
1.234683 -0.414764 -0.538044 -0.000001 -1.000000 0.000000 153 82 7
1.234683 -0.414764 -0.143293 -0.000001 -1.000000 0.000000 153 82 7
0.381331 -0.414764 -0.143293 -0.000001 -1.000000 0.000000 153 82 7
0.381331 -0.414764 -0.538044 -0.000001 -1.000000 0.000000 153 82 7
0.381331 -0.414764 -0.538044 -1.000000 0.000001 -0.000000 153 82 7
0.381331 -0.414764 -0.143293 -1.000000 0.000001 -0.000000 153 82 7
0.381332 0.424971 -0.143293 -1.000000 0.000001 -0.000000 153 82 7
0.381332 0.424971 -0.538044 -1.000000 0.000001 -0.000000 153 82 7
0.381332 0.424971 -0.538044 0.000001 1.000000 -0.000000 153 82 7
0.381332 0.424971 -0.143293 0.000001 1.000000 -0.000000 165 79 17
1.234684 0.424970 -0.143293 0.000001 1.000000 -0.000000 153 82 7
1.234684 0.424970 -0.538044 0.000001 1.000000 -0.000000 153 82 7
1.234683 -0.414764 -0.143293 -0.260971 -0.965347 -0.000000 153 82 7
1.234683 -0.414764 -0.538044 -0.260971 -0.965347 -0.000000 153 82 7
4.909411 -1.408186 -1.422472 -0.260971 -0.965347 -0.000000 153 82 7
4.909411 -1.408187 -0.870725 -0.260971 -0.965347 -0.000000 153 82 7
1.234684 0.424970 -0.538044 -0.260969 0.965347 -0.000001 153 82 7
1.234684 0.424970 -0.143293 -0.260969 0.965347 -0.000001 153 82 7
4.909414 1.418387 -0.870725 -0.260969 0.965347 -0.000001 153 82 7
4.909414 1.418386 -1.422472 -0.260969 0.965347 -0.000001 157 87 15
4.909411 -1.408187 -0.870725 1.000000 -0.000001 0.000000 153 82 7
4.909411 -1.408186 -1.422472 1.000000 -0.000001 0.000000 153 82 7
4.909414 1.418386 -1.422472 1.000000 -0.000001 0.000000 152 82 7
4.909414 1.418387 -0.870725 1.000000 -0.000001 0.000000 153 82 7
1.234683 -0.414765 0.251457 -0.000001 -1.000000 -0.000000 153 82 7
0.381331 -0.414763 0.251457 -0.000001 -1.000000 -0.000000 153 82 7
0.381331 -0.414763 0.251457 -1.000000 0.000001 -0.000000 153 82 7
0.381332 0.424971 0.251457 -1.000000 0.000001 -0.000000 152 81 7
0.381332 0.424971 -0.143293 0.000001 1.000000 -0.000000 165 79 18
0.381332 0.424971 0.251457 0.000001 1.000000 -0.000000 176 78 30
1.234684 0.424970 0.251457 0.000001 1.000000 -0.000000 153 82 7
1.234684 0.424970 -0.143293 0.194187 -0.000000 0.980964 153 82 7
1.234683 -0.414764 -0.143293 0.194187 -0.000000 0.980964 153 82 7
4.909411 -1.408187 -0.870725 0.194187 -0.000000 0.980964 153 82 7
4.909414 1.418387 -0.870725 0.194187 -0.000000 0.980964 153 82 7
1.234683 -0.414765 0.251457 -0.260971 -0.965347 -0.000001 153 82 7
1.234683 -0.414764 -0.143293 -0.260971 -0.965347 -0.000001 153 82 7
4.909411 -1.408187 0.625782 -0.260971 -0.965347 -0.000001 154 84 11
4.909411 -1.408187 1.177529 -0.260971 -0.965347 -0.000001 153 82 7
1.234683 -0.414765 0.251457 -0.000000 0.000000 1.000000 153 82 7
1.234684 0.424970 0.251457 -0.000000 0.000000 1.000000 153 82 7
0.381332 0.424971 0.251457 -0.000000 0.000000 1.000000 175 75 27
0.381331 -0.414763 0.251457 -0.000000 0.000000 1.000000 152 81 7
1.234684 0.424970 -0.143293 -0.260969 0.965347 -0.000000 153 82 7
1.234684 0.424970 0.251457 -0.260969 0.965347 -0.000000 153 82 7
4.909414 1.418386 1.177529 -0.260969 0.965347 -0.000000 170 111 48
4.909414 1.418386 0.625782 -0.260969 0.965347 -0.000000 153 82 7
1.234683 -0.414764 -0.143293 0.200610 -0.000000 -0.979671 153 82 7
1.234684 0.424970 -0.143293 0.200610 -0.000000 -0.979671 153 82 7
1.529604 0.359030 -0.082902 0.200610 -0.000000 -0.979671 159 95 29
1.529604 -0.348824 -0.082902 0.200610 -0.000000 -0.979671 198 180 178
1.234684 0.424970 0.251457 -0.244370 0.000000 0.969682 153 82 7
1.234683 -0.414765 0.251457 -0.244370 0.000000 0.969682 153 82 7
4.909411 -1.408187 1.177529 -0.244370 0.000000 0.969682 153 82 7
4.909414 1.418386 1.177529 -0.244370 0.000000 0.969682 186 117 70
4.909411 -1.408187 0.625782 0.183858 -0.069347 -0.980504 154 84 11
1.234683 -0.414764 -0.143293 0.183858 -0.069347 -0.980504 153 82 7
1.529604 -0.348824 -0.082902 0.183858 -0.069347 -0.980504 199 180 178
4.695508 -1.259324 0.565390 0.183858 -0.069347 -0.980504 166 112 59
4.909411 -1.408187 1.177529 1.000000 -0.000001 0.000000 153 82 7
4.909411 -1.408187 0.625782 1.000000 -0.000001 0.000000 154 84 10
4.909414 1.418386 0.625782 1.000000 -0.000001 0.000000 153 82 7
4.909414 1.418386 1.177529 1.000000 -0.000001 0.000000 163 79 16
1.234684 0.424970 -0.143293 0.183858 0.069347 -0.980504 153 82 7
4.909414 1.418386 0.625782 0.183858 0.069347 -0.980504 153 82 7
4.695510 1.269524 0.565390 0.183858 0.069347 -0.980504 153 82 7
1.529604 0.359030 -0.082902 0.183858 0.069347 -0.980504 159 95 30
1.529604 -0.348824 -0.082902 -0.789937 0.000001 0.613188 255 255 255
1.529604 0.359030 -0.082902 -0.789937 0.000001 0.613188 255 255 255
1.467400 0.376374 -0.163036 -0.789937 0.000001 0.613188 255 255 255
1.467399 -0.366169 -0.163036 -0.789937 0.000001 0.613188 255 255 255
4.909414 1.418386 0.625782 0.271711 -0.000000 -0.962379 153 82 7
4.909411 -1.408187 0.625782 0.271711 -0.000000 -0.962379 154 84 11
4.695508 -1.259324 0.565390 0.271711 -0.000000 -0.962379 167 111 58
4.695510 1.269524 0.565390 0.271711 -0.000000 -0.962379 152 82 7
4.695508 -1.259324 0.565390 -0.330131 -0.836518 0.437324 167 112 59
1.529604 -0.348824 -0.082902 -0.330131 -0.836518 0.437324 199 181 179
1.467399 -0.366169 -0.163036 -0.330131 -0.836518 0.437324 199 181 179
4.788455 -1.321290 0.517026 -0.330131 -0.836518 0.437324 171 120 73
1.529604 0.359030 -0.082902 -0.330129 0.836519 0.437323 159 95 30
4.695510 1.269524 0.565390 -0.330129 0.836519 0.437323 152 81 7
4.788456 1.331489 0.517026 -0.330129 0.836519 0.437323 157 92 26
1.467400 0.376374 -0.163036 -0.330129 0.836519 0.437323 154 83 9
1.467399 -0.366169 -0.163036 0.163171 -0.000000 -0.986598 255 255 255
1.467400 0.376374 -0.163036 0.163171 -0.000000 -0.986598 254 254 254
1.549110 0.355394 -0.149522 0.163171 -0.000000 -0.986598 231 223 223
1.549110 -0.345189 -0.149522 0.163171 -0.000000 -0.986598 255 255 255
4.695510 1.269524 0.565390 0.461593 -0.000000 0.887092 153 82 7
4.695508 -1.259324 0.565390 0.461593 -0.000000 0.887092 153 83 10
4.788455 -1.321290 0.517026 0.461593 -0.000000 0.887092 160 98 36
4.788456 1.331489 0.517026 0.461593 -0.000000 0.887092 158 93 27
1.467399 -0.366169 -0.163036 -0.204032 -0.914925 -0.348256 199 181 179
1.549110 -0.345189 -0.149522 -0.204032 -0.914925 -0.348256 199 181 179
4.730978 -1.246337 0.237283 -0.204032 -0.914925 -0.348256 198 180 177
4.788455 -1.321290 0.517026 -0.204032 -0.914925 -0.348256 171 120 73
1.549110 0.355394 -0.149522 -0.204030 0.914926 -0.348256 173 124 81
1.467400 0.376374 -0.163036 -0.204030 0.914926 -0.348256 154 83 9
4.788456 1.331489 0.517026 -0.204030 0.914926 -0.348256 158 93 27
4.730979 1.256536 0.237283 -0.204030 0.914926 -0.348256 199 180 178
1.549110 -0.345189 -0.149522 -0.056643 0.000000 0.998394 255 255 255
1.549110 0.355394 -0.149522 -0.056643 0.000000 0.998394 231 223 223
1.410364 0.386010 -0.157394 -0.056643 0.000000 0.998394 255 255 255
1.410363 -0.375805 -0.157394 -0.056643 0.000000 0.998394 255 255 255
4.788456 1.331489 0.517026 0.979539 -0.000000 -0.201257 158 93 27
4.788455 -1.321290 0.517026 0.979539 -0.000000 -0.201257 171 120 73
4.730978 -1.246337 0.237283 0.979539 -0.000000 -0.201257 199 180 177
4.730979 1.256536 0.237283 0.979539 -0.000000 -0.201257 199 181 179
4.730979 1.256536 0.237283 -0.254219 0.641625 0.723665 199 181 179
4.886517 1.365914 0.126931 -0.254219 0.641625 0.723665 199 180 178
1.410364 0.386010 -0.157394 -0.254219 0.641625 0.723665 153 82 7
1.549110 0.355394 -0.149522 -0.254219 0.641625 0.723665 173 124 81
1.410363 -0.375805 -0.157394 0.123235 -0.000000 -0.992378 255 255 255
1.410364 0.386010 -0.157394 0.123235 -0.000000 -0.992378 255 255 255
1.567588 0.352646 -0.137870 0.123235 -0.000000 -0.992378 255 255 255
1.567588 -0.342440 -0.137870 0.123235 -0.000000 -0.992378 255 255 255
4.730979 1.256536 0.237283 0.578647 -0.000000 0.815578 199 181 179
4.730978 -1.246337 0.237283 0.578647 -0.000000 0.815578 199 180 177
4.886515 -1.355715 0.126931 0.578647 -0.000000 0.815578 194 176 174
4.886517 1.365914 0.126931 0.578647 -0.000000 0.815578 199 181 179
4.886515 -1.355715 0.126931 -0.254220 -0.641622 0.723667 194 176 174
4.730978 -1.246337 0.237283 -0.254220 -0.641622 0.723667 199 181 178
1.549110 -0.345189 -0.149522 -0.254220 -0.641622 0.723667 199 181 179
1.410363 -0.375805 -0.157394 -0.254220 -0.641622 0.723667 199 180 177
4.886517 1.365914 0.126931 -0.203643 0.810536 -0.549146 199 181 179
4.751600 1.246716 -0.126047 -0.203643 0.810536 -0.549146 199 181 179
1.567588 0.352646 -0.137870 -0.203643 0.810536 -0.549146 180 140 108
1.410364 0.386010 -0.157394 -0.203643 0.810536 -0.549146 153 82 7
1.567588 -0.342440 -0.137870 -0.048947 0.000000 0.998801 153 82 7
1.567588 0.352646 -0.137870 -0.048947 0.000000 0.998801 153 82 7
1.415892 0.386906 -0.145304 -0.048947 0.000000 0.998801 153 82 6
1.415892 -0.376701 -0.145304 -0.048947 0.000000 0.998801 153 82 7
4.886517 1.365914 0.126931 0.882360 -0.000001 -0.470574 199 181 179
4.886515 -1.355715 0.126931 0.882360 -0.000001 -0.470574 199 181 179
4.751599 -1.236517 -0.126047 0.882360 -0.000001 -0.470574 199 181 179
4.751600 1.246716 -0.126047 0.882360 -0.000001 -0.470574 199 180 178
4.751599 -1.236517 -0.126047 -0.203644 -0.810535 -0.549147 199 181 179
4.886515 -1.355715 0.126931 -0.203644 -0.810535 -0.549147 194 176 174
1.410363 -0.375805 -0.157394 -0.203644 -0.810535 -0.549147 199 180 177
1.567588 -0.342440 -0.137870 -0.203644 -0.810535 -0.549147 199 181 179
1.415892 0.386906 -0.145304 -0.219140 0.839020 0.498019 153 82 7
1.567588 0.352646 -0.137870 -0.219140 0.839020 0.498019 180 140 108
4.751600 1.246716 -0.126047 -0.219140 0.839020 0.498019 198 180 178
4.904440 1.369114 -0.382036 -0.219140 0.839020 0.498019 199 181 179
1.415892 -0.376701 -0.145304 -0.037730 0.000000 -0.999288 255 255 255
1.415892 0.386906 -0.145304 -0.037730 0.000000 -0.999288 255 255 255
1.657256 0.335060 -0.154417 -0.037730 0.000000 -0.999288 255 255 255
1.657256 -0.324855 -0.154417 -0.037730 0.000000 -0.999288 255 255 255
4.751600 1.246716 -0.126047 0.858606 -0.000001 0.512635 199 181 179
4.751599 -1.236517 -0.126047 0.858606 -0.000001 0.512635 199 181 179
4.904438 -1.358915 -0.382036 0.858606 -0.000001 0.512635 199 181 179
4.904440 1.369114 -0.382036 0.858606 -0.000001 0.512635 198 180 178
4.904438 -1.358915 -0.382036 -0.219142 -0.839019 0.498019 199 181 179
4.751599 -1.236517 -0.126047 -0.219142 -0.839019 0.498019 199 181 179
1.567588 -0.342440 -0.137870 -0.219142 -0.839019 0.498019 199 181 179
1.415892 -0.376701 -0.145304 -0.219142 -0.839019 0.498019 198 180 177
1.415892 -0.376701 -0.145304 -0.246888 -0.609442 -0.753410 198 180 177
1.657256 -0.324855 -0.154417 -0.246888 -0.609442 -0.753410 199 181 179
4.648255 -1.173693 -0.559834 -0.246888 -0.609442 -0.753410 191 164 150
4.904438 -1.358915 -0.382036 -0.246888 -0.609442 -0.753410 199 181 179
1.657256 0.335060 -0.154417 -0.246887 0.609443 -0.753409 198 180 177
1.415892 0.386906 -0.145304 -0.246887 0.609443 -0.753409 247 241 234
4.904440 1.369114 -0.382036 -0.246887 0.609443 -0.753409 199 181 179
4.648257 1.183892 -0.559834 -0.246887 0.609443 -0.753409 193 167 155
1.657256 -0.324855 -0.154417 -0.123063 0.000000 0.992399 153 82 7
1.657256 0.335060 -0.154417 -0.123063 0.000000 0.992399 153 82 7
1.430041 0.385376 -0.182593 -0.123063 0.000000 0.992399 153 81 6
1.430040 -0.375170 -0.182593 -0.123063 0.000000 0.992399 153 82 7
4.904440 1.369114 -0.382036 0.570164 -0.000000 -0.821531 199 181 179
4.904438 -1.358915 -0.382036 0.570164 -0.000000 -0.821531 199 181 179
4.648255 -1.173693 -0.559834 0.570164 -0.000000 -0.821531 191 164 150
4.648257 1.183892 -0.559834 0.570164 -0.000000 -0.821531 199 181 179
4.648257 1.183892 -0.559834 -0.129860 0.800064 0.585691 198 180 177
4.837428 1.363645 -0.854369 -0.129860 0.800064 0.585691 189 160 143
1.430041 0.385376 -0.182593 -0.129860 0.800064 0.585691 153 82 7
1.657256 0.335060 -0.154417 -0.129860 0.800064 0.585691 198 180 177
1.430040 -0.375170 -0.182593 -0.193430 0.000000 -0.981114 255 255 255
1.430041 0.385376 -0.182593 -0.193430 0.000000 -0.981114 255 255 255
4.837428 1.363645 -0.854369 -0.193430 0.000000 -0.981114 255 255 255
4.837426 -1.353446 -0.854369 -0.193430 0.000000 -0.981114 255 255 255
4.648257 1.183892 -0.559834 0.841404 -0.000001 0.540407 199 181 179
4.648255 -1.173693 -0.559834 0.841404 -0.000001 0.540407 191 164 150
4.837426 -1.353446 -0.854369 0.841404 -0.000001 0.540407 168 115 63
4.837428 1.363645 -0.854369 0.841404 -0.000001 0.540407 190 163 149
4.837426 -1.353446 -0.854369 -0.129862 -0.800064 0.585691 168 115 63
4.648255 -1.173693 -0.559834 -0.129862 -0.800064 0.585691 191 164 150
1.657256 -0.324855 -0.154417 -0.129862 -0.800064 0.585691 199 181 179
1.430040 -0.375170 -0.182593 -0.129862 -0.800064 0.585691 199 181 179
-0.154435 0.157356 -0.000146 0.000001 1.000000 0.000000 57 56 59
0.525440 0.157356 -0.000146 0.000001 1.000000 0.000000 46 45 48
0.525440 0.157356 -0.286441 0.000001 1.000000 0.000000 46 45 48
-0.154435 0.157356 -0.286441 0.000001 1.000000 0.000000 54 53 56
-0.154435 -0.147155 -0.000146 -1.000000 0.000001 0.000001 54 53 56
-0.154435 0.157356 -0.000146 -1.000000 0.000001 0.000001 46 45 48
-0.154435 -0.068741 -0.073869 -1.000000 0.000001 0.000001 46 45 48
-0.154435 0.157356 -0.000146 -1.000000 0.000003 0.000000 46 45 48
-0.154435 0.157356 -0.286441 -1.000000 0.000003 0.000000 46 45 48
-0.154435 0.078942 -0.212717 -1.000000 0.000003 0.000000 46 45 48
-0.154435 0.157356 -0.000146 -1.000000 0.000000 0.000003 46 45 48
-0.154435 0.078942 -0.073869 -1.000000 0.000000 0.000003 46 45 48
-0.154435 -0.068741 -0.073869 -1.000000 0.000000 0.000003 46 45 48
-0.154435 0.078942 -0.073869 -1.000000 0.000003 0.000000 46 45 48
-0.154435 -0.147155 -0.000146 -1.000000 0.000000 0.000000 54 53 56
-0.154435 -0.068741 -0.073869 -1.000000 0.000000 0.000000 46 45 48
-0.154435 -0.147155 -0.286441 -1.000000 0.000000 0.000000 46 45 48
-0.154435 -0.068741 -0.212717 -1.000000 -0.000000 -0.000003 46 45 48
-0.154435 0.078942 -0.212717 -1.000000 -0.000000 -0.000003 46 45 48
-0.154435 0.157356 -0.286441 -1.000000 -0.000000 -0.000003 46 45 48
-0.154435 -0.068741 -0.212717 -1.000000 0.000000 0.000000 46 45 48
-0.154435 -0.068741 -0.212717 -1.000000 0.000001 -0.000001 46 45 48
-0.154435 0.157356 -0.286441 -1.000000 0.000001 -0.000001 46 45 48
-0.154435 -0.147155 -0.286441 -1.000000 0.000001 -0.000001 46 45 48
-0.154435 -0.147155 -0.000146 0.000000 0.000000 1.000000 61 60 63
0.525440 -0.147155 -0.000146 0.000000 0.000000 1.000000 46 45 48
0.525440 0.157356 -0.000146 0.000000 0.000000 1.000000 46 45 48
-0.154435 0.157356 -0.000146 0.000000 0.000000 1.000000 52 51 54
0.525440 -0.147155 -0.000146 1.000000 0.000000 -0.000000 48 47 50
0.525440 -0.147155 -0.286441 1.000000 0.000000 -0.000000 46 45 48
0.525440 -0.068741 -0.073869 1.000000 0.000000 -0.000000 46 45 48
0.525440 0.157356 -0.286441 1.000000 0.000000 0.000000 108 108 110
0.525440 0.078941 -0.212717 1.000000 0.000000 0.000000 46 45 48
0.525440 -0.068741 -0.212717 1.000000 0.000000 0.000000 46 45 48
0.525440 0.157356 -0.000146 1.000000 0.000000 0.000000 49 48 51
0.525440 0.078941 -0.073869 1.000000 0.000000 -0.000000 46 45 48
-0.154435 0.157356 -0.286441 0.000000 0.000000 -1.000000 80 79 80
0.525440 0.157356 -0.286441 0.000000 0.000000 -1.000000 47 46 49
0.525440 -0.147155 -0.286441 0.000000 0.000000 -1.000000 46 45 48
-0.154435 -0.147155 -0.286441 0.000000 0.000000 -1.000000 62 61 64
0.525440 -0.147155 -0.000146 -0.000001 -1.000000 0.000000 49 48 51
-0.154435 -0.147155 -0.000146 -0.000001 -1.000000 0.000000 66 65 68
-0.154435 -0.147155 -0.286441 -0.000001 -1.000000 0.000000 46 45 48
0.525440 -0.147155 -0.286441 -0.000001 -1.000000 0.000000 66 65 68
-0.154435 0.078942 -0.073869 -0.000001 -1.000000 0.000000 46 45 48
-0.154435 0.078942 -0.212717 -0.000001 -1.000000 0.000000 46 45 48
0.525440 0.078941 -0.212717 -0.000001 -1.000000 0.000000 49 48 51
0.525440 0.078941 -0.073869 -0.000001 -1.000000 0.000000 72 71 73
-0.154435 -0.068741 -0.073869 -0.000000 0.000000 -1.000000 46 45 48
-0.154435 0.078942 -0.073869 -0.000000 0.000000 -1.000000 46 45 48
0.525440 0.078941 -0.073869 -0.000000 0.000000 -1.000000 50 49 52
0.525440 -0.068741 -0.073869 -0.000000 0.000000 -1.000000 65 64 67
-0.154435 0.078942 -0.212717 0.000000 0.000000 1.000000 54 53 56
-0.154435 -0.068741 -0.212717 0.000000 0.000000 1.000000 47 46 49
0.525440 -0.068741 -0.212717 0.000000 0.000000 1.000000 46 45 48
0.525440 0.078941 -0.212717 0.000000 0.000000 1.000000 46 45 48
0.525440 -0.068741 -0.073869 0.000001 1.000000 0.000000 46 45 48
0.525440 -0.068741 -0.212717 0.000001 1.000000 0.000000 46 45 48
-0.154435 -0.068741 -0.212717 0.000001 1.000000 0.000000 46 45 48
-0.154435 -0.068741 -0.073869 0.000001 1.000000 0.000000 46 45 48
4.901043 0.264827 -0.901021 0.000001 1.000000 0.000000 153 82 7
5.764547 0.264827 -0.901021 0.000001 1.000000 0.000000 153 83 8
5.764547 0.264827 -1.389400 0.000001 1.000000 0.000000 153 82 7
4.901043 0.264827 -1.389400 0.000001 1.000000 0.000000 153 82 7
4.901042 -0.254626 -0.901021 -1.000000 0.000001 0.000000 255 255 255
4.901043 0.264827 -0.901021 -1.000000 0.000001 0.000000 255 255 255
4.901043 0.264827 -1.389400 -1.000000 0.000001 0.000000 255 255 255
4.901042 -0.254626 -1.389400 -1.000000 0.000001 0.000000 255 255 255
4.901042 -0.254626 -0.901021 0.000000 0.000000 1.000000 153 82 7
5.764547 -0.254627 -0.901021 0.000000 0.000000 1.000000 153 82 7
5.764547 0.264827 -0.901021 0.000000 0.000000 1.000000 153 82 7
4.901043 0.264827 -0.901021 0.000000 0.000000 1.000000 153 82 7
5.764547 0.264827 -0.901021 1.000000 0.000000 -0.000000 153 82 7
5.764547 -0.254627 -0.901021 1.000000 0.000000 -0.000000 153 82 7
5.764547 -0.254627 -1.389400 1.000000 0.000000 -0.000000 153 82 7
5.764547 0.264827 -1.389400 1.000000 0.000000 -0.000000 153 82 7
4.901043 0.264827 -1.389400 0.000000 0.000000 -1.000000 153 82 7
5.764547 0.264827 -1.389400 0.000000 0.000000 -1.000000 153 82 7
5.764547 -0.254627 -1.389400 0.000000 0.000000 -1.000000 153 82 7
4.901042 -0.254626 -1.389400 0.000000 0.000000 -1.000000 153 82 8
5.764547 -0.254627 -0.901021 -0.000000 -1.000000 0.000000 153 82 7
4.901042 -0.254626 -0.901021 -0.000000 -1.000000 0.000000 153 82 7
4.901042 -0.254626 -1.389400 -0.000000 -1.000000 0.000000 153 82 7
5.764547 -0.254627 -1.389400 -0.000000 -1.000000 0.000000 153 82 7
4.901043 0.264827 1.146758 0.000001 1.000000 0.000000 153 82 7
5.764547 0.264827 1.146758 0.000001 1.000000 0.000000 153 82 7
5.764547 0.264827 0.658379 0.000001 1.000000 0.000000 153 82 7
4.901043 0.264827 0.658379 0.000001 1.000000 0.000000 153 82 7
4.901042 -0.254626 1.146758 -1.000000 0.000001 0.000000 255 255 255
4.901043 0.264827 1.146758 -1.000000 0.000001 0.000000 255 255 255
4.901043 0.264827 0.658379 -1.000000 0.000001 0.000000 255 255 255
4.901042 -0.254626 0.658379 -1.000000 0.000001 0.000000 255 255 255
4.901042 -0.254626 1.146758 0.000000 0.000000 1.000000 153 82 7
5.764547 -0.254627 1.146758 0.000000 0.000000 1.000000 153 82 7
5.764547 0.264827 1.146758 0.000000 0.000000 1.000000 153 82 7
4.901043 0.264827 1.146758 0.000000 0.000000 1.000000 153 82 7
5.764547 0.264827 1.146758 1.000000 0.000000 -0.000000 153 82 7
5.764547 -0.254627 1.146758 1.000000 0.000000 -0.000000 153 82 7
5.764547 -0.254627 0.658379 1.000000 0.000000 -0.000000 153 82 7
5.764547 0.264827 0.658379 1.000000 0.000000 -0.000000 153 82 7
4.901043 0.264827 0.658379 0.000000 0.000000 -1.000000 153 83 8
5.764547 0.264827 0.658379 0.000000 0.000000 -1.000000 153 82 7
5.764547 -0.254627 0.658379 0.000000 0.000000 -1.000000 153 82 7
4.901042 -0.254626 0.658379 0.000000 0.000000 -1.000000 153 82 7
5.764547 -0.254627 1.146758 -0.000000 -1.000000 0.000000 153 82 7
4.901042 -0.254626 1.146758 -0.000000 -1.000000 0.000000 153 82 7
4.901042 -0.254626 0.658379 -0.000000 -1.000000 0.000000 153 82 7
5.764547 -0.254627 0.658379 -0.000000 -1.000000 0.000000 153 82 7
4 0 1 2 3
4 4 5 6 7
4 8 9 10 11
4 12 13 14 15
4 16 17 18 19
4 20 21 22 23
4 24 25 26 27
4 28 29 30 31
4 9 32 33 10
4 13 34 35 14
4 36 37 38 18
4 39 40 41 42
4 43 44 45 46
4 47 48 49 50
4 51 52 53 54
4 55 56 57 58
4 59 60 61 62
4 63 64 65 66
4 67 68 69 70
4 71 72 73 74
4 75 76 77 78
4 79 80 81 82
4 83 84 85 86
4 87 88 89 90
4 91 92 93 94
4 95 96 97 98
4 99 100 101 102
4 103 104 105 106
4 107 108 109 110
4 111 112 113 114
4 115 116 117 118
4 119 120 121 122
4 123 124 125 126
4 127 128 129 130
4 131 132 133 134
4 135 136 137 138
4 139 140 141 142
4 143 144 145 146
4 147 148 149 150
4 151 152 153 154
4 155 156 157 158
4 159 160 161 162
4 163 164 165 166
4 167 168 169 170
4 171 172 173 174
4 175 176 177 178
4 179 180 181 182
4 183 184 185 186
4 187 188 189 190
4 191 192 193 194
4 195 196 197 198
3 199 200 201
3 202 203 204
3 205 206 207
3 202 204 208
3 209 210 211
3 212 213 214
3 210 215 211
3 216 217 218
4 219 220 221 222
3 223 224 225
3 224 226 227
3 224 228 225
3 224 227 228
3 223 225 229
3 230 227 226
3 225 230 229
3 230 226 229
4 231 232 233 234
4 235 236 237 238
4 239 240 241 242
4 243 244 245 246
4 247 248 249 250
4 251 252 253 254
4 255 256 257 258
4 259 260 261 262
4 263 264 265 266
4 267 268 269 270
4 271 272 273 274
4 275 276 277 278
4 279 280 281 282
4 283 284 285 286
4 287 288 289 290
4 291 292 293 294
4 295 296 297 298
4 299 300 301 302
