ply
format ascii 1.0
comment Created by Blender 2.71 (sub 0) - www.blender.org, source file: 'castingTable.blend'
element vertex 196
property float x
property float y
property float z
property float nx
property float ny
property float nz
property uchar red
property uchar green
property uchar blue
element face 78
property list uchar uint vertex_indices
end_header
3.130559 1.652064 2.202754 -0.000000 1.000000 0.000000 57 57 57
3.130557 1.652065 0.000000 -0.000000 1.000000 0.000000 74 74 74
2.587960 1.652065 0.000000 -0.000000 1.000000 0.000000 77 77 77
-2.587960 1.652065 1.730821 -0.000000 1.000000 0.000000 63 61 60
-2.587960 1.652066 0.000000 -0.000000 1.000000 0.000000 56 56 56
-3.130556 1.652066 0.000000 -0.000000 1.000000 0.000000 77 70 67
2.587960 1.652064 1.730821 -0.000000 1.000000 0.000000 56 56 56
-3.130557 1.652065 2.202754 0.000000 1.000000 0.000000 56 56 56
3.130557 1.652065 0.000000 1.000000 0.000000 -0.000001 74 74 74
3.130559 1.652064 2.202754 1.000000 0.000000 -0.000001 58 58 58
3.130557 1.101377 0.000000 1.000000 0.000000 -0.000001 77 77 77
3.130555 -1.652066 2.202754 1.000000 0.000000 0.000001 56 56 56
3.130557 -1.652065 0.000000 1.000000 0.000000 0.000001 56 56 56
3.130557 -1.101377 0.000000 1.000000 0.000000 0.000001 56 56 56
3.130559 1.652064 2.202754 1.000000 -0.000002 -0.000000 58 58 58
3.130558 1.101377 1.730821 1.000000 -0.000002 -0.000000 56 56 56
3.130557 1.101377 0.000000 1.000000 -0.000002 -0.000000 77 77 77
3.130555 -1.652066 2.202754 1.000000 -0.000002 0.000001 56 56 56
3.130557 -1.101377 0.000000 1.000000 -0.000002 0.000001 56 56 56
3.130556 -1.101377 1.730821 1.000000 -0.000002 0.000001 56 56 56
3.130559 1.652064 2.202754 1.000000 -0.000001 -0.000002 58 58 58
3.130556 -1.101377 1.730821 1.000000 -0.000001 -0.000002 56 56 56
3.130558 1.101377 1.730821 1.000000 -0.000001 -0.000002 56 56 56
3.130559 1.652064 2.202754 1.000000 -0.000001 0.000001 58 58 58
3.130555 -1.652066 2.202754 1.000000 -0.000001 0.000001 56 56 56
3.130556 -1.101377 1.730821 1.000000 -0.000001 0.000001 56 56 56
-3.130557 1.652065 2.202754 0.000000 0.000000 1.000000 77 77 77
-3.130558 -1.652064 2.202754 0.000000 0.000000 1.000000 56 56 56
-3.030457 -1.526612 2.202754 0.000000 0.000000 1.000000 56 56 56
-3.030456 1.526612 2.202754 0.000000 0.000000 1.000000 77 71 68
-3.130558 -1.652065 0.000000 -1.000000 0.000001 -0.000000 77 70 67
-3.130558 -1.652064 2.202754 -1.000000 0.000001 -0.000000 56 56 56
-3.130557 -1.101377 0.000000 -1.000000 0.000001 -0.000000 77 77 77
-3.130557 1.652065 2.202754 -1.000000 0.000001 -0.000000 77 77 77
-3.130556 1.652066 0.000000 -1.000000 0.000001 -0.000000 56 56 56
-3.130556 1.101377 0.000000 -1.000000 0.000001 -0.000000 56 56 56
-3.130558 -1.101377 1.730821 -1.000000 0.000001 -0.000000 56 56 56
-3.130557 1.652065 2.202754 -1.000000 0.000000 -0.000000 77 77 77
-3.130556 1.101377 0.000000 -1.000000 0.000000 -0.000000 56 56 56
-3.130557 1.101377 1.730821 -1.000000 0.000000 -0.000000 56 56 56
-3.130557 1.101377 1.730821 -1.000000 0.000001 -0.000000 56 56 56
-3.130558 -1.652064 2.202754 -1.000000 0.000001 -0.000001 56 56 56
-3.130557 1.652065 2.202754 -1.000000 0.000001 -0.000001 77 77 77
-3.130557 1.101377 1.730821 -1.000000 0.000001 -0.000001 56 56 56
3.130557 -1.652065 0.000000 0.000000 -1.000000 -0.000000 76 76 76
3.130555 -1.652066 2.202754 0.000000 -1.000000 -0.000000 63 61 59
2.587960 -1.652065 0.000000 0.000000 -1.000000 -0.000000 69 69 69
-3.130558 -1.652064 2.202754 0.000000 -1.000000 0.000000 56 56 56
-3.130558 -1.652065 0.000000 0.000000 -1.000000 0.000000 77 70 67
-2.587960 -1.652065 0.000000 0.000000 -1.000000 0.000000 76 75 75
2.587960 -1.652066 1.730821 -0.000000 -1.000000 -0.000000 62 60 59
-2.587960 -1.652065 1.730821 -0.000000 -1.000000 -0.000000 56 56 56
3.130555 -1.652066 2.202754 -0.000000 -1.000000 -0.000001 63 61 59
-2.587960 -1.652065 1.730821 -0.000000 -1.000000 -0.000001 56 56 56
2.587960 -1.652066 1.730821 -0.000000 -1.000000 -0.000001 62 60 59
2.587960 -1.101377 1.730821 0.000000 -0.000000 -1.000000 56 56 56
-2.587960 -1.101377 1.730821 0.000000 -0.000000 -1.000000 56 56 56
-2.587960 1.101377 1.730821 0.000000 -0.000000 -1.000000 56 56 56
2.587960 1.101377 1.730821 0.000000 -0.000000 -1.000000 56 56 56
2.587960 -1.321653 1.730821 0.000000 0.000000 -1.000000 56 56 56
-2.587960 -1.321653 1.730821 0.000000 0.000000 -1.000000 56 56 56
2.838404 1.101377 1.730821 0.000000 0.000000 -1.000000 56 56 56
2.838404 -1.101377 1.730821 0.000000 0.000000 -1.000000 56 56 56
-2.587960 1.321653 1.730821 -0.000000 0.000000 -1.000000 56 56 56
2.587960 1.321653 1.730821 -0.000000 0.000000 -1.000000 56 56 56
-2.838404 -1.101377 1.730821 0.000000 -0.000000 -1.000000 56 56 56
-2.838404 1.101377 1.730821 0.000000 -0.000000 -1.000000 56 56 56
-2.838404 -1.321653 1.730821 0.000000 -0.000000 -1.000000 56 56 56
-2.838404 -1.101377 1.730821 0.000000 -0.000000 -1.000000 56 56 56
2.587960 -1.652066 1.730821 0.000000 -0.000000 -1.000000 62 60 59
-2.587960 -1.652065 1.730821 0.000000 -0.000000 -1.000000 56 56 56
2.587960 -1.321653 1.730821 0.000000 -0.000000 -1.000000 77 70 67
2.838404 -1.321653 1.730821 0.000000 0.000000 -1.000000 56 56 56
2.587960 -1.321653 1.730821 0.000000 0.000000 -1.000000 56 56 56
3.130558 1.101377 1.730821 0.000000 0.000000 -1.000000 56 56 56
3.130556 -1.101377 1.730821 0.000000 0.000000 -1.000000 56 56 56
2.838404 1.321653 1.730821 0.000000 0.000000 -1.000000 56 56 56
2.838404 1.101377 1.730821 0.000000 0.000000 -1.000000 56 56 56
-2.587960 1.652065 1.730821 0.000000 0.000000 -1.000000 56 56 56
2.587960 1.652064 1.730821 0.000000 0.000000 -1.000000 56 56 56
-2.838404 1.321653 1.730821 -0.000000 0.000000 -1.000000 56 56 56
-2.587960 1.321653 1.730821 -0.000000 0.000000 -1.000000 56 56 56
-3.130558 -1.101377 1.730821 -0.000000 0.000000 -1.000000 56 56 56
-3.130557 1.101377 1.730821 -0.000000 0.000000 -1.000000 56 56 56
2.587960 -1.321653 0.000000 -1.000000 0.000000 -0.000000 77 77 77
2.587960 -1.652065 0.000000 -1.000000 0.000000 -0.000000 69 69 69
2.587960 -1.652066 1.730821 -1.000000 0.000000 -0.000000 62 60 59
2.587960 -1.321653 1.730821 -1.000000 0.000000 -0.000000 77 70 67
-2.587960 -1.321653 0.000000 0.000000 1.000000 0.000000 56 56 56
-2.838404 -1.321653 0.000000 0.000000 1.000000 0.000000 56 56 56
-2.838404 -1.321653 1.730821 0.000000 1.000000 0.000000 57 57 57
-2.587960 -1.321653 1.730821 0.000000 1.000000 0.000000 56 56 56
-2.838404 -1.321653 0.000000 1.000000 0.000000 0.000000 56 56 56
-2.838404 -1.101377 0.000000 1.000000 0.000000 0.000000 56 56 56
-2.838404 -1.101377 1.730821 1.000000 0.000000 0.000000 56 56 56
-2.838404 -1.321653 1.730821 1.000000 0.000000 0.000000 56 56 56
-2.587960 -1.321653 1.730821 1.000000 0.000000 -0.000000 56 56 56
-2.587960 -1.652065 1.730821 1.000000 0.000000 -0.000000 56 56 56
-2.587960 -1.652065 0.000000 1.000000 0.000000 -0.000000 56 56 56
-2.587960 -1.321653 0.000000 1.000000 0.000000 -0.000000 56 56 56
2.838404 1.101377 0.000000 0.000000 -1.000000 -0.000000 56 56 56
3.130557 1.101377 0.000000 0.000000 -1.000000 -0.000000 56 56 56
3.130558 1.101377 1.730821 0.000000 -1.000000 -0.000000 56 56 56
2.838404 1.101377 1.730821 0.000000 -1.000000 -0.000000 56 56 56
2.838404 -1.101377 0.000000 -1.000000 0.000000 -0.000000 56 56 56
2.838404 -1.321653 0.000000 -1.000000 0.000000 -0.000000 56 56 56
2.838404 -1.321653 1.730821 -1.000000 0.000000 -0.000000 75 69 66
2.838404 -1.101377 1.730821 -1.000000 0.000000 -0.000000 74 68 66
2.838404 -1.321653 0.000000 0.000000 1.000000 0.000000 56 56 56
2.587960 -1.321653 0.000000 0.000000 1.000000 0.000000 56 56 56
2.587960 -1.321653 1.730821 0.000000 1.000000 0.000000 56 56 56
2.838404 -1.321653 1.730821 0.000000 1.000000 0.000000 56 56 56
2.838404 -1.101377 1.730821 0.000000 1.000000 -0.000000 56 56 56
3.130556 -1.101377 1.730821 0.000000 1.000000 -0.000000 56 56 56
3.130557 -1.101377 0.000000 0.000000 1.000000 -0.000000 56 56 56
2.838404 -1.101377 0.000000 0.000000 1.000000 -0.000000 56 56 56
-2.587960 1.321653 0.000000 1.000000 0.000000 0.000000 75 68 66
-2.587960 1.652066 0.000000 1.000000 0.000000 0.000000 56 56 56
-2.587960 1.652065 1.730821 1.000000 0.000000 0.000000 63 61 60
-2.587960 1.321653 1.730821 1.000000 0.000000 0.000000 76 69 66
2.587960 1.321653 0.000000 0.000000 -1.000000 -0.000000 56 56 56
2.838404 1.321653 0.000000 0.000000 -1.000000 -0.000000 62 62 62
2.838404 1.321653 1.730821 0.000000 -1.000000 -0.000000 56 56 56
2.587960 1.321653 1.730821 0.000000 -1.000000 -0.000000 56 56 56
2.838404 1.321653 0.000000 -1.000000 0.000000 -0.000000 56 56 56
2.838404 1.101377 0.000000 -1.000000 0.000000 -0.000000 56 56 56
2.838404 1.101377 1.730821 -1.000000 0.000000 -0.000000 56 56 56
2.838404 1.321653 1.730821 -1.000000 0.000000 -0.000000 56 56 56
2.587960 1.321653 1.730821 -1.000000 0.000000 0.000000 56 56 56
2.587960 1.652064 1.730821 -1.000000 0.000000 0.000000 56 56 56
2.587960 1.652065 0.000000 -1.000000 0.000000 0.000000 56 56 56
2.587960 1.321653 0.000000 -1.000000 0.000000 0.000000 56 56 56
-2.838404 -1.101377 0.000000 0.000000 1.000000 0.000000 56 56 56
-3.130557 -1.101377 0.000000 0.000000 1.000000 0.000000 56 56 56
-3.130558 -1.101377 1.730821 0.000000 1.000000 0.000000 56 56 56
-2.838404 -1.101377 1.730821 0.000000 1.000000 0.000000 56 56 56
-2.838404 1.101377 0.000000 1.000000 0.000000 0.000000 77 70 67
-2.838404 1.321653 0.000000 1.000000 0.000000 0.000000 77 70 67
-2.838404 1.321653 1.730821 1.000000 0.000000 0.000000 56 56 56
-2.838404 1.101377 1.730821 1.000000 0.000000 0.000000 56 56 56
-2.838404 1.321653 0.000000 0.000000 -1.000000 -0.000000 56 56 56
-2.587960 1.321653 0.000000 0.000000 -1.000000 -0.000000 56 56 56
-2.587960 1.321653 1.730821 0.000000 -1.000000 -0.000000 56 56 56
-2.838404 1.321653 1.730821 0.000000 -1.000000 -0.000000 56 56 56
-2.838404 1.101377 1.730821 0.000000 -1.000000 0.000000 56 56 56
-3.130557 1.101377 1.730821 0.000000 -1.000000 0.000000 56 56 56
-3.130556 1.101377 0.000000 0.000000 -1.000000 0.000000 56 56 56
-2.838404 1.101377 0.000000 0.000000 -1.000000 0.000000 56 56 56
3.130557 -1.652065 0.000000 -0.000000 0.000000 1.000000 56 56 56
3.130557 -1.101377 0.000000 -0.000000 0.000000 1.000000 56 56 56
2.838404 -1.101377 0.000000 -0.000000 0.000000 1.000000 56 56 56
2.838404 -1.321653 0.000000 -0.000000 0.000000 1.000000 56 56 56
2.587960 -1.321653 0.000000 -0.000000 0.000000 1.000000 56 56 56
2.587960 -1.652065 0.000000 -0.000000 0.000000 1.000000 56 56 56
3.130557 1.101377 0.000000 -0.000000 0.000000 1.000000 56 56 56
3.130557 1.652065 0.000000 -0.000000 0.000000 1.000000 56 56 56
2.587960 1.652065 0.000000 -0.000000 0.000000 1.000000 56 56 56
2.838404 1.321653 0.000000 -0.000000 -0.000000 1.000000 56 56 56
2.587960 1.321653 0.000000 -0.000000 0.000000 1.000000 56 56 56
2.838404 1.101377 0.000000 -0.000000 0.000000 1.000000 56 56 56
-3.130558 -1.652065 0.000000 -0.000000 0.000000 -1.000000 77 70 67
-3.130557 -1.101377 0.000000 -0.000000 0.000000 -1.000000 56 56 56
-2.838404 -1.101377 0.000000 -0.000000 0.000000 -1.000000 56 56 56
-2.838404 -1.321653 0.000000 -0.000000 0.000000 -1.000000 57 57 57
-2.587960 -1.321653 0.000000 -0.000000 0.000000 -1.000000 56 56 56
-2.587960 -1.652065 0.000000 -0.000000 0.000000 -1.000000 59 58 57
-3.130556 1.101377 0.000000 -0.000000 0.000000 -1.000000 56 56 56
-3.130556 1.652066 0.000000 -0.000000 0.000000 -1.000000 56 56 56
-2.587960 1.652066 0.000000 -0.000000 0.000000 -1.000000 56 56 56
-2.838404 1.321653 0.000000 -0.000000 0.000000 -1.000000 56 56 56
-2.587960 1.321653 0.000000 -0.000000 0.000000 -1.000000 56 56 56
-2.838404 1.101377 0.000000 -0.000000 0.000000 -1.000000 56 56 56
-3.030456 1.526612 2.202754 1.000000 -0.000000 0.000000 75 69 66
-3.030457 -1.526612 2.202754 1.000000 -0.000000 0.000000 56 56 56
-3.030457 -1.526612 1.875213 1.000000 -0.000000 0.000000 56 56 56
-3.030456 1.526612 1.875213 1.000000 -0.000000 0.000000 77 70 67
3.130555 -1.652066 2.202754 0.000000 0.000000 1.000000 54 54 54
3.030454 -1.526613 2.202754 0.000000 0.000000 1.000000 45 45 45
3.130559 1.652064 2.202754 -0.000000 0.000000 1.000000 59 59 58
3.030457 1.526611 2.202754 -0.000000 0.000000 1.000000 75 69 66
3.030457 1.526611 1.875213 0.000000 -0.000000 1.000000 77 70 67
-3.030456 1.526612 1.875213 0.000000 -0.000000 1.000000 77 70 67
-3.030457 -1.526612 1.875213 0.000000 -0.000000 1.000000 56 56 56
3.030454 -1.526613 1.875213 0.000000 -0.000000 1.000000 44 44 44
-3.030457 -1.526612 2.202754 0.000000 1.000000 0.000000 56 56 56
3.030454 -1.526613 2.202754 0.000000 1.000000 0.000000 45 45 45
3.030454 -1.526613 1.875213 0.000000 1.000000 0.000000 44 44 44
-3.030457 -1.526612 1.875213 0.000000 1.000000 0.000000 56 56 56
3.030454 -1.526613 2.202754 -1.000000 0.000001 0.000000 45 45 45
3.030457 1.526611 2.202754 -1.000000 0.000001 0.000000 76 70 67
3.030457 1.526611 1.875213 -1.000000 0.000001 0.000000 77 70 67
3.030454 -1.526613 1.875213 -1.000000 0.000001 0.000000 44 44 44
3.030457 1.526611 2.202754 -0.000000 -1.000000 0.000000 57 57 57
-3.030456 1.526612 2.202754 -0.000000 -1.000000 0.000000 77 77 77
-3.030456 1.526612 1.875213 -0.000000 -1.000000 0.000000 77 77 77
3.030457 1.526611 1.875213 -0.000000 -1.000000 0.000000 56 56 56
3 0 1 2
3 3 4 5
3 0 2 6
3 3 5 7
3 0 6 7
3 6 3 7
3 8 9 10
3 11 12 13
3 14 15 16
3 17 18 19
3 20 21 22
3 23 24 25
4 26 27 28 29
3 30 31 32
3 33 34 35
3 31 36 32
3 37 38 39
3 31 40 36
3 41 42 43
3 44 45 46
3 47 48 49
3 45 50 46
3 47 49 51
3 52 53 54
3 45 47 51
4 55 56 57 58
4 55 59 60 56
4 58 61 62 55
4 57 63 64 58
4 56 65 66 57
4 60 67 68 56
4 69 70 60 71
4 62 72 73 55
4 74 75 62 61
4 64 76 77 58
4 78 79 64 63
4 66 80 81 57
4 82 83 66 65
4 84 85 86 87
4 88 89 90 91
4 92 93 94 95
4 96 97 98 99
4 100 101 102 103
4 104 105 106 107
4 108 109 110 111
4 112 113 114 115
4 116 117 118 119
4 120 121 122 123
4 124 125 126 127
4 128 129 130 131
4 132 133 134 135
4 136 137 138 139
4 140 141 142 143
4 144 145 146 147
3 148 149 150
3 148 150 151
3 148 151 152
3 148 152 153
3 154 155 156
3 154 156 157
3 157 156 158
3 154 157 159
3 160 161 162
3 160 162 163
3 160 163 164
3 160 164 165
3 166 167 168
3 166 168 169
3 169 168 170
3 166 169 171
4 172 173 174 175
4 27 176 177 28
4 176 178 179 177
4 178 26 29 179
4 180 181 182 183
4 184 185 186 187
4 188 189 190 191
4 192 193 194 195
