ply
format ascii 1.0
comment Created by Blender 2.71 (sub 0) - www.blender.org, source file: 'castingTable.blend'
element vertex 199
property float x
property float y
property float z
property float nx
property float ny
property float nz
property uchar red
property uchar green
property uchar blue
element face 78
property list uchar uint vertex_indices
end_header
3.130559 1.652064 1.902754 -0.000000 1.000000 0.000000 57 57 57
3.130557 1.652065 0.000000 -0.000000 1.000000 0.000000 74 74 74
2.587960 1.652065 0.000000 -0.000000 1.000000 0.000000 77 77 77
-2.587960 1.652065 1.430821 -0.000000 1.000000 0.000000 63 61 60
-2.587960 1.652066 0.000000 -0.000000 1.000000 0.000000 56 56 56
-3.130556 1.652066 0.000000 -0.000000 1.000000 0.000000 77 70 67
2.587960 1.652064 1.430821 -0.000000 1.000000 0.000000 56 56 56
-3.130557 1.652065 1.902754 0.000000 1.000000 0.000000 56 56 56
3.130557 1.652065 0.000000 1.000000 0.000000 -0.000001 74 74 74
3.130559 1.652064 1.902754 1.000000 0.000000 -0.000001 58 58 58
3.130557 1.101377 0.000000 1.000000 0.000000 -0.000001 77 77 77
3.130555 -1.652066 1.902754 1.000000 0.000000 0.000001 56 56 56
3.130557 -1.652065 0.000000 1.000000 0.000000 0.000001 56 56 56
3.130557 -1.101377 0.000000 1.000000 0.000000 0.000001 56 56 56
3.130559 1.652064 1.902754 1.000000 -0.000002 -0.000000 58 58 58
3.130558 1.101377 1.430821 1.000000 -0.000002 -0.000000 56 56 56
3.130557 1.101377 0.000000 1.000000 -0.000002 -0.000000 77 77 77
3.130555 -1.652066 1.902754 1.000000 -0.000002 0.000001 56 56 56
3.130557 -1.101377 0.000000 1.000000 -0.000002 0.000001 56 56 56
3.130556 -1.101377 1.430821 1.000000 -0.000002 0.000001 56 56 56
3.130559 1.652064 1.902754 1.000000 -0.000001 -0.000002 58 58 58
3.130556 -1.101377 1.430821 1.000000 -0.000001 -0.000002 56 56 56
3.130558 1.101377 1.430821 1.000000 -0.000001 -0.000002 56 56 56
3.130559 1.652064 1.902754 1.000000 -0.000001 0.000001 58 58 58
3.130555 -1.652066 1.902754 1.000000 -0.000001 0.000001 56 56 56
3.130556 -1.101377 1.430821 1.000000 -0.000001 0.000001 56 56 56
-3.130557 1.652065 1.902754 0.000000 0.000000 1.000000 77 77 77
-3.130558 -1.652064 1.902754 0.000000 0.000000 1.000000 56 56 56
-3.030457 -1.526612 1.902754 0.000000 0.000000 1.000000 56 56 56
-3.030456 1.526612 1.902754 0.000000 0.000000 1.000000 77 71 68
-3.130558 -1.652065 0.000000 -1.000000 0.000001 -0.000000 77 70 67
-3.130558 -1.652064 1.902754 -1.000000 0.000001 -0.000000 56 56 56
-3.130557 -1.101377 0.000000 -1.000000 0.000001 -0.000000 77 77 77
-3.130557 1.652065 1.902754 -1.000000 0.000001 -0.000001 77 77 77
-3.130556 1.652066 0.000000 -1.000000 0.000001 -0.000001 56 56 56
-3.130556 1.101377 0.000000 -1.000000 0.000001 -0.000001 56 56 56
-3.130558 -1.652064 1.902754 -1.000000 0.000000 -0.000000 56 56 56
-3.130558 -1.101377 1.430821 -1.000000 0.000000 -0.000000 56 56 56
-3.130557 -1.101377 0.000000 -1.000000 0.000000 -0.000000 77 77 77
-3.130557 1.652065 1.902754 -1.000000 0.000000 -0.000000 77 77 77
-3.130556 1.101377 0.000000 -1.000000 0.000000 -0.000000 56 56 56
-3.130557 1.101377 1.430821 -1.000000 0.000000 -0.000000 56 56 56
-3.130557 1.101377 1.430821 -1.000000 0.000001 -0.000000 56 56 56
-3.130558 -1.101377 1.430821 -1.000000 0.000001 -0.000000 56 56 56
-3.130558 -1.652064 1.902754 -1.000000 0.000001 -0.000001 56 56 56
-3.130557 1.101377 1.430821 -1.000000 0.000001 -0.000001 56 56 56
3.130557 -1.652065 0.000000 0.000000 -1.000000 -0.000001 76 76 76
3.130555 -1.652066 1.902754 0.000000 -1.000000 -0.000001 63 61 59
2.587960 -1.652065 0.000000 0.000000 -1.000000 -0.000001 69 69 69
-3.130558 -1.652064 1.902754 0.000000 -1.000000 0.000000 56 56 56
-3.130558 -1.652065 0.000000 0.000000 -1.000000 0.000000 77 70 67
-2.587960 -1.652065 0.000000 0.000000 -1.000000 0.000000 76 75 75
3.130555 -1.652066 1.902754 -0.000000 -1.000000 -0.000000 63 61 59
2.587960 -1.652066 1.430821 -0.000000 -1.000000 -0.000000 62 60 59
2.587960 -1.652065 0.000000 -0.000000 -1.000000 -0.000000 69 69 69
-2.587960 -1.652065 1.430821 -0.000000 -1.000000 -0.000000 56 56 56
-2.587960 -1.652065 1.430821 -0.000000 -1.000000 -0.000001 56 56 56
2.587960 -1.652066 1.430821 -0.000000 -1.000000 -0.000001 62 60 59
2.587960 -1.101377 1.430821 0.000000 -0.000000 -1.000000 56 56 56
-2.587960 -1.101377 1.430821 0.000000 -0.000000 -1.000000 56 56 56
-2.587960 1.101377 1.430821 0.000000 -0.000000 -1.000000 56 56 56
2.587960 1.101377 1.430821 0.000000 -0.000000 -1.000000 56 56 56
2.587960 -1.321653 1.430821 0.000000 0.000000 -1.000000 56 56 56
-2.587960 -1.321653 1.430821 0.000000 0.000000 -1.000000 56 56 56
2.838404 1.101377 1.430821 0.000000 0.000000 -1.000000 56 56 56
2.838404 -1.101377 1.430821 0.000000 0.000000 -1.000000 56 56 56
-2.587960 1.321653 1.430821 -0.000000 0.000000 -1.000000 56 56 56
2.587960 1.321653 1.430821 -0.000000 0.000000 -1.000000 56 56 56
-2.838404 -1.101377 1.430821 0.000000 -0.000000 -1.000000 56 56 56
-2.838404 1.101377 1.430821 0.000000 -0.000000 -1.000000 56 56 56
-2.838404 -1.321653 1.430821 0.000000 -0.000000 -1.000000 56 56 56
-2.838404 -1.101377 1.430821 0.000000 -0.000000 -1.000000 56 56 56
2.587960 -1.652066 1.430821 0.000000 -0.000000 -1.000000 62 60 59
-2.587960 -1.652065 1.430821 0.000000 -0.000000 -1.000000 56 56 56
2.587960 -1.321653 1.430821 0.000000 -0.000000 -1.000000 77 70 67
2.838404 -1.321653 1.430821 0.000000 0.000000 -1.000000 56 56 56
2.587960 -1.321653 1.430821 0.000000 0.000000 -1.000000 56 56 56
3.130558 1.101377 1.430821 0.000000 0.000000 -1.000000 56 56 56
3.130556 -1.101377 1.430821 0.000000 0.000000 -1.000000 56 56 56
2.838404 1.321653 1.430821 0.000000 0.000000 -1.000000 56 56 56
2.838404 1.101377 1.430821 0.000000 0.000000 -1.000000 56 56 56
-2.587960 1.652065 1.430821 0.000000 0.000000 -1.000000 56 56 56
2.587960 1.652064 1.430821 0.000000 0.000000 -1.000000 56 56 56
-2.838404 1.321653 1.430821 -0.000000 0.000000 -1.000000 56 56 56
-2.587960 1.321653 1.430821 -0.000000 0.000000 -1.000000 56 56 56
-3.130558 -1.101377 1.430821 -0.000000 0.000000 -1.000000 56 56 56
-3.130557 1.101377 1.430821 -0.000000 0.000000 -1.000000 56 56 56
2.587960 -1.321653 0.000000 -1.000000 0.000000 -0.000000 77 77 77
2.587960 -1.652065 0.000000 -1.000000 0.000000 -0.000000 69 69 69
2.587960 -1.652066 1.430821 -1.000000 0.000000 -0.000000 62 60 59
2.587960 -1.321653 1.430821 -1.000000 0.000000 -0.000000 77 70 67
-2.587960 -1.321653 0.000000 0.000000 1.000000 0.000000 56 56 56
-2.838404 -1.321653 0.000000 0.000000 1.000000 0.000000 56 56 56
-2.838404 -1.321653 1.430821 0.000000 1.000000 0.000000 57 57 57
-2.587960 -1.321653 1.430821 0.000000 1.000000 0.000000 56 56 56
-2.838404 -1.321653 0.000000 1.000000 0.000000 0.000000 56 56 56
-2.838404 -1.101377 0.000000 1.000000 0.000000 0.000000 56 56 56
-2.838404 -1.101377 1.430821 1.000000 0.000000 0.000000 56 56 56
-2.838404 -1.321653 1.430821 1.000000 0.000000 0.000000 56 56 56
-2.587960 -1.321653 1.430821 1.000000 0.000000 -0.000000 56 56 56
-2.587960 -1.652065 1.430821 1.000000 0.000000 -0.000000 56 56 56
-2.587960 -1.652065 0.000000 1.000000 0.000000 -0.000000 56 56 56
-2.587960 -1.321653 0.000000 1.000000 0.000000 -0.000000 56 56 56
2.838404 1.101377 0.000000 0.000000 -1.000000 -0.000000 56 56 56
3.130557 1.101377 0.000000 0.000000 -1.000000 -0.000000 56 56 56
3.130558 1.101377 1.430821 0.000000 -1.000000 -0.000000 56 56 56
2.838404 1.101377 1.430821 0.000000 -1.000000 -0.000000 56 56 56
2.838404 -1.101377 0.000000 -1.000000 0.000000 -0.000000 56 56 56
2.838404 -1.321653 0.000000 -1.000000 0.000000 -0.000000 56 56 56
2.838404 -1.321653 1.430821 -1.000000 0.000000 -0.000000 75 69 66
2.838404 -1.101377 1.430821 -1.000000 0.000000 -0.000000 74 68 66
2.838404 -1.321653 0.000000 0.000000 1.000000 0.000000 56 56 56
2.587960 -1.321653 0.000000 0.000000 1.000000 0.000000 56 56 56
2.587960 -1.321653 1.430821 0.000000 1.000000 0.000000 56 56 56
2.838404 -1.321653 1.430821 0.000000 1.000000 0.000000 56 56 56
2.838404 -1.101377 1.430821 0.000000 1.000000 -0.000000 56 56 56
3.130556 -1.101377 1.430821 0.000000 1.000000 -0.000000 56 56 56
3.130557 -1.101377 0.000000 0.000000 1.000000 -0.000000 56 56 56
2.838404 -1.101377 0.000000 0.000000 1.000000 -0.000000 56 56 56
-2.587960 1.321653 0.000000 1.000000 0.000000 0.000000 75 68 66
-2.587960 1.652066 0.000000 1.000000 0.000000 0.000000 56 56 56
-2.587960 1.652065 1.430821 1.000000 0.000000 0.000000 63 61 60
-2.587960 1.321653 1.430821 1.000000 0.000000 0.000000 76 69 66
2.587960 1.321653 0.000000 0.000000 -1.000000 -0.000000 56 56 56
2.838404 1.321653 0.000000 0.000000 -1.000000 -0.000000 62 62 62
2.838404 1.321653 1.430821 0.000000 -1.000000 -0.000000 56 56 56
2.587960 1.321653 1.430821 0.000000 -1.000000 -0.000000 56 56 56
2.838404 1.321653 0.000000 -1.000000 0.000000 -0.000000 56 56 56
2.838404 1.101377 0.000000 -1.000000 0.000000 -0.000000 56 56 56
2.838404 1.101377 1.430821 -1.000000 0.000000 -0.000000 56 56 56
2.838404 1.321653 1.430821 -1.000000 0.000000 -0.000000 56 56 56
2.587960 1.321653 1.430821 -1.000000 0.000000 0.000000 56 56 56
2.587960 1.652064 1.430821 -1.000000 0.000000 0.000000 56 56 56
2.587960 1.652065 0.000000 -1.000000 0.000000 0.000000 56 56 56
2.587960 1.321653 0.000000 -1.000000 0.000000 0.000000 56 56 56
-2.838404 -1.101377 0.000000 0.000000 1.000000 0.000000 56 56 56
-3.130557 -1.101377 0.000000 0.000000 1.000000 0.000000 56 56 56
-3.130558 -1.101377 1.430821 0.000000 1.000000 0.000000 56 56 56
-2.838404 -1.101377 1.430821 0.000000 1.000000 0.000000 56 56 56
-2.838404 1.101377 0.000000 1.000000 0.000000 0.000000 77 70 67
-2.838404 1.321653 0.000000 1.000000 0.000000 0.000000 77 70 67
-2.838404 1.321653 1.430821 1.000000 0.000000 0.000000 56 56 56
-2.838404 1.101377 1.430821 1.000000 0.000000 0.000000 56 56 56
-2.838404 1.321653 0.000000 0.000000 -1.000000 -0.000000 56 56 56
-2.587960 1.321653 0.000000 0.000000 -1.000000 -0.000000 56 56 56
-2.587960 1.321653 1.430821 0.000000 -1.000000 -0.000000 56 56 56
-2.838404 1.321653 1.430821 0.000000 -1.000000 -0.000000 56 56 56
-2.838404 1.101377 1.430821 0.000000 -1.000000 0.000000 56 56 56
-3.130557 1.101377 1.430821 0.000000 -1.000000 0.000000 56 56 56
-3.130556 1.101377 0.000000 0.000000 -1.000000 0.000000 56 56 56
-2.838404 1.101377 0.000000 0.000000 -1.000000 0.000000 56 56 56
3.130557 -1.652065 0.000000 -0.000000 0.000000 1.000000 56 56 56
3.130557 -1.101377 0.000000 -0.000000 0.000000 1.000000 56 56 56
2.838404 -1.101377 0.000000 -0.000000 0.000000 1.000000 56 56 56
2.838404 -1.321653 0.000000 -0.000000 0.000000 1.000000 56 56 56
2.587960 -1.321653 0.000000 -0.000000 0.000000 1.000000 56 56 56
2.587960 -1.652065 0.000000 -0.000000 0.000000 1.000000 56 56 56
3.130557 1.101377 0.000000 -0.000000 0.000000 1.000000 56 56 56
3.130557 1.652065 0.000000 -0.000000 0.000000 1.000000 56 56 56
2.587960 1.652065 0.000000 -0.000000 0.000000 1.000000 56 56 56
2.838404 1.321653 0.000000 -0.000000 -0.000000 1.000000 56 56 56
2.587960 1.321653 0.000000 -0.000000 0.000000 1.000000 56 56 56
2.838404 1.101377 0.000000 -0.000000 0.000000 1.000000 56 56 56
-3.130558 -1.652065 0.000000 -0.000000 0.000000 -1.000000 77 70 67
-3.130557 -1.101377 0.000000 -0.000000 0.000000 -1.000000 56 56 56
-2.838404 -1.101377 0.000000 -0.000000 0.000000 -1.000000 56 56 56
-2.838404 -1.321653 0.000000 -0.000000 0.000000 -1.000000 57 57 57
-2.587960 -1.321653 0.000000 -0.000000 0.000000 -1.000000 56 56 56
-2.587960 -1.652065 0.000000 -0.000000 0.000000 -1.000000 59 58 57
-3.130556 1.101377 0.000000 -0.000000 0.000000 -1.000000 56 56 56
-3.130556 1.652066 0.000000 -0.000000 0.000000 -1.000000 56 56 56
-2.587960 1.652066 0.000000 -0.000000 0.000000 -1.000000 56 56 56
-2.838404 1.321653 0.000000 -0.000000 0.000000 -1.000000 56 56 56
-2.587960 1.321653 0.000000 -0.000000 0.000000 -1.000000 56 56 56
-2.838404 1.101377 0.000000 -0.000000 0.000000 -1.000000 56 56 56
-3.030456 1.526612 1.902754 1.000000 -0.000000 0.000000 75 69 66
-3.030457 -1.526612 1.902754 1.000000 -0.000000 0.000000 56 56 56
-3.030457 -1.526612 1.575213 1.000000 -0.000000 0.000000 56 56 56
-3.030456 1.526612 1.575213 1.000000 -0.000000 0.000000 77 70 67
3.130555 -1.652066 1.902754 0.000000 0.000000 1.000000 54 54 54
3.030454 -1.526613 1.902754 0.000000 0.000000 1.000000 45 45 45
3.130559 1.652064 1.902754 -0.000000 0.000000 1.000000 59 59 58
3.030457 1.526611 1.902754 -0.000000 0.000000 1.000000 75 69 66
3.030457 1.526611 1.575213 0.000000 -0.000000 1.000000 77 70 67
-3.030456 1.526612 1.575213 0.000000 -0.000000 1.000000 77 70 67
-3.030457 -1.526612 1.575213 0.000000 -0.000000 1.000000 56 56 56
3.030454 -1.526613 1.575213 0.000000 -0.000000 1.000000 44 44 44
-3.030457 -1.526612 1.902754 0.000000 1.000000 0.000000 56 56 56
3.030454 -1.526613 1.902754 0.000000 1.000000 0.000000 45 45 45
3.030454 -1.526613 1.575213 0.000000 1.000000 0.000000 44 44 44
-3.030457 -1.526612 1.575213 0.000000 1.000000 0.000000 56 56 56
3.030454 -1.526613 1.902754 -1.000000 0.000001 0.000000 45 45 45
3.030457 1.526611 1.902754 -1.000000 0.000001 0.000000 76 70 67
3.030457 1.526611 1.575213 -1.000000 0.000001 0.000000 77 70 67
3.030454 -1.526613 1.575213 -1.000000 0.000001 0.000000 44 44 44
3.030457 1.526611 1.902754 -0.000000 -1.000000 0.000000 57 57 57
-3.030456 1.526612 1.902754 -0.000000 -1.000000 0.000000 77 77 77
-3.030456 1.526612 1.575213 -0.000000 -1.000000 0.000000 77 77 77
3.030457 1.526611 1.575213 -0.000000 -1.000000 0.000000 56 56 56
3 0 1 2
3 3 4 5
3 0 2 6
3 3 5 7
3 0 6 7
3 6 3 7
3 8 9 10
3 11 12 13
3 14 15 16
3 17 18 19
3 20 21 22
3 23 24 25
4 26 27 28 29
3 30 31 32
3 33 34 35
3 36 37 38
3 39 40 41
3 31 42 43
3 44 33 45
3 46 47 48
3 49 50 51
3 52 53 54
3 49 51 55
3 47 56 57
3 52 49 55
4 58 59 60 61
4 58 62 63 59
4 61 64 65 58
4 60 66 67 61
4 59 68 69 60
4 63 70 71 59
4 72 73 63 74
4 65 75 76 58
4 77 78 65 64
4 67 79 80 61
4 81 82 67 66
4 69 83 84 60
4 85 86 69 68
4 87 88 89 90
4 91 92 93 94
4 95 96 97 98
4 99 100 101 102
4 103 104 105 106
4 107 108 109 110
4 111 112 113 114
4 115 116 117 118
4 119 120 121 122
4 123 124 125 126
4 127 128 129 130
4 131 132 133 134
4 135 136 137 138
4 139 140 141 142
4 143 144 145 146
4 147 148 149 150
3 151 152 153
3 151 153 154
3 151 154 155
3 151 155 156
3 157 158 159
3 157 159 160
3 160 159 161
3 157 160 162
3 163 164 165
3 163 165 166
3 163 166 167
3 163 167 168
3 169 170 171
3 169 171 172
3 172 171 173
3 169 172 174
4 175 176 177 178
4 27 179 180 28
4 179 181 182 180
4 181 26 29 182
4 183 184 185 186
4 187 188 189 190
4 191 192 193 194
4 195 196 197 198
