ply
format ascii 1.0
comment Created by Blender 2.71 (sub 0) - www.blender.org, source file: 'coalOnTable.blend'
element vertex 173
property float x
property float y
property float z
property float nx
property float ny
property float nz
property uchar red
property uchar green
property uchar blue
element face 70
property list uchar uint vertex_indices
end_header
-3.000000 0.873846 2.312531 -1.000000 0.000000 0.000000 74 74 74
-3.000000 1.500000 2.312531 -1.000000 0.000000 0.000000 74 74 74
-3.000000 1.500000 2.211416 -1.000000 0.000000 0.000000 74 74 74
-3.000000 0.873846 2.211416 -1.000000 0.000000 0.000000 74 74 74
2.325288 1.500000 2.312531 0.000000 1.000000 -0.000000 74 74 74
3.000000 1.500000 2.312531 0.000000 1.000000 -0.000000 74 74 74
3.000000 1.500000 2.211416 0.000000 1.000000 -0.000000 74 74 74
2.325288 1.500000 2.211416 0.000000 1.000000 -0.000000 74 74 74
3.000000 -0.873846 2.312531 1.000000 0.000000 -0.000000 74 74 74
3.000000 -1.500000 2.312531 1.000000 0.000000 -0.000000 74 74 74
3.000000 -1.500000 2.211416 1.000000 0.000000 -0.000000 74 74 74
3.000000 -0.873846 2.211416 1.000000 0.000000 -0.000000 74 74 74
-3.000000 -1.500000 2.211416 0.000000 -1.000000 -0.000000 74 74 74
-2.325288 -1.500000 2.211416 0.000000 -1.000000 -0.000000 74 74 74
-2.325288 -1.500000 2.312531 0.000000 -1.000000 -0.000000 74 74 74
-3.000000 -1.500000 2.312531 0.000000 -1.000000 -0.000000 74 74 74
3.000000 1.500000 0.014454 0.000000 1.000000 -0.000000 74 74 74
2.325288 1.500000 0.014454 0.000000 1.000000 -0.000000 74 74 74
-2.325288 -1.500000 2.882484 0.000000 -1.000000 -0.000000 74 74 74
-3.000000 -1.500000 2.882484 0.000000 -1.000000 -0.000000 74 74 74
-3.000000 1.500000 2.312531 0.000000 1.000000 -0.000000 74 74 74
-2.325288 1.500000 2.312531 0.000000 1.000000 -0.000000 74 74 74
-2.325288 1.500000 2.211416 0.000000 1.000000 -0.000000 74 74 74
-3.000000 1.500000 2.211416 0.000000 1.000000 -0.000000 74 74 74
3.000000 -1.500000 2.312531 0.000000 -1.000000 0.000000 74 74 74
2.325288 -1.500000 2.312531 0.000000 -1.000000 0.000000 74 74 74
2.325288 -1.500000 2.211416 0.000000 -1.000000 0.000000 74 74 74
3.000000 -1.500000 2.211416 0.000000 -1.000000 0.000000 74 74 74
-3.000000 -1.500000 2.211416 -1.000000 0.000000 0.000000 74 74 74
-3.000000 -0.873846 2.211416 -1.000000 0.000000 0.000000 74 74 74
-3.000000 -0.873846 0.014454 -1.000000 0.000000 0.000000 74 74 74
-3.000000 -1.500000 0.014454 -1.000000 0.000000 0.000000 74 74 74
-2.325288 0.873846 2.211416 -0.000000 0.000000 -1.000000 74 74 74
-2.325288 1.500000 2.211416 -0.000000 0.000000 -1.000000 74 74 74
2.325288 1.500000 2.211416 -0.000000 0.000000 -1.000000 74 74 74
2.325288 0.873846 2.211416 -0.000000 0.000000 -1.000000 74 74 74
-3.000000 1.500000 2.882484 0.000000 1.000000 0.000000 74 74 74
-2.325288 1.500000 2.882484 0.000000 1.000000 0.000000 75 75 75
2.325288 1.500000 2.882484 0.000000 1.000000 0.000000 74 74 74
-3.000000 -1.500000 2.312531 -1.000000 0.000000 -0.000000 74 74 74
-3.000000 -0.873846 2.312531 -1.000000 0.000000 -0.000000 74 74 74
3.000000 1.500000 2.312531 1.000000 0.000000 -0.000000 74 74 74
3.000000 0.873846 2.312531 1.000000 0.000000 -0.000000 74 74 74
3.000000 0.873846 2.211416 1.000000 0.000000 -0.000000 74 74 74
3.000000 1.500000 2.211416 1.000000 0.000000 -0.000000 74 74 74
3.000000 0.873846 2.211416 0.000000 -1.000000 0.000000 74 74 74
2.325288 0.873846 2.211416 0.000000 -1.000000 0.000000 74 74 74
2.325288 0.873846 0.014454 0.000000 -1.000000 0.000000 74 74 74
3.000000 0.873846 0.014454 0.000000 -1.000000 0.000000 74 74 74
2.325288 -0.873846 2.211416 -0.000000 0.000000 -1.000000 74 74 74
3.000000 0.873846 2.211416 -0.000000 0.000000 -1.000000 74 74 74
3.000000 -0.873846 2.211416 -0.000000 0.000000 -1.000000 75 75 75
3.000000 -1.500000 2.882484 0.000000 -1.000000 -0.000000 74 74 74
2.325288 -1.500000 2.882484 0.000000 -1.000000 -0.000000 74 74 74
2.325288 0.873846 2.211416 -1.000000 0.000000 0.000000 74 74 74
2.325288 1.500000 2.211416 -1.000000 0.000000 0.000000 74 74 74
2.325288 1.500000 0.014454 -1.000000 0.000000 0.000000 74 74 74
2.325288 0.873846 0.014454 -1.000000 0.000000 0.000000 74 74 74
-3.000000 -0.873846 2.211416 -0.000000 0.000000 -1.000000 75 75 75
-3.000000 0.873846 2.211416 -0.000000 0.000000 -1.000000 74 74 74
-2.325288 -0.873846 2.211416 -0.000000 0.000000 -1.000000 74 74 74
-2.325288 -1.500000 2.211416 -0.000000 0.000000 -1.000000 74 74 74
2.325288 -1.500000 2.211416 -0.000000 0.000000 -1.000000 74 74 74
-3.000000 -1.500000 2.882484 -1.000000 0.000000 -0.000000 74 74 74
-3.000000 -0.873846 2.882484 -1.000000 0.000000 -0.000000 74 74 74
-3.000000 0.873846 2.882484 -1.000000 0.000000 -0.000000 74 74 74
3.000000 1.500000 2.882484 1.000000 0.000000 0.000000 75 75 75
3.000000 0.873846 2.882484 1.000000 0.000000 0.000000 74 74 74
3.000000 -0.873846 2.882484 1.000000 0.000000 0.000000 74 74 74
2.325288 0.873846 0.014454 -0.000000 0.000000 -1.000000 74 74 74
2.325288 1.500000 0.014454 -0.000000 0.000000 -1.000000 74 74 74
3.000000 1.500000 0.014454 -0.000000 0.000000 -1.000000 74 74 74
3.000000 0.873846 0.014454 -0.000000 0.000000 -1.000000 74 74 74
-3.000000 0.873846 0.014454 -0.000000 0.000000 -1.000000 74 74 74
-3.000000 1.500000 0.014454 -0.000000 0.000000 -1.000000 74 74 74
-2.325288 1.500000 0.014454 -0.000000 0.000000 -1.000000 74 74 74
-2.325288 0.873846 0.014454 -0.000000 0.000000 -1.000000 74 74 74
2.325288 -1.500000 0.014454 -0.000000 0.000000 -1.000000 74 74 74
2.325288 -0.873846 0.014454 -0.000000 0.000000 -1.000000 74 74 74
3.000000 -0.873846 0.014454 -0.000000 0.000000 -1.000000 74 74 74
3.000000 -1.500000 0.014454 -0.000000 0.000000 -1.000000 74 74 74
-3.000000 -1.500000 0.014454 -0.000000 0.000000 -1.000000 74 74 74
-3.000000 -0.873846 0.014454 -0.000000 0.000000 -1.000000 74 74 74
-2.325288 -0.873846 0.014454 -0.000000 0.000000 -1.000000 74 74 74
-2.325288 -1.500000 0.014454 -0.000000 0.000000 -1.000000 74 74 74
2.325288 -1.500000 2.211416 -1.000000 0.000000 0.000000 74 74 74
2.325288 -0.873846 2.211416 -1.000000 0.000000 0.000000 74 74 74
2.325288 -0.873846 0.014454 -1.000000 0.000000 0.000000 74 74 74
2.325288 -1.500000 0.014454 -1.000000 0.000000 0.000000 74 74 74
-2.325288 1.500000 2.211416 1.000000 0.000000 -0.000000 74 74 74
-2.325288 0.873846 2.211416 1.000000 0.000000 -0.000000 74 74 74
-2.325288 0.873846 0.014454 1.000000 0.000000 -0.000000 74 74 74
-2.325288 1.500000 0.014454 1.000000 0.000000 -0.000000 74 74 74
3.000000 -1.500000 0.014454 1.000000 0.000000 -0.000000 74 74 74
3.000000 -0.873846 0.014454 1.000000 0.000000 -0.000000 74 74 74
-3.000000 1.500000 0.014454 -1.000000 0.000000 0.000000 74 74 74
-3.000000 0.873846 0.014454 -1.000000 0.000000 0.000000 74 74 74
-3.000000 -0.873846 2.211416 0.000000 1.000000 -0.000000 74 74 74
-2.325288 -0.873846 2.211416 0.000000 1.000000 -0.000000 74 74 74
-2.325288 -0.873846 0.014454 0.000000 1.000000 -0.000000 74 74 74
-3.000000 -0.873846 0.014454 0.000000 1.000000 -0.000000 74 74 74
-2.325288 1.500000 0.014454 0.000000 1.000000 -0.000000 74 74 74
-3.000000 1.500000 0.014454 0.000000 1.000000 -0.000000 74 74 74
2.325288 -0.873846 2.211416 0.000000 1.000000 -0.000000 74 74 74
3.000000 -0.873846 2.211416 0.000000 1.000000 -0.000000 74 74 74
3.000000 -0.873846 0.014454 0.000000 1.000000 -0.000000 74 74 74
2.325288 -0.873846 0.014454 0.000000 1.000000 -0.000000 74 74 74
-2.325288 -0.873846 2.211416 1.000000 0.000000 -0.000000 74 74 74
-2.325288 -1.500000 2.211416 1.000000 0.000000 -0.000000 74 74 74
-2.325288 -1.500000 0.014454 1.000000 0.000000 -0.000000 74 74 74
-2.325288 -0.873846 0.014454 1.000000 0.000000 -0.000000 74 74 74
2.325288 -1.500000 0.014454 0.000000 -1.000000 0.000000 74 74 74
3.000000 -1.500000 0.014454 0.000000 -1.000000 0.000000 74 74 74
3.000000 1.500000 2.211416 1.000000 0.000000 -0.000000 77 77 77
3.000000 0.873846 0.014454 1.000000 0.000000 -0.000000 74 74 74
3.000000 1.500000 0.014454 1.000000 0.000000 -0.000000 74 74 74
-2.325288 0.873846 2.211416 0.000000 -1.000000 0.000000 74 74 74
-3.000000 0.873846 2.211416 0.000000 -1.000000 0.000000 74 74 74
-3.000000 0.873846 0.014454 0.000000 -1.000000 0.000000 74 74 74
-2.325288 0.873846 0.014454 0.000000 -1.000000 0.000000 74 74 74
-3.000000 -1.500000 0.014454 0.000000 -1.000000 0.000000 74 74 74
-2.325288 -1.500000 0.014454 0.000000 -1.000000 0.000000 74 74 74
-3.000000 -1.500000 2.882484 0.000000 0.994706 0.102760 74 74 74
-2.325288 -1.500000 2.882484 0.000000 0.994706 0.102760 73 73 73
-2.255155 -1.454758 2.444546 0.000000 0.994706 0.102760 0 0 0
-2.909516 -1.454758 2.444546 0.000000 0.994706 0.102760 0 0 0
-2.325288 1.500000 2.882484 0.000000 -0.994706 0.102760 74 74 74
-3.000000 1.500000 2.882484 0.000000 -0.994706 0.102760 56 56 56
-2.909516 1.454758 2.444546 0.000000 -0.994706 0.102760 0 0 0
-2.255155 1.454758 2.444546 0.000000 -0.994706 0.102760 0 0 0
2.325288 1.500000 2.882484 0.000000 -0.994706 0.102760 74 74 74
2.255155 1.454758 2.444546 0.000000 -0.994706 0.102760 0 0 0
2.325288 -1.500000 2.882484 0.000000 0.994706 0.102760 74 74 74
3.000000 -1.500000 2.882484 0.000000 0.994706 0.102760 74 74 74
2.909516 -1.454758 2.444546 0.000000 0.994706 0.102760 0 0 0
2.255155 -1.454758 2.444546 0.000000 0.994706 0.102760 0 0 0
-3.000000 -0.873846 2.882484 0.979315 0.000000 0.202339 74 74 74
-3.000000 -1.500000 2.882484 0.979315 0.000000 0.202339 74 74 74
-2.909516 -1.454758 2.444546 0.979315 0.000000 0.202339 0 0 0
-2.909516 -0.847490 2.444546 0.979315 0.000000 0.202339 11 11 11
-3.000000 0.873846 2.882484 0.979315 0.000000 0.202339 74 74 74
-2.909516 0.847490 2.444546 0.979315 0.000000 0.202339 0 0 0
3.000000 0.873846 2.882484 -0.979315 0.000000 0.202339 65 65 65
3.000000 1.500000 2.882484 -0.979315 0.000000 0.202339 56 56 56
2.909516 1.454758 2.444546 -0.979315 0.000000 0.202339 0 0 0
2.909516 0.847490 2.444546 -0.979315 0.000000 0.202339 0 0 0
3.000000 -0.873846 2.882484 -0.979315 0.000000 0.202339 74 74 74
2.909516 -0.847490 2.444546 -0.979315 0.000000 0.202339 0 0 0
3.000000 -1.500000 2.882484 1.000000 0.000000 0.000000 75 75 75
3.000000 1.500000 2.882484 0.000000 1.000000 0.000000 74 74 74
-3.000000 1.500000 2.882484 -1.000000 0.000000 -0.000000 74 74 74
-2.255155 0.847490 2.444546 -0.000000 0.000000 1.000000 29 29 29
-2.255155 1.454758 2.444546 -0.000000 0.000000 1.000000 0 0 0
-2.909516 1.454758 2.444546 -0.000000 0.000000 1.000000 0 0 0
-2.909516 0.847490 2.444546 -0.000000 0.000000 1.000000 0 0 0
2.909516 0.847490 2.444546 -0.000000 0.000000 1.000000 0 0 0
2.909516 1.454758 2.444546 -0.000000 0.000000 1.000000 0 0 0
2.255155 1.454758 2.444546 -0.000000 0.000000 1.000000 0 0 0
2.255155 0.847490 2.444546 -0.000000 0.000000 1.000000 0 0 0
-2.255155 -1.454758 2.444546 -0.000000 0.000000 1.000000 0 0 0
-2.255155 -0.847490 2.444546 -0.000000 0.000000 1.000000 0 0 0
-2.909516 -0.847490 2.444546 -0.000000 0.000000 1.000000 11 11 11
-2.909516 -1.454758 2.444546 -0.000000 0.000000 1.000000 0 0 0
2.909516 -1.454758 2.444546 -0.000000 0.000000 1.000000 0 0 0
2.909516 -0.847490 2.444546 -0.000000 0.000000 1.000000 0 0 0
2.255155 -0.847490 2.444546 -0.000000 0.000000 1.000000 0 0 0
2.255155 -1.454758 2.444546 -0.000000 0.000000 1.000000 0 0 0
3.000000 -1.500000 2.882484 -0.979315 0.000000 0.202339 74 74 74
2.909516 -1.454758 2.444546 -0.979315 0.000000 0.202339 0 0 0
3.000000 1.500000 2.882484 0.000000 -0.994706 0.102760 56 56 56
2.909516 1.454758 2.444546 0.000000 -0.994706 0.102760 0 0 0
-3.000000 1.500000 2.882484 0.979315 0.000000 0.202339 56 56 56
-2.909516 1.454758 2.444546 0.979315 0.000000 0.202339 0 0 0
4 0 1 2 3
4 4 5 6 7
4 8 9 10 11
4 12 13 14 15
4 7 6 16 17
4 15 14 18 19
4 20 21 22 23
4 21 4 7 22
4 24 25 26 27
4 25 14 13 26
4 28 29 30 31
4 32 33 34 35
4 21 20 36 37
4 4 21 37 38
4 29 28 39 40
4 40 0 3 29
4 41 42 43 44
4 42 8 11 43
4 45 46 47 48
4 49 35 50 51
4 25 24 52 53
4 14 25 53 18
4 54 55 56 57
4 58 59 32 60
4 61 60 49 62
4 60 32 35 49
4 40 39 63 64
4 0 40 64 65
4 42 41 66 67
4 8 42 67 68
4 69 70 71 72
4 73 74 75 76
4 77 78 79 80
4 81 82 83 84
4 85 86 87 88
4 89 90 91 92
4 11 10 93 94
4 3 2 95 96
4 97 98 99 100
4 23 22 101 102
4 103 104 105 106
4 107 108 109 110
4 27 26 111 112
4 113 43 114 115
4 116 117 118 119
4 13 12 120 121
4 122 123 124 125
4 126 127 128 129
4 130 126 129 131
4 132 133 134 135
4 123 132 135 124
4 136 137 138 139
4 140 136 139 141
4 142 143 144 145
4 146 142 145 147
4 9 8 68 148
4 5 4 38 149
4 1 0 65 150
4 151 152 153 154
4 155 156 157 158
4 158 157 152 151
4 159 160 161 162
4 160 151 154 161
4 163 164 165 166
4 164 155 158 165
4 166 165 160 159
4 165 158 151 160
4 167 146 147 168
4 169 130 131 170
4 171 140 141 172
