ply
format ascii 1.0
comment Created by Blender 2.73 (sub 0) - www.blender.org, source file: 'floor.blend'
element vertex 20
property float x
property float y
property float z
property float nx
property float ny
property float nz
property uchar red
property uchar green
property uchar blue
element face 16
property list uchar uint vertex_indices
end_header
5.000000 3.333333 0.000000 0.000000 0.000000 1.000000 78 50 7
15.000000 3.333333 0.000000 0.000000 0.000000 1.000000 92 55 0
15.000000 10.000000 0.000000 0.000000 0.000000 1.000000 92 58 8
5.000000 10.000000 0.000000 0.000000 0.000000 1.000000 74 47 7
-5.000000 3.333333 0.000000 0.000000 0.000000 1.000000 92 58 8
-5.000000 10.000000 0.000000 0.000000 0.000000 1.000000 92 58 8
5.000000 -3.333333 0.000000 0.000000 -0.000000 1.000000 92 58 8
15.000000 -3.333333 0.000000 0.000000 -0.000000 1.000000 74 47 7
-15.000000 3.333333 0.000000 0.000000 0.000000 1.000000 92 55 0
-15.000000 10.000000 0.000000 0.000000 0.000000 1.000000 90 57 8
2.000000 3.000000 0.000000 0.000000 0.000000 1.000000 85 54 7
2.000000 -3.000000 0.000000 0.000000 0.000000 1.000000 90 57 7
-4.000000 -3.000000 0.000000 0.000000 -0.000000 1.000000 91 57 7
-5.000000 -3.333333 0.000000 0.000000 -0.000000 1.000000 92 58 8
-4.000000 3.000000 0.000000 0.000000 0.000000 1.000000 89 56 7
5.000000 -10.000000 0.000000 0.000000 0.000000 1.000000 74 47 7
15.000000 -10.000000 0.000000 0.000000 0.000000 1.000000 74 47 7
-15.000000 -3.333333 0.000000 0.000000 0.000000 1.000000 77 49 7
-5.000000 -10.000000 0.000000 0.000000 0.000000 1.000000 92 55 0
-15.000000 -10.000000 0.000000 0.000000 0.000000 1.000000 92 58 8
4 0 1 2 3
4 4 0 3 5
4 1 0 6 7
4 8 4 5 9
3 0 10 11
3 12 13 11
3 6 0 11
3 13 6 11
3 12 4 13
3 10 0 4
3 12 14 4
3 14 10 4
4 15 16 7 6
4 17 13 4 8
4 18 15 6 13
4 19 18 13 17
