ply
format ascii 1.0
comment Created by Blender 2.71 (sub 0) - www.blender.org, source file: ''
element vertex 33
property float x
property float y
property float z
property float nx
property float ny
property float nz
property uchar red
property uchar green
property uchar blue
element face 12
property list uchar uint vertex_indices
end_header
0.000000 0.000000 0.000000 0.000000 0.000000 1.000000 125 75 11
35.000000 0.000000 0.000000 0.000000 0.000000 1.000000 128 96 6
35.000000 20.000000 0.000000 0.000000 0.000000 1.000000 107 64 9
0.000000 20.000000 0.000000 0.000000 0.000000 1.000000 138 83 12
0.000000 20.000000 0.000000 0.000000 -1.000000 0.000000 138 83 12
0.000000 20.000000 26.770964 0.000000 -1.000000 0.000000 115 69 10
-35.000000 20.000000 26.770964 0.000000 -1.000000 0.000000 115 69 10
-35.000000 20.000000 0.000000 0.000000 -1.000000 0.000000 126 74 22
35.000000 0.000000 0.000000 -1.000000 -0.000000 0.000000 128 96 6
35.000000 0.000000 26.770964 -1.000000 -0.000000 0.000000 115 69 10
35.000000 20.000000 26.770964 -1.000000 -0.000000 0.000000 115 69 10
35.000000 20.000000 0.000000 -1.000000 -0.000000 0.000000 107 64 9
0.000000 -20.000000 0.000000 0.000000 1.000000 0.000000 95 42 3
0.000000 -20.000000 26.770964 0.000000 1.000000 0.000000 115 69 10
35.000000 -20.000000 26.770964 0.000000 1.000000 0.000000 115 69 10
35.000000 -20.000000 0.000000 0.000000 1.000000 0.000000 138 83 12
-35.000000 -20.000000 26.770964 1.000000 0.000000 0.000000 115 69 10
-35.000000 -20.000000 0.000000 1.000000 0.000000 0.000000 107 64 9
-35.000000 0.000000 0.000000 1.000000 0.000000 0.000000 116 69 15
-35.000000 0.000000 26.770964 1.000000 0.000000 0.000000 115 69 10
-35.000000 0.000000 0.000000 0.000000 0.000000 1.000000 116 69 15
-35.000000 20.000000 0.000000 0.000000 0.000000 1.000000 126 74 22
35.000000 20.000000 0.000000 0.000000 -1.000000 0.000000 107 64 9
35.000000 20.000000 26.770964 0.000000 -1.000000 0.000000 115 69 10
-35.000000 -20.000000 0.000000 0.000000 1.000000 0.000000 107 64 9
-35.000000 -20.000000 26.770964 0.000000 1.000000 0.000000 115 69 10
0.000000 -20.000000 0.000000 0.000000 0.000000 1.000000 95 42 3
35.000000 -20.000000 0.000000 0.000000 0.000000 1.000000 138 83 12
35.000000 -20.000000 0.000000 -1.000000 -0.000000 0.000000 138 83 12
35.000000 -20.000000 26.770964 -1.000000 -0.000000 0.000000 115 69 10
-35.000000 20.000000 0.000000 1.000000 -0.000000 0.000000 126 74 22
-35.000000 20.000000 26.770964 1.000000 -0.000000 0.000000 115 69 10
-35.000000 -20.000000 0.000000 0.000000 0.000000 1.000000 107 64 9
4 0 1 2 3
4 4 5 6 7
4 8 9 10 11
4 12 13 14 15
4 16 17 18 19
4 20 0 3 21
4 22 23 5 4
4 24 25 13 12
4 26 27 1 0
4 28 29 9 8
4 30 31 19 18
4 32 26 0 20
