ply
format ascii 1.0
comment Created by Blender 2.71 (sub 0) - www.blender.org, source file: 'floor.blend'
element vertex 16
property float x
property float y
property float z
property float nx
property float ny
property float nz
property uchar red
property uchar green
property uchar blue
element face 9
property list uchar uint vertex_indices
end_header
6.666666 5.000000 0.000000 0.000000 0.000000 1.000000 78 50 7
20.000000 5.000000 0.000000 0.000000 0.000000 1.000000 92 55 0
20.000000 15.000000 0.000000 0.000000 0.000000 1.000000 92 58 8
6.666666 15.000000 0.000000 0.000000 0.000000 1.000000 74 47 7
-20.000000 5.000000 0.000000 0.000000 0.000000 1.000000 92 55 0
-6.666666 5.000000 0.000000 0.000000 0.000000 1.000000 92 58 8
-6.666666 15.000000 0.000000 0.000000 0.000000 1.000000 92 58 8
-20.000000 15.000000 0.000000 0.000000 0.000000 1.000000 90 57 8
6.666666 -15.000000 0.000000 0.000000 0.000000 1.000000 74 47 7
20.000000 -15.000000 0.000000 0.000000 0.000000 1.000000 74 47 7
20.000000 -5.000000 0.000000 0.000000 0.000000 1.000000 74 47 7
6.666666 -5.000000 0.000000 0.000000 0.000000 1.000000 92 58 8
-20.000000 -15.000000 0.000000 0.000000 0.000000 1.000000 92 58 8
-6.666666 -15.000000 0.000000 0.000000 0.000000 1.000000 92 55 0
-6.666666 -5.000000 0.000000 0.000000 0.000000 1.000000 92 58 8
-20.000000 -5.000000 0.000000 0.000000 0.000000 1.000000 77 49 7
4 0 1 2 3
4 4 5 6 7
4 5 0 3 6
4 8 9 10 11
4 1 0 11 10
4 12 13 14 15
4 15 14 5 4
4 13 8 11 14
4 0 5 14 11
