ply
format ascii 1.0
comment Created by Blender 2.71 (sub 0) - www.blender.org, source file: 'foundry.blend'
element vertex 24
property float x
property float y
property float z
property float nx
property float ny
property float nz
property uchar red
property uchar green
property uchar blue
element face 6
property list uchar uint vertex_indices
end_header
-1.723105 3.201265 0.002189 -1.000000 0.000000 -0.000000 255 240 237
-1.723105 -3.201265 0.002189 -1.000000 0.000000 -0.000000 255 240 237
-1.723105 -3.201265 0.281768 -1.000000 0.000000 -0.000000 255 241 239
-1.723105 3.201265 0.281768 -1.000000 0.000000 -0.000000 255 240 237
-1.723105 3.201265 0.281768 0.000000 1.000000 -0.000000 255 251 251
3.325574 3.201265 0.281768 0.000000 1.000000 -0.000000 255 240 237
3.325574 3.201265 0.002189 0.000000 1.000000 -0.000000 255 240 237
-1.723105 3.201265 0.002189 0.000000 1.000000 -0.000000 255 240 237
3.325574 3.201265 0.281768 1.000000 0.000000 -0.000000 255 240 237
3.325574 -3.201265 0.281768 1.000000 0.000000 -0.000000 255 240 237
3.325574 -3.201265 0.002189 1.000000 0.000000 -0.000000 255 240 237
3.325574 3.201265 0.002189 1.000000 0.000000 -0.000000 255 241 238
-1.723105 -3.201265 0.002189 0.000000 -1.000000 -0.000000 255 240 237
3.325574 -3.201265 0.002189 0.000000 -1.000000 -0.000000 255 240 237
3.325574 -3.201265 0.281768 0.000000 -1.000000 -0.000000 255 240 237
-1.723105 -3.201265 0.281768 0.000000 -1.000000 -0.000000 255 240 237
-1.723105 -3.201265 0.002189 -0.000000 0.000000 -1.000000 255 240 237
-1.723105 3.201265 0.002189 -0.000000 0.000000 -1.000000 255 240 237
3.325574 3.201265 0.002189 -0.000000 0.000000 -1.000000 255 240 237
3.325574 -3.201265 0.002189 -0.000000 0.000000 -1.000000 255 240 237
3.325574 -3.201265 0.281768 -0.000000 0.000000 1.000000 255 240 237
3.325574 3.201265 0.281768 -0.000000 0.000000 1.000000 255 240 237
-1.723105 3.201265 0.281768 -0.000000 0.000000 1.000000 255 240 237
-1.723105 -3.201265 0.281768 -0.000000 0.000000 1.000000 255 240 237
4 0 1 2 3
4 4 5 6 7
4 8 9 10 11
4 12 13 14 15
4 16 17 18 19
4 20 21 22 23
