ply
format ascii 1.0
comment Created by Blender 2.71 (sub 0) - www.blender.org, source file: 'GreatswordCast.blend'
element vertex 93
property float x
property float y
property float z
property float nx
property float ny
property float nz
property uchar red
property uchar green
property uchar blue
element face 45
property list uchar uint vertex_indices
end_header
1.000002 -1.999999 0.392042 0.000001 -1.000000 0.000000 255 255 255
-0.999999 -2.000001 0.392042 0.000001 -1.000000 0.000000 255 255 255
-0.999999 -2.000001 0.000000 0.000001 -1.000000 0.000000 255 255 255
1.000002 -1.999999 0.000000 0.000001 -1.000000 0.000000 225 241 226
0.999999 2.000001 0.392042 1.000000 0.000001 0.000000 255 248 245
1.000002 -1.999999 0.392042 1.000000 0.000001 0.000000 255 255 255
1.000002 -1.999999 0.000000 1.000000 0.000001 0.000000 225 241 226
0.999999 2.000001 0.000000 1.000000 0.000001 0.000000 225 238 222
-0.325487 0.957362 0.392042 0.000000 0.000000 1.000000 255 255 255
-0.157357 1.014008 0.392042 0.000000 0.000000 1.000000 255 255 255
-0.157358 1.577936 0.392042 0.000000 0.000000 1.000000 255 255 254
0.157355 1.577936 0.392042 0.000000 0.000000 1.000000 255 249 247
0.999999 2.000001 0.392042 0.000000 0.000000 1.000000 221 254 224
-1.000002 1.999999 0.392042 -0.000000 0.000000 1.000000 240 254 244
-0.325485 -1.430643 0.392042 0.000000 0.000000 1.000000 255 254 255
-0.999999 -2.000001 0.392042 0.000000 0.000000 1.000000 240 216 244
0.000001 -1.739184 0.392042 0.000000 0.000000 0.000000 248 244 248
0.000001 -1.739184 0.392042 0.000000 0.000000 0.000000 248 244 248
0.000001 -1.739184 0.392042 0.000000 0.000000 0.000000 248 244 248
-0.999999 -2.000001 0.392042 0.000000 0.000000 0.000000 240 216 244
0.000001 -1.739184 0.392042 0.000000 0.000000 1.000000 248 244 248
0.157356 1.014009 0.392042 0.000000 -0.000000 1.000000 255 255 255
1.000002 -1.999999 0.392042 -0.000000 0.000000 1.000000 219 197 223
0.000001 -1.739184 0.392042 -0.000000 0.000000 1.000000 248 244 248
0.325486 0.957362 0.392042 0.000000 -0.000000 1.000000 255 255 255
0.325487 -1.430643 0.392042 -0.000000 0.000000 1.000000 225 207 229
-0.999999 -2.000001 0.392042 -1.000000 -0.000001 0.000000 240 216 244
-1.000002 1.999999 0.392042 -1.000000 -0.000001 0.000000 239 254 243
-1.000002 1.999999 0.000000 -1.000000 -0.000001 0.000000 219 254 223
-0.999999 -2.000001 0.000000 -1.000000 -0.000001 0.000000 223 201 227
1.000002 -1.999999 0.000000 0.000000 -0.000000 -1.000000 220 255 224
-0.999999 -2.000001 0.000000 0.000000 -0.000000 -1.000000 226 210 229
0.000001 -1.739184 0.000000 0.000000 -0.000000 -1.000000 250 247 250
0.325486 0.957362 0.000000 0.000000 0.000000 -1.000000 255 255 255
0.157356 1.014009 0.000000 0.000000 0.000000 -1.000000 255 255 255
0.157355 1.577936 0.000000 0.000000 0.000000 -1.000000 248 255 250
-1.000002 1.999999 0.000000 0.000000 -0.000000 -1.000000 219 255 223
0.999999 2.000001 0.000000 0.000000 -0.000000 -1.000000 219 255 223
0.325487 -1.430643 0.000000 0.000000 -0.000000 -1.000000 255 255 255
-0.157358 1.577936 0.000000 0.000000 0.000000 -1.000000 255 255 255
-0.157357 1.014008 0.000000 0.000000 0.000000 -1.000000 255 255 255
-0.325487 0.957362 0.000000 0.000000 0.000000 -1.000000 255 255 255
-0.325485 -1.430643 0.000000 -0.000000 0.000000 -1.000000 248 244 249
0.000001 -1.739184 0.000000 0.000000 0.000000 0.000000 250 247 250
0.000001 -1.739184 0.000000 0.000000 0.000000 0.000000 250 247 250
0.000001 -1.739184 0.000000 0.000000 0.000000 0.000000 250 247 250
-0.325485 -1.430643 0.000000 0.000000 0.000000 0.000000 248 244 249
-1.000002 1.999999 0.392042 -0.000001 1.000000 0.000000 240 254 244
0.999999 2.000001 0.392042 -0.000001 1.000000 0.000000 255 248 245
0.999999 2.000001 0.000000 -0.000001 1.000000 0.000000 255 248 245
-1.000002 1.999999 0.000000 -0.000001 1.000000 0.000000 240 252 244
-0.157358 1.577936 0.392042 1.000000 0.000001 0.000000 255 255 254
-0.157357 1.014008 0.392042 1.000000 0.000001 0.000000 255 255 255
-0.157357 1.014008 0.000000 1.000000 0.000001 0.000000 255 252 250
-0.157358 1.577936 0.000000 1.000000 0.000001 0.000000 255 248 245
0.157355 1.577936 0.392042 0.000001 -1.000000 0.000000 255 255 255
-0.157358 1.577936 0.392042 0.000001 -1.000000 0.000000 246 255 247
-0.157358 1.577936 0.000000 0.000001 -1.000000 0.000000 255 255 255
0.157355 1.577936 0.000000 0.000001 -1.000000 0.000000 248 255 250
-0.157357 1.014008 0.392042 0.319286 -0.947658 0.000000 255 255 255
-0.325487 0.957362 0.392042 0.319286 -0.947658 0.000000 255 255 255
-0.325487 0.957362 0.000000 0.319286 -0.947658 0.000000 255 255 255
-0.157357 1.014008 0.000000 0.319286 -0.947658 0.000000 255 255 255
0.157356 1.014009 0.392042 -1.000000 -0.000001 0.000000 255 255 255
0.157355 1.577936 0.392042 -1.000000 -0.000001 0.000000 255 255 255
0.157355 1.577936 0.000000 -1.000000 -0.000001 0.000000 248 255 250
0.157356 1.014009 0.000000 -1.000000 -0.000001 0.000000 255 255 255
-0.325487 0.957362 0.392042 1.000000 0.000001 0.000000 255 255 255
-0.325485 -1.430643 0.392042 1.000000 0.000001 0.000000 255 255 255
-0.325485 -1.430643 0.000000 1.000000 0.000001 0.000000 255 255 255
-0.325487 0.957362 0.000000 1.000000 0.000001 0.000000 255 255 255
0.157356 1.014009 0.000000 -0.319285 -0.947659 0.000000 255 255 255
0.325486 0.957362 0.000000 -0.319285 -0.947659 0.000000 255 255 255
0.325486 0.957362 0.392042 -0.319285 -0.947659 0.000000 255 255 255
0.157356 1.014009 0.392042 -0.319285 -0.947659 0.000000 255 255 255
-0.325485 -1.430643 0.392042 0.687962 0.725747 0.000000 255 254 255
0.000001 -1.739184 0.392042 0.687962 0.725747 0.000000 248 244 248
0.000001 -1.739184 0.000000 0.687962 0.725747 0.000000 255 255 255
-0.325485 -1.430643 0.000000 0.687962 0.725747 0.000000 255 255 255
0.325486 0.957362 0.000000 -1.000000 -0.000001 0.000000 255 255 255
0.325487 -1.430643 0.000000 -1.000000 -0.000001 0.000000 255 255 255
0.325487 -1.430643 0.392042 -1.000000 -0.000001 0.000000 225 207 229
0.325486 0.957362 0.392042 -1.000000 -0.000001 0.000000 255 255 255
0.000001 -1.739184 0.392042 0.000000 0.000000 0.000000 255 255 255
0.000001 -1.739184 0.392042 0.000000 0.000000 0.000000 255 255 255
0.000001 -1.739184 0.000000 0.000000 0.000000 0.000000 255 255 255
0.000001 -1.739184 0.000000 0.000000 0.000000 0.000000 255 255 255
0.325487 -1.430643 0.000000 -0.687963 0.725746 0.000000 255 255 255
0.000001 -1.739184 0.000000 -0.687963 0.725746 0.000000 250 247 250
0.000001 -1.739184 0.392042 -0.687963 0.725746 0.000000 219 198 223
0.325487 -1.430643 0.392042 -0.687963 0.725746 0.000000 225 207 229
0.000001 -1.739184 0.392042 0.000000 0.000000 0.000000 255 255 255
0.000001 -1.739184 0.000000 0.000000 0.000000 0.000000 255 255 255
4 0 1 2 3
4 4 5 6 7
3 8 9 10
3 10 11 12
3 10 12 13
3 8 10 13
3 14 8 13
3 15 14 13
3 16 17 18
3 19 16 18
3 15 20 14
3 12 11 21
3 22 23 15
3 12 21 24
3 22 25 23
3 22 12 24
3 22 24 25
4 26 27 28 29
3 30 31 32
3 33 34 35
3 35 36 37
3 30 32 38
3 33 35 37
3 30 38 37
3 38 33 37
3 36 35 39
3 39 40 41
3 36 39 41
3 31 36 41
3 31 41 42
3 43 44 45
3 46 43 45
3 31 42 32
4 47 48 49 50
4 51 52 53 54
4 55 56 57 58
4 59 60 61 62
4 63 64 65 66
4 67 68 69 70
4 71 72 73 74
4 75 76 77 78
4 79 80 81 82
4 83 84 85 86
4 87 88 89 90
4 84 91 92 85
