ply
format ascii 1.0
comment Created by Blender 2.71 (sub 0) - www.blender.org, source file: 'ingot.blend'
element vertex 24
property float x
property float y
property float z
property float nx
property float ny
property float nz
property uchar red
property uchar green
property uchar blue
element face 6
property list uchar uint vertex_indices
end_header
1.000000 0.497185 0.000000 0.000000 0.000000 -1.000000 224 224 224
1.000000 -0.497185 0.000000 0.000000 0.000000 -1.000000 224 224 224
-1.000000 -0.497185 0.000000 0.000000 0.000000 -1.000000 224 224 224
-1.000000 0.497185 0.000000 0.000000 0.000000 -1.000000 224 224 224
0.804987 0.400227 0.653586 0.000000 -0.000000 1.000000 215 222 199
-0.804987 0.400227 0.653586 0.000000 -0.000000 1.000000 243 236 251
-0.804987 -0.400227 0.653586 0.000000 -0.000000 1.000000 245 235 255
0.804986 -0.400228 0.653586 0.000000 -0.000000 1.000000 221 219 223
1.000000 0.497185 0.000000 0.958254 -0.000000 0.285918 215 222 199
0.804987 0.400227 0.653586 0.958254 -0.000000 0.285918 215 222 199
0.804986 -0.400228 0.653586 0.958254 -0.000000 0.285918 221 219 223
1.000000 -0.497185 0.000000 0.958254 -0.000000 0.285918 215 222 199
1.000000 -0.497185 0.000000 -0.000000 -0.989175 0.146741 215 222 199
0.804986 -0.400228 0.653586 -0.000000 -0.989175 0.146741 219 214 223
-0.804987 -0.400227 0.653586 -0.000000 -0.989175 0.146741 245 235 255
-1.000000 -0.497185 0.000000 -0.000000 -0.989175 0.146741 247 255 240
-1.000000 -0.497185 0.000000 -0.958254 0.000000 0.285918 245 235 255
-0.804987 -0.400227 0.653586 -0.958254 0.000000 0.285918 245 235 255
-0.804987 0.400227 0.653586 -0.958254 0.000000 0.285918 240 233 248
-1.000000 0.497185 0.000000 -0.958254 0.000000 0.285918 245 235 255
0.804987 0.400227 0.653586 0.000000 0.989175 0.146742 215 222 199
1.000000 0.497185 0.000000 0.000000 0.989175 0.146742 215 222 199
-1.000000 0.497185 0.000000 0.000000 0.989175 0.146742 215 222 199
-0.804987 0.400227 0.653586 0.000000 0.989175 0.146742 224 224 224
4 0 1 2 3
4 4 5 6 7
4 8 9 10 11
4 12 13 14 15
4 16 17 18 19
4 20 21 22 23
