ply
format ascii 1.0
comment Created by Blender 2.71 (sub 0) - www.blender.org, source file: 'ingot.blend'
element vertex 24
property float x
property float y
property float z
property float nx
property float ny
property float nz
element face 6
property list uchar uint vertex_indices
end_header
1.000000 0.497185 0.000000 0.000000 0.000000 -1.000000
1.000000 -0.497185 0.000000 0.000000 0.000000 -1.000000
-1.000000 -0.497185 0.000000 0.000000 0.000000 -1.000000
-1.000000 0.497185 0.000000 0.000000 0.000000 -1.000000
0.804987 0.400227 0.653586 0.000000 -0.000000 1.000000
-0.804987 0.400227 0.653586 0.000000 -0.000000 1.000000
-0.804987 -0.400227 0.653586 0.000000 -0.000000 1.000000
0.804986 -0.400228 0.653586 0.000000 -0.000000 1.000000
1.000000 0.497185 0.000000 0.958254 -0.000000 0.285918
0.804987 0.400227 0.653586 0.958254 -0.000000 0.285918
0.804986 -0.400228 0.653586 0.958254 -0.000000 0.285918
1.000000 -0.497185 0.000000 0.958254 -0.000000 0.285918
1.000000 -0.497185 0.000000 -0.000000 -0.989175 0.146741
0.804986 -0.400228 0.653586 -0.000000 -0.989175 0.146741
-0.804987 -0.400227 0.653586 -0.000000 -0.989175 0.146741
-1.000000 -0.497185 0.000000 -0.000000 -0.989175 0.146741
-1.000000 -0.497185 0.000000 -0.958254 0.000000 0.285918
-0.804987 -0.400227 0.653586 -0.958254 0.000000 0.285918
-0.804987 0.400227 0.653586 -0.958254 0.000000 0.285918
-1.000000 0.497185 0.000000 -0.958254 0.000000 0.285918
0.804987 0.400227 0.653586 0.000000 0.989175 0.146742
1.000000 0.497185 0.000000 0.000000 0.989175 0.146742
-1.000000 0.497185 0.000000 0.000000 0.989175 0.146742
-0.804987 0.400227 0.653586 0.000000 0.989175 0.146742
4 0 1 2 3
4 4 5 6 7
4 8 9 10 11
4 12 13 14 15
4 16 17 18 19
4 20 21 22 23
