ply
format ascii 1.0
comment Created by Blender 2.71 (sub 0) - www.blender.org, source file: 'mailbox.blend'
element vertex 567
property float x
property float y
property float z
property float nx
property float ny
property float nz
property uchar red
property uchar green
property uchar blue
element face 195
property list uchar uint vertex_indices
end_header
-1.499999 -0.002041 -0.003497 -1.000000 0.000000 0.000000 158 93 31
-1.500000 -1.737961 -0.098510 -1.000000 0.000000 0.000000 158 93 31
-1.500000 -1.754971 0.212258 -1.000000 0.000000 0.000000 158 93 31
-1.499999 -0.019051 0.307271 -1.000000 0.000000 0.000000 158 93 31
-1.499999 -0.002041 -0.003497 0.000000 0.054652 -0.998505 158 93 31
1.500000 -0.002042 -0.003497 0.000000 0.054652 -0.998505 140 75 29
-1.500000 -1.737961 -0.098510 0.000000 0.054652 -0.998505 140 75 29
1.500000 -0.002042 -0.003497 -0.000000 0.054652 -0.998505 140 76 30
1.499998 -1.737962 -0.098510 -0.000000 0.054652 -0.998505 158 93 31
1.500000 -0.019051 0.307271 0.000000 -0.054652 0.998505 158 93 31
-1.499999 -0.019051 0.307271 0.000000 -0.054652 0.998505 158 93 31
-1.500000 -1.754971 0.212258 0.000000 -0.054652 0.998505 158 93 31
1.499998 -1.754972 0.212258 0.000000 -0.054652 0.998505 158 93 31
1.499998 -1.737962 -0.098510 1.000000 -0.000001 -0.000000 158 93 31
1.499998 -1.754972 0.212258 1.000000 -0.000001 -0.000000 158 93 31
1.499998 -2.255295 0.184873 1.000000 -0.000001 -0.000000 158 93 31
1.499998 -1.986198 -0.112097 1.000000 -0.000001 -0.000000 158 93 31
1.500000 -0.002042 -0.003497 0.000000 0.998505 0.054652 140 75 29
-1.499999 -0.002041 -0.003497 0.000000 0.998505 0.054652 158 93 31
-1.499999 -0.019051 0.307271 0.000000 0.998505 0.054652 158 93 31
1.500000 -0.019051 0.307271 0.000000 0.998505 0.054652 147 82 30
1.500000 -0.002042 -0.003497 1.000000 -0.000001 -0.000000 140 75 29
1.500000 -0.019051 0.307271 1.000000 -0.000001 -0.000000 147 82 30
-1.500000 -1.986197 -0.112097 -0.000000 -0.741028 -0.671475 141 76 29
1.499998 -1.986198 -0.112097 -0.000000 -0.741028 -0.671475 158 93 31
1.499998 -2.255295 0.184873 -0.000000 -0.741028 -0.671475 158 93 31
-1.500000 -2.255294 0.184873 -0.000000 -0.741028 -0.671475 158 93 31
-1.500000 -1.754971 0.212258 -1.000000 0.000001 0.000000 158 93 31
-1.500000 -1.737961 -0.098510 -1.000000 0.000001 0.000000 158 93 31
-1.500000 -1.986197 -0.112097 -1.000000 0.000001 0.000000 158 93 31
-1.500000 -2.255294 0.184873 -1.000000 0.000001 0.000000 158 93 31
1.499998 -1.754972 0.212258 0.000000 -0.054652 0.998506 158 93 31
-1.500000 -1.754971 0.212258 0.000000 -0.054652 0.998506 158 93 31
-1.500000 -2.255294 0.184873 0.000000 -0.054652 0.998506 158 93 31
1.499998 -2.255295 0.184873 0.000000 -0.054652 0.998506 158 93 31
1.499998 -1.986198 -0.112097 -0.000000 0.054652 -0.998505 158 93 31
-1.500000 -1.986197 -0.112097 -0.000000 0.054652 -0.998505 141 76 29
-1.233123 0.066617 0.061686 0.000000 0.881917 0.471404 249 255 242
-0.766877 0.066617 0.061686 0.000000 0.881917 0.471404 249 255 242
-0.766877 0.074617 0.046719 0.000000 0.881917 0.471404 249 255 242
-1.233123 0.074617 0.046720 0.000000 0.881917 0.471404 249 255 242
0.766877 0.081207 0.013591 -0.000000 0.995184 -0.098022 249 255 242
1.233123 0.081207 0.013591 -0.000000 0.995184 -0.098022 243 246 231
1.233123 0.079543 -0.003297 -0.000000 0.995184 -0.098022 244 247 233
0.766877 0.079543 -0.003297 -0.000000 0.995184 -0.098022 249 255 242
-1.233123 0.055852 0.074804 0.000000 0.773011 0.634393 249 255 242
-0.766877 0.055852 0.074803 0.000000 0.773011 0.634393 249 255 242
-0.766877 0.066617 0.061686 0.000000 0.773011 0.634393 249 255 242
-1.233123 0.066617 0.061686 0.000000 0.773011 0.634393 249 255 242
0.766877 0.079543 -0.003297 -0.000000 0.956941 -0.290283 249 255 242
1.233123 0.079543 -0.003297 -0.000000 0.956941 -0.290283 244 247 233
1.233123 0.074617 -0.019537 -0.000000 0.956941 -0.290283 245 248 234
0.766877 0.074617 -0.019536 -0.000000 0.956941 -0.290283 249 255 242
-1.233123 0.042734 0.085570 0.000001 0.634402 0.773003 249 255 242
-0.766877 0.042734 0.085569 0.000001 0.634402 0.773003 249 255 242
-0.766877 0.055852 0.074803 0.000001 0.634402 0.773003 249 255 242
-1.233123 0.055852 0.074804 0.000001 0.634402 0.773003 249 255 242
0.766877 0.074617 -0.019536 -0.000000 0.881924 -0.471392 249 255 242
1.233123 0.074617 -0.019537 -0.000000 0.881924 -0.471392 245 248 234
1.233123 0.066617 -0.034503 -0.000000 0.881924 -0.471392 245 249 234
0.766877 0.066617 -0.034503 -0.000000 0.881924 -0.471392 249 255 242
-1.233123 0.027767 0.093569 0.000000 0.471392 0.881924 249 255 242
-0.766877 0.027767 0.093569 0.000000 0.471392 0.881924 248 254 241
-0.766877 0.042734 0.085569 0.000000 0.471392 0.881924 248 254 241
-1.233123 0.042734 0.085570 0.000000 0.471392 0.881924 249 255 242
0.766877 0.066617 -0.034503 -0.000000 0.773007 -0.634397 249 255 242
1.233123 0.066617 -0.034503 -0.000000 0.773007 -0.634397 245 249 234
1.233123 0.055852 -0.047621 -0.000000 0.773007 -0.634397 246 249 235
0.766877 0.055852 -0.047621 -0.000000 0.773007 -0.634397 249 255 242
-1.233123 0.011528 0.098495 0.000000 0.290287 0.956940 226 213 187
-0.766877 0.011528 0.098495 0.000000 0.290287 0.956940 220 204 175
-0.766877 0.027767 0.093569 0.000000 0.290287 0.956940 233 227 207
-1.233123 0.027767 0.093569 0.000000 0.290287 0.956940 219 200 172
0.766877 0.055852 -0.047621 -0.000000 0.634394 -0.773010 249 255 242
1.233123 0.055852 -0.047621 -0.000000 0.634394 -0.773010 246 249 235
1.233123 0.042733 -0.058387 -0.000000 0.634394 -0.773010 246 249 235
0.766877 0.042733 -0.058387 -0.000000 0.634394 -0.773010 249 255 242
-1.233123 -0.005361 0.100159 0.000001 0.098021 0.995184 232 225 204
-0.766877 -0.005361 0.100159 0.000001 0.098021 0.995184 204 176 139
-0.766877 0.011528 0.098495 0.000001 0.098021 0.995184 220 204 175
-1.233123 0.011528 0.098495 0.000001 0.098021 0.995184 226 213 187
0.766877 0.042733 -0.058387 -0.000000 0.471395 -0.881922 249 255 242
1.233123 0.042733 -0.058387 -0.000000 0.471395 -0.881922 246 249 235
1.233123 0.027767 -0.066387 -0.000000 0.471395 -0.881922 246 249 235
0.766877 0.027767 -0.066387 -0.000000 0.471395 -0.881922 249 255 242
-1.233123 -0.022249 0.098496 0.000001 -0.098008 0.995186 239 237 219
-0.766877 -0.022249 0.098495 0.000001 -0.098008 0.995186 192 152 109
-0.766877 -0.005361 0.100159 0.000001 -0.098008 0.995186 204 176 139
-1.233123 -0.005361 0.100159 0.000001 -0.098008 0.995186 232 225 204
0.766877 0.027767 -0.066387 -0.000000 0.290297 -0.956936 249 255 242
1.233123 0.027767 -0.066387 -0.000000 0.290297 -0.956936 244 245 230
1.233123 0.011528 -0.071313 -0.000000 0.290297 -0.956936 243 245 230
0.766877 0.011528 -0.071313 -0.000000 0.290297 -0.956936 249 255 242
-1.233123 -0.038489 0.093570 0.000001 -0.290285 0.956940 255 255 255
-0.766877 -0.038489 0.093569 0.000001 -0.290285 0.956940 255 255 255
-0.766877 -0.022249 0.098495 0.000001 -0.290285 0.956940 255 255 255
-1.233123 -0.022249 0.098496 0.000001 -0.290285 0.956940 255 255 255
0.766877 0.011528 -0.071313 -0.000001 0.098008 -0.995186 249 255 242
1.233123 0.011528 -0.071313 -0.000001 0.098008 -0.995186 243 245 230
1.233123 -0.005361 -0.072977 -0.000001 0.098008 -0.995186 244 245 231
0.766877 -0.005361 -0.072976 -0.000001 0.098008 -0.995186 249 255 242
-1.233123 -0.053455 0.085570 0.000001 -0.471406 0.881916 255 255 255
-0.766877 -0.053455 0.085569 0.000001 -0.471406 0.881916 255 255 255
-0.766877 -0.038489 0.093569 0.000001 -0.471406 0.881916 255 255 255
-1.233123 -0.038489 0.093570 0.000001 -0.471406 0.881916 255 255 255
0.766877 -0.005361 -0.072976 -0.000001 -0.098008 -0.995186 255 255 255
1.233123 -0.005361 -0.072977 -0.000001 -0.098008 -0.995186 250 248 246
1.233123 -0.022249 -0.071313 -0.000001 -0.098008 -0.995186 250 247 245
0.766877 -0.022249 -0.071313 -0.000001 -0.098008 -0.995186 255 255 255
-1.233123 -0.066573 0.074804 0.000000 -0.634392 0.773012 255 255 255
-0.766877 -0.066573 0.074804 0.000000 -0.634392 0.773012 255 255 255
-0.766877 -0.053455 0.085569 0.000000 -0.634392 0.773012 255 255 255
-1.233123 -0.053455 0.085570 0.000000 -0.634392 0.773012 255 255 255
0.766877 -0.022249 -0.071313 -0.000000 -0.290297 -0.956936 255 255 255
1.233123 -0.022249 -0.071313 -0.000000 -0.290297 -0.956936 250 247 245
1.233123 -0.038489 -0.066387 -0.000000 -0.290297 -0.956936 249 246 243
0.766877 -0.038489 -0.066387 -0.000000 -0.290297 -0.956936 255 255 255
-1.233123 -0.077339 0.061686 0.000000 -0.773006 0.634399 255 255 255
-0.766877 -0.077339 0.061686 0.000000 -0.773006 0.634399 255 255 255
-0.766877 -0.066573 0.074804 0.000000 -0.773006 0.634399 255 255 255
-1.233123 -0.066573 0.074804 0.000000 -0.773006 0.634399 255 255 255
0.766877 -0.038489 -0.066387 -0.000000 -0.471395 -0.881922 255 255 255
1.233123 -0.038489 -0.066387 -0.000000 -0.471395 -0.881922 249 246 243
1.233123 -0.053455 -0.058387 -0.000000 -0.471395 -0.881922 248 244 241
0.766877 -0.053455 -0.058387 -0.000000 -0.471395 -0.881922 255 255 255
-1.233123 -0.085339 0.046720 0.000000 -0.881924 0.471392 255 255 255
-0.766877 -0.085339 0.046719 0.000000 -0.881924 0.471392 255 255 255
-0.766877 -0.077339 0.061686 0.000000 -0.881924 0.471392 255 255 255
-1.233123 -0.077339 0.061686 0.000000 -0.881924 0.471392 255 255 255
0.766877 -0.053455 -0.058387 -0.000000 -0.634394 -0.773010 255 255 255
1.233123 -0.053455 -0.058387 -0.000000 -0.634394 -0.773010 248 244 241
1.233123 -0.066574 -0.047621 -0.000000 -0.634394 -0.773010 246 242 238
0.766877 -0.066574 -0.047621 -0.000000 -0.634394 -0.773010 255 255 255
-1.233123 -0.090265 0.030480 0.000000 -0.956941 0.290283 255 255 255
-0.766877 -0.090265 0.030479 0.000000 -0.956941 0.290283 255 255 255
-0.766877 -0.085339 0.046719 0.000000 -0.956941 0.290283 255 255 255
-1.233123 -0.085339 0.046720 0.000000 -0.956941 0.290283 255 255 255
0.766877 -0.066574 -0.047621 -0.000000 -0.773007 -0.634397 255 255 255
1.233123 -0.066574 -0.047621 -0.000000 -0.773007 -0.634397 255 255 255
1.233123 -0.077339 -0.034503 -0.000000 -0.773007 -0.634397 255 255 255
0.766877 -0.077339 -0.034503 -0.000000 -0.773007 -0.634397 255 255 255
-1.233123 -0.091929 0.013591 0.000000 -0.995185 0.098019 255 255 255
-0.766877 -0.091929 0.013591 0.000000 -0.995185 0.098019 255 255 255
-0.766877 -0.090265 0.030479 0.000000 -0.995185 0.098019 255 255 255
-1.233123 -0.090265 0.030480 0.000000 -0.995185 0.098019 255 255 255
0.766877 -0.077339 -0.034503 -0.000000 -0.881922 -0.471395 255 255 255
1.233123 -0.077339 -0.034503 -0.000000 -0.881922 -0.471395 255 255 255
1.233123 -0.085339 -0.019537 -0.000000 -0.881922 -0.471395 255 255 255
0.766877 -0.085339 -0.019536 -0.000000 -0.881922 -0.471395 255 255 255
-1.233123 -0.090265 -0.003297 -0.000000 -0.995185 -0.098019 255 255 255
-0.766877 -0.090265 -0.003297 -0.000000 -0.995185 -0.098019 255 255 255
-0.766877 -0.091929 0.013591 -0.000000 -0.995185 -0.098019 255 255 255
-1.233123 -0.091929 0.013591 -0.000000 -0.995185 -0.098019 255 255 255
0.766877 -0.085339 -0.019536 -0.000000 -0.956942 -0.290279 255 255 255
1.233123 -0.085339 -0.019537 -0.000000 -0.956942 -0.290279 255 255 255
1.233123 -0.090265 -0.003297 -0.000000 -0.956942 -0.290279 255 255 255
0.766877 -0.090265 -0.003297 -0.000000 -0.956942 -0.290279 255 255 255
-1.233123 -0.085339 -0.019536 -0.000000 -0.956942 -0.290279 255 255 255
-0.766877 -0.085339 -0.019537 -0.000000 -0.956942 -0.290279 255 255 255
-0.766877 -0.090265 -0.003297 -0.000000 -0.956942 -0.290279 255 255 255
-1.233123 -0.090265 -0.003297 -0.000000 -0.956942 -0.290279 255 255 255
0.766877 -0.090265 -0.003297 -0.000000 -0.995185 -0.098019 255 255 255
1.233123 -0.090265 -0.003297 -0.000000 -0.995185 -0.098019 255 255 255
1.233123 -0.091929 0.013591 -0.000000 -0.995185 -0.098019 255 255 255
0.766877 -0.091929 0.013591 -0.000000 -0.995185 -0.098019 255 255 255
-1.233123 -0.077339 -0.034503 -0.000000 -0.881922 -0.471395 255 255 255
-0.766877 -0.077339 -0.034503 -0.000000 -0.881922 -0.471395 255 255 255
-0.766877 -0.085339 -0.019537 -0.000000 -0.881922 -0.471395 255 255 255
-1.233123 -0.085339 -0.019536 -0.000000 -0.881922 -0.471395 255 255 255
0.766877 -0.091929 0.013591 0.000000 -0.995185 0.098019 255 255 255
1.233123 -0.091929 0.013591 0.000000 -0.995185 0.098019 255 255 255
1.233123 -0.090265 0.030479 0.000000 -0.995185 0.098019 255 255 255
0.766877 -0.090265 0.030480 0.000000 -0.995185 0.098019 255 255 255
-1.233123 -0.066574 -0.047621 -0.000000 -0.773007 -0.634397 255 255 255
-0.766877 -0.066574 -0.047621 -0.000000 -0.773007 -0.634397 255 255 255
-0.766877 -0.077339 -0.034503 -0.000000 -0.773007 -0.634397 255 255 255
-1.233123 -0.077339 -0.034503 -0.000000 -0.773007 -0.634397 255 255 255
0.766877 -0.090265 0.030480 0.000000 -0.956941 0.290283 255 255 255
1.233123 -0.090265 0.030479 0.000000 -0.956941 0.290283 255 255 255
1.233123 -0.085339 0.046719 0.000000 -0.956941 0.290283 255 255 255
0.766877 -0.085339 0.046720 0.000000 -0.956941 0.290283 255 255 255
-1.233123 -0.053455 -0.058387 -0.000000 -0.634394 -0.773010 255 255 255
-0.766877 -0.053455 -0.058387 -0.000000 -0.634394 -0.773010 255 255 255
-0.766877 -0.066574 -0.047621 -0.000000 -0.634394 -0.773010 255 255 255
-1.233123 -0.066574 -0.047621 -0.000000 -0.634394 -0.773010 255 255 255
0.766877 -0.085339 0.046720 0.000000 -0.881924 0.471392 255 255 255
1.233123 -0.085339 0.046719 0.000000 -0.881924 0.471392 255 255 255
1.233123 -0.077339 0.061686 0.000000 -0.881924 0.471392 255 255 255
0.766877 -0.077339 0.061686 0.000000 -0.881924 0.471392 255 255 255
-1.233123 -0.038489 -0.066387 -0.000000 -0.471395 -0.881922 255 255 255
-0.766877 -0.038489 -0.066387 -0.000000 -0.471395 -0.881922 255 255 255
-0.766877 -0.053455 -0.058387 -0.000000 -0.471395 -0.881922 255 255 255
-1.233123 -0.053455 -0.058387 -0.000000 -0.471395 -0.881922 255 255 255
0.766877 -0.077339 0.061686 0.000000 -0.773006 0.634399 255 255 255
1.233123 -0.077339 0.061686 0.000000 -0.773006 0.634399 255 255 255
1.233123 -0.066573 0.074804 0.000000 -0.773006 0.634399 255 255 255
0.766877 -0.066573 0.074804 0.000000 -0.773006 0.634399 255 255 255
-1.233123 -0.022249 -0.071313 -0.000000 -0.290297 -0.956936 255 255 255
-0.766877 -0.022249 -0.071313 -0.000000 -0.290297 -0.956936 255 255 255
-0.766877 -0.038489 -0.066387 -0.000000 -0.290297 -0.956936 255 255 255
-1.233123 -0.038489 -0.066387 -0.000000 -0.290297 -0.956936 255 255 255
0.766877 -0.066573 0.074804 0.000000 -0.634392 0.773012 255 255 255
1.233123 -0.066573 0.074804 0.000000 -0.634392 0.773012 255 255 255
1.233123 -0.053455 0.085569 0.000000 -0.634392 0.773012 255 255 255
0.766877 -0.053455 0.085570 0.000000 -0.634392 0.773012 255 255 255
-1.233123 -0.005361 -0.072976 -0.000001 -0.098008 -0.995186 255 255 255
-0.766877 -0.005361 -0.072977 -0.000001 -0.098008 -0.995186 255 255 255
-0.766877 -0.022249 -0.071313 -0.000001 -0.098008 -0.995186 255 255 255
-1.233123 -0.022249 -0.071313 -0.000001 -0.098008 -0.995186 255 255 255
0.766877 -0.053455 0.085570 0.000001 -0.471406 0.881916 255 255 255
1.233123 -0.053455 0.085569 0.000001 -0.471406 0.881916 255 255 255
1.233123 -0.038489 0.093569 0.000001 -0.471406 0.881916 255 255 255
0.766877 -0.038489 0.093570 0.000001 -0.471406 0.881916 255 255 255
-1.233123 0.011528 -0.071313 -0.000001 0.098008 -0.995186 249 255 242
-0.766877 0.011528 -0.071313 -0.000001 0.098008 -0.995186 249 255 242
-0.766877 -0.005361 -0.072977 -0.000001 0.098008 -0.995186 249 255 242
-1.233123 -0.005361 -0.072976 -0.000001 0.098008 -0.995186 249 255 242
0.766877 -0.038489 0.093570 0.000001 -0.290285 0.956940 255 255 255
1.233123 -0.038489 0.093569 0.000001 -0.290285 0.956940 255 255 255
1.233123 -0.022249 0.098495 0.000001 -0.290285 0.956940 255 255 255
0.766877 -0.022249 0.098496 0.000001 -0.290285 0.956940 255 255 255
-1.233123 0.027767 -0.066387 -0.000000 0.290297 -0.956936 249 255 242
-0.766877 0.027767 -0.066387 -0.000000 0.290297 -0.956936 249 255 242
-0.766877 0.011528 -0.071313 -0.000000 0.290297 -0.956936 249 255 242
-1.233123 0.011528 -0.071313 -0.000000 0.290297 -0.956936 249 255 242
0.766877 -0.022249 0.098496 0.000001 -0.098008 0.995186 244 246 231
1.233123 -0.022249 0.098495 0.000001 -0.098008 0.995186 249 255 242
1.233123 -0.005361 0.100159 0.000001 -0.098008 0.995186 249 255 242
0.766877 -0.005361 0.100159 0.000001 -0.098008 0.995186 244 247 232
-1.233123 0.042733 -0.058387 -0.000000 0.471395 -0.881922 249 255 242
-0.766877 0.042733 -0.058387 -0.000000 0.471395 -0.881922 249 255 242
-0.766877 0.027767 -0.066387 -0.000000 0.471395 -0.881922 249 255 242
-1.233123 0.027767 -0.066387 -0.000000 0.471395 -0.881922 249 255 242
0.766877 -0.005361 0.100159 0.000001 0.098021 0.995184 244 247 232
1.233123 -0.005361 0.100159 0.000001 0.098021 0.995184 249 255 242
1.233123 0.011528 0.098495 0.000001 0.098021 0.995184 249 255 242
0.766877 0.011528 0.098495 0.000001 0.098021 0.995184 247 250 235
-1.233123 0.055852 -0.047621 -0.000000 0.634394 -0.773010 249 255 242
-0.766877 0.055852 -0.047621 -0.000000 0.634394 -0.773010 249 255 242
-0.766877 0.042733 -0.058387 -0.000000 0.634394 -0.773010 249 255 242
-1.233123 0.042733 -0.058387 -0.000000 0.634394 -0.773010 249 255 242
0.766877 0.011528 0.098495 0.000000 0.290287 0.956940 247 250 235
1.233123 0.011528 0.098495 0.000000 0.290287 0.956940 249 255 242
1.233123 0.027767 0.093569 0.000000 0.290287 0.956940 249 255 242
0.766877 0.027767 0.093569 0.000000 0.290287 0.956940 248 252 239
-1.233123 0.066617 -0.034503 -0.000000 0.773007 -0.634397 249 255 242
-0.766877 0.066617 -0.034503 -0.000000 0.773007 -0.634397 249 255 242
-0.766877 0.055852 -0.047621 -0.000000 0.773007 -0.634397 249 255 242
-1.233123 0.055852 -0.047621 -0.000000 0.773007 -0.634397 249 255 242
0.766877 0.027767 0.093569 0.000000 0.471392 0.881924 248 252 239
1.233123 0.027767 0.093569 0.000000 0.471392 0.881924 249 255 242
1.233123 0.042734 0.085569 0.000000 0.471392 0.881924 249 255 242
0.766877 0.042734 0.085570 0.000000 0.471392 0.881924 249 254 241
-1.233123 0.081207 0.013591 -1.000000 0.000000 0.000000 249 255 242
-1.233123 0.079543 -0.003297 -1.000000 0.000000 0.000000 249 255 242
-1.233123 0.079543 0.030480 -1.000000 0.000000 0.000000 249 255 242
-1.233123 0.074617 -0.019536 -1.000000 0.000000 0.000000 249 255 242
-1.233123 0.066617 -0.034503 -1.000000 0.000000 0.000000 249 255 242
-1.233123 0.066617 -0.034503 -1.000000 0.000028 -0.000023 249 255 242
-1.233123 0.055852 -0.047621 -1.000000 0.000028 -0.000023 249 255 242
-1.233123 0.042733 -0.058387 -1.000000 0.000028 -0.000023 249 255 242
-1.233123 0.042733 -0.058387 -1.000000 0.000000 0.000000 249 255 242
-1.233123 0.027767 -0.066387 -1.000000 0.000000 0.000000 249 255 242
-1.233123 0.011528 -0.071313 -1.000000 0.000000 0.000000 249 254 241
-1.233123 -0.005361 -0.072976 -1.000000 0.000000 0.000000 248 253 240
-1.233123 -0.022249 -0.071313 -1.000000 0.000000 0.000000 247 252 238
-1.233123 -0.038489 -0.066387 -1.000000 0.000000 0.000000 246 250 236
-1.233123 -0.053455 -0.058387 -1.000000 0.000000 0.000000 246 250 235
-1.233123 -0.053455 -0.058387 -1.000000 -0.000028 -0.000023 246 250 235
-1.233123 -0.066574 -0.047621 -1.000000 -0.000028 -0.000023 246 250 236
-1.233123 -0.077339 -0.034503 -1.000000 -0.000028 -0.000023 247 251 237
-1.233123 -0.077339 -0.034503 -1.000000 0.000000 0.000000 247 251 237
-1.233123 -0.085339 -0.019536 -1.000000 0.000000 0.000000 248 253 239
-1.233123 -0.090265 -0.003297 -1.000000 0.000000 0.000000 248 254 240
-1.233123 -0.091929 0.013591 -1.000000 0.000000 -0.000000 249 254 241
-1.233123 -0.090265 0.030480 -1.000000 0.000000 -0.000000 249 255 241
-1.233123 -0.085339 0.046720 -1.000000 0.000000 0.000000 249 255 242
-1.233123 -0.077339 0.061686 -1.000000 0.000000 0.000000 249 255 242
-1.233123 -0.077339 0.061686 -1.000000 0.000028 -0.000023 249 255 242
-1.233123 -0.066573 0.074804 -1.000000 0.000028 -0.000023 249 255 242
-1.233123 -0.053455 0.085570 -1.000000 0.000028 -0.000023 249 255 242
-1.233123 -0.053455 0.085570 -1.000000 0.000000 0.000000 249 255 242
-1.233123 -0.038489 0.093570 -1.000000 0.000000 0.000000 249 255 242
-1.233123 -0.022249 0.098496 -1.000000 0.000000 0.000000 249 255 242
-1.233123 -0.005361 0.100159 -1.000000 -0.000000 0.000000 249 254 241
-1.233123 0.011528 0.098495 -1.000000 -0.000000 0.000000 249 254 241
-1.233123 0.027767 0.093569 -1.000000 0.000000 0.000000 249 254 241
-1.233123 0.042734 0.085570 -1.000000 0.000000 0.000000 249 255 242
-1.233123 0.042734 0.085570 -1.000000 -0.000028 -0.000023 249 255 242
-1.233123 0.055852 0.074804 -1.000000 -0.000028 -0.000023 249 255 242
-1.233123 0.066617 0.061686 -1.000000 -0.000028 -0.000023 249 255 242
-1.233123 0.066617 0.061686 -1.000000 0.000000 0.000000 249 255 242
-1.233123 0.074617 0.046720 -1.000000 0.000000 0.000000 249 255 242
-1.233123 0.066617 -0.034503 -1.000000 -0.000004 0.000009 249 255 242
-1.233123 0.042733 -0.058387 -1.000000 -0.000004 0.000009 249 255 242
-1.233123 0.011528 -0.071313 -1.000000 -0.000004 0.000009 249 254 241
-1.233123 -0.053455 -0.058387 -1.000000 -0.000009 -0.000004 246 250 235
-1.233123 -0.077339 -0.034503 -1.000000 -0.000009 -0.000004 247 251 237
-1.233123 -0.090265 -0.003297 -1.000000 -0.000009 -0.000004 248 254 240
-1.233123 -0.077339 0.061686 -1.000000 -0.000004 0.000009 249 255 242
-1.233123 -0.053455 0.085570 -1.000000 -0.000004 0.000009 249 255 242
-1.233123 -0.022249 0.098496 -1.000000 -0.000004 0.000009 249 255 242
-1.233123 0.042734 0.085570 -1.000000 -0.000009 -0.000004 249 255 242
-1.233123 0.066617 0.061686 -1.000000 -0.000009 -0.000004 249 255 242
-1.233123 0.079543 0.030480 -1.000000 -0.000009 -0.000004 249 255 242
-1.233123 0.066617 -0.034503 -1.000000 0.000002 -0.000000 249 255 242
-1.233123 0.011528 -0.071313 -1.000000 0.000002 -0.000000 249 254 241
-1.233123 0.079543 0.030480 -1.000000 0.000002 -0.000000 249 255 242
-1.233123 0.011528 -0.071313 -1.000000 0.000000 0.000002 249 254 241
-1.233123 -0.053455 -0.058387 -1.000000 0.000000 0.000002 246 250 235
-1.233123 -0.090265 -0.003297 -1.000000 0.000000 0.000002 248 254 240
-1.233123 -0.090265 -0.003297 -1.000000 0.000002 -0.000000 248 254 240
-1.233123 -0.077339 0.061686 -1.000000 0.000002 -0.000000 249 255 242
-1.233123 -0.022249 0.098496 -1.000000 0.000002 -0.000000 249 255 242
-1.233123 -0.022249 0.098496 -1.000000 0.000000 0.000002 249 255 242
-1.233123 0.042734 0.085570 -1.000000 0.000000 0.000002 249 255 242
-1.233123 0.079543 0.030480 -1.000000 0.000000 0.000002 249 255 242
-1.233123 0.011528 -0.071313 -1.000000 -0.000000 0.000001 249 254 241
-1.233123 -0.090265 -0.003297 -1.000000 -0.000000 0.000001 248 254 240
-1.233123 0.079543 0.030480 -1.000000 -0.000000 0.000001 249 255 242
-1.233123 -0.022249 0.098496 -1.000000 -0.000000 0.000001 249 255 242
-1.233123 0.074617 -0.019536 -0.000000 0.881924 -0.471392 249 255 242
-0.766877 0.074617 -0.019537 -0.000000 0.881924 -0.471392 249 255 242
-0.766877 0.066617 -0.034503 -0.000000 0.881924 -0.471392 249 255 242
-1.233123 0.066617 -0.034503 -0.000000 0.881924 -0.471392 249 255 242
0.766877 0.042734 0.085570 0.000001 0.634402 0.773003 249 255 242
1.233123 0.042734 0.085569 0.000001 0.634402 0.773003 249 255 242
1.233123 0.055852 0.074803 0.000001 0.634402 0.773003 249 255 242
0.766877 0.055852 0.074804 0.000001 0.634402 0.773003 249 255 242
-1.233123 0.074617 0.046720 0.000000 0.956943 0.290276 249 255 242
-0.766877 0.074617 0.046719 0.000000 0.956943 0.290276 249 255 242
-0.766877 0.079543 0.030479 0.000000 0.956943 0.290276 249 255 242
-1.233123 0.079543 0.030480 0.000000 0.956943 0.290276 249 255 242
-1.233123 0.079543 -0.003297 -0.000000 0.956941 -0.290283 249 255 242
-0.766877 0.079543 -0.003297 -0.000000 0.956941 -0.290283 249 255 242
-0.766877 0.074617 -0.019537 -0.000000 0.956941 -0.290283 249 255 242
-1.233123 0.074617 -0.019536 -0.000000 0.956941 -0.290283 249 255 242
0.766877 0.055852 0.074804 0.000000 0.773011 0.634393 249 255 242
1.233123 0.055852 0.074803 0.000000 0.773011 0.634393 249 255 242
1.233123 0.066617 0.061686 0.000000 0.773011 0.634393 249 255 242
0.766877 0.066617 0.061686 0.000000 0.773011 0.634393 249 255 242
-1.233123 0.079543 0.030480 0.000000 0.995184 0.098022 249 255 242
-0.766877 0.079543 0.030479 0.000000 0.995184 0.098022 249 255 242
-0.766877 0.081207 0.013591 0.000000 0.995184 0.098022 249 255 242
-1.233123 0.081207 0.013591 0.000000 0.995184 0.098022 249 255 242
-1.233123 0.081207 0.013591 -0.000000 0.995184 -0.098022 249 255 242
-0.766877 0.081207 0.013591 -0.000000 0.995184 -0.098022 249 255 242
-0.766877 0.079543 -0.003297 -0.000000 0.995184 -0.098022 249 255 242
-1.233123 0.079543 -0.003297 -0.000000 0.995184 -0.098022 249 255 242
0.766877 0.066617 0.061686 0.000000 0.881917 0.471404 249 255 242
1.233123 0.066617 0.061686 0.000000 0.881917 0.471404 249 255 242
1.233123 0.074617 0.046719 0.000000 0.881917 0.471404 249 255 242
0.766877 0.074617 0.046720 0.000000 0.881917 0.471404 249 255 242
1.233123 0.079543 -0.003297 1.000000 -0.000000 0.000000 244 247 233
1.233123 0.081207 0.013591 1.000000 -0.000000 0.000000 243 246 231
1.233123 0.074617 -0.019537 1.000000 -0.000000 0.000000 245 248 234
1.233123 0.079543 0.030479 1.000000 0.000000 0.000000 242 244 229
1.233123 0.074617 0.046719 1.000000 0.000000 0.000000 240 241 225
1.233123 0.066617 0.061686 1.000000 0.000000 0.000000 238 237 220
1.233123 0.055852 0.074803 1.000000 0.000000 0.000000 235 232 214
1.233123 0.055852 0.074803 1.000000 -0.000017 -0.000032 235 232 214
1.233123 0.042734 0.085569 1.000000 -0.000017 -0.000032 231 225 207
1.233123 0.027767 0.093569 1.000000 -0.000017 -0.000032 226 218 198
1.233123 0.027767 0.093569 1.000000 0.000014 0.000070 226 218 198
1.233123 0.011528 0.098495 1.000000 0.000014 0.000070 221 209 188
1.233123 -0.005361 0.100159 1.000000 0.000014 0.000070 216 201 178
1.233123 -0.005361 0.100159 1.000000 0.000000 0.000000 216 201 178
1.233123 -0.022249 0.098495 1.000000 0.000000 0.000000 212 194 169
1.233123 -0.038489 0.093569 1.000000 0.000000 0.000000 209 189 164
1.233123 -0.038489 0.093569 1.000000 0.000017 -0.000032 209 189 164
1.233123 -0.053455 0.085569 1.000000 0.000017 -0.000032 208 187 162
1.233123 -0.066573 0.074804 1.000000 0.000017 -0.000032 210 190 165
1.233123 -0.066573 0.074804 1.000000 0.000000 0.000000 210 190 165
1.233123 -0.077339 0.061686 1.000000 0.000000 0.000000 214 196 172
1.233123 -0.085339 0.046719 1.000000 0.000000 0.000000 218 204 182
1.233123 -0.090265 0.030479 1.000000 0.000000 0.000000 223 213 192
1.233123 -0.091929 0.013591 1.000000 0.000000 0.000000 228 220 201
1.233123 -0.090265 -0.003297 1.000000 0.000000 0.000000 232 227 209
1.233123 -0.085339 -0.019537 1.000000 0.000000 0.000000 236 234 217
1.233123 -0.077339 -0.034503 1.000000 0.000000 0.000000 239 238 222
1.233123 -0.066574 -0.047621 1.000000 0.000000 0.000000 241 242 226
1.233123 -0.066574 -0.047621 1.000000 -0.000017 -0.000032 241 242 226
1.233123 -0.053455 -0.058387 1.000000 -0.000017 -0.000032 242 243 228
1.233123 -0.038489 -0.066387 1.000000 -0.000017 -0.000032 242 245 229
1.233123 -0.038489 -0.066387 1.000000 0.000000 0.000000 242 245 229
1.233123 -0.022249 -0.071313 1.000000 0.000000 0.000000 243 244 229
1.233123 -0.005361 -0.072977 1.000000 0.000000 0.000000 243 244 228
1.233123 0.011528 -0.071313 1.000000 0.000000 0.000000 243 245 229
1.233123 0.027767 -0.066387 1.000000 0.000000 0.000000 244 247 232
1.233123 0.027767 -0.066387 1.000000 0.000017 -0.000032 244 247 232
1.233123 0.042733 -0.058387 1.000000 0.000017 -0.000032 246 248 234
1.233123 0.055852 -0.047621 1.000000 0.000017 -0.000032 246 249 235
1.233123 0.055852 -0.047621 1.000000 0.000000 0.000000 246 249 235
1.233123 0.066617 -0.034503 1.000000 0.000000 0.000000 245 249 234
1.233123 0.074617 0.046719 1.000000 0.000008 0.000005 240 241 225
1.233123 0.055852 0.074803 1.000000 0.000008 0.000005 235 232 214
1.233123 0.027767 0.093569 1.000000 0.000008 0.000005 226 218 198
1.233123 0.027767 0.093569 1.000000 -0.000000 0.000000 226 218 198
1.233123 -0.038489 0.093569 1.000000 -0.000008 0.000005 209 189 164
1.233123 -0.066573 0.074804 1.000000 -0.000008 0.000005 210 190 165
1.233123 -0.085339 0.046719 1.000000 -0.000008 0.000005 218 204 182
1.233123 -0.085339 -0.019537 1.000000 0.000008 0.000005 236 234 217
1.233123 -0.066574 -0.047621 1.000000 0.000008 0.000005 241 242 226
1.233123 -0.038489 -0.066387 1.000000 0.000008 0.000005 242 245 229
1.233123 0.027767 -0.066387 1.000000 -0.000008 0.000005 244 247 232
1.233123 0.055852 -0.047621 1.000000 -0.000008 0.000005 246 249 235
1.233123 0.074617 -0.019537 1.000000 -0.000008 0.000005 245 248 234
1.233123 0.074617 0.046719 1.000000 0.000003 -0.000000 240 241 225
1.233123 0.027767 0.093569 1.000000 0.000003 -0.000000 226 218 198
1.233123 0.074617 -0.019537 1.000000 0.000003 -0.000000 245 248 234
1.233123 0.027767 0.093569 1.000000 0.000000 -0.000003 226 218 198
1.233123 -0.038489 0.093569 1.000000 0.000000 -0.000003 209 189 164
1.233123 -0.085339 0.046719 1.000000 0.000000 -0.000003 218 204 182
1.233123 -0.085339 0.046719 1.000000 0.000003 -0.000000 218 204 182
1.233123 -0.085339 -0.019537 1.000000 0.000003 -0.000000 236 234 217
1.233123 -0.038489 -0.066387 1.000000 0.000003 -0.000000 242 245 229
1.233123 -0.038489 -0.066387 1.000000 0.000000 -0.000003 242 245 229
1.233123 0.027767 -0.066387 1.000000 0.000000 -0.000003 244 247 232
1.233123 0.074617 -0.019537 1.000000 0.000000 -0.000003 245 248 234
1.233123 0.027767 0.093569 1.000000 -0.000001 -0.000001 226 218 198
1.233123 -0.085339 0.046719 1.000000 -0.000001 -0.000001 218 204 182
1.233123 0.074617 -0.019537 1.000000 -0.000001 -0.000001 245 248 234
1.233123 -0.038489 -0.066387 1.000000 -0.000001 -0.000001 242 245 229
0.766877 0.079543 0.030480 0.000000 0.995184 0.098022 249 255 242
1.233123 0.079543 0.030479 0.000000 0.995184 0.098022 242 244 229
1.233123 0.081207 0.013591 0.000000 0.995184 0.098022 243 246 231
0.766877 0.081207 0.013591 0.000000 0.995184 0.098022 249 255 242
0.766877 0.074617 0.046720 0.000000 0.956943 0.290276 249 255 242
1.233123 0.074617 0.046719 0.000000 0.956943 0.290276 240 241 225
1.233123 0.079543 0.030479 0.000000 0.956943 0.290276 242 244 229
0.766877 0.079543 0.030480 0.000000 0.956943 0.290276 249 255 242
-0.766877 0.079543 -0.003297 1.000000 -0.000000 0.000000 249 255 242
-0.766877 0.081207 0.013591 1.000000 -0.000000 0.000000 249 255 242
-0.766877 0.074617 -0.019537 1.000000 -0.000000 0.000000 249 255 242
-0.766877 0.079543 0.030479 1.000000 0.000000 0.000000 249 255 242
-0.766877 0.074617 0.046719 1.000000 0.000000 0.000000 249 255 242
-0.766877 0.066617 0.061686 1.000000 0.000000 0.000000 249 255 242
-0.766877 0.055852 0.074803 1.000000 0.000000 0.000000 249 255 242
-0.766877 0.055852 0.074803 1.000000 -0.000017 -0.000032 249 255 242
-0.766877 0.042734 0.085569 1.000000 -0.000017 -0.000032 248 254 241
-0.766877 0.027767 0.093569 1.000000 -0.000017 -0.000032 248 254 241
-0.766877 0.027767 0.093569 1.000000 0.000014 0.000070 248 254 241
-0.766877 0.011528 0.098495 1.000000 0.000014 0.000070 249 254 241
-0.766877 -0.005361 0.100159 1.000000 0.000014 0.000070 249 255 241
-0.766877 -0.005361 0.100159 1.000000 0.000000 0.000000 249 255 241
-0.766877 -0.022249 0.098495 1.000000 0.000000 0.000000 249 255 242
-0.766877 -0.038489 0.093569 1.000000 0.000000 0.000000 249 255 242
-0.766877 -0.038489 0.093569 1.000000 0.000017 -0.000032 249 255 242
-0.766877 -0.053455 0.085569 1.000000 0.000017 -0.000032 249 255 242
-0.766877 -0.066573 0.074804 1.000000 0.000017 -0.000032 249 255 242
-0.766877 -0.066573 0.074804 1.000000 0.000000 0.000000 249 255 242
-0.766877 -0.077339 0.061686 1.000000 0.000000 0.000000 249 255 242
-0.766877 -0.085339 0.046719 1.000000 0.000000 0.000000 249 255 242
-0.766877 -0.090265 0.030479 1.000000 0.000000 0.000000 249 255 242
-0.766877 -0.091929 0.013591 1.000000 0.000000 0.000000 249 255 242
-0.766877 -0.090265 -0.003297 1.000000 0.000000 0.000000 249 255 242
-0.766877 -0.085339 -0.019537 1.000000 0.000000 0.000000 249 255 242
-0.766877 -0.077339 -0.034503 1.000000 0.000000 0.000000 249 255 242
-0.766877 -0.066574 -0.047621 1.000000 0.000000 0.000000 249 255 242
-0.766877 -0.066574 -0.047621 1.000000 -0.000008 -0.000016 249 255 242
-0.766877 -0.053455 -0.058387 1.000000 -0.000008 -0.000016 249 255 242
-0.766877 -0.038489 -0.066387 1.000000 -0.000008 -0.000016 249 255 242
-0.766877 -0.038489 -0.066387 1.000000 0.000000 0.000000 249 255 242
-0.766877 -0.022249 -0.071313 1.000000 0.000000 0.000000 249 255 242
-0.766877 -0.005361 -0.072977 1.000000 0.000000 0.000000 249 255 242
-0.766877 0.011528 -0.071313 1.000000 0.000000 0.000000 249 255 242
-0.766877 0.027767 -0.066387 1.000000 0.000000 0.000000 249 255 242
-0.766877 0.027767 -0.066387 1.000000 0.000008 -0.000016 249 255 242
-0.766877 0.042733 -0.058387 1.000000 0.000008 -0.000016 249 255 242
-0.766877 0.055852 -0.047621 1.000000 0.000008 -0.000016 249 255 242
-0.766877 0.055852 -0.047621 1.000000 0.000000 0.000000 249 255 242
-0.766877 0.066617 -0.034503 1.000000 0.000000 0.000000 249 255 242
-0.766877 0.074617 0.046719 1.000000 0.000008 0.000005 249 255 242
-0.766877 0.055852 0.074803 1.000000 0.000008 0.000005 249 255 242
-0.766877 0.027767 0.093569 1.000000 0.000008 0.000005 248 254 241
-0.766877 0.027767 0.093569 1.000000 -0.000000 0.000000 248 254 241
-0.766877 -0.038489 0.093569 1.000000 -0.000008 0.000005 249 255 242
-0.766877 -0.066573 0.074804 1.000000 -0.000008 0.000005 249 255 242
-0.766877 -0.085339 0.046719 1.000000 -0.000008 0.000005 249 255 242
-0.766877 -0.085339 -0.019537 1.000000 0.000004 0.000003 249 255 242
-0.766877 -0.066574 -0.047621 1.000000 0.000004 0.000003 249 255 242
-0.766877 -0.038489 -0.066387 1.000000 0.000004 0.000003 249 255 242
-0.766877 0.027767 -0.066387 1.000000 -0.000004 0.000003 249 255 242
-0.766877 0.055852 -0.047621 1.000000 -0.000004 0.000003 249 255 242
-0.766877 0.074617 -0.019537 1.000000 -0.000004 0.000003 249 255 242
-0.766877 0.074617 0.046719 1.000000 0.000003 -0.000000 249 255 242
-0.766877 0.027767 0.093569 1.000000 0.000003 -0.000000 248 254 241
-0.766877 0.074617 -0.019537 1.000000 0.000003 -0.000000 249 255 242
-0.766877 0.027767 0.093569 1.000000 0.000000 -0.000003 248 254 241
-0.766877 -0.038489 0.093569 1.000000 0.000000 -0.000003 249 255 242
-0.766877 -0.085339 0.046719 1.000000 0.000000 -0.000003 249 255 242
-0.766877 -0.085339 0.046719 1.000000 0.000001 -0.000000 249 255 242
-0.766877 -0.085339 -0.019537 1.000000 0.000001 -0.000000 249 255 242
-0.766877 -0.038489 -0.066387 1.000000 0.000001 -0.000000 249 255 242
-0.766877 -0.038489 -0.066387 1.000000 0.000000 -0.000001 249 255 242
-0.766877 0.027767 -0.066387 1.000000 0.000000 -0.000001 249 255 242
-0.766877 0.074617 -0.019537 1.000000 0.000000 -0.000001 249 255 242
-0.766877 0.027767 0.093569 1.000000 -0.000001 -0.000001 248 254 241
-0.766877 -0.085339 0.046719 1.000000 -0.000001 -0.000001 249 255 242
-0.766877 0.074617 -0.019537 1.000000 -0.000001 -0.000001 249 255 242
-0.766877 -0.085339 0.046719 1.000000 -0.000000 -0.000001 249 255 242
0.766877 0.081207 0.013591 -1.000000 0.000000 0.000000 249 255 242
0.766877 0.079543 -0.003297 -1.000000 0.000000 0.000000 249 255 242
0.766877 0.079543 0.030480 -1.000000 0.000000 0.000000 249 255 242
0.766877 0.074617 -0.019536 -1.000000 0.000000 0.000000 249 255 242
0.766877 0.066617 -0.034503 -1.000000 0.000000 0.000000 249 255 242
0.766877 0.066617 -0.034503 -1.000000 0.000028 -0.000023 249 255 242
0.766877 0.055852 -0.047621 -1.000000 0.000028 -0.000023 249 255 242
0.766877 0.042733 -0.058387 -1.000000 0.000028 -0.000023 249 255 242
0.766877 0.042733 -0.058387 -1.000000 0.000000 0.000000 249 255 242
0.766877 0.027767 -0.066387 -1.000000 0.000000 0.000000 249 255 242
0.766877 0.011528 -0.071313 -1.000000 0.000000 0.000000 249 255 242
0.766877 -0.005361 -0.072976 -1.000000 0.000000 0.000000 249 255 242
0.766877 -0.022249 -0.071313 -1.000000 0.000000 0.000000 249 255 242
0.766877 -0.038489 -0.066387 -1.000000 0.000000 0.000000 249 255 242
0.766877 -0.053455 -0.058387 -1.000000 0.000000 0.000000 249 255 242
0.766877 -0.053455 -0.058387 -1.000000 -0.000028 -0.000023 249 255 242
0.766877 -0.066574 -0.047621 -1.000000 -0.000028 -0.000023 249 255 242
0.766877 -0.077339 -0.034503 -1.000000 -0.000028 -0.000023 249 255 242
0.766877 -0.077339 -0.034503 -1.000000 0.000000 0.000000 249 255 242
0.766877 -0.085339 -0.019536 -1.000000 0.000000 0.000000 249 255 242
0.766877 -0.090265 -0.003297 -1.000000 0.000000 0.000000 249 255 242
0.766877 -0.091929 0.013591 -1.000000 0.000000 -0.000000 249 255 242
0.766877 -0.090265 0.030480 -1.000000 0.000000 -0.000000 249 255 242
0.766877 -0.085339 0.046720 -1.000000 0.000000 0.000000 249 255 242
0.766877 -0.077339 0.061686 -1.000000 0.000000 0.000000 249 255 242
0.766877 -0.077339 0.061686 -1.000000 0.000014 -0.000011 249 255 242
0.766877 -0.066573 0.074804 -1.000000 0.000014 -0.000011 249 255 242
0.766877 -0.053455 0.085570 -1.000000 0.000014 -0.000011 249 255 242
0.766877 -0.053455 0.085570 -1.000000 0.000000 0.000000 249 255 242
0.766877 -0.038489 0.093570 -1.000000 0.000000 0.000000 249 255 242
0.766877 -0.022249 0.098496 -1.000000 0.000000 0.000000 249 255 242
0.766877 -0.005361 0.100159 -1.000000 -0.000000 0.000000 249 255 242
0.766877 0.011528 0.098495 -1.000000 -0.000000 0.000000 249 255 242
0.766877 0.027767 0.093569 -1.000000 0.000000 0.000000 249 255 242
0.766877 0.042734 0.085570 -1.000000 0.000000 0.000000 249 255 242
0.766877 0.042734 0.085570 -1.000000 -0.000014 -0.000011 249 255 242
0.766877 0.055852 0.074804 -1.000000 -0.000014 -0.000011 249 255 242
0.766877 0.066617 0.061686 -1.000000 -0.000014 -0.000011 249 255 242
0.766877 0.066617 0.061686 -1.000000 0.000000 0.000000 249 255 242
0.766877 0.074617 0.046720 -1.000000 0.000000 0.000000 249 255 242
0.766877 0.066617 -0.034503 -1.000000 -0.000004 0.000009 249 255 242
0.766877 0.042733 -0.058387 -1.000000 -0.000004 0.000009 249 255 242
0.766877 0.011528 -0.071313 -1.000000 -0.000004 0.000009 249 255 242
0.766877 -0.053455 -0.058387 -1.000000 -0.000009 -0.000004 249 255 242
0.766877 -0.077339 -0.034503 -1.000000 -0.000009 -0.000004 249 255 242
0.766877 -0.090265 -0.003297 -1.000000 -0.000009 -0.000004 249 255 242
0.766877 -0.077339 0.061686 -1.000000 -0.000002 0.000004 249 255 242
0.766877 -0.053455 0.085570 -1.000000 -0.000002 0.000004 249 255 242
0.766877 -0.022249 0.098496 -1.000000 -0.000002 0.000004 249 255 242
0.766877 0.042734 0.085570 -1.000000 -0.000004 -0.000002 249 255 242
0.766877 0.066617 0.061686 -1.000000 -0.000004 -0.000002 249 255 242
0.766877 0.079543 0.030480 -1.000000 -0.000004 -0.000002 249 255 242
0.766877 0.066617 -0.034503 -1.000000 0.000002 -0.000000 249 255 242
0.766877 0.011528 -0.071313 -1.000000 0.000002 -0.000000 249 255 242
0.766877 0.079543 0.030480 -1.000000 0.000002 -0.000000 249 255 242
0.766877 0.011528 -0.071313 -1.000000 0.000000 0.000002 249 255 242
0.766877 -0.053455 -0.058387 -1.000000 0.000000 0.000002 249 255 242
0.766877 -0.090265 -0.003297 -1.000000 0.000000 0.000002 249 255 242
0.766877 -0.090265 -0.003297 -1.000000 0.000001 -0.000000 249 255 242
0.766877 -0.077339 0.061686 -1.000000 0.000001 -0.000000 249 255 242
0.766877 -0.022249 0.098496 -1.000000 0.000001 -0.000000 249 255 242
0.766877 -0.022249 0.098496 -1.000000 0.000000 0.000001 249 255 242
0.766877 0.042734 0.085570 -1.000000 0.000000 0.000001 249 255 242
0.766877 0.079543 0.030480 -1.000000 0.000000 0.000001 249 255 242
0.766877 0.011528 -0.071313 -1.000000 -0.000000 0.000001 249 255 242
0.766877 -0.090265 -0.003297 -1.000000 -0.000000 0.000001 249 255 242
4 0 1 2 3
3 4 5 6
3 6 7 8
4 9 10 11 12
4 13 14 15 16
4 17 18 19 20
4 13 21 22 14
4 23 24 25 26
4 27 28 29 30
4 31 32 33 34
4 6 8 35 36
4 37 38 39 40
4 41 42 43 44
4 45 46 47 48
4 49 50 51 52
4 53 54 55 56
4 57 58 59 60
4 61 62 63 64
4 65 66 67 68
4 69 70 71 72
4 73 74 75 76
4 77 78 79 80
4 81 82 83 84
4 85 86 87 88
4 89 90 91 92
4 93 94 95 96
4 97 98 99 100
4 101 102 103 104
4 105 106 107 108
4 109 110 111 112
4 113 114 115 116
4 117 118 119 120
4 121 122 123 124
4 125 126 127 128
4 129 130 131 132
4 133 134 135 136
4 137 138 139 140
4 141 142 143 144
4 145 146 147 148
4 149 150 151 152
4 153 154 155 156
4 157 158 159 160
4 161 162 163 164
4 165 166 167 168
4 169 170 171 172
4 173 174 175 176
4 177 178 179 180
4 181 182 183 184
4 185 186 187 188
4 189 190 191 192
4 193 194 195 196
4 197 198 199 200
4 201 202 203 204
4 205 206 207 208
4 209 210 211 212
4 213 214 215 216
4 217 218 219 220
4 221 222 223 224
4 225 226 227 228
4 229 230 231 232
4 233 234 235 236
4 237 238 239 240
4 241 242 243 244
4 245 246 247 248
4 249 250 251 252
3 253 254 255
3 254 256 257
3 258 259 260
3 261 262 263
3 263 264 265
3 265 266 267
3 268 269 270
3 271 272 273
3 273 274 275
3 275 276 277
3 278 279 280
3 281 282 283
3 283 284 285
3 285 286 287
3 288 289 290
3 291 292 255
3 254 257 255
3 293 294 295
3 263 265 267
3 296 297 298
3 273 275 277
3 299 300 301
3 283 285 287
3 302 303 304
3 305 306 307
3 308 309 310
3 311 312 313
3 314 315 316
3 317 318 319
3 318 320 319
4 321 322 323 324
4 325 326 327 328
4 329 330 331 332
4 333 334 335 336
4 337 338 339 340
4 341 342 343 344
4 345 346 347 348
4 349 350 351 352
3 353 354 355
3 354 356 357
3 357 358 359
3 360 361 362
3 363 364 365
3 366 367 368
3 369 370 371
3 372 373 374
3 374 375 376
3 376 377 378
3 378 379 380
3 381 382 383
3 384 385 386
3 386 387 388
3 389 390 391
3 392 393 355
3 354 357 355
3 394 395 396
3 397 366 368
3 398 399 400
3 374 376 378
3 401 402 403
3 384 386 388
3 404 405 406
3 407 408 409
3 410 411 412
3 413 414 415
3 416 417 418
3 419 420 421
3 420 422 421
4 423 424 425 426
4 427 428 429 430
3 431 432 433
3 432 434 435
3 435 436 437
3 438 439 440
3 441 442 443
3 444 445 446
3 447 448 449
3 450 451 452
3 452 453 454
3 454 455 456
3 456 457 458
3 459 460 461
3 462 463 464
3 464 465 466
3 467 468 469
3 470 471 433
3 432 435 433
3 472 473 474
3 475 444 446
3 476 477 478
3 452 454 456
3 479 480 481
3 462 464 466
3 482 483 484
3 485 486 487
3 488 489 490
3 491 492 493
3 494 495 496
3 497 498 499
3 500 494 496
3 501 502 503
3 502 504 505
3 506 507 508
3 509 510 511
3 511 512 513
3 513 514 515
3 516 517 518
3 519 520 521
3 521 522 523
3 523 524 525
3 526 527 528
3 529 530 531
3 531 532 533
3 533 534 535
3 536 537 538
3 539 540 503
3 502 505 503
3 541 542 543
3 511 513 515
3 544 545 546
3 521 523 525
3 547 548 549
3 531 533 535
3 550 551 552
3 553 554 555
3 556 557 558
3 559 560 561
3 562 563 564
3 565 566 564
3 566 562 564
