ply
format ascii 1.0
comment Created by Blender 2.73 (sub 0) - www.blender.org, source file: 'shadow.blend'
element vertex 39
property float x
property float y
property float z
property float nx
property float ny
property float nz
property uchar red
property uchar green
property uchar blue
element face 26
property list uchar uint vertex_indices
end_header
0.000000 -0.347484 0.000000 0.000000 -0.000000 1.000000 0 0 0
-0.423078 -0.324319 0.000000 0.000000 -0.000000 1.000000 3 3 3
-0.404118 -0.945065 0.000000 0.000000 -0.000000 1.000000 7 7 7
0.000000 -1.012569 0.000000 0.000000 -0.000000 1.000000 0 0 0
-0.346387 -1.890129 0.000000 0.000000 -0.000000 1.000000 0 0 0
0.000000 -2.025139 0.000000 0.000000 -0.000000 1.000000 0 0 0
-0.846156 -0.277987 0.000000 0.000000 -0.000000 1.000000 0 0 0
-0.808237 -0.810055 0.000000 0.000000 -0.000000 1.000000 0 0 0
-0.635043 -1.485102 0.000000 0.000000 -0.000000 1.000000 0 0 0
0.404118 -0.945065 0.000000 0.000000 0.000000 1.000000 0 0 0
0.423078 -0.324319 0.000000 0.000000 0.000000 1.000000 1 1 1
0.808237 -0.774489 0.000000 0.000000 0.000000 1.000000 0 0 0
0.846156 -0.277987 0.000000 0.000000 0.000000 1.000000 0 0 0
0.346387 -1.890129 0.000000 0.000000 0.000000 1.000000 0 0 0
0.635043 -1.485102 0.000000 0.000000 0.000000 1.000000 0 0 0
0.000000 0.268484 0.000000 0.000000 0.000000 1.000000 0 0 0
0.425330 0.250585 0.000000 0.000000 0.000000 1.000000 1 1 1
0.404118 0.945065 0.000000 0.000000 0.000000 1.000000 0 0 0
0.000000 1.012569 0.000000 0.000000 0.000000 1.000000 0 0 0
0.346387 1.890129 0.000000 0.000000 0.000000 1.000000 0 0 0
0.000000 2.025139 0.000000 0.000000 0.000000 1.000000 0 0 0
0.850660 0.214787 0.000000 0.000000 0.000000 1.000000 0 0 0
0.808237 0.795679 0.000000 0.000000 0.000000 1.000000 0 0 0
0.635043 1.485102 0.000000 0.000000 0.000000 1.000000 0 0 0
-0.404118 0.945065 0.000000 -0.000000 0.000000 1.000000 0 0 0
-0.425330 0.250585 0.000000 -0.000000 0.000000 1.000000 0 0 0
-0.808237 0.810055 0.000000 -0.000000 0.000000 1.000000 0 0 0
-0.850660 0.214787 0.000000 -0.000000 0.000000 1.000000 0 0 0
-0.346387 1.890129 0.000000 -0.000000 0.000000 1.000000 0 0 0
-0.635043 1.485102 0.000000 -0.000000 0.000000 1.000000 0 0 0
0.432984 0.000000 0.000000 0.000000 0.000000 1.000000 3 3 3
0.865968 0.000000 0.000000 0.000000 0.000000 1.000000 0 0 0
0.000000 0.000000 0.000000 0.000000 0.000000 1.000000 0 0 0
-0.432984 0.000000 0.000000 0.000000 -0.000000 1.000000 0 0 0
-0.865968 0.000000 0.000000 0.000000 -0.000000 1.000000 0 0 0
1.392996 0.307662 0.000000 0.000000 0.000000 1.000000 0 0 0
1.414078 0.795877 0.000000 0.000000 0.000000 1.000000 0 0 0
1.387035 -0.801510 0.000000 0.000000 0.000000 1.000000 0 0 0
1.429868 -0.298343 0.000000 0.000000 0.000000 1.000000 0 0 0
4 0 1 2 3
4 3 2 4 5
4 1 6 7 2
4 2 7 8 4
4 0 3 9 10
4 10 9 11 12
4 3 5 13 9
4 9 13 14 11
4 15 16 17 18
4 18 17 19 20
4 16 21 22 17
4 17 22 23 19
4 15 18 24 25
4 25 24 26 27
4 18 20 28 24
4 24 28 29 26
4 30 10 12 31
4 32 0 10 30
4 33 34 6 1
4 32 33 1 0
4 33 25 27 34
4 32 15 25 33
4 30 31 21 16
4 32 30 16 15
4 22 21 35 36
4 12 11 37 38
