ply
format ascii 1.0
comment Created by Blender 2.71 (sub 0) - www.blender.org, source file: ''
element vertex 156
property float x
property float y
property float z
property float nx
property float ny
property float nz
property uchar red
property uchar green
property uchar blue
element face 41
property list uchar uint vertex_indices
end_header
0.785106 -0.479413 3.031662 -1.000000 -0.000000 0.000000 136 89 39
0.785106 -0.497355 3.391952 -1.000000 -0.000000 0.000000 135 88 38
0.785106 0.171341 3.505580 -1.000000 -0.000000 0.000000 82 66 50
0.785106 0.189283 3.145291 -1.000000 -0.000000 0.000000 74 63 52
0.785106 0.189283 3.145291 0.000000 0.167525 -0.985868 255 255 255
0.994224 0.189283 3.145291 0.000000 0.167525 -0.985868 255 255 255
0.994224 -0.479413 3.031662 0.000000 0.167525 -0.985868 255 255 255
0.785106 -0.479413 3.031662 0.000000 0.167525 -0.985868 255 255 255
0.994224 0.189283 3.145291 1.000000 -0.000000 0.000000 88 69 49
0.994224 0.171341 3.505580 1.000000 -0.000000 0.000000 110 78 43
0.994224 -0.497355 3.391952 1.000000 -0.000000 0.000000 135 88 38
0.994224 -0.479413 3.031662 1.000000 -0.000000 0.000000 135 88 38
0.785106 -0.497355 3.391952 0.000000 -0.167523 0.985868 135 88 38
0.994224 -0.497355 3.391952 0.000000 -0.167523 0.985868 135 88 38
0.994224 0.171341 3.505580 0.000000 -0.167523 0.985868 129 85 40
0.785106 0.171341 3.505580 0.000000 -0.167523 0.985868 85 67 50
0.785106 -0.497355 3.391952 0.000000 -0.998762 -0.049737 135 88 38
0.785106 -0.479413 3.031662 0.000000 -0.998762 -0.049737 136 89 39
0.994224 -0.479413 3.031662 0.000000 -0.998762 -0.049737 135 88 38
0.994224 -0.497355 3.391952 0.000000 -0.998762 -0.049737 135 88 38
0.556302 0.217517 3.635592 0.000000 -0.186827 0.982393 56 56 56
1.223029 0.217517 3.635592 0.000000 -0.186827 0.982393 56 56 56
1.223029 0.453319 3.680436 0.000000 -0.186827 0.982393 56 56 56
0.556302 0.453319 3.680436 0.000000 -0.186827 0.982393 48 47 48
1.223029 0.217517 3.635592 0.000000 -0.819198 0.573511 56 56 56
0.556302 0.217517 3.635592 0.000000 -0.819198 0.573511 56 56 56
0.624464 0.167374 3.563969 0.000000 -0.819198 0.573511 43 42 43
1.154866 0.167374 3.563969 0.000000 -0.819198 0.573511 43 42 43
0.556302 0.453319 3.680436 0.000000 0.975338 0.220718 48 47 48
1.223029 0.453319 3.680436 0.000000 0.975338 0.220718 56 56 56
1.121605 0.473780 3.590020 0.000000 0.975338 0.220718 56 56 56
0.657726 0.473780 3.590020 0.000000 0.975338 0.220718 49 49 49
1.223029 0.217517 3.635592 1.000000 0.000000 0.000000 56 56 56
1.223029 0.247995 3.023550 1.000000 0.000000 0.000000 62 58 60
1.223029 0.483797 3.068395 1.000000 0.000000 0.000000 63 63 63
1.223029 0.453319 3.680436 1.000000 0.000000 0.000000 56 56 56
1.223029 0.247995 3.023550 0.000000 0.186831 -0.982392 255 255 255
0.556302 0.247995 3.023550 0.000000 0.186831 -0.982392 255 255 255
0.556302 0.483797 3.068395 0.000000 0.186831 -0.982392 255 255 255
1.223029 0.483797 3.068395 0.000000 0.186831 -0.982392 255 255 255
0.556302 0.247995 3.023550 -1.000000 -0.000000 0.000000 59 57 58
0.556302 0.217517 3.635592 -1.000000 -0.000000 0.000000 56 56 56
0.556302 0.453319 3.680436 -1.000000 -0.000000 0.000000 48 47 48
0.556302 0.483797 3.068395 -1.000000 -0.000000 0.000000 56 56 56
1.121605 0.473780 3.590020 0.000000 0.998762 0.049735 56 56 56
1.121605 0.494985 3.164190 0.000000 0.998762 0.049735 56 56 56
0.657726 0.494985 3.164190 0.000000 0.998762 0.049735 56 56 56
0.657726 0.473780 3.590020 0.000000 0.998762 0.049735 56 56 56
1.223029 0.453319 3.680436 0.155243 0.986654 0.049133 56 56 56
1.223029 0.483797 3.068395 0.155243 0.986654 0.049133 56 56 56
1.121605 0.494985 3.164190 0.155243 0.986654 0.049133 56 56 56
1.121605 0.473780 3.590020 0.155243 0.986654 0.049133 56 56 56
1.223029 0.483797 3.068395 0.000000 0.993249 -0.115999 56 56 56
0.556302 0.483797 3.068395 0.000000 0.993249 -0.115999 56 56 56
0.657726 0.494985 3.164190 0.000000 0.993249 -0.115999 56 56 56
1.121605 0.494985 3.164190 0.000000 0.993249 -0.115999 56 56 56
0.556302 0.483797 3.068395 -0.155241 0.986654 0.049133 56 56 56
0.556302 0.453319 3.680436 -0.155241 0.986654 0.049133 48 47 48
0.657726 0.473780 3.590020 -0.155241 0.986654 0.049133 49 49 49
0.657726 0.494985 3.164190 -0.155241 0.986654 0.049133 56 56 56
1.429538 0.953025 0.000000 0.000000 0.000000 -1.000000 64 44 22
1.429538 -0.953025 0.000000 0.000000 0.000000 -1.000000 64 44 22
-1.429538 -0.953025 0.000000 0.000000 0.000000 -1.000000 64 44 22
-1.429537 0.953025 0.000000 0.000000 0.000000 -1.000000 64 44 22
-1.499999 1.000000 3.030586 0.000000 0.000000 1.000000 88 61 30
-1.500000 -1.000000 3.030586 0.000000 0.000000 1.000000 97 68 33
-1.460985 -0.973990 3.030586 0.000000 0.000000 1.000000 83 58 28
-1.460985 0.973991 3.030586 0.000000 0.000000 1.000000 93 65 32
1.500000 1.000000 2.779882 1.000000 -0.000001 0.000000 64 44 22
1.500000 1.000000 3.030586 1.000000 -0.000001 0.000000 64 44 22
1.499998 -1.000000 3.030586 1.000000 -0.000001 0.000000 64 44 22
1.499998 -1.000000 2.779882 1.000000 -0.000001 0.000000 64 44 22
1.499998 -1.000000 2.779882 -0.000000 -1.000000 0.000000 76 53 26
1.499998 -1.000000 3.030586 -0.000000 -1.000000 0.000000 98 69 34
-1.500000 -1.000000 3.030586 -0.000000 -1.000000 0.000000 97 68 33
-1.500000 -1.000000 2.779882 -0.000000 -1.000000 0.000000 79 55 27
-1.500000 -1.000000 2.779882 -1.000000 0.000000 0.000000 64 44 22
-1.500000 -1.000000 3.030586 -1.000000 0.000000 0.000000 64 44 22
-1.499999 1.000000 3.030586 -1.000000 0.000000 0.000000 64 44 22
-1.499999 1.000000 2.779882 -1.000000 0.000000 0.000000 64 44 22
1.429538 0.953024 2.753309 0.000000 1.000000 0.000000 64 44 22
1.429538 0.953025 0.000000 0.000000 1.000000 0.000000 99 69 34
-1.429537 0.953025 0.000000 0.000000 1.000000 0.000000 99 69 34
-1.429537 0.953025 2.753309 0.000000 1.000000 0.000000 64 44 22
-1.460985 0.973991 3.030586 1.000000 0.000000 -0.000000 93 65 32
-1.460985 -0.973990 3.030586 1.000000 0.000000 -0.000000 83 58 28
-1.460985 -0.973990 2.983551 1.000000 0.000000 -0.000000 84 59 29
-1.460985 0.973991 2.983551 1.000000 0.000000 -0.000000 97 63 28
1.499998 -1.000000 3.030586 0.000000 0.000000 1.000000 98 69 34
1.460984 -0.973991 3.030586 0.000000 0.000000 1.000000 89 62 30
1.500000 1.000000 3.030586 0.000000 -0.000000 1.000000 82 57 28
1.460985 0.973990 3.030586 0.000000 -0.000000 1.000000 69 48 24
1.460985 0.973990 2.983551 0.000000 -0.000000 1.000000 68 47 23
-1.460985 0.973991 2.983551 0.000000 -0.000000 1.000000 105 63 25
-1.460985 -0.973990 2.983551 0.000000 -0.000000 1.000000 84 59 29
1.460984 -0.973991 2.983551 0.000000 -0.000000 1.000000 88 61 30
-1.460985 -0.973990 3.030586 0.000000 1.000000 0.000000 92 75 56
1.460984 -0.973991 3.030586 0.000000 1.000000 0.000000 64 44 22
1.460984 -0.973991 2.983551 0.000000 1.000000 0.000000 64 44 22
-1.460985 -0.973990 2.983551 0.000000 1.000000 0.000000 116 101 85
1.460985 0.973990 3.030586 -0.000000 -1.000000 0.000000 69 48 24
-1.460985 0.973991 3.030586 -0.000000 -1.000000 0.000000 93 65 32
-1.460985 0.973991 2.983551 -0.000000 -1.000000 0.000000 105 63 25
1.460985 0.973990 2.983551 -0.000000 -1.000000 0.000000 68 47 23
1.460984 -0.973991 3.030586 -1.000000 0.000001 0.000000 89 62 30
1.460985 0.973990 3.030586 -1.000000 0.000001 0.000000 69 48 24
1.460985 0.973990 2.983551 -1.000000 0.000001 0.000000 68 47 23
1.460984 -0.973991 2.983551 -1.000000 0.000001 0.000000 88 61 30
1.429538 0.953024 2.753309 0.352864 -0.000000 -0.935674 64 44 22
1.500000 1.000000 2.779882 0.352864 -0.000000 -0.935674 64 44 22
1.499998 -1.000000 2.779882 0.352864 -0.000000 -0.935674 64 44 22
1.429536 -0.953025 2.753309 0.352864 -0.000000 -0.935674 64 44 22
1.429536 -0.953025 2.753309 -0.000000 -0.492361 -0.870391 64 44 22
1.499998 -1.000000 2.779882 -0.000000 -0.492361 -0.870391 64 44 22
-1.500000 -1.000000 2.779882 -0.000000 -0.492361 -0.870391 64 44 22
-1.429538 -0.953024 2.753309 -0.000000 -0.492361 -0.870391 64 44 22
-1.429538 -0.953024 2.753309 -0.352864 0.000000 -0.935675 64 44 22
-1.500000 -1.000000 2.779882 -0.352864 0.000000 -0.935675 64 44 22
-1.499999 1.000000 2.779882 -0.352864 0.000000 -0.935675 64 44 22
-1.429537 0.953025 2.753309 -0.352864 0.000000 -0.935675 64 44 22
1.500000 1.000000 3.030586 -0.000000 1.000000 0.000000 70 51 29
1.500000 1.000000 2.779882 -0.000000 1.000000 0.000000 64 44 22
-1.499999 1.000000 2.779882 -0.000000 1.000000 0.000000 64 44 22
-1.499999 1.000000 3.030586 -0.000000 1.000000 0.000000 70 51 30
1.500000 1.000000 2.779882 0.000000 0.492365 -0.870389 64 44 22
1.429538 0.953024 2.753309 0.000000 0.492365 -0.870389 64 44 22
-1.429537 0.953025 2.753309 0.000000 0.492365 -0.870389 64 44 22
-1.499999 1.000000 2.779882 0.000000 0.492365 -0.870389 64 44 22
1.429538 0.953025 0.000000 1.000000 -0.000001 0.000000 99 69 34
1.429538 0.953024 2.753309 1.000000 -0.000001 0.000000 64 44 22
1.429536 -0.953025 2.753309 1.000000 -0.000001 0.000000 64 44 22
1.429538 -0.953025 0.000000 1.000000 -0.000001 0.000000 99 69 34
1.429538 -0.953025 0.000000 -0.000000 -1.000000 0.000000 99 69 34
1.429536 -0.953025 2.753309 -0.000000 -1.000000 0.000000 65 44 22
-1.429538 -0.953024 2.753309 -0.000000 -1.000000 0.000000 66 45 23
-1.429538 -0.953025 0.000000 -0.000000 -1.000000 0.000000 99 69 34
-1.429538 -0.953025 0.000000 -1.000000 0.000001 -0.000000 99 69 34
-1.429538 -0.953024 2.753309 -1.000000 0.000001 -0.000000 64 44 22
-1.429537 0.953025 2.753309 -1.000000 0.000001 -0.000000 64 44 22
-1.429537 0.953025 0.000000 -1.000000 0.000001 -0.000000 99 69 34
0.624464 0.167374 3.563969 0.000000 -0.998762 -0.049736 43 42 43
0.624464 0.191620 3.077072 0.000000 -0.998762 -0.049736 64 59 61
1.154866 0.191620 3.077072 0.000000 -0.998762 -0.049736 64 59 61
1.154866 0.167374 3.563969 0.000000 -0.998762 -0.049736 43 42 43
1.223029 0.247995 3.023550 0.618437 -0.784862 -0.039084 64 59 61
1.223029 0.217517 3.635592 0.618437 -0.784862 -0.039084 56 56 56
1.154866 0.167374 3.563969 0.618437 -0.784862 -0.039084 43 42 43
1.154866 0.191620 3.077072 0.618437 -0.784862 -0.039084 64 59 61
0.556302 0.247995 3.023550 0.000000 -0.688519 -0.725218 68 63 65
1.223029 0.247995 3.023550 0.000000 -0.688519 -0.725218 64 59 61
1.154866 0.191620 3.077072 0.000000 -0.688519 -0.725218 64 59 61
0.624464 0.191620 3.077072 0.000000 -0.688519 -0.725218 65 60 62
0.556302 0.217517 3.635592 -0.618437 -0.784862 -0.039084 56 56 56
0.556302 0.247995 3.023550 -0.618437 -0.784862 -0.039084 64 59 61
0.624464 0.191620 3.077072 -0.618437 -0.784862 -0.039084 64 59 61
0.624464 0.167374 3.563969 -0.618437 -0.784862 -0.039084 43 42 43
4 0 1 2 3
4 4 5 6 7
4 8 9 10 11
4 12 13 14 15
4 16 17 18 19
4 20 21 22 23
4 24 25 26 27
4 28 29 30 31
4 32 33 34 35
4 36 37 38 39
4 40 41 42 43
4 44 45 46 47
4 48 49 50 51
4 52 53 54 55
4 56 57 58 59
4 60 61 62 63
4 64 65 66 67
4 68 69 70 71
4 72 73 74 75
4 76 77 78 79
4 80 81 82 83
4 84 85 86 87
4 65 88 89 66
4 90 64 67 91
4 88 90 91 89
4 92 93 94 95
4 96 97 98 99
4 100 101 102 103
4 104 105 106 107
4 108 109 110 111
4 112 113 114 115
4 116 117 118 119
4 120 121 122 123
4 124 125 126 127
4 128 129 130 131
4 132 133 134 135
4 136 137 138 139
4 140 141 142 143
4 144 145 146 147
4 148 149 150 151
4 152 153 154 155
