ply
format ascii 1.0
comment Created by Blender 2.71 (sub 0) - www.blender.org, source file: 'wall.blend'
element vertex 191
property float x
property float y
property float z
property float nx
property float ny
property float nz
property uchar red
property uchar green
property uchar blue
element face 53
property list uchar uint vertex_indices
end_header
20.741188 -0.304879 0.189526 0.784582 -0.327340 -0.526574 107 54 0
20.741188 0.000023 -0.000015 0.784582 -0.327340 -0.526574 107 54 0
24.004774 2.180310 3.507291 0.784582 -0.327340 -0.526574 107 54 0
24.004774 1.875407 3.696831 0.784582 -0.327340 -0.526574 107 54 0
-12.819263 1.875370 3.696854 0.000001 -0.849278 0.527947 114 57 0
-24.004774 1.875361 3.696859 0.000001 -0.849278 0.527947 107 54 0
-20.741188 -0.304925 0.189554 0.000001 -0.849278 0.527947 99 50 0
-12.819263 -0.304917 0.189549 0.000001 -0.849278 0.527947 103 52 0
-12.819263 -0.000015 0.000009 0.000000 -0.527947 -0.849278 107 54 0
-12.819263 -0.304917 0.189549 0.000000 -0.527947 -0.849278 107 54 0
-20.741188 -0.304925 0.189554 0.000000 -0.527947 -0.849278 99 50 0
-20.741188 -0.000022 0.000014 0.000000 -0.527947 -0.849278 99 50 0
23.861610 22.664295 36.458691 0.000000 0.527952 0.849274 107 54 0
23.861610 22.359396 36.648232 0.000000 0.527952 0.849274 107 54 0
44.659271 22.359402 36.648228 0.000000 0.527952 0.849274 107 54 0
44.659271 22.664301 36.458687 0.000000 0.527952 0.849274 107 54 0
27.200157 4.537414 7.299031 0.813187 -0.307266 -0.494282 107 54 0
27.200157 4.232511 7.488572 0.813187 -0.307266 -0.494282 107 54 0
24.004774 1.875407 3.696831 0.813187 -0.307266 -0.494282 107 54 0
24.004774 2.180310 3.507291 0.813187 -0.307266 -0.494282 107 54 0
-12.819263 4.959384 8.657935 0.000001 -0.849278 0.527947 115 58 0
-27.200157 4.232465 7.488600 0.000001 -0.849278 0.527947 107 54 0
44.659271 22.664301 36.458687 0.891376 -0.239302 -0.384945 107 54 0
44.659271 22.359402 36.648228 0.891376 -0.239302 -0.384945 107 54 0
27.200157 4.232511 7.488572 0.891376 -0.239302 -0.384945 107 54 0
27.200157 4.537414 7.299031 0.891376 -0.239302 -0.384945 107 54 0
-23.708021 22.359365 36.648254 0.000001 -0.849277 0.527947 107 54 0
-44.659271 22.359352 36.648254 0.000001 -0.849277 0.527947 115 58 0
-27.200157 4.232465 7.488600 0.000001 -0.849277 0.527947 107 54 0
-12.819263 4.959384 8.657935 0.000001 -0.849277 0.527947 115 58 0
12.902311 -0.304888 0.189531 0.000001 -0.849278 0.527946 99 50 0
20.741188 -0.304879 0.189526 0.000001 -0.849278 0.527946 99 50 0
24.004774 1.875407 3.696831 0.000001 -0.849278 0.527946 107 54 0
12.902311 1.875399 3.696836 0.000001 -0.849278 0.527946 109 54 0
20.741188 0.000023 -0.000015 -0.000000 -0.527946 -0.849278 99 50 0
20.741188 -0.304879 0.189526 -0.000000 -0.527946 -0.849278 99 50 0
12.902311 -0.304888 0.189531 -0.000000 -0.527946 -0.849278 104 52 0
12.902311 0.000015 -0.000009 -0.000000 -0.527946 -0.849278 105 53 0
11.400805 22.664289 36.458698 -0.000000 0.527943 0.849280 107 54 0
11.400806 22.359383 36.648235 -0.000000 0.527943 0.849280 107 54 0
23.861610 22.359396 36.648232 -0.000000 0.527943 0.849280 107 54 0
23.861610 22.664295 36.458691 -0.000000 0.527943 0.849280 107 54 0
27.200157 4.232511 7.488572 0.000001 -0.849278 0.527946 107 54 0
12.902311 4.959414 8.657918 0.000001 -0.849278 0.527946 115 58 0
44.659271 22.359402 36.648228 0.000001 -0.849277 0.527947 107 54 0
23.861610 22.359396 36.648232 0.000001 -0.849277 0.527947 107 54 0
12.902311 4.959414 8.657918 0.000001 -0.849277 0.527947 115 58 0
27.200157 4.232511 7.488572 0.000001 -0.849277 0.527947 107 54 0
6.164579 1.875391 3.696841 0.000001 -0.849278 0.527946 115 58 0
6.164579 -0.304896 0.189536 0.000001 -0.849278 0.527946 99 50 0
12.902311 0.000015 -0.000009 0.000000 -0.527946 -0.849278 106 53 0
12.902311 -0.304888 0.189531 0.000000 -0.527946 -0.849278 106 54 0
6.164579 -0.304896 0.189536 0.000000 -0.527946 -0.849278 100 51 1
6.164577 0.000007 -0.000004 0.000000 -0.527946 -0.849278 114 69 22
-6.257679 4.959392 8.657931 -0.000000 0.527946 0.849278 115 58 0
-12.819263 4.959384 8.657935 -0.000000 0.527946 0.849278 115 58 0
-12.819263 4.665693 8.840506 -0.000000 0.527946 0.849278 115 58 0
-6.257679 4.665700 8.840502 -0.000000 0.527946 0.849278 115 58 0
11.400806 22.359383 36.648235 0.000001 -0.849277 0.527947 107 54 0
6.164579 4.959407 8.657923 0.000001 -0.849277 0.527947 115 58 0
-11.572991 22.664274 36.458702 -0.000000 0.527945 0.849279 107 54 0
-11.572989 22.359371 36.648247 -0.000000 0.527945 0.849279 107 54 0
11.400806 22.359383 36.648235 -0.000000 0.527945 0.849279 107 54 0
11.400805 22.664289 36.458698 -0.000000 0.527945 0.849279 107 54 0
-6.257679 1.875377 3.696850 0.000001 -0.849278 0.527946 115 58 0
-6.257679 -0.304910 0.189545 0.000001 -0.849278 0.527946 107 54 0
6.164577 0.000007 -0.000004 -0.000000 -0.527946 -0.849278 154 118 80
6.164579 -0.304896 0.189536 -0.000000 -0.527946 -0.849278 116 67 15
-6.257679 -0.304910 0.189545 -0.000000 -0.527946 -0.849278 107 54 0
-6.257680 -0.000007 0.000004 -0.000000 -0.527946 -0.849278 107 54 0
6.164579 4.959407 8.657923 0.000001 -0.849278 0.527946 115 58 0
-6.257679 4.959392 8.657931 0.000001 -0.849278 0.527946 115 58 0
-11.572989 22.359371 36.648247 0.000001 -0.849277 0.527947 107 54 0
-6.257679 4.959392 8.657931 0.000001 -0.849277 0.527947 115 58 0
-23.708021 22.664268 36.458710 0.000000 0.527955 0.849272 108 55 1
-23.708021 22.359365 36.648254 0.000000 0.527955 0.849272 108 56 2
-11.572989 22.359371 36.648247 0.000000 0.527955 0.849272 107 54 0
-11.572991 22.664274 36.458702 0.000000 0.527955 0.849272 107 54 0
-12.819263 1.875370 3.696854 0.000001 -0.849278 0.527946 114 57 0
-12.819263 -0.304917 0.189549 0.000001 -0.849278 0.527946 103 52 0
-6.257680 -0.000007 0.000004 0.000000 -0.527946 -0.849278 109 57 3
-12.819263 -0.304917 0.189549 0.000000 -0.527946 -0.849278 103 52 0
-12.819263 -0.000015 0.000009 0.000000 -0.527946 -0.849278 106 54 0
-12.819263 4.959384 8.657935 -1.000000 0.000000 -0.000000 113 63 12
-12.819263 1.875370 3.696854 -1.000000 0.000000 -0.000000 107 54 0
-12.819263 1.581678 3.879426 -1.000000 0.000000 -0.000000 107 54 0
-12.819263 4.665693 8.840506 -1.000000 0.000000 -0.000000 147 108 68
-44.659271 22.664259 36.458717 -0.000000 0.527945 0.849279 115 58 0
-44.659271 22.359352 36.648254 -0.000000 0.527945 0.849279 115 58 0
-23.708021 22.359365 36.648254 -0.000000 0.527945 0.849279 108 55 2
-23.708021 22.664268 36.458710 -0.000000 0.527945 0.849279 108 55 1
-24.004774 1.875361 3.696859 -0.784582 -0.327340 -0.526574 107 54 0
-24.004774 2.180264 3.507319 -0.784582 -0.327340 -0.526574 107 54 0
-20.741188 -0.000022 0.000014 -0.784582 -0.327340 -0.526574 99 50 0
-20.741188 -0.304925 0.189554 -0.784582 -0.327340 -0.526574 99 50 0
-27.200157 4.232465 7.488600 -0.813187 -0.307266 -0.494281 107 54 0
-27.200157 4.537367 7.299059 -0.813187 -0.307266 -0.494281 107 54 0
-24.004774 2.180264 3.507319 -0.813187 -0.307266 -0.494281 107 54 0
-24.004774 1.875361 3.696859 -0.813187 -0.307266 -0.494281 107 54 0
-44.659271 22.359352 36.648254 -0.891377 -0.239296 -0.384948 107 54 0
-44.659271 22.664259 36.458717 -0.891377 -0.239296 -0.384948 107 54 0
-27.200157 4.537367 7.299059 -0.891377 -0.239296 -0.384948 124 79 30
-27.200157 4.232465 7.488600 -0.891377 -0.239296 -0.384948 109 56 2
-6.257679 4.665700 8.840502 0.000001 -0.849276 0.527949 115 58 0
-12.819263 4.665693 8.840506 0.000001 -0.849276 0.527949 115 58 0
-12.592546 4.559134 8.669089 0.000001 -0.849276 0.527949 115 58 0
-6.484395 4.559140 8.669086 0.000001 -0.849276 0.527949 115 58 0
-12.819263 4.665693 8.840506 0.000000 -0.849278 0.527947 115 58 0
-12.819263 1.581678 3.879426 0.000000 -0.849278 0.527947 112 56 0
-12.592546 1.688238 4.050841 0.000000 -0.849278 0.527947 114 57 0
-12.592546 4.559134 8.669089 0.000000 -0.849278 0.527947 115 58 0
-12.819263 1.875370 3.696854 -0.000000 -0.527946 -0.849278 110 58 5
-6.257679 1.875377 3.696850 -0.000000 -0.527946 -0.849278 107 54 0
-6.257679 1.581685 3.879420 -0.000000 -0.527946 -0.849278 107 54 0
-12.819263 1.581678 3.879426 -0.000000 -0.527946 -0.849278 108 55 1
-6.257679 1.875377 3.696850 1.000000 -0.000000 0.000000 115 58 0
-6.257679 4.959392 8.657931 1.000000 -0.000000 0.000000 115 58 0
-6.257679 4.665700 8.840502 1.000000 -0.000000 0.000000 115 58 0
-6.257679 1.581685 3.879420 1.000000 -0.000000 0.000000 115 58 0
6.164579 4.959407 8.657923 -1.000000 0.000000 -0.000000 115 58 0
6.164579 1.875391 3.696841 -1.000000 0.000000 -0.000000 115 58 0
6.164579 1.581700 3.879412 -1.000000 0.000000 -0.000000 115 58 0
6.164579 4.665715 8.840493 -1.000000 0.000000 -0.000000 115 58 0
12.902311 4.959414 8.657918 0.000000 0.527945 0.849279 115 58 0
6.164579 4.959407 8.657923 0.000000 0.527945 0.849279 115 58 0
6.164579 4.665715 8.840493 0.000000 0.527945 0.849279 115 58 0
12.902313 4.665722 8.840488 0.000000 0.527945 0.849279 115 58 0
6.164579 1.875391 3.696841 0.000000 -0.527946 -0.849278 107 54 0
12.902311 1.875399 3.696836 0.000000 -0.527946 -0.849278 107 54 0
12.902313 1.581707 3.879407 0.000000 -0.527946 -0.849278 107 54 0
6.164579 1.581700 3.879412 0.000000 -0.527946 -0.849278 107 54 0
12.902311 1.875399 3.696836 1.000000 0.000005 -0.000003 107 54 0
12.902311 4.959414 8.657918 1.000000 0.000005 -0.000003 107 54 0
12.902313 4.665722 8.840488 1.000000 0.000005 -0.000003 107 54 0
12.902313 1.581707 3.879407 1.000000 0.000005 -0.000003 107 54 0
-6.484395 4.559140 8.669086 -0.000000 -0.527946 -0.849278 107 54 0
-12.592546 4.559134 8.669089 -0.000000 -0.527946 -0.849278 107 54 0
-12.590033 5.157728 8.296979 -0.000000 -0.527946 -0.849278 107 54 0
-6.481882 5.157735 8.296974 -0.000000 -0.527946 -0.849278 107 54 0
-12.592546 4.559134 8.669089 0.999994 -0.003029 0.001883 115 58 0
-12.592546 1.688238 4.050841 0.999994 -0.003029 0.001883 114 57 0
-12.590033 2.286832 3.678730 0.999994 -0.003029 0.001883 115 58 0
-12.590033 5.157728 8.296979 0.999994 -0.003029 0.001883 115 58 0
-12.819263 1.581678 3.879426 0.000001 -0.849278 0.527946 112 56 0
-6.257679 1.581685 3.879420 0.000001 -0.849278 0.527946 115 58 0
-6.484395 1.688245 4.050837 0.000001 -0.849278 0.527946 115 58 0
-12.592546 1.688238 4.050841 0.000001 -0.849278 0.527946 114 57 0
-6.257679 1.581685 3.879420 0.000003 -0.849278 0.527946 115 58 0
-6.257679 4.665700 8.840502 0.000003 -0.849278 0.527946 115 58 0
-6.484395 4.559140 8.669086 0.000003 -0.849278 0.527946 115 58 0
-6.484395 1.688245 4.050837 0.000003 -0.849278 0.527946 115 58 0
6.164579 4.665715 8.840493 0.000001 -0.849278 0.527946 115 58 0
6.164579 1.581700 3.879412 0.000001 -0.849278 0.527946 115 58 0
6.397382 1.688259 4.050828 0.000001 -0.849278 0.527946 115 58 0
6.397382 4.559155 8.669076 0.000001 -0.849278 0.527946 115 58 0
12.902313 4.665722 8.840488 0.000001 -0.849277 0.527947 115 58 0
6.164579 4.665715 8.840493 0.000001 -0.849277 0.527947 115 58 0
6.397382 4.559155 8.669076 0.000001 -0.849277 0.527947 115 58 0
12.669508 4.559162 8.669072 0.000001 -0.849277 0.527947 115 58 0
6.164579 1.581700 3.879412 0.000001 -0.849278 0.527945 115 58 0
12.902313 1.581707 3.879407 0.000001 -0.849278 0.527945 107 54 0
12.669508 1.688266 4.050823 0.000001 -0.849278 0.527945 112 55 0
6.397382 1.688259 4.050828 0.000001 -0.849278 0.527945 115 58 0
12.902313 1.581707 3.879407 0.000002 -0.849278 0.527946 107 54 0
12.902313 4.665722 8.840488 0.000002 -0.849278 0.527946 115 58 0
12.669508 4.559162 8.669072 0.000002 -0.849278 0.527946 115 58 0
12.669508 1.688266 4.050823 0.000002 -0.849278 0.527946 112 55 0
-12.592546 1.688238 4.050841 0.000000 0.527947 0.849277 114 57 0
-6.484395 1.688245 4.050837 0.000000 0.527947 0.849277 115 58 0
-6.481882 2.286839 3.678725 0.000000 0.527947 0.849277 115 58 0
-12.590033 2.286832 3.678730 0.000000 0.527947 0.849277 115 58 0
-6.484395 1.688245 4.050837 -0.999994 0.003028 -0.001882 107 54 0
-6.484395 4.559140 8.669086 -0.999994 0.003028 -0.001882 107 54 0
-6.481882 5.157735 8.296974 -0.999994 0.003028 -0.001882 107 54 0
-6.481882 2.286839 3.678725 -0.999994 0.003028 -0.001882 107 54 0
6.397382 4.559155 8.669076 0.999994 -0.003028 0.001882 107 54 0
6.397382 1.688259 4.050828 0.999994 -0.003028 0.001882 107 54 0
6.399895 2.286853 3.678716 0.999994 -0.003028 0.001882 107 54 0
6.399895 5.157750 8.296966 0.999994 -0.003028 0.001882 107 54 0
12.669508 4.559162 8.669072 0.000000 -0.527946 -0.849278 107 54 0
6.397382 4.559155 8.669076 0.000000 -0.527946 -0.849278 107 54 0
6.399895 5.157750 8.296966 0.000000 -0.527946 -0.849278 107 54 0
12.672023 5.157757 8.296961 0.000000 -0.527946 -0.849278 107 54 0
6.397382 1.688259 4.050828 -0.000000 0.527947 0.849277 115 58 0
12.669508 1.688266 4.050823 -0.000000 0.527947 0.849277 112 55 0
12.672023 2.286861 3.678712 -0.000000 0.527947 0.849277 114 57 0
6.399895 2.286853 3.678716 -0.000000 0.527947 0.849277 115 58 0
12.669508 1.688266 4.050823 -0.999994 0.003030 -0.001884 112 55 0
12.669508 4.559162 8.669072 -0.999994 0.003030 -0.001884 115 58 0
12.672023 5.157757 8.296961 -0.999994 0.003030 -0.001884 115 58 0
12.672023 2.286861 3.678712 -0.999994 0.003030 -0.001884 114 57 0
4 0 1 2 3
4 4 5 6 7
4 8 9 10 11
4 12 13 14 15
4 16 17 18 19
4 20 21 5 4
4 22 23 24 25
4 26 27 28 29
4 30 31 32 33
4 34 35 36 37
4 38 39 40 41
4 42 43 33 32
4 44 45 46 47
4 33 48 49 30
4 50 51 52 53
4 54 55 56 57
4 45 58 59 46
4 60 61 62 63
4 48 64 65 49
4 66 67 68 69
4 70 71 64 48
4 58 72 73 59
4 74 75 76 77
4 64 78 79 65
4 80 68 81 82
4 83 84 85 86
4 72 26 29 73
4 87 88 89 90
4 91 92 93 94
4 95 96 97 98
4 99 100 101 102
4 103 104 105 106
4 107 108 109 110
4 111 112 113 114
4 115 116 117 118
4 119 120 121 122
4 123 124 125 126
4 127 128 129 130
4 131 132 133 134
4 135 136 137 138
4 139 140 141 142
4 143 144 145 146
4 147 148 149 150
4 151 152 153 154
4 155 156 157 158
4 159 160 161 162
4 163 164 165 166
4 167 168 169 170
4 171 172 173 174
4 175 176 177 178
4 179 180 181 182
4 183 184 185 186
4 187 188 189 190
