ply
format ascii 1.0
comment Created by Blender 2.71 (sub 0) - www.blender.org, source file: 'wall.blend'
element vertex 204
property float x
property float y
property float z
property float nx
property float ny
property float nz
property uchar red
property uchar green
property uchar blue
element face 53
property list uchar uint vertex_indices
end_header
15.715771 -0.300070 -0.172586 0.747867 -0.206719 -0.630843 107 54 0
15.715771 -0.069930 -0.248000 0.747867 -0.206719 -0.630843 107 54 0
18.188616 0.797558 2.399306 0.747867 -0.206719 -0.630843 107 54 0
18.188616 0.567418 2.474720 0.747867 -0.206719 -0.630843 107 54 0
-7.879519 0.580734 2.480914 0.001178 -0.950110 0.311914 114 57 0
-18.188616 0.567383 2.474731 0.001178 -0.950110 0.311914 107 54 0
-15.715771 -0.300104 -0.172575 0.001178 -0.950110 0.311914 99 50 0
-7.879519 -0.209711 0.068720 0.001178 -0.950110 0.311914 103 52 0
-7.879519 -0.000010 0.000003 0.032835 -0.311227 -0.949768 107 54 0
-7.879519 -0.209711 0.068720 0.032835 -0.311227 -0.949768 107 54 0
-15.715771 -0.300104 -0.172575 0.032835 -0.311227 -0.949768 99 50 0
-15.715771 -0.069964 -0.247989 0.032835 -0.311227 -0.949768 99 50 0
14.666833 12.962366 39.556778 0.000000 0.311379 0.950286 107 54 0
14.666833 12.752666 39.625488 0.000000 0.311379 0.950286 107 54 0
27.450373 12.752669 39.625488 0.000000 0.311379 0.950286 107 54 0
27.450373 12.962370 39.556774 0.000000 0.311379 0.950286 107 54 0
20.609787 1.735397 5.261303 0.779380 -0.195105 -0.595400 107 54 0
20.609787 1.505257 5.336718 0.779380 -0.195105 -0.595400 107 54 0
18.188616 0.567418 2.474720 0.779380 -0.195105 -0.595400 107 54 0
18.188616 0.797558 2.399306 0.779380 -0.195105 -0.595400 107 54 0
-7.879519 1.698818 5.892961 0.000925 -0.950175 0.311717 115 58 0
-20.609787 1.505223 5.336729 0.000925 -0.950175 0.311717 107 54 0
-18.188616 0.567383 2.474731 0.000925 -0.950175 0.311717 107 54 0
-7.879519 0.580734 2.480914 0.000925 -0.950175 0.311717 114 57 0
27.450373 12.962370 39.556774 0.982503 -0.057996 -0.176985 107 54 0
27.450373 12.752669 39.625488 0.982503 -0.057996 -0.176985 107 54 0
20.609787 1.505257 5.336718 0.982503 -0.057996 -0.176985 107 54 0
20.609787 1.735397 5.261303 0.982503 -0.057996 -0.176985 107 54 0
-14.572429 12.752645 39.625500 0.000415 -0.950208 0.311615 107 54 0
-27.450373 12.752638 39.625500 0.000415 -0.950208 0.311615 115 58 0
-20.609787 1.505223 5.336729 0.000415 -0.950208 0.311615 107 54 0
-7.879519 1.698818 5.892961 0.000415 -0.950208 0.311615 115 58 0
7.930565 -0.209691 0.068713 -0.001183 -0.950109 0.311917 99 50 0
15.715771 -0.300070 -0.172586 -0.001183 -0.950109 0.311917 99 50 0
18.188616 0.567418 2.474720 -0.001183 -0.950109 0.311917 107 54 0
7.930565 0.580754 2.480907 -0.001183 -0.950109 0.311917 109 54 0
15.715771 -0.069930 -0.248000 -0.033050 -0.311225 -0.949761 99 50 0
15.715771 -0.300070 -0.172586 -0.033050 -0.311225 -0.949761 99 50 0
7.930565 -0.209691 0.068713 -0.033050 -0.311225 -0.949761 104 52 0
7.930565 0.000010 -0.000003 -0.033050 -0.311225 -0.949761 105 53 0
7.007645 12.962362 39.556778 0.000000 0.311377 0.950286 107 54 0
7.007647 12.752659 39.625492 0.000000 0.311377 0.950286 107 54 0
14.666833 12.752666 39.625488 0.000000 0.311377 0.950286 107 54 0
14.666833 12.962366 39.556778 0.000000 0.311377 0.950286 107 54 0
20.609787 1.505257 5.336718 -0.000928 -0.950174 0.311718 107 54 0
7.930565 1.698839 5.892955 -0.000928 -0.950174 0.311718 115 58 0
7.930565 0.580754 2.480907 -0.000928 -0.950174 0.311718 109 54 0
18.188616 0.567418 2.474720 -0.000928 -0.950174 0.311718 107 54 0
27.450373 12.752669 39.625488 -0.000417 -0.950208 0.311615 107 54 0
14.666833 12.752666 39.625488 -0.000417 -0.950208 0.311615 107 54 0
7.930565 1.698839 5.892955 -0.000417 -0.950208 0.311615 115 58 0
20.609787 1.505257 5.336718 -0.000417 -0.950208 0.311615 107 54 0
7.930565 0.580754 2.480907 0.000001 -0.950281 0.311395 109 54 0
3.789134 0.580749 2.480909 0.000001 -0.950281 0.311395 115 58 0
3.789134 -0.209696 0.068715 0.000001 -0.950281 0.311395 99 50 0
7.930565 -0.209691 0.068713 0.000001 -0.950281 0.311395 99 50 0
7.930565 0.000010 -0.000003 0.000000 -0.311395 -0.950281 106 53 0
7.930565 -0.209691 0.068713 0.000000 -0.311395 -0.950281 106 54 0
3.789134 -0.209696 0.068715 0.000000 -0.311395 -0.950281 100 51 1
3.789134 0.000005 -0.000002 0.000000 -0.311395 -0.950281 114 69 22
-3.846359 1.698823 5.892960 -0.000000 0.311394 0.950281 115 58 0
-7.879519 1.698818 5.892961 -0.000000 0.311394 0.950281 115 58 0
-7.879519 1.496828 5.959150 -0.000000 0.311394 0.950281 115 58 0
-3.846359 1.496833 5.959149 -0.000000 0.311394 0.950281 115 58 0
14.666833 12.752666 39.625488 0.000001 -0.950280 0.311397 107 54 0
7.007647 12.752659 39.625492 0.000001 -0.950280 0.311397 107 54 0
3.789134 1.698833 5.892957 0.000001 -0.950280 0.311397 115 58 0
7.930565 1.698839 5.892955 0.000001 -0.950280 0.311397 115 58 0
-7.113482 12.962350 39.556774 -0.000000 0.311401 0.950279 107 54 0
-7.113481 12.752650 39.625496 -0.000000 0.311401 0.950279 107 54 0
7.007647 12.752659 39.625492 -0.000000 0.311401 0.950279 107 54 0
7.007645 12.962362 39.556778 -0.000000 0.311401 0.950279 107 54 0
-3.846359 0.580739 2.480912 0.000001 -0.950281 0.311395 115 58 0
-3.846359 -0.209706 0.068718 0.000001 -0.950281 0.311395 107 54 0
3.789134 0.000005 -0.000002 -0.000000 -0.311395 -0.950281 154 118 80
3.789134 -0.209696 0.068715 -0.000000 -0.311395 -0.950281 116 67 15
-3.846359 -0.209706 0.068718 -0.000000 -0.311395 -0.950281 107 54 0
-3.846360 -0.000005 0.000002 -0.000000 -0.311395 -0.950281 107 54 0
3.789134 1.698833 5.892957 0.000001 -0.950281 0.311395 115 58 0
-3.846359 1.698823 5.892960 0.000001 -0.950281 0.311395 115 58 0
7.007647 12.752659 39.625492 0.000001 -0.950280 0.311398 107 54 0
-7.113481 12.752650 39.625496 0.000001 -0.950280 0.311398 107 54 0
-3.846359 1.698823 5.892960 0.000001 -0.950280 0.311398 115 58 0
3.789134 1.698833 5.892957 0.000001 -0.950280 0.311398 115 58 0
-14.572429 12.962345 39.556778 0.000000 0.311419 0.950273 108 55 1
-14.572429 12.752645 39.625500 0.000000 0.311419 0.950273 108 56 2
-7.113481 12.752650 39.625496 0.000000 0.311419 0.950273 107 54 0
-7.113482 12.962350 39.556774 0.000000 0.311419 0.950273 107 54 0
-7.879519 0.580734 2.480914 0.000001 -0.950281 0.311395 114 57 0
-7.879519 -0.209711 0.068720 0.000001 -0.950281 0.311395 103 52 0
-3.846360 -0.000005 0.000002 0.000000 -0.311395 -0.950280 109 57 3
-3.846359 -0.209706 0.068718 0.000000 -0.311395 -0.950280 107 54 0
-7.879519 -0.209711 0.068720 0.000000 -0.311395 -0.950280 103 52 0
-7.879519 -0.000010 0.000003 0.000000 -0.311395 -0.950280 106 54 0
-7.879519 1.698818 5.892961 -1.000000 0.000000 -0.000000 113 63 12
-7.879519 0.580734 2.480914 -1.000000 0.000000 -0.000000 107 54 0
-7.879519 0.378744 2.547104 -1.000000 0.000000 -0.000000 107 54 0
-7.879519 1.496828 5.959150 -1.000000 0.000000 -0.000000 147 108 68
-14.572429 12.752645 39.625500 0.000001 -0.950280 0.311398 107 54 0
-7.879519 1.698818 5.892961 0.000001 -0.950280 0.311398 115 58 0
-27.450373 12.962339 39.556782 -0.000000 0.311410 0.950276 115 58 0
-27.450373 12.752638 39.625500 -0.000000 0.311410 0.950276 115 58 0
-14.572429 12.752645 39.625500 -0.000000 0.311410 0.950276 108 55 2
-14.572429 12.962345 39.556778 -0.000000 0.311410 0.950276 108 55 1
-18.188616 0.567383 2.474731 -0.747867 -0.206719 -0.630842 107 54 0
-18.188616 0.797523 2.399317 -0.747867 -0.206719 -0.630842 107 54 0
-15.715771 -0.069964 -0.247989 -0.747867 -0.206719 -0.630842 99 50 0
-15.715771 -0.300104 -0.172575 -0.747867 -0.206719 -0.630842 99 50 0
-20.609787 1.505223 5.336729 -0.779380 -0.195105 -0.595400 107 54 0
-20.609787 1.735363 5.261314 -0.779380 -0.195105 -0.595400 107 54 0
-18.188616 0.797523 2.399317 -0.779380 -0.195105 -0.595400 107 54 0
-18.188616 0.567383 2.474731 -0.779380 -0.195105 -0.595400 107 54 0
-27.450373 12.752638 39.625500 -0.982503 -0.057995 -0.176985 107 54 0
-27.450373 12.962339 39.556782 -0.982503 -0.057995 -0.176985 107 54 0
-20.609787 1.735363 5.261314 -0.982503 -0.057995 -0.176985 124 79 30
-20.609787 1.505223 5.336729 -0.982503 -0.057995 -0.176985 109 56 2
-3.846359 1.496833 5.959149 0.000001 -0.950280 0.311396 115 58 0
-7.879519 1.496828 5.959150 0.000001 -0.950280 0.311396 115 58 0
-7.740164 1.458196 5.841257 0.000001 -0.950280 0.311396 115 58 0
-3.985714 1.458200 5.841255 0.000001 -0.950280 0.311396 115 58 0
-7.879519 1.496828 5.959150 0.000001 -0.950281 0.311395 115 58 0
-7.879519 0.378744 2.547104 0.000001 -0.950281 0.311395 112 56 0
-7.740164 0.417376 2.664997 0.000001 -0.950281 0.311395 114 57 0
-7.740164 1.458196 5.841257 0.000001 -0.950281 0.311395 115 58 0
-7.879519 0.580734 2.480914 -0.000000 -0.311395 -0.950281 110 58 5
-3.846359 0.580739 2.480912 -0.000000 -0.311395 -0.950281 107 54 0
-3.846359 0.378749 2.547101 -0.000000 -0.311395 -0.950281 107 54 0
-7.879519 0.378744 2.547104 -0.000000 -0.311395 -0.950281 108 55 1
-3.846359 0.580739 2.480912 1.000000 -0.000000 0.000000 115 58 0
-3.846359 1.698823 5.892960 1.000000 -0.000000 0.000000 115 58 0
-3.846359 1.496833 5.959149 1.000000 -0.000000 0.000000 115 58 0
-3.846359 0.378749 2.547101 1.000000 -0.000000 0.000000 115 58 0
3.789134 1.698833 5.892957 -1.000000 0.000000 -0.000000 115 58 0
3.789134 0.580749 2.480909 -1.000000 0.000000 -0.000000 115 58 0
3.789134 0.378759 2.547099 -1.000000 0.000000 -0.000000 115 58 0
3.789134 1.496843 5.959146 -1.000000 0.000000 -0.000000 115 58 0
7.930565 1.698839 5.892955 0.000000 0.311394 0.950281 115 58 0
3.789134 1.698833 5.892957 0.000000 0.311394 0.950281 115 58 0
3.789134 1.496843 5.959146 0.000000 0.311394 0.950281 115 58 0
7.930566 1.496848 5.959144 0.000000 0.311394 0.950281 115 58 0
3.789134 0.580749 2.480909 -0.000000 -0.311395 -0.950281 107 54 0
7.930565 0.580754 2.480907 -0.000000 -0.311395 -0.950281 107 54 0
7.930566 0.378764 2.547097 -0.000000 -0.311395 -0.950281 107 54 0
3.789134 0.378759 2.547099 -0.000000 -0.311395 -0.950281 107 54 0
7.930565 0.580754 2.480907 1.000000 0.000004 -0.000001 107 54 0
7.930565 1.698839 5.892955 1.000000 0.000004 -0.000001 107 54 0
7.930566 1.496848 5.959144 1.000000 0.000004 -0.000001 107 54 0
7.930566 0.378764 2.547097 1.000000 0.000004 -0.000001 107 54 0
-3.985714 1.458200 5.841255 0.000000 -0.311394 -0.950281 107 54 0
-7.740164 1.458196 5.841257 0.000000 -0.311394 -0.950281 107 54 0
-7.738619 1.869887 5.706351 0.000000 -0.311394 -0.950281 107 54 0
-3.984169 1.869892 5.706350 0.000000 -0.311394 -0.950281 107 54 0
-7.740164 1.458196 5.841257 0.999994 -0.003390 0.001111 115 58 0
-7.740164 0.417376 2.664997 0.999994 -0.003390 0.001111 114 57 0
-7.738619 0.829067 2.530091 0.999994 -0.003390 0.001111 115 58 0
-7.738619 1.869887 5.706351 0.999994 -0.003390 0.001111 115 58 0
-7.879519 0.378744 2.547104 0.000001 -0.950280 0.311396 112 56 0
-3.846359 0.378749 2.547101 0.000001 -0.950280 0.311396 115 58 0
-3.985714 0.417381 2.664995 0.000001 -0.950280 0.311396 115 58 0
-7.740164 0.417376 2.664997 0.000001 -0.950280 0.311396 114 57 0
-3.846359 0.378749 2.547101 0.000002 -0.950281 0.311395 115 58 0
-3.846359 1.496833 5.959149 0.000002 -0.950281 0.311395 115 58 0
-3.985714 1.458200 5.841255 0.000002 -0.950281 0.311395 115 58 0
-3.985714 0.417381 2.664995 0.000002 -0.950281 0.311395 115 58 0
3.789134 1.496843 5.959146 -0.000000 -0.950281 0.311395 115 58 0
3.789134 0.378759 2.547099 -0.000000 -0.950281 0.311395 115 58 0
3.932230 0.417391 2.664992 -0.000000 -0.950281 0.311395 115 58 0
3.932230 1.458211 5.841251 -0.000000 -0.950281 0.311395 115 58 0
7.930566 1.496848 5.959144 0.000001 -0.950280 0.311396 115 58 0
3.789134 1.496843 5.959146 0.000001 -0.950280 0.311396 115 58 0
3.932230 1.458211 5.841251 0.000001 -0.950280 0.311396 115 58 0
7.787470 1.458216 5.841250 0.000001 -0.950280 0.311396 115 58 0
3.789134 0.378759 2.547099 0.000001 -0.950281 0.311394 115 58 0
7.930566 0.378764 2.547097 0.000001 -0.950281 0.311394 107 54 0
7.787470 0.417396 2.664990 0.000001 -0.950281 0.311394 112 55 0
3.932230 0.417391 2.664992 0.000001 -0.950281 0.311394 115 58 0
7.930566 0.378764 2.547097 0.000002 -0.950281 0.311395 107 54 0
7.930566 1.496848 5.959144 0.000002 -0.950281 0.311395 115 58 0
7.787470 1.458216 5.841250 0.000002 -0.950281 0.311395 115 58 0
7.787470 0.417396 2.664990 0.000002 -0.950281 0.311395 112 55 0
-7.740164 0.417376 2.664997 -0.000000 0.311395 0.950281 114 57 0
-3.985714 0.417381 2.664995 -0.000000 0.311395 0.950281 115 58 0
-3.984169 0.829072 2.530089 -0.000000 0.311395 0.950281 115 58 0
-7.738619 0.829067 2.530091 -0.000000 0.311395 0.950281 115 58 0
-3.985714 0.417381 2.664995 -0.999994 0.003389 -0.001110 107 54 0
-3.985714 1.458200 5.841255 -0.999994 0.003389 -0.001110 107 54 0
-3.984169 1.869892 5.706350 -0.999994 0.003389 -0.001110 107 54 0
-3.984169 0.829072 2.530089 -0.999994 0.003389 -0.001110 107 54 0
3.932230 1.458211 5.841251 0.999994 -0.003388 0.001110 107 54 0
3.932230 0.417391 2.664992 0.999994 -0.003388 0.001110 107 54 0
3.933774 0.829082 2.530086 0.999994 -0.003388 0.001110 107 54 0
3.933774 1.869902 5.706347 0.999994 -0.003388 0.001110 107 54 0
7.787470 1.458216 5.841250 0.000000 -0.311394 -0.950281 107 54 0
3.932230 1.458211 5.841251 0.000000 -0.311394 -0.950281 107 54 0
3.933774 1.869902 5.706347 0.000000 -0.311394 -0.950281 107 54 0
7.789015 1.869907 5.706345 0.000000 -0.311394 -0.950281 107 54 0
3.932230 0.417391 2.664992 0.000000 0.311396 0.950280 115 58 0
7.787470 0.417396 2.664990 0.000000 0.311396 0.950280 112 55 0
7.789015 0.829087 2.530084 0.000000 0.311396 0.950280 114 57 0
3.933774 0.829082 2.530086 0.000000 0.311396 0.950280 115 58 0
7.787470 0.417396 2.664990 -0.999994 0.003390 -0.001111 112 55 0
7.787470 1.458216 5.841250 -0.999994 0.003390 -0.001111 115 58 0
7.789015 1.869907 5.706345 -0.999994 0.003390 -0.001111 115 58 0
7.789015 0.829087 2.530084 -0.999994 0.003390 -0.001111 114 57 0
4 0 1 2 3
4 4 5 6 7
4 8 9 10 11
4 12 13 14 15
4 16 17 18 19
4 20 21 22 23
4 24 25 26 27
4 28 29 30 31
4 32 33 34 35
4 36 37 38 39
4 40 41 42 43
4 44 45 46 47
4 48 49 50 51
4 52 53 54 55
4 56 57 58 59
4 60 61 62 63
4 64 65 66 67
4 68 69 70 71
4 53 72 73 54
4 74 75 76 77
4 78 79 72 53
4 80 81 82 83
4 84 85 86 87
4 72 88 89 73
4 90 91 92 93
4 94 95 96 97
4 81 98 99 82
4 100 101 102 103
4 104 105 106 107
4 108 109 110 111
4 112 113 114 115
4 116 117 118 119
4 120 121 122 123
4 124 125 126 127
4 128 129 130 131
4 132 133 134 135
4 136 137 138 139
4 140 141 142 143
4 144 145 146 147
4 148 149 150 151
4 152 153 154 155
4 156 157 158 159
4 160 161 162 163
4 164 165 166 167
4 168 169 170 171
4 172 173 174 175
4 176 177 178 179
4 180 181 182 183
4 184 185 186 187
4 188 189 190 191
4 192 193 194 195
4 196 197 198 199
4 200 201 202 203
