ply
format ascii 1.0
comment Created by Blender 2.71 (sub 0) - www.blender.org, source file: 'bigBellow.blend'
element vertex 384
property float x
property float y
property float z
property float nx
property float ny
property float nz
property uchar red
property uchar green
property uchar blue
element face 96
property list uchar uint vertex_indices
end_header
-3.481184 4.349411 8.452702 -0.935093 -0.354401 0.000000 130 66 11
-3.122406 3.402770 8.452702 -0.935093 -0.354401 0.000000 130 66 11
-3.122406 3.402770 8.735834 -0.935093 -0.354401 0.000000 130 66 11
-3.481184 4.349411 8.735834 -0.935093 -0.354401 0.000000 130 66 11
-3.481184 4.349411 8.735834 0.000683 0.999732 -0.023132 130 66 11
3.489116 4.351200 8.735834 0.000683 0.999732 -0.023132 135 73 21
3.480360 4.337677 8.434267 0.000683 0.999732 -0.023132 139 79 28
-3.481184 4.349411 8.452702 0.000683 0.999732 -0.023132 130 66 11
3.489116 4.351200 8.735834 0.940279 -0.340347 -0.006210 130 66 11
3.142906 3.399890 8.735834 0.940279 -0.340347 -0.006210 130 66 11
3.142906 3.399890 8.452702 0.940279 -0.340347 -0.006210 130 66 11
3.480360 4.337677 8.434267 0.940279 -0.340347 -0.006210 130 66 11
-3.122406 3.402770 8.452702 -0.000460 -1.000000 0.000000 130 66 11
3.142906 3.399890 8.452702 -0.000460 -1.000000 0.000000 130 66 11
3.142906 3.399890 8.735834 -0.000460 -1.000000 0.000000 130 66 11
-3.122406 3.402770 8.735834 -0.000460 -1.000000 0.000000 130 66 11
-3.122406 3.402770 8.452702 -0.001404 -0.009798 -0.999951 130 66 11
-3.481184 4.349411 8.452702 -0.001404 -0.009798 -0.999951 130 66 11
3.480360 4.337677 8.434267 -0.001404 -0.009798 -0.999951 130 66 11
3.142906 3.399890 8.452702 -0.001404 -0.009798 -0.999951 130 66 11
3.142906 3.399890 8.735834 -0.000000 0.000000 1.000000 130 66 11
3.489116 4.351200 8.735834 -0.000000 0.000000 1.000000 130 66 11
-3.481184 4.349411 8.735834 -0.000000 0.000000 1.000000 130 66 11
-3.122406 3.402770 8.735834 -0.000000 0.000000 1.000000 130 66 11
2.953531 3.486590 8.422475 -0.939561 0.342382 0.000000 130 66 11
3.259799 4.327050 8.422475 -0.939561 0.342382 0.000000 130 66 11
3.259799 4.327050 -0.057438 -0.939561 0.342382 0.000000 130 66 11
2.953531 3.486590 -0.057438 -0.939561 0.342382 0.000000 130 66 11
3.259799 4.327050 8.422475 0.342382 0.939561 0.000000 141 81 27
3.489432 4.243371 8.422475 0.342382 0.939561 0.000000 139 78 27
3.489432 4.243371 -0.057438 0.342382 0.939561 0.000000 139 82 32
3.259799 4.327050 -0.057438 0.342382 0.939561 0.000000 142 86 36
3.489432 4.243371 8.422475 0.939561 -0.342381 0.000000 130 66 11
3.183164 3.402910 8.422475 0.939561 -0.342381 0.000000 130 66 11
3.183164 3.402910 -0.057438 0.939561 -0.342381 0.000000 130 66 11
3.489432 4.243371 -0.057438 0.939561 -0.342381 0.000000 130 66 11
3.183164 3.402910 8.422475 -0.342381 -0.939561 0.000000 130 66 11
2.953531 3.486590 8.422475 -0.342381 -0.939561 0.000000 130 66 11
2.953531 3.486590 -0.057438 -0.342381 -0.939561 0.000000 130 66 11
3.183164 3.402910 -0.057438 -0.342381 -0.939561 0.000000 130 66 11
2.953531 3.486590 -0.057438 -0.000000 0.000000 -1.000000 130 66 11
3.259799 4.327050 -0.057438 -0.000000 0.000000 -1.000000 130 66 11
3.489432 4.243371 -0.057438 -0.000000 0.000000 -1.000000 130 66 11
3.183164 3.402910 -0.057438 -0.000000 0.000000 -1.000000 130 66 11
3.183164 3.402910 8.422475 -0.000000 0.000000 1.000000 130 66 11
3.489432 4.243371 8.422475 -0.000000 0.000000 1.000000 130 66 11
3.259799 4.327050 8.422475 -0.000000 0.000000 1.000000 130 66 11
2.953531 3.486590 8.422475 -0.000000 0.000000 1.000000 130 66 11
-3.209032 3.396539 8.443621 -0.935630 -0.352983 0.000000 130 66 11
-3.524785 4.233482 8.443621 -0.935630 -0.352983 0.000000 130 66 11
-3.524785 4.233482 -0.036291 -0.935630 -0.352983 0.000000 130 67 14
-3.209032 3.396539 -0.036291 -0.935630 -0.352983 0.000000 130 66 11
-3.524785 4.233482 8.443621 -0.352985 0.935629 0.000000 130 66 11
-3.296112 4.319754 8.443621 -0.352985 0.935629 0.000000 130 66 11
-3.296112 4.319754 -0.036291 -0.352985 0.935629 0.000000 138 77 26
-3.524785 4.233482 -0.036291 -0.352985 0.935629 0.000000 140 81 31
-3.296112 4.319754 8.443621 0.935630 0.352983 0.000000 130 66 11
-2.980360 3.482810 8.443621 0.935630 0.352983 0.000000 130 66 11
-2.980360 3.482810 -0.036291 0.935630 0.352983 0.000000 130 66 11
-3.296112 4.319754 -0.036291 0.935630 0.352983 0.000000 130 66 11
-2.980360 3.482810 8.443621 0.352984 -0.935629 0.000000 130 66 11
-3.209032 3.396539 8.443621 0.352984 -0.935629 0.000000 130 66 11
-3.209032 3.396539 -0.036291 0.352984 -0.935629 0.000000 130 66 11
-2.980360 3.482810 -0.036291 0.352984 -0.935629 0.000000 130 66 11
-3.209032 3.396539 -0.036291 -0.000000 -0.000000 -1.000000 130 66 11
-3.524785 4.233482 -0.036291 -0.000000 -0.000000 -1.000000 130 66 11
-3.296112 4.319754 -0.036291 -0.000000 -0.000000 -1.000000 130 66 11
-2.980360 3.482810 -0.036291 -0.000000 -0.000000 -1.000000 130 66 11
-2.980360 3.482810 8.443621 -0.000000 -0.000000 1.000000 130 66 11
-3.296112 4.319754 8.443621 -0.000000 -0.000000 1.000000 130 66 11
-3.524785 4.233482 8.443621 -0.000000 -0.000000 1.000000 130 66 11
-3.209032 3.396539 8.443621 -0.000000 -0.000000 1.000000 130 66 11
-0.317403 -4.370881 3.760607 -1.000000 0.000000 0.000000 130 66 11
-0.317403 -4.124710 3.760607 -1.000000 0.000000 0.000000 131 67 12
-0.317403 -4.124710 -0.030117 -1.000000 0.000000 0.000000 130 66 11
-0.317403 -4.370881 -0.030117 -1.000000 0.000000 0.000000 130 66 11
-0.317403 -4.124710 3.760607 0.000000 1.000000 -0.000000 131 67 12
0.317403 -4.124710 3.760607 0.000000 1.000000 -0.000000 130 66 11
0.317403 -4.124710 -0.030117 0.000000 1.000000 -0.000000 130 66 11
-0.317403 -4.124710 -0.030117 0.000000 1.000000 -0.000000 130 66 11
0.317403 -4.124710 3.760607 1.000000 0.000000 -0.000000 130 66 11
0.317403 -4.370881 3.760607 1.000000 0.000000 -0.000000 130 66 11
0.317403 -4.370881 -0.030117 1.000000 0.000000 -0.000000 130 66 11
0.317403 -4.124710 -0.030117 1.000000 0.000000 -0.000000 130 66 11
0.317403 -4.370881 3.760607 0.000000 -1.000000 0.000000 130 66 11
-0.317403 -4.370881 3.760607 0.000000 -1.000000 0.000000 130 66 11
-0.317403 -4.370881 -0.030117 0.000000 -1.000000 0.000000 149 97 50
0.317403 -4.370881 -0.030117 0.000000 -1.000000 0.000000 141 81 32
-0.317403 -4.370881 -0.030117 -0.000000 0.000000 -1.000000 130 66 11
-0.317403 -4.124710 -0.030117 -0.000000 0.000000 -1.000000 130 66 11
0.317403 -4.124710 -0.030117 -0.000000 0.000000 -1.000000 130 66 11
0.317403 -4.370881 -0.030117 -0.000000 0.000000 -1.000000 130 66 11
0.317403 -4.370881 3.760607 -0.000000 0.000000 1.000000 131 67 12
0.317403 -4.124710 3.760607 -0.000000 0.000000 1.000000 131 67 12
-0.317403 -4.124710 3.760607 -0.000000 0.000000 1.000000 134 72 21
-0.317403 -4.370881 3.760607 -0.000000 0.000000 1.000000 133 71 17
-3.861748 3.802040 4.209914 -1.000000 0.000000 0.000000 39 38 36
-3.861748 3.980246 4.209914 -1.000000 0.000000 0.000000 39 38 36
-3.861748 3.980246 4.031707 -1.000000 0.000000 0.000000 39 38 36
-3.861748 3.802040 4.031707 -1.000000 0.000000 0.000000 39 38 36
-3.861748 3.980246 4.209914 0.000000 1.000000 -0.000000 39 38 36
3.861748 3.980246 4.209914 0.000000 1.000000 -0.000000 43 42 36
3.861748 3.980246 4.031707 0.000000 1.000000 -0.000000 43 42 36
-3.861748 3.980246 4.031707 0.000000 1.000000 -0.000000 39 38 36
3.861748 3.980246 4.209914 1.000000 0.000000 -0.000000 43 42 36
3.861748 3.802040 4.209914 1.000000 0.000000 -0.000000 43 42 36
3.861748 3.802040 4.031707 1.000000 0.000000 -0.000000 43 42 36
3.861748 3.980246 4.031707 1.000000 0.000000 -0.000000 43 42 36
3.861748 3.802040 4.209914 0.000000 -1.000000 0.000000 60 46 31
-3.861748 3.802040 4.209914 0.000000 -1.000000 0.000000 43 42 36
-3.861748 3.802040 4.031707 0.000000 -1.000000 0.000000 43 42 36
3.861748 3.802040 4.031707 0.000000 -1.000000 0.000000 43 42 36
-3.861748 3.802040 4.031707 -0.000000 0.000000 -1.000000 130 66 11
-3.861748 3.980246 4.031707 -0.000000 0.000000 -1.000000 130 66 11
3.861748 3.980246 4.031707 -0.000000 0.000000 -1.000000 43 42 36
3.861748 3.802040 4.031707 -0.000000 0.000000 -1.000000 43 42 36
3.861748 3.802040 4.209914 -0.000000 0.000000 1.000000 43 42 36
3.861748 3.980246 4.209914 -0.000000 0.000000 1.000000 43 42 36
-3.861748 3.980246 4.209914 -0.000000 0.000000 1.000000 39 38 36
-3.861748 3.802040 4.209914 -0.000000 0.000000 1.000000 39 38 36
-3.259334 3.772217 1.408112 -1.000000 0.000000 0.000000 255 255 255
-3.259334 3.991564 1.408112 -1.000000 0.000000 0.000000 255 255 255
-3.259334 3.991564 0.058663 -1.000000 0.000000 0.000000 255 255 255
-3.259334 3.772217 0.058663 -1.000000 0.000000 0.000000 255 255 255
-3.259334 3.991564 1.408112 0.000000 1.000000 -0.000000 153 104 61
3.259334 3.991564 1.408112 0.000000 1.000000 -0.000000 130 66 11
3.259334 3.991564 0.058663 0.000000 1.000000 -0.000000 140 81 29
-3.259334 3.991564 0.058663 0.000000 1.000000 -0.000000 130 68 14
3.259334 3.991564 1.408112 1.000000 0.000000 -0.000000 255 255 255
3.259334 3.772217 1.408112 1.000000 0.000000 -0.000000 255 255 255
3.259334 3.772217 0.058663 1.000000 0.000000 -0.000000 255 255 255
3.259334 3.991564 0.058663 1.000000 0.000000 -0.000000 255 255 255
3.259334 3.772217 1.408112 0.000000 -1.000000 0.000000 130 66 11
-3.259334 3.772217 1.408112 0.000000 -1.000000 0.000000 130 66 11
-3.259334 3.772217 0.058663 0.000000 -1.000000 0.000000 130 66 11
3.259334 3.772217 0.058663 0.000000 -1.000000 0.000000 130 66 11
-3.259334 3.772217 0.058663 -0.000000 0.000000 -1.000000 130 66 11
-3.259334 3.991564 0.058663 -0.000000 0.000000 -1.000000 130 66 11
3.259334 3.991564 0.058663 -0.000000 0.000000 -1.000000 130 68 13
3.259334 3.772217 0.058663 -0.000000 0.000000 -1.000000 130 66 11
3.259334 3.772217 1.408112 -0.000000 0.000000 1.000000 130 66 11
3.259334 3.991564 1.408112 -0.000000 0.000000 1.000000 130 66 11
-3.259334 3.991564 1.408112 -0.000000 0.000000 1.000000 130 66 11
-3.259334 3.772217 1.408112 -0.000000 0.000000 1.000000 130 66 11
-3.366959 3.290745 1.046425 -1.000000 0.000000 0.000000 130 66 11
-3.366959 4.462397 1.012228 -1.000000 0.000000 0.000000 130 66 11
-3.366959 5.265899 0.000000 -1.000000 0.000000 0.000000 132 68 15
-3.366959 2.553182 0.000000 -1.000000 0.000000 0.000000 130 66 11
-3.366959 4.462397 1.012228 0.000000 0.783234 0.621728 130 66 11
-3.094434 4.462397 1.012228 0.000000 0.783234 0.621728 130 66 11
-3.094434 5.265899 0.000000 0.000000 0.783234 0.621728 130 66 11
-3.366959 5.265899 0.000000 0.000000 0.783234 0.621728 130 66 11
-3.094434 4.462397 1.012228 1.000000 0.000000 -0.000000 130 66 11
-3.094434 3.290745 1.046425 1.000000 0.000000 -0.000000 130 66 11
-3.094434 2.553182 0.000000 1.000000 0.000000 -0.000000 130 66 11
-3.094434 5.265899 0.000000 1.000000 0.000000 -0.000000 130 66 11
-3.094434 3.290745 1.046425 0.000000 -0.817369 0.576115 130 66 11
-3.366959 3.290745 1.046425 0.000000 -0.817369 0.576115 130 66 11
-3.366959 2.553182 0.000000 0.000000 -0.817369 0.576115 130 66 11
-3.094434 2.553182 0.000000 0.000000 -0.817369 0.576115 130 66 11
-3.366959 2.553182 0.000000 -0.000000 0.000000 -1.000000 130 66 11
-3.366959 5.265899 0.000000 -0.000000 0.000000 -1.000000 134 73 19
-3.094434 5.265899 0.000000 -0.000000 0.000000 -1.000000 130 66 11
-3.094434 2.553182 0.000000 -0.000000 0.000000 -1.000000 130 66 11
-3.094434 3.290745 1.046425 0.000000 0.029175 0.999574 130 66 11
-3.094434 4.462397 1.012228 0.000000 0.029175 0.999574 130 66 11
-3.366959 4.462397 1.012228 0.000000 0.029175 0.999574 130 66 11
-3.366959 3.290745 1.046425 0.000000 0.029175 0.999574 130 66 11
2.998578 3.290745 1.046425 -1.000000 0.000000 0.000000 130 66 11
2.998578 4.462397 1.012228 -1.000000 0.000000 0.000000 130 66 11
2.998578 5.265899 0.000000 -1.000000 0.000000 0.000000 130 66 11
2.998578 2.553182 0.000000 -1.000000 0.000000 0.000000 130 66 11
2.998578 4.462397 1.012228 0.000000 0.783234 0.621728 130 66 11
3.271103 4.462397 1.012228 0.000000 0.783234 0.621728 130 66 11
3.271103 5.265899 0.000000 0.000000 0.783234 0.621728 130 66 11
2.998578 5.265899 0.000000 0.000000 0.783234 0.621728 130 66 11
3.271103 4.462397 1.012228 1.000000 0.000000 -0.000000 130 66 11
3.271103 3.290745 1.046425 1.000000 0.000000 -0.000000 130 66 11
3.271103 2.553182 0.000000 1.000000 0.000000 -0.000000 130 66 11
3.271103 5.265899 0.000000 1.000000 0.000000 -0.000000 130 66 11
3.271103 3.290745 1.046425 0.000000 -0.817369 0.576115 130 66 11
2.998578 3.290745 1.046425 0.000000 -0.817369 0.576115 130 66 11
2.998578 2.553182 0.000000 0.000000 -0.817369 0.576115 130 66 11
3.271103 2.553182 0.000000 0.000000 -0.817369 0.576115 130 66 11
2.998578 2.553182 0.000000 -0.000000 0.000000 -1.000000 130 66 11
2.998578 5.265899 0.000000 -0.000000 0.000000 -1.000000 130 66 11
3.271103 5.265899 0.000000 -0.000000 0.000000 -1.000000 130 66 11
3.271103 2.553182 0.000000 -0.000000 0.000000 -1.000000 130 66 11
3.271103 3.290745 1.046425 0.000000 0.029175 0.999574 130 66 11
3.271103 4.462397 1.012228 0.000000 0.029175 0.999574 130 66 11
2.998578 4.462397 1.012228 0.000000 0.029175 0.999574 130 66 11
2.998578 3.290745 1.046425 0.000000 0.029175 0.999574 130 66 11
-0.428367 -4.792779 4.352671 -1.000000 0.000000 0.000000 96 53 8
-0.428367 -3.936045 4.352671 -1.000000 0.000000 0.000000 96 53 8
-0.428367 -3.936045 3.734320 -1.000000 0.000000 0.000000 97 54 9
-0.428367 -4.792779 3.734320 -1.000000 0.000000 0.000000 96 53 8
-0.428367 -3.936045 4.352671 0.000000 1.000000 -0.000000 96 53 8
0.428367 -3.936045 4.352671 0.000000 1.000000 -0.000000 96 53 8
0.428367 -3.936045 3.734320 0.000000 1.000000 -0.000000 98 55 11
-0.428367 -3.936045 3.734320 0.000000 1.000000 -0.000000 96 53 8
0.428367 -3.936045 4.352671 1.000000 0.000000 -0.000000 96 53 8
0.428367 -4.792779 4.352671 1.000000 0.000000 -0.000000 96 53 8
0.428367 -4.792779 3.734320 1.000000 0.000000 -0.000000 96 53 8
0.428367 -3.936045 3.734320 1.000000 0.000000 -0.000000 96 53 8
0.428367 -4.792779 4.352671 0.000000 -1.000000 0.000000 96 53 8
-0.428367 -4.792779 4.352671 0.000000 -1.000000 0.000000 96 53 8
-0.428367 -4.792779 3.734320 0.000000 -1.000000 0.000000 96 53 8
0.428367 -4.792779 3.734320 0.000000 -1.000000 0.000000 96 53 8
-0.428367 -4.792779 3.734320 -0.000000 0.000000 -1.000000 96 53 8
-0.428367 -3.936045 3.734320 -0.000000 0.000000 -1.000000 96 53 8
0.428367 -3.936045 3.734320 -0.000000 0.000000 -1.000000 96 53 8
0.428367 -4.792779 3.734320 -0.000000 0.000000 -1.000000 96 53 8
0.428367 -4.792779 4.352671 -0.000000 0.000000 1.000000 96 53 8
0.428367 -3.936045 4.352671 -0.000000 0.000000 1.000000 96 53 8
-0.428367 -3.936045 4.352671 -0.000000 0.000000 1.000000 96 53 8
-0.428367 -4.792779 4.352671 -0.000000 0.000000 1.000000 96 53 8
-0.213261 -5.370617 4.251725 -1.000000 0.000000 0.000000 81 50 16
-0.213261 -4.630432 4.251725 -1.000000 0.000000 0.000000 41 40 36
-0.213261 -4.630432 3.825202 -1.000000 0.000000 0.000000 40 40 36
-0.213261 -5.370617 3.825202 -1.000000 0.000000 0.000000 95 53 9
-0.213261 -4.630432 4.251725 0.000000 1.000000 -0.000000 255 255 255
0.213261 -4.630432 4.251725 0.000000 1.000000 -0.000000 255 255 255
0.213261 -4.630432 3.825202 0.000000 1.000000 -0.000000 255 255 255
-0.213261 -4.630432 3.825202 0.000000 1.000000 -0.000000 255 255 255
0.213261 -4.630432 4.251725 1.000000 0.000000 -0.000000 40 40 36
0.213261 -5.370617 4.251725 1.000000 0.000000 -0.000000 53 42 29
0.213261 -5.370617 3.825202 1.000000 0.000000 -0.000000 55 42 29
0.213261 -4.630432 3.825202 1.000000 0.000000 -0.000000 40 40 36
-0.213261 -5.370617 3.825202 0.090377 0.215112 0.972398 96 53 8
0.213261 -5.370617 3.825202 0.090377 0.215112 0.972398 96 53 8
0.255959 -5.021902 3.704450 0.090377 0.215112 0.972398 96 53 8
-0.255959 -5.021902 3.791671 0.090377 0.215112 0.972398 96 53 8
-0.213261 -5.370617 3.825202 -0.000000 0.000000 -1.000000 84 51 13
-0.213261 -4.630432 3.825202 -0.000000 0.000000 -1.000000 40 40 36
0.213261 -4.630432 3.825202 -0.000000 0.000000 -1.000000 40 40 36
0.213261 -5.370617 3.825202 -0.000000 0.000000 -1.000000 96 53 8
0.213261 -5.370617 4.251725 -0.000000 0.000000 1.000000 49 41 32
0.213261 -4.630432 4.251725 -0.000000 0.000000 1.000000 40 40 36
-0.213261 -4.630432 4.251725 -0.000000 0.000000 1.000000 40 40 36
-0.213261 -5.370617 4.251725 -0.000000 0.000000 1.000000 50 42 30
-0.255959 -5.021902 3.791671 -0.164139 -0.053430 -0.984989 96 53 8
0.255959 -5.021902 3.704450 -0.164139 -0.053430 -0.984989 96 53 8
0.251901 -5.521924 3.734164 -0.164139 -0.053430 -0.984989 96 53 8
-0.251901 -5.392800 3.809199 -0.164139 -0.053430 -0.984989 96 53 8
0.213261 -5.370617 4.251725 0.000000 0.121536 -0.992587 117 80 41
-0.213261 -5.370617 4.251725 0.000000 0.121536 -0.992587 102 61 19
-0.255959 -5.021902 4.294423 0.000000 0.121536 -0.992587 96 53 8
0.255959 -5.021902 4.294423 0.000000 0.121536 -0.992587 110 72 31
0.213261 -5.370617 3.825202 -0.992587 0.121536 0.000000 96 53 8
0.213261 -5.370617 4.251725 -0.992587 0.121536 0.000000 96 53 8
0.255959 -5.021902 4.294423 -0.992587 0.121536 0.000000 96 53 8
0.255959 -5.021902 3.704450 -0.992587 0.121536 0.000000 100 58 14
-0.213261 -5.370617 4.251725 0.992587 0.121536 0.000000 103 62 20
-0.213261 -5.370617 3.825202 0.992587 0.121536 0.000000 113 74 33
-0.255959 -5.021902 3.791671 0.992587 0.121536 0.000000 175 153 131
-0.255959 -5.021902 4.294423 0.992587 0.121536 0.000000 97 55 11
-0.355891 -5.512650 3.540414 0.539379 0.518482 -0.663511 96 53 8
-0.015448 -5.712351 3.563920 0.539379 0.518482 -0.663511 96 53 8
-0.282796 -5.859929 3.328463 0.539379 0.518482 -0.663511 96 53 8
-0.459882 -5.551324 3.328463 0.539379 0.518482 -0.663511 96 53 8
0.255959 -5.021902 4.294423 0.000000 -0.000000 1.000000 96 53 8
-0.255959 -5.021902 4.294423 0.000000 -0.000000 1.000000 96 53 8
-0.251901 -5.392800 4.294423 0.000000 -0.000000 1.000000 96 53 8
0.207360 -5.483599 4.294423 0.000000 -0.000000 1.000000 96 53 8
0.255959 -5.021902 3.704450 0.997756 -0.053382 0.040415 96 53 8
0.255959 -5.021902 4.294423 0.997756 -0.053382 0.040415 96 53 8
0.207360 -5.483599 4.294423 0.997756 -0.053382 0.040415 96 53 8
0.251901 -5.521924 3.734164 0.997756 -0.053382 0.040415 96 53 8
-0.255959 -5.021902 4.294423 -0.999940 -0.010942 0.000000 96 53 8
-0.255959 -5.021902 3.791671 -0.999940 -0.010942 0.000000 96 53 8
-0.251901 -5.392800 3.809199 -0.999940 -0.010942 0.000000 96 53 8
-0.251901 -5.392800 4.294423 -0.999940 -0.010942 0.000000 96 53 8
-0.459882 -5.551324 3.328463 0.589342 0.303343 -0.748772 96 53 8
-0.282796 -5.859929 3.328463 0.589342 0.303343 -0.748772 96 53 8
-0.895836 -5.844476 2.866570 0.589342 0.303343 -0.748772 96 53 8
-0.827368 -5.455598 3.063644 0.589342 0.303343 -0.748772 96 53 8
-0.015448 -5.712351 4.014977 -0.550283 -0.560267 0.619103 96 53 8
-0.355891 -5.512650 4.014977 -0.550283 -0.560267 0.619103 96 53 8
-0.459882 -5.551324 3.765671 -0.550283 -0.560267 0.619103 96 53 8
-0.282796 -5.859929 3.765671 -0.550283 -0.560267 0.619103 96 53 8
-0.015448 -5.712351 3.563920 0.483268 -0.875473 0.000000 96 53 8
-0.015448 -5.712351 4.014977 0.483268 -0.875473 0.000000 96 53 8
-0.282796 -5.859929 3.765671 0.483268 -0.875473 0.000000 96 53 8
-0.282796 -5.859929 3.328463 0.483268 -0.875473 0.000000 96 53 8
-0.355891 -5.512650 4.014977 -0.348577 0.937280 0.000000 96 53 8
-0.355891 -5.512650 3.540414 -0.348577 0.937280 0.000000 96 53 8
-0.459882 -5.551324 3.328463 -0.348577 0.937280 0.000000 96 53 8
-0.459882 -5.551324 3.765671 -0.348577 0.937280 0.000000 96 53 8
-0.827368 -5.455598 3.063644 0.503176 0.098187 -0.858588 96 53 8
-0.895836 -5.844476 2.866570 0.503176 0.098187 -0.858588 96 53 8
-1.617149 -5.687454 2.574278 0.503176 0.098187 -0.858588 96 53 8
-1.550573 -5.309316 2.544062 0.503176 0.098187 -0.858588 96 53 8
-0.282796 -5.859929 3.765671 -0.682817 -0.111375 0.722050 96 53 8
-0.459882 -5.551324 3.765671 -0.682817 -0.111375 0.722050 96 53 8
-0.827368 -5.455598 3.313056 -0.682817 -0.111375 0.722050 96 53 8
-0.895836 -5.844476 3.308187 -0.682817 -0.111375 0.722050 96 53 8
-0.282796 -5.859929 3.328463 -0.025200 -0.999682 0.000000 96 53 8
-0.282796 -5.859929 3.765671 -0.025200 -0.999682 0.000000 96 53 8
-0.895836 -5.844476 3.308187 -0.025200 -0.999682 0.000000 96 53 8
-0.895836 -5.844476 2.866570 -0.025200 -0.999682 0.000000 96 53 8
-0.459882 -5.551324 3.765671 0.252077 0.967707 0.000000 96 53 8
-0.459882 -5.551324 3.328463 0.252077 0.967707 0.000000 96 53 8
-0.827368 -5.455598 3.063644 0.252077 0.967707 0.000000 96 53 8
-0.827368 -5.455598 3.313056 0.252077 0.967707 0.000000 96 53 8
-1.550573 -5.309316 2.544062 0.043786 -0.055613 -0.997492 96 53 8
-1.617149 -5.687454 2.574278 0.043786 -0.055613 -0.997492 96 53 8
-2.368569 -5.324298 2.508990 0.043786 -0.055613 -0.997492 96 53 8
-2.330478 -4.919150 2.500131 0.043786 -0.055613 -0.997492 96 53 8
-0.895836 -5.844476 3.308187 -0.437728 0.071378 0.896270 96 53 8
-0.827368 -5.455598 3.313056 -0.437728 0.071378 0.896270 96 53 8
-1.550573 -5.309316 2.945801 -0.437728 0.071378 0.896270 96 53 8
-1.617149 -5.687454 2.945801 -0.437728 0.071378 0.896270 96 53 8
-0.895836 -5.844476 2.866570 -0.212707 -0.977116 0.000000 96 53 8
-0.895836 -5.844476 3.308187 -0.212707 -0.977116 0.000000 96 53 8
-1.617149 -5.687454 2.945801 -0.212707 -0.977116 0.000000 96 53 8
-1.617149 -5.687454 2.574278 -0.212707 -0.977116 0.000000 96 53 8
-0.827368 -5.455598 3.313056 0.198255 0.980151 0.000000 96 53 8
-0.827368 -5.455598 3.063644 0.198255 0.980151 0.000000 96 53 8
-1.550573 -5.309316 2.544062 0.198255 0.980151 0.000000 96 53 8
-1.550573 -5.309316 2.945801 0.198255 0.980151 0.000000 96 53 8
-2.330478 -4.919150 2.500131 -0.122737 -0.004440 -0.992429 96 53 8
-2.368569 -5.324298 2.508990 -0.122737 -0.004440 -0.992429 96 53 8
-2.930439 -4.933833 2.574396 -0.122737 -0.004440 -0.992429 96 53 8
-2.925441 -4.549862 2.574396 -0.122737 -0.004440 -0.992429 96 53 8
-1.617149 -5.687454 2.945801 -0.040024 0.005348 0.999184 96 53 8
-1.550573 -5.309316 2.945801 -0.040024 0.005348 0.999184 96 53 8
-2.330478 -4.919150 2.913115 -0.040024 0.005348 0.999184 96 53 8
-2.368569 -5.324298 2.913115 -0.040024 0.005348 0.999184 96 53 8
-1.617149 -5.687454 2.574278 -0.435139 -0.900363 0.000000 96 53 8
-1.617149 -5.687454 2.945801 -0.435139 -0.900363 0.000000 96 53 8
-2.368569 -5.324298 2.913115 -0.435139 -0.900363 0.000000 96 53 8
-2.368569 -5.324298 2.508990 -0.435139 -0.900363 0.000000 96 53 8
-1.550573 -5.309316 2.945801 0.447409 0.894330 0.000000 96 53 8
-1.550573 -5.309316 2.544062 0.447409 0.894330 0.000000 96 53 8
-2.330478 -4.919150 2.500131 0.447409 0.894330 0.000000 96 53 8
-2.330478 -4.919150 2.913115 0.447409 0.894330 0.000000 96 53 8
-2.925441 -4.549862 2.574396 -0.140443 0.001828 -0.990087 96 53 8
-2.930439 -4.933833 2.574396 -0.140443 0.001828 -0.990087 96 53 8
-3.811661 -4.825579 2.699596 -0.140443 0.001828 -0.990087 96 53 8
-3.806663 -4.441607 2.699596 -0.140443 0.001828 -0.990087 96 53 8
-2.368569 -5.324298 2.913115 0.075366 -0.004115 0.997148 96 53 8
-2.330478 -4.919150 2.913115 0.075366 -0.004115 0.997148 96 53 8
-2.925441 -4.549862 2.958400 0.075366 -0.004115 0.997148 96 53 8
-2.930439 -4.933833 2.958400 0.075366 -0.004115 0.997148 96 53 8
-2.368569 -5.324298 2.508990 -0.570669 -0.821180 0.000000 96 53 8
-2.368569 -5.324298 2.913115 -0.570669 -0.821180 0.000000 96 53 8
-2.930439 -4.933833 2.958400 -0.570669 -0.821180 0.000000 96 53 8
-2.930439 -4.933833 2.574396 -0.570669 -0.821180 0.000000 96 53 9
-2.330478 -4.919150 2.913115 0.527364 0.849640 0.000000 96 53 8
-2.330478 -4.919150 2.500131 0.527364 0.849640 0.000000 96 53 8
-2.925441 -4.549862 2.574396 0.527364 0.849640 0.000000 96 53 8
-2.925441 -4.549862 2.958400 0.527364 0.849640 0.000000 96 53 8
-3.811661 -4.825579 3.083601 -0.999915 0.013017 0.000000 98 56 12
-3.806663 -4.441607 3.083601 -0.999915 0.013017 0.000000 96 53 8
-3.806663 -4.441607 2.699596 -0.999915 0.013017 0.000000 96 53 8
-3.811661 -4.825579 2.699596 -0.999915 0.013017 0.000000 96 53 8
-2.930439 -4.933833 2.958400 0.140443 -0.001828 0.990087 96 53 8
-2.925441 -4.549862 2.958400 0.140443 -0.001828 0.990087 96 53 8
-3.806663 -4.441607 3.083601 0.140443 -0.001828 0.990087 96 53 8
-3.811661 -4.825579 3.083601 0.140443 -0.001828 0.990087 96 53 8
-2.930439 -4.933833 2.574396 -0.121929 -0.992539 0.000000 96 53 8
-2.930439 -4.933833 2.958400 -0.121929 -0.992539 0.000000 96 53 8
-3.811661 -4.825579 3.083601 -0.121929 -0.992539 0.000000 96 53 8
-3.811661 -4.825579 2.699596 -0.121929 -0.992539 0.000000 96 53 8
-2.925441 -4.549862 2.958400 0.121929 0.992539 0.000000 96 53 8
-2.925441 -4.549862 2.574396 0.121929 0.992539 0.000000 96 53 8
-3.806663 -4.441607 2.699596 0.121929 0.992539 0.000000 96 53 8
-3.806663 -4.441607 3.083601 0.121929 0.992539 0.000000 96 53 8
-0.251901 -5.392800 3.809199 0.228403 0.693492 -0.683301 96 53 8
0.251901 -5.521924 3.734164 0.228403 0.693492 -0.683301 96 53 8
-0.015448 -5.712351 3.563920 0.228403 0.693492 -0.683301 96 53 8
-0.355891 -5.512650 3.540414 0.228403 0.693492 -0.683301 96 53 8
0.207360 -5.483599 4.294423 -0.268449 -0.739000 0.617911 96 53 8
-0.251901 -5.392800 4.294423 -0.268449 -0.739000 0.617911 96 53 8
-0.355891 -5.512650 4.014977 -0.268449 -0.739000 0.617911 96 53 8
-0.015448 -5.712351 4.014977 -0.268449 -0.739000 0.617911 96 53 8
0.251901 -5.521924 3.734164 0.618200 -0.783956 0.056936 96 53 8
0.207360 -5.483599 4.294423 0.618200 -0.783956 0.056936 96 53 8
-0.015448 -5.712351 4.014977 0.618200 -0.783956 0.056936 96 53 8
-0.015448 -5.712351 3.563920 0.618200 -0.783956 0.056936 96 53 8
-0.251901 -5.392800 4.294423 -0.755311 0.655367 0.000000 96 53 8
-0.251901 -5.392800 3.809199 -0.755311 0.655367 0.000000 96 53 9
-0.355891 -5.512650 3.540414 -0.755311 0.655367 0.000000 96 53 8
-0.355891 -5.512650 4.014977 -0.755311 0.655367 0.000000 96 53 8
4 0 1 2 3
4 4 5 6 7
4 8 9 10 11
4 12 13 14 15
4 16 17 18 19
4 20 21 22 23
4 24 25 26 27
4 28 29 30 31
4 32 33 34 35
4 36 37 38 39
4 40 41 42 43
4 44 45 46 47
4 48 49 50 51
4 52 53 54 55
4 56 57 58 59
4 60 61 62 63
4 64 65 66 67
4 68 69 70 71
4 72 73 74 75
4 76 77 78 79
4 80 81 82 83
4 84 85 86 87
4 88 89 90 91
4 92 93 94 95
4 96 97 98 99
4 100 101 102 103
4 104 105 106 107
4 108 109 110 111
4 112 113 114 115
4 116 117 118 119
4 120 121 122 123
4 124 125 126 127
4 128 129 130 131
4 132 133 134 135
4 136 137 138 139
4 140 141 142 143
4 144 145 146 147
4 148 149 150 151
4 152 153 154 155
4 156 157 158 159
4 160 161 162 163
4 164 165 166 167
4 168 169 170 171
4 172 173 174 175
4 176 177 178 179
4 180 181 182 183
4 184 185 186 187
4 188 189 190 191
4 192 193 194 195
4 196 197 198 199
4 200 201 202 203
4 204 205 206 207
4 208 209 210 211
4 212 213 214 215
4 216 217 218 219
4 220 221 222 223
4 224 225 226 227
4 228 229 230 231
4 232 233 234 235
4 236 237 238 239
4 240 241 242 243
4 244 245 246 247
4 248 249 250 251
4 252 253 254 255
4 256 257 258 259
4 260 261 262 263
4 264 265 266 267
4 268 269 270 271
4 272 273 274 275
4 276 277 278 279
4 280 281 282 283
4 284 285 286 287
4 288 289 290 291
4 292 293 294 295
4 296 297 298 299
4 300 301 302 303
4 304 305 306 307
4 308 309 310 311
4 312 313 314 315
4 316 317 318 319
4 320 321 322 323
4 324 325 326 327
4 328 329 330 331
4 332 333 334 335
4 336 337 338 339
4 340 341 342 343
4 344 345 346 347
4 348 349 350 351
4 352 353 354 355
4 356 357 358 359
4 360 361 362 363
4 364 365 366 367
4 368 369 370 371
4 372 373 374 375
4 376 377 378 379
4 380 381 382 383
