ply
format ascii 1.0
comment Created by Blender 2.71 (sub 0) - www.blender.org, source file: 'bigBellow.blend'
element vertex 235
property float x
property float y
property float z
property float nx
property float ny
property float nz
property uchar red
property uchar green
property uchar blue
element face 59
property list uchar uint vertex_indices
end_header
-0.000000 -0.414764 -0.781058 -0.271678 0.000000 -0.962388 153 82 7
0.000000 0.424970 -0.781058 -0.271678 0.000000 -0.962388 152 81 7
9.125572 3.526139 -3.357170 -0.271678 0.000000 -0.962388 153 82 7
9.125570 -3.515940 -3.357170 -0.271678 0.000000 -0.962388 152 82 7
-0.000000 -0.414764 -0.386307 -0.321762 -0.946821 -0.000001 153 82 7
-0.000000 -0.414764 -0.781058 -0.321762 -0.946821 -0.000001 100 57 7
9.125570 -3.515940 -3.357170 -0.321762 -0.946821 -0.000001 153 82 7
9.125570 -3.515941 -2.834455 -0.321762 -0.946821 -0.000001 153 82 7
0.000000 0.424970 -0.781058 -0.321761 0.946821 -0.000001 153 82 7
0.000000 0.424970 -0.386307 -0.321761 0.946821 -0.000001 153 82 7
9.125572 3.526140 -2.834455 -0.321761 0.946821 -0.000001 153 82 7
9.125572 3.526139 -3.357170 -0.321761 0.946821 -0.000001 157 87 15
9.125570 -3.515941 -2.834455 1.000000 -0.000000 0.000000 153 82 7
9.125570 -3.515940 -3.357170 1.000000 -0.000000 0.000000 153 82 7
9.125572 3.526139 -3.357170 1.000000 -0.000000 0.000000 152 82 7
9.125572 3.526140 -2.834455 1.000000 -0.000000 0.000000 153 82 7
0.000000 0.424970 -0.386307 0.259111 -0.000000 0.965847 153 82 7
-0.000000 -0.414764 -0.386307 0.259111 -0.000000 0.965847 153 82 7
9.125570 -3.515941 -2.834455 0.259111 -0.000000 0.965847 153 82 7
9.125572 3.526140 -2.834455 0.259111 -0.000000 0.965847 153 82 7
-0.000000 -0.414765 0.008444 -0.321761 -0.946821 -0.000001 153 82 7
-0.000000 -0.414764 -0.386307 -0.321761 -0.946821 -0.000001 153 82 7
9.125570 -3.515941 2.103485 -0.321761 -0.946821 -0.000001 154 84 11
9.125570 -3.515941 2.626201 -0.321761 -0.946821 -0.000001 153 82 7
0.000000 0.424970 0.008444 -0.321761 0.946821 -0.000001 153 82 7
9.125572 3.526140 2.626201 -0.321761 0.946821 -0.000001 170 111 48
9.125572 3.526140 2.103485 -0.321761 0.946821 -0.000001 153 82 7
-0.000000 -0.414764 -0.386307 0.194715 -0.000000 -0.980860 153 82 7
0.000000 0.424970 -0.386307 0.194715 -0.000000 -0.980860 153 82 7
0.304219 0.359030 -0.325915 0.194715 -0.000000 -0.980860 159 95 29
0.304218 -0.348824 -0.325915 0.194715 -0.000000 -0.980860 198 180 178
0.000000 0.424970 0.008444 -0.275739 0.000000 0.961233 100 57 7
-0.000000 -0.414765 0.008444 -0.275739 0.000000 0.961233 153 82 7
9.125570 -3.515941 2.626201 -0.275739 0.000000 0.961233 153 82 7
9.125572 3.526140 2.626201 -0.275739 0.000000 0.961233 130 71 10
9.125570 -3.515941 2.103485 0.046170 -0.523844 -0.850562 154 84 11
-0.000000 -0.414764 -0.386307 0.046170 -0.523844 -0.850562 153 82 7
0.304218 -0.348824 -0.325915 0.046170 -0.523844 -0.850562 199 180 178
8.911668 -3.289844 1.868137 0.046170 -0.523844 -0.850562 166 112 59
9.125570 -3.515941 2.626201 1.000000 -0.000000 -0.000000 153 82 7
9.125570 -3.515941 2.103485 1.000000 -0.000000 -0.000000 154 84 10
9.125572 3.526140 2.103485 1.000000 -0.000000 -0.000000 144 78 7
9.125572 3.526140 2.626201 1.000000 -0.000000 -0.000000 144 74 12
0.000000 0.424970 -0.386307 0.046170 0.523845 -0.850561 153 82 7
9.125572 3.526140 2.103485 0.046170 0.523845 -0.850561 153 82 7
8.911669 3.300045 1.868137 0.046170 0.523845 -0.850561 153 82 7
0.304219 0.359030 -0.325915 0.046170 0.523845 -0.850561 159 95 30
0.304218 -0.348824 -0.325915 -0.789937 0.000001 0.613188 255 255 255
0.304219 0.359030 -0.325915 -0.789937 0.000001 0.613188 255 255 255
0.242014 0.376374 -0.406050 -0.789937 0.000001 0.613188 255 255 255
0.242014 -0.366169 -0.406050 -0.789937 0.000001 0.613188 255 255 255
9.125572 3.526140 2.103485 0.740019 -0.000000 -0.672586 153 82 7
9.125570 -3.515941 2.103485 0.740019 -0.000000 -0.672586 154 84 11
8.911668 -3.289844 1.868137 0.740019 -0.000000 -0.672586 167 111 58
8.911669 3.300045 1.868137 0.740019 -0.000000 -0.672586 152 82 7
8.911668 -3.289844 1.868137 -0.366910 -0.897403 0.245041 188 170 166
0.304218 -0.348824 -0.325915 -0.366910 -0.897403 0.245041 199 181 179
0.242014 -0.366169 -0.406050 -0.366910 -0.897403 0.245041 197 181 179
9.004614 -3.451319 1.339419 -0.366910 -0.897403 0.245041 189 174 173
0.304219 0.359030 -0.325915 -0.366909 0.897404 0.245040 188 171 165
8.911669 3.300045 1.868137 -0.366909 0.897404 0.245040 189 174 173
9.004616 3.461519 1.339419 -0.366909 0.897404 0.245040 189 170 165
0.242014 0.376374 -0.406050 -0.366909 0.897404 0.245040 183 158 142
0.242014 -0.366169 -0.406050 0.163171 -0.000000 -0.986598 255 255 255
0.242014 0.376374 -0.406050 0.163171 -0.000000 -0.986598 254 254 254
0.323724 0.355394 -0.392536 0.163171 -0.000000 -0.986598 231 223 223
0.323724 -0.345189 -0.392536 0.163171 -0.000000 -0.986598 255 255 255
8.911669 3.300045 1.868137 0.984897 -0.000000 0.173141 183 155 140
8.911668 -3.289844 1.868137 0.984897 -0.000000 0.173141 189 173 171
9.004614 -3.451319 1.339419 0.984897 -0.000000 0.173141 189 174 173
9.004616 3.461519 1.339419 0.984897 -0.000000 0.173141 188 169 165
0.242014 -0.366169 -0.406050 -0.248186 -0.897243 -0.365183 199 181 179
0.323724 -0.345189 -0.392536 -0.248186 -0.897243 -0.365183 199 181 179
8.947137 -3.256001 0.777997 -0.248186 -0.897243 -0.365183 196 180 177
9.004614 -3.451319 1.339419 -0.248186 -0.897243 -0.365183 189 174 173
0.323724 0.355394 -0.392536 -0.248185 0.897243 -0.365183 189 174 173
0.242014 0.376374 -0.406050 -0.248185 0.897243 -0.365183 189 174 173
9.004616 3.461519 1.339419 -0.248185 0.897243 -0.365183 189 174 171
8.947139 3.266201 0.777997 -0.248185 0.897243 -0.365183 199 180 178
0.323724 -0.345189 -0.392536 -0.056643 0.000000 0.998394 255 255 255
0.323724 0.355394 -0.392536 -0.056643 0.000000 0.998394 231 223 223
0.184978 0.386010 -0.400408 -0.056643 0.000000 0.998394 255 255 255
0.184978 -0.375805 -0.400408 -0.056643 0.000000 0.998394 255 255 255
9.004616 3.461519 1.339419 0.994800 -0.000000 -0.101845 189 174 173
9.004614 -3.451319 1.339419 0.994800 -0.000000 -0.101845 189 172 169
8.947137 -3.256001 0.777997 0.994800 -0.000000 -0.101845 193 178 177
8.947139 3.266201 0.777997 0.994800 -0.000000 -0.101845 199 181 179
8.947139 3.266201 0.777997 -0.330015 0.797039 0.505785 193 178 177
9.102676 3.551226 0.299423 -0.330015 0.797039 0.505785 197 180 178
0.184978 0.386010 -0.400408 -0.330015 0.797039 0.505785 189 173 170
0.323724 0.355394 -0.392536 -0.330015 0.797039 0.505785 189 174 173
0.184978 -0.375805 -0.400408 0.123235 -0.000000 -0.992378 255 255 255
0.184978 0.386010 -0.400408 0.123235 -0.000000 -0.992378 255 255 255
0.342203 0.352646 -0.380883 0.123235 -0.000000 -0.992378 255 255 255
0.342202 -0.342440 -0.380883 0.123235 -0.000000 -0.992378 255 255 255
8.947139 3.266201 0.777997 0.951034 -0.000000 0.309088 199 181 179
8.947137 -3.256001 0.777997 0.951034 -0.000000 0.309088 199 180 177
9.102674 -3.541027 0.299423 0.951034 -0.000000 0.309088 194 176 174
9.102676 3.551226 0.299423 0.951034 -0.000000 0.309088 199 181 179
9.102674 -3.541027 0.299423 -0.330015 -0.797038 0.505786 194 176 174
8.947137 -3.256001 0.777997 -0.330015 -0.797038 0.505786 199 181 178
0.323724 -0.345189 -0.392536 -0.330015 -0.797038 0.505786 199 181 179
0.184978 -0.375805 -0.400408 -0.330015 -0.797038 0.505786 199 180 177
9.102676 3.551226 0.299423 -0.274149 0.847520 -0.454479 199 181 179
8.967759 3.240610 -0.375019 -0.274149 0.847520 -0.454479 199 181 179
0.342203 0.352646 -0.380883 -0.274149 0.847520 -0.454479 189 174 173
0.184978 0.386010 -0.400408 -0.274149 0.847520 -0.454479 189 174 173
0.342202 -0.342440 -0.380883 -0.048947 0.000000 0.998801 153 82 7
0.342203 0.352646 -0.380883 -0.048947 0.000000 0.998801 153 82 7
0.190506 0.386906 -0.388317 -0.048947 0.000000 0.998801 153 82 6
0.190506 -0.376701 -0.388317 -0.048947 0.000000 0.998801 153 82 7
9.102676 3.551226 0.299423 0.980573 -0.000000 -0.196157 199 181 179
9.102674 -3.541027 0.299423 0.980573 -0.000000 -0.196157 199 181 179
8.967757 -3.230411 -0.375019 0.980573 -0.000000 -0.196157 199 181 179
8.967759 3.240610 -0.375019 0.980573 -0.000000 -0.196157 199 180 178
8.967757 -3.230411 -0.375019 -0.274150 -0.847520 -0.454479 199 181 179
9.102674 -3.541027 0.299423 -0.274150 -0.847520 -0.454479 194 176 174
0.184978 -0.375805 -0.400408 -0.274150 -0.847520 -0.454479 199 180 177
0.342202 -0.342440 -0.380883 -0.274150 -0.847520 -0.454479 199 181 179
0.190506 0.386906 -0.388317 -0.278661 0.855050 0.437308 189 174 172
0.342203 0.352646 -0.380883 -0.278661 0.855050 0.437308 189 174 173
8.967759 3.240610 -0.375019 -0.278661 0.855050 0.437308 198 180 178
9.120600 3.559566 -1.057486 -0.278661 0.855050 0.437308 199 181 179
0.190506 -0.376701 -0.388317 -0.037730 0.000000 -0.999288 255 255 255
0.190506 0.386906 -0.388317 -0.037730 0.000000 -0.999288 255 255 255
0.431870 0.335060 -0.397430 -0.037730 0.000000 -0.999288 255 255 255
0.431870 -0.324855 -0.397430 -0.037730 0.000000 -0.999288 255 255 255
8.967759 3.240610 -0.375019 0.975828 -0.000000 0.218538 199 181 179
8.967757 -3.230411 -0.375019 0.975828 -0.000000 0.218538 199 181 179
9.120596 -3.549367 -1.057486 0.975828 -0.000000 0.218538 199 181 179
9.120600 3.559566 -1.057486 0.975828 -0.000000 0.218538 198 180 178
9.120596 -3.549367 -1.057486 -0.278661 -0.855050 0.437308 199 181 179
8.967757 -3.230411 -0.375019 -0.278661 -0.855050 0.437308 199 181 179
0.342202 -0.342440 -0.380883 -0.278661 -0.855050 0.437308 199 181 179
0.190506 -0.376701 -0.388317 -0.278661 -0.855050 0.437308 198 180 177
0.190506 -0.376701 -0.388317 -0.293145 -0.645546 -0.705221 198 180 177
0.431870 -0.324855 -0.397430 -0.293145 -0.645546 -0.705221 199 181 179
8.864414 -3.066700 -1.531496 -0.293145 -0.645546 -0.705221 191 170 163
9.120596 -3.549367 -1.057486 -0.293145 -0.645546 -0.705221 199 181 179
0.431870 0.335060 -0.397430 -0.293145 0.645547 -0.705220 198 180 177
0.190506 0.386906 -0.388317 -0.293145 0.645547 -0.705220 247 241 234
9.120600 3.559566 -1.057486 -0.293145 0.645547 -0.705220 199 181 179
8.864415 3.076900 -1.531496 -0.293145 0.645547 -0.705220 193 167 155
0.431870 -0.324855 -0.397430 -0.123063 0.000000 0.992399 153 82 7
0.431870 0.335060 -0.397430 -0.123063 0.000000 0.992399 153 82 7
0.204655 0.385376 -0.425606 -0.123063 0.000000 0.992399 153 81 6
0.204655 -0.375170 -0.425606 -0.123063 0.000000 0.992399 153 82 7
9.120600 3.559566 -1.057486 0.879736 -0.000000 -0.475462 199 181 179
9.120596 -3.549367 -1.057486 0.879736 -0.000000 -0.475462 199 181 179
8.864414 -3.066700 -1.531496 0.879736 -0.000000 -0.475462 191 164 150
8.864415 3.076900 -1.531496 0.879736 -0.000000 -0.475462 199 181 179
8.864415 3.076900 -1.531496 -0.187904 0.824116 0.534346 198 180 177
9.053586 3.545314 -2.316729 -0.187904 0.824116 0.534346 189 160 143
0.204655 0.385376 -0.425606 -0.187904 0.824116 0.534346 153 82 7
0.431870 0.335060 -0.397430 -0.187904 0.824116 0.534346 198 180 177
9.053586 3.545314 -2.316729 0.957573 -0.000000 -0.288191 190 171 165
9.053585 -3.535114 -2.316729 0.957573 -0.000000 -0.288191 189 174 173
8.906122 -3.280048 -2.806704 0.957573 -0.000000 -0.288191 182 151 130
8.906124 3.290247 -2.806704 0.957573 -0.000000 -0.288191 190 174 173
8.864415 3.076900 -1.531496 0.972186 -0.000000 0.234210 199 181 179
8.864414 -3.066700 -1.531496 0.972186 -0.000000 0.234210 191 164 150
9.053585 -3.535114 -2.316729 0.972186 -0.000000 0.234210 189 174 173
9.053586 3.545314 -2.316729 0.972186 -0.000000 0.234210 190 171 165
9.053585 -3.535114 -2.316729 -0.187904 -0.824116 0.534345 189 174 173
8.864414 -3.066700 -1.531496 -0.187904 -0.824116 0.534345 191 174 173
0.431870 -0.324855 -0.397430 -0.187904 -0.824116 0.534345 199 181 179
0.204655 -0.375170 -0.425606 -0.187904 -0.824116 0.534345 199 181 179
9.117203 0.316559 -2.860772 0.000001 1.000000 0.000000 153 82 7
9.980707 0.316558 -2.860772 0.000001 1.000000 0.000000 153 83 8
9.980707 0.316558 -3.323455 0.000001 1.000000 0.000000 153 82 7
9.117203 0.316559 -3.323455 0.000001 1.000000 0.000000 153 82 7
9.117201 -0.306357 -2.860772 -1.000000 0.000003 0.000000 255 255 255
9.117203 0.316559 -2.860772 -1.000000 0.000003 0.000000 255 255 255
9.117203 0.316559 -3.323455 -1.000000 0.000003 0.000000 255 255 255
9.117201 -0.306357 -3.323455 -1.000000 0.000003 0.000000 255 255 255
9.117201 -0.306357 -2.860772 0.000000 0.000000 1.000000 153 82 7
9.980707 -0.306358 -2.860772 0.000000 0.000000 1.000000 153 82 7
9.980707 0.316558 -2.860772 0.000000 0.000000 1.000000 153 82 7
9.117203 0.316559 -2.860772 0.000000 0.000000 1.000000 153 82 7
9.980707 0.316558 -2.860772 1.000000 0.000000 -0.000000 153 82 7
9.980707 -0.306358 -2.860772 1.000000 0.000000 -0.000000 153 82 7
9.980707 -0.306358 -3.323455 1.000000 0.000000 -0.000000 153 82 7
9.980707 0.316558 -3.323455 1.000000 0.000000 -0.000000 153 82 7
9.117203 0.316559 -3.323455 0.000000 0.000000 -1.000000 153 82 7
9.980707 0.316558 -3.323455 0.000000 0.000000 -1.000000 153 82 7
9.980707 -0.306358 -3.323455 0.000000 0.000000 -1.000000 153 82 7
9.117201 -0.306357 -3.323455 0.000000 0.000000 -1.000000 153 82 8
9.980707 -0.306358 -2.860772 -0.000001 -1.000000 0.000000 153 82 7
9.117201 -0.306357 -2.860772 -0.000001 -1.000000 0.000000 153 82 7
9.117201 -0.306357 -3.323455 -0.000001 -1.000000 0.000000 153 82 7
9.980707 -0.306358 -3.323455 -0.000001 -1.000000 0.000000 153 82 7
9.117203 0.316559 2.598619 0.000001 1.000000 0.000000 153 82 7
9.980707 0.316558 2.598619 0.000001 1.000000 0.000000 153 82 7
9.980707 0.316558 2.135936 0.000001 1.000000 0.000000 153 82 7
9.117203 0.316559 2.135936 0.000001 1.000000 0.000000 153 82 7
9.117201 -0.306357 2.598619 -1.000000 0.000003 0.000000 255 255 255
9.117203 0.316559 2.598619 -1.000000 0.000003 0.000000 255 255 255
9.117203 0.316559 2.135936 -1.000000 0.000003 0.000000 255 255 255
9.117201 -0.306357 2.135936 -1.000000 0.000003 0.000000 255 255 255
9.117201 -0.306357 2.598619 0.000000 0.000000 1.000000 153 82 7
9.980707 -0.306358 2.598619 0.000000 0.000000 1.000000 153 82 7
9.980707 0.316558 2.598619 0.000000 0.000000 1.000000 153 82 7
9.117203 0.316559 2.598619 0.000000 0.000000 1.000000 153 82 7
9.980707 0.316558 2.598619 1.000000 0.000000 -0.000000 153 82 7
9.980707 -0.306358 2.598619 1.000000 0.000000 -0.000000 153 82 7
9.980707 -0.306358 2.135936 1.000000 0.000000 -0.000000 153 82 7
9.980707 0.316558 2.135936 1.000000 0.000000 -0.000000 153 82 7
9.117203 0.316559 2.135936 0.000000 0.000000 -1.000000 153 83 8
9.980707 0.316558 2.135936 0.000000 0.000000 -1.000000 153 82 7
9.980707 -0.306358 2.135936 0.000000 0.000000 -1.000000 153 82 7
9.117201 -0.306357 2.135936 0.000000 0.000000 -1.000000 153 82 7
9.980707 -0.306358 2.598619 -0.000001 -1.000000 0.000000 153 82 7
9.117201 -0.306357 2.598619 -0.000001 -1.000000 0.000000 153 82 7
9.117201 -0.306357 2.135936 -0.000001 -1.000000 0.000000 153 82 7
9.980707 -0.306358 2.135936 -0.000001 -1.000000 0.000000 153 82 7
-0.000000 -0.414764 -0.781058 -1.000000 0.000001 -0.000000 103 63 14
-0.000000 -0.414765 0.008444 -1.000000 0.000001 -0.000000 153 82 7
0.000000 0.424970 0.008444 -1.000000 0.000001 -0.000000 102 60 11
0.000000 0.424970 -0.781058 -1.000000 0.000001 -0.000000 153 82 7
0.256318 -0.347772 -0.431716 -0.264772 0.000000 -0.964311 255 255 255
0.256318 0.357978 -0.431716 -0.264772 0.000000 -0.964311 255 255 255
8.906124 3.290247 -2.806704 -0.264772 0.000000 -0.964311 255 255 255
8.906122 -3.280048 -2.806704 -0.264772 0.000000 -0.964311 255 255 255
9.053585 -3.535114 -2.316729 -0.386716 -0.831521 -0.398779 189 174 173
0.204655 -0.375170 -0.425606 -0.386716 -0.831521 -0.398779 199 181 179
0.256318 -0.347772 -0.431716 -0.386716 -0.831521 -0.398779 199 181 179
8.906122 -3.280048 -2.806704 -0.386716 -0.831521 -0.398779 182 151 130
0.204655 0.385376 -0.425606 -0.386715 0.831520 -0.398780 168 120 75
9.053586 3.545314 -2.316729 -0.386715 0.831520 -0.398780 189 160 143
8.906124 3.290247 -2.806704 -0.386715 0.831520 -0.398780 189 160 143
0.256318 0.357978 -0.431716 -0.386715 0.831520 -0.398780 171 128 89
0.204655 -0.375170 -0.425606 -0.117431 0.000000 -0.993081 153 82 7
0.204655 0.385376 -0.425606 -0.117431 0.000000 -0.993081 153 81 6
0.256318 0.357978 -0.431716 -0.117431 0.000000 -0.993081 153 81 6
0.256318 -0.347772 -0.431716 -0.117431 0.000000 -0.993081 153 82 7
4 0 1 2 3
4 4 5 6 7
4 8 9 10 11
4 12 13 14 15
4 16 17 18 19
4 20 21 22 23
4 9 24 25 26
4 27 28 29 30
4 31 32 33 34
4 35 36 37 38
4 39 40 41 42
4 43 44 45 46
4 47 48 49 50
4 51 52 53 54
4 55 56 57 58
4 59 60 61 62
4 63 64 65 66
4 67 68 69 70
4 71 72 73 74
4 75 76 77 78
4 79 80 81 82
4 83 84 85 86
4 87 88 89 90
4 91 92 93 94
4 95 96 97 98
4 99 100 101 102
4 103 104 105 106
4 107 108 109 110
4 111 112 113 114
4 115 116 117 118
4 119 120 121 122
4 123 124 125 126
4 127 128 129 130
4 131 132 133 134
4 135 136 137 138
4 139 140 141 142
4 143 144 145 146
4 147 148 149 150
4 151 152 153 154
4 155 156 157 158
4 159 160 161 162
4 163 164 165 166
4 167 168 169 170
4 171 172 173 174
4 175 176 177 178
4 179 180 181 182
4 183 184 185 186
4 187 188 189 190
4 191 192 193 194
4 195 196 197 198
4 199 200 201 202
4 203 204 205 206
4 207 208 209 210
4 211 212 213 214
4 215 216 217 218
4 219 220 221 222
4 223 224 225 226
4 227 228 229 230
4 231 232 233 234
