ply
format ascii 1.0
comment Created by Blender 2.71 (sub 0) - www.blender.org, source file: 'bigBellow.blend'
element vertex 234
property float x
property float y
property float z
property float nx
property float ny
property float nz
property uchar red
property uchar green
property uchar blue
element face 59
property list uchar uint vertex_indices
end_header
0.414764 0.000000 -0.781058 0.000000 -0.271678 -0.962388 153 82 7
-0.424970 0.000000 -0.781058 0.000000 -0.271678 -0.962388 152 81 7
-3.526148 9.125569 -3.357170 0.000000 -0.271678 -0.962388 153 82 7
3.515932 9.125574 -3.357170 0.000000 -0.271678 -0.962388 152 82 7
0.414764 0.000000 -0.386307 0.946821 -0.321761 -0.000001 153 82 7
0.414764 0.000000 -0.781058 0.946821 -0.321761 -0.000001 100 57 7
3.515932 9.125574 -3.357170 0.946821 -0.321761 -0.000001 153 82 7
3.515933 9.125574 -2.834455 0.946821 -0.321761 -0.000001 153 82 7
-0.424970 0.000000 -0.781058 -0.946821 -0.321762 0.000000 153 82 7
-0.424970 -0.000000 -0.386307 -0.946821 -0.321762 0.000000 153 82 7
-3.526148 9.125569 -2.834455 -0.946821 -0.321762 0.000000 153 82 7
-3.526148 9.125569 -3.357170 -0.946821 -0.321762 0.000000 157 87 15
3.515933 9.125574 -2.834455 -0.000001 1.000000 0.000000 153 82 7
3.515932 9.125574 -3.357170 -0.000001 1.000000 0.000000 153 82 7
-3.526148 9.125569 -3.357170 -0.000001 1.000000 0.000000 152 82 7
-3.526148 9.125569 -2.834455 -0.000001 1.000000 0.000000 153 82 7
-0.424970 -0.000000 -0.386307 -0.000000 0.259111 0.965847 153 82 7
0.414764 0.000000 -0.386307 -0.000000 0.259111 0.965847 153 82 7
3.515933 9.125574 -2.834455 -0.000000 0.259111 0.965847 153 82 7
-3.526148 9.125569 -2.834455 -0.000000 0.259111 0.965847 153 82 7
0.414765 0.000000 0.008444 0.946821 -0.321761 -0.000001 153 82 7
3.515932 9.125573 2.103485 0.946821 -0.321761 -0.000001 154 84 11
3.515933 9.125575 2.626201 0.946821 -0.321761 -0.000001 153 82 7
-0.424970 -0.000000 0.008444 -0.946821 -0.321762 -0.000000 153 82 7
-3.526148 9.125569 2.626201 -0.946821 -0.321762 -0.000000 170 111 48
-3.526148 9.125569 2.103485 -0.946821 -0.321762 -0.000000 153 82 7
0.414764 0.000000 -0.386307 -0.000000 0.194715 -0.980860 153 82 7
-0.424970 -0.000000 -0.386307 -0.000000 0.194715 -0.980860 153 82 7
-0.359030 0.304218 -0.325915 -0.000000 0.194715 -0.980860 159 95 29
0.348824 0.304218 -0.325915 -0.000000 0.194715 -0.980860 198 180 178
-0.424970 -0.000000 0.008444 0.000000 -0.275739 0.961233 100 57 7
0.414765 0.000000 0.008444 0.000000 -0.275739 0.961233 153 82 7
3.515933 9.125575 2.626201 0.000000 -0.275739 0.961233 153 82 7
-3.526148 9.125569 2.626201 0.000000 -0.275739 0.961233 130 71 10
3.515932 9.125573 2.103485 0.523845 0.046170 -0.850562 154 84 11
0.414764 0.000000 -0.386307 0.523845 0.046170 -0.850562 153 82 7
0.348824 0.304218 -0.325915 0.523845 0.046170 -0.850562 199 180 178
3.289836 8.911672 1.868137 0.523845 0.046170 -0.850562 166 112 59
3.515933 9.125575 2.626201 -0.000001 1.000000 -0.000002 153 82 7
3.515932 9.125573 2.103485 -0.000001 1.000000 -0.000002 154 84 10
-3.526148 9.125569 2.103485 -0.000001 1.000000 -0.000002 144 78 7
-3.526148 9.125569 2.626201 -0.000001 1.000000 -0.000002 144 74 12
-0.424970 -0.000000 -0.386307 -0.523844 0.046170 -0.850562 153 82 7
-3.526148 9.125569 2.103485 -0.523844 0.046170 -0.850562 153 82 7
-3.300052 8.911667 1.868137 -0.523844 0.046170 -0.850562 153 82 7
-0.359030 0.304218 -0.325915 -0.523844 0.046170 -0.850562 159 95 30
0.348824 0.304218 -0.325915 0.000000 -0.789937 0.613187 255 255 255
-0.359030 0.304218 -0.325915 0.000000 -0.789937 0.613187 255 255 255
-0.376375 0.242014 -0.406050 0.000000 -0.789937 0.613187 255 255 255
0.366169 0.242014 -0.406050 0.000000 -0.789937 0.613187 255 255 255
-3.526148 9.125569 2.103485 -0.000000 0.740020 -0.672585 153 82 7
3.515932 9.125573 2.103485 -0.000000 0.740020 -0.672585 154 84 11
3.289836 8.911672 1.868137 -0.000000 0.740020 -0.672585 167 111 58
-3.300052 8.911667 1.868137 -0.000000 0.740020 -0.672585 152 82 7
3.289836 8.911672 1.868137 0.897404 -0.366909 0.245040 188 170 166
0.348824 0.304218 -0.325915 0.897404 -0.366909 0.245040 199 181 179
0.366169 0.242014 -0.406050 0.897404 -0.366909 0.245040 197 181 179
3.451311 9.004619 1.339419 0.897404 -0.366909 0.245040 189 174 173
-0.359030 0.304218 -0.325915 -0.897403 -0.366910 0.245040 188 171 165
-3.300052 8.911667 1.868137 -0.897403 -0.366910 0.245040 189 174 173
-3.461526 9.004613 1.339419 -0.897403 -0.366910 0.245040 189 170 165
-0.376375 0.242014 -0.406050 -0.897403 -0.366910 0.245040 183 158 142
0.366169 0.242014 -0.406050 -0.000000 0.163171 -0.986598 255 255 255
-0.376375 0.242014 -0.406050 -0.000000 0.163171 -0.986598 254 254 254
-0.355395 0.323724 -0.392536 -0.000000 0.163171 -0.986598 231 223 223
0.345189 0.323724 -0.392536 -0.000000 0.163171 -0.986598 255 255 255
-3.300052 8.911667 1.868137 -0.000001 0.984897 0.173141 183 155 140
3.289836 8.911672 1.868137 -0.000001 0.984897 0.173141 189 173 171
3.451311 9.004619 1.339419 -0.000001 0.984897 0.173141 189 174 173
-3.461526 9.004613 1.339419 -0.000001 0.984897 0.173141 188 169 165
0.366169 0.242014 -0.406050 0.897243 -0.248185 -0.365183 199 181 179
0.345189 0.323724 -0.392536 0.897243 -0.248185 -0.365183 199 181 179
3.255992 8.947141 0.777997 0.897243 -0.248185 -0.365183 196 180 177
3.451311 9.004619 1.339419 0.897243 -0.248185 -0.365183 189 174 173
-0.355395 0.323724 -0.392536 -0.897243 -0.248186 -0.365182 189 174 173
-0.376375 0.242014 -0.406050 -0.897243 -0.248186 -0.365182 189 174 173
-3.461526 9.004613 1.339419 -0.897243 -0.248186 -0.365182 189 174 171
-3.266208 8.947136 0.777997 -0.897243 -0.248186 -0.365182 199 180 178
0.345189 0.323724 -0.392536 0.000000 -0.056643 0.998394 255 255 255
-0.355395 0.323724 -0.392536 0.000000 -0.056643 0.998394 231 223 223
-0.386011 0.184978 -0.400408 0.000000 -0.056643 0.998394 255 255 255
0.375805 0.184978 -0.400408 0.000000 -0.056643 0.998394 255 255 255
-3.461526 9.004613 1.339419 -0.000001 0.994800 -0.101846 189 174 173
3.451311 9.004619 1.339419 -0.000001 0.994800 -0.101846 189 172 169
3.255992 8.947141 0.777997 -0.000001 0.994800 -0.101846 193 178 177
-3.266208 8.947136 0.777997 -0.000001 0.994800 -0.101846 199 181 179
-3.266208 8.947136 0.777997 -0.797039 -0.330016 0.505785 193 178 177
-3.551234 9.102674 0.299423 -0.797039 -0.330016 0.505785 197 180 178
-0.386011 0.184978 -0.400408 -0.797039 -0.330016 0.505785 189 173 170
-0.355395 0.323724 -0.392536 -0.797039 -0.330016 0.505785 189 174 173
0.375805 0.184978 -0.400408 -0.000000 0.123235 -0.992378 255 255 255
-0.386011 0.184978 -0.400408 -0.000000 0.123235 -0.992378 255 255 255
-0.352646 0.342202 -0.380883 -0.000000 0.123235 -0.992378 255 255 255
0.342440 0.342203 -0.380883 -0.000000 0.123235 -0.992378 255 255 255
-3.266208 8.947136 0.777997 -0.000001 0.951034 0.309088 199 181 179
3.255992 8.947141 0.777997 -0.000001 0.951034 0.309088 199 180 177
3.541019 9.102678 0.299423 -0.000001 0.951034 0.309088 194 176 174
-3.551234 9.102674 0.299423 -0.000001 0.951034 0.309088 199 181 179
3.541019 9.102678 0.299423 0.797039 -0.330015 0.505786 194 176 174
3.255992 8.947141 0.777997 0.797039 -0.330015 0.505786 199 181 178
0.345189 0.323724 -0.392536 0.797039 -0.330015 0.505786 199 181 179
0.375805 0.184978 -0.400408 0.797039 -0.330015 0.505786 199 180 177
-3.551234 9.102674 0.299423 -0.847520 -0.274150 -0.454479 199 181 179
-3.240618 8.967757 -0.375019 -0.847520 -0.274150 -0.454479 199 181 179
-0.352646 0.342202 -0.380883 -0.847520 -0.274150 -0.454479 189 174 173
-0.386011 0.184978 -0.400408 -0.847520 -0.274150 -0.454479 189 174 173
0.342440 0.342203 -0.380883 0.000000 -0.048947 0.998801 153 82 7
-0.352646 0.342202 -0.380883 0.000000 -0.048947 0.998801 153 82 7
-0.386907 0.190506 -0.388317 0.000000 -0.048947 0.998801 153 82 6
0.376701 0.190506 -0.388317 0.000000 -0.048947 0.998801 153 82 7
-3.551234 9.102674 0.299423 -0.000001 0.980573 -0.196155 199 181 179
3.541019 9.102678 0.299423 -0.000001 0.980573 -0.196155 199 181 179
3.230403 8.967762 -0.375019 -0.000001 0.980573 -0.196155 199 181 179
-3.240618 8.967757 -0.375019 -0.000001 0.980573 -0.196155 199 180 178
3.230403 8.967762 -0.375019 0.847520 -0.274149 -0.454480 199 181 179
3.541019 9.102678 0.299423 0.847520 -0.274149 -0.454480 194 176 174
0.375805 0.184978 -0.400408 0.847520 -0.274149 -0.454480 199 180 177
0.342440 0.342203 -0.380883 0.847520 -0.274149 -0.454480 199 181 179
-0.386907 0.190506 -0.388317 -0.855050 -0.278661 0.437307 189 174 172
-0.352646 0.342202 -0.380883 -0.855050 -0.278661 0.437307 189 174 173
-3.240618 8.967757 -0.375019 -0.855050 -0.278661 0.437307 198 180 178
-3.559573 9.120597 -1.057486 -0.855050 -0.278661 0.437307 199 181 179
0.376701 0.190506 -0.388317 0.000000 -0.037730 -0.999288 255 255 255
-0.386907 0.190506 -0.388317 0.000000 -0.037730 -0.999288 255 255 255
-0.335061 0.431870 -0.397430 0.000000 -0.037730 -0.999288 255 255 255
0.324855 0.431870 -0.397430 0.000000 -0.037730 -0.999288 255 255 255
-3.240618 8.967757 -0.375019 -0.000001 0.975829 0.218537 199 181 179
3.230403 8.967762 -0.375019 -0.000001 0.975829 0.218537 199 181 179
3.549359 9.120600 -1.057486 -0.000001 0.975829 0.218537 199 181 179
-3.559573 9.120597 -1.057486 -0.000001 0.975829 0.218537 198 180 178
3.549359 9.120600 -1.057486 0.855049 -0.278660 0.437309 199 181 179
3.230403 8.967762 -0.375019 0.855049 -0.278660 0.437309 199 181 179
0.342440 0.342203 -0.380883 0.855049 -0.278660 0.437309 199 181 179
0.376701 0.190506 -0.388317 0.855049 -0.278660 0.437309 198 180 177
0.376701 0.190506 -0.388317 0.645546 -0.293144 -0.705221 198 180 177
0.324855 0.431870 -0.397430 0.645546 -0.293144 -0.705221 199 181 179
3.066691 8.864416 -1.531496 0.645546 -0.293144 -0.705221 191 170 163
3.549359 9.120600 -1.057486 0.645546 -0.293144 -0.705221 199 181 179
-0.335061 0.431870 -0.397430 -0.645546 -0.293145 -0.705220 198 180 177
-0.386907 0.190506 -0.388317 -0.645546 -0.293145 -0.705220 247 241 234
-3.559573 9.120597 -1.057486 -0.645546 -0.293145 -0.705220 199 181 179
-3.076907 8.864413 -1.531496 -0.645546 -0.293145 -0.705220 193 167 155
0.324855 0.431870 -0.397430 0.000000 -0.123063 0.992399 153 82 7
-0.335061 0.431870 -0.397430 0.000000 -0.123063 0.992399 153 82 7
-0.385376 0.204655 -0.425606 0.000000 -0.123063 0.992399 153 81 6
0.375170 0.204655 -0.425606 0.000000 -0.123063 0.992399 153 82 7
-3.559573 9.120597 -1.057486 -0.000000 0.879736 -0.475462 199 181 179
3.549359 9.120600 -1.057486 -0.000000 0.879736 -0.475462 199 181 179
3.066691 8.864416 -1.531496 -0.000000 0.879736 -0.475462 191 164 150
-3.076907 8.864413 -1.531496 -0.000000 0.879736 -0.475462 199 181 179
-3.076907 8.864413 -1.531496 -0.824115 -0.187904 0.534346 198 180 177
-3.545322 9.053584 -2.316729 -0.824115 -0.187904 0.534346 189 160 143
-0.385376 0.204655 -0.425606 -0.824115 -0.187904 0.534346 153 82 7
-0.335061 0.431870 -0.397430 -0.824115 -0.187904 0.534346 198 180 177
-3.545322 9.053584 -2.316729 -0.000001 0.957573 -0.288192 190 171 165
3.535106 9.053588 -2.316729 -0.000001 0.957573 -0.288192 189 174 173
3.280040 8.906125 -2.806704 -0.000001 0.957573 -0.288192 182 151 130
-3.290254 8.906120 -2.806704 -0.000001 0.957573 -0.288192 190 174 173
-3.076907 8.864413 -1.531496 -0.000000 0.972186 0.234210 199 181 179
3.066691 8.864416 -1.531496 -0.000000 0.972186 0.234210 191 164 150
3.535106 9.053588 -2.316729 -0.000000 0.972186 0.234210 189 174 173
-3.545322 9.053584 -2.316729 -0.000000 0.972186 0.234210 190 171 165
3.535106 9.053588 -2.316729 0.824116 -0.187903 0.534346 189 174 173
3.066691 8.864416 -1.531496 0.824116 -0.187903 0.534346 191 174 173
0.324855 0.431870 -0.397430 0.824116 -0.187903 0.534346 199 181 179
0.375170 0.204655 -0.425606 0.824116 -0.187903 0.534346 199 181 179
-0.316566 9.117203 -2.860772 -1.000000 -0.000001 0.000000 153 82 7
-0.316567 9.980707 -2.860772 -1.000000 -0.000001 0.000000 153 83 8
-0.316567 9.980707 -3.323455 -1.000000 -0.000001 0.000000 153 82 7
-0.316566 9.117203 -3.323455 -1.000000 -0.000001 0.000000 153 82 7
0.306350 9.117201 -2.860772 -0.000003 -1.000000 0.000000 255 255 255
-0.316566 9.117203 -2.860772 -0.000003 -1.000000 0.000000 255 255 255
-0.316566 9.117203 -3.323455 -0.000003 -1.000000 0.000000 255 255 255
0.306350 9.117201 -3.323455 -0.000003 -1.000000 0.000000 255 255 255
0.306350 9.117201 -2.860772 -0.000000 0.000000 1.000000 153 82 7
0.306349 9.980707 -2.860772 -0.000000 0.000000 1.000000 153 82 7
-0.316567 9.980707 -2.860772 -0.000000 0.000000 1.000000 153 82 7
-0.316566 9.117203 -2.860772 -0.000000 0.000000 1.000000 153 82 7
-0.316567 9.980707 -2.860772 0.000000 1.000000 -0.000000 153 82 7
0.306349 9.980707 -2.860772 0.000000 1.000000 -0.000000 153 82 7
0.306349 9.980707 -3.323455 0.000000 1.000000 -0.000000 153 82 7
-0.316567 9.980707 -3.323455 0.000000 1.000000 -0.000000 153 82 7
-0.316566 9.117203 -3.323455 -0.000000 0.000000 -1.000000 153 82 7
-0.316567 9.980707 -3.323455 -0.000000 0.000000 -1.000000 153 82 7
0.306349 9.980707 -3.323455 -0.000000 0.000000 -1.000000 153 82 7
0.306350 9.117201 -3.323455 -0.000000 0.000000 -1.000000 153 82 8
0.306349 9.980707 -2.860772 1.000000 0.000001 0.000000 153 82 7
0.306350 9.117201 -2.860772 1.000000 0.000001 0.000000 153 82 7
0.306350 9.117201 -3.323455 1.000000 0.000001 0.000000 153 82 7
0.306349 9.980707 -3.323455 1.000000 0.000001 0.000000 153 82 7
-0.316566 9.117203 2.598619 -1.000000 -0.000001 0.000000 153 82 7
-0.316567 9.980707 2.598619 -1.000000 -0.000001 0.000000 153 82 7
-0.316567 9.980707 2.135936 -1.000000 -0.000001 0.000000 153 82 7
-0.316566 9.117203 2.135936 -1.000000 -0.000001 0.000000 153 82 7
0.306350 9.117201 2.598619 -0.000003 -1.000000 0.000000 255 255 255
-0.316566 9.117203 2.598619 -0.000003 -1.000000 0.000000 255 255 255
-0.316566 9.117203 2.135936 -0.000003 -1.000000 0.000000 255 255 255
0.306350 9.117201 2.135936 -0.000003 -1.000000 0.000000 255 255 255
0.306350 9.117201 2.598619 -0.000000 0.000000 1.000000 153 82 7
0.306349 9.980707 2.598619 -0.000000 0.000000 1.000000 153 82 7
-0.316567 9.980707 2.598619 -0.000000 0.000000 1.000000 153 82 7
-0.316566 9.117203 2.598619 -0.000000 0.000000 1.000000 153 82 7
-0.316567 9.980707 2.598619 0.000000 1.000000 -0.000000 153 82 7
0.306349 9.980707 2.598619 0.000000 1.000000 -0.000000 153 82 7
0.306349 9.980707 2.135936 0.000000 1.000000 -0.000000 153 82 7
-0.316567 9.980707 2.135936 0.000000 1.000000 -0.000000 153 82 7
-0.316566 9.117203 2.135936 -0.000000 0.000000 -1.000000 153 83 8
-0.316567 9.980707 2.135936 -0.000000 0.000000 -1.000000 153 82 7
0.306349 9.980707 2.135936 -0.000000 0.000000 -1.000000 153 82 7
0.306350 9.117201 2.135936 -0.000000 0.000000 -1.000000 153 82 7
0.306349 9.980707 2.598619 1.000000 0.000001 0.000000 153 82 7
0.306350 9.117201 2.598619 1.000000 0.000001 0.000000 153 82 7
0.306350 9.117201 2.135936 1.000000 0.000001 0.000000 153 82 7
0.306349 9.980707 2.135936 1.000000 0.000001 0.000000 153 82 7
0.414764 0.000000 -0.781058 0.000000 -1.000000 -0.000000 103 63 14
0.414765 0.000000 0.008444 0.000000 -1.000000 -0.000000 153 82 7
-0.424970 -0.000000 0.008444 0.000000 -1.000000 -0.000000 102 60 11
-0.424970 0.000000 -0.781058 0.000000 -1.000000 -0.000000 153 82 7
0.347772 0.256318 -0.431716 0.000000 -0.264772 -0.964311 255 255 255
-0.357978 0.256318 -0.431716 0.000000 -0.264772 -0.964311 255 255 255
-3.290254 8.906120 -2.806704 0.000000 -0.264772 -0.964311 255 255 255
3.280040 8.906125 -2.806704 0.000000 -0.264772 -0.964311 255 255 255
3.535106 9.053588 -2.316729 0.831521 -0.386715 -0.398779 189 174 173
0.375170 0.204655 -0.425606 0.831521 -0.386715 -0.398779 199 181 179
0.347772 0.256318 -0.431716 0.831521 -0.386715 -0.398779 199 181 179
3.280040 8.906125 -2.806704 0.831521 -0.386715 -0.398779 182 151 130
-0.385376 0.204655 -0.425606 -0.831520 -0.386716 -0.398780 168 120 75
-3.545322 9.053584 -2.316729 -0.831520 -0.386716 -0.398780 189 160 143
-3.290254 8.906120 -2.806704 -0.831520 -0.386716 -0.398780 189 160 143
-0.357978 0.256318 -0.431716 -0.831520 -0.386716 -0.398780 171 128 89
0.375170 0.204655 -0.425606 0.000000 -0.117431 -0.993081 153 82 7
-0.385376 0.204655 -0.425606 0.000000 -0.117431 -0.993081 153 81 6
-0.357978 0.256318 -0.431716 0.000000 -0.117431 -0.993081 153 81 6
0.347772 0.256318 -0.431716 0.000000 -0.117431 -0.993081 153 82 7
4 0 1 2 3
4 4 5 6 7
4 8 9 10 11
4 12 13 14 15
4 16 17 18 19
4 20 4 21 22
4 9 23 24 25
4 26 27 28 29
4 30 31 32 33
4 34 35 36 37
4 38 39 40 41
4 42 43 44 45
4 46 47 48 49
4 50 51 52 53
4 54 55 56 57
4 58 59 60 61
4 62 63 64 65
4 66 67 68 69
4 70 71 72 73
4 74 75 76 77
4 78 79 80 81
4 82 83 84 85
4 86 87 88 89
4 90 91 92 93
4 94 95 96 97
4 98 99 100 101
4 102 103 104 105
4 106 107 108 109
4 110 111 112 113
4 114 115 116 117
4 118 119 120 121
4 122 123 124 125
4 126 127 128 129
4 130 131 132 133
4 134 135 136 137
4 138 139 140 141
4 142 143 144 145
4 146 147 148 149
4 150 151 152 153
4 154 155 156 157
4 158 159 160 161
4 162 163 164 165
4 166 167 168 169
4 170 171 172 173
4 174 175 176 177
4 178 179 180 181
4 182 183 184 185
4 186 187 188 189
4 190 191 192 193
4 194 195 196 197
4 198 199 200 201
4 202 203 204 205
4 206 207 208 209
4 210 211 212 213
4 214 215 216 217
4 218 219 220 221
4 222 223 224 225
4 226 227 228 229
4 230 231 232 233
