ply
format ascii 1.0
comment Created by Blender 2.71 (sub 0) - www.blender.org, source file: 'bigBellow.blend'
element vertex 176
property float x
property float y
property float z
property float nx
property float ny
property float nz
property uchar red
property uchar green
property uchar blue
element face 44
property list uchar uint vertex_indices
end_header
-0.428367 -3.936046 2.495937 -1.000000 0.000000 -0.000000 97 54 9
-0.428367 -4.792779 2.495937 -1.000000 0.000000 -0.000000 96 53 8
-0.428367 -4.792779 3.352670 -1.000000 0.000000 -0.000000 96 53 8
-0.428367 -3.936046 3.352670 -1.000000 0.000000 -0.000000 96 53 8
-0.428367 -3.936046 3.352670 0.000000 1.000000 -0.000000 96 53 8
0.428367 -3.936046 3.352670 0.000000 1.000000 -0.000000 96 53 8
0.428367 -3.936046 2.495937 0.000000 1.000000 -0.000000 98 55 11
-0.428367 -3.936046 2.495937 0.000000 1.000000 -0.000000 96 53 8
0.428367 -3.936046 3.352670 1.000000 0.000000 -0.000000 96 53 8
0.428367 -4.792779 3.352670 1.000000 0.000000 -0.000000 96 53 8
0.428367 -4.792779 2.495937 1.000000 0.000000 -0.000000 96 53 8
0.428367 -3.936046 2.495937 1.000000 0.000000 -0.000000 96 53 8
-0.428367 -4.792779 2.495937 0.000000 -1.000000 -0.000000 96 53 8
0.428367 -4.792779 2.495937 0.000000 -1.000000 -0.000000 96 53 8
0.428367 -4.792779 3.352670 0.000000 -1.000000 -0.000000 96 53 8
-0.428367 -4.792779 3.352670 0.000000 -1.000000 -0.000000 96 53 8
-0.428367 -4.792779 2.495937 -0.000000 0.000000 -1.000000 96 53 8
-0.428367 -3.936046 2.495937 -0.000000 0.000000 -1.000000 96 53 8
0.428367 -3.936046 2.495937 -0.000000 0.000000 -1.000000 96 53 8
0.428367 -4.792779 2.495937 -0.000000 0.000000 -1.000000 96 53 8
0.428367 -4.792779 3.352670 -0.000000 0.000000 1.000000 96 53 8
0.428367 -3.936046 3.352670 -0.000000 0.000000 1.000000 96 53 8
-0.428367 -3.936046 3.352670 -0.000000 0.000000 1.000000 96 53 8
-0.428367 -4.792779 3.352670 -0.000000 0.000000 1.000000 96 53 8
-0.213261 -5.370618 3.171229 -1.000000 0.000000 0.000000 81 50 16
-0.213261 -4.630433 3.171229 -1.000000 0.000000 0.000000 41 40 36
-0.213261 -4.630433 2.744707 -1.000000 0.000000 0.000000 40 40 36
-0.213261 -5.370618 2.744707 -1.000000 0.000000 0.000000 95 53 9
-0.213261 -4.630433 3.171229 0.000000 1.000000 -0.000000 255 255 255
0.213261 -4.630433 3.171229 0.000000 1.000000 -0.000000 255 255 255
0.213261 -4.630433 2.744707 0.000000 1.000000 -0.000000 255 255 255
-0.213261 -4.630433 2.744707 0.000000 1.000000 -0.000000 255 255 255
0.213261 -4.630433 3.171229 1.000000 0.000000 -0.000000 40 40 36
0.213261 -5.370618 3.171229 1.000000 0.000000 -0.000000 53 42 29
0.213261 -5.370618 2.744707 1.000000 0.000000 -0.000000 55 42 29
0.213261 -4.630433 2.744707 1.000000 0.000000 -0.000000 40 40 36
-0.213261 -5.370618 2.744707 0.000000 0.121536 0.992587 96 53 8
0.213261 -5.370618 2.744707 0.000000 0.121536 0.992587 96 53 8
0.255959 -5.021902 2.702009 0.000000 0.121536 0.992587 96 53 8
-0.255959 -5.021902 2.702009 0.000000 0.121536 0.992587 96 53 8
-0.213261 -5.370618 2.744707 -0.000000 0.000000 -1.000000 84 51 13
-0.213261 -4.630433 2.744707 -0.000000 0.000000 -1.000000 40 40 36
0.213261 -4.630433 2.744707 -0.000000 0.000000 -1.000000 40 40 36
0.213261 -5.370618 2.744707 -0.000000 0.000000 -1.000000 96 53 8
0.213261 -5.370618 3.171229 -0.000000 0.000000 1.000000 49 41 32
0.213261 -4.630433 3.171229 -0.000000 0.000000 1.000000 40 40 36
-0.213261 -4.630433 3.171229 -0.000000 0.000000 1.000000 40 40 36
-0.213261 -5.370618 3.171229 -0.000000 0.000000 1.000000 50 42 30
-0.255959 -5.021902 2.702009 0.000000 0.000000 -1.000000 96 53 8
0.255959 -5.021902 2.702009 0.000000 0.000000 -1.000000 96 53 8
0.251901 -5.483600 2.702009 0.000000 0.000000 -1.000000 96 53 8
-0.251901 -5.392801 2.702009 0.000000 0.000000 -1.000000 96 53 8
0.213261 -5.370618 3.171229 0.000000 0.121536 -0.992587 117 80 41
-0.213261 -5.370618 3.171229 0.000000 0.121536 -0.992587 102 61 19
-0.255959 -5.021902 3.213927 0.000000 0.121536 -0.992587 96 53 8
0.255959 -5.021902 3.213927 0.000000 0.121536 -0.992587 110 72 31
0.213261 -5.370618 2.744707 -0.992587 0.121535 0.000000 96 53 8
0.213261 -5.370618 3.171229 -0.992587 0.121535 0.000000 96 53 8
0.255959 -5.021902 3.213927 -0.992587 0.121535 0.000000 96 53 8
0.255959 -5.021902 2.702009 -0.992587 0.121535 0.000000 100 58 14
-0.213261 -5.370618 3.171229 0.992587 0.121535 0.000000 103 62 20
-0.213261 -5.370618 2.744707 0.992587 0.121535 0.000000 113 74 33
-0.255959 -5.021902 2.702009 0.992587 0.121535 0.000000 175 153 131
-0.255959 -5.021902 3.213927 0.992587 0.121535 0.000000 97 55 11
-0.251901 -5.392801 2.702009 -0.046213 -0.064146 -0.996870 96 53 8
0.251901 -5.483600 2.702009 -0.046213 -0.064146 -0.996870 96 53 8
-0.282796 -5.951064 2.739364 -0.046213 -0.064146 -0.996870 96 53 8
-0.459882 -5.551325 2.739364 -0.046213 -0.064146 -0.996870 96 53 8
0.255959 -5.021902 3.213927 0.000000 -0.000000 1.000000 96 53 8
-0.255959 -5.021902 3.213927 0.000000 -0.000000 1.000000 96 53 8
-0.251901 -5.392801 3.213927 0.000000 -0.000000 1.000000 96 53 8
0.251901 -5.483600 3.213927 0.000000 -0.000000 1.000000 96 53 8
0.255959 -5.021902 2.702009 0.999961 -0.008790 0.000000 96 53 8
0.255959 -5.021902 3.213927 0.999961 -0.008790 0.000000 96 53 8
0.251901 -5.483600 3.213927 0.999961 -0.008790 0.000000 96 53 8
0.251901 -5.483600 2.702009 0.999961 -0.008790 0.000000 96 53 8
-0.255959 -5.021902 3.213927 -0.999940 -0.010941 0.000000 96 53 8
-0.255959 -5.021902 2.702009 -0.999940 -0.010941 0.000000 96 53 8
-0.251901 -5.392801 2.702009 -0.999940 -0.010941 0.000000 96 53 8
-0.251901 -5.392801 3.213927 -0.999940 -0.010941 0.000000 96 53 8
-0.459882 -5.551325 2.739364 0.339661 0.221038 -0.914206 96 53 8
-0.282796 -5.951064 2.739364 0.339661 0.221038 -0.914206 96 53 8
-0.895836 -5.844477 2.506512 0.339661 0.221038 -0.914206 96 53 8
-0.827368 -5.455598 2.656830 0.339661 0.221038 -0.914206 96 53 8
0.251901 -5.483600 3.213927 -0.046213 -0.064146 0.996870 96 53 8
-0.251901 -5.392801 3.213927 -0.046213 -0.064146 0.996870 96 53 8
-0.459882 -5.551325 3.176572 -0.046213 -0.064146 0.996870 96 53 8
-0.282796 -5.951064 3.176572 -0.046213 -0.064146 0.996870 96 53 8
0.251901 -5.483600 2.702009 0.658190 -0.752852 0.000000 96 53 8
0.251901 -5.483600 3.213927 0.658190 -0.752852 0.000000 96 53 8
-0.282796 -5.951064 3.176572 0.658190 -0.752852 0.000000 96 53 8
-0.282796 -5.951064 2.739364 0.658190 -0.752852 0.000000 96 53 8
-0.251901 -5.392801 3.213927 -0.606193 0.795318 0.000000 96 53 8
-0.251901 -5.392801 2.702009 -0.606193 0.795318 0.000000 96 53 9
-0.459882 -5.551325 2.739364 -0.606193 0.795318 0.000000 96 53 8
-0.459882 -5.551325 3.176572 -0.606193 0.795318 0.000000 96 53 8
-0.827368 -5.455598 2.656830 0.257311 0.142019 -0.955836 96 53 8
-0.895836 -5.844477 2.506512 0.257311 0.142019 -0.955836 96 53 8
-1.617149 -5.687455 2.409772 0.257311 0.142019 -0.955836 96 53 8
-1.550573 -5.309317 2.409772 0.257311 0.142019 -0.955836 96 53 8
-0.282796 -5.951064 3.176572 -0.407529 -0.224835 0.885082 96 53 8
-0.459882 -5.551325 3.176572 -0.407529 -0.224835 0.885082 96 53 8
-0.827368 -5.455598 3.051689 -0.407529 -0.224835 0.885082 96 53 8
-0.895836 -5.844477 2.901372 -0.407529 -0.224835 0.885082 96 53 8
-0.282796 -5.951064 2.739364 -0.171297 -0.985219 0.000000 96 53 8
-0.282796 -5.951064 3.176572 -0.171297 -0.985219 0.000000 96 53 8
-0.895836 -5.844477 2.901372 -0.171297 -0.985219 0.000000 96 53 8
-0.895836 -5.844477 2.506512 -0.171297 -0.985219 0.000000 96 53 8
-0.459882 -5.551325 3.176572 0.252078 0.967707 0.000000 96 53 8
-0.459882 -5.551325 2.739364 0.252078 0.967707 0.000000 96 53 8
-0.827368 -5.455598 2.656830 0.252078 0.967707 0.000000 96 53 8
-0.827368 -5.455598 3.051689 0.252078 0.967707 0.000000 96 53 8
-1.550573 -5.309317 2.409772 0.051648 -0.006902 -0.998641 96 53 8
-1.617149 -5.687455 2.409772 0.051648 -0.006902 -0.998641 96 53 8
-2.368569 -5.324298 2.367569 0.051648 -0.006902 -0.998641 96 53 8
-2.330478 -4.919151 2.367569 0.051648 -0.006902 -0.998641 96 53 8
-0.895836 -5.844477 2.901372 -0.270328 -0.139106 0.952666 96 53 8
-0.827368 -5.455598 3.051689 -0.270328 -0.139106 0.952666 96 53 8
-1.550573 -5.309317 2.793726 -0.270328 -0.139106 0.952666 96 53 8
-1.617149 -5.687455 2.793726 -0.270328 -0.139106 0.952666 96 53 8
-0.895836 -5.844477 2.506512 -0.212707 -0.977116 0.000000 96 53 8
-0.895836 -5.844477 2.901372 -0.212707 -0.977116 0.000000 96 53 8
-1.617149 -5.687455 2.793726 -0.212707 -0.977116 0.000000 96 53 8
-1.617149 -5.687455 2.409772 -0.212707 -0.977116 0.000000 96 53 8
-0.827368 -5.455598 3.051689 0.198253 0.980151 0.000000 96 53 8
-0.827368 -5.455598 2.656830 0.198253 0.980151 0.000000 96 53 8
-1.550573 -5.309317 2.409772 0.198253 0.980151 0.000000 96 53 8
-1.550573 -5.309317 2.793726 0.198253 0.980151 0.000000 96 53 8
-2.330478 -4.919151 2.367569 -0.324795 0.017735 -0.945618 96 53 8
-2.368569 -5.324298 2.367569 -0.324795 0.017735 -0.945618 96 53 8
-2.930440 -4.933834 2.573365 -0.324795 0.017735 -0.945618 96 53 8
-2.925441 -4.549862 2.573365 -0.324795 0.017735 -0.945618 96 53 8
-1.617149 -5.687455 2.793726 -0.023551 0.003147 0.999718 96 53 8
-1.550573 -5.309317 2.793726 -0.023551 0.003147 0.999718 96 53 8
-2.330478 -4.919151 2.774503 -0.023551 0.003147 0.999718 96 53 8
-2.368569 -5.324298 2.774503 -0.023551 0.003147 0.999718 96 53 8
-1.617149 -5.687455 2.409772 -0.435140 -0.900363 0.000000 96 53 8
-1.617149 -5.687455 2.793726 -0.435140 -0.900363 0.000000 96 53 8
-2.368569 -5.324298 2.774503 -0.435140 -0.900363 0.000000 96 53 8
-2.368569 -5.324298 2.367569 -0.435140 -0.900363 0.000000 96 53 8
-1.550573 -5.309317 2.793726 0.447409 0.894329 0.000000 96 53 8
-1.550573 -5.309317 2.409772 0.447409 0.894329 0.000000 96 53 8
-2.330478 -4.919151 2.367569 0.447409 0.894329 0.000000 96 53 8
-2.330478 -4.919151 2.774503 0.447409 0.894329 0.000000 96 53 8
-2.925441 -4.549862 2.573365 -0.213194 0.002775 -0.977006 96 53 8
-2.930440 -4.933834 2.573365 -0.213194 0.002775 -0.977006 96 53 8
-3.811661 -4.825580 2.765966 -0.213194 0.002775 -0.977006 96 53 8
-3.806663 -4.441608 2.765966 -0.213194 0.002775 -0.977006 96 53 8
-2.368569 -5.324298 2.774503 0.291874 -0.015938 0.956324 96 53 8
-2.330478 -4.919151 2.774503 0.291874 -0.015938 0.956324 96 53 8
-2.925441 -4.549862 2.957369 0.291874 -0.015938 0.956324 96 53 8
-2.930440 -4.933834 2.957369 0.291874 -0.015938 0.956324 96 53 8
-2.368569 -5.324298 2.367569 -0.570669 -0.821181 0.000000 96 53 8
-2.368569 -5.324298 2.774503 -0.570669 -0.821181 0.000000 96 53 8
-2.930440 -4.933834 2.957369 -0.570669 -0.821181 0.000000 96 53 8
-2.930440 -4.933834 2.573365 -0.570669 -0.821181 0.000000 96 53 9
-2.330478 -4.919151 2.774503 0.527364 0.849639 0.000000 96 53 8
-2.330478 -4.919151 2.367569 0.527364 0.849639 0.000000 96 53 8
-2.925441 -4.549862 2.573365 0.527364 0.849639 0.000000 96 53 8
-2.925441 -4.549862 2.957369 0.527364 0.849639 0.000000 96 53 8
-3.811661 -4.825580 3.149970 -0.999915 0.013016 0.000000 98 56 12
-3.806663 -4.441608 3.149970 -0.999915 0.013016 0.000000 96 53 8
-3.806663 -4.441608 2.765966 -0.999915 0.013016 0.000000 96 53 8
-3.811661 -4.825580 2.765966 -0.999915 0.013016 0.000000 96 53 8
-2.930440 -4.933834 2.957369 0.213194 -0.002775 0.977006 96 53 8
-2.925441 -4.549862 2.957369 0.213194 -0.002775 0.977006 96 53 8
-3.806663 -4.441608 3.149970 0.213194 -0.002775 0.977006 96 53 8
-3.811661 -4.825580 3.149970 0.213194 -0.002775 0.977006 96 53 8
-2.930440 -4.933834 2.573365 -0.121929 -0.992539 0.000000 96 53 8
-2.930440 -4.933834 2.957369 -0.121929 -0.992539 0.000000 96 53 8
-3.811661 -4.825580 3.149970 -0.121929 -0.992539 0.000000 96 53 8
-3.811661 -4.825580 2.765966 -0.121929 -0.992539 0.000000 96 53 8
-2.925441 -4.549862 2.957369 0.121929 0.992539 0.000000 96 53 8
-2.925441 -4.549862 2.573365 0.121929 0.992539 0.000000 96 53 8
-3.806663 -4.441608 2.765966 0.121929 0.992539 0.000000 96 53 8
-3.806663 -4.441608 3.149970 0.121929 0.992539 0.000000 96 53 8
4 0 1 2 3
4 4 5 6 7
4 8 9 10 11
4 12 13 14 15
4 16 17 18 19
4 20 21 22 23
4 24 25 26 27
4 28 29 30 31
4 32 33 34 35
4 36 37 38 39
4 40 41 42 43
4 44 45 46 47
4 48 49 50 51
4 52 53 54 55
4 56 57 58 59
4 60 61 62 63
4 64 65 66 67
4 68 69 70 71
4 72 73 74 75
4 76 77 78 79
4 80 81 82 83
4 84 85 86 87
4 88 89 90 91
4 92 93 94 95
4 96 97 98 99
4 100 101 102 103
4 104 105 106 107
4 108 109 110 111
4 112 113 114 115
4 116 117 118 119
4 120 121 122 123
4 124 125 126 127
4 128 129 130 131
4 132 133 134 135
4 136 137 138 139
4 140 141 142 143
4 144 145 146 147
4 148 149 150 151
4 152 153 154 155
4 156 157 158 159
4 160 161 162 163
4 164 165 166 167
4 168 169 170 171
4 172 173 174 175
