ply
format ascii 1.0
comment Created by Blender 2.71 (sub 0) - www.blender.org, source file: 'foundry.blend'
element vertex 463
property float x
property float y
property float z
property float nx
property float ny
property float nz
property uchar red
property uchar green
property uchar blue
element face 130
property list uchar uint vertex_indices
end_header
3.500000 3.500000 0.000000 0.000000 1.000000 0.000000 84 79 78
-3.500000 3.500000 0.000000 0.000000 1.000000 0.000000 84 79 78
0.219482 3.500000 0.875963 0.000000 1.000000 0.000000 84 79 78
2.738725 3.500000 0.875963 0.000000 1.000000 0.000000 84 79 78
3.500000 3.500000 4.491759 1.000000 0.000000 -0.000000 84 79 78
3.500000 -3.500000 4.491759 1.000000 0.000000 -0.000000 84 79 78
3.500000 -3.500000 0.000000 1.000000 0.000000 -0.000000 84 79 78
3.500000 3.500000 0.000000 1.000000 0.000000 -0.000000 84 79 78
-3.500000 -3.500000 0.000000 0.000000 -1.000000 -0.000000 84 79 78
3.500000 -3.500000 0.000000 0.000000 -1.000000 -0.000000 84 79 78
3.500000 -3.500000 4.491759 0.000000 -1.000000 -0.000000 84 79 78
-3.500000 -3.500000 4.491759 0.000000 -1.000000 -0.000000 84 79 78
-3.500000 -3.500000 0.000000 -0.000000 0.000000 -1.000000 84 79 78
-3.500000 3.500000 0.000000 -0.000000 0.000000 -1.000000 84 79 78
3.500000 3.500000 0.000000 -0.000000 0.000000 -1.000000 84 79 78
3.500000 -3.500000 0.000000 -0.000000 0.000000 -1.000000 84 79 78
-3.500000 -3.500000 4.491759 0.000000 0.000000 1.000000 84 79 78
3.500000 -3.500000 4.491759 0.000000 0.000000 1.000000 84 79 78
0.040000 -3.040000 4.491759 0.000000 0.000000 1.000000 84 79 78
-3.040000 -3.040000 4.491759 0.000000 0.000000 1.000000 84 79 78
-3.040000 -3.040000 4.491759 0.000000 0.999798 0.020079 84 79 78
0.040000 -3.040000 4.491759 0.000000 0.999798 0.020079 84 79 78
0.000000 -3.000000 2.500000 0.000000 0.999798 0.020079 84 79 78
-3.000000 -3.000000 2.500000 0.000000 0.999798 0.020079 84 79 78
3.500000 3.500000 4.491759 -0.000000 0.000000 1.000000 84 79 78
0.040000 3.040000 4.491759 -0.000000 0.000000 1.000000 84 79 78
-3.500000 3.500000 4.491759 0.000000 -0.000000 1.000000 84 79 78
-3.040000 3.040000 4.491759 0.000000 -0.000000 1.000000 84 79 78
0.000000 -3.000000 2.500000 -0.000000 0.000000 1.000000 161 151 149
0.000000 3.000000 2.500000 -0.000000 0.000000 1.000000 157 147 145
-3.000000 3.000000 2.500000 -0.000000 0.000000 1.000000 161 151 149
-3.000000 -3.000000 2.500000 -0.000000 0.000000 1.000000 118 110 109
0.040000 -3.040000 4.491759 -0.999798 0.000000 0.020079 84 79 78
0.040000 3.040000 4.491759 -0.999798 0.000000 0.020079 84 79 78
0.000000 3.000000 2.500000 -0.999798 0.000000 0.020079 117 110 109
0.000000 -3.000000 2.500000 -0.999798 0.000000 0.020079 86 81 80
0.040000 3.040000 4.491759 0.000000 -0.999798 0.020079 84 79 78
-3.040000 3.040000 4.491759 0.000000 -0.999798 0.020079 84 79 78
-3.000000 3.000000 2.500000 0.000000 -0.999798 0.020079 84 79 78
0.000000 3.000000 2.500000 0.000000 -0.999798 0.020079 117 110 109
-3.000000 3.000000 2.500000 0.999700 -0.005016 0.023962 84 79 78
-3.040000 3.040000 4.491759 0.999700 -0.005016 0.023962 84 79 78
-3.028162 -0.821808 2.874894 0.999700 -0.005016 0.023962 84 79 78
-3.011838 -0.886209 2.495000 0.999700 -0.005016 0.023962 84 79 78
2.738725 3.500000 0.875963 0.000000 -0.099974 0.994990 255 54 5
0.219482 3.500000 0.875963 0.000000 -0.099974 0.994990 255 75 26
0.219482 -2.408646 0.282281 0.000000 -0.099974 0.994990 255 228 170
2.738725 -2.408646 0.282281 0.000000 -0.099974 0.994990 255 228 170
3.500000 3.500000 4.491759 -0.000000 1.000000 0.000000 84 79 78
2.738725 3.500000 2.492511 -0.000000 1.000000 0.000000 84 79 78
-3.500000 3.500000 4.491759 0.000000 1.000000 -0.000000 84 79 78
0.219482 3.500000 2.492511 0.000000 1.000000 -0.000000 84 79 78
0.219482 -2.408646 1.898828 0.000000 1.000000 -0.000000 211 189 146
2.738725 -2.408646 1.898828 0.000000 1.000000 -0.000000 249 223 167
2.738725 -2.408646 0.282281 0.000000 1.000000 -0.000000 255 228 170
0.219482 -2.408646 0.282281 0.000000 1.000000 -0.000000 255 228 170
2.738725 3.500000 2.492511 -1.000000 0.000000 0.000000 249 223 167
2.738725 3.500000 0.875963 -1.000000 0.000000 0.000000 255 54 5
2.738725 -2.408646 0.282281 -1.000000 0.000000 0.000000 255 228 170
2.738725 -2.408646 1.898828 -1.000000 0.000000 0.000000 255 228 170
0.219482 3.500000 2.492511 0.000000 0.099973 -0.994990 124 115 99
2.738725 3.500000 2.492511 0.000000 0.099973 -0.994990 248 222 167
2.738725 -2.408646 1.898828 0.000000 0.099973 -0.994990 255 228 170
0.219482 -2.408646 1.898828 0.000000 0.099973 -0.994990 255 228 170
0.219482 3.500000 0.875963 1.000000 -0.000000 0.000000 255 76 26
0.219482 3.500000 2.492511 1.000000 -0.000000 0.000000 125 117 100
0.219482 -2.408646 1.898828 1.000000 -0.000000 0.000000 255 228 170
0.219482 -2.408646 0.282281 1.000000 -0.000000 0.000000 255 228 170
1.550893 -4.561824 8.546581 -0.373771 -0.533297 -0.758874 28 26 26
1.916985 -4.647655 8.421570 -0.373771 -0.533297 -0.758874 28 26 26
1.916985 -6.308083 9.593447 -0.373771 -0.533297 -0.758874 28 26 26
1.550893 -6.265908 9.739105 -0.373771 -0.533297 -0.758874 28 26 26
2.283077 -3.235935 7.463784 0.919000 -0.251364 -0.303735 28 26 26
2.434717 -2.917704 7.644761 0.919000 -0.251364 -0.303735 28 26 26
2.434718 -4.354609 8.848385 0.919000 -0.251364 -0.303735 28 26 26
2.283077 -4.561824 8.546581 0.919000 -0.251364 -0.303735 28 26 26
1.916984 -1.192510 4.159729 0.370948 0.878786 0.300222 84 79 78
1.916984 -2.467658 7.900700 0.370948 0.878786 0.300222 28 26 26
2.283077 -2.599473 7.825738 0.370948 0.878786 0.300222 28 26 26
2.283077 -1.344150 4.159729 0.370948 0.878786 0.300222 84 79 78
1.399252 -4.354609 8.848385 -0.920235 -0.222920 -0.321674 28 26 26
1.550893 -4.561824 8.546581 -0.920235 -0.222920 -0.321674 28 26 26
1.550893 -6.265908 9.739105 -0.920235 -0.222920 -0.321674 28 26 26
1.399253 -6.164085 10.090754 -0.920235 -0.222920 -0.321674 28 26 26
1.916984 -3.367750 7.388822 0.370907 -0.585335 -0.720979 28 26 26
2.283077 -3.235935 7.463784 0.370907 -0.585335 -0.720979 28 26 26
2.283077 -4.561824 8.546581 0.370907 -0.585335 -0.720979 28 26 26
1.916985 -4.647655 8.421570 0.370907 -0.585335 -0.720979 28 26 26
2.283077 -1.344150 4.159729 0.918802 0.373207 0.128531 84 79 78
2.283077 -2.599473 7.825738 0.918802 0.373207 0.128531 28 26 26
2.434717 -2.917704 7.644761 0.918802 0.373207 0.128531 28 26 26
2.434717 -1.710243 4.159729 0.918802 0.373207 0.128531 84 79 78
2.283077 -4.561824 8.546581 0.920235 -0.222920 -0.321675 28 26 26
2.434718 -4.354609 8.848385 0.920235 -0.222920 -0.321675 28 26 26
2.434718 -6.164085 10.090754 0.920235 -0.222920 -0.321675 28 26 26
2.283078 -6.265908 9.739105 0.920235 -0.222920 -0.321675 28 26 26
1.550892 -3.235935 7.463784 -0.370907 -0.585336 -0.720978 28 26 26
1.916984 -3.367750 7.388822 -0.370907 -0.585336 -0.720978 28 26 26
1.916985 -4.647655 8.421570 -0.370907 -0.585336 -0.720978 28 26 26
1.550893 -4.561824 8.546581 -0.370907 -0.585336 -0.720978 28 26 26
2.434717 -1.710243 4.159729 0.918761 -0.372805 -0.129981 84 79 78
2.434717 -2.917704 7.644761 0.918761 -0.372805 -0.129981 28 26 26
2.283077 -3.235935 7.463784 0.918761 -0.372805 -0.129981 28 26 26
2.283077 -2.076335 4.159729 0.918761 -0.372805 -0.129981 84 79 78
2.434718 -4.354609 8.848385 0.920427 0.219936 0.323176 28 26 26
2.283077 -4.147393 9.150188 0.920427 0.219936 0.323176 28 26 26
2.283078 -6.062261 10.442400 0.920427 0.219936 0.323176 28 26 26
2.434718 -6.164085 10.090754 0.920427 0.219936 0.323176 28 26 26
1.399252 -2.917704 7.644761 -0.919000 -0.251364 -0.303734 28 26 26
1.550892 -3.235935 7.463784 -0.919000 -0.251364 -0.303734 28 26 26
1.550893 -4.561824 8.546581 -0.919000 -0.251364 -0.303734 28 26 26
1.399252 -4.354609 8.848385 -0.919000 -0.251364 -0.303734 28 26 26
2.283077 -2.076335 4.159729 0.370726 -0.876066 -0.308336 84 79 78
2.283077 -3.235935 7.463784 0.370726 -0.876066 -0.308336 28 26 26
1.916984 -3.367750 7.388822 0.370726 -0.876066 -0.308336 28 26 26
1.916984 -2.227975 4.159729 0.370726 -0.876066 -0.308336 84 79 78
2.283078 -6.062261 10.442400 0.000000 -0.960541 0.278137 28 26 26
1.916985 -6.020084 10.588057 0.000000 -0.960541 0.278137 28 26 26
2.434718 -6.164085 10.090754 0.000000 -0.960541 0.278137 28 26 26
1.550893 -6.062261 10.442400 -0.000000 -0.960541 0.278137 28 26 26
1.399253 -6.164085 10.090754 -0.000000 -0.960541 0.278137 28 26 26
1.399253 -6.164085 10.090754 0.000004 -0.960542 0.278135 28 26 26
1.550893 -6.265908 9.739105 0.000004 -0.960542 0.278135 28 26 26
1.916985 -6.308083 9.593447 0.000004 -0.960542 0.278135 28 26 26
1.916985 -6.308083 9.593447 -0.000004 -0.960542 0.278135 28 26 26
2.283078 -6.265908 9.739105 -0.000004 -0.960542 0.278135 28 26 26
2.434718 -6.164085 10.090754 -0.000004 -0.960542 0.278135 28 26 26
1.399253 -6.164085 10.090754 0.000000 -0.960543 0.278131 28 26 26
1.916985 -6.308083 9.593447 0.000000 -0.960543 0.278131 28 26 26
2.434718 -6.164085 10.090754 0.000000 -0.960543 0.278131 28 26 26
1.550892 -2.599473 7.825738 -0.919214 0.254488 0.300467 28 26 26
1.399252 -2.917704 7.644761 -0.919214 0.254488 0.300467 28 26 26
1.399252 -4.354609 8.848385 -0.919214 0.254488 0.300467 28 26 26
1.550893 -4.147393 9.150188 -0.919214 0.254488 0.300467 28 26 26
1.916984 -2.227975 4.159729 -0.370726 -0.876066 -0.308336 84 79 78
1.916984 -3.367750 7.388822 -0.370726 -0.876066 -0.308336 28 26 26
1.550892 -3.235935 7.463784 -0.370726 -0.876066 -0.308336 28 26 26
1.550892 -2.076335 4.159729 -0.370726 -0.876066 -0.308336 84 79 78
2.283077 -2.599473 7.825738 0.372088 0.604832 0.704080 28 26 26
1.916984 -2.467658 7.900700 0.372088 0.604832 0.704080 28 26 26
1.916985 -4.061562 9.275200 0.372088 0.604832 0.704080 28 26 26
2.283077 -4.147393 9.150188 0.372088 0.604832 0.704080 28 26 26
2.283077 -4.147393 9.150188 0.374839 0.517389 0.769288 28 26 26
1.916985 -4.061562 9.275200 0.374839 0.517389 0.769288 28 26 26
1.916985 -6.020084 10.588057 0.374839 0.517389 0.769288 28 26 26
2.283078 -6.062261 10.442400 0.374839 0.517389 0.769288 28 26 26
1.550892 -2.076335 4.159729 -0.918761 -0.372805 -0.129981 84 79 78
1.550892 -3.235935 7.463784 -0.918761 -0.372805 -0.129981 28 26 26
1.399252 -2.917704 7.644761 -0.918761 -0.372805 -0.129981 28 26 26
1.399252 -1.710243 4.159729 -0.918761 -0.372805 -0.129981 84 79 78
1.916984 -2.467658 7.900700 -0.372088 0.604832 0.704080 28 26 26
1.550892 -2.599473 7.825738 -0.372088 0.604832 0.704080 28 26 26
1.550893 -4.147393 9.150188 -0.372088 0.604832 0.704080 28 26 26
1.916985 -4.061562 9.275200 -0.372088 0.604832 0.704080 28 26 26
1.550892 -1.344150 4.159729 -0.370948 0.878786 0.300222 84 79 78
1.550892 -2.599473 7.825738 -0.370948 0.878786 0.300222 28 26 26
1.916984 -2.467658 7.900700 -0.370948 0.878786 0.300222 28 26 26
1.916984 -1.192510 4.159729 -0.370948 0.878786 0.300222 84 79 78
1.399252 -1.710243 4.159729 -0.918802 0.373206 0.128530 84 79 78
1.399252 -2.917704 7.644761 -0.918802 0.373206 0.128530 28 26 26
1.550892 -2.599473 7.825738 -0.918802 0.373206 0.128530 28 26 26
1.550892 -1.344150 4.159729 -0.918802 0.373206 0.128530 84 79 78
1.916985 -4.647655 8.421570 0.373771 -0.533296 -0.758874 28 26 26
2.283077 -4.561824 8.546581 0.373771 -0.533296 -0.758874 28 26 26
2.283078 -6.265908 9.739105 0.373771 -0.533296 -0.758874 28 26 26
1.916985 -6.308083 9.593447 0.373771 -0.533296 -0.758874 28 26 26
2.434717 -2.917704 7.644761 0.919214 0.254489 0.300468 28 26 26
2.283077 -2.599473 7.825738 0.919214 0.254489 0.300468 28 26 26
2.283077 -4.147393 9.150188 0.919214 0.254489 0.300468 28 26 26
2.434718 -4.354609 8.848385 0.919214 0.254489 0.300468 28 26 26
1.916984 -1.192510 4.159729 0.000000 0.000000 -1.000000 255 255 255
2.283077 -1.344150 4.159729 0.000000 0.000000 -1.000000 255 255 255
1.550892 -1.344150 4.159729 0.000000 0.000000 -1.000000 255 255 255
2.434717 -1.710243 4.159729 0.000000 0.000000 -1.000000 255 255 255
2.283077 -2.076335 4.159729 0.000000 0.000000 -1.000000 255 255 255
1.916984 -2.227975 4.159729 0.000000 0.000000 -1.000000 255 255 255
1.550892 -2.076335 4.159729 0.000000 0.000000 -1.000000 255 255 255
1.399252 -1.710243 4.159729 0.000000 -0.000000 -1.000000 255 255 255
1.550893 -4.147393 9.150188 -0.920427 0.219935 0.323176 28 26 26
1.399252 -4.354609 8.848385 -0.920427 0.219935 0.323176 28 26 26
1.399253 -6.164085 10.090754 -0.920427 0.219935 0.323176 28 26 26
1.550893 -6.062261 10.442400 -0.920427 0.219935 0.323176 28 26 26
1.916985 -4.061562 9.275200 -0.374840 0.517389 0.769288 28 26 26
1.550893 -4.147393 9.150188 -0.374840 0.517389 0.769288 28 26 26
1.550893 -6.062261 10.442400 -0.374840 0.517389 0.769288 28 26 26
1.916985 -6.020084 10.588057 -0.374840 0.517389 0.769288 28 26 26
1.667866 3.445482 0.917674 -1.000000 0.000000 0.000000 92 85 81
1.667866 3.845440 0.988057 -1.000000 0.000000 0.000000 84 79 78
1.667866 3.845440 0.431174 -1.000000 0.000000 0.000000 84 79 78
1.667866 3.445482 0.360790 -1.000000 0.000000 0.000000 84 79 78
1.667866 3.845440 0.988057 0.000000 1.000000 -0.000000 131 127 135
2.461522 3.845440 0.988057 0.000000 1.000000 -0.000000 131 127 135
2.461522 3.845440 0.431174 0.000000 1.000000 -0.000000 131 127 135
1.667866 3.845440 0.431174 0.000000 1.000000 -0.000000 131 127 135
2.461522 3.845440 0.988057 1.000000 0.000000 -0.000000 84 79 78
2.461522 3.445482 0.917674 1.000000 0.000000 -0.000000 84 79 78
2.461522 3.445482 0.360790 1.000000 0.000000 -0.000000 84 79 78
2.461522 3.845440 0.431174 1.000000 0.000000 -0.000000 84 79 78
0.834686 3.490191 0.978133 -0.992306 -0.016840 0.122659 131 127 135
0.827944 3.908593 0.981032 -0.992306 -0.016840 0.122659 131 127 135
0.759566 3.912400 0.428376 -0.992306 -0.016840 0.122659 131 127 135
0.766308 3.493998 0.425476 -0.992306 -0.016840 0.122659 131 127 135
1.667866 3.445482 0.360790 0.000000 0.173313 -0.984867 84 79 78
1.667866 3.845440 0.431174 0.000000 0.173313 -0.984867 84 79 78
2.461522 3.845440 0.431174 0.000000 0.173313 -0.984867 84 79 78
2.461522 3.445482 0.360790 0.000000 0.173313 -0.984867 84 79 78
2.461522 3.445482 0.917674 0.000000 -0.173313 0.984867 255 48 0
2.461522 3.845440 0.988057 0.000000 -0.173313 0.984867 255 227 169
1.667866 3.845440 0.988057 0.000000 -0.173313 0.984867 248 222 166
1.667866 3.445482 0.917674 0.000000 -0.173313 0.984867 255 48 0
0.827944 3.908593 0.981032 -0.022479 0.999701 0.009667 131 127 135
1.615393 3.927240 0.883732 -0.022479 0.999701 0.009667 131 127 135
1.547014 3.931047 0.331076 -0.022479 0.999701 0.009667 131 127 135
0.759566 3.912400 0.428376 -0.022479 0.999701 0.009667 131 127 135
1.615393 3.927240 0.883732 0.992306 0.016840 -0.122659 84 79 78
1.622135 3.508838 0.880832 0.992306 0.016840 -0.122659 84 79 78
1.553757 3.512645 0.328176 0.992306 0.016840 -0.122659 84 79 78
1.547014 3.931047 0.331076 0.992306 0.016840 -0.122659 84 79 78
0.766308 3.493998 0.425476 -0.122744 0.004900 -0.992426 84 79 78
0.759566 3.912400 0.428376 -0.122744 0.004900 -0.992426 84 79 78
1.547014 3.931047 0.331076 -0.122744 0.004900 -0.992426 84 79 78
1.553757 3.512645 0.328176 -0.122744 0.004900 -0.992426 91 86 85
1.622135 3.508838 0.880832 0.122744 -0.004900 0.992426 255 93 43
1.615393 3.927240 0.883732 0.122744 -0.004900 0.992426 229 205 156
0.827944 3.908593 0.981032 0.122744 -0.004900 0.992426 253 226 169
0.834686 3.490191 0.978133 0.122744 -0.004900 0.992426 255 188 132
0.022979 3.498568 1.069877 -0.996585 -0.018149 -0.080558 131 127 135
0.017550 3.782832 1.072992 -0.996585 -0.018149 -0.080558 131 127 135
0.057870 3.792207 0.572089 -0.996585 -0.018149 -0.080558 131 127 135
0.063298 3.507943 0.568975 -0.996585 -0.018149 -0.080558 131 127 135
0.017550 3.782832 1.072992 -0.025118 0.999545 0.016685 131 127 135
0.651577 3.800510 0.968483 -0.025118 0.999545 0.016685 131 127 135
0.691897 3.809885 0.467581 -0.025118 0.999545 0.016685 131 127 135
0.057870 3.792207 0.572089 -0.025118 0.999545 0.016685 131 127 135
0.651577 3.800510 0.968483 0.996585 0.018149 0.080559 84 79 78
0.657006 3.516246 0.965369 0.996585 0.018149 0.080559 84 79 78
0.697325 3.525621 0.464466 0.996585 0.018149 0.080559 84 79 78
0.691897 3.809885 0.467581 0.996585 0.018149 0.080559 84 79 78
0.063298 3.507943 0.568975 -0.162842 0.007700 -0.986622 84 79 78
0.057870 3.792207 0.572089 -0.162842 0.007700 -0.986622 84 79 78
0.691897 3.809885 0.467581 -0.162842 0.007700 -0.986622 84 79 78
0.697325 3.525621 0.464466 -0.162842 0.007700 -0.986622 84 79 78
0.657006 3.516246 0.965369 0.162842 -0.007700 0.986622 255 113 63
0.651577 3.800510 0.968483 0.162842 -0.007700 0.986622 112 102 94
0.017550 3.782832 1.072992 0.162842 -0.007700 0.986622 255 228 170
0.022979 3.498568 1.069877 0.162842 -0.007700 0.986622 255 214 156
0.113747 3.498568 2.155340 -0.291680 -0.026800 0.956140 131 127 135
0.114537 3.834602 2.165000 -0.291680 -0.026800 0.956140 131 127 135
-0.377105 3.826394 2.014790 -0.291680 -0.026800 0.956140 131 127 135
-0.377895 3.490361 2.005130 -0.291680 -0.026800 0.956140 131 127 135
0.114537 3.834602 2.165000 -0.021255 0.999662 0.014946 131 127 135
0.261626 3.852279 1.191788 -0.021255 0.999662 0.014946 131 127 135
-0.230016 3.844072 1.041577 -0.021255 0.999662 0.014946 131 127 135
-0.377105 3.826394 2.014790 -0.021255 0.999662 0.014946 131 127 135
0.261626 3.852279 1.191788 0.291680 0.026799 -0.956140 84 79 78
0.260836 3.516246 1.182128 0.291680 0.026799 -0.956140 84 79 78
-0.230806 3.508039 1.031918 0.291680 0.026799 -0.956140 84 79 78
-0.230016 3.844072 1.041577 0.291680 0.026799 -0.956140 84 79 78
-0.377895 3.490361 2.005130 -0.988767 0.006617 -0.149320 131 127 135
-0.377105 3.826394 2.014790 -0.988767 0.006617 -0.149320 131 127 135
-0.230016 3.844072 1.041577 -0.988767 0.006617 -0.149320 131 127 135
-0.230806 3.508039 1.031918 -0.988767 0.006617 -0.149320 131 127 135
0.260836 3.516246 1.182128 0.988767 -0.006617 0.149320 198 192 204
0.261626 3.852279 1.191788 0.988767 -0.006617 0.149320 198 192 204
0.114537 3.834602 2.165000 0.988767 -0.006617 0.149320 198 192 204
0.113747 3.498568 2.155340 0.988767 -0.006617 0.149320 198 192 204
1.121814 3.498569 2.533933 0.682377 0.021054 0.730697 131 127 135
1.162227 3.727011 2.489611 0.682377 0.021054 0.730697 131 127 135
0.699936 3.730620 2.921227 0.682377 0.021054 0.730697 131 127 135
0.659523 3.502177 2.965549 0.682377 0.021054 0.730697 131 127 135
1.162227 3.727011 2.489611 0.015793 0.999839 0.008555 131 127 135
0.307386 3.744688 2.001734 0.015793 0.999839 0.008555 131 127 135
-0.154905 3.748297 2.433350 0.015793 0.999839 0.008555 131 127 135
0.699936 3.730620 2.921227 0.015793 0.999839 0.008555 131 127 135
0.307386 3.744688 2.001734 -0.682377 -0.021054 -0.730697 84 79 78
0.266974 3.516246 2.046056 -0.682377 -0.021054 -0.730697 84 79 78
-0.195318 3.519855 2.477672 -0.682377 -0.021054 -0.730697 84 79 78
-0.154905 3.748297 2.433350 -0.682377 -0.021054 -0.730697 84 79 78
0.659523 3.502177 2.965549 -0.476327 0.247935 0.843588 131 127 135
0.699936 3.730620 2.921227 -0.476327 0.247935 0.843588 131 127 135
-0.154905 3.748297 2.433350 -0.476327 0.247935 0.843588 131 127 135
-0.195318 3.519855 2.477672 -0.476327 0.247935 0.843588 131 127 135
0.266974 3.516246 2.046056 0.476327 -0.247936 -0.843588 84 79 78
0.307386 3.744688 2.001734 0.476327 -0.247936 -0.843588 84 79 78
1.162227 3.727011 2.489611 0.476327 -0.247936 -0.843588 84 79 78
1.121814 3.498569 2.533933 0.476327 -0.247936 -0.843588 84 79 78
1.743263 3.498569 2.233662 0.962071 -0.062316 -0.265588 198 192 204
1.749998 3.632258 2.226693 0.962071 -0.062316 -0.265588 198 192 204
1.918517 3.635867 2.836289 0.962071 -0.062316 -0.265588 198 192 204
1.911781 3.502177 2.843258 0.962071 -0.062316 -0.265588 198 192 204
1.749998 3.632258 2.226693 0.014896 0.999839 -0.010037 131 127 135
0.921767 3.649935 2.758491 0.014896 0.999839 -0.010037 131 127 135
1.090284 3.653544 3.368087 0.014896 0.999839 -0.010037 131 127 135
1.918517 3.635867 2.836289 0.014896 0.999839 -0.010037 131 127 135
0.921767 3.649935 2.758491 -0.962071 0.062317 0.265588 131 127 135
0.915031 3.516246 2.765460 -0.962071 0.062317 0.265588 131 127 135
1.083549 3.519855 3.375055 -0.962071 0.062317 0.265588 131 127 135
1.090284 3.653544 3.368087 -0.962071 0.062317 0.265588 131 127 135
1.911781 3.502177 2.843258 0.540476 0.016616 0.841195 131 127 135
1.918517 3.635867 2.836289 0.540476 0.016616 0.841195 131 127 135
1.090284 3.653544 3.368087 0.540476 0.016616 0.841195 131 127 135
1.083549 3.519855 3.375055 0.540476 0.016616 0.841195 131 127 135
0.915031 3.516246 2.765460 -0.540476 -0.016617 -0.841195 86 81 80
0.921767 3.649935 2.758491 -0.540476 -0.016617 -0.841195 84 79 78
1.749998 3.632258 2.226693 -0.540476 -0.016617 -0.841195 84 79 78
1.743263 3.498569 2.233662 -0.540476 -0.016617 -0.841195 84 79 78
2.661744 3.498569 2.497902 0.912488 -0.017786 0.408718 198 192 204
2.667312 3.782833 2.497843 0.912488 -0.017786 0.408718 198 192 204
2.485393 3.786442 2.904145 0.912488 -0.017786 0.408718 198 192 204
2.479825 3.502177 2.904205 0.912488 -0.017786 0.408718 198 192 204
2.667312 3.782833 2.497843 0.008425 0.999942 0.006693 131 127 135
1.872044 3.795916 2.260785 0.008425 0.999942 0.006693 131 127 135
1.948344 3.787542 2.699302 0.008425 0.999942 0.006693 131 127 135
2.485393 3.786442 2.904145 0.008425 0.999942 0.006693 131 127 135
1.872044 3.795916 2.260785 -0.984780 -0.032591 0.170724 84 79 78
1.880263 3.511798 2.253955 -0.984780 -0.032591 0.170724 84 79 78
1.956563 3.503424 2.692472 -0.984780 -0.032591 0.170724 84 79 78
1.948344 3.787542 2.699302 -0.984780 -0.032591 0.170724 84 79 78
2.479825 3.502177 2.904205 -0.365667 -0.012792 0.930658 131 127 135
2.485393 3.786442 2.904145 -0.365667 -0.012792 0.930658 131 127 135
1.948344 3.787542 2.699302 -0.365667 -0.012792 0.930658 131 127 135
1.956563 3.503424 2.692472 -0.365667 -0.012792 0.930658 131 127 135
1.880263 3.511798 2.253955 0.291957 0.012754 -0.956346 84 79 78
1.872044 3.795916 2.260785 0.291957 0.012754 -0.956346 84 79 78
2.667312 3.782833 2.497843 0.291957 0.012754 -0.956346 84 79 78
2.661744 3.498569 2.497902 0.291957 0.012754 -0.956346 84 79 78
3.161097 3.498569 2.338633 0.546925 -0.054054 0.835435 131 127 135
3.164513 3.635283 2.345242 0.546925 -0.054054 0.835435 131 127 135
2.718843 3.638892 2.637238 0.546925 -0.054054 0.835435 131 127 135
2.715427 3.502177 2.630628 0.546925 -0.054054 0.835435 131 127 135
3.164513 3.635283 2.345242 0.018656 0.999696 0.016118 131 127 135
2.964753 3.652961 1.480027 0.018656 0.999696 0.016118 131 127 135
2.519083 3.656570 1.772023 0.018656 0.999696 0.016118 131 127 135
2.718843 3.638892 2.637238 0.018656 0.999696 0.016118 131 127 135
2.964753 3.652961 1.480027 -0.546925 0.054051 -0.835435 84 79 78
2.961338 3.516246 1.473418 -0.546925 0.054051 -0.835435 84 79 78
2.515668 3.519855 1.765413 -0.546925 0.054051 -0.835435 84 79 78
2.519083 3.656570 1.772023 -0.546925 0.054051 -0.835435 84 79 78
2.715427 3.502177 2.630628 -0.974220 0.013451 0.225201 131 127 135
2.718843 3.638892 2.637238 -0.974220 0.013451 0.225201 131 127 135
2.519083 3.656570 1.772023 -0.974220 0.013451 0.225201 131 127 135
2.515668 3.519855 1.765413 -0.974220 0.013451 0.225201 131 127 135
2.961338 3.516246 1.473418 0.974219 -0.013453 -0.225201 198 192 204
2.964753 3.652961 1.480027 0.974219 -0.013453 -0.225201 198 192 204
3.164513 3.635283 2.345242 0.974219 -0.013453 -0.225201 198 192 204
3.161097 3.498569 2.338633 0.974219 -0.013453 -0.225201 198 192 204
3.346815 3.498569 1.115859 0.875966 -0.018971 0.481999 198 192 204
3.352930 3.888590 1.120096 0.875966 -0.018971 0.481999 198 192 204
3.096131 3.892199 1.586934 0.875966 -0.018971 0.481999 198 192 204
3.090016 3.502177 1.582697 0.875966 -0.018971 0.481999 198 192 204
3.352930 3.888590 1.120096 0.024034 0.999696 0.005493 131 127 135
2.770903 3.906268 0.449465 0.024034 0.999696 0.005493 131 127 135
2.514105 3.909877 0.916303 0.024034 0.999696 0.005493 131 127 135
3.096131 3.892199 1.586934 0.024034 0.999696 0.005493 131 127 135
2.770903 3.906268 0.449465 -0.875966 0.018971 -0.481999 131 127 135
2.764788 3.516246 0.445229 -0.875966 0.018971 -0.481999 131 127 135
2.507989 3.519855 0.912066 -0.875966 0.018971 -0.481999 131 127 135
2.514105 3.909877 0.916303 -0.875966 0.018971 -0.481999 131 127 135
3.090016 3.502177 1.582697 -0.755166 0.004719 0.655517 255 228 170
3.096131 3.892199 1.586934 -0.755166 0.004719 0.655517 255 228 170
2.514105 3.909877 0.916303 -0.755166 0.004719 0.655517 255 228 170
2.507989 3.519855 0.912066 -0.755166 0.004719 0.655517 255 48 0
2.764788 3.516246 0.445229 0.755165 -0.004719 -0.655517 84 79 78
2.770903 3.906268 0.449465 0.755165 -0.004719 -0.655517 84 79 78
3.352930 3.888590 1.120096 0.755165 -0.004719 -0.655517 84 79 78
3.346815 3.498569 1.115859 0.755165 -0.004719 -0.655517 84 79 78
-3.500000 3.500000 0.000000 -1.000000 0.000000 -0.000000 74 72 77
-3.500000 -3.500000 0.000000 -1.000000 0.000000 -0.000000 84 79 78
-3.500000 -1.103255 2.446688 -1.000000 0.000000 -0.000000 84 79 78
-3.500000 -0.883918 2.446688 -1.000000 0.000000 -0.000000 84 79 78
-5.614878 -1.112839 2.320744 -0.995887 0.000000 -0.090600 74 72 77
-5.614878 -0.871903 2.320744 -0.995887 0.000000 -0.090600 75 73 78
-5.603488 -0.871903 2.195551 -0.995887 0.000000 -0.090600 75 73 78
-5.603488 -1.112839 2.195551 -0.995887 0.000000 -0.090600 74 72 77
-5.603488 -1.112839 2.195551 0.060786 0.000000 -0.998151 74 72 77
-3.446076 -1.112839 2.326934 0.060786 0.000000 -0.998151 74 72 77
-3.446076 -1.208637 2.326934 0.060786 0.000000 -0.998151 74 72 77
-5.603488 -1.208637 2.195551 0.060786 0.000000 -0.998151 74 72 77
-5.603488 -0.871903 2.195551 0.060786 0.000000 -0.998151 74 72 77
-3.446076 -0.871903 2.326934 0.060786 0.000000 -0.998151 84 82 86
-3.457466 -1.112839 2.452127 -0.060786 0.000000 0.998151 74 72 77
-3.457466 -0.871903 2.452127 -0.060786 0.000000 0.998151 74 72 77
-5.614878 -0.871903 2.320744 -0.060786 0.000000 0.998151 75 73 78
-5.614878 -1.112839 2.320744 -0.060786 0.000000 0.998151 74 72 77
-5.614878 -0.776105 2.320744 0.000000 1.000000 -0.000000 74 72 77
-3.457466 -0.776105 2.452127 0.000000 1.000000 -0.000000 74 72 77
-3.446076 -0.776105 2.326934 0.000000 1.000000 -0.000000 75 73 78
-5.603488 -0.776105 2.195551 0.000000 1.000000 -0.000000 74 72 77
-3.457466 -1.208637 2.452127 -0.000000 -1.000000 0.000000 74 72 77
-5.614878 -1.208637 2.320744 -0.000000 -1.000000 0.000000 74 72 77
-5.603488 -1.208637 2.195551 -0.000000 -1.000000 0.000000 74 72 77
-3.446076 -1.208637 2.326934 -0.000000 -1.000000 0.000000 74 72 77
-3.446076 -0.871903 2.326934 0.060786 0.000000 -0.998151 74 72 77
-5.603488 -0.776105 2.195551 0.060786 0.000000 -0.998151 74 72 77
-3.446076 -0.776105 2.326934 0.060786 0.000000 -0.998151 74 72 77
-5.614878 -0.776105 2.320744 -0.998151 0.000000 -0.060788 75 73 78
-5.614878 -0.871903 2.320744 -0.998151 0.000000 -0.060788 75 73 78
-5.644497 -0.803579 2.807108 -0.998151 0.000000 -0.060788 74 72 77
-5.644497 -0.653579 2.807108 -0.998151 0.000000 -0.060788 74 72 77
-5.614878 -0.776105 2.320744 -0.995887 0.000000 -0.090600 75 73 78
-5.603488 -0.776105 2.195551 -0.995887 0.000000 -0.090600 76 74 79
-5.603488 -1.208637 2.195551 -0.995887 0.000000 -0.090600 74 72 77
-5.614878 -1.208637 2.320744 -0.995887 0.000000 -0.090600 74 72 77
-3.487085 -1.180834 2.938492 -0.060786 0.000000 0.998151 74 72 77
-5.644497 -1.180834 2.807108 -0.060786 0.000000 0.998151 74 72 77
-5.644497 -1.330834 2.807108 -0.060786 0.000000 0.998151 74 72 77
-3.487085 -1.330834 2.938492 -0.060786 0.000000 0.998151 74 72 77
-5.644497 -0.803579 2.807108 -0.060786 0.000000 0.998151 74 72 77
-3.487085 -0.803579 2.938492 -0.060786 0.000000 0.998151 74 72 77
-3.487085 -0.653579 2.938492 -0.060786 0.000000 0.998151 74 72 77
-5.644497 -0.653579 2.807108 -0.060786 0.000000 0.998151 74 72 77
-5.614878 -1.112839 2.320744 -0.998151 0.000000 -0.060788 74 72 77
-5.614878 -1.208637 2.320744 -0.998151 0.000000 -0.060788 74 72 77
-5.644497 -1.330834 2.807108 -0.998151 0.000000 -0.060788 74 72 77
-5.644497 -1.180834 2.807108 -0.998151 0.000000 -0.060788 74 72 77
-5.614878 -1.208637 2.320744 0.014786 -0.969964 -0.242798 74 72 77
-3.457466 -1.208637 2.452127 0.014786 -0.969964 -0.242798 74 72 77
-3.487085 -1.330834 2.938492 0.014786 -0.969964 -0.242798 74 72 77
-5.644497 -1.330834 2.807108 0.014786 -0.969964 -0.242798 74 72 77
-3.457466 -0.776105 2.452127 0.014824 0.969809 -0.243414 75 73 78
-5.614878 -0.776105 2.320744 0.014824 0.969809 -0.243414 74 72 77
-5.644497 -0.653579 2.807108 0.014824 0.969809 -0.243414 74 72 77
-3.487085 -0.653579 2.938492 0.014824 0.969809 -0.243414 74 72 77
-3.457466 -1.112839 2.452127 -0.008401 0.990404 0.137949 74 72 77
-5.614878 -1.112839 2.320744 -0.008401 0.990404 0.137949 135 133 137
-5.644497 -1.180834 2.807108 -0.008401 0.990404 0.137949 74 72 77
-3.487085 -1.180834 2.938492 -0.008401 0.990404 0.137949 74 72 77
-5.614878 -0.871903 2.320744 -0.008441 -0.990312 0.138605 74 72 77
-3.457466 -0.871903 2.452127 -0.008441 -0.990312 0.138605 74 72 77
-3.487085 -0.803579 2.938492 -0.008441 -0.990312 0.138605 74 72 77
-5.644497 -0.803579 2.807108 -0.008441 -0.990312 0.138605 74 72 77
-3.040000 -3.040000 4.491759 0.999653 0.010413 0.024206 84 79 78
-3.000000 -3.000000 2.500000 0.999653 0.010413 0.024206 84 79 78
-3.011838 -1.101929 2.495000 0.999653 0.010413 0.024206 84 79 78
-3.028162 -1.167923 2.874894 0.999653 0.010413 0.024206 84 79 78
-3.000000 -3.000000 2.500000 -0.389098 0.000000 0.921197 118 110 109
-3.000000 3.000000 2.500000 -0.389098 0.000000 0.921197 161 151 149
-3.011838 -0.886209 2.495000 -0.389098 0.000000 0.921197 161 151 149
-3.011838 -1.101929 2.495000 -0.389098 0.000000 0.921197 118 110 109
-3.040000 3.040000 4.491759 0.999973 0.000000 0.007322 84 79 78
-3.040000 -3.040000 4.491759 0.999973 0.000000 0.007322 84 79 78
-3.028162 -1.167923 2.874894 0.999973 0.000000 0.007322 84 79 78
-3.028162 -0.821808 2.874894 0.999973 0.000000 0.007322 84 79 78
-3.500000 3.500000 4.491759 -1.000000 0.000000 0.000000 84 79 78
-3.500000 -0.822392 2.827122 -1.000000 0.000000 0.000000 84 79 78
-3.500000 -3.500000 4.491759 -1.000000 0.000000 0.000000 84 79 78
-3.500000 -1.165828 2.827122 -1.000000 0.000000 0.000000 84 79 78
-3.011838 -0.886209 2.495000 -0.018067 -0.986462 0.162993 74 72 77
-3.028162 -0.821808 2.874894 -0.018067 -0.986462 0.162993 78 75 78
-3.500000 -0.822392 2.827122 -0.018067 -0.986462 0.162993 78 76 81
-3.500000 -0.883918 2.446688 -0.018067 -0.986462 0.162993 75 73 77
-3.011838 -1.101929 2.495000 -0.098486 0.000000 0.995139 74 72 77
-3.011838 -0.886209 2.495000 -0.098486 0.000000 0.995139 74 72 77
-3.500000 -0.883918 2.446688 -0.098486 0.000000 0.995139 74 72 77
-3.500000 -1.103255 2.446688 -0.098486 0.000000 0.995139 74 72 77
-3.028162 -1.167923 2.874894 -0.015862 0.985935 0.166374 74 72 77
-3.011838 -1.101929 2.495000 -0.015862 0.985935 0.166374 82 79 78
-3.500000 -1.103255 2.446688 -0.015862 0.985935 0.166374 81 76 78
-3.500000 -1.165828 2.827122 -0.015862 0.985935 0.166374 75 73 77
-3.028162 -0.821808 2.874894 0.100731 0.000000 -0.994914 84 79 78
-3.028162 -1.167923 2.874894 0.100731 0.000000 -0.994914 84 79 78
-3.500000 -1.165828 2.827122 0.100731 0.000000 -0.994914 84 79 78
-3.500000 -0.822392 2.827122 0.100731 0.000000 -0.994914 84 79 78
4 0 1 2 3
4 4 5 6 7
4 8 9 10 11
4 12 13 14 15
4 16 17 18 19
4 20 21 22 23
4 17 24 25 18
4 24 26 27 25
4 26 16 19 27
4 28 29 30 31
4 32 33 34 35
4 36 37 38 39
4 40 41 42 43
4 44 45 46 47
4 48 0 3 49
4 50 48 49 51
4 1 50 51 2
4 52 53 54 55
4 56 57 58 59
4 60 61 62 63
4 64 65 66 67
4 68 69 70 71
4 72 73 74 75
4 76 77 78 79
4 80 81 82 83
4 84 85 86 87
4 88 89 90 91
4 92 93 94 95
4 96 97 98 99
4 100 101 102 103
4 104 105 106 107
4 108 109 110 111
4 112 113 114 115
3 116 117 118
3 117 119 120
3 121 122 123
3 124 125 126
3 117 120 118
3 127 128 129
4 130 131 132 133
4 134 135 136 137
4 138 139 140 141
4 142 143 144 145
4 146 147 148 149
4 150 151 152 153
4 154 155 156 157
4 158 159 160 161
4 162 163 164 165
4 166 167 168 169
3 170 171 172
3 171 173 174
3 174 175 176
3 176 177 172
3 171 174 172
3 174 176 172
4 178 179 180 181
4 182 183 184 185
4 186 187 188 189
4 190 191 192 193
4 194 195 196 197
4 198 199 200 201
4 202 203 204 205
4 206 207 208 209
4 210 211 212 213
4 214 215 216 217
4 218 219 220 221
4 222 223 224 225
4 226 227 228 229
4 230 231 232 233
4 234 235 236 237
4 238 239 240 241
4 242 243 244 245
4 246 247 248 249
4 250 251 252 253
4 254 255 256 257
4 258 259 260 261
4 262 263 264 265
4 266 267 268 269
4 270 271 272 273
4 274 275 276 277
4 278 279 280 281
4 282 283 284 285
4 286 287 288 289
4 290 291 292 293
4 294 295 296 297
4 298 299 300 301
4 302 303 304 305
4 306 307 308 309
4 310 311 312 313
4 314 315 316 317
4 318 319 320 321
4 322 323 324 325
4 326 327 328 329
4 330 331 332 333
4 334 335 336 337
4 338 339 340 341
4 342 343 344 345
4 346 347 348 349
4 350 351 352 353
4 354 355 356 357
4 358 359 360 361
4 362 363 364 365
4 366 367 368 369
4 370 371 372 373
4 374 375 376 377
4 374 378 379 375
4 380 381 382 383
4 384 385 386 387
4 388 389 390 391
4 392 378 393 394
4 395 396 397 398
4 372 371 399 400
4 370 373 401 402
4 403 404 405 406
4 407 408 409 410
4 411 412 413 414
4 415 416 417 418
4 419 420 421 422
4 423 424 425 426
4 427 428 429 430
4 431 432 433 434
4 435 436 437 438
4 439 440 441 442
4 443 366 369 444
4 445 443 444 446
4 367 445 446 368
4 447 448 449 450
4 451 452 453 454
4 455 456 457 458
4 459 460 461 462
