ply
format ascii 1.0
comment Created by Blender 2.71 (sub 0) - www.blender.org, source file: 'foundry.blend'
element vertex 56
property float x
property float y
property float z
property float nx
property float ny
property float nz
property uchar red
property uchar green
property uchar blue
element face 14
property list uchar uint vertex_indices
end_header
-5.632804 -1.125013 2.522060 0.000000 -1.000000 0.000000 255 255 255
-5.923328 -1.125013 2.548390 0.000000 -1.000000 0.000000 255 255 255
-5.908190 -1.125013 1.563165 0.000000 -1.000000 0.000000 255 255 255
-5.617667 -1.125013 1.536835 0.000000 -1.000000 0.000000 255 255 255
-5.642159 -0.810536 2.729328 0.004024 0.978486 -0.206275 255 255 255
-3.043477 -0.810536 2.865520 0.004024 0.978486 -0.206275 255 255 255
-3.083016 -0.872292 2.486308 0.004024 0.978486 -0.206275 255 255 255
-5.632804 -0.872292 2.522060 0.004024 0.978486 -0.206275 255 255 255
-3.043477 -0.810536 2.865520 0.994608 0.000000 -0.103705 255 255 255
-3.043477 -1.186769 2.865520 0.994608 0.000000 -0.103705 255 255 255
-3.083016 -1.125013 2.486308 0.994608 0.000000 -0.103705 255 255 255
-3.083016 -0.872292 2.486308 0.994608 0.000000 -0.103705 255 255 255
-5.632804 -1.125013 2.522060 0.004024 -0.978486 -0.206275 255 255 255
-3.083016 -1.125013 2.486308 0.004024 -0.978486 -0.206275 255 255 255
-3.043477 -1.186769 2.865520 0.004024 -0.978486 -0.206275 255 255 255
-5.642159 -1.186769 2.729328 0.004024 -0.978486 -0.206275 255 255 255
-5.632804 -1.125013 2.522060 -0.014020 0.000000 -0.999902 255 255 255
-5.632804 -0.872292 2.522060 -0.014020 0.000000 -0.999902 255 255 255
-3.083016 -0.872292 2.486308 -0.014020 0.000000 -0.999902 255 255 255
-3.083016 -1.125013 2.486308 -0.014020 0.000000 -0.999902 255 255 255
-3.043477 -1.186769 2.865520 -0.052336 0.000000 0.998630 255 255 255
-3.043477 -0.810536 2.865520 -0.052336 0.000000 0.998630 255 255 255
-5.642159 -0.810536 2.729328 -0.052336 0.000000 0.998630 255 255 255
-5.642159 -1.186769 2.729328 -0.052336 0.000000 0.998630 255 255 255
-5.943529 -1.159546 2.665243 -0.994482 0.028915 -0.100843 255 255 255
-5.926747 -0.835081 2.665243 -0.994482 0.028915 -0.100843 255 255 255
-5.923328 -0.872292 2.548390 -0.994482 0.028915 -0.100843 255 255 255
-5.923328 -1.125013 2.548390 -0.994482 0.028915 -0.100843 255 255 255
-5.642159 -0.810536 2.729328 -0.021581 0.955949 -0.292739 255 255 255
-5.632804 -0.872292 2.522060 -0.021581 0.955949 -0.292739 255 255 255
-5.923328 -0.872292 2.548390 -0.021581 0.955949 -0.292739 255 255 255
-5.926747 -0.835081 2.665243 -0.021581 0.955949 -0.292739 255 255 255
-5.642159 -1.186769 2.729328 -0.213659 0.005117 0.976895 255 255 255
-5.642159 -0.810536 2.729328 -0.213659 0.005117 0.976895 255 255 255
-5.926747 -0.835081 2.665243 -0.213659 0.005117 0.976895 255 255 255
-5.943529 -1.159546 2.665243 -0.213659 0.005117 0.976895 255 255 255
-5.632804 -1.125013 2.522060 -0.025748 -0.957633 -0.286838 255 255 255
-5.642159 -1.186769 2.729328 -0.025748 -0.957633 -0.286838 255 255 255
-5.943529 -1.159546 2.665243 -0.025748 -0.957633 -0.286838 255 255 255
-5.923328 -1.125013 2.548390 -0.025748 -0.957633 -0.286838 255 255 255
-5.617667 -0.872292 1.536835 -0.090260 0.000000 -0.995918 255 255 255
-5.617667 -1.125013 1.536835 -0.090260 0.000000 -0.995918 255 255 255
-5.908190 -1.125013 1.563165 -0.090260 0.000000 -0.995918 255 255 255
-5.908190 -0.872292 1.563165 -0.090260 0.000000 -0.995918 255 255 255
-5.923328 -0.872292 2.548390 0.000000 1.000000 -0.000000 255 255 255
-5.632804 -0.872292 2.522060 0.000000 1.000000 -0.000000 255 255 255
-5.617667 -0.872292 1.536835 0.000000 1.000000 -0.000000 255 255 255
-5.908190 -0.872292 1.563165 0.000000 1.000000 -0.000000 255 255 255
-5.923328 -1.125013 2.548390 -0.999882 0.000000 -0.015363 255 255 255
-5.923328 -0.872292 2.548390 -0.999882 0.000000 -0.015363 255 255 255
-5.908190 -0.872292 1.563165 -0.999882 0.000000 -0.015363 255 255 255
-5.908190 -1.125013 1.563165 -0.999882 0.000000 -0.015363 255 255 255
-5.632804 -0.872292 2.522060 0.999882 0.000000 0.015363 255 255 255
-5.632804 -1.125013 2.522060 0.999882 0.000000 0.015363 255 255 255
-5.617667 -1.125013 1.536835 0.999882 0.000000 0.015363 255 255 255
-5.617667 -0.872292 1.536835 0.999882 0.000000 0.015363 255 255 255
4 0 1 2 3
4 4 5 6 7
4 8 9 10 11
4 12 13 14 15
4 16 17 18 19
4 20 21 22 23
4 24 25 26 27
4 28 29 30 31
4 32 33 34 35
4 36 37 38 39
4 40 41 42 43
4 44 45 46 47
4 48 49 50 51
4 52 53 54 55
