ply
format ascii 1.0
comment Created by Blender 2.71 (sub 0) - www.blender.org, source file: 'foundry.blend'
element vertex 4
property float x
property float y
property float z
property float nx
property float ny
property float nz
element face 1
property list uchar uint vertex_indices
end_header
-3.041443 -3.082725 0.410027 0.000000 0.000000 1.000000
0.041443 -3.082725 0.410027 0.000000 0.000000 1.000000
0.041443 3.082725 0.410027 0.000000 0.000000 1.000000
-3.041443 3.082725 0.410027 0.000000 0.000000 1.000000
4 0 1 2 3
