ply
format ascii 1.0
comment Created by Blender 2.71 (sub 0) - www.blender.org, source file: 'bigBellow.blend'
element vertex 235
property float x
property float y
property float z
property float nx
property float ny
property float nz
property uchar red
property uchar green
property uchar blue
element face 59
property list uchar uint vertex_indices
end_header
0.414764 0.000000 -0.480158 0.000000 -0.170987 -0.985273 153 82 7
-0.424970 0.000000 -0.480158 0.000000 -0.170987 -0.985273 152 81 7
-3.526148 9.125569 -2.063832 0.000000 -0.170987 -0.985273 153 82 7
3.515932 9.125574 -2.063832 0.000000 -0.170987 -0.985273 152 82 7
0.414764 0.000000 -0.237484 0.946821 -0.321761 -0.000002 153 82 7
0.414764 0.000000 -0.480158 0.946821 -0.321761 -0.000002 100 57 7
3.515932 9.125574 -2.063832 0.946821 -0.321761 -0.000002 153 82 7
3.515933 9.125574 -1.742491 0.946821 -0.321761 -0.000002 153 82 7
-0.424970 0.000000 -0.480158 -0.946821 -0.321762 0.000000 153 82 7
-0.424970 -0.000000 -0.237484 -0.946821 -0.321762 0.000000 153 82 7
-3.526148 9.125569 -1.742491 -0.946821 -0.321762 0.000000 153 82 7
-3.526148 9.125569 -2.063832 -0.946821 -0.321762 0.000000 157 87 15
3.515933 9.125574 -1.742491 -0.000001 1.000000 0.000000 153 82 7
3.515932 9.125574 -2.063832 -0.000001 1.000000 0.000000 153 82 7
-3.526148 9.125569 -2.063832 -0.000001 1.000000 0.000000 152 82 7
-3.526148 9.125569 -1.742491 -0.000001 1.000000 0.000000 153 82 7
-0.424970 -0.000000 -0.237484 -0.000000 0.162724 0.986672 153 82 7
0.414764 0.000000 -0.237484 -0.000000 0.162724 0.986672 153 82 7
3.515933 9.125574 -1.742491 -0.000000 0.162724 0.986672 153 82 7
-3.526148 9.125569 -1.742491 -0.000000 0.162724 0.986672 153 82 7
0.414765 0.000000 0.005191 0.946821 -0.321761 -0.000001 153 82 7
0.414764 0.000000 -0.237484 0.946821 -0.321761 -0.000001 153 82 7
3.515932 9.125573 1.293125 0.946821 -0.321761 -0.000001 154 84 11
3.515933 9.125575 1.614466 0.946821 -0.321761 -0.000001 153 82 7
-0.424970 -0.000000 0.005191 -0.946821 -0.321762 -0.000000 153 82 7
-3.526148 9.125569 1.614466 -0.946821 -0.321762 -0.000000 170 111 48
-3.526148 9.125569 1.293125 -0.946821 -0.321762 -0.000000 153 82 7
0.414764 0.000000 -0.237484 -0.000000 0.121139 -0.992636 153 82 7
-0.424970 -0.000000 -0.237484 -0.000000 0.121139 -0.992636 153 82 7
-0.359030 0.304218 -0.200357 -0.000000 0.121139 -0.992636 159 95 29
0.348824 0.304218 -0.200357 -0.000000 0.121139 -0.992636 198 180 178
-0.424970 -0.000000 0.005191 0.000000 -0.173668 0.984804 100 57 7
0.414765 0.000000 0.005191 0.000000 -0.173668 0.984804 153 82 7
3.515933 9.125575 1.614466 0.000000 -0.173668 0.984804 153 82 7
-3.526148 9.125569 1.614466 0.000000 -0.173668 0.984804 130 71 10
3.515932 9.125573 1.293125 0.353913 0.031193 -0.934758 154 84 11
0.414764 0.000000 -0.237484 0.353913 0.031193 -0.934758 153 82 7
0.348824 0.304218 -0.200357 0.353913 0.031193 -0.934758 199 180 178
3.289836 8.911672 1.148443 0.353913 0.031193 -0.934758 166 112 59
3.515933 9.125575 1.614466 -0.000001 1.000000 -0.000003 153 82 7
3.515932 9.125573 1.293125 -0.000001 1.000000 -0.000003 154 84 10
-3.526148 9.125569 1.293125 -0.000001 1.000000 -0.000003 144 78 7
-3.526148 9.125569 1.614466 -0.000001 1.000000 -0.000003 144 74 12
-0.424970 -0.000000 -0.237484 -0.353913 0.031193 -0.934758 153 82 7
-3.526148 9.125569 1.293125 -0.353913 0.031193 -0.934758 153 82 7
-3.300052 8.911667 1.148443 -0.353913 0.031193 -0.934758 153 82 7
-0.359030 0.304218 -0.200357 -0.353913 0.031193 -0.934758 159 95 30
0.348824 0.304218 -0.200357 0.000000 -0.620842 0.783936 255 255 255
-0.359030 0.304218 -0.200357 0.000000 -0.620842 0.783936 255 255 255
-0.376375 0.242014 -0.249621 0.000000 -0.620842 0.783936 255 255 255
0.366169 0.242014 -0.249621 0.000000 -0.620842 0.783936 255 255 255
-3.526148 9.125569 1.293125 -0.000000 0.560264 -0.828314 153 82 7
3.515932 9.125573 1.293125 -0.000000 0.560264 -0.828314 154 84 11
3.289836 8.911672 1.148443 -0.000000 0.560264 -0.828314 167 111 58
-3.300052 8.911667 1.148443 -0.000000 0.560264 -0.828314 152 82 7
3.289836 8.911672 1.148443 0.856093 -0.350019 0.380251 188 170 166
0.348824 0.304218 -0.200357 0.856093 -0.350019 0.380251 199 181 179
0.366169 0.242014 -0.249621 0.856093 -0.350019 0.380251 197 181 179
3.451311 9.004619 0.823412 0.856093 -0.350019 0.380251 189 174 173
-0.359030 0.304218 -0.200357 -0.856093 -0.350020 0.380250 188 171 165
-3.300052 8.911667 1.148443 -0.856093 -0.350020 0.380250 189 174 173
-3.461526 9.004613 0.823412 -0.856093 -0.350020 0.380250 189 170 165
-0.376375 0.242014 -0.249621 -0.856093 -0.350020 0.380250 183 158 142
0.366169 0.242014 -0.249621 -0.000000 0.101151 -0.994871 255 255 255
-0.376375 0.242014 -0.249621 -0.000000 0.101151 -0.994871 254 254 254
-0.355395 0.323724 -0.241313 -0.000000 0.101151 -0.994871 231 223 223
0.345189 0.323724 -0.241313 -0.000000 0.101151 -0.994871 255 255 255
-3.300052 8.911667 1.148443 -0.000001 0.961461 0.274941 183 155 140
3.289836 8.911672 1.148443 -0.000001 0.961461 0.274941 189 173 171
3.451311 9.004619 0.823412 -0.000001 0.961461 0.274941 189 174 173
-3.461526 9.004613 0.823412 -0.000001 0.961461 0.274941 188 169 165
0.366169 0.242014 -0.249621 0.812487 -0.224741 -0.537918 199 181 179
0.345189 0.323724 -0.241313 0.812487 -0.224741 -0.537918 199 181 179
3.255992 8.947141 0.478277 0.812487 -0.224741 -0.537918 196 180 177
3.451311 9.004619 0.823412 0.812487 -0.224741 -0.537918 189 174 173
-0.355395 0.323724 -0.241313 -0.812488 -0.224742 -0.537916 189 174 173
-0.376375 0.242014 -0.249621 -0.812488 -0.224742 -0.537916 189 174 173
-3.461526 9.004613 0.823412 -0.812488 -0.224742 -0.537916 189 174 171
-3.266208 8.947136 0.478277 -0.812488 -0.224742 -0.537916 199 180 178
0.345189 0.323724 -0.241313 0.000000 -0.034856 0.999392 255 255 255
-0.355395 0.323724 -0.241313 0.000000 -0.034856 0.999392 231 223 223
-0.386011 0.184978 -0.246152 0.000000 -0.034856 0.999392 255 255 255
0.375805 0.184978 -0.246152 0.000000 -0.034856 0.999392 255 255 255
-3.461526 9.004613 0.823412 -0.000001 0.986415 -0.164273 189 174 173
3.451311 9.004619 0.823412 -0.000001 0.986415 -0.164273 189 172 169
3.255992 8.947141 0.478277 -0.000001 0.986415 -0.164273 193 178 177
-3.266208 8.947136 0.478277 -0.000001 0.986415 -0.164273 199 181 179
-3.266208 8.947136 0.478277 -0.668604 -0.276837 0.690167 193 178 177
-3.551234 9.102674 0.184071 -0.668604 -0.276837 0.690167 197 180 178
-0.386011 0.184978 -0.246152 -0.668604 -0.276837 0.690167 189 173 170
-0.355395 0.323724 -0.241313 -0.668604 -0.276837 0.690167 189 174 173
0.375805 0.184978 -0.246152 -0.000000 0.076119 -0.997099 255 255 255
-0.386011 0.184978 -0.246152 -0.000000 0.076119 -0.997099 255 255 255
-0.352646 0.342202 -0.234149 -0.000000 0.076119 -0.997099 255 255 255
0.342440 0.342203 -0.234149 -0.000000 0.076119 -0.997099 255 255 255
-3.266208 8.947136 0.478277 -0.000001 0.884059 0.467375 199 181 179
3.255992 8.947141 0.478277 -0.000001 0.884059 0.467375 199 180 177
3.541019 9.102678 0.184071 -0.000001 0.884059 0.467375 194 176 174
-3.551234 9.102674 0.184071 -0.000001 0.884059 0.467375 199 181 179
3.541019 9.102678 0.184071 0.668603 -0.276836 0.690168 194 176 174
3.255992 8.947141 0.478277 0.668603 -0.276836 0.690168 199 181 178
0.345189 0.323724 -0.241313 0.668603 -0.276836 0.690168 199 181 179
0.375805 0.184978 -0.246152 0.668603 -0.276836 0.690168 199 180 177
-3.551234 9.102674 0.184071 -0.732147 -0.236830 -0.638648 199 181 179
-3.240618 8.967757 -0.230544 -0.732147 -0.236830 -0.638648 199 181 179
-0.352646 0.342202 -0.234149 -0.732147 -0.236830 -0.638648 189 174 173
-0.386011 0.184978 -0.246152 -0.732147 -0.236830 -0.638648 189 174 173
0.342440 0.342203 -0.234149 0.000000 -0.030113 0.999546 153 82 7
-0.352646 0.342202 -0.234149 0.000000 -0.030113 0.999546 153 82 7
-0.386907 0.190506 -0.238719 0.000000 -0.030113 0.999546 153 82 6
0.376701 0.190506 -0.238719 0.000000 -0.030113 0.999546 153 82 7
-3.551234 9.102674 0.184071 -0.000001 0.950922 -0.309431 199 181 179
3.541019 9.102678 0.184071 -0.000001 0.950922 -0.309431 199 181 179
3.230403 8.967762 -0.230544 -0.000001 0.950922 -0.309431 199 181 179
-3.240618 8.967757 -0.230544 -0.000001 0.950922 -0.309431 199 180 178
3.230403 8.967762 -0.230544 0.732147 -0.236829 -0.638649 199 181 179
3.541019 9.102678 0.184071 0.732147 -0.236829 -0.638649 194 176 174
0.375805 0.184978 -0.246152 0.732147 -0.236829 -0.638649 199 180 177
0.342440 0.342203 -0.234149 0.732147 -0.236829 -0.638649 199 181 179
-0.386907 0.190506 -0.238719 -0.745699 -0.243024 0.620381 189 174 172
-0.352646 0.342202 -0.234149 -0.745699 -0.243024 0.620381 189 174 173
-3.240618 8.967757 -0.230544 -0.745699 -0.243024 0.620381 198 180 178
-3.559573 9.120597 -0.650093 -0.745699 -0.243024 0.620381 199 181 179
0.376701 0.190506 -0.238719 0.000000 -0.023205 -0.999731 255 255 255
-0.386907 0.190506 -0.238719 0.000000 -0.023205 -0.999731 255 255 255
-0.335061 0.431870 -0.244322 0.000000 -0.023205 -0.999731 255 255 255
0.324855 0.431870 -0.244322 0.000000 -0.023205 -0.999731 255 255 255
-3.240618 8.967757 -0.230544 -0.000001 0.939595 0.342288 199 181 179
3.230403 8.967762 -0.230544 -0.000001 0.939595 0.342288 199 181 179
3.549359 9.120600 -0.650093 -0.000001 0.939595 0.342288 199 181 179
-3.559573 9.120597 -0.650093 -0.000001 0.939595 0.342288 198 180 178
3.549359 9.120600 -0.650093 0.745698 -0.243023 0.620382 199 181 179
3.230403 8.967762 -0.230544 0.745698 -0.243023 0.620382 199 181 179
0.342440 0.342203 -0.234149 0.745698 -0.243023 0.620382 199 181 179
0.376701 0.190506 -0.238719 0.745698 -0.243023 0.620382 198 180 177
0.376701 0.190506 -0.238719 0.478689 -0.217374 -0.850650 198 180 177
0.324855 0.431870 -0.244322 0.478689 -0.217374 -0.850650 199 181 179
3.066691 8.864416 -0.941492 0.478689 -0.217374 -0.850650 191 170 163
3.549359 9.120600 -0.650093 0.478689 -0.217374 -0.850650 199 181 179
-0.335061 0.431870 -0.244322 -0.478690 -0.217375 -0.850649 198 180 177
-0.386907 0.190506 -0.238719 -0.478690 -0.217375 -0.850649 247 241 234
-3.559573 9.120597 -0.650093 -0.478690 -0.217375 -0.850649 199 181 179
-3.076907 8.864413 -0.941492 -0.478690 -0.217375 -0.850649 193 167 155
0.324855 0.431870 -0.244322 0.000000 -0.076012 0.997107 153 82 7
-0.335061 0.431870 -0.244322 0.000000 -0.076012 0.997107 153 82 7
-0.385376 0.204655 -0.261643 0.000000 -0.076012 0.997107 153 81 6
0.375170 0.204655 -0.261643 0.000000 -0.076012 0.997107 153 82 7
-3.559573 9.120597 -0.650093 -0.000000 0.751030 -0.660268 199 181 179
3.549359 9.120600 -0.650093 -0.000000 0.751030 -0.660268 199 181 179
3.066691 8.864416 -0.941492 -0.000000 0.751030 -0.660268 191 164 150
-3.076907 8.864413 -0.941492 -0.000000 0.751030 -0.660268 199 181 179
-3.076907 8.864413 -0.941492 -0.679721 -0.154981 0.716910 198 180 177
-3.545322 9.053584 -1.424217 -0.679721 -0.154981 0.716910 189 160 143
-0.385376 0.204655 -0.261643 -0.679721 -0.154981 0.716910 153 82 7
-0.335061 0.431870 -0.244322 -0.679721 -0.154981 0.716910 198 180 177
-3.545322 9.053584 -1.424217 -0.000001 0.898145 -0.439700 190 171 165
3.535106 9.053588 -1.424217 -0.000001 0.898145 -0.439700 189 174 173
3.280040 8.906125 -1.725431 -0.000001 0.898145 -0.439700 182 151 130
-3.290254 8.906120 -1.725431 -0.000001 0.898145 -0.439700 190 174 173
-3.076907 8.864413 -0.941492 -0.000000 0.931060 0.364866 199 181 179
3.066691 8.864416 -0.941492 -0.000000 0.931060 0.364866 191 164 150
3.535106 9.053588 -1.424217 -0.000000 0.931060 0.364866 189 174 173
-3.545322 9.053584 -1.424217 -0.000000 0.931060 0.364866 190 171 165
3.535106 9.053588 -1.424217 0.679722 -0.154981 0.716909 189 174 173
3.066691 8.864416 -0.941492 0.679722 -0.154981 0.716909 191 174 173
0.324855 0.431870 -0.244322 0.679722 -0.154981 0.716909 199 181 179
0.375170 0.204655 -0.261643 0.679722 -0.154981 0.716909 199 181 179
-0.316566 9.117203 -1.758670 -1.000000 -0.000001 0.000000 94 94 95
-0.316567 9.980707 -1.758670 -1.000000 -0.000001 0.000000 93 93 94
-0.316567 9.980707 -2.043105 -1.000000 -0.000001 0.000000 94 94 95
-0.316566 9.117203 -2.043105 -1.000000 -0.000001 0.000000 94 94 95
0.306350 9.117201 -1.758670 -0.000003 -1.000000 0.000000 255 255 255
-0.316566 9.117203 -1.758670 -0.000003 -1.000000 0.000000 255 255 255
-0.316566 9.117203 -2.043105 -0.000003 -1.000000 0.000000 255 255 255
0.306350 9.117201 -2.043105 -0.000003 -1.000000 0.000000 255 255 255
0.306350 9.117201 -1.758670 -0.000000 0.000000 1.000000 87 87 88
0.306349 9.980707 -1.758670 -0.000000 0.000000 1.000000 94 94 95
-0.316567 9.980707 -1.758670 -0.000000 0.000000 1.000000 93 93 94
-0.316566 9.117203 -1.758670 -0.000000 0.000000 1.000000 80 80 80
-0.316567 9.980707 -1.758670 0.000000 1.000000 -0.000000 94 94 95
0.306349 9.980707 -1.758670 0.000000 1.000000 -0.000000 94 94 95
0.306349 9.980707 -2.043105 0.000000 1.000000 -0.000000 94 94 95
-0.316567 9.980707 -2.043105 0.000000 1.000000 -0.000000 94 94 95
-0.316566 9.117203 -2.043105 -0.000000 0.000000 -1.000000 94 94 95
-0.316567 9.980707 -2.043105 -0.000000 0.000000 -1.000000 94 94 95
0.306349 9.980707 -2.043105 -0.000000 0.000000 -1.000000 82 82 82
0.306350 9.117201 -2.043105 -0.000000 0.000000 -1.000000 88 88 88
0.306349 9.980707 -1.758670 1.000000 0.000001 0.000000 94 94 95
0.306350 9.117201 -1.758670 1.000000 0.000001 0.000000 92 89 87
0.306350 9.117201 -2.043105 1.000000 0.000001 0.000000 94 94 95
0.306349 9.980707 -2.043105 1.000000 0.000001 0.000000 94 94 95
-0.316566 9.117203 1.597510 -1.000000 -0.000001 0.000000 94 94 95
-0.316567 9.980707 1.597510 -1.000000 -0.000001 0.000000 94 94 95
-0.316567 9.980707 1.313074 -1.000000 -0.000001 0.000000 94 94 95
-0.316566 9.117203 1.313074 -1.000000 -0.000001 0.000000 94 94 95
0.306350 9.117201 1.597510 -0.000003 -1.000000 0.000000 255 255 255
-0.316566 9.117203 1.597510 -0.000003 -1.000000 0.000000 255 255 255
-0.316566 9.117203 1.313074 -0.000003 -1.000000 0.000000 255 255 255
0.306350 9.117201 1.313074 -0.000003 -1.000000 0.000000 255 255 255
0.306350 9.117201 1.597510 -0.000000 0.000000 1.000000 94 94 95
0.306349 9.980707 1.597510 -0.000000 0.000000 1.000000 94 94 95
-0.316567 9.980707 1.597510 -0.000000 0.000000 1.000000 94 94 95
-0.316566 9.117203 1.597510 -0.000000 0.000000 1.000000 94 94 95
-0.316567 9.980707 1.597510 0.000000 1.000000 -0.000000 94 94 95
0.306349 9.980707 1.597510 0.000000 1.000000 -0.000000 94 94 95
0.306349 9.980707 1.313074 0.000000 1.000000 -0.000000 94 94 95
-0.316567 9.980707 1.313074 0.000000 1.000000 -0.000000 94 94 95
-0.316566 9.117203 1.313074 -0.000000 0.000000 -1.000000 94 94 95
-0.316567 9.980707 1.313074 -0.000000 0.000000 -1.000000 94 94 95
0.306349 9.980707 1.313074 -0.000000 0.000000 -1.000000 94 94 95
0.306350 9.117201 1.313074 -0.000000 0.000000 -1.000000 93 93 94
0.306349 9.980707 1.597510 1.000000 0.000001 0.000000 89 88 87
0.306350 9.117201 1.597510 1.000000 0.000001 0.000000 94 94 95
0.306350 9.117201 1.313074 1.000000 0.000001 0.000000 88 87 87
0.306349 9.980707 1.313074 1.000000 0.000001 0.000000 91 91 91
0.414764 0.000000 -0.480158 0.000000 -1.000000 -0.000000 103 63 14
0.414765 0.000000 0.005191 0.000000 -1.000000 -0.000000 153 82 7
-0.424970 -0.000000 0.005191 0.000000 -1.000000 -0.000000 102 60 11
-0.424970 0.000000 -0.480158 0.000000 -1.000000 -0.000000 153 82 7
0.347772 0.256318 -0.265399 0.000000 -0.166439 -0.986052 255 255 255
-0.357978 0.256318 -0.265399 0.000000 -0.166439 -0.986052 255 255 255
-3.290254 8.906120 -1.725431 0.000000 -0.166439 -0.986052 255 255 255
3.280040 8.906125 -1.725431 0.000000 -0.166439 -0.986052 255 255 255
3.535106 9.053588 -1.424217 0.740260 -0.344273 -0.577487 189 174 173
0.375170 0.204655 -0.261643 0.740260 -0.344273 -0.577487 199 181 179
0.347772 0.256318 -0.265399 0.740260 -0.344273 -0.577487 199 181 179
3.280040 8.906125 -1.725431 0.740260 -0.344273 -0.577487 182 151 130
-0.385376 0.204655 -0.261643 -0.740259 -0.344273 -0.577488 168 120 75
-3.545322 9.053584 -1.424217 -0.740259 -0.344273 -0.577488 189 160 143
-3.290254 8.906120 -1.725431 -0.740259 -0.344273 -0.577488 189 160 143
-0.357978 0.256318 -0.265399 -0.740259 -0.344273 -0.577488 171 128 89
0.375170 0.204655 -0.261643 0.000000 -0.072503 -0.997368 153 82 7
-0.385376 0.204655 -0.261643 0.000000 -0.072503 -0.997368 153 81 6
-0.357978 0.256318 -0.265399 0.000000 -0.072503 -0.997368 153 81 6
0.347772 0.256318 -0.265399 0.000000 -0.072503 -0.997368 153 82 7
4 0 1 2 3
4 4 5 6 7
4 8 9 10 11
4 12 13 14 15
4 16 17 18 19
4 20 21 22 23
4 9 24 25 26
4 27 28 29 30
4 31 32 33 34
4 35 36 37 38
4 39 40 41 42
4 43 44 45 46
4 47 48 49 50
4 51 52 53 54
4 55 56 57 58
4 59 60 61 62
4 63 64 65 66
4 67 68 69 70
4 71 72 73 74
4 75 76 77 78
4 79 80 81 82
4 83 84 85 86
4 87 88 89 90
4 91 92 93 94
4 95 96 97 98
4 99 100 101 102
4 103 104 105 106
4 107 108 109 110
4 111 112 113 114
4 115 116 117 118
4 119 120 121 122
4 123 124 125 126
4 127 128 129 130
4 131 132 133 134
4 135 136 137 138
4 139 140 141 142
4 143 144 145 146
4 147 148 149 150
4 151 152 153 154
4 155 156 157 158
4 159 160 161 162
4 163 164 165 166
4 167 168 169 170
4 171 172 173 174
4 175 176 177 178
4 179 180 181 182
4 183 184 185 186
4 187 188 189 190
4 191 192 193 194
4 195 196 197 198
4 199 200 201 202
4 203 204 205 206
4 207 208 209 210
4 211 212 213 214
4 215 216 217 218
4 219 220 221 222
4 223 224 225 226
4 227 228 229 230
4 231 232 233 234
