ply
format ascii 1.0
comment Created by Blender 2.71 (sub 0) - www.blender.org, source file: 'coalBellow.blend'
element vertex 216
property float x
property float y
property float z
property float nx
property float ny
property float nz
property uchar red
property uchar green
property uchar blue
element face 54
property list uchar uint vertex_indices
end_header
-0.586530 0.009270 -1.303088 0.000000 0.227078 -0.973877 153 82 7
0.600965 0.009268 -1.303088 0.000000 0.227078 -0.973877 152 81 7
2.774295 -5.414101 -2.567649 0.000000 0.227078 -0.973877 153 82 7
-2.754350 -5.414096 -2.567649 0.000000 0.227078 -0.973877 152 82 7
-0.586530 0.009271 -0.658818 -0.928567 0.371165 -0.000000 153 82 7
-0.586530 0.009270 -1.303088 -0.928567 0.371165 -0.000000 153 82 7
-2.754350 -5.414096 -2.567649 -0.928567 0.371165 -0.000000 153 82 7
-2.754350 -5.414096 -1.846054 -0.928567 0.371165 -0.000000 153 82 7
0.600965 0.009268 -1.303088 0.928241 0.371978 -0.000001 153 82 7
0.600965 0.009269 -0.658818 0.928241 0.371978 -0.000001 153 82 7
2.774296 -5.414101 -1.846054 0.928241 0.371978 -0.000001 153 82 7
2.774295 -5.414101 -2.567649 0.928241 0.371978 -0.000001 157 87 15
-2.754350 -5.414096 -1.846054 -0.000001 -1.000000 0.000000 153 82 7
-2.754350 -5.414096 -2.567649 -0.000001 -1.000000 0.000000 153 82 7
2.774295 -5.414101 -2.567649 -0.000001 -1.000000 0.000000 152 82 7
2.774296 -5.414101 -1.846054 -0.000001 -1.000000 0.000000 153 82 7
0.600965 0.009269 -0.658818 -0.000000 -0.213847 0.976867 153 82 7
-0.586530 0.009271 -0.658818 -0.000000 -0.213847 0.976867 153 82 7
-2.754350 -5.414096 -1.846054 -0.000000 -0.213847 0.976867 153 82 7
2.774296 -5.414101 -1.846054 -0.000000 -0.213847 0.976867 153 82 7
-0.636438 0.009485 -0.014549 -0.921496 0.386859 -0.034429 153 82 7
-0.586530 0.009271 -0.658818 -0.921496 0.386859 -0.034429 153 82 7
-2.988718 -5.539256 0.596384 -0.921496 0.386859 -0.034429 154 84 11
-2.988719 -5.539255 1.290336 -0.921496 0.386859 -0.034429 153 82 7
0.600965 0.009269 -0.658818 0.921148 0.387612 -0.035262 153 82 7
0.652101 0.009483 -0.014549 0.921148 0.387612 -0.035262 153 82 7
3.010359 -5.539261 1.290336 0.921148 0.387612 -0.035262 170 111 48
3.010359 -5.539261 0.596384 0.921148 0.387612 -0.035262 153 82 7
-0.586530 0.009271 -0.658818 -0.000000 -0.220858 -0.975306 153 82 7
0.600965 0.009269 -0.658818 -0.000000 -0.220858 -0.975306 153 82 7
0.507716 -0.425991 -0.560253 -0.000000 -0.220858 -0.975306 159 95 29
-0.493283 -0.425990 -0.560253 -0.000000 -0.220858 -0.975306 198 180 178
0.652101 0.009483 -0.014549 0.000000 0.228923 0.973445 153 82 7
-0.636438 0.009485 -0.014549 0.000000 0.228923 0.973445 153 82 7
-2.988719 -5.539255 1.290336 0.000000 0.228923 0.973445 153 82 7
3.010359 -5.539261 1.290336 0.000000 0.228923 0.973445 186 117 70
-2.988718 -5.539256 0.596384 -0.053602 -0.195354 -0.979267 154 84 11
-0.586530 0.009271 -0.658818 -0.053602 -0.195354 -0.979267 153 82 7
-0.493283 -0.425990 -0.560253 -0.053602 -0.195354 -0.979267 199 180 178
-2.672773 -5.216269 0.497818 -0.053602 -0.195354 -0.979267 166 112 59
-2.988719 -5.539255 1.290336 -0.000001 -1.000000 0.000001 153 82 7
-2.988718 -5.539256 0.596384 -0.000001 -1.000000 0.000001 154 84 10
3.010359 -5.539261 0.596384 -0.000001 -1.000000 0.000001 153 82 7
3.010359 -5.539261 1.290336 -0.000001 -1.000000 0.000001 163 79 16
0.600965 0.009269 -0.658818 0.053584 -0.195290 -0.979281 153 82 7
3.010359 -5.539261 0.596384 0.053584 -0.195290 -0.979281 153 82 7
2.694416 -5.216272 0.497818 0.053584 -0.195290 -0.979281 153 82 7
0.507716 -0.425991 -0.560253 0.053584 -0.195290 -0.979281 159 95 30
-0.493283 -0.425990 -0.560253 0.000001 0.818486 0.574527 255 255 255
0.507716 -0.425991 -0.560253 0.000001 0.818486 0.574527 255 255 255
0.532244 -0.334187 -0.691040 0.000001 0.818486 0.574527 255 255 255
-0.517810 -0.334185 -0.691040 0.000001 0.818486 0.574527 255 255 255
3.010359 -5.539261 0.596384 -0.000000 -0.291879 -0.956455 153 82 7
-2.988718 -5.539256 0.596384 -0.000000 -0.291879 -0.956455 154 84 11
-2.672773 -5.216269 0.497818 -0.000000 -0.291879 -0.956455 167 111 58
2.694416 -5.216272 0.497818 -0.000000 -0.291879 -0.956455 152 82 7
-2.672773 -5.216269 0.497818 -0.763252 0.449838 0.463779 167 112 59
-0.493283 -0.425990 -0.560253 -0.763252 0.449838 0.463779 199 181 179
-0.517810 -0.334185 -0.691040 -0.763252 0.449838 0.463779 199 181 179
-2.804288 -5.356613 0.418884 -0.763252 0.449838 0.463779 171 120 73
0.507716 -0.425991 -0.560253 0.762977 0.450740 0.463357 159 95 30
2.694416 -5.216272 0.497818 0.762977 0.450740 0.463357 152 81 7
2.825929 -5.356618 0.418884 0.762977 0.450740 0.463357 157 92 26
0.532244 -0.334187 -0.691040 0.762977 0.450740 0.463357 154 83 9
-0.517810 -0.334185 -0.691040 -0.000000 -0.179913 -0.983682 255 255 255
0.532244 -0.334187 -0.691040 -0.000000 -0.179913 -0.983682 254 254 254
0.502576 -0.454779 -0.668984 -0.000000 -0.179913 -0.983682 231 223 223
-0.488142 -0.454778 -0.668984 -0.000000 -0.179913 -0.983682 255 255 255
2.694416 -5.216272 0.497818 -0.000000 -0.490217 0.871601 153 82 7
-2.672773 -5.216269 0.497818 -0.000000 -0.490217 0.871601 153 83 10
-2.804288 -5.356613 0.418884 -0.000000 -0.490217 0.871601 160 98 36
2.825929 -5.356618 0.418884 -0.000000 -0.490217 0.871601 158 93 27
-0.517810 -0.334185 -0.691040 -0.860279 0.318060 -0.398444 199 181 179
-0.488142 -0.454778 -0.668984 -0.860279 0.318060 -0.398444 199 181 179
-2.645209 -5.269826 -0.037682 -0.860279 0.318060 -0.398444 198 180 177
-2.804288 -5.356613 0.418884 -0.860279 0.318060 -0.398444 171 120 73
0.502576 -0.454779 -0.668984 0.859906 0.319165 -0.398365 173 124 81
0.532244 -0.334187 -0.691040 0.859906 0.319165 -0.398365 154 83 9
2.825929 -5.356618 0.418884 0.859906 0.319165 -0.398365 158 93 27
2.666851 -5.269831 -0.037682 0.859906 0.319165 -0.398365 199 180 178
-0.488142 -0.454778 -0.668984 0.000000 0.062619 0.998038 255 255 255
0.502576 -0.454779 -0.668984 0.000000 0.062619 0.998038 231 223 223
0.545871 -0.250010 -0.681832 0.000000 0.062619 0.998038 255 255 255
-0.531437 -0.250009 -0.681832 0.000000 0.062619 0.998038 255 255 255
2.825929 -5.356618 0.418884 -0.000001 -0.982409 -0.186743 158 93 27
-2.804288 -5.356613 0.418884 -0.000001 -0.982409 -0.186743 171 120 73
-2.645209 -5.269826 -0.037682 -0.000001 -0.982409 -0.186743 199 180 177
2.666851 -5.269831 -0.037682 -0.000001 -0.982409 -0.186743 199 181 179
2.666851 -5.269831 -0.037682 0.824334 0.399737 0.400854 199 181 179
2.671660 -5.380309 -0.217787 0.824334 0.399737 0.400854 199 180 178
0.545871 -0.250010 -0.681832 0.824334 0.399737 0.400854 153 82 7
0.502576 -0.454779 -0.668984 0.824334 0.399737 0.400854 173 124 81
-0.531437 -0.250009 -0.681832 -0.000000 -0.136052 -0.990702 255 255 255
0.545871 -0.250010 -0.681832 -0.000000 -0.136052 -0.990702 255 255 255
0.498688 -0.482051 -0.649966 -0.000000 -0.136052 -0.990702 255 255 255
-0.484254 -0.482049 -0.649966 -0.000000 -0.136052 -0.990702 255 255 255
2.666851 -5.269831 -0.037682 -0.000001 -0.852410 0.522875 199 181 179
-2.645209 -5.269826 -0.037682 -0.000001 -0.852410 0.522875 199 180 177
-2.651718 -5.380303 -0.217787 -0.000001 -0.852410 0.522875 194 176 174
2.671660 -5.380309 -0.217787 -0.000001 -0.852410 0.522875 199 181 179
-2.651718 -5.380303 -0.217787 -0.822055 0.398364 0.406855 194 176 174
-2.645209 -5.269826 -0.037682 -0.822055 0.398364 0.406855 199 181 178
-0.488142 -0.454778 -0.668984 -0.822055 0.398364 0.406855 199 181 179
-0.531437 -0.250009 -0.681832 -0.822055 0.398364 0.406855 199 180 177
2.671660 -5.380309 -0.217787 0.759979 0.285632 -0.583821 199 181 179
2.438516 -5.181191 -0.630671 0.759979 0.285632 -0.583821 199 181 179
0.498688 -0.482051 -0.649966 0.759979 0.285632 -0.583821 180 140 108
0.545871 -0.250010 -0.681832 0.759979 0.285632 -0.583821 153 82 7
-0.484254 -0.482049 -0.649966 0.000000 0.054114 0.998535 153 82 7
0.498688 -0.482051 -0.649966 0.000000 0.054114 0.998535 153 82 7
0.547138 -0.258169 -0.662099 0.000000 0.054114 0.998535 153 82 6
-0.532704 -0.258168 -0.662099 0.000000 0.054114 0.998535 153 82 7
2.671660 -5.380309 -0.217787 -0.000001 -0.900728 -0.434384 199 181 179
-2.651718 -5.380303 -0.217787 -0.000001 -0.900728 -0.434384 199 181 179
-2.418572 -5.181187 -0.630671 -0.000001 -0.900728 -0.434384 199 181 179
2.438516 -5.181191 -0.630671 -0.000001 -0.900728 -0.434384 199 180 178
-2.418572 -5.181187 -0.630671 -0.760194 0.284864 -0.583916 199 181 179
-2.651718 -5.380303 -0.217787 -0.760194 0.284864 -0.583916 194 176 174
-0.531437 -0.250009 -0.681832 -0.760194 0.284864 -0.583916 199 180 177
-0.484254 -0.482049 -0.649966 -0.760194 0.284864 -0.583916 199 181 179
0.547138 -0.258169 -0.662099 0.791277 0.307376 0.528584 153 82 7
0.498688 -0.482051 -0.649966 0.791277 0.307376 0.528584 180 140 108
2.438516 -5.181191 -0.630671 0.791277 0.307376 0.528584 198 180 178
2.677921 -5.406761 -1.048468 0.791277 0.307376 0.528584 199 181 179
-0.532704 -0.258168 -0.662099 0.000000 0.041717 -0.999130 255 255 255
0.547138 -0.258169 -0.662099 0.000000 0.041717 -0.999130 255 255 255
0.473821 -0.614387 -0.676972 0.000000 0.041717 -0.999130 255 255 255
-0.459387 -0.614386 -0.676972 0.000000 0.041717 -0.999130 255 255 255
2.438516 -5.181191 -0.630671 -0.000001 -0.879942 0.475082 199 181 179
-2.418572 -5.181187 -0.630671 -0.000001 -0.879942 0.475082 199 181 179
-2.657978 -5.406755 -1.048468 -0.000001 -0.879942 0.475082 199 181 179
2.677921 -5.406761 -1.048468 -0.000001 -0.879942 0.475082 198 180 178
-2.657978 -5.406755 -1.048468 -0.791490 0.306573 0.528731 199 181 179
-2.418572 -5.181187 -0.630671 -0.791490 0.306573 0.528731 199 181 179
-0.484254 -0.482049 -0.649966 -0.791490 0.306573 0.528731 199 181 179
-0.532704 -0.258168 -0.662099 -0.791490 0.306573 0.528731 198 180 177
-0.532704 -0.258168 -0.662099 -0.555090 0.314355 -0.770101 198 180 177
-0.459387 -0.614386 -0.676972 -0.555090 0.314355 -0.770101 199 181 179
-2.295691 -5.028667 -1.338651 -0.555090 0.314355 -0.770101 191 164 150
-2.657978 -5.406755 -1.048468 -0.555090 0.314355 -0.770101 199 181 179
0.473821 -0.614387 -0.676972 0.555000 0.314938 -0.769928 198 180 177
0.547138 -0.258169 -0.662099 0.555000 0.314938 -0.769928 247 241 234
2.677921 -5.406761 -1.048468 0.555000 0.314938 -0.769928 199 181 179
2.315636 -5.028671 -1.338651 0.555000 0.314938 -0.769928 193 167 155
-0.459387 -0.614386 -0.676972 0.000000 0.135863 0.990728 153 82 7
0.473821 -0.614387 -0.676972 0.000000 0.135863 0.990728 153 82 7
0.544973 -0.279050 -0.722959 0.000000 0.135863 0.990728 153 81 6
-0.530538 -0.279049 -0.722959 0.000000 0.135863 0.990728 153 82 7
2.677921 -5.406761 -1.048468 -0.000001 -0.608847 -0.793288 199 181 179
-2.657978 -5.406755 -1.048468 -0.000001 -0.608847 -0.793288 199 181 179
-2.295691 -5.028667 -1.338651 -0.000001 -0.608847 -0.793288 191 164 150
2.315636 -5.028671 -1.338651 -0.000001 -0.608847 -0.793288 199 181 179
2.315636 -5.028671 -1.338651 0.753640 0.199785 0.626189 198 180 177
2.667223 -5.307860 -1.819360 0.753640 0.199785 0.626189 189 160 143
0.544973 -0.279050 -0.722959 0.753640 0.199785 0.626189 153 82 7
0.473821 -0.614387 -0.676972 0.753640 0.199785 0.626189 198 180 177
-0.530538 -0.279049 -0.722959 0.000000 0.213020 -0.977048 255 255 255
0.544973 -0.279050 -0.722959 0.000000 0.213020 -0.977048 255 255 255
2.667223 -5.307860 -1.819360 0.000000 0.213020 -0.977048 255 255 255
-2.647279 -5.307855 -1.819360 0.000000 0.213020 -0.977048 255 255 255
2.315636 -5.028671 -1.338651 -0.000001 -0.864737 0.502226 199 181 179
-2.295691 -5.028667 -1.338651 -0.000001 -0.864737 0.502226 191 164 150
-2.647279 -5.307855 -1.819360 -0.000001 -0.864737 0.502226 168 115 63
2.667223 -5.307860 -1.819360 -0.000001 -0.864737 0.502226 190 163 149
-2.647279 -5.307855 -1.819360 -0.753813 0.198968 0.626241 168 115 63
-2.295691 -5.028667 -1.338651 -0.753813 0.198968 0.626241 191 164 150
-0.459387 -0.614386 -0.676972 -0.753813 0.198968 0.626241 199 181 179
-0.530538 -0.279049 -0.722959 -0.753813 0.198968 0.626241 199 181 179
0.331352 -5.401747 -2.068519 1.000000 -0.000001 0.000000 153 82 7
0.331350 -6.676154 -2.068519 1.000000 -0.000001 0.000000 153 83 8
0.331350 -6.676154 -2.519561 1.000000 -0.000001 0.000000 153 82 7
0.331352 -5.401747 -2.519561 1.000000 -0.000001 0.000000 153 82 7
-0.311404 -5.401745 -2.068519 0.000003 1.000000 0.000000 255 255 255
0.331352 -5.401747 -2.068519 0.000003 1.000000 0.000000 255 255 255
0.331352 -5.401747 -2.519561 0.000003 1.000000 0.000000 255 255 255
-0.311404 -5.401745 -2.519561 0.000003 1.000000 0.000000 255 255 255
-0.311404 -5.401745 -2.068519 0.000000 0.000000 1.000000 153 82 7
-0.311405 -6.676154 -2.068519 0.000000 0.000000 1.000000 153 82 7
0.331350 -6.676154 -2.068519 0.000000 0.000000 1.000000 153 82 7
0.331352 -5.401747 -2.068519 0.000000 0.000000 1.000000 153 82 7
0.331350 -6.676154 -2.068519 0.000000 -1.000000 0.000000 153 82 7
-0.311405 -6.676154 -2.068519 0.000000 -1.000000 0.000000 153 82 7
-0.311405 -6.676154 -2.519561 0.000000 -1.000000 0.000000 153 82 7
0.331350 -6.676154 -2.519561 0.000000 -1.000000 0.000000 153 82 7
0.331352 -5.401747 -2.519561 0.000000 0.000000 -1.000000 153 82 7
0.331350 -6.676154 -2.519561 0.000000 0.000000 -1.000000 153 82 7
-0.311405 -6.676154 -2.519561 0.000000 0.000000 -1.000000 153 82 7
-0.311404 -5.401745 -2.519561 0.000000 0.000000 -1.000000 153 82 8
-0.311405 -6.676154 -2.068519 -1.000000 0.000001 0.000000 153 82 7
-0.311404 -5.401745 -2.068519 -1.000000 0.000001 0.000000 153 82 7
-0.311404 -5.401745 -2.519561 -1.000000 0.000001 0.000000 153 82 7
-0.311405 -6.676154 -2.519561 -1.000000 0.000001 0.000000 153 82 7
0.359546 -5.526621 1.273646 1.000000 -0.000001 0.000000 153 82 7
0.359545 -6.830489 1.273646 1.000000 -0.000001 0.000000 153 82 7
0.359545 -6.830489 0.822604 1.000000 -0.000001 0.000000 153 82 7
0.359546 -5.526621 0.822604 1.000000 -0.000001 0.000000 153 82 7
-0.337901 -5.526620 1.273646 0.000001 1.000000 0.000000 255 255 255
0.359546 -5.526621 1.273646 0.000001 1.000000 0.000000 255 255 255
0.359546 -5.526621 0.822604 0.000001 1.000000 0.000000 255 255 255
-0.337901 -5.526620 0.822604 0.000001 1.000000 0.000000 255 255 255
-0.337901 -5.526620 1.273646 0.000000 0.000000 1.000000 153 82 7
-0.337903 -6.830489 1.273646 0.000000 0.000000 1.000000 153 82 7
0.359545 -6.830489 1.273646 0.000000 0.000000 1.000000 153 82 7
0.359546 -5.526621 1.273646 0.000000 0.000000 1.000000 153 82 7
0.359545 -6.830489 1.273646 0.000000 -1.000000 0.000000 153 82 7
-0.337903 -6.830489 1.273646 0.000000 -1.000000 0.000000 153 82 7
-0.337903 -6.830489 0.822604 0.000000 -1.000000 0.000000 153 82 7
0.359545 -6.830489 0.822604 0.000000 -1.000000 0.000000 153 82 7
0.359546 -5.526621 0.822604 0.000000 0.000000 -1.000000 153 83 8
0.359545 -6.830489 0.822604 0.000000 0.000000 -1.000000 153 82 7
-0.337903 -6.830489 0.822604 0.000000 0.000000 -1.000000 153 82 7
-0.337901 -5.526620 0.822604 0.000000 0.000000 -1.000000 153 82 7
-0.337903 -6.830489 1.273646 -1.000000 0.000001 0.000000 153 82 7
-0.337901 -5.526620 1.273646 -1.000000 0.000001 0.000000 153 82 7
-0.337901 -5.526620 0.822604 -1.000000 0.000001 0.000000 153 82 7
-0.337903 -6.830489 0.822604 -1.000000 0.000001 0.000000 153 82 7
4 0 1 2 3
4 4 5 6 7
4 8 9 10 11
4 12 13 14 15
4 16 17 18 19
4 20 21 22 23
4 24 25 26 27
4 28 29 30 31
4 32 33 34 35
4 36 37 38 39
4 40 41 42 43
4 44 45 46 47
4 48 49 50 51
4 52 53 54 55
4 56 57 58 59
4 60 61 62 63
4 64 65 66 67
4 68 69 70 71
4 72 73 74 75
4 76 77 78 79
4 80 81 82 83
4 84 85 86 87
4 88 89 90 91
4 92 93 94 95
4 96 97 98 99
4 100 101 102 103
4 104 105 106 107
4 108 109 110 111
4 112 113 114 115
4 116 117 118 119
4 120 121 122 123
4 124 125 126 127
4 128 129 130 131
4 132 133 134 135
4 136 137 138 139
4 140 141 142 143
4 144 145 146 147
4 148 149 150 151
4 152 153 154 155
4 156 157 158 159
4 160 161 162 163
4 164 165 166 167
4 168 169 170 171
4 172 173 174 175
4 176 177 178 179
4 180 181 182 183
4 184 185 186 187
4 188 189 190 191
4 192 193 194 195
4 196 197 198 199
4 200 201 202 203
4 204 205 206 207
4 208 209 210 211
4 212 213 214 215
