ply
format ascii 1.0
comment Created by Blender 2.71 (sub 0) - www.blender.org, source file: 'coalBellow.blend'
element vertex 65
property float x
property float y
property float z
property float nx
property float ny
property float nz
property uchar red
property uchar green
property uchar blue
element face 20
property list uchar uint vertex_indices
end_header
-0.636438 2.419301 1.546912 -0.000000 0.000000 -1.000000 153 82 7
-0.636436 3.707839 1.546912 -0.000000 0.000000 -1.000000 153 82 7
0.652103 3.707837 1.546912 -0.000000 0.000000 -1.000000 153 83 8
0.652101 2.419299 1.546912 -0.000000 0.000000 -1.000000 153 82 7
-0.636438 2.419301 1.546912 -1.000000 0.000001 0.000000 153 82 7
-0.636438 2.419301 2.191182 -1.000000 0.000001 0.000000 153 82 7
-0.636436 3.707839 2.191182 -1.000000 0.000001 0.000000 153 82 7
-0.636436 3.707839 1.546912 -1.000000 0.000001 0.000000 153 82 7
-0.636436 3.707839 1.546912 0.000002 1.000000 -0.000000 153 82 7
-0.636436 3.707839 2.191182 0.000002 1.000000 -0.000000 153 82 7
0.652103 3.707837 2.191182 0.000002 1.000000 -0.000000 153 82 7
0.652103 3.707837 1.546912 0.000002 1.000000 -0.000000 153 82 7
0.652103 3.707837 1.546912 1.000000 -0.000002 -0.000000 153 82 7
0.652103 3.707837 2.191182 1.000000 -0.000002 -0.000000 165 79 17
0.652101 2.419299 2.191182 1.000000 -0.000002 -0.000000 153 82 7
0.652101 2.419299 1.546912 1.000000 -0.000002 -0.000000 153 82 7
-0.636438 2.419301 2.191182 -1.000000 0.000002 0.000000 153 82 7
-0.636438 2.419301 2.835451 -1.000000 0.000002 0.000000 153 82 7
-0.636435 3.707839 2.835451 -1.000000 0.000002 0.000000 153 82 7
-0.636436 3.707839 2.191182 -1.000000 0.000002 0.000000 153 82 7
-0.636435 3.707839 2.835451 0.000002 1.000000 -0.000000 153 82 7
0.652103 3.707837 2.835451 0.000002 1.000000 -0.000000 152 81 7
0.652103 3.707837 2.191182 1.000000 -0.000002 -0.000000 165 79 18
0.652103 3.707837 2.835451 1.000000 -0.000002 -0.000000 176 78 30
0.652101 2.419299 2.835451 1.000000 -0.000002 -0.000000 153 82 7
-0.636438 2.419301 2.835451 0.000000 0.000000 1.000000 153 82 7
0.652101 2.419299 2.835451 0.000000 0.000000 1.000000 153 82 7
0.652103 3.707837 2.835451 0.000000 0.000000 1.000000 175 75 27
-0.636435 3.707839 2.835451 0.000000 0.000000 1.000000 152 81 7
0.241459 4.516831 2.424812 1.000000 -0.000001 0.000000 57 56 59
0.241458 3.490238 2.424812 1.000000 -0.000001 0.000000 46 45 48
0.241458 3.490238 1.957552 1.000000 -0.000001 0.000000 46 45 48
0.241459 4.516831 1.957552 1.000000 -0.000001 0.000000 54 53 56
-0.225800 4.516831 2.424812 0.000000 0.000000 1.000000 61 60 63
-0.225802 3.490239 2.424812 0.000000 0.000000 1.000000 46 45 48
0.241458 3.490238 2.424812 0.000000 0.000000 1.000000 46 45 48
0.241459 4.516831 2.424812 0.000000 0.000000 1.000000 52 51 54
-0.225802 3.490239 2.424812 -0.000002 -1.000000 0.000000 48 47 50
-0.225802 3.490239 1.957552 -0.000002 -1.000000 0.000000 46 45 48
-0.105478 3.490238 2.304488 -0.000002 -1.000000 0.000000 46 45 48
-0.225802 3.490239 1.957552 -0.000001 -1.000000 0.000001 46 45 48
0.241458 3.490238 1.957552 -0.000001 -1.000000 0.000001 108 108 110
0.121135 3.490238 2.077875 -0.000001 -1.000000 0.000001 46 45 48
-0.105478 3.490238 2.077875 -0.000002 -1.000000 -0.000000 46 45 48
-0.225802 3.490239 1.957552 0.000000 -1.000000 -0.000002 46 45 48
0.121135 3.490238 2.077875 0.000000 -1.000000 -0.000002 46 45 48
-0.105478 3.490238 2.077875 0.000000 -1.000000 -0.000002 46 45 48
-0.225802 3.490239 2.424812 -0.000001 -1.000000 0.000001 48 47 50
-0.105478 3.490238 2.304488 -0.000001 -1.000000 0.000001 46 45 48
0.241458 3.490238 2.424812 -0.000001 -1.000000 0.000001 49 48 51
0.121135 3.490238 2.304488 -0.000002 -1.000000 0.000000 46 45 48
0.121135 3.490238 2.077875 -0.000002 -1.000000 0.000000 46 45 48
0.241458 3.490238 1.957552 -0.000002 -1.000000 0.000000 108 108 110
-0.105478 3.490238 2.304488 -0.000000 -1.000000 -0.000002 46 45 48
0.121135 3.490238 2.304488 -0.000000 -1.000000 -0.000002 46 45 48
0.241458 3.490238 2.424812 -0.000000 -1.000000 -0.000002 49 48 51
0.241458 3.490238 2.424812 -0.000002 -1.000000 -0.000000 49 48 51
0.241459 4.516831 1.957552 0.000000 0.000000 -1.000000 80 79 80
0.241458 3.490238 1.957552 0.000000 0.000000 -1.000000 47 46 49
-0.225802 3.490239 1.957552 0.000000 0.000000 -1.000000 46 45 48
-0.225800 4.516831 1.957552 0.000000 0.000000 -1.000000 62 61 64
-0.225802 3.490239 2.424812 -1.000000 0.000001 0.000000 49 48 51
-0.225800 4.516831 2.424812 -1.000000 0.000001 0.000000 66 65 68
-0.225800 4.516831 1.957552 -1.000000 0.000001 0.000000 46 45 48
-0.225802 3.490239 1.957552 -1.000000 0.000001 0.000000 66 65 68
4 0 1 2 3
4 4 5 6 7
4 8 9 10 11
4 12 13 14 15
4 16 17 18 19
4 9 20 21 10
4 22 23 24 14
4 25 26 27 28
4 29 30 31 32
4 33 34 35 36
3 37 38 39
3 40 41 42
3 38 43 39
3 44 45 46
3 47 48 49
3 50 51 52
3 53 54 55
3 50 52 56
4 57 58 59 60
4 61 62 63 64
