ply
format ascii 1.0
comment Created by Blender 2.71 (sub 0) - www.blender.org, source file: ''
element vertex 24
property float x
property float y
property float z
property float nx
property float ny
property float nz
property uchar red
property uchar green
property uchar blue
element face 6
property list uchar uint vertex_indices
end_header
0.000000 2.000000 2.000000 -1.000000 0.000000 0.000000 255 7 13
0.000000 2.000000 0.000000 -1.000000 0.000000 0.000000 64 14 255
0.000000 0.000000 0.000000 -1.000000 0.000000 0.000000 164 255 5
0.000000 0.000000 2.000000 -1.000000 0.000000 0.000000 244 4 255
2.000000 2.000000 1.999999 1.000000 0.000000 -0.000000 18 255 124
2.000000 0.000000 2.000000 1.000000 0.000000 -0.000000 56 255 213
2.000000 0.000000 0.000000 1.000000 0.000000 -0.000000 255 228 247
2.000000 1.999999 -0.000001 1.000000 0.000000 -0.000000 245 255 53
0.000000 2.000000 2.000000 0.000000 1.000000 -0.000000 255 1 6
2.000000 2.000000 1.999999 0.000000 1.000000 -0.000000 18 255 124
2.000000 1.999999 -0.000001 0.000000 1.000000 -0.000000 245 255 53
0.000000 2.000000 0.000000 0.000000 1.000000 -0.000000 64 14 255
0.000000 2.000000 0.000000 -0.000000 -0.000000 -1.000000 64 14 255
2.000000 1.999999 -0.000001 -0.000000 -0.000000 -1.000000 245 255 53
2.000000 0.000000 0.000000 -0.000000 -0.000000 -1.000000 255 228 247
0.000000 0.000000 0.000000 -0.000000 -0.000000 -1.000000 164 255 5
0.000000 0.000000 0.000000 0.000000 -1.000000 -0.000000 164 255 5
2.000000 0.000000 0.000000 0.000000 -1.000000 -0.000000 255 228 247
2.000000 0.000000 2.000000 0.000000 -1.000000 -0.000000 56 255 213
0.000000 0.000000 2.000000 0.000000 -1.000000 -0.000000 244 4 255
2.000000 2.000000 1.999999 0.000000 0.000000 1.000000 18 255 124
0.000000 2.000000 2.000000 0.000000 0.000000 1.000000 255 1 6
0.000000 0.000000 2.000000 0.000000 0.000000 1.000000 244 4 255
2.000000 0.000000 2.000000 0.000000 0.000000 1.000000 56 255 213
4 0 1 2 3
4 4 5 6 7
4 8 9 10 11
4 12 13 14 15
4 16 17 18 19
4 20 21 22 23
