ply
format ascii 1.0
comment Created by Blender 2.71 (sub 0) - www.blender.org, source file: 'hammer.blend'
element vertex 422
property float x
property float y
property float z
property float nx
property float ny
property float nz
property uchar red
property uchar green
property uchar blue
element face 118
property list uchar uint vertex_indices
end_header
-0.088856 -0.270715 0.472178 -0.382684 -0.000001 0.923879 138 83 6
-0.088856 -1.492052 0.472177 -0.382684 -0.000001 0.923879 138 83 6
-0.030213 -1.492052 0.496468 -0.382684 -0.000001 0.923879 138 83 6
-0.030213 -0.270715 0.496469 -0.382684 -0.000001 0.923879 138 83 6
0.119659 -1.654872 0.373268 0.400462 -0.901174 0.165877 138 83 6
0.107717 -1.654872 0.402099 0.400462 -0.901174 0.165877 138 83 5
0.098849 -1.660445 0.393231 0.400462 -0.901174 0.165877 138 83 6
0.107118 -1.660445 0.373268 0.400462 -0.901174 0.165877 138 83 6
0.107717 -1.654872 0.279086 0.400463 -0.901174 -0.165877 138 83 6
0.119659 -1.654872 0.307917 0.400463 -0.901174 -0.165877 138 82 6
0.107118 -1.660445 0.307917 0.400463 -0.901174 -0.165877 137 82 5
0.098849 -1.660445 0.287953 0.400463 -0.901174 -0.165877 138 83 6
0.032676 -1.654872 0.220934 0.165877 -0.901174 -0.400463 138 83 6
0.061506 -1.654872 0.232876 0.165877 -0.901174 -0.400463 138 83 6
0.052639 -1.660445 0.241743 0.165877 -0.901174 -0.400463 138 83 6
0.032676 -1.660445 0.233474 0.165877 -0.901174 -0.400463 137 82 5
-0.061506 -1.654872 0.232876 -0.165878 -0.901174 -0.400463 138 83 6
-0.032676 -1.654872 0.220934 -0.165878 -0.901174 -0.400463 138 83 6
-0.032676 -1.660445 0.233474 -0.165878 -0.901174 -0.400463 138 83 6
-0.052639 -1.660445 0.241743 -0.165878 -0.901174 -0.400463 138 83 6
-0.119659 -1.654872 0.307917 -0.400463 -0.901174 -0.165877 138 83 6
-0.107717 -1.654872 0.279086 -0.400463 -0.901174 -0.165877 138 83 6
-0.098849 -1.660445 0.287953 -0.400463 -0.901174 -0.165877 138 83 6
-0.107118 -1.660445 0.307917 -0.400463 -0.901174 -0.165877 138 83 6
0.061506 -1.654872 0.448309 0.165877 -0.901174 0.400463 138 83 6
0.032676 -1.654872 0.460251 0.165877 -0.901174 0.400463 138 83 6
0.032676 -1.660445 0.447711 0.165877 -0.901174 0.400463 138 83 6
0.052639 -1.660445 0.439442 0.165877 -0.901174 0.400463 138 83 6
-0.032676 -1.654872 0.460251 -0.165877 -0.901174 0.400462 137 82 5
-0.061506 -1.654872 0.448309 -0.165877 -0.901174 0.400462 138 83 6
-0.052639 -1.660445 0.439442 -0.165877 -0.901174 0.400462 137 82 5
-0.032676 -1.660445 0.447711 -0.165877 -0.901174 0.400462 138 83 6
-0.107717 -1.654872 0.402099 -0.400463 -0.901174 0.165877 138 83 6
-0.119659 -1.654872 0.373268 -0.400463 -0.901174 0.165877 138 83 6
-0.107118 -1.660445 0.373268 -0.400463 -0.901174 0.165877 137 82 6
-0.098849 -1.660445 0.393231 -0.400463 -0.901174 0.165877 138 83 6
0.030213 -0.270715 0.496469 0.382683 -0.000001 0.923880 137 82 5
0.030213 -1.492052 0.496468 0.382683 -0.000001 0.923880 138 83 5
0.088856 -1.492052 0.472177 0.382683 -0.000001 0.923880 138 83 6
0.088856 -0.270715 0.472178 0.382683 -0.000001 0.923880 138 83 6
-0.200952 -0.033948 0.651706 -1.000000 0.000000 0.000000 20 20 18
-0.200952 0.082189 0.651706 -1.000000 0.000000 0.000000 19 19 17
-0.200952 0.082189 0.029480 -1.000000 0.000000 0.000000 24 24 22
-0.200952 -0.033948 0.029480 -1.000000 0.000000 0.000000 30 30 27
0.035397 -1.676085 0.375990 0.000000 -1.000000 0.000000 138 83 6
0.000000 -1.676085 0.390652 0.000000 -1.000000 0.000000 138 83 6
0.050059 -1.676085 0.340592 0.000000 -1.000000 0.000000 138 83 6
-0.035397 -1.676085 0.375990 0.000000 -1.000000 0.000000 138 83 6
-0.050059 -1.676085 0.340592 0.000000 -1.000000 0.000000 138 83 6
-0.050059 -1.676085 0.340592 -0.000002 -1.000000 -0.000004 138 83 6
-0.035397 -1.676085 0.305195 -0.000002 -1.000000 -0.000004 138 83 6
-0.000000 -1.676085 0.290533 -0.000002 -1.000000 -0.000004 138 83 6
-0.000000 -1.676085 0.290533 0.000002 -1.000000 -0.000004 138 83 6
0.035397 -1.676085 0.305195 0.000002 -1.000000 -0.000004 138 83 6
0.050059 -1.676085 0.340592 0.000002 -1.000000 -0.000004 138 83 6
-0.050059 -1.676085 0.340592 0.000000 -1.000000 -0.000002 138 83 6
-0.000000 -1.676085 0.290533 0.000000 -1.000000 -0.000002 138 83 6
0.050059 -1.676085 0.340592 0.000000 -1.000000 -0.000002 138 83 6
-0.155875 -0.270715 0.370807 -0.923880 -0.000000 0.382683 138 83 6
-0.155875 -1.492052 0.370806 -0.923880 -0.000000 0.382683 138 83 6
-0.131585 -1.492052 0.429449 -0.923880 -0.000000 0.382683 138 83 6
-0.131585 -0.270715 0.429450 -0.923880 -0.000000 0.382683 138 83 5
-0.131585 -0.270715 0.251737 -0.923880 0.000000 -0.382683 138 83 6
-0.131585 -1.492051 0.251736 -0.923880 0.000000 -0.382683 138 83 6
-0.155875 -1.492051 0.310379 -0.923880 0.000000 -0.382683 138 83 6
-0.155875 -0.270715 0.310380 -0.923880 0.000000 -0.382683 138 83 5
-0.030213 -0.270715 0.184718 -0.382684 0.000001 -0.923880 135 80 6
-0.030213 -1.492051 0.184717 -0.382684 0.000001 -0.923880 137 82 6
-0.088856 -1.492051 0.209008 -0.382684 0.000001 -0.923880 137 82 6
-0.088856 -0.270715 0.209009 -0.382684 0.000001 -0.923880 137 82 6
0.088856 -0.270715 0.209009 0.382683 0.000001 -0.923880 138 83 6
0.088856 -1.492051 0.209008 0.382683 0.000001 -0.923880 138 83 6
0.030213 -1.492051 0.184717 0.382683 0.000001 -0.923880 138 83 6
0.030213 -0.270715 0.184718 0.382683 0.000001 -0.923880 138 83 6
0.155875 -0.270715 0.310380 0.923880 0.000000 -0.382683 138 83 6
0.155875 -1.492051 0.310379 0.923880 0.000000 -0.382683 138 83 5
0.131584 -1.492051 0.251736 0.923880 0.000000 -0.382683 138 83 5
0.131584 -0.270715 0.251737 0.923880 0.000000 -0.382683 138 83 5
0.131584 -0.270715 0.429450 0.923880 -0.000000 0.382683 138 83 6
0.131584 -1.492052 0.429449 0.923880 -0.000000 0.382683 138 83 5
0.155875 -1.492052 0.370806 0.923880 -0.000000 0.382683 138 83 5
0.155875 -0.270715 0.370807 0.923880 -0.000000 0.382683 138 83 6
-0.168250 -0.033948 -0.003223 0.000000 0.000000 -1.000000 29 29 27
-0.168250 0.082189 -0.003223 0.000000 0.000000 -1.000000 24 24 22
0.168250 0.082189 -0.003223 0.000000 0.000000 -1.000000 19 19 17
0.168250 -0.033948 -0.003223 0.000000 0.000000 -1.000000 19 19 17
0.200952 0.082189 0.651706 1.000000 0.000000 -0.000000 53 53 48
0.200952 -0.033948 0.651706 1.000000 0.000000 -0.000000 53 53 48
0.200952 -0.033948 0.029480 1.000000 0.000000 -0.000000 53 53 48
0.200952 0.082189 0.029480 1.000000 0.000000 -0.000000 53 53 48
0.168250 -0.033948 0.684409 0.000000 -0.000001 1.000000 50 50 46
0.168250 0.082189 0.684409 0.000000 -0.000001 1.000000 50 50 45
-0.168250 0.082189 0.684409 0.000000 -0.000001 1.000000 23 23 20
-0.168250 -0.033948 0.684409 0.000000 -0.000001 1.000000 22 22 19
-0.168250 0.229369 0.651706 0.000000 1.000000 -0.000000 18 18 15
0.168250 0.229369 0.651706 0.000000 1.000000 -0.000000 18 18 15
0.168250 0.229369 0.029480 0.000000 1.000000 -0.000000 18 18 16
-0.168250 0.229369 0.029480 0.000000 1.000000 -0.000000 18 18 16
0.168250 -0.181129 0.651706 0.000000 -1.000000 0.000000 51 51 46
-0.168250 -0.181129 0.651706 0.000000 -1.000000 0.000000 22 22 19
-0.168250 -0.181129 0.029480 0.000000 -1.000000 0.000000 52 52 47
0.168250 -0.181129 0.029480 0.000000 -1.000000 0.000000 53 53 48
0.030213 -0.270715 0.496469 0.000000 0.153625 0.988129 137 82 5
0.000000 -0.123535 0.473587 0.000000 0.153625 0.988129 138 83 5
-0.030213 -0.270715 0.496469 0.000000 0.153625 0.988129 138 83 6
-0.032676 -1.654872 0.460251 0.000000 -0.217127 0.976143 137 82 5
0.032676 -1.654872 0.460251 0.000000 -0.217127 0.976143 138 83 6
0.030213 -1.492052 0.496468 0.000000 -0.217127 0.976143 138 83 5
-0.030213 -1.492052 0.496468 0.000000 -0.217127 0.976143 138 83 6
0.131584 -0.270715 0.429450 0.698713 0.153626 0.698713 138 83 6
0.094040 -0.123535 0.434634 0.698713 0.153626 0.698713 137 83 6
0.088856 -0.270715 0.472178 0.698713 0.153626 0.698713 138 83 6
0.088856 -1.492052 0.472177 0.690238 -0.217127 0.690238 138 83 6
0.061506 -1.654872 0.448309 0.690238 -0.217127 0.690238 138 83 6
0.107717 -1.654872 0.402099 0.690238 -0.217127 0.690238 138 83 5
0.131584 -1.492052 0.429449 0.690238 -0.217127 0.690238 138 83 5
0.155875 -0.270715 0.310380 0.988129 0.153626 0.000000 138 83 6
0.132993 -0.123535 0.340594 0.988129 0.153626 0.000000 137 82 6
0.155875 -0.270715 0.370807 0.988129 0.153626 0.000000 138 83 6
0.155875 -1.492052 0.370806 0.976144 -0.217126 -0.000000 138 83 5
0.119659 -1.654872 0.373268 0.976144 -0.217126 -0.000000 138 83 6
0.119659 -1.654872 0.307917 0.976144 -0.217126 -0.000000 138 82 6
0.155875 -1.492051 0.310379 0.976144 -0.217126 -0.000000 138 83 5
0.088856 -0.270715 0.209009 0.698713 0.153627 -0.698713 138 83 6
0.094040 -0.123535 0.246554 0.698713 0.153627 -0.698713 137 82 5
0.131584 -0.270715 0.251737 0.698713 0.153627 -0.698713 138 83 5
0.131584 -1.492051 0.251736 0.690238 -0.217126 -0.690238 138 83 5
0.107717 -1.654872 0.279086 0.690238 -0.217126 -0.690238 138 83 6
0.061506 -1.654872 0.232876 0.690238 -0.217126 -0.690238 138 83 6
0.088856 -1.492051 0.209008 0.690238 -0.217126 -0.690238 138 83 6
-0.030213 -0.270715 0.184718 0.000000 0.153627 -0.988129 135 80 6
-0.000000 -0.123535 0.207601 0.000000 0.153627 -0.988129 134 79 6
0.030213 -0.270715 0.184718 0.000000 0.153627 -0.988129 133 78 7
0.030213 -1.492051 0.184717 0.000000 -0.217125 -0.976144 138 83 6
0.032676 -1.654872 0.220934 0.000000 -0.217125 -0.976144 137 82 6
-0.032676 -1.654872 0.220934 0.000000 -0.217125 -0.976144 137 82 5
-0.030213 -1.492051 0.184717 0.000000 -0.217125 -0.976144 138 83 6
-0.131585 -0.270715 0.251737 -0.698713 0.153627 -0.698713 138 83 6
-0.094040 -0.123535 0.246554 -0.698713 0.153627 -0.698713 138 83 6
-0.088856 -0.270715 0.209009 -0.698713 0.153627 -0.698713 137 83 5
-0.088856 -1.492051 0.209008 -0.690238 -0.217126 -0.690238 137 82 6
-0.061506 -1.654872 0.232876 -0.690238 -0.217126 -0.690238 138 83 6
-0.107717 -1.654872 0.279086 -0.690238 -0.217126 -0.690238 138 83 6
-0.131585 -1.492051 0.251736 -0.690238 -0.217126 -0.690238 138 83 6
-0.155875 -0.270715 0.370807 -0.988129 0.153626 0.000000 138 83 6
-0.132993 -0.123535 0.340594 -0.988129 0.153626 0.000000 138 83 6
-0.155875 -0.270715 0.310380 -0.988129 0.153626 0.000000 138 83 5
-0.155875 -1.492051 0.310379 -0.976144 -0.217126 -0.000000 138 83 6
-0.119659 -1.654872 0.307917 -0.976144 -0.217126 -0.000000 138 83 6
-0.119659 -1.654872 0.373268 -0.976144 -0.217126 -0.000000 138 83 6
-0.155875 -1.492052 0.370806 -0.976144 -0.217126 -0.000000 138 83 6
-0.088856 -0.270715 0.472178 -0.698713 0.153625 0.698713 138 83 6
-0.094040 -0.123535 0.434634 -0.698713 0.153625 0.698713 138 83 6
-0.131585 -0.270715 0.429450 -0.698713 0.153625 0.698713 138 83 5
-0.131585 -1.492052 0.429449 -0.690238 -0.217127 0.690238 138 83 6
-0.107717 -1.654872 0.402099 -0.690238 -0.217127 0.690238 138 83 6
-0.061506 -1.654872 0.448309 -0.690238 -0.217127 0.690238 138 83 6
-0.088856 -1.492052 0.472177 -0.690238 -0.217127 0.690238 138 83 6
0.000000 -1.676085 0.390652 -0.000000 -0.964426 0.264354 138 83 6
0.032676 -1.660445 0.447711 -0.000000 -0.964426 0.264354 137 82 5
-0.032676 -1.660445 0.447711 -0.000000 -0.964426 0.264354 138 83 6
0.098849 -1.660445 0.393231 0.186927 -0.964426 0.186927 138 83 6
0.052639 -1.660445 0.439442 0.186927 -0.964426 0.186927 138 83 6
0.035397 -1.676085 0.375990 0.186927 -0.964426 0.186927 138 83 6
0.107118 -1.660445 0.307917 0.264356 -0.964425 -0.000002 137 82 5
0.107118 -1.660445 0.373268 0.264356 -0.964425 -0.000002 138 83 6
0.050059 -1.676085 0.340592 0.264356 -0.964425 -0.000002 138 83 6
0.052639 -1.660445 0.241743 0.186927 -0.964426 -0.186927 138 83 6
0.098849 -1.660445 0.287953 0.186927 -0.964426 -0.186927 138 83 6
0.035397 -1.676085 0.305195 0.186927 -0.964426 -0.186927 138 83 6
-0.032676 -1.660445 0.233474 -0.000000 -0.964426 -0.264355 138 83 6
0.032676 -1.660445 0.233474 -0.000000 -0.964426 -0.264355 137 82 5
-0.000000 -1.676085 0.290533 -0.000000 -0.964426 -0.264355 138 83 6
-0.098849 -1.660445 0.287953 -0.186927 -0.964426 -0.186927 138 83 6
-0.052639 -1.660445 0.241743 -0.186927 -0.964426 -0.186927 138 83 6
-0.035397 -1.676085 0.305195 -0.186927 -0.964426 -0.186927 138 83 6
-0.107118 -1.660445 0.373268 -0.264356 -0.964425 -0.000002 137 82 6
-0.107118 -1.660445 0.307917 -0.264356 -0.964425 -0.000002 138 82 5
-0.050059 -1.676085 0.340592 -0.264356 -0.964425 -0.000002 138 83 6
-0.052639 -1.660445 0.439442 -0.186927 -0.964426 0.186927 137 82 5
-0.098849 -1.660445 0.393231 -0.186927 -0.964426 0.186927 138 83 5
-0.035397 -1.676085 0.375990 -0.186927 -0.964426 0.186927 138 83 6
-0.168250 -0.033948 -0.003223 -0.698537 -0.155211 -0.698538 29 29 27
-0.168250 -0.181129 0.029480 -0.698537 -0.155211 -0.698538 36 36 33
-0.200952 -0.033948 0.029480 -0.698537 -0.155211 -0.698538 30 30 28
-0.200952 0.082189 0.029480 -0.698537 0.155211 -0.698538 24 24 22
-0.168250 0.229369 0.029480 -0.698537 0.155211 -0.698538 18 18 16
-0.168250 0.082189 -0.003223 -0.698537 0.155211 -0.698538 25 25 22
0.168250 0.229369 0.029480 0.698537 0.155211 -0.698538 18 18 16
0.200952 0.082189 0.029480 0.698537 0.155211 -0.698538 18 18 15
0.168250 0.082189 -0.003223 0.698537 0.155211 -0.698538 18 18 16
0.200952 -0.033948 0.029480 0.698537 -0.155211 -0.698538 53 53 48
0.168250 -0.181129 0.029480 0.698537 -0.155211 -0.698538 54 54 49
0.168250 -0.033948 -0.003223 0.698537 -0.155211 -0.698538 54 54 49
-0.200952 -0.033948 0.651706 -0.698538 -0.155211 0.698537 20 20 18
-0.168250 -0.181129 0.651706 -0.698538 -0.155211 0.698537 21 21 19
-0.168250 -0.033948 0.684409 -0.698538 -0.155211 0.698537 19 19 17
-0.200952 0.082189 0.651706 -0.698538 0.155211 0.698537 19 19 17
-0.168250 0.082189 0.684409 -0.698538 0.155211 0.698537 19 19 17
-0.168250 0.229369 0.651706 -0.698538 0.155211 0.698537 18 18 16
0.168250 0.229369 0.651706 0.698538 0.155211 0.698537 18 18 15
0.168250 0.082189 0.684409 0.698538 0.155211 0.698537 18 18 16
0.200952 0.082189 0.651706 0.698538 0.155211 0.698537 18 18 15
0.200952 -0.033948 0.651706 0.698538 -0.155211 0.698537 53 53 48
0.168250 -0.033948 0.684409 0.698538 -0.155211 0.698537 50 50 46
0.168250 -0.181129 0.651706 0.698538 -0.155211 0.698537 51 51 46
0.030213 -0.270715 0.496469 0.373573 0.216904 0.901885 137 82 5
0.088856 -0.270715 0.472178 0.373573 0.216904 0.901885 138 83 6
0.094040 -0.123535 0.434634 0.373573 0.216904 0.901885 137 83 6
0.000000 -0.123535 0.473587 0.373573 0.216904 0.901885 138 83 5
0.088856 -1.492052 0.472177 0.375273 -0.195847 0.905988 138 83 6
0.030213 -1.492052 0.496468 0.375273 -0.195847 0.905988 138 83 5
0.032676 -1.654872 0.460251 0.375273 -0.195847 0.905988 138 83 6
0.061506 -1.654872 0.448309 0.375273 -0.195847 0.905988 138 83 6
0.030213 -1.492052 0.496468 0.000000 -0.000001 1.000000 138 83 5
0.030213 -0.270715 0.496469 0.000000 -0.000001 1.000000 137 82 5
-0.030213 -0.270715 0.496469 0.000000 -0.000001 1.000000 138 83 6
-0.030213 -1.492052 0.496468 0.000000 -0.000001 1.000000 138 83 6
0.131584 -1.492052 0.429449 0.707107 -0.000001 0.707107 138 83 5
0.131584 -0.270715 0.429450 0.707107 -0.000001 0.707107 138 83 6
0.088856 -0.270715 0.472178 0.707107 -0.000001 0.707107 138 83 6
0.088856 -1.492052 0.472177 0.707107 -0.000001 0.707107 138 83 6
0.131584 -0.270715 0.429450 0.901884 0.216905 0.373573 138 83 6
0.155875 -0.270715 0.370807 0.901884 0.216905 0.373573 138 83 6
0.132993 -0.123535 0.340594 0.901884 0.216905 0.373573 137 82 6
0.094040 -0.123535 0.434634 0.901884 0.216905 0.373573 137 83 6
0.155875 -1.492052 0.370806 0.905988 -0.195846 0.375272 138 83 5
0.131584 -1.492052 0.429449 0.905988 -0.195846 0.375272 138 83 5
0.107717 -1.654872 0.402099 0.905988 -0.195846 0.375272 138 83 5
0.119659 -1.654872 0.373268 0.905988 -0.195846 0.375272 138 83 6
0.155875 -1.492051 0.310379 1.000000 0.000000 0.000000 138 83 5
0.155875 -0.270715 0.310380 1.000000 0.000000 0.000000 138 83 6
0.155875 -0.270715 0.370807 1.000000 0.000000 0.000000 138 83 6
0.155875 -1.492052 0.370806 1.000000 0.000000 0.000000 138 83 5
0.155875 -0.270715 0.310380 0.901885 0.216905 -0.373573 138 83 6
0.131584 -0.270715 0.251737 0.901885 0.216905 -0.373573 138 83 5
0.094040 -0.123535 0.246554 0.901885 0.216905 -0.373573 137 82 5
0.132993 -0.123535 0.340594 0.901885 0.216905 -0.373573 137 82 6
0.131584 -1.492051 0.251736 0.905988 -0.195846 -0.375273 138 83 5
0.155875 -1.492051 0.310379 0.905988 -0.195846 -0.375273 138 83 5
0.119659 -1.654872 0.307917 0.905988 -0.195846 -0.375273 138 82 6
0.107717 -1.654872 0.279086 0.905988 -0.195846 -0.375273 138 83 6
0.088856 -1.492051 0.209008 0.707107 0.000001 -0.707107 138 83 6
0.088856 -0.270715 0.209009 0.707107 0.000001 -0.707107 138 83 6
0.131584 -0.270715 0.251737 0.707107 0.000001 -0.707107 138 83 5
0.131584 -1.492051 0.251736 0.707107 0.000001 -0.707107 138 83 5
0.088856 -0.270715 0.209009 0.373573 0.216906 -0.901884 138 83 6
0.030213 -0.270715 0.184718 0.373573 0.216906 -0.901884 138 83 6
-0.000000 -0.123535 0.207601 0.373573 0.216906 -0.901884 137 83 5
0.094040 -0.123535 0.246554 0.373573 0.216906 -0.901884 137 82 5
0.030213 -1.492051 0.184717 0.375273 -0.195845 -0.905988 138 83 6
0.088856 -1.492051 0.209008 0.375273 -0.195845 -0.905988 138 83 6
0.061506 -1.654872 0.232876 0.375273 -0.195845 -0.905988 138 83 6
0.032676 -1.654872 0.220934 0.375273 -0.195845 -0.905988 138 83 6
-0.030213 -1.492051 0.184717 0.000000 0.000001 -1.000000 137 82 6
-0.030213 -0.270715 0.184718 0.000000 0.000001 -1.000000 135 80 6
0.030213 -0.270715 0.184718 0.000000 0.000001 -1.000000 133 78 7
0.030213 -1.492051 0.184717 0.000000 0.000001 -1.000000 137 82 6
-0.030213 -0.270715 0.184718 -0.373573 0.216906 -0.901884 135 80 6
-0.088856 -0.270715 0.209009 -0.373573 0.216906 -0.901884 137 82 6
-0.094040 -0.123535 0.246554 -0.373573 0.216906 -0.901884 137 82 6
-0.000000 -0.123535 0.207601 -0.373573 0.216906 -0.901884 134 79 6
-0.088856 -1.492051 0.209008 -0.375273 -0.195845 -0.905988 137 82 6
-0.030213 -1.492051 0.184717 -0.375273 -0.195845 -0.905988 137 82 6
-0.032676 -1.654872 0.220934 -0.375273 -0.195845 -0.905988 138 83 6
-0.061506 -1.654872 0.232876 -0.375273 -0.195845 -0.905988 138 83 6
-0.131585 -1.492051 0.251736 -0.707107 0.000001 -0.707107 138 83 6
-0.131585 -0.270715 0.251737 -0.707107 0.000001 -0.707107 138 83 6
-0.088856 -0.270715 0.209009 -0.707107 0.000001 -0.707107 137 82 6
-0.088856 -1.492051 0.209008 -0.707107 0.000001 -0.707107 137 82 6
-0.131585 -0.270715 0.251737 -0.901885 0.216905 -0.373572 138 83 6
-0.155875 -0.270715 0.310380 -0.901885 0.216905 -0.373572 138 83 5
-0.132993 -0.123535 0.340594 -0.901885 0.216905 -0.373572 138 83 6
-0.094040 -0.123535 0.246554 -0.901885 0.216905 -0.373572 138 83 6
-0.155875 -1.492051 0.310379 -0.905988 -0.195846 -0.375272 138 83 6
-0.131585 -1.492051 0.251736 -0.905988 -0.195846 -0.375272 138 83 6
-0.107717 -1.654872 0.279086 -0.905988 -0.195846 -0.375272 138 83 6
-0.119659 -1.654872 0.307917 -0.905988 -0.195846 -0.375272 138 83 6
-0.155875 -1.492052 0.370806 -1.000000 0.000000 0.000000 138 83 6
-0.155875 -0.270715 0.370807 -1.000000 0.000000 0.000000 138 83 6
-0.155875 -0.270715 0.310380 -1.000000 0.000000 0.000000 138 83 5
-0.155875 -1.492051 0.310379 -1.000000 0.000000 0.000000 138 83 6
-0.155875 -0.270715 0.370807 -0.901885 0.216905 0.373573 138 83 6
-0.131585 -0.270715 0.429450 -0.901885 0.216905 0.373573 138 83 5
-0.094040 -0.123535 0.434634 -0.901885 0.216905 0.373573 138 83 6
-0.132993 -0.123535 0.340594 -0.901885 0.216905 0.373573 138 83 6
-0.131585 -1.492052 0.429449 -0.905988 -0.195847 0.375273 138 83 6
-0.155875 -1.492052 0.370806 -0.905988 -0.195847 0.375273 138 83 6
-0.119659 -1.654872 0.373268 -0.905988 -0.195847 0.375273 138 83 6
-0.107717 -1.654872 0.402099 -0.905988 -0.195847 0.375273 138 83 6
-0.088856 -1.492052 0.472177 -0.707107 -0.000001 0.707107 138 83 6
-0.088856 -0.270715 0.472178 -0.707107 -0.000001 0.707107 138 83 6
-0.131585 -0.270715 0.429450 -0.707107 -0.000001 0.707107 138 83 5
-0.131585 -1.492052 0.429449 -0.707107 -0.000001 0.707107 138 83 6
-0.088856 -0.270715 0.472178 -0.373573 0.216904 0.901885 138 83 6
-0.030213 -0.270715 0.496469 -0.373573 0.216904 0.901885 138 83 6
0.000000 -0.123535 0.473587 -0.373573 0.216904 0.901885 138 83 5
-0.094040 -0.123535 0.434634 -0.373573 0.216904 0.901885 138 83 6
-0.030213 -1.492052 0.496468 -0.375273 -0.195847 0.905988 138 83 6
-0.088856 -1.492052 0.472177 -0.375273 -0.195847 0.905988 138 83 6
-0.061506 -1.654872 0.448309 -0.375273 -0.195847 0.905988 138 83 6
-0.032676 -1.654872 0.460251 -0.375273 -0.195847 0.905988 137 82 5
0.052639 -1.660445 0.439442 0.089240 -0.972430 0.215444 138 83 6
0.032676 -1.660445 0.447711 0.089240 -0.972430 0.215444 138 83 6
0.000000 -1.676085 0.390652 0.089240 -0.972430 0.215444 138 83 6
0.035397 -1.676085 0.375990 0.089240 -0.972430 0.215444 138 83 6
0.107118 -1.660445 0.373268 0.215444 -0.972430 0.089240 138 83 6
0.098849 -1.660445 0.393231 0.215444 -0.972430 0.089240 138 83 6
0.035397 -1.676085 0.375990 0.215444 -0.972430 0.089240 138 83 6
0.050059 -1.676085 0.340592 0.215444 -0.972430 0.089240 138 83 6
0.098849 -1.660445 0.287953 0.215444 -0.972430 -0.089242 138 83 6
0.107118 -1.660445 0.307917 0.215444 -0.972430 -0.089242 137 82 5
0.050059 -1.676085 0.340592 0.215444 -0.972430 -0.089242 138 83 6
0.035397 -1.676085 0.305195 0.215444 -0.972430 -0.089242 138 83 6
0.032676 -1.660445 0.233474 0.089240 -0.972430 -0.215444 137 82 5
0.052639 -1.660445 0.241743 0.089240 -0.972430 -0.215444 138 83 6
0.035397 -1.676085 0.305195 0.089240 -0.972430 -0.215444 138 83 6
-0.000000 -1.676085 0.290533 0.089240 -0.972430 -0.215444 138 83 6
-0.052639 -1.660445 0.241743 -0.089240 -0.972430 -0.215444 138 83 6
-0.032676 -1.660445 0.233474 -0.089240 -0.972430 -0.215444 138 83 6
-0.000000 -1.676085 0.290533 -0.089240 -0.972430 -0.215444 138 83 6
-0.035397 -1.676085 0.305195 -0.089240 -0.972430 -0.215444 138 83 6
-0.107118 -1.660445 0.307917 -0.215444 -0.972430 -0.089242 138 83 6
-0.098849 -1.660445 0.287953 -0.215444 -0.972430 -0.089242 138 83 6
-0.035397 -1.676085 0.305195 -0.215444 -0.972430 -0.089242 138 83 6
-0.050059 -1.676085 0.340592 -0.215444 -0.972430 -0.089242 138 83 6
-0.098849 -1.660445 0.393231 -0.215444 -0.972430 0.089240 138 83 6
-0.107118 -1.660445 0.373268 -0.215444 -0.972430 0.089240 137 82 6
-0.050059 -1.676085 0.340592 -0.215444 -0.972430 0.089240 138 83 6
-0.035397 -1.676085 0.375990 -0.215444 -0.972430 0.089240 138 83 6
-0.032676 -1.660445 0.447711 -0.089240 -0.972430 0.215444 138 83 6
-0.052639 -1.660445 0.439442 -0.089240 -0.972430 0.215444 137 82 5
-0.035397 -1.676085 0.375990 -0.089240 -0.972430 0.215444 138 83 6
0.000000 -1.676085 0.390652 -0.089240 -0.972430 0.215444 138 83 6
0.032676 -1.660445 0.447711 -0.000000 -0.913834 0.406089 138 83 6
0.032676 -1.654872 0.460251 -0.000000 -0.913834 0.406089 138 83 6
-0.032676 -1.654872 0.460251 -0.000000 -0.913834 0.406089 137 82 5
-0.032676 -1.660445 0.447711 -0.000000 -0.913834 0.406089 138 83 6
-0.107717 -1.654872 0.402099 -0.287148 -0.913834 0.287148 138 83 6
-0.098849 -1.660445 0.393231 -0.287148 -0.913834 0.287148 138 83 6
-0.052639 -1.660445 0.439442 -0.287148 -0.913834 0.287148 137 82 5
-0.061506 -1.654872 0.448309 -0.287148 -0.913834 0.287148 138 83 6
-0.119659 -1.654872 0.307917 -0.406088 -0.913834 -0.000002 138 83 6
-0.107118 -1.660445 0.307917 -0.406088 -0.913834 -0.000002 138 83 6
-0.107118 -1.660445 0.373268 -0.406088 -0.913834 -0.000002 137 82 6
-0.119659 -1.654872 0.373268 -0.406088 -0.913834 -0.000002 138 83 6
-0.061506 -1.654872 0.232876 -0.287148 -0.913834 -0.287148 138 83 6
-0.052639 -1.660445 0.241743 -0.287148 -0.913834 -0.287148 138 83 6
-0.098849 -1.660445 0.287953 -0.287148 -0.913834 -0.287148 138 83 6
-0.107717 -1.654872 0.279086 -0.287148 -0.913834 -0.287148 138 83 6
0.032676 -1.654872 0.220934 0.000000 -0.913833 -0.406089 138 83 6
0.032676 -1.660445 0.233474 0.000000 -0.913833 -0.406089 137 82 5
-0.032676 -1.660445 0.233474 0.000000 -0.913833 -0.406089 138 83 6
-0.032676 -1.654872 0.220934 0.000000 -0.913833 -0.406089 138 83 6
0.107717 -1.654872 0.279086 0.287148 -0.913834 -0.287148 138 83 6
0.098849 -1.660445 0.287953 0.287148 -0.913834 -0.287148 138 83 6
0.052639 -1.660445 0.241743 0.287148 -0.913834 -0.287148 138 83 6
0.061506 -1.654872 0.232876 0.287148 -0.913834 -0.287148 138 83 6
0.119659 -1.654872 0.373268 0.406088 -0.913834 -0.000002 138 83 6
0.107118 -1.660445 0.373268 0.406088 -0.913834 -0.000002 138 83 6
0.107118 -1.660445 0.307917 0.406088 -0.913834 -0.000002 137 82 5
0.119659 -1.654872 0.307917 0.406088 -0.913834 -0.000002 138 82 6
0.061506 -1.654872 0.448309 0.287148 -0.913834 0.287148 138 83 6
0.052639 -1.660445 0.439442 0.287148 -0.913834 0.287148 138 83 6
0.098849 -1.660445 0.393231 0.287148 -0.913834 0.287148 138 83 6
0.107717 -1.654872 0.402099 0.287148 -0.913834 0.287148 138 83 5
-0.168250 -0.181129 0.029480 -0.976193 -0.216905 0.000000 52 52 47
-0.168250 -0.181129 0.651706 -0.976193 -0.216905 0.000000 22 22 19
-0.200952 -0.033948 0.651706 -0.976193 -0.216905 0.000000 19 19 17
-0.200952 -0.033948 0.029480 -0.976193 -0.216905 0.000000 52 52 47
-0.168250 -0.033948 0.684409 -0.707107 -0.000001 0.707106 22 22 19
-0.168250 0.082189 0.684409 -0.707107 -0.000001 0.707106 23 23 20
-0.200952 0.082189 0.651706 -0.707107 -0.000001 0.707106 20 20 17
-0.200952 -0.033948 0.651706 -0.707107 -0.000001 0.707106 19 19 17
-0.168250 0.229369 0.651706 -0.976193 0.216905 -0.000000 18 18 15
-0.168250 0.229369 0.029480 -0.976193 0.216905 -0.000000 18 18 16
-0.200952 0.082189 0.029480 -0.976193 0.216905 -0.000000 24 24 22
-0.200952 0.082189 0.651706 -0.976193 0.216905 -0.000000 19 19 17
-0.168250 0.082189 -0.003223 -0.707106 0.000000 -0.707107 24 24 22
-0.168250 -0.033948 -0.003223 -0.707106 0.000000 -0.707107 29 29 27
-0.200952 -0.033948 0.029480 -0.707106 0.000000 -0.707107 30 30 27
-0.200952 0.082189 0.029480 -0.707106 0.000000 -0.707107 24 24 22
-0.168250 0.082189 0.684409 0.000000 0.216905 0.976193 23 23 20
0.168250 0.082189 0.684409 0.000000 0.216905 0.976193 50 50 45
0.168250 0.229369 0.651706 0.000000 0.216905 0.976193 50 50 45
-0.168250 0.229369 0.651706 0.000000 0.216905 0.976193 24 24 21
0.200952 0.082189 0.651706 0.976193 0.216905 -0.000000 53 53 48
0.200952 0.082189 0.029480 0.976193 0.216905 -0.000000 53 53 48
0.168250 0.229369 0.029480 0.976193 0.216905 -0.000000 53 53 48
0.168250 0.229369 0.651706 0.976193 0.216905 -0.000000 53 53 48
0.168250 0.082189 -0.003223 0.000000 0.216905 -0.976193 19 19 17
-0.168250 0.082189 -0.003223 0.000000 0.216905 -0.976193 24 24 22
-0.168250 0.229369 0.029480 0.000000 0.216905 -0.976193 18 18 16
0.168250 0.229369 0.029480 0.000000 0.216905 -0.976193 19 19 17
0.168250 0.082189 0.684409 0.707107 -0.000001 0.707106 50 50 45
0.168250 -0.033948 0.684409 0.707107 -0.000001 0.707106 50 50 46
0.200952 -0.033948 0.651706 0.707107 -0.000001 0.707106 53 53 48
0.200952 0.082189 0.651706 0.707107 -0.000001 0.707106 53 53 48
0.168250 -0.181129 0.651706 0.976193 -0.216905 0.000000 51 51 46
0.168250 -0.181129 0.029480 0.976193 -0.216905 0.000000 53 53 48
0.200952 -0.033948 0.029480 0.976193 -0.216905 0.000000 53 53 48
0.200952 -0.033948 0.651706 0.976193 -0.216905 0.000000 53 53 48
0.168250 -0.033948 -0.003223 0.707106 0.000000 -0.707107 19 19 17
0.168250 0.082189 -0.003223 0.707106 0.000000 -0.707107 19 19 17
0.200952 0.082189 0.029480 0.707106 0.000000 -0.707107 19 19 17
0.200952 -0.033948 0.029480 0.707106 0.000000 -0.707107 18 18 16
0.168250 -0.033948 0.684409 0.000000 -0.216905 0.976193 50 50 46
-0.168250 -0.033948 0.684409 0.000000 -0.216905 0.976193 22 22 19
-0.168250 -0.181129 0.651706 0.000000 -0.216905 0.976193 22 22 19
0.168250 -0.181129 0.651706 0.000000 -0.216905 0.976193 51 51 46
-0.168250 -0.033948 -0.003223 0.000000 -0.216904 -0.976193 29 29 27
0.168250 -0.033948 -0.003223 0.000000 -0.216904 -0.976193 19 19 17
0.168250 -0.181129 0.029480 0.000000 -0.216904 -0.976193 19 19 17
-0.168250 -0.181129 0.029480 0.000000 -0.216904 -0.976193 36 36 33
0.000000 -0.123535 0.473587 -0.000000 1.000000 0.000001 138 83 5
0.094040 -0.123535 0.434634 -0.000000 1.000000 0.000001 137 83 6
-0.094040 -0.123535 0.434634 -0.000000 1.000000 0.000001 138 83 6
0.132993 -0.123535 0.340594 0.000000 1.000000 0.000001 137 82 6
0.094040 -0.123535 0.246554 0.000000 1.000000 0.000001 137 82 5
-0.000000 -0.123535 0.207601 0.000000 1.000000 0.000001 137 83 5
-0.094040 -0.123535 0.246554 0.000000 1.000000 0.000001 138 83 6
-0.132993 -0.123535 0.340594 -0.000000 1.000000 0.000001 138 83 6
4 0 1 2 3
4 4 5 6 7
4 8 9 10 11
4 12 13 14 15
4 16 17 18 19
4 20 21 22 23
4 24 25 26 27
4 28 29 30 31
4 32 33 34 35
4 36 37 38 39
4 40 41 42 43
3 44 45 46
3 45 47 48
3 49 50 51
3 52 53 54
3 45 48 46
3 55 56 57
4 58 59 60 61
4 62 63 64 65
4 66 67 68 69
4 70 71 72 73
4 74 75 76 77
4 78 79 80 81
4 82 83 84 85
4 86 87 88 89
4 90 91 92 93
4 94 95 96 97
4 98 99 100 101
3 102 103 104
4 105 106 107 108
3 109 110 111
4 112 113 114 115
3 116 117 118
4 119 120 121 122
3 123 124 125
4 126 127 128 129
3 130 131 132
4 133 134 135 136
3 137 138 139
4 140 141 142 143
3 144 145 146
4 147 148 149 150
3 151 152 153
4 154 155 156 157
3 158 159 160
3 161 162 163
3 164 165 166
3 167 168 169
3 170 171 172
3 173 174 175
3 176 177 178
3 179 180 181
3 182 183 184
3 185 186 187
3 188 189 190
3 191 192 193
3 194 195 196
3 197 198 199
3 200 201 202
3 203 204 205
4 206 207 208 209
4 210 211 212 213
4 214 215 216 217
4 218 219 220 221
4 222 223 224 225
4 226 227 228 229
4 230 231 232 233
4 234 235 236 237
4 238 239 240 241
4 242 243 244 245
4 246 247 248 249
4 250 251 252 253
4 254 255 256 257
4 258 259 260 261
4 262 263 264 265
4 266 267 268 269
4 270 271 272 273
4 274 275 276 277
4 278 279 280 281
4 282 283 284 285
4 286 287 288 289
4 290 291 292 293
4 294 295 296 297
4 298 299 300 301
4 302 303 304 305
4 306 307 308 309
4 310 311 312 313
4 314 315 316 317
4 318 319 320 321
4 322 323 324 325
4 326 327 328 329
4 330 331 332 333
4 334 335 336 337
4 338 339 340 341
4 342 343 344 345
4 346 347 348 349
4 350 351 352 353
4 354 355 356 357
4 358 359 360 361
4 362 363 364 365
4 366 367 368 369
4 370 371 372 373
4 374 375 376 377
4 378 379 380 381
4 382 383 384 385
4 386 387 388 389
4 390 391 392 393
4 394 395 396 397
4 398 399 400 401
4 402 403 404 405
4 406 407 408 409
4 410 411 412 413
3 414 415 416
3 415 417 418
3 418 419 420
3 420 421 416
3 415 418 416
3 418 420 416
