ply
format ascii 1.0
comment Created by Blender 2.73 (sub 0) - www.blender.org, source file: 'hatch.blend'
element vertex 558
property float x
property float y
property float z
property float nx
property float ny
property float nz
property uchar red
property uchar green
property uchar blue
element face 167
property list uchar uint vertex_indices
end_header
4.102303 0.000000 0.263771 -0.875598 -0.421666 0.235638 140 133 126
4.352554 -0.519652 0.263771 -0.875598 -0.421666 0.235638 133 127 120
4.383760 -0.480521 0.449752 -0.875598 -0.421666 0.235638 133 127 120
4.152353 0.000000 0.449752 -0.875598 -0.421666 0.235638 151 144 137
4.152353 0.000000 0.449752 -0.371999 -0.179145 0.910782 151 144 137
4.383760 -0.480521 0.449752 -0.371999 -0.179145 0.910782 133 127 120
4.453879 -0.392595 0.495685 -0.371999 -0.179145 0.910782 133 127 120
4.264815 0.000000 0.495685 -0.371999 -0.179145 0.910782 153 146 139
4.264815 0.000000 0.495685 0.761837 0.366882 0.533856 135 130 123
4.453879 -0.392595 0.495685 0.761837 0.366882 0.533856 133 127 120
4.510110 -0.322084 0.366984 0.761837 0.366882 0.533856 133 127 120
4.355002 0.000000 0.366984 0.761837 0.366882 0.533856 133 127 120
4.355002 0.000000 0.366984 0.900969 0.433884 0.000000 133 127 120
4.510110 -0.322084 0.366984 0.900969 0.433884 0.000000 133 127 120
4.510110 -0.322084 0.160559 0.900969 0.433884 0.000000 133 127 120
4.355002 0.000000 0.160559 0.900969 0.433884 0.000000 133 127 120
4.355002 0.000000 0.160559 0.761837 0.366882 -0.533856 133 127 120
4.510110 -0.322084 0.160559 0.761837 0.366882 -0.533856 133 127 120
4.453879 -0.392595 0.031858 0.761837 0.366882 -0.533856 133 127 120
4.264815 0.000000 0.031858 0.761837 0.366882 -0.533856 133 127 120
4.264815 0.000000 0.031858 -0.371989 -0.179140 -0.910787 133 127 120
4.453879 -0.392595 0.031858 -0.371989 -0.179140 -0.910787 133 127 120
4.383760 -0.480521 0.077790 -0.371989 -0.179140 -0.910787 133 127 120
4.152353 0.000000 0.077790 -0.371989 -0.179140 -0.910787 133 127 120
4.102303 0.000000 0.263771 -0.875598 -0.421666 -0.235638 140 133 126
4.152353 0.000000 0.077790 -0.875598 -0.421666 -0.235638 133 127 120
4.383760 -0.480521 0.077790 -0.875598 -0.421666 -0.235638 133 127 120
4.352554 -0.519652 0.263771 -0.875598 -0.421666 -0.235638 133 127 120
4.352554 -0.519652 0.263771 -0.216255 -0.947475 0.235637 133 127 120
4.914864 -0.647996 0.263771 -0.216255 -0.947475 0.235637 133 127 120
4.903727 -0.599200 0.449752 -0.216255 -0.947475 0.235637 133 127 120
4.383760 -0.480521 0.449752 -0.216255 -0.947475 0.235637 133 127 120
4.383760 -0.480521 0.449752 -0.091876 -0.402535 0.910782 133 127 120
4.903727 -0.599200 0.449752 -0.091876 -0.402535 0.910782 133 127 120
4.878701 -0.489558 0.495685 -0.091876 -0.402535 0.910782 133 127 120
4.453879 -0.392595 0.495685 -0.091876 -0.402535 0.910782 133 127 120
4.453879 -0.392595 0.495685 0.188158 0.824375 0.533857 134 128 121
4.878701 -0.489558 0.495685 0.188158 0.824375 0.533857 133 127 120
4.858633 -0.401632 0.366984 0.188158 0.824375 0.533857 133 127 120
4.510110 -0.322084 0.366984 0.188158 0.824375 0.533857 133 127 120
4.510110 -0.322084 0.366984 0.222521 0.974928 0.000000 133 127 120
4.858633 -0.401632 0.366984 0.222521 0.974928 0.000000 133 127 120
4.858633 -0.401632 0.160559 0.222521 0.974928 0.000000 133 127 120
4.510110 -0.322084 0.160559 0.222521 0.974928 0.000000 133 127 120
4.510110 -0.322084 0.160559 0.188158 0.824375 -0.533857 133 127 120
4.858633 -0.401632 0.160559 0.188158 0.824375 -0.533857 133 127 120
4.878701 -0.489558 0.031858 0.188158 0.824375 -0.533857 133 127 120
4.453879 -0.392595 0.031858 0.188158 0.824375 -0.533857 133 127 120
4.453879 -0.392595 0.031858 -0.091874 -0.402525 -0.910787 133 127 120
4.878701 -0.489558 0.031858 -0.091874 -0.402525 -0.910787 133 127 120
4.903727 -0.599200 0.077790 -0.091874 -0.402525 -0.910787 133 127 120
4.383760 -0.480521 0.077790 -0.091874 -0.402525 -0.910787 133 127 120
4.383760 -0.480521 0.077790 -0.216255 -0.947475 -0.235637 133 127 120
4.903727 -0.599200 0.077790 -0.216255 -0.947475 -0.235637 133 127 120
4.914864 -0.647996 0.263771 -0.216255 -0.947475 -0.235637 133 127 120
4.352554 -0.519652 0.263771 -0.216255 -0.947475 -0.235637 133 127 120
4.914864 -0.647996 0.263771 0.605933 -0.759816 0.235637 133 127 120
5.365801 -0.288385 0.263771 0.605933 -0.759816 0.235637 133 127 120
5.320707 -0.266669 0.449752 0.605933 -0.759816 0.235637 133 127 120
4.903727 -0.599200 0.449752 0.605933 -0.759816 0.235637 133 127 120
4.903727 -0.599200 0.449752 0.257431 -0.322808 0.910783 133 127 120
5.320707 -0.266669 0.449752 0.257431 -0.322808 0.910783 133 127 120
5.219382 -0.217874 0.495685 0.257431 -0.322808 0.910783 133 127 120
4.878701 -0.489558 0.495685 0.257431 -0.322808 0.910783 133 127 120
4.878701 -0.489558 0.495685 -0.527208 0.661098 0.533855 133 127 120
5.219382 -0.217874 0.495685 -0.527208 0.661098 0.533855 133 127 120
5.138127 -0.178743 0.366984 -0.527208 0.661098 0.533855 133 127 120
4.858633 -0.401632 0.366984 -0.527208 0.661098 0.533855 133 127 120
4.858633 -0.401632 0.366984 -0.623490 0.781832 0.000000 133 127 120
5.138127 -0.178743 0.366984 -0.623490 0.781832 0.000000 133 127 120
5.138127 -0.178743 0.160559 -0.623490 0.781832 0.000000 133 127 120
4.858633 -0.401632 0.160559 -0.623490 0.781832 0.000000 133 127 120
4.858633 -0.401632 0.160559 -0.527208 0.661098 -0.533855 133 127 120
5.138127 -0.178743 0.160559 -0.527208 0.661098 -0.533855 133 127 120
5.219382 -0.217874 0.031858 -0.527208 0.661098 -0.533855 133 127 120
4.878701 -0.489558 0.031858 -0.527208 0.661098 -0.533855 133 127 120
4.878701 -0.489558 0.031858 0.257424 -0.322799 -0.910787 133 127 120
5.219382 -0.217874 0.031858 0.257424 -0.322799 -0.910787 133 127 120
5.320707 -0.266669 0.077790 0.257424 -0.322799 -0.910787 133 127 120
4.903727 -0.599200 0.077790 0.257424 -0.322799 -0.910787 133 127 120
4.903727 -0.599200 0.077790 0.605933 -0.759816 -0.235637 133 127 120
5.320707 -0.266669 0.077790 0.605933 -0.759816 -0.235637 133 127 120
5.365801 -0.288385 0.263771 0.605933 -0.759816 -0.235637 133 127 120
4.914864 -0.647996 0.263771 0.605933 -0.759816 -0.235637 133 127 120
5.365801 -0.288385 0.263771 0.971841 -0.000000 0.235637 255 255 255
5.365801 0.288385 0.263771 0.971841 -0.000000 0.235637 255 255 255
5.320707 0.266669 0.449752 0.971841 -0.000000 0.235637 255 255 255
5.320707 -0.266669 0.449752 0.971841 -0.000000 0.235637 255 255 255
5.320707 -0.266669 0.449752 0.412886 -0.000000 0.910783 255 255 255
5.320707 0.266669 0.449752 0.412886 -0.000000 0.910783 255 255 255
5.219383 0.217874 0.495685 0.412886 -0.000000 0.910783 255 255 255
5.219382 -0.217874 0.495685 0.412886 -0.000000 0.910783 255 255 255
5.219382 -0.217874 0.495685 -0.845577 0.000001 0.533854 255 255 255
5.219383 0.217874 0.495685 -0.845577 0.000001 0.533854 255 255 255
5.138127 0.178743 0.366984 -0.845577 0.000001 0.533854 255 255 255
5.138127 -0.178743 0.366984 -0.845577 0.000001 0.533854 255 255 255
5.138127 -0.178743 0.366984 -1.000000 0.000000 0.000000 255 255 255
5.138127 0.178743 0.366984 -1.000000 0.000000 0.000000 255 255 255
5.138127 0.178743 0.160559 -1.000000 0.000000 0.000000 255 255 255
5.138127 -0.178743 0.160559 -1.000000 0.000000 0.000000 255 255 255
5.138127 -0.178743 0.160559 -0.845577 0.000001 -0.533854 255 255 255
5.138127 0.178743 0.160559 -0.845577 0.000001 -0.533854 255 255 255
5.219383 0.217874 0.031858 -0.845577 0.000001 -0.533854 255 255 255
5.219382 -0.217874 0.031858 -0.845577 0.000001 -0.533854 255 255 255
5.219382 -0.217874 0.031858 0.412876 -0.000000 -0.910787 255 255 255
5.219383 0.217874 0.031858 0.412876 -0.000000 -0.910787 255 255 255
5.320707 0.266669 0.077790 0.412876 -0.000000 -0.910787 255 255 255
5.320707 -0.266669 0.077790 0.412876 -0.000000 -0.910787 255 255 255
5.320707 -0.266669 0.077790 0.971841 -0.000000 -0.235637 255 255 255
5.320707 0.266669 0.077790 0.971841 -0.000000 -0.235637 255 255 255
5.365801 0.288385 0.263771 0.971841 -0.000000 -0.235637 255 255 255
5.365801 -0.288385 0.263771 0.971841 -0.000000 -0.235637 255 255 255
5.365801 0.288385 0.263771 0.605933 0.759816 0.235637 133 127 120
4.914864 0.647996 0.263771 0.605933 0.759816 0.235637 133 127 120
4.903727 0.599200 0.449752 0.605933 0.759816 0.235637 133 127 120
5.320707 0.266669 0.449752 0.605933 0.759816 0.235637 133 127 120
5.320707 0.266669 0.449752 0.257431 0.322808 0.910782 133 127 120
4.903727 0.599200 0.449752 0.257431 0.322808 0.910782 153 146 139
4.878701 0.489558 0.495685 0.257431 0.322808 0.910782 153 146 139
5.219383 0.217874 0.495685 0.257431 0.322808 0.910782 133 127 120
5.219383 0.217874 0.495685 -0.527208 -0.661098 0.533855 133 127 120
4.878701 0.489558 0.495685 -0.527208 -0.661098 0.533855 155 148 141
4.858633 0.401632 0.366984 -0.527208 -0.661098 0.533855 150 143 136
5.138127 0.178743 0.366984 -0.527208 -0.661098 0.533855 133 127 120
5.138127 0.178743 0.366984 -0.623490 -0.781831 0.000000 133 127 120
4.858633 0.401632 0.366984 -0.623490 -0.781831 0.000000 150 143 136
4.858633 0.401632 0.160559 -0.623490 -0.781831 0.000000 152 145 138
5.138127 0.178743 0.160559 -0.623490 -0.781831 0.000000 133 127 120
5.138127 0.178743 0.160559 -0.527208 -0.661098 -0.533855 133 127 120
4.858633 0.401632 0.160559 -0.527208 -0.661098 -0.533855 152 145 138
4.878701 0.489558 0.031858 -0.527208 -0.661098 -0.533855 153 146 139
5.219383 0.217874 0.031858 -0.527208 -0.661098 -0.533855 133 127 120
5.219383 0.217874 0.031858 0.257424 0.322800 -0.910787 133 127 120
4.878701 0.489558 0.031858 0.257424 0.322800 -0.910787 133 127 120
4.903727 0.599200 0.077790 0.257424 0.322800 -0.910787 133 127 120
5.320707 0.266669 0.077790 0.257424 0.322800 -0.910787 133 127 120
5.320707 0.266669 0.077790 0.605933 0.759816 -0.235637 133 127 120
4.903727 0.599200 0.077790 0.605933 0.759816 -0.235637 133 127 120
4.914864 0.647996 0.263771 0.605933 0.759816 -0.235637 133 127 120
5.365801 0.288385 0.263771 0.605933 0.759816 -0.235637 133 127 120
4.914864 0.647996 0.263771 -0.216254 0.947475 0.235637 133 127 120
4.352554 0.519653 0.263771 -0.216254 0.947475 0.235637 133 127 120
4.383760 0.480522 0.449752 -0.216254 0.947475 0.235637 133 127 120
4.903727 0.599200 0.449752 -0.216254 0.947475 0.235637 133 127 120
4.903727 0.599200 0.449752 -0.091876 0.402535 0.910782 200 192 181
4.383760 0.480522 0.449752 -0.091876 0.402535 0.910782 200 193 182
4.453879 0.392595 0.495685 -0.091876 0.402535 0.910782 201 193 182
4.878701 0.489558 0.495685 -0.091876 0.402535 0.910782 155 148 141
4.878701 0.489558 0.495685 0.188158 -0.824374 0.533857 155 148 141
4.453879 0.392595 0.495685 0.188158 -0.824374 0.533857 201 193 182
4.510110 0.322084 0.366984 0.188158 -0.824374 0.533857 168 161 152
4.858633 0.401632 0.366984 0.188158 -0.824374 0.533857 150 143 136
4.858633 0.401632 0.366984 0.222521 -0.974928 0.000000 150 143 136
4.510110 0.322084 0.366984 0.222521 -0.974928 0.000000 153 146 139
4.510110 0.322084 0.160559 0.222521 -0.974928 0.000000 152 145 138
4.858633 0.401632 0.160559 0.222521 -0.974928 0.000000 152 145 138
4.858633 0.401632 0.160559 0.188158 -0.824374 -0.533857 152 145 138
4.510110 0.322084 0.160559 0.188158 -0.824374 -0.533857 150 143 136
4.453879 0.392595 0.031858 0.188158 -0.824374 -0.533857 136 130 123
4.878701 0.489558 0.031858 0.188158 -0.824374 -0.533857 153 146 139
4.878701 0.489558 0.031858 -0.091873 0.402525 -0.910787 133 127 120
4.453879 0.392595 0.031858 -0.091873 0.402525 -0.910787 133 127 120
4.383760 0.480522 0.077790 -0.091873 0.402525 -0.910787 133 127 120
4.903727 0.599200 0.077790 -0.091873 0.402525 -0.910787 133 127 120
4.903727 0.599200 0.077790 -0.216254 0.947475 -0.235637 133 127 120
4.383760 0.480522 0.077790 -0.216254 0.947475 -0.235637 133 127 120
4.352554 0.519653 0.263771 -0.216254 0.947475 -0.235637 133 127 120
4.914864 0.647996 0.263771 -0.216254 0.947475 -0.235637 133 127 120
4.352554 0.519653 0.263771 -0.875598 0.421666 0.235638 133 127 120
4.102303 0.000000 0.263771 -0.875598 0.421666 0.235638 140 133 126
4.152353 0.000000 0.449752 -0.875598 0.421666 0.235638 151 144 137
4.383760 0.480522 0.449752 -0.875598 0.421666 0.235638 200 193 182
4.383760 0.480522 0.449752 -0.371999 0.179145 0.910782 200 193 182
4.152353 0.000000 0.449752 -0.371999 0.179145 0.910782 151 144 137
4.264815 0.000000 0.495685 -0.371999 0.179145 0.910782 153 146 139
4.453879 0.392595 0.495685 -0.371999 0.179145 0.910782 201 193 182
4.453879 0.392595 0.495685 0.761836 -0.366882 0.533857 153 146 139
4.264815 0.000000 0.495685 0.761836 -0.366882 0.533857 153 146 139
4.355002 0.000000 0.366984 0.761836 -0.366882 0.533857 142 135 128
4.510110 0.322084 0.366984 0.761836 -0.366882 0.533857 153 146 139
4.510110 0.322084 0.366984 0.900968 -0.433885 0.000000 133 127 120
4.355002 0.000000 0.366984 0.900968 -0.433885 0.000000 133 127 120
4.355002 0.000000 0.160559 0.900968 -0.433885 0.000000 133 127 120
4.510110 0.322084 0.160559 0.900968 -0.433885 0.000000 133 127 120
4.510110 0.322084 0.160559 0.761836 -0.366882 -0.533857 133 127 120
4.355002 0.000000 0.160559 0.761836 -0.366882 -0.533857 133 127 120
4.264815 0.000000 0.031858 0.761836 -0.366882 -0.533857 133 127 120
4.453879 0.392595 0.031858 0.761836 -0.366882 -0.533857 133 127 120
4.453879 0.392595 0.031858 -0.371989 0.179140 -0.910787 133 127 120
4.264815 0.000000 0.031858 -0.371989 0.179140 -0.910787 133 127 120
4.152353 0.000000 0.077790 -0.371989 0.179140 -0.910787 133 127 120
4.383760 0.480522 0.077790 -0.371989 0.179140 -0.910787 133 127 120
4.102303 0.000000 0.263771 -0.875598 0.421666 -0.235638 140 133 126
4.352554 0.519653 0.263771 -0.875598 0.421666 -0.235638 133 127 120
4.383760 0.480522 0.077790 -0.875598 0.421666 -0.235638 152 145 138
4.152353 0.000000 0.077790 -0.875598 0.421666 -0.235638 133 127 120
0.000000 2.216667 -0.016789 -1.000000 0.000000 0.000000 125 71 6
0.000000 2.850000 -0.016789 -1.000000 0.000000 0.000000 135 76 0
0.000000 2.850000 -0.205393 -1.000000 0.000000 0.000000 128 73 3
0.000000 2.216667 -0.205393 -1.000000 0.000000 0.000000 125 71 6
0.000000 2.850000 -0.016789 0.000000 1.000000 -0.000000 132 80 18
5.699999 2.850000 -0.016789 0.000000 1.000000 -0.000000 125 71 6
5.699999 2.850000 -0.205393 0.000000 1.000000 -0.000000 125 71 6
0.000000 2.850000 -0.205393 0.000000 1.000000 -0.000000 125 71 6
5.699999 -2.216667 -0.016789 1.000000 0.000000 -0.000000 135 76 7
5.699999 -2.850000 -0.016789 1.000000 0.000000 -0.000000 125 71 6
5.699999 -2.850000 -0.205393 1.000000 0.000000 -0.000000 125 71 6
5.699999 -2.216667 -0.205393 1.000000 0.000000 -0.000000 135 76 7
5.699999 -2.850000 -0.016789 0.000000 -1.000000 0.000000 125 71 6
0.000000 -2.850000 -0.016789 0.000000 -1.000000 0.000000 125 71 6
0.000000 -2.850000 -0.205393 0.000000 -1.000000 0.000000 129 73 6
5.699999 -2.850000 -0.205393 0.000000 -1.000000 0.000000 126 72 8
0.000000 2.216667 -0.205393 -0.000000 0.000000 -1.000000 135 76 7
0.000000 2.850000 -0.205393 -0.000000 0.000000 -1.000000 135 76 7
5.699999 2.850000 -0.205393 -0.000000 0.000000 -1.000000 135 76 7
5.699999 2.216667 -0.205393 -0.000000 0.000000 -1.000000 125 71 6
5.699999 2.216667 -0.016789 -0.000000 0.000000 1.000000 130 73 0
5.699999 2.850000 -0.016789 -0.000000 0.000000 1.000000 135 76 7
0.000000 2.850000 -0.016789 -0.000000 0.000000 1.000000 135 76 0
0.000000 2.216667 -0.016789 -0.000000 0.000000 1.000000 134 75 6
5.699999 -2.850000 -0.016789 -0.000000 0.000000 1.000000 135 76 0
5.699999 -2.216667 -0.016789 -0.000000 0.000000 1.000000 135 76 7
0.000000 -2.216667 -0.016789 -0.000000 0.000000 1.000000 128 71 0
0.000000 -2.850000 -0.016789 -0.000000 0.000000 1.000000 128 71 0
0.000000 -0.316667 -0.016789 -1.000000 0.000000 -0.000013 125 71 6
0.000000 -0.950000 -0.016789 -1.000000 0.000000 -0.000013 128 71 0
0.000000 -0.986324 0.009817 -1.000000 0.000000 -0.000013 128 71 0
0.000000 -0.280343 0.009817 -1.000000 0.000000 -0.000013 125 71 6
5.699999 -1.583333 -0.016789 -0.000000 0.000000 1.000000 125 71 6
5.699999 -0.950000 -0.016789 -0.000000 0.000000 1.000000 131 74 6
0.000000 -0.950000 -0.016789 -0.000000 0.000000 1.000000 130 73 0
0.000000 -1.583333 -0.016789 -0.000000 0.000000 1.000000 135 76 7
0.000000 1.583333 -0.016789 0.000000 -0.590905 -0.806741 125 71 6
5.699999 1.583333 -0.016789 0.000000 -0.590905 -0.806741 125 71 6
5.700000 1.547010 0.009817 0.000000 -0.590905 -0.806741 125 71 6
0.000000 1.547010 0.009817 0.000000 -0.590905 -0.806741 125 71 6
5.699999 -0.316667 -0.016789 -0.000000 0.000000 1.000000 125 71 6
5.699999 0.316667 -0.016789 -0.000000 0.000000 1.000000 125 71 6
0.000000 0.316667 -0.016789 -0.000000 0.000000 1.000000 128 72 6
0.000000 -0.316667 -0.016789 -0.000000 0.000000 1.000000 127 71 6
0.000000 0.950000 -0.016789 -1.000000 0.000000 -0.000013 126 71 6
0.000000 0.316667 -0.016789 -1.000000 0.000000 -0.000013 126 72 7
0.000000 0.280343 0.009817 -1.000000 0.000000 -0.000013 128 75 10
0.000000 0.986324 0.009817 -1.000000 0.000000 -0.000013 129 73 7
5.699999 0.950000 -0.016789 -0.000000 0.000000 1.000000 135 76 7
5.699999 1.583333 -0.016789 -0.000000 0.000000 1.000000 130 73 0
0.000000 1.583333 -0.016789 -0.000000 0.000000 1.000000 131 74 6
0.000000 0.950000 -0.016789 -0.000000 0.000000 1.000000 130 73 6
0.000000 2.216667 -0.016789 -1.000000 0.000000 -0.000013 125 71 6
0.000000 1.583333 -0.016789 -1.000000 0.000000 -0.000013 125 71 6
0.000000 1.547010 0.009817 -1.000000 0.000000 -0.000013 125 71 6
0.000000 2.252990 0.009817 -1.000000 0.000000 -0.000013 125 71 6
0.000000 -2.850000 -0.205393 -0.000000 0.000000 -1.000000 130 73 6
0.000000 -2.216667 -0.205393 -0.000000 0.000000 -1.000000 135 76 7
5.699999 -2.216667 -0.205393 -0.000000 0.000000 -1.000000 125 71 6
5.699999 -2.850000 -0.205393 -0.000000 0.000000 -1.000000 125 71 6
0.000000 -1.583333 -0.205393 -0.000000 0.000000 -1.000000 135 76 7
5.699999 -1.583333 -0.205393 -0.000000 0.000000 -1.000000 130 74 6
0.000000 -0.950000 -0.205393 -0.000000 0.000000 -1.000000 135 76 7
5.699999 -0.950000 -0.205393 -0.000000 0.000000 -1.000000 135 76 7
0.000000 -0.316667 -0.205393 -0.000000 0.000000 -1.000000 135 76 7
5.699999 -0.316667 -0.205393 -0.000000 0.000000 -1.000000 133 75 6
0.000000 0.316667 -0.205393 -0.000000 0.000000 -1.000000 135 76 7
5.699999 0.316667 -0.205393 -0.000000 0.000000 -1.000000 130 74 6
0.000000 0.950000 -0.205393 -0.000000 0.000000 -1.000000 135 76 7
5.699999 0.950000 -0.205393 -0.000000 0.000000 -1.000000 125 71 6
0.000000 1.583333 -0.205393 -0.000000 0.000000 -1.000000 135 76 7
5.699999 1.583333 -0.205393 -0.000000 0.000000 -1.000000 125 71 6
5.699999 2.850000 -0.016789 1.000000 0.000000 -0.000000 135 76 7
5.699999 2.216667 -0.016789 1.000000 0.000000 -0.000000 130 73 0
5.699999 2.216667 -0.205393 1.000000 0.000000 -0.000000 130 73 0
5.699999 2.850000 -0.205393 1.000000 0.000000 -0.000000 135 76 7
5.699999 2.216667 -0.016789 1.000000 0.000000 -0.000000 135 76 7
5.699999 1.583333 -0.016789 1.000000 0.000000 -0.000000 135 76 7
5.699999 1.583333 -0.205393 1.000000 0.000000 -0.000000 135 76 7
5.699999 2.216667 -0.205393 1.000000 0.000000 -0.000000 132 75 6
5.699999 0.950000 -0.016789 1.000000 0.000000 -0.000000 135 76 7
5.699999 0.950000 -0.205393 1.000000 0.000000 -0.000000 125 71 6
5.699999 0.316667 -0.016789 1.000000 0.000000 -0.000000 135 76 7
5.699999 0.316667 -0.205393 1.000000 0.000000 -0.000000 130 74 6
5.699999 -0.316667 -0.016789 1.000000 0.000000 -0.000000 134 75 7
5.699999 -0.316667 -0.205393 1.000000 0.000000 -0.000000 133 75 6
5.699999 -0.950000 -0.016789 1.000000 0.000000 -0.000000 135 76 7
5.699999 -0.950000 -0.205393 1.000000 0.000000 -0.000000 135 76 7
5.699999 -1.583333 -0.016789 1.000000 0.000000 -0.000000 135 76 7
5.699999 -1.583333 -0.205393 1.000000 0.000000 -0.000000 133 74 6
0.000000 -2.850000 -0.016789 -1.000000 0.000000 0.000000 128 71 0
0.000000 -2.216667 -0.016789 -1.000000 0.000000 0.000000 128 71 0
0.000000 -2.216667 -0.205393 -1.000000 0.000000 0.000000 132 73 4
0.000000 -2.850000 -0.205393 -1.000000 0.000000 0.000000 128 71 0
0.000000 -1.583333 -0.016789 -1.000000 0.000000 0.000000 125 71 6
0.000000 -1.583333 -0.205393 -1.000000 0.000000 0.000000 125 71 6
0.000000 -1.583333 -0.016789 -1.000000 0.000000 0.000000 135 76 7
0.000000 -0.950000 -0.016789 -1.000000 0.000000 0.000000 128 71 0
0.000000 -0.950000 -0.205393 -1.000000 0.000000 0.000000 127 71 1
0.000000 -1.583333 -0.205393 -1.000000 0.000000 0.000000 135 76 7
0.000000 -0.316667 -0.016789 -1.000000 0.000000 0.000000 125 71 6
0.000000 -0.316667 -0.205393 -1.000000 0.000000 0.000000 125 71 6
0.000000 0.316667 -0.016789 -1.000000 0.000000 0.000000 126 72 7
0.000000 0.316667 -0.205393 -1.000000 0.000000 0.000000 125 71 6
0.000000 0.950000 -0.016789 -1.000000 0.000000 0.000000 126 71 6
0.000000 0.950000 -0.205393 -1.000000 0.000000 0.000000 125 71 6
0.000000 1.583333 -0.016789 -1.000000 0.000000 0.000000 125 71 6
0.000000 1.583333 -0.205393 -1.000000 0.000000 0.000000 125 71 6
0.000000 2.252990 0.009817 -1.000000 0.000000 -0.000000 125 71 6
0.000000 1.547010 0.009817 -1.000000 0.000000 -0.000000 125 71 6
0.000000 1.547010 0.065239 -1.000000 0.000000 -0.000000 126 72 4
0.000000 2.252990 0.065239 -1.000000 0.000000 -0.000000 125 71 6
5.700000 0.280343 0.009817 1.000000 0.000000 0.000000 135 76 7
5.700000 0.986324 0.009817 1.000000 0.000000 0.000000 135 76 7
5.700000 0.986324 0.065239 1.000000 0.000000 0.000000 135 76 7
5.700000 0.280343 0.065239 1.000000 0.000000 0.000000 135 76 7
5.700000 -2.252990 0.009817 1.000000 0.000000 0.000000 135 76 7
5.700000 -1.547010 0.009817 1.000000 0.000000 0.000000 134 76 6
5.700000 -1.547010 0.065239 1.000000 0.000000 0.000000 130 73 1
5.700000 -2.252990 0.065239 1.000000 0.000000 0.000000 130 73 0
5.700000 -1.547010 0.009817 0.000000 1.000000 0.000000 125 71 6
0.000000 -1.547010 0.009817 0.000000 1.000000 0.000000 125 71 6
0.000000 -1.547010 0.065239 0.000000 1.000000 0.000000 126 72 7
5.700000 -1.547010 0.065239 0.000000 1.000000 0.000000 125 71 6
0.000000 0.316667 -0.016789 -0.000000 -0.590905 -0.806741 125 71 6
5.699999 0.316667 -0.016789 -0.000000 -0.590905 -0.806741 135 76 7
5.700000 0.280343 0.009817 -0.000000 -0.590905 -0.806741 135 76 7
0.000000 0.280343 0.009817 -0.000000 -0.590905 -0.806741 125 71 6
0.000000 -1.583333 -0.016789 -1.000000 0.000000 -0.000013 125 71 6
0.000000 -2.216667 -0.016789 -1.000000 0.000000 -0.000013 128 71 0
0.000000 -2.252990 0.009817 -1.000000 0.000000 -0.000013 128 71 0
0.000000 -1.547010 0.009817 -1.000000 0.000000 -0.000013 125 71 6
5.699999 -2.216667 -0.016789 1.000000 0.000000 -0.000018 135 76 7
5.699999 -1.583333 -0.016789 1.000000 0.000000 -0.000018 135 76 7
5.700000 -1.547010 0.009817 1.000000 0.000000 -0.000018 134 76 6
5.700000 -2.252990 0.009817 1.000000 0.000000 -0.000018 135 76 7
0.000000 -0.950000 -0.016789 0.000000 -0.590905 -0.806741 130 73 0
5.699999 -0.950000 -0.016789 0.000000 -0.590905 -0.806741 135 76 7
5.700000 -0.986324 0.009817 0.000000 -0.590905 -0.806741 135 76 7
0.000000 -0.986324 0.009817 0.000000 -0.590905 -0.806741 130 73 0
5.699999 -0.950000 -0.016789 1.000000 0.000000 -0.000018 135 76 7
5.699999 -0.316667 -0.016789 1.000000 0.000000 -0.000018 134 75 7
5.700000 -0.280343 0.009817 1.000000 0.000000 -0.000018 133 75 6
5.700000 -0.986324 0.009817 1.000000 0.000000 -0.000018 135 76 7
0.000000 -2.216667 -0.016789 0.000000 -0.590906 -0.806740 125 71 6
5.699999 -2.216667 -0.016789 0.000000 -0.590906 -0.806740 129 77 13
5.700000 -2.252990 0.009817 0.000000 -0.590906 -0.806740 126 73 8
0.000000 -2.252990 0.009817 0.000000 -0.590906 -0.806740 125 71 6
5.699999 0.316667 -0.016789 1.000000 0.000000 -0.000018 135 76 7
5.699999 0.950000 -0.016789 1.000000 0.000000 -0.000018 135 76 7
5.700000 0.986324 0.009817 1.000000 0.000000 -0.000018 135 76 7
5.700000 0.280343 0.009817 1.000000 0.000000 -0.000018 135 76 7
5.699999 1.583333 -0.016789 1.000000 0.000000 -0.000018 135 76 7
5.699999 2.216667 -0.016789 1.000000 0.000000 -0.000018 135 76 7
5.700000 2.252990 0.009817 1.000000 0.000000 -0.000018 135 76 7
5.700000 1.547010 0.009817 1.000000 0.000000 -0.000018 135 76 7
5.699999 2.216667 -0.016789 0.000000 0.590906 -0.806740 125 71 6
0.000000 2.216667 -0.016789 0.000000 0.590906 -0.806740 125 71 6
0.000000 2.252990 0.009817 0.000000 0.590906 -0.806740 125 71 6
5.700000 2.252990 0.009817 0.000000 0.590906 -0.806740 125 71 6
5.699999 0.950000 -0.016789 0.000000 0.590905 -0.806741 125 71 6
0.000000 0.950000 -0.016789 0.000000 0.590905 -0.806741 125 71 6
0.000000 0.986324 0.009817 0.000000 0.590905 -0.806741 125 71 6
5.700000 0.986324 0.009817 0.000000 0.590905 -0.806741 125 71 6
5.699999 -0.316667 -0.016789 0.000000 0.590905 -0.806741 134 75 7
0.000000 -0.316667 -0.016789 0.000000 0.590905 -0.806741 125 71 6
0.000000 -0.280343 0.009817 0.000000 0.590905 -0.806741 125 71 6
5.700000 -0.280343 0.009817 0.000000 0.590905 -0.806741 133 75 6
5.699999 -1.583333 -0.016789 0.000000 0.590905 -0.806741 135 76 7
0.000000 -1.583333 -0.016789 0.000000 0.590905 -0.806741 125 71 6
0.000000 -1.547010 0.009817 0.000000 0.590905 -0.806741 125 71 6
5.700000 -1.547010 0.009817 0.000000 0.590905 -0.806741 135 76 7
5.700000 -2.252990 0.065239 -0.000000 0.000000 1.000000 130 73 0
5.700000 -1.547010 0.065239 -0.000000 0.000000 1.000000 130 73 1
0.000000 -1.547010 0.065239 -0.000000 0.000000 1.000000 130 73 0
0.000000 -2.252990 0.065239 -0.000000 0.000000 1.000000 129 72 0
5.700000 -0.986324 0.065239 -0.000000 0.000000 1.000000 132 75 6
5.700000 -0.280343 0.065239 -0.000000 0.000000 1.000000 125 71 6
0.000000 -0.280343 0.065239 -0.000000 0.000000 1.000000 131 74 6
0.000000 -0.986324 0.065239 -0.000000 0.000000 1.000000 130 73 0
5.700000 0.280343 0.065239 -0.000000 0.000000 1.000000 125 71 6
5.700000 0.986324 0.065239 -0.000000 0.000000 1.000000 135 76 7
0.000000 0.986324 0.065239 -0.000000 0.000000 1.000000 134 76 7
0.000000 0.280343 0.065239 -0.000000 0.000000 1.000000 133 74 6
5.700000 1.547010 0.065239 -0.000000 0.000000 1.000000 130 73 0
5.700000 2.252990 0.065239 -0.000000 0.000000 1.000000 130 73 0
0.000000 2.252990 0.065239 -0.000000 0.000000 1.000000 135 76 7
0.000000 1.547010 0.065239 -0.000000 0.000000 1.000000 134 75 5
0.000000 1.547010 0.009817 0.000000 -1.000000 -0.000000 133 75 6
5.700000 1.547010 0.009817 0.000000 -1.000000 -0.000000 130 73 0
5.700000 1.547010 0.065239 0.000000 -1.000000 -0.000000 130 73 0
0.000000 1.547010 0.065239 0.000000 -1.000000 -0.000000 134 75 5
0.000000 -0.280343 0.009817 -1.000000 0.000000 -0.000000 125 71 6
0.000000 -0.986324 0.009817 -1.000000 0.000000 -0.000000 128 71 0
0.000000 -0.986324 0.065239 -1.000000 0.000000 -0.000000 128 71 0
0.000000 -0.280343 0.065239 -1.000000 0.000000 -0.000000 125 71 6
0.000000 0.280343 0.009817 -0.000000 -1.000000 0.000000 130 73 6
5.700000 0.280343 0.009817 -0.000000 -1.000000 0.000000 135 76 7
5.700000 0.280343 0.065239 -0.000000 -1.000000 0.000000 135 76 7
0.000000 0.280343 0.065239 -0.000000 -1.000000 0.000000 133 74 6
0.000000 -0.986324 0.009817 0.000000 -1.000000 -0.000000 130 73 0
5.700000 -0.986324 0.009817 0.000000 -1.000000 -0.000000 135 76 7
5.700000 -0.986324 0.065239 0.000000 -1.000000 -0.000000 134 75 6
0.000000 -0.986324 0.065239 0.000000 -1.000000 -0.000000 130 73 1
0.000000 -2.252990 0.009817 0.000000 -1.000000 -0.000000 135 76 7
5.700000 -2.252990 0.009817 0.000000 -1.000000 -0.000000 135 76 7
5.700000 -2.252990 0.065239 0.000000 -1.000000 -0.000000 135 76 7
0.000000 -2.252990 0.065239 0.000000 -1.000000 -0.000000 135 76 7
5.700000 -0.986324 0.009817 1.000000 0.000000 0.000000 135 76 7
5.700000 -0.280343 0.009817 1.000000 0.000000 0.000000 133 75 6
5.700000 -0.280343 0.065239 1.000000 0.000000 0.000000 135 76 7
5.700000 -0.986324 0.065239 1.000000 0.000000 0.000000 134 75 8
5.700000 1.547010 0.009817 1.000000 0.000000 0.000000 135 76 7
5.700000 2.252990 0.009817 1.000000 0.000000 0.000000 135 76 7
5.700000 2.252990 0.065239 1.000000 0.000000 0.000000 135 76 7
5.700000 1.547010 0.065239 1.000000 0.000000 0.000000 134 75 6
5.700000 2.252990 0.009817 0.000000 1.000000 0.000000 125 71 6
0.000000 2.252990 0.009817 0.000000 1.000000 0.000000 125 71 6
0.000000 2.252990 0.065239 0.000000 1.000000 0.000000 125 71 6
5.700000 2.252990 0.065239 0.000000 1.000000 0.000000 125 71 6
0.000000 0.986324 0.009817 -1.000000 0.000000 -0.000000 129 73 7
0.000000 0.280343 0.009817 -1.000000 0.000000 -0.000000 128 75 10
0.000000 0.280343 0.065239 -1.000000 0.000000 -0.000000 144 97 36
0.000000 0.986324 0.065239 -1.000000 0.000000 -0.000000 131 74 6
5.700000 0.986324 0.009817 0.000000 1.000000 0.000000 125 71 6
0.000000 0.986324 0.009817 0.000000 1.000000 0.000000 125 71 6
0.000000 0.986324 0.065239 0.000000 1.000000 0.000000 125 71 6
5.700000 0.986324 0.065239 0.000000 1.000000 0.000000 125 71 6
0.000000 -1.547010 0.009817 -1.000000 0.000000 -0.000000 125 71 6
0.000000 -2.252990 0.009817 -1.000000 0.000000 -0.000000 128 71 0
0.000000 -2.252990 0.065239 -1.000000 0.000000 -0.000000 128 71 0
0.000000 -1.547010 0.065239 -1.000000 0.000000 -0.000000 126 72 7
5.700000 -0.280343 0.009817 0.000000 1.000000 0.000000 125 71 6
0.000000 -0.280343 0.009817 0.000000 1.000000 0.000000 125 71 6
0.000000 -0.280343 0.065239 0.000000 1.000000 0.000000 125 71 6
5.700000 -0.280343 0.065239 0.000000 1.000000 0.000000 125 71 6
5.199185 0.303995 0.646235 0.595477 0.000000 0.803372 133 127 120
5.199185 -0.303995 0.646235 0.595477 0.000000 0.803372 133 127 120
5.333553 -0.303995 0.546639 0.595477 0.000000 0.803372 133 127 120
5.333553 0.303995 0.546639 0.595477 0.000000 0.803372 133 127 120
5.333553 0.303995 0.546639 0.974241 0.000000 0.225510 133 127 120
5.333553 -0.303995 0.546639 0.974241 0.000000 0.225510 134 128 121
5.389211 -0.303995 0.306190 0.974241 0.000000 0.225510 133 127 120
5.389211 0.303995 0.306190 0.974241 0.000000 0.225510 133 127 120
5.389211 0.303995 0.306190 0.974241 0.000000 -0.225512 133 127 120
5.389211 -0.303995 0.306190 0.974241 0.000000 -0.225512 133 127 120
5.333553 -0.303995 0.065742 0.974241 0.000000 -0.225512 133 127 120
5.333553 0.303995 0.065742 0.974241 0.000000 -0.225512 133 127 120
5.333553 0.303995 0.065742 0.595477 0.000000 -0.803372 133 127 120
5.333553 -0.303995 0.065742 0.595477 0.000000 -0.803372 133 127 120
5.199185 -0.303995 -0.033854 0.595477 0.000000 -0.803372 133 127 120
5.199185 0.303995 -0.033854 0.595477 0.000000 -0.803372 133 127 120
5.199185 0.303995 -0.033854 -0.595477 0.000000 -0.803372 133 127 120
5.199185 -0.303995 -0.033854 -0.595477 0.000000 -0.803372 133 127 120
5.064817 -0.303995 0.065742 -0.595477 0.000000 -0.803372 133 127 120
5.064817 0.303995 0.065742 -0.595477 0.000000 -0.803372 133 127 120
5.064817 0.303995 0.065742 -0.974241 0.000000 -0.225508 133 127 120
5.064817 -0.303995 0.065742 -0.974241 0.000000 -0.225508 133 127 120
5.009161 -0.303995 0.306190 -0.974241 0.000000 -0.225508 133 127 120
5.009161 0.303995 0.306190 -0.974241 0.000000 -0.225508 133 127 120
5.333553 -0.303995 0.546639 -0.000001 -1.000000 0.000000 133 127 120
5.333553 -0.303995 0.065742 -0.000001 -1.000000 0.000000 133 127 120
5.389211 -0.303995 0.306190 -0.000001 -1.000000 0.000000 133 127 120
5.064817 -0.303995 0.065742 -0.000000 -1.000000 0.000000 133 127 120
5.199185 -0.303995 -0.033854 -0.000000 -1.000000 0.000000 133 127 120
5.333553 -0.303995 0.065742 -0.000000 -1.000000 0.000000 133 127 120
5.064817 -0.303995 0.546639 0.000000 -1.000000 0.000000 133 127 120
5.009161 -0.303995 0.306190 0.000000 -1.000000 0.000000 133 127 120
5.333553 -0.303995 0.546639 0.000000 -1.000000 -0.000000 133 127 120
5.199185 -0.303995 0.646235 0.000000 -1.000000 -0.000000 133 127 120
5.064817 0.303995 0.546637 -0.595480 0.000001 0.803370 133 127 120
5.064817 -0.303995 0.546639 -0.595480 0.000001 0.803370 133 127 120
5.199185 -0.303995 0.646235 -0.595480 0.000001 0.803370 133 127 120
5.199185 0.303995 0.646235 -0.595480 0.000001 0.803370 133 127 120
5.009161 0.303995 0.306190 -0.974241 0.000000 0.225507 133 127 120
5.009161 -0.303995 0.306190 -0.974241 0.000000 0.225507 133 127 120
5.064817 -0.303995 0.546639 -0.974241 0.000000 0.225507 133 127 120
5.064817 0.303995 0.546637 -0.974241 0.000000 0.225507 133 127 120
5.199185 0.303995 0.646235 0.000000 1.000000 -0.000000 133 127 120
5.009161 0.303995 0.306190 0.000000 1.000000 -0.000000 133 127 120
5.064817 0.303995 0.546637 0.000000 1.000000 -0.000000 133 127 120
5.199185 0.303995 -0.033854 0.000000 1.000000 0.000000 133 127 120
5.064817 0.303995 0.065742 0.000000 1.000000 0.000000 133 127 120
5.389211 0.303995 0.306190 0.000000 1.000000 -0.000000 133 127 120
5.333553 0.303995 0.065742 0.000000 1.000000 -0.000000 133 127 120
5.333553 0.303995 0.546639 -0.000000 1.000000 -0.000000 133 127 120
0.000000 -1.493611 0.135222 0.499999 0.000000 0.866026 254 254 254
0.000000 -2.240417 0.135222 0.499999 0.000000 0.866026 255 255 255
0.116913 -2.240417 0.067722 0.499999 0.000000 0.866026 255 255 255
0.116913 -1.493611 0.067722 0.499999 0.000000 0.866026 255 255 255
0.116913 -1.493611 0.067722 1.000000 0.000000 -0.000000 255 255 255
0.116913 -2.240417 0.067722 1.000000 0.000000 -0.000000 255 255 255
0.116913 -2.240417 -0.067278 1.000000 0.000000 -0.000000 255 255 255
0.116913 -1.493611 -0.067278 1.000000 0.000000 -0.000000 255 255 255
0.116913 -1.493611 -0.067278 0.500000 0.000000 -0.866025 255 255 255
0.116913 -2.240417 -0.067278 0.500000 0.000000 -0.866025 255 255 255
-0.000000 -2.240417 -0.134779 0.500000 0.000000 -0.866025 255 255 255
-0.000000 -1.493611 -0.134779 0.500000 0.000000 -0.866025 255 255 255
-0.000000 -1.493611 -0.134779 -0.500000 0.000000 -0.866025 255 255 255
-0.000000 -2.240417 -0.134779 -0.500000 0.000000 -0.866025 255 255 255
-0.116913 -2.240417 -0.067278 -0.500000 0.000000 -0.866025 255 255 255
-0.116913 -1.493611 -0.067278 -0.500000 0.000000 -0.866025 255 255 255
0.116913 -2.240417 0.067722 -0.000000 -1.000000 0.000000 255 255 255
-0.000000 -2.240417 -0.134779 -0.000000 -1.000000 0.000000 255 255 255
0.116913 -2.240417 -0.067278 -0.000000 -1.000000 0.000000 255 255 255
-0.116913 -2.240417 0.067722 0.000000 -1.000000 0.000000 255 255 255
-0.116913 -2.240417 -0.067278 0.000000 -1.000000 0.000000 255 255 255
0.000000 -2.240417 0.135222 0.000000 -1.000000 0.000000 255 255 255
-0.116913 -1.493611 0.067722 -0.499999 0.000000 0.866026 255 255 255
-0.116913 -2.240417 0.067722 -0.499999 0.000000 0.866026 255 255 255
0.000000 -2.240417 0.135222 -0.499999 0.000000 0.866026 255 255 255
0.000000 -1.493611 0.135222 -0.499999 0.000000 0.866026 254 254 254
-0.116913 -1.493611 -0.067278 -1.000000 0.000000 -0.000000 255 255 255
-0.116913 -2.240417 -0.067278 -1.000000 0.000000 -0.000000 255 255 255
-0.116913 -2.240417 0.067722 -1.000000 0.000000 -0.000000 255 255 255
-0.116913 -1.493611 0.067722 -1.000000 0.000000 -0.000000 255 255 255
0.000000 2.240417 0.135222 -0.000000 1.000000 0.000000 255 255 255
-0.116913 2.240417 -0.067278 -0.000000 1.000000 0.000000 255 255 255
-0.116913 2.240417 0.067722 -0.000000 1.000000 0.000000 255 255 255
0.116913 2.240417 -0.067278 -0.000000 1.000000 0.000000 255 255 255
-0.000000 2.240417 -0.134779 -0.000000 1.000000 0.000000 255 255 255
0.116913 2.240417 0.067722 0.000000 1.000000 -0.000000 255 255 255
-0.116913 2.240417 -0.067278 -1.000000 0.000000 -0.000000 255 255 255
-0.116913 1.493611 -0.067278 -1.000000 0.000000 -0.000000 254 254 254
-0.116913 1.493611 0.067722 -1.000000 0.000000 -0.000000 254 254 254
-0.116913 2.240417 0.067722 -1.000000 0.000000 -0.000000 255 255 255
-0.116913 -1.493611 -0.067278 0.000000 1.000000 -0.000000 255 255 255
0.116913 -1.493611 -0.067278 0.000000 1.000000 -0.000000 255 255 255
-0.000000 -1.493611 -0.134779 0.000000 1.000000 -0.000000 255 255 255
-0.116913 -1.493611 0.067722 0.000000 1.000000 -0.000000 255 255 255
0.116913 -1.493611 0.067722 0.000000 1.000000 -0.000000 255 255 255
0.000000 -1.493611 0.135222 0.000000 1.000000 -0.000000 255 255 255
-0.116913 -1.493611 0.067722 0.000000 1.000000 -0.000000 254 254 254
-0.116913 2.240417 0.067722 -0.499999 0.000000 0.866026 255 255 255
-0.116913 1.493611 0.067722 -0.499999 0.000000 0.866026 254 254 254
0.000000 1.493611 0.135222 -0.499999 0.000000 0.866026 255 255 255
0.000000 2.240417 0.135222 -0.499999 0.000000 0.866026 255 255 255
-0.000000 2.240417 -0.134779 -0.500000 0.000000 -0.866025 255 255 255
-0.000000 1.493611 -0.134779 -0.500000 0.000000 -0.866025 254 254 254
-0.116913 1.493611 -0.067278 -0.500000 0.000000 -0.866025 254 254 254
-0.116913 2.240417 -0.067278 -0.500000 0.000000 -0.866025 255 255 255
-0.116913 1.493611 -0.067278 -0.000000 -1.000000 0.000000 254 254 254
-0.000000 1.493611 -0.134779 -0.000000 -1.000000 0.000000 254 254 254
0.116913 1.493611 -0.067278 -0.000000 -1.000000 0.000000 255 255 255
-0.116913 1.493611 0.067722 0.000000 -1.000000 0.000000 254 254 254
-0.116913 1.493611 -0.067278 0.000000 -1.000000 0.000000 255 255 255
-0.116913 1.493611 0.067722 -0.000000 -1.000000 -0.000000 255 255 255
0.116913 1.493611 -0.067278 -0.000000 -1.000000 -0.000000 254 254 254
0.116913 1.493611 0.067722 -0.000000 -1.000000 -0.000000 255 255 255
0.000000 1.493611 0.135222 0.000000 -1.000000 0.000000 254 254 254
0.116913 2.240417 -0.067278 0.500000 0.000000 -0.866025 255 255 255
0.116913 1.493611 -0.067278 0.500000 0.000000 -0.866025 254 254 254
-0.000000 1.493611 -0.134779 0.500000 0.000000 -0.866025 254 254 254
-0.000000 2.240417 -0.134779 0.500000 0.000000 -0.866025 255 255 255
0.116913 2.240417 0.067722 1.000000 0.000000 -0.000000 255 255 255
0.116913 1.493611 0.067722 1.000000 0.000000 -0.000000 254 254 254
0.116913 1.493611 -0.067278 1.000000 0.000000 -0.000000 254 254 254
0.116913 2.240417 -0.067278 1.000000 0.000000 -0.000000 255 255 255
0.000000 2.240417 0.135222 0.499999 0.000000 0.866026 255 255 255
0.000000 1.493611 0.135222 0.499999 0.000000 0.866026 255 255 255
0.116913 1.493611 0.067722 0.499999 0.000000 0.866026 254 254 254
0.116913 2.240417 0.067722 0.499999 0.000000 0.866026 255 255 255
4 0 1 2 3
4 4 5 6 7
4 8 9 10 11
4 12 13 14 15
4 16 17 18 19
4 20 21 22 23
4 24 25 26 27
4 28 29 30 31
4 32 33 34 35
4 36 37 38 39
4 40 41 42 43
4 44 45 46 47
4 48 49 50 51
4 52 53 54 55
4 56 57 58 59
4 60 61 62 63
4 64 65 66 67
4 68 69 70 71
4 72 73 74 75
4 76 77 78 79
4 80 81 82 83
4 84 85 86 87
4 88 89 90 91
4 92 93 94 95
4 96 97 98 99
4 100 101 102 103
4 104 105 106 107
4 108 109 110 111
4 112 113 114 115
4 116 117 118 119
4 120 121 122 123
4 124 125 126 127
4 128 129 130 131
4 132 133 134 135
4 136 137 138 139
4 140 141 142 143
4 144 145 146 147
4 148 149 150 151
4 152 153 154 155
4 156 157 158 159
4 160 161 162 163
4 164 165 166 167
4 168 169 170 171
4 172 173 174 175
4 176 177 178 179
4 180 181 182 183
4 184 185 186 187
4 188 189 190 191
4 192 193 194 195
4 196 197 198 199
4 200 201 202 203
4 204 205 206 207
4 208 209 210 211
4 212 213 214 215
4 216 217 218 219
4 220 221 222 223
4 224 225 226 227
4 228 229 230 231
4 232 233 234 235
4 236 237 238 239
4 240 241 242 243
4 244 245 246 247
4 248 249 250 251
4 252 253 254 255
4 253 256 257 254
4 256 258 259 257
4 258 260 261 259
4 260 262 263 261
4 262 264 265 263
4 264 266 267 265
4 266 212 215 267
4 268 269 270 271
4 272 273 274 275
4 273 276 277 274
4 276 278 279 277
4 278 280 281 279
4 280 282 283 281
4 282 284 285 283
4 284 204 207 285
4 286 287 288 289
4 287 290 291 288
4 292 293 294 295
4 293 296 297 294
4 296 298 299 297
4 298 300 301 299
4 300 302 303 301
4 302 196 199 303
4 304 305 306 307
4 308 309 310 311
4 312 313 314 315
4 316 317 318 319
4 320 321 322 323
4 324 325 326 327
4 328 329 330 331
4 332 333 334 335
4 336 337 338 339
4 340 341 342 343
4 344 345 346 347
4 348 349 350 351
4 352 353 354 355
4 356 357 358 359
4 360 361 362 363
4 364 365 366 367
4 368 369 370 371
4 372 373 374 375
4 376 377 378 379
4 380 381 382 383
4 384 385 386 387
4 388 389 390 391
4 392 393 394 395
4 396 397 398 399
4 400 401 402 403
4 404 405 406 407
4 408 409 410 411
4 412 413 414 415
4 416 417 418 419
4 420 421 422 423
4 424 425 426 427
4 428 429 430 431
4 432 433 434 435
4 436 437 438 439
4 440 441 442 443
4 444 445 446 447
4 448 449 450 451
4 452 453 454 455
3 456 457 458
3 459 460 461
3 462 463 459
3 464 465 462
3 464 459 461
3 464 462 459
4 466 467 468 469
4 470 471 472 473
3 474 475 476
3 477 478 475
3 479 480 477
3 474 481 479
3 474 477 475
3 474 479 477
4 482 483 484 485
4 486 487 488 489
4 490 491 492 493
4 494 495 496 497
3 498 499 500
3 501 502 499
3 498 503 501
3 498 501 499
4 504 505 506 507
4 508 509 510 511
3 512 513 514
3 515 516 513
3 512 517 515
3 512 515 513
4 518 519 520 521
3 522 523 524
3 525 523 522
3 525 526 523
3 527 526 528
4 529 530 531 532
4 533 534 535 536
3 537 538 539
3 540 541 539
3 542 543 544
3 545 542 544
4 546 547 548 549
4 550 551 552 553
4 554 555 556 557
