ply
format ascii 1.0
comment Created by Blender 2.71 (sub 0) - www.blender.org, source file: 'moltenMetalFall.blend'
element vertex 46
property float x
property float y
property float z
property float nx
property float ny
property float nz
element face 14
property list uchar uint vertex_indices
end_header
-0.207224 0.047624 0.000000 -1.000000 0.000000 -0.000000
-0.207224 -0.366823 0.000000 -1.000000 0.000000 -0.000000
-0.207224 -0.366823 1.249468 -1.000000 0.000000 -0.000000
-0.207224 0.047624 1.249468 -1.000000 0.000000 -0.000000
-0.207224 0.047624 1.249468 0.000000 1.000000 -0.000000
0.207224 0.047624 1.249468 0.000000 1.000000 -0.000000
0.207224 0.047624 0.000000 0.000000 1.000000 -0.000000
-0.207224 0.047624 0.000000 0.000000 1.000000 -0.000000
0.207224 0.047624 1.249468 1.000000 0.000000 -0.000000
0.207224 -0.366823 1.249468 1.000000 0.000000 -0.000000
0.207224 -0.366823 0.000000 1.000000 0.000000 -0.000000
0.207224 0.047624 0.000000 1.000000 0.000000 -0.000000
-0.207224 -0.366823 0.000000 0.000000 -1.000000 -0.000000
0.207224 -0.366823 0.000000 0.000000 -1.000000 -0.000000
0.207224 -0.366823 1.249468 0.000000 -1.000000 -0.000000
-0.207224 -0.366823 1.249468 0.000000 -1.000000 -0.000000
-0.207224 -0.366823 0.000000 -0.000000 0.000000 -1.000000
-0.207224 0.047624 0.000000 -0.000000 0.000000 -1.000000
0.207224 0.047624 0.000000 -0.000000 0.000000 -1.000000
0.207224 -0.366823 0.000000 -0.000000 0.000000 -1.000000
0.207224 -0.366823 1.414269 -0.000000 0.000000 1.000000
0.207224 0.047624 1.414269 -0.000000 0.000000 1.000000
-0.207224 0.047624 1.414269 -0.000000 0.000000 1.000000
-0.207224 -0.366823 1.414269 -0.000000 0.000000 1.000000
-0.207224 -0.366823 1.414269 -1.000000 0.000000 0.000000
-0.207224 0.047624 1.414269 -1.000000 0.000000 0.000000
-0.207224 0.047624 1.414269 0.000000 1.000000 -0.000000
0.207224 0.047624 1.414269 0.000000 1.000000 -0.000000
0.207224 0.047624 1.414269 1.000000 0.000000 -0.000000
0.207224 -0.366823 1.414269 1.000000 0.000000 -0.000000
-0.207224 -0.366823 1.249468 0.000000 -0.082569 -0.996585
0.207224 -0.366823 1.249468 0.000000 -0.082569 -0.996585
0.207224 -2.787264 1.450006 0.000000 -0.082569 -0.996585
-0.207224 -2.787264 1.450006 0.000000 -0.082569 -0.996585
0.207224 -2.787264 1.491458 0.000000 -1.000000 0.000000
-0.207224 -2.787264 1.491458 0.000000 -1.000000 0.000000
-0.207224 -2.787264 1.450006 0.000000 -1.000000 0.000000
0.207224 -2.787264 1.450006 0.000000 -1.000000 0.000000
0.207224 -2.787264 1.491458 1.000000 0.000000 0.000000
0.207224 -2.787264 1.450006 1.000000 0.000000 0.000000
0.207224 -0.366823 1.414269 0.000000 0.031874 0.999492
-0.207224 -0.366823 1.414269 0.000000 0.031874 0.999492
-0.207224 -2.787264 1.491458 0.000000 0.031874 0.999492
0.207224 -2.787264 1.491458 0.000000 0.031874 0.999492
-0.207224 -2.787264 1.450006 -1.000000 0.000000 0.000000
-0.207224 -2.787264 1.491458 -1.000000 0.000000 0.000000
4 0 1 2 3
4 4 5 6 7
4 8 9 10 11
4 12 13 14 15
4 16 17 18 19
4 20 21 22 23
4 24 25 3 2
4 26 27 5 4
4 28 29 9 8
4 30 31 32 33
4 34 35 36 37
4 9 29 38 39
4 40 41 42 43
4 24 2 44 45
