ply
format ascii 1.0
comment Created by Blender 2.73 (sub 0) - www.blender.org, source file: 'table.blend'
element vertex 459
property float x
property float y
property float z
property float nx
property float ny
property float nz
property uchar red
property uchar green
property uchar blue
element face 132
property list uchar uint vertex_indices
end_header
-3.440116 -1.965780 0.019186 -0.000000 0.000000 -1.000000 148 99 53
-3.440115 1.965781 0.019186 -0.000000 0.000000 -1.000000 149 100 54
3.440117 1.965780 0.019186 -0.000000 0.000000 -1.000000 148 99 53
3.440114 -1.965782 0.019186 -0.000000 0.000000 -1.000000 148 99 53
-3.500000 -1.999998 2.552676 0.000000 0.000000 1.000000 148 91 21
3.499998 -2.000000 2.552676 0.000000 0.000000 1.000000 148 99 53
3.500000 1.999998 2.552676 0.000000 0.000000 1.000000 148 93 27
-3.499996 2.000001 2.552676 0.000000 0.000000 1.000000 148 99 53
-3.500000 -1.999998 2.299768 -1.000000 0.000001 0.000000 148 99 53
-3.500000 -1.999998 2.552676 -1.000000 0.000001 0.000000 148 99 53
-3.499996 2.000001 2.552676 -1.000000 0.000001 0.000000 148 99 53
-3.499996 2.000001 2.299768 -1.000000 0.000001 0.000000 148 99 53
-3.499996 2.000001 2.299768 0.000000 1.000000 -0.000000 148 99 53
-3.499996 2.000001 2.552676 0.000000 1.000000 -0.000000 148 99 53
3.500000 1.999998 2.552676 0.000000 1.000000 -0.000000 148 93 29
3.500000 1.999998 2.299768 0.000000 1.000000 -0.000000 148 99 53
3.500000 1.999998 2.299768 1.000000 -0.000001 -0.000000 148 99 53
3.500000 1.999998 2.552676 1.000000 -0.000001 -0.000000 148 93 29
3.499998 -2.000000 2.552676 1.000000 -0.000001 -0.000000 148 99 53
3.499998 -2.000000 2.299768 1.000000 -0.000001 -0.000000 148 99 53
3.440115 -1.965781 2.223521 -0.000000 -1.000000 0.000000 148 99 53
-3.440117 -1.965779 2.223521 -0.000000 -1.000000 0.000000 148 99 53
-3.258283 -1.965779 2.165264 -0.000000 -1.000000 0.000000 148 99 53
3.258281 -1.965781 2.165264 -0.000000 -1.000000 0.000000 148 99 53
-3.500000 -1.999998 2.552676 -0.000000 -1.000000 0.000000 148 99 53
-3.500000 -1.999998 2.299768 -0.000000 -1.000000 0.000000 148 99 53
3.499998 -2.000000 2.299768 -0.000000 -1.000000 0.000000 148 99 53
3.499998 -2.000000 2.552676 -0.000000 -1.000000 0.000000 148 99 53
3.440117 1.965780 2.223521 0.786445 -0.000000 -0.617660 148 99 53
3.500000 1.999998 2.299768 0.786445 -0.000000 -0.617660 148 99 53
3.499998 -2.000000 2.299768 0.786445 -0.000000 -0.617660 148 99 53
3.440115 -1.965781 2.223521 0.786445 -0.000000 -0.617660 148 97 46
-3.440113 1.965782 2.223521 0.000000 0.912334 -0.409448 148 99 53
-3.499996 2.000001 2.299768 0.000000 0.912334 -0.409448 148 99 53
3.500000 1.999998 2.299768 0.000000 0.912334 -0.409448 148 99 53
3.440117 1.965780 2.223521 0.000000 0.912334 -0.409448 148 99 53
-3.440117 -1.965779 2.223521 -0.786443 0.000001 -0.617663 148 99 53
-3.500000 -1.999998 2.299768 -0.786443 0.000001 -0.617663 148 99 53
-3.499996 2.000001 2.299768 -0.786443 0.000001 -0.617663 148 99 53
-3.440113 1.965782 2.223521 -0.786443 0.000001 -0.617663 148 99 53
-3.440116 -1.965780 0.019186 -1.000000 0.000001 0.000000 148 99 53
-3.440117 -1.965779 2.223521 -1.000000 0.000001 0.000000 148 99 53
-3.440113 1.965782 2.223521 -1.000000 0.000001 0.000000 148 99 53
-3.440115 1.965781 0.019186 -1.000000 0.000001 0.000000 148 99 53
-3.440113 1.965782 2.223521 0.000000 1.000000 -0.000000 148 99 53
3.440117 1.965780 2.223521 0.000000 1.000000 -0.000000 148 99 53
3.294237 1.965780 2.176783 0.000000 1.000000 -0.000000 148 99 53
-3.294233 1.965782 2.176783 0.000000 1.000000 -0.000000 148 99 53
3.440117 1.965780 0.019186 1.000000 -0.000001 -0.000000 148 99 53
3.440117 1.965780 2.223521 1.000000 -0.000001 -0.000000 148 99 53
3.440115 -1.965781 2.223521 1.000000 -0.000001 -0.000000 148 97 46
3.440114 -1.965782 0.019186 1.000000 -0.000001 -0.000000 148 99 53
-3.500000 -1.999998 2.299768 -0.000000 -0.912334 -0.409448 148 99 53
-3.440117 -1.965779 2.223521 -0.000000 -0.912334 -0.409448 148 99 53
3.440115 -1.965781 2.223521 -0.000000 -0.912334 -0.409448 148 99 53
3.499998 -2.000000 2.299768 -0.000000 -0.912334 -0.409448 148 99 53
3.258281 -1.965781 2.165264 -0.000000 -0.000000 -1.000000 148 99 53
-3.258283 -1.965779 2.165264 -0.000000 -0.000000 -1.000000 148 99 53
-3.258283 0.466125 2.165264 -0.000000 -0.000000 -1.000000 148 99 53
3.258282 0.466123 2.165264 -0.000000 -0.000000 -1.000000 148 99 53
3.440114 -1.965782 0.019186 0.000000 -1.000000 0.000000 148 99 53
3.258281 -1.965782 0.077443 0.000000 -1.000000 0.000000 148 99 53
-3.440116 -1.965780 0.019186 0.000000 -1.000000 0.000000 148 99 53
-3.258282 -1.965780 0.077443 0.000000 -1.000000 0.000000 148 99 53
-3.258283 0.466125 2.165264 -0.000000 -1.000000 0.000000 148 99 53
-3.258281 0.466124 0.077442 -0.000000 -1.000000 0.000000 148 99 53
3.258281 0.466122 0.077442 -0.000000 -1.000000 0.000000 148 99 53
3.258282 0.466123 2.165264 -0.000000 -1.000000 0.000000 148 99 53
3.258281 -1.965782 0.077443 -1.000000 0.000000 0.000000 148 99 53
3.258281 -1.965781 2.165264 -1.000000 0.000000 0.000000 148 99 53
3.258282 0.466123 2.165264 -1.000000 0.000000 0.000000 148 99 53
3.258281 0.466122 0.077442 -1.000000 0.000000 0.000000 148 99 53
-3.258283 -1.965779 2.165264 1.000000 -0.000000 0.000001 148 100 54
-3.258282 -1.965780 0.077443 1.000000 -0.000000 0.000001 148 99 53
-3.258281 0.466124 0.077442 1.000000 -0.000000 0.000001 148 99 53
-3.258283 0.466125 2.165264 1.000000 -0.000000 0.000001 148 99 53
-3.258282 -1.965780 0.077443 0.000000 0.000000 1.000000 148 99 53
3.258281 -1.965782 0.077443 0.000000 0.000000 1.000000 148 99 53
3.258281 0.466122 0.077442 0.000000 0.000000 1.000000 148 99 53
-3.258281 0.466124 0.077442 0.000000 0.000000 1.000000 148 99 53
-3.294233 1.965782 2.176783 -0.000000 -0.000000 -1.000000 148 99 53
3.294237 1.965780 2.176783 -0.000000 -0.000000 -1.000000 148 99 53
3.294237 0.626991 2.176784 -0.000000 -0.000000 -1.000000 148 99 53
-3.294234 0.626994 2.176784 -0.000000 -0.000000 -1.000000 148 99 53
3.440117 1.965780 0.019186 -0.000000 1.000000 0.000000 148 99 53
3.294237 1.965780 0.065924 -0.000000 1.000000 0.000000 148 99 53
-3.440115 1.965781 0.019186 -0.000000 1.000000 -0.000000 148 99 53
-3.294235 1.965781 0.065924 -0.000000 1.000000 -0.000000 148 99 53
-3.294236 0.626993 0.065924 0.000000 1.000000 -0.000000 148 99 53
-3.294234 0.626994 2.176784 0.000000 1.000000 -0.000000 148 99 53
3.294237 0.626991 2.176784 0.000000 1.000000 -0.000000 148 99 53
3.294236 0.626991 0.065924 0.000000 1.000000 -0.000000 148 99 53
3.294237 1.965780 2.176783 -1.000000 0.000000 0.000000 148 99 53
3.294237 1.965780 0.065924 -1.000000 0.000000 0.000000 148 99 53
3.294236 0.626991 0.065924 -1.000000 0.000000 0.000000 148 99 53
3.294237 0.626991 2.176784 -1.000000 0.000000 0.000000 148 99 53
-3.294235 1.965781 0.065924 1.000000 -0.000000 -0.000001 148 99 53
-3.294233 1.965782 2.176783 1.000000 -0.000000 -0.000001 148 99 53
-3.294234 0.626994 2.176784 1.000000 -0.000000 -0.000001 148 99 53
-3.294236 0.626993 0.065924 1.000000 -0.000000 -0.000001 148 99 53
3.294237 1.965780 0.065924 0.000000 0.000000 1.000000 148 99 53
-3.294235 1.965781 0.065924 0.000000 0.000000 1.000000 148 99 53
-3.294236 0.626993 0.065924 0.000000 0.000000 1.000000 148 99 53
3.294236 0.626991 0.065924 0.000000 0.000000 1.000000 148 99 53
-2.138619 -0.169936 2.765267 0.999194 -0.039336 0.008065 131 70 6
-2.158467 -0.663063 2.819047 0.999194 -0.039336 0.008065 144 67 2
-2.158467 -0.674804 2.761783 0.999194 -0.039336 0.008065 148 68 0
-2.138619 -0.181677 2.708002 0.999194 -0.039336 0.008065 130 70 6
-2.138619 -0.169936 2.765267 0.999193 0.039336 -0.008065 131 70 6
-2.138619 -0.181677 2.708002 0.999193 0.039336 -0.008065 130 70 6
-2.158467 0.311450 2.654221 0.999193 0.039336 -0.008065 148 68 0
-2.158467 0.323191 2.711486 0.999193 0.039336 -0.008065 144 69 2
-2.138619 -0.169936 2.765267 0.878709 0.093492 0.468113 131 70 6
-2.158467 0.323191 2.711486 0.878709 0.093492 0.468113 144 69 2
-2.173903 0.201866 2.757243 0.878709 0.093492 0.468113 144 68 1
-2.158467 -0.161130 2.808215 0.878709 0.093492 0.468113 130 70 6
-2.138619 -0.169936 2.765267 0.875392 0.010430 0.483302 131 70 6
-2.158467 -0.161130 2.808215 0.875392 0.010430 0.483302 130 70 6
-2.173903 -0.528692 2.836918 0.875392 0.010430 0.483302 148 68 0
-2.158467 -0.663063 2.819047 0.875392 0.010430 0.483302 144 67 2
-2.376787 0.487567 2.693559 0.000000 0.979622 -0.200850 148 68 0
-2.297398 0.487567 2.693559 0.000000 0.979622 -0.200850 148 68 0
-2.297398 0.475826 2.636294 0.000000 0.979622 -0.200850 148 68 0
-2.376787 0.475826 2.636294 0.000000 0.979622 -0.200850 148 68 0
-2.376787 0.487567 2.693559 -0.940384 0.333185 -0.068312 148 68 0
-2.376787 0.475826 2.636294 -0.940384 0.333185 -0.068312 148 68 0
-2.436328 0.311450 2.654221 -0.940384 0.333185 -0.068312 148 68 0
-2.436328 0.323191 2.711486 -0.940384 0.333185 -0.068312 130 70 6
-2.376787 0.487567 2.693559 -0.589799 0.261368 0.764084 148 68 0
-2.436328 0.323191 2.711486 -0.589799 0.261368 0.764084 130 70 6
-2.420892 0.201866 2.757243 -0.589799 0.261368 0.764084 148 68 0
-2.376787 0.331997 2.754434 -0.589799 0.261368 0.764084 130 70 6
-2.376787 0.487567 2.693559 0.000000 0.364401 0.931242 148 68 0
-2.376787 0.331997 2.754434 0.000000 0.364401 0.931242 130 70 6
-2.297398 0.331997 2.754434 0.000000 0.364401 0.931242 147 68 0
-2.297398 0.487567 2.693559 0.000000 0.364401 0.931242 130 70 6
-2.456176 -0.169936 2.765267 -0.999194 0.039336 -0.008065 130 70 6
-2.436328 0.323191 2.711486 -0.999194 0.039336 -0.008065 130 70 6
-2.436328 0.311450 2.654221 -0.999194 0.039336 -0.008065 148 68 0
-2.456176 -0.181677 2.708002 -0.999194 0.039336 -0.008065 131 70 6
-2.456176 -0.169936 2.765267 -0.999193 -0.039336 0.008065 130 70 6
-2.456176 -0.181677 2.708002 -0.999193 -0.039336 0.008065 131 70 6
-2.436328 -0.674804 2.761783 -0.999193 -0.039336 0.008065 147 68 0
-2.436328 -0.663063 2.819047 -0.999193 -0.039336 0.008065 147 68 0
-2.456176 -0.169936 2.765267 -0.875390 0.010430 0.483304 130 70 6
-2.436328 -0.663063 2.819047 -0.875390 0.010430 0.483304 147 68 0
-2.420892 -0.528692 2.836918 -0.875390 0.010430 0.483304 148 68 0
-2.436328 -0.161130 2.808215 -0.875390 0.010430 0.483304 130 70 6
-2.456176 -0.169936 2.765267 -0.878708 0.093493 0.468115 130 70 6
-2.436328 -0.161130 2.808215 -0.878708 0.093493 0.468115 130 70 6
-2.420892 0.201866 2.757243 -0.878708 0.093493 0.468115 148 68 0
-2.436328 0.323191 2.711486 -0.878708 0.093493 0.468115 130 70 6
-2.376849 -0.775125 2.714133 0.000000 0.969755 -0.244081 46 36 40
-2.297398 -0.775125 2.714133 0.000000 0.969755 -0.244081 46 36 40
-2.297398 -0.785338 2.673558 0.000000 0.969755 -0.244081 46 36 40
-2.482417 -0.785338 2.673558 0.000000 0.969755 -0.244081 46 36 40
-2.217946 -0.751625 2.828753 0.830572 -0.545563 0.111856 46 36 40
-2.217946 -0.763375 2.771443 0.830572 -0.545563 0.111856 46 36 40
-2.158467 -0.674804 2.761783 0.830572 -0.545563 0.111856 148 68 0
-2.158467 -0.663063 2.819047 0.830572 -0.545563 0.111856 144 67 2
-2.217946 -0.751625 2.828753 0.565281 -0.141443 0.812681 46 36 40
-2.158467 -0.663063 2.819047 0.565281 -0.141443 0.812681 144 67 2
-2.173903 -0.528692 2.836918 0.565281 -0.141443 0.812681 148 68 0
-2.218009 -0.654257 2.861996 0.565281 -0.141443 0.812681 46 36 40
-2.217946 -0.751625 2.828753 0.000000 -0.323108 0.946362 130 70 6
-2.218009 -0.654257 2.861996 0.000000 -0.323108 0.946362 144 69 1
-2.297398 -0.654257 2.861996 0.000000 -0.323108 0.946362 144 69 2
-2.297398 -0.751625 2.828753 0.000000 -0.323108 0.946362 130 70 6
-2.376787 -0.158195 2.822531 0.000000 0.079305 0.996850 130 70 6
-2.376787 -0.654257 2.861996 0.000000 0.079305 0.996850 137 68 4
-2.297398 -0.654257 2.861996 0.000000 0.079305 0.996850 127 62 8
-2.297398 -0.158195 2.822531 0.000000 0.079305 0.996850 130 70 6
-2.376787 -0.158195 2.822531 0.000000 0.137598 0.990488 130 70 6
-2.297398 -0.158195 2.822531 0.000000 0.137598 0.990488 130 70 6
-2.297398 0.331997 2.754434 0.000000 0.137598 0.990488 147 68 0
-2.376787 0.331997 2.754434 0.000000 0.137598 0.990488 130 70 6
-2.376787 -0.158195 2.822531 -0.282086 0.137610 0.949469 130 70 6
-2.376787 0.331997 2.754434 -0.282086 0.137610 0.949469 130 70 6
-2.420892 0.201866 2.757243 -0.282086 0.137610 0.949469 130 70 6
-2.436328 -0.161130 2.808215 -0.282086 0.137610 0.949469 130 70 6
-2.376787 -0.158195 2.822531 -0.280377 0.070550 0.957294 130 70 6
-2.436328 -0.161130 2.808215 -0.280377 0.070550 0.957294 130 70 6
-2.420892 -0.528692 2.836918 -0.280377 0.070550 0.957294 148 68 0
-2.376787 -0.654257 2.861996 -0.280377 0.070550 0.957294 121 59 11
-2.218009 -0.205158 2.593473 0.000000 -0.137598 -0.990488 148 68 0
-2.218009 -0.695350 2.661570 0.000000 -0.137598 -0.990488 140 66 3
-2.297398 -0.695350 2.661570 0.000000 -0.137598 -0.990488 146 67 1
-2.297398 -0.205158 2.593473 0.000000 -0.137598 -0.990488 148 68 0
-2.218009 -0.205158 2.593473 -0.000000 -0.079305 -0.996850 148 68 0
-2.297398 -0.205158 2.593473 -0.000000 -0.079305 -0.996850 148 68 0
-2.297398 0.290904 2.554008 -0.000000 -0.079305 -0.996850 148 68 0
-2.218009 0.290904 2.554008 -0.000000 -0.079305 -0.996850 148 68 0
-2.218009 -0.205158 2.593473 0.280378 -0.070549 -0.957294 148 68 0
-2.218009 0.290904 2.554008 0.280378 -0.070549 -0.957294 148 68 0
-2.173903 0.165339 2.579086 0.280378 -0.070549 -0.957294 131 70 6
-2.158467 -0.202223 2.607789 0.280378 -0.070549 -0.957294 148 68 0
-2.218009 -0.205158 2.593473 0.282087 -0.137610 -0.949468 148 68 0
-2.158467 -0.202223 2.607789 0.282087 -0.137610 -0.949468 148 68 0
-2.173903 -0.565220 2.658762 0.282087 -0.137610 -0.949468 148 68 0
-2.218009 -0.695350 2.661570 0.282087 -0.137610 -0.949468 140 66 3
-2.376787 -0.205158 2.593473 -0.282089 -0.137610 -0.949468 148 68 0
-2.376787 -0.695350 2.661570 -0.282089 -0.137610 -0.949468 147 68 0
-2.420892 -0.565220 2.658762 -0.282089 -0.137610 -0.949468 147 68 0
-2.436328 -0.202223 2.607789 -0.282089 -0.137610 -0.949468 148 68 0
-2.376787 -0.205158 2.593473 -0.280379 -0.070549 -0.957293 148 68 0
-2.436328 -0.202223 2.607789 -0.280379 -0.070549 -0.957293 148 68 0
-2.420892 0.165339 2.579086 -0.280379 -0.070549 -0.957293 148 68 0
-2.376787 0.290904 2.554008 -0.280379 -0.070549 -0.957293 148 68 0
-2.376787 -0.205158 2.593473 0.000000 -0.079305 -0.996850 148 68 0
-2.376787 0.290904 2.554008 0.000000 -0.079305 -0.996850 148 68 0
-2.376787 -0.205158 2.593473 0.000000 -0.137598 -0.990488 148 68 0
-2.376787 -0.695350 2.661570 0.000000 -0.137598 -0.990488 148 68 0
-2.218009 -0.158195 2.822531 0.280376 0.070550 0.957294 130 70 6
-2.218009 -0.654257 2.861996 0.280376 0.070550 0.957294 132 63 7
-2.173903 -0.528692 2.836918 0.280376 0.070550 0.957294 148 68 0
-2.158467 -0.161130 2.808215 0.280376 0.070550 0.957294 130 70 6
-2.218009 -0.158195 2.822531 0.282085 0.137610 0.949469 130 70 6
-2.158467 -0.161130 2.808215 0.282085 0.137610 0.949469 130 70 6
-2.173903 0.201866 2.757243 0.282085 0.137610 0.949469 130 70 6
-2.218009 0.331997 2.754434 0.282085 0.137610 0.949469 130 70 6
-2.218009 -0.158195 2.822531 0.000000 0.137598 0.990488 130 70 6
-2.218009 0.331997 2.754434 0.000000 0.137598 0.990488 148 68 0
-2.218009 -0.158195 2.822531 0.000000 0.079305 0.996850 130 70 6
-2.218009 -0.654257 2.861996 0.000000 0.079305 0.996850 132 63 7
-2.376849 -0.751625 2.828753 -0.830572 -0.545562 0.111856 70 46 30
-2.436328 -0.663063 2.819047 -0.830572 -0.545562 0.111856 148 68 0
-2.436328 -0.674804 2.761783 -0.830572 -0.545562 0.111856 147 68 0
-2.376849 -0.763375 2.771443 -0.830572 -0.545562 0.111856 47 37 39
-2.376849 -0.763375 2.771443 -0.017567 0.979471 -0.200819 47 37 39
-2.376849 -0.775125 2.714133 -0.017567 0.979471 -0.200819 46 36 40
-2.482417 -0.785338 2.673558 -0.017567 0.979471 -0.200819 46 36 40
-2.482417 -0.765227 2.771645 -0.017567 0.979471 -0.200819 46 36 40
-2.376849 -0.751625 2.828753 0.000000 -0.323108 0.946362 130 70 6
-2.376787 -0.654257 2.861996 0.000000 -0.323108 0.946362 139 69 3
-2.376849 -0.751625 2.828753 -0.565283 -0.141444 0.812680 108 62 14
-2.376787 -0.654257 2.861996 -0.565283 -0.141444 0.812680 121 59 11
-2.420892 -0.528692 2.836918 -0.565283 -0.141444 0.812680 148 68 0
-2.436328 -0.663063 2.819047 -0.565283 -0.141444 0.812680 147 68 0
-2.218009 0.487567 2.693559 0.940383 0.333186 -0.068312 148 68 0
-2.158467 0.323191 2.711486 0.940383 0.333186 -0.068312 144 69 2
-2.158467 0.311450 2.654221 0.940383 0.333186 -0.068312 148 68 0
-2.218009 0.475826 2.636294 0.940383 0.333186 -0.068312 139 70 6
-2.218009 0.487567 2.693559 0.000000 0.979622 -0.200850 148 68 0
-2.218009 0.475826 2.636294 0.000000 0.979622 -0.200850 148 68 0
-2.218009 0.487567 2.693559 0.000000 0.364401 0.931242 130 70 6
-2.218009 0.331997 2.754434 0.000000 0.364401 0.931242 148 68 0
-2.218009 0.487567 2.693559 0.589797 0.261368 0.764085 148 68 0
-2.218009 0.331997 2.754434 0.589797 0.261368 0.764085 142 69 2
-2.173903 0.201866 2.757243 0.589797 0.261368 0.764085 144 68 1
-2.158467 0.323191 2.711486 0.589797 0.261368 0.764085 144 69 2
-2.218009 0.464085 2.579030 0.574640 0.084682 -0.814014 148 68 0
-2.158467 0.299710 2.596957 0.574640 0.084682 -0.814014 148 68 0
-2.173903 0.165339 2.579086 0.574640 0.084682 -0.814014 131 70 6
-2.218009 0.290904 2.554008 0.574640 0.084682 -0.814014 148 68 0
-2.218009 0.464085 2.579030 0.000000 0.142997 -0.989723 148 68 0
-2.218009 0.290904 2.554008 0.000000 0.142997 -0.989723 148 68 0
-2.297398 0.290904 2.554008 0.000000 0.142997 -0.989723 148 68 0
-2.297398 0.464085 2.579030 0.000000 0.142997 -0.989723 148 68 0
-2.218009 0.464085 2.579030 0.000000 0.979622 -0.200850 148 68 0
-2.297398 0.464085 2.579030 0.000000 0.979622 -0.200850 148 68 0
-2.218009 0.464085 2.579030 0.940383 0.333186 -0.068313 148 68 0
-2.218009 0.475826 2.636294 0.940383 0.333186 -0.068313 139 70 6
-2.158467 0.311450 2.654221 0.940383 0.333186 -0.068313 148 68 0
-2.158467 0.299710 2.596957 0.940383 0.333186 -0.068313 148 68 0
-2.376849 -0.775125 2.714133 -0.584981 -0.319398 -0.745508 46 36 40
-2.436328 -0.686545 2.704518 -0.584981 -0.319398 -0.745508 148 68 0
-2.420892 -0.565220 2.658762 -0.584981 -0.319398 -0.745508 147 68 0
-2.376787 -0.695350 2.661570 -0.584981 -0.319398 -0.745508 147 68 0
-2.376849 -0.775125 2.714133 0.000000 -0.550194 -0.835037 130 70 6
-2.376787 -0.695350 2.661570 0.000000 -0.550194 -0.835037 148 68 0
-2.297398 -0.695350 2.661570 0.000000 -0.550194 -0.835037 147 68 0
-2.297398 -0.775125 2.714133 0.000000 -0.550194 -0.835037 130 70 6
-2.217946 -0.775125 2.714133 0.017568 0.979471 -0.200819 46 36 40
-2.217946 -0.763375 2.771443 0.017568 0.979471 -0.200819 46 36 40
-2.112378 -0.765227 2.771645 0.017568 0.979471 -0.200819 49 37 39
-2.112378 -0.785338 2.673558 0.017568 0.979471 -0.200819 48 37 39
-2.376849 -0.775125 2.714133 -0.830572 -0.545563 0.111856 46 36 40
-2.376849 -0.763375 2.771443 -0.830572 -0.545563 0.111856 47 37 39
-2.436328 -0.674804 2.761783 -0.830572 -0.545563 0.111856 147 68 0
-2.436328 -0.686545 2.704518 -0.830572 -0.545563 0.111856 148 68 0
-2.217946 -0.775125 2.714133 0.000000 -0.550194 -0.835037 130 70 6
-2.218009 -0.695350 2.661570 0.000000 -0.550194 -0.835037 146 68 1
-2.217946 -0.775125 2.714133 0.584979 -0.319398 -0.745509 46 36 40
-2.218009 -0.695350 2.661570 0.584979 -0.319398 -0.745509 146 68 1
-2.173903 -0.565220 2.658762 0.584979 -0.319398 -0.745509 148 68 0
-2.158467 -0.686545 2.704518 0.584979 -0.319398 -0.745509 112 56 15
-2.217946 -0.775125 2.714133 0.830572 -0.545563 0.111856 46 36 40
-2.158467 -0.686545 2.704518 0.830572 -0.545563 0.111856 112 56 15
-2.297398 -0.775125 2.714133 0.000000 0.969755 -0.244082 46 36 40
-2.217946 -0.775125 2.714133 0.000000 0.969755 -0.244082 46 36 40
-2.112378 -0.785338 2.673558 0.000000 0.969755 -0.244082 48 37 39
-2.297398 -0.785338 2.673558 0.000000 0.969755 -0.244082 46 36 40
-2.456176 -0.193418 2.650737 -0.875390 -0.010430 -0.483305 148 68 0
-2.436328 0.299710 2.596957 -0.875390 -0.010430 -0.483305 148 68 0
-2.420892 0.165339 2.579086 -0.875390 -0.010430 -0.483305 148 68 0
-2.436328 -0.202223 2.607789 -0.875390 -0.010430 -0.483305 148 68 0
-2.456176 -0.193418 2.650737 -0.878707 -0.093493 -0.468116 148 68 0
-2.436328 -0.202223 2.607789 -0.878707 -0.093493 -0.468116 148 68 0
-2.420892 -0.565220 2.658762 -0.878707 -0.093493 -0.468116 147 68 0
-2.436328 -0.686545 2.704518 -0.878707 -0.093493 -0.468116 148 68 0
-2.456176 -0.193418 2.650737 -0.999193 -0.039336 0.008065 148 68 0
-2.436328 -0.686545 2.704518 -0.999193 -0.039336 0.008065 148 68 0
-2.456176 -0.193418 2.650737 -0.999193 0.039336 -0.008065 148 68 0
-2.456176 -0.181677 2.708002 -0.999193 0.039336 -0.008065 131 70 6
-2.436328 0.311450 2.654221 -0.999193 0.039336 -0.008065 148 68 0
-2.436328 0.299710 2.596957 -0.999193 0.039336 -0.008065 148 68 0
-2.376787 0.464085 2.579030 0.000000 0.142997 -0.989723 148 68 0
-2.376787 0.290904 2.554008 0.000000 0.142997 -0.989723 148 68 0
-2.376787 0.464085 2.579030 -0.574641 0.084682 -0.814013 148 68 0
-2.376787 0.290904 2.554008 -0.574641 0.084682 -0.814013 148 68 0
-2.420892 0.165339 2.579086 -0.574641 0.084682 -0.814013 148 68 0
-2.436328 0.299710 2.596957 -0.574641 0.084682 -0.814013 148 68 0
-2.376787 0.464085 2.579030 -0.940384 0.333185 -0.068312 148 68 0
-2.436328 0.299710 2.596957 -0.940384 0.333185 -0.068312 148 68 0
-2.376787 0.464085 2.579030 0.000000 0.979622 -0.200850 148 68 0
-2.138619 -0.193418 2.650737 0.878708 -0.093492 -0.468114 130 70 6
-2.158467 -0.686545 2.704518 0.878708 -0.093492 -0.468114 112 56 15
-2.173903 -0.565220 2.658762 0.878708 -0.093492 -0.468114 148 68 0
-2.158467 -0.202223 2.607789 0.878708 -0.093492 -0.468114 148 68 0
-2.138619 -0.193418 2.650737 0.875392 -0.010430 -0.483302 130 70 6
-2.158467 -0.202223 2.607789 0.875392 -0.010430 -0.483302 148 68 0
-2.173903 0.165339 2.579086 0.875392 -0.010430 -0.483302 131 70 6
-2.158467 0.299710 2.596957 0.875392 -0.010430 -0.483302 148 68 0
-2.138619 -0.193418 2.650737 0.999193 0.039336 -0.008065 130 70 6
-2.158467 0.299710 2.596957 0.999193 0.039336 -0.008065 148 68 0
-2.138619 -0.193418 2.650737 0.999193 -0.039336 0.008065 130 70 6
-2.138619 -0.181677 2.708002 0.999193 -0.039336 0.008065 130 70 6
-2.158467 -0.674804 2.761783 0.999193 -0.039336 0.008065 148 68 0
-2.158467 -0.686545 2.704518 0.999193 -0.039336 0.008065 112 56 15
-2.482417 -0.785338 2.673558 0.000000 0.969886 0.243561 46 36 40
-2.297398 -0.785338 2.673558 0.000000 0.969886 0.243561 46 36 40
-2.297398 -0.756776 2.559821 0.000000 0.969886 0.243561 46 36 40
-2.908528 -0.756776 2.559821 0.000000 0.969886 0.243561 46 36 40
-2.482417 -0.765227 2.771645 0.118434 0.972727 -0.199437 46 36 40
-2.482417 -0.785338 2.673558 0.118434 0.972727 -0.199437 46 36 40
-2.908528 -0.756776 2.559821 0.118434 0.972727 -0.199437 46 36 40
-2.908528 -0.714481 2.766110 0.118434 0.972727 -0.199437 46 36 40
-2.112378 -0.785338 2.673558 -0.118434 0.972727 -0.199437 48 37 39
-2.112378 -0.765227 2.771645 -0.118434 0.972727 -0.199437 49 37 39
-1.686268 -0.714481 2.766110 -0.118434 0.972727 -0.199437 46 36 40
-1.686268 -0.756776 2.559821 -0.118434 0.972727 -0.199437 46 36 40
-2.112378 -0.785338 2.673558 0.000000 0.969886 0.243561 48 37 39
-1.686268 -0.756776 2.559821 0.000000 0.969886 0.243561 46 36 40
-2.297398 -0.751625 2.828753 0.000000 0.987621 -0.156859 46 36 40
-2.376849 -0.751625 2.828753 0.000000 0.987621 -0.156859 49 37 39
-2.482417 -0.745117 2.869731 0.000000 0.987621 -0.156859 46 36 40
-2.297398 -0.745117 2.869731 0.000000 0.987621 -0.156859 46 36 40
-2.376849 -0.751625 2.828753 -0.017567 0.979471 -0.200820 49 38 38
-2.376849 -0.763375 2.771443 -0.017567 0.979471 -0.200820 47 37 39
-2.482417 -0.765227 2.771645 -0.017567 0.979471 -0.200820 46 36 40
-2.482417 -0.745117 2.869731 -0.017567 0.979471 -0.200820 46 36 40
-2.217946 -0.751625 2.828753 0.000000 0.987621 -0.156858 46 36 40
-2.297398 -0.751625 2.828753 0.000000 0.987621 -0.156858 147 68 0
-2.297398 -0.745117 2.869731 0.000000 0.987621 -0.156858 46 36 40
-2.112378 -0.745117 2.869731 0.000000 0.987621 -0.156858 49 37 39
-2.217946 -0.763375 2.771443 0.017568 0.979471 -0.200820 46 36 40
-2.217946 -0.751625 2.828753 0.017568 0.979471 -0.200820 46 36 40
-2.112378 -0.745117 2.869731 0.017568 0.979471 -0.200820 49 37 39
-2.112378 -0.765227 2.771645 0.017568 0.979471 -0.200820 49 37 39
-2.908528 -0.756776 2.559821 -0.000000 -0.108418 -0.994105 46 36 40
-2.297398 -0.756776 2.559821 -0.000000 -0.108418 -0.994105 47 36 40
-2.297398 -1.185772 2.606608 -0.000000 -0.108418 -0.994105 46 36 40
-2.908528 -1.185772 2.606608 -0.000000 -0.108418 -0.994105 46 36 40
-2.908528 -0.756776 2.559821 -0.945225 -0.035389 -0.324497 47 37 41
-2.908528 -1.185772 2.606608 -0.945225 -0.035389 -0.324497 46 36 40
-2.940735 -1.071540 2.687967 -0.945225 -0.035389 -0.324497 46 36 40
-2.940735 -0.833379 2.661993 -0.945225 -0.035389 -0.324497 46 36 40
-1.686268 -0.756776 2.559821 1.000000 -0.000000 -0.000000 46 36 40
-1.686268 -0.714481 2.766110 1.000000 -0.000000 -0.000000 46 36 40
-1.686268 -1.143477 2.812897 1.000000 -0.000000 -0.000000 46 36 40
-1.686268 -1.185772 2.606608 1.000000 -0.000000 -0.000000 46 36 40
-1.686268 -0.756776 2.559821 -0.000000 -0.108418 -0.994105 46 36 40
-1.686268 -1.185772 2.606608 -0.000000 -0.108418 -0.994105 46 36 40
-2.297398 -0.745117 2.869731 0.000000 0.815244 -0.579117 46 36 40
-2.482417 -0.745117 2.869731 0.000000 0.815244 -0.579117 46 36 40
-2.908528 -0.672186 2.972399 0.000000 0.815244 -0.579117 46 36 40
-2.297398 -0.672186 2.972399 0.000000 0.815244 -0.579117 46 36 40
-2.482417 -0.745117 2.869731 0.118434 0.972727 -0.199437 46 36 40
-2.908528 -0.672186 2.972399 0.118434 0.972727 -0.199437 46 36 40
-2.112378 -0.745117 2.869731 0.000000 0.815244 -0.579117 49 37 39
-1.686268 -0.672186 2.972399 0.000000 0.815244 -0.579117 46 36 40
-2.112378 -0.745117 2.869731 -0.118434 0.972727 -0.199437 49 37 39
-1.686268 -0.672186 2.972399 -0.118434 0.972727 -0.199437 46 36 40
-2.908528 -1.185772 2.606608 -0.000000 -0.990913 -0.134507 46 36 40
-2.297398 -1.185772 2.606608 -0.000000 -0.990913 -0.134507 46 36 40
-2.297398 -1.192651 2.657284 -0.000000 -0.990913 -0.134507 46 36 40
-2.763857 -1.192651 2.657284 -0.000000 -0.990913 -0.134507 46 36 40
-2.908528 -1.143477 2.812897 -0.116143 -0.972992 0.199491 46 36 40
-2.908528 -1.185772 2.606608 -0.116143 -0.972992 0.199491 46 36 40
-2.763857 -1.192651 2.657284 -0.116143 -0.972992 0.199491 46 36 40
-2.763857 -1.160368 2.814739 -0.116143 -0.972992 0.199491 51 38 38
-1.686268 -1.185772 2.606608 0.116143 -0.972992 0.199491 48 37 39
-1.686268 -1.143477 2.812897 0.116143 -0.972992 0.199491 46 36 40
-1.830939 -1.160368 2.814739 0.116143 -0.972992 0.199491 46 36 40
-1.830939 -1.192651 2.657284 0.116143 -0.972992 0.199491 46 36 40
-2.297398 -1.185772 2.606608 -0.000000 -0.990912 -0.134508 46 36 40
-1.686268 -1.185772 2.606608 -0.000000 -0.990912 -0.134508 48 37 39
-1.830939 -1.192651 2.657284 -0.000000 -0.990912 -0.134508 46 36 40
-2.297398 -1.192651 2.657284 -0.000000 -0.990912 -0.134508 46 36 40
-2.297398 -0.672186 2.972399 0.000000 0.108419 0.994105 46 36 40
-2.908528 -0.672186 2.972399 0.000000 0.108419 0.994105 46 36 40
-2.908528 -1.101182 3.019186 0.000000 0.108419 0.994105 46 36 40
-2.297398 -1.101182 3.019186 0.000000 0.108419 0.994105 46 36 40
-2.908528 -1.101182 3.019186 -0.945225 0.035391 0.324495 46 36 40
-2.908528 -0.672186 2.972399 -0.945225 0.035391 0.324495 46 36 40
-2.940735 -0.786418 2.891040 -0.945225 0.035391 0.324495 46 36 40
-2.940735 -1.024579 2.917014 -0.945225 0.035391 0.324495 46 36 40
-1.686268 -0.672186 2.972399 0.000000 0.108419 0.994105 46 36 40
-1.686268 -1.101182 3.019186 0.000000 0.108419 0.994105 46 36 40
-1.686268 -0.672186 2.972399 1.000000 -0.000000 0.000000 48 37 39
-1.686268 -1.101182 3.019186 1.000000 -0.000000 0.000000 46 36 40
-1.830939 -1.128085 2.972194 -0.000000 -0.979622 0.200851 46 36 40
-2.297398 -1.128085 2.972194 -0.000000 -0.979622 0.200851 46 36 40
-2.297398 -1.160368 2.814739 -0.000000 -0.979622 0.200851 46 36 40
-1.830939 -1.160368 2.814739 -0.000000 -0.979622 0.200851 46 36 40
-2.763857 -1.128085 2.972194 -0.000000 -0.979622 0.200851 46 36 40
-2.763857 -1.160368 2.814739 -0.000000 -0.979622 0.200851 51 38 38
-2.763857 -1.192651 2.657284 -0.000000 -0.979622 0.200850 46 36 40
-2.297398 -1.192651 2.657284 -0.000000 -0.979622 0.200850 46 36 40
-2.297398 -1.160368 2.814739 -0.000000 -0.979622 0.200850 46 36 40
-2.763857 -1.160368 2.814739 -0.000000 -0.979622 0.200850 51 38 38
-1.830939 -1.192651 2.657284 -0.000000 -0.979622 0.200850 46 36 40
-1.830939 -1.160368 2.814739 -0.000000 -0.979622 0.200850 46 36 40
-2.297398 -1.101182 3.019186 -0.000000 -0.867837 0.496849 46 36 40
-2.908528 -1.101182 3.019186 -0.000000 -0.867837 0.496849 46 36 40
-2.763857 -1.128085 2.972194 -0.000000 -0.867837 0.496849 46 36 40
-2.297398 -1.128085 2.972194 -0.000000 -0.867837 0.496849 46 36 40
-2.908528 -1.101182 3.019186 -0.116143 -0.972992 0.199492 46 36 40
-2.908528 -1.143477 2.812897 -0.116143 -0.972992 0.199492 46 36 40
-2.763857 -1.160368 2.814739 -0.116143 -0.972992 0.199492 51 38 38
-2.763857 -1.128085 2.972194 -0.116143 -0.972992 0.199492 46 36 40
-1.686268 -1.101182 3.019186 -0.000000 -0.867837 0.496849 46 36 40
-1.830939 -1.128085 2.972194 -0.000000 -0.867837 0.496849 46 36 40
-1.686268 -1.143477 2.812897 0.116143 -0.972992 0.199492 46 36 40
-1.686268 -1.101182 3.019186 0.116143 -0.972992 0.199492 46 36 40
-1.830939 -1.128085 2.972194 0.116143 -0.972992 0.199492 46 36 40
-1.830939 -1.160368 2.814739 0.116143 -0.972992 0.199492 46 36 40
-2.940735 -0.809898 2.776516 -1.000000 0.000000 0.000000 46 36 40
-2.940735 -0.833379 2.661993 -1.000000 0.000000 0.000000 46 36 40
-2.940735 -1.071540 2.687967 -1.000000 0.000000 0.000000 46 36 40
-2.940735 -1.048059 2.802490 -1.000000 0.000000 0.000000 46 36 40
-2.940735 -0.786418 2.891040 -1.000000 0.000001 0.000001 46 36 40
-2.940735 -0.809898 2.776516 -1.000000 0.000001 0.000001 46 36 40
-2.940735 -1.048059 2.802490 -1.000000 0.000001 0.000001 46 36 40
-2.940735 -1.024579 2.917014 -1.000000 0.000001 0.000001 46 36 40
-2.908528 -1.185772 2.606608 -0.947627 -0.312869 0.064147 46 36 40
-2.908528 -1.143477 2.812897 -0.947627 -0.312869 0.064147 46 36 40
-2.940735 -1.048059 2.802490 -0.947627 -0.312869 0.064147 46 36 40
-2.940735 -1.071540 2.687967 -0.947627 -0.312869 0.064147 46 36 40
-2.908528 -1.101182 3.019186 -0.947627 -0.312869 0.064147 46 36 40
-2.940735 -1.024579 2.917014 -0.947627 -0.312869 0.064147 46 36 40
-2.908528 -0.714481 2.766110 -0.947627 0.312871 -0.064148 46 36 40
-2.908528 -0.756776 2.559821 -0.947627 0.312871 -0.064148 47 37 41
-2.940735 -0.833379 2.661993 -0.947627 0.312871 -0.064148 46 36 40
-2.940735 -0.809898 2.776516 -0.947627 0.312871 -0.064148 46 36 40
-2.908528 -0.672186 2.972399 -0.947627 0.312870 -0.064147 46 36 40
-2.908528 -0.714481 2.766110 -0.947627 0.312870 -0.064147 46 36 40
-2.940735 -0.809898 2.776516 -0.947627 0.312870 -0.064147 46 36 40
-2.940735 -0.786418 2.891040 -0.947627 0.312870 -0.064147 46 36 40
4 0 1 2 3
4 4 5 6 7
4 8 9 10 11
4 12 13 14 15
4 16 17 18 19
4 20 21 22 23
4 24 25 26 27
4 28 29 30 31
4 32 33 34 35
4 36 37 38 39
4 40 41 42 43
4 44 45 46 47
4 48 49 50 51
4 52 53 54 55
4 56 57 58 59
4 60 20 23 61
4 21 62 63 22
4 62 60 61 63
4 64 65 66 67
4 68 69 70 71
4 72 73 74 75
4 76 77 78 79
4 80 81 82 83
4 45 84 85 46
4 86 44 47 87
4 84 86 87 85
4 88 89 90 91
4 92 93 94 95
4 96 97 98 99
4 100 101 102 103
4 104 105 106 107
4 108 109 110 111
4 112 113 114 115
4 116 117 118 119
4 120 121 122 123
4 124 125 126 127
4 128 129 130 131
4 132 133 134 135
4 136 137 138 139
4 140 141 142 143
4 144 145 146 147
4 148 149 150 151
4 152 153 154 155
4 156 157 158 159
4 160 161 162 163
4 164 165 166 167
4 168 169 170 171
4 172 173 174 175
4 176 177 178 179
4 180 181 182 183
4 184 185 186 187
4 188 189 190 191
4 192 193 194 195
4 196 197 198 199
4 200 201 202 203
4 204 205 206 207
4 208 209 190 189
4 210 187 186 211
4 212 213 214 215
4 216 217 218 219
4 220 221 174 173
4 222 171 170 223
4 224 225 226 227
4 228 229 230 231
4 232 167 166 233
4 234 235 236 237
4 238 239 240 241
4 242 243 122 121
4 244 135 134 245
4 246 247 248 249
4 250 251 252 253
4 254 255 256 257
4 258 259 122 243
4 260 261 262 263
4 264 265 266 267
4 268 269 270 271
4 272 273 274 275
4 276 277 278 279
4 280 271 270 281
4 282 283 284 285
4 286 287 158 157
4 288 289 290 291
4 292 293 294 295
4 296 297 298 299
4 300 301 142 141
4 302 303 304 305
4 306 257 256 307
4 308 309 310 311
4 312 313 126 125
4 314 123 122 259
4 315 316 317 318
4 319 320 321 322
4 323 324 110 109
4 325 326 327 328
4 329 330 331 332
4 333 334 335 336
4 337 338 339 340
4 330 341 342 331
4 343 344 345 346
4 347 348 349 350
4 351 352 353 354
4 355 356 357 358
4 359 360 361 362
4 363 364 365 366
4 367 368 369 370
4 360 371 372 361
4 373 374 375 376
4 377 333 336 378
4 379 373 376 380
4 338 381 382 339
4 383 384 385 386
4 387 388 389 390
4 391 392 393 394
4 395 396 397 398
4 399 400 401 402
4 403 404 405 406
4 407 399 402 408
4 368 409 410 369
4 411 412 413 414
4 415 416 413 412
4 417 418 419 420
4 421 422 419 418
4 423 424 425 426
4 427 428 429 430
4 431 423 426 432
4 433 434 435 436
4 437 438 439 440
4 441 442 443 444
4 445 446 447 448
4 446 449 450 447
4 451 452 453 454
4 455 456 457 458
