ply
format ascii 1.0
comment Created by Blender 2.71 (sub 0) - www.blender.org, source file: 'castingTable.blend'
element vertex 4
property float x
property float y
property float z
property float nx
property float ny
property float nz
element face 1
property list uchar uint vertex_indices
end_header
-0.494490 -1.510256 1.000000 0.000000 0.000000 1.000000
0.494490 -1.510256 1.000000 0.000000 0.000000 1.000000
0.494490 1.510256 1.000000 0.000000 0.000000 1.000000
-0.494490 1.510256 1.000000 0.000000 0.000000 1.000000
4 0 1 2 3
