ply
format ascii 1.0
comment Created by MeshLoader.WriteTo(../../res/meshes/collection/Diamond2.ply)'
element vertex 120
property float x
property float y
property float z
property float nx
property float ny
property float nz
property uchar red
property uchar green
property uchar blue
element face 60
property list uchar uint vertex_indices
end_header
0 0 0 0.341857 0.449431 0.825316 255 255 255
0 -0.053518 0.029144 0.341857 0.449431 0.825316 255 255 255
0.020608 -0.053518 0.020608 0.341857 0.449431 0.825316 255 255 255
0 0 0 0.341857 0.449431 0.825316 255 255 255
0 0 0 0.825315 0.449433 0.341857 255 255 255
0.020608 -0.053518 0.020608 0.825315 0.449433 0.341857 255 255 255
0.029144 -0.053518 0 0.825315 0.449433 0.341857 255 255 255
0 0 0 0.825315 0.449433 0.341857 255 255 255
0 0 0 0.825314 0.449436 -0.341856 255 255 255
0.029144 -0.053518 0 0.825314 0.449436 -0.341856 255 255 255
0.020608 -0.053518 -0.020608 0.825314 0.449436 -0.341856 255 255 255
0 0 0 0.825314 0.449436 -0.341856 255 255 255
0 0 0 0.341855 0.449437 -0.825313 255 255 255
0.020608 -0.053518 -0.020608 0.341855 0.449437 -0.825313 255 255 255
0 -0.053518 -0.029144 0.341855 0.449437 -0.825313 255 255 255
0 0 0 0.341855 0.449437 -0.825313 255 255 255
0 0 0 -0.341856 0.449437 -0.825312 255 255 255
0 -0.053518 -0.029144 -0.341856 0.449437 -0.825312 255 255 255
-0.020608 -0.053518 -0.020608 -0.341856 0.449437 -0.825312 255 255 255
0 0 0 -0.341856 0.449437 -0.825312 255 255 255
0 0 0 -0.825314 0.449435 -0.341856 255 255 255
-0.020608 -0.053518 -0.020608 -0.825314 0.449435 -0.341856 255 255 255
-0.029144 -0.053518 0 -0.825314 0.449435 -0.341856 255 255 255
0 0 0 -0.825314 0.449435 -0.341856 255 255 255
0 -0.053518 0.029144 -0.382684 -3E-06 0.923879 255 255 255
-0.020608 -0.053518 0.020608 -0.382684 -3E-06 0.923879 255 255 255
-0.020608 -0.059618 0.020608 -0.382684 -3E-06 0.923879 255 255 255
0 -0.059618 0.029144 -0.382684 -3E-06 0.923879 255 255 255
0 -0.053518 0.029144 -0.341857 0.449431 0.825315 255 255 255
0 0 0 -0.341857 0.449431 0.825315 255 255 255
0 0 0 -0.341857 0.449431 0.825315 255 255 255
-0.020608 -0.053518 0.020608 -0.341857 0.449431 0.825315 255 255 255
0 0 0 -0.825314 0.449433 0.341857 255 255 255
-0.029144 -0.053518 0 -0.825314 0.449433 0.341857 255 255 255
-0.020608 -0.053518 0.020608 -0.825314 0.449433 0.341857 255 255 255
0 0 0 -0.825314 0.449433 0.341857 255 255 255
0 0 0 0 0 0 255 255 255
0 0 0 0 0 0 255 255 255
0 0 0 0 0 0 255 255 255
0 0 0 0 0 0 255 255 255
0 0 0 0 0 0 255 255 255
0 0 0 0 0 0 255 255 255
0 0 0 0 0 0 255 255 255
0 0 0 0 0 0 255 255 255
0 -0.059618 0.029144 -0.320762 -0.545376 0.774388 255 255 255
-0.020608 -0.059618 0.020608 -0.320762 -0.545376 0.774388 255 255 255
-0.01259 -0.075719 0.012589 -0.320762 -0.545376 0.774388 255 255 255
0 -0.075719 0.017804 -0.320762 -0.545376 0.774388 255 255 255
-0.020608 -0.053518 0.020608 -0.923879 -1E-06 0.382684 255 255 255
-0.029144 -0.053518 0 -0.923879 -1E-06 0.382684 255 255 255
-0.029144 -0.059618 0 -0.923879 -1E-06 0.382684 255 255 255
-0.020608 -0.059618 0.020608 -0.923879 -1E-06 0.382684 255 255 255
-0.029144 -0.053518 0 -0.92388 1E-06 -0.382683 255 255 255
-0.020608 -0.053518 -0.020608 -0.92388 1E-06 -0.382683 255 255 255
-0.020608 -0.059618 -0.020608 -0.92388 1E-06 -0.382683 255 255 255
-0.029144 -0.059618 0 -0.92388 1E-06 -0.382683 255 255 255
-0.020608 -0.053518 -0.020608 -0.382684 3E-06 -0.923879 255 255 255
0 -0.053518 -0.029144 -0.382684 3E-06 -0.923879 255 255 255
0 -0.059618 -0.029144 -0.382684 3E-06 -0.923879 255 255 255
-0.020608 -0.059618 -0.020608 -0.382684 3E-06 -0.923879 255 255 255
0 -0.053518 -0.029144 0.382683 3E-06 -0.92388 255 255 255
0.020608 -0.053518 -0.020608 0.382683 3E-06 -0.92388 255 255 255
0.020608 -0.059618 -0.020608 0.382683 3E-06 -0.92388 255 255 255
0 -0.059618 -0.029144 0.382683 3E-06 -0.92388 255 255 255
0.020608 -0.053518 -0.020608 0.92388 1E-06 -0.382683 255 255 255
0.029144 -0.053518 0 0.92388 1E-06 -0.382683 255 255 255
0.029144 -0.059618 0 0.92388 1E-06 -0.382683 255 255 255
0.020608 -0.059618 -0.020608 0.92388 1E-06 -0.382683 255 255 255
0.029144 -0.053518 0 0.92388 -1E-06 0.382684 255 255 255
0.020608 -0.053518 0.020608 0.92388 -1E-06 0.382684 255 255 255
0.020608 -0.059618 0.020608 0.92388 -1E-06 0.382684 255 255 255
0.029144 -0.059618 0 0.92388 -1E-06 0.382684 255 255 255
0.020608 -0.053518 0.020608 0.382683 -3E-06 0.92388 255 255 255
0 -0.053518 0.029144 0.382683 -3E-06 0.92388 255 255 255
0 -0.059618 0.029144 0.382683 -3E-06 0.92388 255 255 255
0.020608 -0.059618 0.020608 0.382683 -3E-06 0.92388 255 255 255
0.01259 -0.075719 0.012589 -1E-06 -1 -2E-06 255 255 255
0 -0.075719 0.017804 -1E-06 -1 -2E-06 255 255 255
0.017804 -0.075719 0 -1E-06 -1 -2E-06 255 255 255
0 -0.075719 0.017804 1E-06 -1 -2E-06 255 255 255
-0.01259 -0.075719 0.012589 1E-06 -1 -2E-06 255 255 255
-0.017804 -0.075719 0 1E-06 -1 -2E-06 255 255 255
-0.017804 -0.075719 0 -1E-06 -1 -1E-06 255 255 255
-0.01259 -0.075719 -0.01259 -1E-06 -1 -1E-06 255 255 255
0 -0.075719 -0.017805 -1E-06 -1 -1E-06 255 255 255
0 -0.075719 -0.017805 1E-06 -1 -1E-06 255 255 255
0.01259 -0.075719 -0.01259 1E-06 -1 -1E-06 255 255 255
0.017804 -0.075719 0 1E-06 -1 -1E-06 255 255 255
0 -0.075719 0.017804 0 -1 -1E-06 255 255 255
-0.017804 -0.075719 0 0 -1 -1E-06 255 255 255
0.017804 -0.075719 0 0 -1 -1E-06 255 255 255
0 -0.075719 -0.017805 0 -1 -1E-06 255 255 255
-0.020608 -0.059618 0.020608 -0.774388 -0.545376 0.320762 255 255 255
-0.029144 -0.059618 0 -0.774388 -0.545376 0.320762 255 255 255
-0.017804 -0.075719 0 -0.774388 -0.545376 0.320762 255 255 255
-0.01259 -0.075719 0.012589 -0.774388 -0.545376 0.320762 255 255 255
-0.029144 -0.059618 0 -0.774388 -0.545376 -0.320762 255 255 255
-0.020608 -0.059618 -0.020608 -0.774388 -0.545376 -0.320762 255 255 255
-0.01259 -0.075719 -0.01259 -0.774388 -0.545376 -0.320762 255 255 255
-0.017804 -0.075719 0 -0.774388 -0.545376 -0.320762 255 255 255
-0.020608 -0.059618 -0.020608 -0.320763 -0.545376 -0.774388 255 255 255
0 -0.059618 -0.029144 -0.320763 -0.545376 -0.774388 255 255 255
0 -0.075719 -0.017805 -0.320763 -0.545376 -0.774388 255 255 255
-0.01259 -0.075719 -0.01259 -0.320763 -0.545376 -0.774388 255 255 255
0 -0.059618 -0.029144 0.320761 -0.545376 -0.774388 255 255 255
0.020608 -0.059618 -0.020608 0.320761 -0.545376 -0.774388 255 255 255
0.01259 -0.075719 -0.01259 0.320761 -0.545376 -0.774388 255 255 255
0 -0.075719 -0.017805 0.320761 -0.545376 -0.774388 255 255 255
0.020608 -0.059618 -0.020608 0.774388 -0.545376 -0.320762 255 255 255
0.029144 -0.059618 0 0.774388 -0.545376 -0.320762 255 255 255
0.017804 -0.075719 0 0.774388 -0.545376 -0.320762 255 255 255
0.01259 -0.075719 -0.01259 0.774388 -0.545376 -0.320762 255 255 255
0.029144 -0.059618 0 0.774388 -0.545376 0.320762 255 255 255
0.020608 -0.059618 0.020608 0.774388 -0.545376 0.320762 255 255 255
0.01259 -0.075719 0.012589 0.774388 -0.545376 0.320762 255 255 255
0.017804 -0.075719 0 0.774388 -0.545376 0.320762 255 255 255
0.020608 -0.059618 0.020608 0.320762 -0.545376 0.774388 255 255 255
0 -0.059618 0.029144 0.320762 -0.545376 0.774388 255 255 255
0 -0.075719 0.017804 0.320762 -0.545376 0.774388 255 255 255
0.01259 -0.075719 0.012589 0.320762 -0.545376 0.774388 255 255 255
3 0 1 2
3 0 2 3
3 4 5 6
3 4 6 7
3 8 9 10
3 8 10 11
3 12 13 14
3 12 14 15
3 16 17 18
3 16 18 19
3 20 21 22
3 20 22 23
3 24 25 26
3 24 26 27
3 28 29 30
3 28 30 31
3 32 33 34
3 32 34 35
3 36 37 38
3 37 39 40
3 40 41 42
3 42 43 38
3 37 40 38
3 40 42 38
3 44 45 46
3 44 46 47
3 48 49 50
3 48 50 51
3 52 53 54
3 52 54 55
3 56 57 58
3 56 58 59
3 60 61 62
3 60 62 63
3 64 65 66
3 64 66 67
3 68 69 70
3 68 70 71
3 72 73 74
3 72 74 75
3 76 77 78
3 79 80 81
3 82 83 84
3 85 86 87
3 88 89 90
3 89 91 90
3 92 93 94
3 92 94 95
3 96 97 98
3 96 98 99
3 100 101 102
3 100 102 103
3 104 105 106
3 104 106 107
3 108 109 110
3 108 110 111
3 112 113 114
3 112 114 115
3 116 117 118
3 116 118 119
