ply
format ascii 1.0
comment Created by Blender 2.71 (sub 0) - www.blender.org, source file: 'cornerWall.blend'
element vertex 12
property float x
property float y
property float z
property float nx
property float ny
property float nz
property uchar red
property uchar green
property uchar blue
element face 3
property list uchar uint vertex_indices
end_header
0.000000 12.000000 0.000000 -0.996988 0.000000 0.077549 150 76 0
-0.000001 1.000000 0.000000 -0.996988 0.000000 0.077549 150 76 0
3.111341 3.457799 40.000000 -0.996988 0.000000 0.077549 171 86 0
3.111342 21.254892 40.000000 -0.996988 0.000000 0.077549 153 78 0
9.887463 3.474964 40.000000 -0.996433 0.000000 0.084385 150 76 0
6.500000 1.000000 0.000000 -0.996433 0.000000 0.084385 150 76 0
6.500000 -12.000000 0.000000 -0.996433 0.000000 0.084385 150 76 0
9.887463 -23.104876 40.000000 -0.996433 0.000000 0.084385 150 76 0
6.500000 1.000000 0.000000 0.001290 -0.998110 0.061438 150 76 0
9.887463 3.474964 40.000000 0.001290 -0.998110 0.061438 152 80 5
3.111341 3.457799 40.000000 0.001290 -0.998110 0.061438 171 86 0
-0.000001 1.000000 0.000000 0.001290 -0.998110 0.061438 150 76 0
4 0 1 2 3
4 4 5 6 7
4 8 9 10 11
