ply
format ascii 1.0
comment Created by Blender 2.71 (sub 0) - www.blender.org, source file: 'extraLongWall.blend'
element vertex 142
property float x
property float y
property float z
property float nx
property float ny
property float nz
property uchar red
property uchar green
property uchar blue
element face 37
property list uchar uint vertex_indices
end_header
-5.267605 -0.152348 2.543418 0.000831 -0.999590 0.028637 114 57 0
-23.738691 -0.163376 2.533678 0.000831 -0.999590 0.028637 107 54 0
-20.987139 -0.238283 0.000000 0.000831 -0.999590 0.028637 99 50 0
-5.267605 -0.220603 0.000000 0.000831 -0.999590 0.028637 103 52 0
-5.267605 -0.055802 6.132688 0.000540 -0.999632 0.027109 115 58 0
-26.432751 -0.082394 5.544328 0.000540 -0.999632 0.027109 107 54 0
-23.738691 -0.163376 2.533678 0.000540 -0.999632 0.027109 107 54 0
-5.267605 -0.152348 2.543418 0.000540 -0.999632 0.027109 114 57 0
-19.714859 0.898793 41.617329 0.000299 -0.999632 0.027134 107 54 0
-34.044327 0.898786 41.617329 0.000299 -0.999632 0.027134 115 58 0
-26.432751 -0.082394 5.544328 0.000299 -0.999632 0.027134 107 54 0
-5.267605 -0.055802 6.132688 0.000299 -0.999632 0.027134 115 58 0
12.324405 -0.220582 0.000000 -0.001134 -0.999616 0.027691 99 50 0
20.987066 -0.238247 0.000000 -0.001134 -0.999616 0.027691 99 50 0
23.738623 -0.163340 2.533677 -0.001134 -0.999616 0.027691 107 54 0
7.353656 -0.152327 2.543417 -0.001134 -0.999616 0.027691 109 54 0
26.432676 -0.082357 5.544327 -0.000602 -0.999632 0.027134 107 54 0
7.353656 -0.055780 6.132688 -0.000602 -0.999632 0.027134 115 58 0
7.353656 -0.152327 2.543417 -0.000602 -0.999632 0.027134 109 54 0
23.738623 -0.163340 2.533677 -0.000602 -0.999632 0.027134 107 54 0
34.044254 0.898819 41.617329 -0.000318 -0.999632 0.027131 107 54 0
19.819904 0.898815 41.617329 -0.000318 -0.999632 0.027131 107 54 0
7.353656 -0.055780 6.132688 -0.000318 -0.999632 0.027131 115 58 0
26.432676 -0.082357 5.544327 -0.000318 -0.999632 0.027131 107 54 0
7.353656 -0.152327 2.543417 0.000001 -0.999640 0.026829 109 54 0
2.745451 -0.152333 2.543417 0.000001 -0.999640 0.026829 115 58 0
7.716201 -0.220588 -0.000000 0.000001 -0.999640 0.026829 99 50 0
12.324405 -0.220582 0.000000 0.000001 -0.999640 0.026829 99 50 0
-0.779876 -0.055796 6.132687 -0.000000 0.026888 0.999638 115 58 0
-5.267605 -0.055802 6.132688 -0.000000 0.026888 0.999638 115 58 0
-5.267605 -0.268283 6.138402 -0.000000 0.026888 0.999638 115 58 0
-0.779876 -0.268278 6.138403 -0.000000 0.026888 0.999638 115 58 0
19.819904 0.898815 41.617329 0.000001 -0.999638 0.026892 107 54 0
11.297466 0.898808 41.617325 0.000001 -0.999638 0.026892 107 54 0
2.745451 -0.055786 6.132688 0.000001 -0.999638 0.026892 115 58 0
7.353656 -0.055780 6.132688 0.000001 -0.999638 0.026892 115 58 0
2.745451 -0.152333 2.543417 0.000002 -0.999640 0.026828 115 58 0
-0.779876 -0.152343 2.543418 0.000002 -0.999640 0.026828 115 58 0
-0.779876 -0.220598 0.000000 0.000002 -0.999640 0.026828 107 54 0
7.716201 -0.220588 -0.000000 0.000002 -0.999640 0.026828 99 50 0
2.745451 -0.055786 6.132688 0.000003 -0.999638 0.026889 115 58 0
-0.779876 -0.055796 6.132687 0.000003 -0.999638 0.026889 115 58 0
-0.779876 -0.152343 2.543418 0.000003 -0.999638 0.026889 115 58 0
2.745451 -0.152333 2.543417 0.000003 -0.999638 0.026889 115 58 0
-4.415228 0.898799 41.617329 0.000001 -0.999638 0.026892 107 54 0
-0.779876 -0.055796 6.132687 0.000001 -0.999638 0.026892 115 58 0
-0.779876 -0.152343 2.543418 0.000001 -0.999640 0.026826 115 58 0
-5.267605 -0.152348 2.543418 0.000001 -0.999640 0.026826 114 57 0
-5.267605 -0.220603 0.000000 0.000001 -0.999640 0.026826 103 52 0
-0.779876 -0.220598 0.000000 0.000001 -0.999640 0.026826 107 54 0
-5.267605 -0.055802 6.132688 -1.000000 0.000000 0.000000 113 63 12
-5.267605 -0.152348 2.543418 -1.000000 0.000000 0.000000 107 54 0
-5.267605 -0.364830 2.549134 -1.000000 0.000000 0.000000 107 54 0
-5.267605 -0.268283 6.138402 -1.000000 0.000000 0.000000 147 108 68
-19.714859 0.898793 41.617329 0.000001 -0.999638 0.026892 107 54 0
-5.267605 -0.055802 6.132688 0.000001 -0.999638 0.026892 115 58 0
-0.779876 -0.268278 6.138403 0.000001 -0.999638 0.026890 115 58 0
-5.267605 -0.268283 6.138402 0.000001 -0.999638 0.026890 115 58 0
-5.112544 -0.271619 6.014386 0.000001 -0.999638 0.026890 115 58 0
-0.934936 -0.271614 6.014386 0.000001 -0.999638 0.026890 115 58 0
-5.267605 -0.268283 6.138402 0.000001 -0.999638 0.026889 115 58 0
-5.267605 -0.364830 2.549134 0.000001 -0.999638 0.026889 112 56 0
-5.112544 -0.361494 2.673151 0.000001 -0.999638 0.026889 114 57 0
-5.112544 -0.271619 6.014386 0.000001 -0.999638 0.026889 115 58 0
-5.267605 -0.152348 2.543418 -0.000000 -0.026889 -0.999638 110 58 5
-0.779876 -0.152343 2.543418 -0.000000 -0.026889 -0.999638 107 54 0
-0.779876 -0.364824 2.549133 -0.000000 -0.026889 -0.999638 107 54 0
-5.267605 -0.364830 2.549134 -0.000000 -0.026889 -0.999638 108 55 1
-0.779876 -0.152343 2.543418 1.000000 -0.000000 0.000000 115 58 0
-0.779876 -0.055796 6.132687 1.000000 -0.000000 0.000000 115 58 0
-0.779876 -0.268278 6.138403 1.000000 -0.000000 0.000000 115 58 0
-0.779876 -0.364824 2.549133 1.000000 -0.000000 0.000000 115 58 0
2.745451 -0.055786 6.132688 -1.000000 0.000000 0.000000 115 58 0
2.745451 -0.152333 2.543417 -1.000000 0.000000 0.000000 115 58 0
2.745451 -0.364814 2.549133 -1.000000 0.000000 0.000000 115 58 0
2.745451 -0.268267 6.138402 -1.000000 0.000000 0.000000 115 58 0
7.353656 -0.055780 6.132688 -0.000000 0.026887 0.999638 115 58 0
2.745451 -0.055786 6.132688 -0.000000 0.026887 0.999638 115 58 0
2.745451 -0.268267 6.138402 -0.000000 0.026887 0.999638 115 58 0
7.353657 -0.268262 6.138403 -0.000000 0.026887 0.999638 115 58 0
2.745451 -0.152333 2.543417 0.000000 -0.026889 -0.999638 107 54 0
7.353656 -0.152327 2.543417 0.000000 -0.026889 -0.999638 107 54 0
7.353657 -0.364809 2.549133 0.000000 -0.026889 -0.999638 107 54 0
2.745451 -0.364814 2.549133 0.000000 -0.026889 -0.999638 107 54 0
7.353656 -0.152327 2.543417 1.000000 0.000004 -0.000000 107 54 0
7.353656 -0.055780 6.132688 1.000000 0.000004 -0.000000 107 54 0
7.353657 -0.268262 6.138403 1.000000 0.000004 -0.000000 107 54 0
7.353657 -0.364809 2.549133 1.000000 0.000004 -0.000000 107 54 0
-0.934936 -0.271614 6.014386 0.000000 -0.026889 -0.999638 107 54 0
-5.112544 -0.271619 6.014386 0.000000 -0.026889 -0.999638 107 54 0
-5.110825 0.161455 6.002737 0.000000 -0.026889 -0.999638 107 54 0
-0.933217 0.161460 6.002737 0.000000 -0.026889 -0.999638 107 54 0
-5.112544 -0.271619 6.014386 0.999992 -0.003967 0.000107 115 58 0
-5.112544 -0.361494 2.673151 0.999992 -0.003967 0.000107 114 57 0
-5.110825 0.071581 2.661501 0.999992 -0.003967 0.000107 115 58 0
-5.110825 0.161455 6.002737 0.999992 -0.003967 0.000107 115 58 0
-0.779876 -0.364824 2.549133 0.000001 -0.999638 0.026889 115 58 0
-0.934936 -0.361489 2.673150 0.000001 -0.999638 0.026889 115 58 0
-0.779876 -0.364824 2.549133 0.000002 -0.999638 0.026889 115 58 0
-0.779876 -0.268278 6.138403 0.000002 -0.999638 0.026889 115 58 0
-0.934936 -0.271614 6.014386 0.000002 -0.999638 0.026889 115 58 0
-0.934936 -0.361489 2.673150 0.000002 -0.999638 0.026889 115 58 0
2.745451 -0.268267 6.138402 0.000000 -0.999638 0.026889 115 58 0
2.745451 -0.364814 2.549133 0.000000 -0.999638 0.026889 115 58 0
2.904675 -0.361478 2.673150 0.000000 -0.999638 0.026889 115 58 0
2.904675 -0.271603 6.014385 0.000000 -0.999638 0.026889 115 58 0
7.353657 -0.268262 6.138403 0.000001 -0.999638 0.026891 115 58 0
2.745451 -0.268267 6.138402 0.000001 -0.999638 0.026891 115 58 0
2.904675 -0.271603 6.014385 0.000001 -0.999638 0.026891 115 58 0
7.194432 -0.271598 6.014385 0.000001 -0.999638 0.026891 115 58 0
2.745451 -0.364814 2.549133 0.000001 -0.999638 0.026888 115 58 0
7.353657 -0.364809 2.549133 0.000001 -0.999638 0.026888 107 54 0
7.194432 -0.361473 2.673150 0.000001 -0.999638 0.026888 112 55 0
2.904675 -0.361478 2.673150 0.000001 -0.999638 0.026888 115 58 0
7.353657 -0.364809 2.549133 0.000002 -0.999638 0.026889 107 54 0
7.353657 -0.268262 6.138403 0.000002 -0.999638 0.026889 115 58 0
7.194432 -0.271598 6.014385 0.000002 -0.999638 0.026889 115 58 0
7.194432 -0.361473 2.673150 0.000002 -0.999638 0.026889 112 55 0
-5.112544 -0.361494 2.673151 -0.000000 0.026890 0.999638 114 57 0
-0.934936 -0.361489 2.673150 -0.000000 0.026890 0.999638 115 58 0
-0.933217 0.071586 2.661501 -0.000000 0.026890 0.999638 115 58 0
-5.110825 0.071581 2.661501 -0.000000 0.026890 0.999638 115 58 0
-0.934936 -0.361489 2.673150 -0.999992 0.003967 -0.000107 107 54 0
-0.934936 -0.271614 6.014386 -0.999992 0.003967 -0.000107 107 54 0
-0.933217 0.161460 6.002737 -0.999992 0.003967 -0.000107 107 54 0
-0.933217 0.071586 2.661501 -0.999992 0.003967 -0.000107 107 54 0
2.904675 -0.271603 6.014385 0.999992 -0.003965 0.000107 107 54 0
2.904675 -0.361478 2.673150 0.999992 -0.003965 0.000107 107 54 0
2.906394 0.071596 2.661500 0.999992 -0.003965 0.000107 107 54 0
2.906394 0.161471 6.002736 0.999992 -0.003965 0.000107 107 54 0
7.194432 -0.271598 6.014385 0.000000 -0.026889 -0.999638 107 54 0
2.904675 -0.271603 6.014385 0.000000 -0.026889 -0.999638 107 54 0
2.906394 0.161471 6.002736 0.000000 -0.026889 -0.999638 107 54 0
7.196151 0.161476 6.002736 0.000000 -0.026889 -0.999638 107 54 0
2.904675 -0.361478 2.673150 -0.000000 0.026890 0.999638 115 58 0
7.194432 -0.361473 2.673150 -0.000000 0.026890 0.999638 112 55 0
7.196151 0.071601 2.661500 -0.000000 0.026890 0.999638 114 57 0
2.906394 0.071596 2.661500 -0.000000 0.026890 0.999638 115 58 0
7.194432 -0.361473 2.673150 -0.999992 0.003966 -0.000107 112 55 0
7.194432 -0.271598 6.014385 -0.999992 0.003966 -0.000107 115 58 0
7.196151 0.161476 6.002736 -0.999992 0.003966 -0.000107 115 58 0
7.196151 0.071601 2.661500 -0.999992 0.003966 -0.000107 114 57 0
4 0 1 2 3
4 4 5 6 7
4 8 9 10 11
4 12 13 14 15
4 16 17 18 19
4 20 21 22 23
4 24 25 26 27
4 28 29 30 31
4 32 33 34 35
4 36 37 38 39
4 40 41 42 43
4 33 44 45 34
4 46 47 48 49
4 50 51 52 53
4 44 54 55 45
4 56 57 58 59
4 60 61 62 63
4 64 65 66 67
4 68 69 70 71
4 72 73 74 75
4 76 77 78 79
4 80 81 82 83
4 84 85 86 87
4 88 89 90 91
4 92 93 94 95
4 61 96 97 62
4 98 99 100 101
4 102 103 104 105
4 106 107 108 109
4 110 111 112 113
4 114 115 116 117
4 118 119 120 121
4 122 123 124 125
4 126 127 128 129
4 130 131 132 133
4 134 135 136 137
4 138 139 140 141
