ply
format ascii 1.0
comment Created by Blender 2.71 (sub 0) - www.blender.org, source file: 'coalStripOnTable.blend'
element vertex 205
property float x
property float y
property float z
property float nx
property float ny
property float nz
property uchar red
property uchar green
property uchar blue
element face 82
property list uchar uint vertex_indices
end_header
-0.873844 -3.000001 2.312531 0.000001 -1.000000 0.000000 74 74 74
-1.499997 -3.000001 2.312531 0.000001 -1.000000 0.000000 74 74 74
-1.499997 -3.000001 2.211416 0.000001 -1.000000 0.000000 74 74 74
-0.873844 -3.000001 2.211416 0.000001 -1.000000 0.000000 74 74 74
-1.500002 2.325287 2.312531 -1.000000 -0.000001 0.000000 74 74 74
-1.500003 2.999999 2.312531 -1.000000 -0.000001 0.000000 74 74 74
-1.500003 2.999999 2.211416 -1.000000 -0.000001 0.000000 74 74 74
-1.500002 2.325287 2.211416 -1.000000 -0.000001 0.000000 74 74 74
0.873844 3.000001 2.312531 -0.000001 1.000000 0.000000 74 74 74
1.499997 3.000001 2.312531 -0.000001 1.000000 0.000000 74 74 74
1.499997 3.000001 2.211416 -0.000001 1.000000 0.000000 74 74 74
0.873844 3.000001 2.211416 -0.000001 1.000000 0.000000 74 74 74
1.500003 -2.999999 2.211416 1.000000 0.000001 0.000000 74 74 74
1.500002 -2.325287 2.211416 1.000000 0.000001 0.000000 74 74 74
1.500002 -2.325287 2.312531 1.000000 0.000001 0.000000 74 74 74
1.500003 -2.999999 2.312531 1.000000 0.000001 0.000000 74 74 74
-1.500003 2.999999 0.014454 -1.000000 -0.000001 0.000000 74 74 74
-1.500002 2.325287 0.014454 -1.000000 -0.000001 0.000000 74 74 74
1.500002 -2.325287 2.882484 1.000000 0.000001 0.000000 74 74 74
1.500003 -2.999999 2.882484 1.000000 0.000001 0.000000 74 74 74
-1.499997 -3.000001 2.312531 -1.000000 -0.000001 0.000000 74 74 74
-1.499998 -2.325290 2.312531 -1.000000 -0.000001 0.000000 74 74 74
-1.499998 -2.325290 2.211416 -1.000000 -0.000001 0.000000 74 74 74
-1.499997 -3.000001 2.211416 -1.000000 -0.000001 0.000000 74 74 74
1.499997 3.000001 2.312531 1.000000 0.000001 0.000000 74 74 74
1.499998 2.325290 2.312531 1.000000 0.000001 0.000000 74 74 74
1.499998 2.325290 2.211416 1.000000 0.000001 0.000000 74 74 74
1.499997 3.000001 2.211416 1.000000 0.000001 0.000000 74 74 74
1.500003 -2.999999 2.211416 0.000001 -1.000000 0.000000 74 74 74
0.873849 -2.999999 2.211416 0.000001 -1.000000 0.000000 74 74 74
0.873849 -2.999999 0.014454 0.000001 -1.000000 0.000000 74 74 74
1.500003 -2.999999 0.014454 0.000001 -1.000000 0.000000 74 74 74
-0.873844 -2.325289 2.211416 0.000000 -0.000000 -1.000000 74 74 74
-1.499998 -2.325290 2.211416 0.000000 -0.000000 -1.000000 74 74 74
-1.500002 2.325287 2.211416 0.000000 -0.000000 -1.000000 74 74 74
-0.873848 2.325288 2.211416 0.000000 -0.000000 -1.000000 74 74 74
-1.499997 -3.000001 2.882484 -1.000000 -0.000001 0.000000 74 74 74
-1.499998 -2.325290 2.882484 -1.000000 -0.000001 0.000000 75 75 75
-1.500002 2.325287 2.882484 -1.000000 -0.000001 0.000000 74 74 74
1.500003 -2.999999 2.312531 0.000001 -1.000000 0.000000 74 74 74
0.873849 -2.999999 2.312531 0.000001 -1.000000 0.000000 74 74 74
-1.500003 2.999999 2.312531 -0.000001 1.000000 0.000000 74 74 74
-0.873849 2.999999 2.312531 -0.000001 1.000000 0.000000 74 74 74
-0.873849 2.999999 2.211416 -0.000001 1.000000 0.000000 74 74 74
-1.500003 2.999999 2.211416 -0.000001 1.000000 0.000000 74 74 74
-0.873849 2.999999 2.211416 1.000000 0.000001 0.000000 74 74 74
-0.873848 2.325288 2.211416 1.000000 0.000001 0.000000 74 74 74
-0.873848 2.325288 0.014454 1.000000 0.000001 0.000000 74 74 74
-0.873849 2.999999 0.014454 1.000000 0.000001 0.000000 74 74 74
0.873844 2.325289 2.211416 0.000000 -0.000000 -1.000000 74 74 74
-0.873849 2.999999 2.211416 0.000000 -0.000000 -1.000000 74 74 74
0.873844 3.000001 2.211416 0.000000 -0.000000 -1.000000 75 75 75
1.499997 3.000001 2.882484 1.000000 0.000001 0.000000 74 74 74
1.499998 2.325290 2.882484 1.000000 0.000001 0.000000 74 74 74
-0.873848 2.325288 2.211416 0.000001 -1.000000 0.000000 74 74 74
-1.500002 2.325287 2.211416 0.000001 -1.000000 0.000000 74 74 74
-1.500002 2.325287 0.014454 0.000001 -1.000000 0.000000 74 74 74
-0.873848 2.325288 0.014454 0.000001 -1.000000 0.000000 74 74 74
0.873849 -2.999999 2.211416 0.000000 -0.000000 -1.000000 75 75 75
-0.873844 -3.000001 2.211416 0.000000 -0.000000 -1.000000 74 74 74
0.873848 -2.325288 2.211416 0.000000 -0.000000 -1.000000 74 74 74
1.500002 -2.325287 2.211416 0.000000 -0.000000 -1.000000 74 74 74
1.499998 2.325290 2.211416 0.000000 -0.000000 -1.000000 74 74 74
1.500003 -2.999999 2.882484 0.000001 -1.000000 0.000000 74 74 74
0.873849 -2.999999 2.882484 0.000001 -1.000000 0.000000 74 74 74
-0.873844 -3.000001 2.882484 0.000001 -1.000000 0.000000 74 74 74
-1.500003 2.999999 2.882484 -0.000001 1.000000 0.000000 75 75 75
-0.873849 2.999999 2.882484 -0.000001 1.000000 0.000000 74 74 74
0.873844 3.000001 2.882484 -0.000001 1.000000 0.000000 74 74 74
-0.873848 2.325288 0.014454 0.000000 -0.000000 -1.000000 74 74 74
-1.500002 2.325287 0.014454 0.000000 -0.000000 -1.000000 74 74 74
-1.500003 2.999999 0.014454 0.000000 -0.000000 -1.000000 74 74 74
-0.873849 2.999999 0.014454 0.000000 -0.000000 -1.000000 74 74 74
-0.873844 -3.000001 0.014454 0.000000 -0.000000 -1.000000 74 74 74
-1.499997 -3.000001 0.014454 0.000000 -0.000000 -1.000000 74 74 74
-1.499998 -2.325290 0.014454 0.000000 -0.000000 -1.000000 74 74 74
-0.873844 -2.325289 0.014454 0.000000 -0.000000 -1.000000 74 74 74
1.499998 2.325290 0.014454 0.000000 -0.000000 -1.000000 74 74 74
0.873844 2.325289 0.014454 0.000000 -0.000000 -1.000000 74 74 74
0.873844 3.000001 0.014454 0.000000 -0.000000 -1.000000 74 74 74
1.499997 3.000001 0.014454 0.000000 -0.000000 -1.000000 74 74 74
1.500003 -2.999999 0.014454 0.000000 -0.000000 -1.000000 74 74 74
0.873849 -2.999999 0.014454 0.000000 -0.000000 -1.000000 74 74 74
0.873848 -2.325288 0.014454 0.000000 -0.000000 -1.000000 74 74 74
1.500002 -2.325287 0.014454 0.000000 -0.000000 -1.000000 74 74 74
1.499998 2.325290 2.211416 0.000001 -1.000000 0.000000 74 74 74
0.873844 2.325289 2.211416 0.000001 -1.000000 0.000000 74 74 74
0.873844 2.325289 0.014454 0.000001 -1.000000 0.000000 74 74 74
1.499998 2.325290 0.014454 0.000001 -1.000000 0.000000 74 74 74
-1.499998 -2.325290 2.211416 -0.000001 1.000000 0.000000 74 74 74
-0.873844 -2.325289 2.211416 -0.000001 1.000000 0.000000 74 74 74
-0.873844 -2.325289 0.014454 -0.000001 1.000000 0.000000 74 74 74
-1.499998 -2.325290 0.014454 -0.000001 1.000000 0.000000 74 74 74
1.499997 3.000001 0.014454 -0.000001 1.000000 0.000000 74 74 74
0.873844 3.000001 0.014454 -0.000001 1.000000 0.000000 74 74 74
-1.499997 -3.000001 0.014454 0.000001 -1.000000 0.000000 74 74 74
-0.873844 -3.000001 0.014454 0.000001 -1.000000 0.000000 74 74 74
0.873849 -2.999999 2.211416 -1.000000 -0.000001 0.000000 74 74 74
0.873848 -2.325288 2.211416 -1.000000 -0.000001 0.000000 74 74 74
0.873848 -2.325288 0.014454 -1.000000 -0.000001 0.000000 74 74 74
0.873849 -2.999999 0.014454 -1.000000 -0.000001 0.000000 74 74 74
-1.499998 -2.325290 0.014454 -1.000000 -0.000001 0.000000 74 74 74
-1.499997 -3.000001 0.014454 -1.000000 -0.000001 0.000000 74 74 74
0.873844 2.325289 2.211416 -1.000000 -0.000001 0.000000 74 74 74
0.873844 3.000001 2.211416 -1.000000 -0.000001 0.000000 74 74 74
0.873844 3.000001 0.014454 -1.000000 -0.000001 0.000000 74 74 74
0.873844 2.325289 0.014454 -1.000000 -0.000001 0.000000 74 74 74
0.873848 -2.325288 2.211416 -0.000001 1.000000 0.000000 74 74 74
1.500002 -2.325287 2.211416 -0.000001 1.000000 0.000000 74 74 74
1.500002 -2.325287 0.014454 -0.000001 1.000000 0.000000 74 74 74
0.873848 -2.325288 0.014454 -0.000001 1.000000 0.000000 74 74 74
1.499998 2.325290 0.014454 1.000000 0.000001 0.000000 74 74 74
1.499997 3.000001 0.014454 1.000000 0.000001 0.000000 74 74 74
-1.500003 2.999999 2.211416 -0.000001 1.000000 0.000000 77 77 77
-0.873849 2.999999 0.014454 -0.000001 1.000000 0.000000 74 74 74
-1.500003 2.999999 0.014454 -0.000001 1.000000 0.000000 74 74 74
-0.873844 -2.325289 2.211416 1.000000 0.000001 0.000000 74 74 74
-0.873844 -3.000001 2.211416 1.000000 0.000001 0.000000 74 74 74
-0.873844 -3.000001 0.014454 1.000000 0.000001 0.000000 74 74 74
-0.873844 -2.325289 0.014454 1.000000 0.000001 0.000000 74 74 74
1.500003 -2.999999 0.014454 1.000000 0.000001 0.000000 74 74 74
1.500002 -2.325287 0.014454 1.000000 0.000001 0.000000 74 74 74
1.500003 -2.999999 2.882484 0.002239 0.000000 0.999997 74 74 74
1.500002 -2.325287 2.882484 0.002239 0.000000 0.999997 73 73 73
0.572644 -2.028988 2.884560 0.002239 0.000000 0.999997 0 0 0
0.572644 -2.617725 2.884560 0.002239 0.000000 0.999997 0 0 0
-1.499998 -2.325290 2.882484 -0.002239 -0.000000 0.999997 74 74 74
-1.499997 -3.000001 2.882484 -0.002239 -0.000000 0.999997 56 56 56
-0.572642 -2.617727 2.884560 -0.002239 -0.000000 0.999997 0 0 0
-0.572643 -2.028990 2.884560 -0.002239 -0.000000 0.999997 0 0 0
-1.500002 2.325287 2.882484 -0.002239 -0.000000 0.999997 74 74 74
-0.572644 2.028988 2.884560 -0.002239 -0.000000 0.999997 0 0 0
1.499998 2.325290 2.882484 0.002239 0.000000 0.999997 74 74 74
1.499997 3.000001 2.882484 0.002239 0.000000 0.999997 74 74 74
0.572642 2.617727 2.884560 0.002239 0.000000 0.999997 0 0 0
0.572643 2.028990 2.884560 0.002239 0.000000 0.999997 0 0 0
0.873849 -2.999999 2.882484 0.000000 -0.005431 0.999985 74 74 74
1.500003 -2.999999 2.882484 0.000000 -0.005431 0.999985 74 74 74
0.572644 -2.617725 2.884560 0.000000 -0.005431 0.999985 0 0 0
0.333603 -2.617725 2.884560 0.000000 -0.005431 0.999985 11 11 11
-0.873844 -3.000001 2.882484 0.000000 -0.005431 0.999985 74 74 74
-0.333601 -2.617727 2.884560 0.000000 -0.005431 0.999985 0 0 0
-0.873849 2.999999 2.882484 -0.000000 0.005431 0.999985 65 65 65
-1.500003 2.999999 2.882484 -0.000000 0.005431 0.999985 56 56 56
-0.572644 2.617725 2.884560 -0.000000 0.005431 0.999985 0 0 0
-0.333603 2.617725 2.884560 -0.000000 0.005431 0.999985 0 0 0
0.873844 3.000001 2.882484 -0.000000 0.005431 0.999985 74 74 74
0.333601 2.617727 2.884560 -0.000000 0.005431 0.999985 0 0 0
1.499997 3.000001 2.882484 -0.000001 1.000000 0.000000 75 75 75
-1.500003 2.999999 2.882484 -1.000000 -0.000001 0.000000 74 74 74
-1.499997 -3.000001 2.882484 0.000001 -1.000000 0.000000 74 74 74
0.572644 -2.617725 2.884560 -1.000000 -0.000000 0.000000 0 0 0
0.572644 -2.028988 2.884560 -1.000000 -0.000000 0.000000 0 0 0
0.572644 -2.028988 2.326947 -1.000000 -0.000000 0.000000 0 0 0
0.572644 -2.617725 2.326947 -1.000000 -0.000000 0.000000 0 0 0
-0.572643 -2.028990 2.884560 1.000000 0.000000 0.000000 0 0 0
-0.572642 -2.617727 2.884560 1.000000 0.000000 0.000000 0 0 0
-0.572642 -2.617727 2.326947 1.000000 0.000000 0.000000 0 0 0
-0.572643 -2.028990 2.326947 1.000000 0.000000 0.000000 0 0 0
-0.572644 2.028988 2.884560 1.000000 0.000000 0.000000 0 0 0
-0.572644 2.028988 2.326947 1.000000 0.000000 0.000000 0 0 0
0.572643 2.028990 2.884560 -1.000000 -0.000000 0.000000 0 0 0
0.572642 2.617727 2.884560 -1.000000 -0.000000 0.000000 0 0 0
0.572642 2.617727 2.326947 -1.000000 -0.000000 0.000000 0 0 0
0.572643 2.028990 2.326947 -1.000000 -0.000000 0.000000 0 0 0
0.333603 -2.617725 2.884560 -0.000002 1.000000 0.000000 11 11 11
0.572644 -2.617725 2.884560 -0.000002 1.000000 0.000000 0 0 0
0.572644 -2.617725 2.326947 -0.000002 1.000000 0.000000 0 0 0
0.333603 -2.617725 2.326947 -0.000002 1.000000 0.000000 11 11 11
-0.333601 -2.617727 2.884560 -0.000002 1.000000 0.000000 0 0 0
-0.333601 -2.617727 2.326947 -0.000002 1.000000 0.000000 0 0 0
-0.333603 2.617725 2.884560 0.000002 -1.000000 0.000000 0 0 0
-0.572644 2.617725 2.884560 0.000002 -1.000000 0.000000 0 0 0
-0.572644 2.617725 2.326947 0.000002 -1.000000 0.000000 0 0 0
-0.333603 2.617725 2.326947 0.000002 -1.000000 0.000000 0 0 0
0.333601 2.617727 2.884560 0.000002 -1.000000 0.000000 0 0 0
0.333601 2.617727 2.326947 0.000002 -1.000000 0.000000 0 0 0
1.499997 3.000001 2.882484 -0.000000 0.005431 0.999985 74 74 74
0.572642 2.617727 2.884560 -0.000000 0.005431 0.999985 0 0 0
-1.500003 2.999999 2.882484 -0.002239 -0.000000 0.999997 56 56 56
-0.572644 2.617725 2.884560 -0.002239 -0.000000 0.999997 0 0 0
-1.499997 -3.000001 2.882484 0.000000 -0.005431 0.999985 56 56 56
-0.572642 -2.617727 2.884560 0.000000 -0.005431 0.999985 0 0 0
-0.333601 -2.028990 2.326947 0.000000 -0.000000 1.000000 29 29 29
-0.572643 -2.028990 2.326947 0.000000 -0.000000 1.000000 0 0 0
-0.572642 -2.617727 2.326947 0.000000 -0.000000 1.000000 0 0 0
-0.333601 -2.617727 2.326947 0.000000 -0.000000 1.000000 0 0 0
-0.333603 2.617725 2.326947 0.000000 -0.000000 1.000000 0 0 0
-0.572644 2.617725 2.326947 0.000000 -0.000000 1.000000 0 0 0
-0.572644 2.028988 2.326947 0.000000 -0.000000 1.000000 0 0 0
-0.333602 2.028988 2.326947 0.000000 -0.000000 1.000000 0 0 0
0.572644 -2.028988 2.326947 0.000000 -0.000000 1.000000 0 0 0
0.333602 -2.028988 2.326947 0.000000 -0.000000 1.000000 0 0 0
0.333603 -2.617725 2.326947 0.000000 -0.000000 1.000000 11 11 11
0.572644 -2.617725 2.326947 0.000000 -0.000000 1.000000 0 0 0
0.572642 2.617727 2.326947 0.000000 -0.000000 1.000000 0 0 0
0.333601 2.617727 2.326947 0.000000 -0.000000 1.000000 0 0 0
0.333601 2.028990 2.326947 0.000000 -0.000000 1.000000 0 0 0
0.572643 2.028990 2.326947 0.000000 -0.000000 1.000000 0 0 0
0.572642 2.617727 2.884560 0.000002 -1.000000 0.000000 0 0 0
0.572642 2.617727 2.326947 0.000002 -1.000000 0.000000 0 0 0
-0.572644 2.617725 2.884560 1.000000 0.000000 0.000000 0 0 0
-0.572644 2.617725 2.326947 1.000000 0.000000 0.000000 0 0 0
-0.572642 -2.617727 2.884560 -0.000002 1.000000 0.000000 0 0 0
-0.572642 -2.617727 2.326947 -0.000002 1.000000 0.000000 0 0 0
4 0 1 2 3
4 4 5 6 7
4 8 9 10 11
4 12 13 14 15
4 7 6 16 17
4 15 14 18 19
4 20 21 22 23
4 21 4 7 22
4 24 25 26 27
4 25 14 13 26
4 28 29 30 31
4 32 33 34 35
4 21 20 36 37
4 4 21 37 38
4 29 28 39 40
4 40 0 3 29
4 41 42 43 44
4 42 8 11 43
4 45 46 47 48
4 49 35 50 51
4 25 24 52 53
4 14 25 53 18
4 54 55 56 57
4 58 59 32 60
4 61 60 49 62
4 60 32 35 49
4 40 39 63 64
4 0 40 64 65
4 42 41 66 67
4 8 42 67 68
4 69 70 71 72
4 73 74 75 76
4 77 78 79 80
4 81 82 83 84
4 85 86 87 88
4 89 90 91 92
4 11 10 93 94
4 3 2 95 96
4 97 98 99 100
4 23 22 101 102
4 103 104 105 106
4 107 108 109 110
4 27 26 111 112
4 113 43 114 115
4 116 117 118 119
4 13 12 120 121
4 122 123 124 125
4 126 127 128 129
4 130 126 129 131
4 132 133 134 135
4 123 132 135 124
4 136 137 138 139
4 140 136 139 141
4 142 143 144 145
4 146 142 145 147
4 9 8 68 148
4 5 4 38 149
4 1 0 65 150
4 151 152 153 154
4 155 156 157 158
4 159 155 158 160
4 161 162 163 164
4 152 161 164 153
4 165 166 167 168
4 169 165 168 170
4 171 172 173 174
4 175 171 174 176
4 177 146 147 178
4 179 130 131 180
4 181 140 141 182
4 183 184 185 186
4 187 188 189 190
4 190 189 184 183
4 191 192 193 194
4 192 183 186 193
4 195 196 197 198
4 196 187 190 197
4 198 197 192 191
4 197 190 183 192
4 199 175 176 200
4 201 159 160 202
4 203 169 170 204
