ply
format ascii 1.0
comment Created by Blender 2.71 (sub 0) - www.blender.org, source file: 'Diamond.blend'
element vertex 120
property float x
property float y
property float z
property float nx
property float ny
property float nz
element face 36
property list uchar uint vertex_indices
end_header
0.000000 0.000000 0.000000 0.341857 0.449431 0.825316
0.000000 -0.053518 0.029144 0.341857 0.449431 0.825316
0.020608 -0.053518 0.020608 0.341857 0.449431 0.825316
0.000000 0.000000 0.000000 0.341857 0.449431 0.825316
0.000000 0.000000 0.000000 0.825315 0.449433 0.341857
0.020608 -0.053518 0.020608 0.825315 0.449433 0.341857
0.029144 -0.053518 -0.000000 0.825315 0.449433 0.341857
0.000000 0.000000 0.000000 0.825315 0.449433 0.341857
0.000000 0.000000 0.000000 0.825314 0.449436 -0.341856
0.029144 -0.053518 -0.000000 0.825314 0.449436 -0.341856
0.020608 -0.053518 -0.020608 0.825314 0.449436 -0.341856
0.000000 0.000000 0.000000 0.825314 0.449436 -0.341856
0.000000 0.000000 0.000000 0.341855 0.449437 -0.825313
0.020608 -0.053518 -0.020608 0.341855 0.449437 -0.825313
-0.000000 -0.053518 -0.029144 0.341855 0.449437 -0.825313
0.000000 0.000000 0.000000 0.341855 0.449437 -0.825313
0.000000 0.000000 0.000000 -0.341856 0.449437 -0.825312
-0.000000 -0.053518 -0.029144 -0.341856 0.449437 -0.825312
-0.020608 -0.053518 -0.020608 -0.341856 0.449437 -0.825312
0.000000 0.000000 0.000000 -0.341856 0.449437 -0.825312
0.000000 0.000000 0.000000 -0.825314 0.449435 -0.341856
-0.020608 -0.053518 -0.020608 -0.825314 0.449435 -0.341856
-0.029144 -0.053518 -0.000000 -0.825314 0.449435 -0.341856
0.000000 0.000000 0.000000 -0.825314 0.449435 -0.341856
0.000000 -0.053518 0.029144 -0.382684 -0.000003 0.923879
-0.020608 -0.053518 0.020608 -0.382684 -0.000003 0.923879
-0.020608 -0.059618 0.020608 -0.382684 -0.000003 0.923879
0.000000 -0.059618 0.029144 -0.382684 -0.000003 0.923879
0.000000 -0.053518 0.029144 -0.341857 0.449431 0.825315
0.000000 0.000000 0.000000 -0.341857 0.449431 0.825315
0.000000 0.000000 0.000000 -0.341857 0.449431 0.825315
-0.020608 -0.053518 0.020608 -0.341857 0.449431 0.825315
0.000000 0.000000 0.000000 -0.825314 0.449433 0.341857
-0.029144 -0.053518 -0.000000 -0.825314 0.449433 0.341857
-0.020608 -0.053518 0.020608 -0.825314 0.449433 0.341857
0.000000 0.000000 0.000000 -0.825314 0.449433 0.341857
0.000000 0.000000 0.000000 0.000000 0.000000 0.000000
0.000000 0.000000 0.000000 0.000000 0.000000 0.000000
0.000000 0.000000 0.000000 0.000000 0.000000 0.000000
0.000000 0.000000 0.000000 0.000000 0.000000 0.000000
0.000000 0.000000 0.000000 0.000000 0.000000 0.000000
0.000000 0.000000 0.000000 0.000000 0.000000 0.000000
0.000000 0.000000 0.000000 0.000000 0.000000 0.000000
0.000000 0.000000 0.000000 0.000000 0.000000 0.000000
0.000000 -0.059618 0.029144 -0.320762 -0.545376 0.774388
-0.020608 -0.059618 0.020608 -0.320762 -0.545376 0.774388
-0.012590 -0.075719 0.012589 -0.320762 -0.545376 0.774388
0.000000 -0.075719 0.017804 -0.320762 -0.545376 0.774388
-0.020608 -0.053518 0.020608 -0.923879 -0.000001 0.382684
-0.029144 -0.053518 -0.000000 -0.923879 -0.000001 0.382684
-0.029144 -0.059618 -0.000000 -0.923879 -0.000001 0.382684
-0.020608 -0.059618 0.020608 -0.923879 -0.000001 0.382684
-0.029144 -0.053518 -0.000000 -0.923880 0.000001 -0.382683
-0.020608 -0.053518 -0.020608 -0.923880 0.000001 -0.382683
-0.020608 -0.059618 -0.020608 -0.923880 0.000001 -0.382683
-0.029144 -0.059618 -0.000000 -0.923880 0.000001 -0.382683
-0.020608 -0.053518 -0.020608 -0.382684 0.000003 -0.923879
-0.000000 -0.053518 -0.029144 -0.382684 0.000003 -0.923879
-0.000000 -0.059618 -0.029144 -0.382684 0.000003 -0.923879
-0.020608 -0.059618 -0.020608 -0.382684 0.000003 -0.923879
-0.000000 -0.053518 -0.029144 0.382683 0.000003 -0.923880
0.020608 -0.053518 -0.020608 0.382683 0.000003 -0.923880
0.020608 -0.059618 -0.020608 0.382683 0.000003 -0.923880
-0.000000 -0.059618 -0.029144 0.382683 0.000003 -0.923880
0.020608 -0.053518 -0.020608 0.923880 0.000001 -0.382683
0.029144 -0.053518 -0.000000 0.923880 0.000001 -0.382683
0.029144 -0.059618 -0.000000 0.923880 0.000001 -0.382683
0.020608 -0.059618 -0.020608 0.923880 0.000001 -0.382683
0.029144 -0.053518 -0.000000 0.923880 -0.000001 0.382684
0.020608 -0.053518 0.020608 0.923880 -0.000001 0.382684
0.020608 -0.059618 0.020608 0.923880 -0.000001 0.382684
0.029144 -0.059618 -0.000000 0.923880 -0.000001 0.382684
0.020608 -0.053518 0.020608 0.382683 -0.000003 0.923880
0.000000 -0.053518 0.029144 0.382683 -0.000003 0.923880
0.000000 -0.059618 0.029144 0.382683 -0.000003 0.923880
0.020608 -0.059618 0.020608 0.382683 -0.000003 0.923880
0.012590 -0.075719 0.012589 -0.000001 -1.000000 -0.000002
0.000000 -0.075719 0.017804 -0.000001 -1.000000 -0.000002
0.017804 -0.075719 -0.000000 -0.000001 -1.000000 -0.000002
0.000000 -0.075719 0.017804 0.000001 -1.000000 -0.000002
-0.012590 -0.075719 0.012589 0.000001 -1.000000 -0.000002
-0.017804 -0.075719 -0.000000 0.000001 -1.000000 -0.000002
-0.017804 -0.075719 -0.000000 -0.000001 -1.000000 -0.000001
-0.012590 -0.075719 -0.012590 -0.000001 -1.000000 -0.000001
-0.000000 -0.075719 -0.017805 -0.000001 -1.000000 -0.000001
-0.000000 -0.075719 -0.017805 0.000001 -1.000000 -0.000001
0.012590 -0.075719 -0.012590 0.000001 -1.000000 -0.000001
0.017804 -0.075719 -0.000000 0.000001 -1.000000 -0.000001
0.000000 -0.075719 0.017804 -0.000000 -1.000000 -0.000001
-0.017804 -0.075719 -0.000000 -0.000000 -1.000000 -0.000001
0.017804 -0.075719 -0.000000 -0.000000 -1.000000 -0.000001
-0.000000 -0.075719 -0.017805 0.000000 -1.000000 -0.000001
-0.020608 -0.059618 0.020608 -0.774388 -0.545376 0.320762
-0.029144 -0.059618 -0.000000 -0.774388 -0.545376 0.320762
-0.017804 -0.075719 -0.000000 -0.774388 -0.545376 0.320762
-0.012590 -0.075719 0.012589 -0.774388 -0.545376 0.320762
-0.029144 -0.059618 -0.000000 -0.774388 -0.545376 -0.320762
-0.020608 -0.059618 -0.020608 -0.774388 -0.545376 -0.320762
-0.012590 -0.075719 -0.012590 -0.774388 -0.545376 -0.320762
-0.017804 -0.075719 -0.000000 -0.774388 -0.545376 -0.320762
-0.020608 -0.059618 -0.020608 -0.320763 -0.545376 -0.774388
-0.000000 -0.059618 -0.029144 -0.320763 -0.545376 -0.774388
-0.000000 -0.075719 -0.017805 -0.320763 -0.545376 -0.774388
-0.012590 -0.075719 -0.012590 -0.320763 -0.545376 -0.774388
-0.000000 -0.059618 -0.029144 0.320761 -0.545376 -0.774388
0.020608 -0.059618 -0.020608 0.320761 -0.545376 -0.774388
0.012590 -0.075719 -0.012590 0.320761 -0.545376 -0.774388
-0.000000 -0.075719 -0.017805 0.320761 -0.545376 -0.774388
0.020608 -0.059618 -0.020608 0.774388 -0.545376 -0.320762
0.029144 -0.059618 -0.000000 0.774388 -0.545376 -0.320762
0.017804 -0.075719 -0.000000 0.774388 -0.545376 -0.320762
0.012590 -0.075719 -0.012590 0.774388 -0.545376 -0.320762
0.029144 -0.059618 -0.000000 0.774388 -0.545376 0.320762
0.020608 -0.059618 0.020608 0.774388 -0.545376 0.320762
0.012590 -0.075719 0.012589 0.774388 -0.545376 0.320762
0.017804 -0.075719 -0.000000 0.774388 -0.545376 0.320762
0.020608 -0.059618 0.020608 0.320762 -0.545376 0.774388
0.000000 -0.059618 0.029144 0.320762 -0.545376 0.774388
0.000000 -0.075719 0.017804 0.320762 -0.545376 0.774388
0.012590 -0.075719 0.012589 0.320762 -0.545376 0.774388
4 0 1 2 3
4 4 5 6 7
4 8 9 10 11
4 12 13 14 15
4 16 17 18 19
4 20 21 22 23
4 24 25 26 27
4 28 29 30 31
4 32 33 34 35
3 36 37 38
3 37 39 40
3 40 41 42
3 42 43 38
3 37 40 38
3 40 42 38
4 44 45 46 47
4 48 49 50 51
4 52 53 54 55
4 56 57 58 59
4 60 61 62 63
4 64 65 66 67
4 68 69 70 71
4 72 73 74 75
3 76 77 78
3 79 80 81
3 82 83 84
3 85 86 87
3 88 89 90
3 89 91 90
4 92 93 94 95
4 96 97 98 99
4 100 101 102 103
4 104 105 106 107
4 108 109 110 111
4 112 113 114 115
4 116 117 118 119
