ply
format ascii 1.0
comment Created by Blender 2.71 (sub 0) - www.blender.org, source file: 'GreatswordBlade.blend'
element vertex 108
property float x
property float y
property float z
property float nx
property float ny
property float nz
property uchar red
property uchar green
property uchar blue
element face 38
property list uchar uint vertex_indices
end_header
-0.937419 -0.103810 0.000000 -0.246058 0.000000 -0.969255 227 227 227
-0.937419 -0.311430 0.000000 -0.246058 0.000000 -0.969255 255 255 255
-1.045676 -0.123784 0.027483 -0.246058 0.000000 -0.969255 240 240 240
-1.045676 -0.041261 0.027483 -0.246058 0.000000 -0.969255 227 227 227
-0.937419 0.311430 0.354595 0.000000 1.000000 -0.000000 255 255 255
1.412816 0.311430 0.354595 0.000000 1.000000 -0.000000 255 255 255
1.412816 0.311430 0.000000 0.000000 1.000000 -0.000000 255 255 255
-0.937419 0.311430 0.000000 0.000000 1.000000 -0.000000 255 255 255
1.412816 0.103810 0.000000 0.000000 0.000000 -1.000000 227 227 227
1.412816 0.311430 0.000000 0.000000 0.000000 -1.000000 229 229 229
1.744237 0.000000 0.000000 0.000000 0.000000 -1.000000 227 227 227
1.744237 0.000000 0.000000 0.000000 0.000000 -1.000000 227 227 227
-0.937419 -0.311430 0.000000 0.000000 -1.000000 -0.000000 227 227 227
1.412816 -0.311430 0.000000 0.000000 -1.000000 -0.000000 229 229 229
1.412816 -0.311430 0.354595 0.000000 -1.000000 -0.000000 227 227 227
-0.937419 -0.311430 0.354595 0.000000 -1.000000 -0.000000 233 233 233
-0.937419 0.103810 0.000000 -0.000000 0.000000 -1.000000 236 236 236
-0.937419 0.311430 0.000000 -0.000000 0.000000 -1.000000 227 227 227
1.412816 0.103810 0.354595 -0.000000 0.000000 1.000000 232 232 232
1.412816 0.311430 0.354595 -0.000000 0.000000 1.000000 227 227 227
-0.937419 0.311430 0.354595 -0.000000 0.000000 1.000000 255 255 255
-0.937419 0.103810 0.354595 -0.000000 0.000000 1.000000 255 255 255
1.744237 0.000000 0.354595 0.000000 0.000000 0.000000 255 255 255
1.744237 0.000000 0.354595 0.000000 0.000000 0.000000 255 255 255
1.744237 0.000000 0.000000 0.000000 0.000000 0.000000 255 255 255
1.744237 0.000000 0.000000 0.000000 0.000000 0.000000 255 255 255
1.412816 -0.311430 0.354595 0.684787 -0.728744 0.000000 255 255 255
1.412816 -0.311430 0.000000 0.684787 -0.728744 0.000000 255 255 255
1.744237 0.000000 0.000000 0.684787 -0.728744 0.000000 255 255 255
1.744237 0.000000 0.354595 0.684787 -0.728744 0.000000 255 255 255
1.412816 -0.103810 0.354595 0.000000 0.000000 1.000000 255 255 255
1.412816 -0.311430 0.354595 0.000000 0.000000 1.000000 255 255 255
1.744237 0.000000 0.354595 0.000000 0.000000 1.000000 255 255 255
1.744237 0.000000 0.354595 0.000000 0.000000 1.000000 255 255 255
1.412816 0.311430 0.000000 0.684787 0.728744 0.000000 255 255 255
1.412816 0.311430 0.354595 0.684787 0.728744 0.000000 255 255 255
1.744237 0.000000 0.354595 0.684787 0.728744 0.000000 255 255 255
1.744237 0.000000 0.000000 0.684787 0.728744 0.000000 255 255 255
-1.045676 -0.041261 0.027483 0.000000 0.000000 -1.000000 227 227 227
-1.045676 -0.123784 0.027483 0.000000 0.000000 -1.000000 240 240 240
-1.550488 -0.123784 0.027483 0.000000 0.000000 -1.000000 227 227 227
-1.550488 -0.041261 0.027483 0.000000 0.000000 -1.000000 227 227 227
-0.937419 0.311430 0.354595 -0.866185 0.499724 0.000000 255 255 255
-0.937419 0.311430 0.000000 -0.866185 0.499724 0.000000 255 255 255
-1.045676 0.123784 0.027483 -0.866185 0.499724 0.000000 227 227 227
-1.045676 0.123784 0.327113 -0.866185 0.499724 0.000000 255 255 255
-0.937419 0.103810 0.354595 -0.246057 0.000000 0.969255 255 255 255
-0.937419 0.311430 0.354595 -0.246057 0.000000 0.969255 255 255 255
-1.045676 0.123784 0.327113 -0.246057 0.000000 0.969255 255 255 255
-1.045676 0.041261 0.327113 -0.246057 0.000000 0.969255 245 245 245
-0.937419 -0.311430 0.000000 -0.866185 -0.499724 0.000000 227 227 227
-0.937419 -0.311430 0.354595 -0.866185 -0.499724 0.000000 233 233 233
-1.045676 -0.123784 0.327113 -0.866185 -0.499724 0.000000 227 227 227
-1.045676 -0.123784 0.027483 -0.866185 -0.499724 0.000000 227 227 227
-1.550488 0.041261 0.327113 -1.000000 0.000000 0.000000 227 227 227
-1.550488 0.123784 0.327113 -1.000000 0.000000 0.000000 227 227 227
-1.550488 0.123784 0.027483 -1.000000 0.000000 0.000000 227 227 227
-1.550488 0.041261 0.027483 -1.000000 0.000000 0.000000 227 227 227
-1.045676 0.123784 0.327113 -0.000000 1.000000 0.000000 255 255 255
-1.045676 0.123784 0.027483 -0.000000 1.000000 0.000000 255 255 255
-1.550488 0.123784 0.027483 -0.000000 1.000000 0.000000 255 255 255
-1.550488 0.123784 0.327113 -0.000000 1.000000 0.000000 255 255 255
-1.045676 0.041261 0.327113 -0.000000 0.000000 1.000000 245 245 245
-1.045676 0.123784 0.327113 -0.000000 0.000000 1.000000 255 255 255
-1.550488 0.123784 0.327113 -0.000000 0.000000 1.000000 227 227 227
-1.550488 0.041261 0.327113 -0.000000 0.000000 1.000000 227 227 227
-1.045676 -0.123784 0.027483 0.000000 -1.000000 0.000000 227 227 227
-1.045676 -0.123784 0.327113 0.000000 -1.000000 0.000000 227 227 227
-1.550488 -0.123784 0.327113 0.000000 -1.000000 0.000000 227 227 227
-1.550488 -0.123784 0.027483 0.000000 -1.000000 0.000000 227 227 227
-0.937419 0.311430 0.000000 -0.246058 0.000000 -0.969255 227 227 227
-0.937419 0.103810 0.000000 -0.246058 0.000000 -0.969255 236 236 236
-1.045676 0.041261 0.027483 -0.246058 0.000000 -0.969255 227 227 227
-1.045676 0.123784 0.027483 -0.246058 0.000000 -0.969255 228 228 228
1.412816 -0.311430 0.000000 0.000000 0.000000 -1.000000 229 229 229
1.412816 -0.103810 0.000000 0.000000 0.000000 -1.000000 244 244 244
1.744237 0.000000 0.000000 0.000000 0.000000 -1.000000 227 227 227
1.744237 0.000000 0.000000 0.000000 0.000000 -1.000000 227 227 227
-0.937419 -0.311430 0.000000 -0.000000 0.000000 -1.000000 255 255 255
-0.937419 -0.103810 0.000000 -0.000000 0.000000 -1.000000 227 227 227
-0.937419 -0.103810 0.354595 -0.000000 0.000000 1.000000 255 255 255
-0.937419 -0.311430 0.354595 -0.000000 0.000000 1.000000 233 233 233
1.744237 0.000000 0.354595 0.000000 0.000000 0.000000 255 255 255
1.744237 0.000000 0.354595 0.000000 0.000000 0.000000 255 255 255
1.744237 0.000000 0.000000 0.000000 0.000000 0.000000 255 255 255
1.744237 0.000000 0.000000 0.000000 0.000000 0.000000 255 255 255
1.744237 0.000000 0.354595 0.000000 0.000000 1.000000 255 255 255
1.744237 0.000000 0.354595 0.000000 0.000000 1.000000 255 255 255
-1.045676 0.123784 0.027483 0.000000 0.000000 -1.000000 228 228 228
-1.045676 0.041261 0.027483 0.000000 0.000000 -1.000000 227 227 227
-1.550488 0.041261 0.027483 0.000000 0.000000 -1.000000 227 227 227
-1.550488 0.123784 0.027483 0.000000 0.000000 -1.000000 227 227 227
-0.937419 -0.311430 0.354595 -0.246057 0.000000 0.969255 233 233 233
-0.937419 -0.103810 0.354595 -0.246057 0.000000 0.969255 255 255 255
-1.045676 -0.041261 0.327113 -0.246057 0.000000 0.969255 230 230 230
-1.045676 -0.123784 0.327113 -0.246057 0.000000 0.969255 227 227 227
-0.937419 -0.103810 0.354595 -0.246058 0.000000 0.969255 255 255 255
-0.937419 0.103810 0.354595 -0.246058 0.000000 0.969255 255 255 255
-1.045676 0.041261 0.327113 -0.246058 0.000000 0.969255 245 245 245
-1.045676 -0.041261 0.327113 -0.246058 0.000000 0.969255 230 230 230
-1.550488 -0.123784 0.327113 -1.000000 0.000000 0.000000 227 227 227
-1.550488 -0.041261 0.327113 -1.000000 0.000000 0.000000 227 227 227
-1.550488 -0.041261 0.027483 -1.000000 0.000000 0.000000 228 228 228
-1.550488 -0.123784 0.027483 -1.000000 0.000000 0.000000 243 243 243
-1.045676 -0.123784 0.327113 -0.000000 0.000000 1.000000 227 227 227
-1.045676 -0.041261 0.327113 -0.000000 0.000000 1.000000 230 230 230
-1.550488 -0.041261 0.327113 -0.000000 0.000000 1.000000 227 227 227
-1.550488 -0.123784 0.327113 -0.000000 0.000000 1.000000 227 227 227
4 0 1 2 3
4 4 5 6 7
4 8 9 10 11
4 12 13 14 15
4 16 17 9 8
4 18 19 20 21
4 22 23 24 25
4 26 27 28 29
4 30 31 32 33
4 34 35 36 37
4 38 39 40 41
4 42 43 44 45
4 46 47 48 49
4 50 51 52 53
4 54 55 56 57
4 58 59 60 61
4 62 63 64 65
4 66 67 68 69
4 70 71 72 73
4 71 0 3 72
4 74 75 76 77
4 75 8 11 76
4 78 79 75 74
4 79 16 8 75
4 31 30 80 81
4 30 18 21 80
4 82 83 84 85
4 83 22 25 84
4 19 18 86 87
4 18 30 33 86
4 88 89 90 91
4 89 38 41 90
4 92 93 94 95
4 96 97 98 99
4 100 101 102 103
4 101 54 57 102
4 104 105 106 107
4 105 62 65 106
