ply
format ascii 1.0
comment Created by Blender 2.71 (sub 0) - www.blender.org, source file: 'GreatswordBlade.blend'
element vertex 140
property float x
property float y
property float z
property float nx
property float ny
property float nz
property uchar red
property uchar green
property uchar blue
element face 62
property list uchar uint vertex_indices
end_header
0.186720 -0.031579 0.000000 -0.246576 0.000000 -0.969123 227 227 227
0.186720 -0.094736 0.000000 -0.246576 0.000000 -0.969123 255 255 255
0.153862 -0.037655 0.008360 -0.246576 0.000000 -0.969123 240 240 240
0.153862 -0.012552 0.008360 -0.246576 0.000000 -0.969123 227 227 227
0.700633 0.094736 0.107867 0.000000 1.000000 -0.000000 255 255 255
0.900053 0.094736 0.107867 0.000000 1.000000 -0.000000 255 255 255
0.900053 0.094736 0.000000 0.000000 1.000000 -0.000000 255 255 255
0.700633 0.094736 0.000000 0.000000 1.000000 -0.000000 255 255 255
0.900053 0.031579 0.000000 0.000000 0.000000 -1.000000 227 227 227
0.900053 0.094736 0.000000 0.000000 0.000000 -1.000000 229 229 229
1.000644 0.000000 0.000000 0.000000 0.000000 -1.000000 227 227 227
1.000644 0.000000 0.000000 0.000000 0.000000 -1.000000 227 227 227
0.186720 -0.094736 0.000000 0.000000 -1.000000 -0.000000 227 227 227
0.299999 -0.094736 0.000000 0.000000 -1.000000 -0.000000 228 228 228
0.299999 -0.094736 0.107867 0.000000 -1.000000 -0.000000 230 230 230
0.186720 -0.094736 0.107867 0.000000 -1.000000 -0.000000 233 233 233
0.700633 0.031579 0.000000 -0.000000 0.000000 -1.000000 228 228 228
0.700633 0.094736 0.000000 -0.000000 0.000000 -1.000000 228 228 228
0.299999 0.031579 0.107867 -0.000000 0.000000 1.000000 243 243 243
0.299999 0.094736 0.107867 -0.000000 0.000000 1.000000 241 241 241
0.186720 0.094736 0.107867 -0.000000 0.000000 1.000000 255 255 255
0.186720 0.031579 0.107867 -0.000000 0.000000 1.000000 255 255 255
1.000644 0.000000 0.107867 0.000000 0.000000 0.000000 255 255 255
1.000644 0.000000 0.107867 0.000000 0.000000 0.000000 255 255 255
1.000644 0.000000 0.000000 0.000000 0.000000 0.000000 255 255 255
1.000644 0.000000 0.000000 0.000000 0.000000 0.000000 255 255 255
0.900053 -0.094736 0.107867 0.685602 -0.727977 0.000000 255 255 255
0.900053 -0.094736 0.000000 0.685602 -0.727977 0.000000 255 255 255
1.000644 0.000000 0.000000 0.685602 -0.727977 0.000000 255 255 255
1.000644 0.000000 0.107867 0.685602 -0.727977 0.000000 255 255 255
0.900053 -0.031579 0.107867 0.000000 0.000000 1.000000 255 255 255
0.900053 -0.094736 0.107867 0.000000 0.000000 1.000000 255 255 255
1.000644 0.000000 0.107867 0.000000 0.000000 1.000000 255 255 255
1.000644 0.000000 0.107867 0.000000 0.000000 1.000000 255 255 255
0.900053 0.094736 0.000000 0.685602 0.727977 0.000000 255 255 255
0.900053 0.094736 0.107867 0.685602 0.727977 0.000000 255 255 255
1.000644 0.000000 0.107867 0.685602 0.727977 0.000000 255 255 255
1.000644 0.000000 0.000000 0.685602 0.727977 0.000000 255 255 255
0.153862 -0.012552 0.008360 0.000000 0.000000 -1.000000 227 227 227
0.153862 -0.037655 0.008360 0.000000 0.000000 -1.000000 240 240 240
0.000644 -0.037655 0.008360 0.000000 0.000000 -1.000000 227 227 227
0.000644 -0.012552 0.008360 0.000000 0.000000 -1.000000 227 227 227
0.186720 0.094736 0.107867 -0.866669 0.498884 0.000000 255 255 255
0.186720 0.094736 0.000000 -0.866669 0.498884 0.000000 255 255 255
0.153862 0.037655 0.008360 -0.866669 0.498884 0.000000 227 227 227
0.153862 0.037655 0.099506 -0.866669 0.498884 0.000000 255 255 255
0.186720 0.031579 0.107867 -0.246576 0.000000 0.969123 255 255 255
0.186720 0.094736 0.107867 -0.246576 0.000000 0.969123 255 255 255
0.153862 0.037655 0.099506 -0.246576 0.000000 0.969123 255 255 255
0.153862 0.012552 0.099506 -0.246576 0.000000 0.969123 245 245 245
0.186720 -0.094736 0.000000 -0.866669 -0.498884 0.000000 227 227 227
0.186720 -0.094736 0.107867 -0.866669 -0.498884 0.000000 233 233 233
0.153862 -0.037655 0.099506 -0.866669 -0.498884 0.000000 227 227 227
0.153862 -0.037655 0.008360 -0.866669 -0.498884 0.000000 227 227 227
0.000644 0.012552 0.099506 -1.000000 0.000000 0.000000 227 227 227
0.000644 0.037655 0.099506 -1.000000 0.000000 0.000000 227 227 227
0.000644 0.037655 0.008360 -1.000000 0.000000 0.000000 227 227 227
0.000644 0.012552 0.008360 -1.000000 0.000000 0.000000 227 227 227
0.153862 0.037655 0.099506 -0.000000 1.000000 0.000000 255 255 255
0.153862 0.037655 0.008360 -0.000000 1.000000 0.000000 255 255 255
0.000644 0.037655 0.008360 -0.000000 1.000000 0.000000 255 255 255
0.000644 0.037655 0.099506 -0.000000 1.000000 0.000000 255 255 255
0.153862 0.012552 0.099506 -0.000000 0.000000 1.000000 245 245 245
0.153862 0.037655 0.099506 -0.000000 0.000000 1.000000 255 255 255
0.000644 0.037655 0.099506 -0.000000 0.000000 1.000000 227 227 227
0.000644 0.012552 0.099506 -0.000000 0.000000 1.000000 227 227 227
0.153862 -0.037655 0.008360 0.000000 -1.000000 0.000000 227 227 227
0.153862 -0.037655 0.099506 0.000000 -1.000000 0.000000 227 227 227
0.000644 -0.037655 0.099506 0.000000 -1.000000 0.000000 227 227 227
0.000644 -0.037655 0.008360 0.000000 -1.000000 0.000000 227 227 227
0.186720 0.094736 0.000000 -0.246576 0.000000 -0.969123 227 227 227
0.186720 0.031579 0.000000 -0.246576 0.000000 -0.969123 236 236 236
0.153862 0.012552 0.008360 -0.246576 0.000000 -0.969123 227 227 227
0.153862 0.037655 0.008360 -0.246576 0.000000 -0.969123 228 228 228
0.900053 -0.094736 0.000000 0.000000 0.000000 -1.000000 229 229 229
0.900053 -0.031579 0.000000 0.000000 0.000000 -1.000000 244 244 244
1.000644 0.000000 0.000000 0.000000 0.000000 -1.000000 227 227 227
1.000644 0.000000 0.000000 0.000000 0.000000 -1.000000 227 227 227
0.700633 -0.094736 0.000000 -0.000000 0.000000 -1.000000 232 232 232
0.700633 -0.031579 0.000000 -0.000000 0.000000 -1.000000 241 241 241
0.299999 -0.094736 0.107867 -0.000000 0.000000 1.000000 244 244 244
0.299999 -0.031579 0.107867 -0.000000 0.000000 1.000000 255 255 255
0.186720 -0.031579 0.107867 -0.000000 0.000000 1.000000 255 255 255
0.186720 -0.094736 0.107867 -0.000000 0.000000 1.000000 233 233 233
1.000644 0.000000 0.107867 0.000000 0.000000 0.000000 255 255 255
1.000644 0.000000 0.107867 0.000000 0.000000 0.000000 255 255 255
1.000644 0.000000 0.000000 0.000000 0.000000 0.000000 255 255 255
1.000644 0.000000 0.000000 0.000000 0.000000 0.000000 255 255 255
0.900053 0.094736 0.107867 0.000000 0.000000 1.000000 227 227 227
0.900053 0.031579 0.107867 0.000000 0.000000 1.000000 232 232 232
1.000644 0.000000 0.107867 0.000000 0.000000 1.000000 255 255 255
1.000644 0.000000 0.107867 0.000000 0.000000 1.000000 255 255 255
0.153862 0.037655 0.008360 0.000000 0.000000 -1.000000 228 228 228
0.153862 0.012552 0.008360 0.000000 0.000000 -1.000000 227 227 227
0.000644 0.012552 0.008360 0.000000 0.000000 -1.000000 227 227 227
0.000644 0.037655 0.008360 0.000000 0.000000 -1.000000 227 227 227
0.186720 -0.094736 0.107867 -0.246576 0.000000 0.969123 233 233 233
0.186720 -0.031579 0.107867 -0.246576 0.000000 0.969123 255 255 255
0.153862 -0.012552 0.099506 -0.246576 0.000000 0.969123 230 230 230
0.153862 -0.037655 0.099506 -0.246576 0.000000 0.969123 227 227 227
0.000644 -0.037655 0.099506 -1.000000 0.000000 0.000000 227 227 227
0.000644 -0.012552 0.099506 -1.000000 0.000000 0.000000 227 227 227
0.000644 -0.012552 0.008360 -1.000000 0.000000 0.000000 228 228 228
0.000644 -0.037655 0.008360 -1.000000 0.000000 0.000000 243 243 243
0.153862 -0.037655 0.099506 -0.000000 0.000000 1.000000 227 227 227
0.153862 -0.012552 0.099506 -0.000000 0.000000 1.000000 230 230 230
0.000644 -0.012552 0.099506 -0.000000 0.000000 1.000000 227 227 227
0.000644 -0.037655 0.099506 -0.000000 0.000000 1.000000 227 227 227
0.186720 0.094736 0.107867 0.000000 1.000000 -0.000000 255 255 255
0.299999 0.094736 0.107867 0.000000 1.000000 -0.000000 255 255 255
0.299999 0.094736 0.000000 0.000000 1.000000 -0.000000 255 255 255
0.186720 0.094736 0.000000 0.000000 1.000000 -0.000000 255 255 255
0.501214 -0.094736 0.107867 0.000000 -1.000000 0.000000 228 228 228
0.501214 -0.094736 0.000000 0.000000 -1.000000 0.000000 228 228 228
0.186720 0.031579 0.000000 -0.000000 0.000000 -1.000000 236 236 236
0.186720 0.094736 0.000000 -0.000000 0.000000 -1.000000 227 227 227
0.299999 0.094736 0.000000 -0.000000 0.000000 -1.000000 228 228 228
0.299999 0.031579 0.000000 -0.000000 0.000000 -1.000000 231 231 231
0.501214 0.031579 0.107867 -0.000000 0.000000 1.000000 237 237 237
0.501214 0.094736 0.107867 -0.000000 0.000000 1.000000 234 234 234
0.186720 -0.094736 0.000000 -0.000000 0.000000 -1.000000 255 255 255
0.186720 -0.031579 0.000000 -0.000000 0.000000 -1.000000 227 227 227
0.299999 -0.031579 0.000000 -0.000000 0.000000 -1.000000 235 235 235
0.299999 -0.094736 0.000000 -0.000000 0.000000 -1.000000 242 242 242
0.501214 -0.094736 0.107867 -0.000000 0.000000 1.000000 249 249 249
0.501214 -0.031579 0.107867 -0.000000 0.000000 1.000000 255 255 255
0.501214 0.094736 0.107867 0.000000 1.000000 -0.000000 255 255 255
0.501214 0.094736 0.000000 0.000000 1.000000 -0.000000 255 255 255
0.501214 0.094736 0.000000 -0.000000 0.000000 -1.000000 228 228 228
0.501214 0.031579 0.000000 -0.000000 0.000000 -1.000000 229 229 229
0.501214 -0.031579 0.000000 -0.000000 0.000000 -1.000000 239 239 239
0.501214 -0.094736 0.000000 -0.000000 0.000000 -1.000000 235 235 235
0.700633 -0.094736 0.107867 0.000000 -1.000000 0.000000 227 227 227
0.700633 -0.094736 0.000000 0.000000 -1.000000 0.000000 228 228 228
0.700633 0.031579 0.107867 -0.000000 0.000000 1.000000 234 234 234
0.700633 0.094736 0.107867 -0.000000 0.000000 1.000000 230 230 230
0.700633 -0.094736 0.107867 -0.000000 0.000000 1.000000 252 252 252
0.700633 -0.031579 0.107867 -0.000000 0.000000 1.000000 255 255 255
0.900053 -0.094736 0.107867 0.000000 -1.000000 0.000000 227 227 227
0.900053 -0.094736 0.000000 0.000000 -1.000000 0.000000 229 229 229
4 0 1 2 3
4 4 5 6 7
4 8 9 10 11
4 12 13 14 15
4 16 17 9 8
4 18 19 20 21
4 22 23 24 25
4 26 27 28 29
4 30 31 32 33
4 34 35 36 37
4 38 39 40 41
4 42 43 44 45
4 46 47 48 49
4 50 51 52 53
4 54 55 56 57
4 58 59 60 61
4 62 63 64 65
4 66 67 68 69
4 70 71 72 73
4 71 0 3 72
4 74 75 76 77
4 75 8 11 76
4 78 79 75 74
4 79 16 8 75
4 80 81 82 83
4 81 18 21 82
4 84 85 86 87
4 85 22 25 86
4 88 89 90 91
4 89 30 33 90
4 92 93 94 95
4 93 38 41 94
4 96 97 98 99
4 97 46 49 98
4 100 101 102 103
4 101 54 57 102
4 104 105 106 107
4 105 62 65 106
4 108 109 110 111
4 112 14 13 113
4 114 115 116 117
4 118 119 19 18
4 120 121 122 123
4 121 114 117 122
4 124 125 81 80
4 125 118 18 81
4 109 126 127 110
4 117 116 128 129
4 123 122 130 131
4 122 117 129 130
4 132 112 113 133
4 134 135 119 118
4 136 137 125 124
4 137 134 118 125
4 126 4 7 127
4 129 128 17 16
4 131 130 79 78
4 130 129 16 79
4 138 132 133 139
4 89 88 135 134
4 31 30 137 136
4 30 89 134 137
