ply
format ascii 1.0
comment Created by Blender 2.71 (sub 0) - www.blender.org, source file: 'GreatswordCast.blend'
element vertex 93
property float x
property float y
property float z
property float nx
property float ny
property float nz
property uchar red
property uchar green
property uchar blue
element face 45
property list uchar uint vertex_indices
end_header
1.999998 1.000003 0.392042 1.000000 0.000002 0.000000 255 255 255
2.000002 -0.999997 0.392042 1.000000 0.000002 0.000000 255 255 255
2.000002 -0.999997 0.000000 1.000000 0.000002 0.000000 255 255 255
1.999998 1.000003 0.000000 1.000000 0.000002 0.000000 225 241 226
-2.000002 0.999997 0.392042 -0.000002 1.000000 0.000000 255 248 245
1.999998 1.000003 0.392042 -0.000002 1.000000 0.000000 255 255 255
1.999998 1.000003 0.000000 -0.000002 1.000000 0.000000 225 241 226
-2.000002 0.999997 0.000000 -0.000002 1.000000 0.000000 225 238 222
-0.957362 -0.325488 0.392042 -0.000000 0.000000 1.000000 255 255 255
-1.014008 -0.157358 0.392042 -0.000000 0.000000 1.000000 255 255 255
-1.577935 -0.157359 0.392042 -0.000000 0.000000 1.000000 255 255 254
-1.577936 0.157354 0.392042 0.000000 0.000000 1.000000 255 249 247
-2.000002 0.999997 0.392042 0.000000 0.000000 1.000000 221 254 224
-1.999998 -1.000003 0.392042 -0.000000 -0.000000 1.000000 240 254 244
1.430643 -0.325484 0.392042 0.000000 0.000000 1.000000 255 254 255
2.000002 -0.999997 0.392042 -0.000000 0.000000 1.000000 240 216 244
1.739184 0.000003 0.392042 0.000000 0.000000 0.000000 248 244 248
1.739184 0.000003 0.392042 0.000000 0.000000 0.000000 248 244 248
1.739184 0.000003 0.392042 0.000000 0.000000 0.000000 248 244 248
2.000002 -0.999997 0.392042 0.000000 0.000000 0.000000 240 216 244
1.739184 0.000003 0.392042 -0.000000 0.000000 1.000000 248 244 248
-1.014009 0.157355 0.392042 0.000000 0.000000 1.000000 255 255 255
1.999998 1.000003 0.392042 0.000000 -0.000000 1.000000 219 197 223
1.739184 0.000003 0.392042 0.000000 -0.000000 1.000000 248 244 248
-0.957363 0.325485 0.392042 0.000000 0.000000 1.000000 255 255 255
1.430642 0.325489 0.392042 0.000000 -0.000000 1.000000 225 207 229
2.000002 -0.999997 0.392042 0.000002 -1.000000 0.000000 240 216 244
-1.999998 -1.000003 0.392042 0.000002 -1.000000 0.000000 239 254 243
-1.999998 -1.000003 0.000000 0.000002 -1.000000 0.000000 219 254 223
2.000002 -0.999997 0.000000 0.000002 -1.000000 0.000000 223 201 227
1.999998 1.000003 0.000000 0.000000 0.000000 -1.000000 220 255 224
2.000002 -0.999997 0.000000 0.000000 0.000000 -1.000000 226 210 229
1.739184 0.000003 0.000000 0.000000 0.000000 -1.000000 250 247 250
-0.957363 0.325485 0.000000 0.000000 0.000000 -1.000000 255 255 255
-1.014009 0.157355 0.000000 0.000000 0.000000 -1.000000 255 255 255
-1.577936 0.157354 0.000000 0.000000 0.000000 -1.000000 248 255 250
-1.999998 -1.000003 0.000000 0.000000 0.000000 -1.000000 219 255 223
-2.000002 0.999997 0.000000 0.000000 0.000000 -1.000000 219 255 223
1.430642 0.325489 0.000000 0.000000 0.000000 -1.000000 255 255 255
-1.577935 -0.157359 0.000000 -0.000000 0.000000 -1.000000 255 255 255
-1.014008 -0.157358 0.000000 -0.000000 0.000000 -1.000000 255 255 255
-0.957362 -0.325488 0.000000 -0.000000 0.000000 -1.000000 255 255 255
1.430643 -0.325484 0.000000 0.000000 -0.000000 -1.000000 248 244 249
1.739184 0.000003 0.000000 0.000000 0.000000 0.000000 250 247 250
1.739184 0.000003 0.000000 0.000000 0.000000 0.000000 250 247 250
1.739184 0.000003 0.000000 0.000000 0.000000 0.000000 250 247 250
1.430643 -0.325484 0.000000 0.000000 0.000000 0.000000 248 244 249
-1.999998 -1.000003 0.392042 -1.000000 -0.000002 0.000000 240 254 244
-2.000002 0.999997 0.392042 -1.000000 -0.000002 0.000000 255 248 245
-2.000002 0.999997 0.000000 -1.000000 -0.000002 0.000000 255 248 245
-1.999998 -1.000003 0.000000 -1.000000 -0.000002 0.000000 240 252 244
-1.577935 -0.157359 0.392042 -0.000002 1.000000 0.000000 255 255 254
-1.014008 -0.157358 0.392042 -0.000002 1.000000 0.000000 255 255 255
-1.014008 -0.157358 0.000000 -0.000002 1.000000 0.000000 255 252 250
-1.577935 -0.157359 0.000000 -0.000002 1.000000 0.000000 255 248 245
-1.577936 0.157354 0.392042 1.000000 0.000002 0.000000 255 255 255
-1.577935 -0.157359 0.392042 1.000000 0.000002 0.000000 246 255 247
-1.577935 -0.157359 0.000000 1.000000 0.000002 0.000000 255 255 255
-1.577936 0.157354 0.000000 1.000000 0.000002 0.000000 248 255 250
-1.014008 -0.157358 0.392042 0.947658 0.319287 0.000000 255 255 255
-0.957362 -0.325488 0.392042 0.947658 0.319287 0.000000 255 255 255
-0.957362 -0.325488 0.000000 0.947658 0.319287 0.000000 255 255 255
-1.014008 -0.157358 0.000000 0.947658 0.319287 0.000000 255 255 255
-1.014009 0.157355 0.392042 0.000002 -1.000000 0.000000 255 255 255
-1.577936 0.157354 0.392042 0.000002 -1.000000 0.000000 255 255 255
-1.577936 0.157354 0.000000 0.000002 -1.000000 0.000000 248 255 250
-1.014009 0.157355 0.000000 0.000002 -1.000000 0.000000 255 255 255
-0.957362 -0.325488 0.392042 -0.000002 1.000000 0.000000 255 255 255
1.430643 -0.325484 0.392042 -0.000002 1.000000 0.000000 255 255 255
1.430643 -0.325484 0.000000 -0.000002 1.000000 0.000000 255 255 255
-0.957362 -0.325488 0.000000 -0.000002 1.000000 0.000000 255 255 255
-1.014009 0.157355 0.000000 0.947659 -0.319283 0.000000 255 255 255
-0.957363 0.325485 0.000000 0.947659 -0.319283 0.000000 255 255 255
-0.957363 0.325485 0.392042 0.947659 -0.319283 0.000000 255 255 255
-1.014009 0.157355 0.392042 0.947659 -0.319283 0.000000 255 255 255
1.430643 -0.325484 0.392042 -0.725747 0.687961 0.000000 255 254 255
1.739184 0.000003 0.392042 -0.725747 0.687961 0.000000 248 244 248
1.739184 0.000003 0.000000 -0.725747 0.687961 0.000000 255 255 255
1.430643 -0.325484 0.000000 -0.725747 0.687961 0.000000 255 255 255
-0.957363 0.325485 0.000000 0.000002 -1.000000 0.000000 255 255 255
1.430642 0.325489 0.000000 0.000002 -1.000000 0.000000 255 255 255
1.430642 0.325489 0.392042 0.000002 -1.000000 0.000000 225 207 229
-0.957363 0.325485 0.392042 0.000002 -1.000000 0.000000 255 255 255
1.739184 0.000003 0.392042 0.000000 0.000000 0.000000 255 255 255
1.739184 0.000003 0.392042 0.000000 0.000000 0.000000 255 255 255
1.739184 0.000003 0.000000 0.000000 0.000000 0.000000 255 255 255
1.739184 0.000003 0.000000 0.000000 0.000000 0.000000 255 255 255
1.430642 0.325489 0.000000 -0.725745 -0.687964 0.000000 255 255 255
1.739184 0.000003 0.000000 -0.725745 -0.687964 0.000000 250 247 250
1.739184 0.000003 0.392042 -0.725745 -0.687964 0.000000 219 198 223
1.430642 0.325489 0.392042 -0.725745 -0.687964 0.000000 225 207 229
1.739184 0.000003 0.392042 0.000000 0.000000 0.000000 255 255 255
1.739184 0.000003 0.000000 0.000000 0.000000 0.000000 255 255 255
4 0 1 2 3
4 4 5 6 7
3 8 9 10
3 10 11 12
3 10 12 13
3 8 10 13
3 14 8 13
3 15 14 13
3 16 17 18
3 19 16 18
3 15 20 14
3 12 11 21
3 22 23 15
3 12 21 24
3 22 25 23
3 22 12 24
3 22 24 25
4 26 27 28 29
3 30 31 32
3 33 34 35
3 35 36 37
3 30 32 38
3 33 35 37
3 30 38 37
3 38 33 37
3 36 35 39
3 39 40 41
3 36 39 41
3 31 36 41
3 31 41 42
3 43 44 45
3 46 43 45
3 31 42 32
4 47 48 49 50
4 51 52 53 54
4 55 56 57 58
4 59 60 61 62
4 63 64 65 66
4 67 68 69 70
4 71 72 73 74
4 75 76 77 78
4 79 80 81 82
4 83 84 85 86
4 87 88 89 90
4 84 91 92 85
