ply
format ascii 1.0
comment Created by Blender 2.71 (sub 0) - www.blender.org, source file: 'GreatswordBlade.blend'
element vertex 149
property float x
property float y
property float z
property float nx
property float ny
property float nz
property uchar red
property uchar green
property uchar blue
element face 62
property list uchar uint vertex_indices
end_header
0.186720 -0.031579 -0.050000 -0.246576 -0.000000 -0.969123 0 0 0
0.186720 -0.094736 -0.050000 -0.246576 -0.000000 -0.969123 255 102 0
0.153862 -0.037655 -0.041640 -0.246576 -0.000000 -0.969123 0 0 0
0.153862 -0.032420 -0.041640 -0.246576 -0.000000 -0.969123 0 0 0
0.700633 0.094736 0.057867 0.000000 1.000000 -0.000000 255 102 0
0.900053 0.094736 0.057867 0.000000 1.000000 -0.000000 255 102 0
0.900053 0.094736 -0.050000 0.000000 1.000000 -0.000000 255 102 0
0.700633 0.094736 -0.050000 0.000000 1.000000 -0.000000 255 102 0
0.900053 0.031579 -0.050000 -0.000000 0.000000 -1.000000 0 0 0
0.900053 0.094736 -0.050000 -0.000000 0.000000 -1.000000 255 102 0
1.000644 0.000000 -0.050000 -0.000000 0.000000 -1.000000 255 0 11
1.000644 0.000000 -0.050000 -0.000000 0.000000 -1.000000 255 0 11
0.186720 -0.094736 -0.050000 0.000000 -1.000000 -0.000000 255 102 0
0.299999 -0.094736 -0.050000 0.000000 -1.000000 -0.000000 255 102 0
0.299999 -0.094736 0.057867 0.000000 -1.000000 -0.000000 247 99 0
0.186720 -0.094736 0.057867 0.000000 -1.000000 -0.000000 255 102 0
0.700633 0.031579 -0.050000 -0.000000 0.000000 -1.000000 3 1 0
0.700633 0.094736 -0.050000 -0.000000 0.000000 -1.000000 255 102 0
0.299999 0.031579 0.057867 -0.000000 0.000000 1.000000 0 0 0
0.299999 0.094736 0.057867 -0.000000 0.000000 1.000000 255 102 0
0.186720 0.094736 0.057867 -0.000000 0.000000 1.000000 254 102 0
0.186720 0.031579 0.057867 -0.000000 0.000000 1.000000 0 0 0
1.000644 0.000000 0.057867 0.000000 0.000000 0.000000 255 0 0
1.000644 0.000000 0.057867 0.000000 0.000000 0.000000 255 0 0
1.000644 0.000000 -0.050000 0.000000 0.000000 0.000000 255 0 0
1.000644 0.000000 -0.050000 0.000000 0.000000 0.000000 255 0 0
0.900053 -0.094736 0.057867 0.685601 -0.727977 0.000000 254 102 0
0.900053 -0.094736 -0.050000 0.685601 -0.727977 0.000000 255 102 0
1.000644 0.000000 -0.050000 0.685601 -0.727977 0.000000 255 0 11
1.000644 0.000000 0.057867 0.685601 -0.727977 0.000000 255 0 0
0.900053 -0.031579 0.057867 0.000000 0.000000 1.000000 0 0 0
0.900053 -0.094736 0.057867 0.000000 0.000000 1.000000 254 102 0
1.000644 0.000000 0.057867 0.000000 0.000000 1.000000 255 0 0
1.000644 0.000000 0.057867 0.000000 0.000000 1.000000 255 0 0
0.900053 0.094736 -0.050000 0.685601 0.727977 0.000000 255 102 0
0.900053 0.094736 0.057867 0.685601 0.727977 0.000000 255 102 0
1.000644 0.000000 0.057867 0.685601 0.727977 0.000000 255 0 0
1.000644 0.000000 -0.050000 0.685601 0.727977 0.000000 255 0 11
0.153862 -0.032420 -0.041640 0.000000 -0.000001 -1.000000 0 0 0
0.153862 -0.037655 -0.041640 0.000000 -0.000001 -1.000000 0 0 0
0.000644 -0.037655 -0.041640 0.000000 -0.000001 -1.000000 0 0 0
0.000644 -0.032420 -0.041640 0.000000 -0.000001 -1.000000 0 0 0
0.186720 0.094736 0.057867 -0.866669 0.498884 0.000000 254 102 0
0.186720 0.094736 -0.050000 -0.866669 0.498884 0.000000 255 102 0
0.153862 0.037655 -0.041640 -0.866669 0.498884 0.000000 0 0 0
0.153862 0.037655 0.049506 -0.866669 0.498884 0.000000 0 0 0
0.186720 0.031579 0.057867 -0.246576 0.000000 0.969123 0 0 0
0.186720 0.094736 0.057867 -0.246576 0.000000 0.969123 254 102 0
0.153862 0.037655 0.049506 -0.246576 0.000000 0.969123 0 0 0
0.153862 0.032420 0.049506 -0.246576 0.000000 0.969123 0 0 0
0.186720 -0.094736 -0.050000 -0.866669 -0.498884 0.000000 255 102 0
0.186720 -0.094736 0.057867 -0.866669 -0.498884 0.000000 255 102 0
0.153862 -0.037655 0.049506 -0.866669 -0.498884 0.000000 0 0 0
0.153862 -0.037655 -0.041640 -0.866669 -0.498884 0.000000 21 9 0
0.000644 0.032420 0.049506 -1.000000 0.000000 0.000000 0 0 0
0.000644 0.037655 0.049506 -1.000000 0.000000 0.000000 0 0 0
0.000644 0.037655 -0.041640 -1.000000 0.000000 0.000000 0 0 0
0.000644 0.032420 -0.041640 -1.000000 0.000000 0.000000 0 0 0
0.153862 0.037655 0.049506 -0.000000 1.000000 0.000000 0 0 0
0.153862 0.037655 -0.041640 -0.000000 1.000000 0.000000 0 0 0
0.000644 0.037655 -0.041640 -0.000000 1.000000 0.000000 0 0 0
0.000644 0.037655 0.049506 -0.000000 1.000000 0.000000 0 0 0
0.153862 0.032420 0.049506 0.000000 0.000001 1.000000 0 0 0
0.153862 0.037655 0.049506 0.000000 0.000001 1.000000 0 0 0
0.000644 0.037655 0.049506 0.000000 0.000001 1.000000 0 0 0
0.000644 0.032420 0.049506 0.000000 0.000001 1.000000 0 0 0
0.153862 -0.037655 -0.041640 0.000000 -1.000000 0.000000 21 9 0
0.153862 -0.037655 0.049506 0.000000 -1.000000 0.000000 0 0 0
0.000644 -0.037655 0.049506 0.000000 -1.000000 0.000000 0 0 0
0.000644 -0.037655 -0.041640 0.000000 -1.000000 0.000000 0 0 0
0.186720 0.094736 -0.050000 -0.246576 0.000000 -0.969123 254 101 0
0.186720 0.031579 -0.050000 -0.246576 0.000000 -0.969123 0 0 0
0.153862 0.032420 -0.041640 -0.246576 0.000000 -0.969123 0 0 0
0.153862 0.037655 -0.041640 -0.246576 0.000000 -0.969123 0 0 0
0.900053 -0.094736 -0.050000 -0.000000 0.000000 -1.000000 255 102 0
0.900053 -0.031579 -0.050000 -0.000000 0.000000 -1.000000 0 0 0
1.000644 0.000000 -0.050000 -0.000000 0.000000 -1.000000 255 0 11
1.000644 0.000000 -0.050000 -0.000000 0.000000 -1.000000 255 0 11
0.700633 -0.094736 -0.050000 -0.000000 0.000000 -1.000000 255 102 0
0.700633 -0.031579 -0.050000 -0.000000 0.000000 -1.000000 0 0 0
0.700633 0.031579 -0.050000 -0.000000 0.000000 -1.000000 0 0 0
0.299999 -0.094736 0.057867 -0.000000 0.000000 1.000000 242 97 0
0.299999 -0.031579 0.057867 -0.000000 0.000000 1.000000 0 0 0
0.186720 -0.031579 0.057867 -0.000000 0.000000 1.000000 0 0 0
0.186720 -0.094736 0.057867 -0.000000 0.000000 1.000000 255 102 0
1.000644 0.000000 0.057867 0.000000 0.000000 0.000000 255 0 0
1.000644 0.000000 0.057867 0.000000 0.000000 0.000000 255 0 0
1.000644 0.000000 -0.050000 0.000000 0.000000 0.000000 255 0 0
1.000644 0.000000 -0.050000 0.000000 0.000000 0.000000 255 0 0
0.900053 0.094736 0.057867 0.000000 0.000000 1.000000 255 102 0
0.900053 0.031579 0.057867 0.000000 0.000000 1.000000 0 0 0
1.000644 0.000000 0.057867 0.000000 0.000000 1.000000 255 0 0
1.000644 0.000000 0.057867 0.000000 0.000000 1.000000 255 0 0
0.153862 0.037655 -0.041640 0.000000 0.000001 -1.000000 0 0 0
0.153862 0.032420 -0.041640 0.000000 0.000001 -1.000000 0 0 0
0.000644 0.032420 -0.041640 0.000000 0.000001 -1.000000 0 0 0
0.000644 0.037655 -0.041640 0.000000 0.000001 -1.000000 0 0 0
0.153862 0.032420 -0.041640 0.000000 0.000000 -1.000000 0 0 0
0.153862 -0.032420 -0.041640 0.000000 0.000000 -1.000000 0 0 0
0.000644 -0.032420 -0.041640 0.000000 0.000000 -1.000000 0 0 0
0.000644 0.032420 -0.041640 0.000000 0.000000 -1.000000 0 0 0
0.186720 -0.094736 0.057867 -0.246576 -0.000000 0.969123 255 102 0
0.186720 -0.031579 0.057867 -0.246576 -0.000000 0.969123 0 0 0
0.153862 -0.032420 0.049506 -0.246576 -0.000000 0.969123 0 0 0
0.153862 -0.037655 0.049506 -0.246576 -0.000000 0.969123 0 0 0
0.000644 -0.037655 0.049506 -1.000000 0.000000 0.000000 0 0 0
0.000644 -0.032420 0.049506 -1.000000 0.000000 0.000000 0 0 0
0.000644 -0.032420 -0.041640 -1.000000 0.000000 0.000000 0 0 0
0.000644 -0.037655 -0.041640 -1.000000 0.000000 0.000000 0 0 0
0.153862 -0.037655 0.049506 0.000000 -0.000001 1.000000 0 0 0
0.153862 -0.032420 0.049506 0.000000 -0.000001 1.000000 0 0 0
0.000644 -0.032420 0.049506 0.000000 -0.000001 1.000000 0 0 0
0.000644 -0.037655 0.049506 0.000000 -0.000001 1.000000 0 0 0
0.153862 -0.032420 0.049506 -0.000000 0.000000 1.000000 0 0 0
0.153862 0.032420 0.049506 -0.000000 0.000000 1.000000 0 0 0
0.000644 0.032420 0.049506 -0.000000 0.000000 1.000000 0 0 0
0.000644 -0.032420 0.049506 -0.000000 0.000000 1.000000 0 0 0
0.186720 0.094736 0.057867 0.000000 1.000000 -0.000000 254 102 0
0.299999 0.094736 0.057867 0.000000 1.000000 -0.000000 255 102 0
0.299999 0.094736 -0.050000 0.000000 1.000000 -0.000000 255 102 0
0.186720 0.094736 -0.050000 0.000000 1.000000 -0.000000 255 102 0
0.501214 -0.094736 0.057867 0.000000 -1.000000 0.000000 255 102 0
0.501214 -0.094736 -0.050000 0.000000 -1.000000 0.000000 255 102 0
0.186720 0.031579 -0.050000 -0.000000 0.000000 -1.000000 0 0 0
0.186720 0.094736 -0.050000 -0.000000 0.000000 -1.000000 254 101 0
0.299999 0.094736 -0.050000 -0.000000 0.000000 -1.000000 252 100 0
0.299999 0.031579 -0.050000 -0.000000 0.000000 -1.000000 0 0 0
0.501214 0.031579 0.057867 -0.000000 0.000000 1.000000 0 0 0
0.501214 0.094736 0.057867 -0.000000 0.000000 1.000000 255 102 0
0.186720 -0.094736 -0.050000 -0.000000 0.000000 -1.000000 255 102 0
0.186720 -0.031579 -0.050000 -0.000000 0.000000 -1.000000 0 0 0
0.299999 -0.031579 -0.050000 -0.000000 0.000000 -1.000000 0 0 0
0.299999 -0.094736 -0.050000 -0.000000 0.000000 -1.000000 255 102 0
0.501214 -0.094736 0.057867 -0.000000 0.000000 1.000000 255 102 0
0.501214 -0.031579 0.057867 -0.000000 0.000000 1.000000 0 0 0
0.501214 0.094736 0.057867 0.000000 1.000000 -0.000000 255 102 0
0.501214 0.094736 -0.050000 0.000000 1.000000 -0.000000 255 102 0
0.501214 0.094736 -0.050000 -0.000000 0.000000 -1.000000 255 102 0
0.501214 0.031579 -0.050000 -0.000000 0.000000 -1.000000 0 0 0
0.501214 -0.031579 -0.050000 -0.000000 0.000000 -1.000000 0 0 0
0.501214 -0.094736 -0.050000 -0.000000 0.000000 -1.000000 255 102 0
0.700633 -0.094736 0.057867 0.000000 -1.000000 0.000000 255 102 0
0.700633 -0.094736 -0.050000 0.000000 -1.000000 0.000000 255 102 0
0.700633 0.031579 0.057867 -0.000000 0.000000 1.000000 18 7 0
0.700633 0.094736 0.057867 -0.000000 0.000000 1.000000 255 102 0
0.700633 -0.094736 0.057867 -0.000000 0.000000 1.000000 255 102 0
0.700633 -0.031579 0.057867 -0.000000 0.000000 1.000000 0 0 0
0.900053 -0.094736 0.057867 0.000000 -1.000000 0.000000 254 102 0
0.900053 -0.094736 -0.050000 0.000000 -1.000000 0.000000 255 102 0
4 0 1 2 3
4 4 5 6 7
4 8 9 10 11
4 12 13 14 15
4 16 17 9 8
4 18 19 20 21
4 22 23 24 25
4 26 27 28 29
4 30 31 32 33
4 34 35 36 37
4 38 39 40 41
4 42 43 44 45
4 46 47 48 49
4 50 51 52 53
4 54 55 56 57
4 58 59 60 61
4 62 63 64 65
4 66 67 68 69
4 70 71 72 73
4 71 0 3 72
4 74 75 76 77
4 75 8 11 76
4 78 79 75 74
4 79 80 8 75
4 81 82 83 84
4 82 18 21 83
4 85 86 87 88
4 86 22 25 87
4 89 90 91 92
4 90 30 33 91
4 93 94 95 96
4 97 98 99 100
4 101 102 103 104
4 102 46 49 103
4 105 106 107 108
4 106 54 57 107
4 109 110 111 112
4 113 114 115 116
4 117 118 119 120
4 121 14 13 122
4 123 124 125 126
4 127 128 19 18
4 129 130 131 132
4 130 123 126 131
4 133 134 82 81
4 134 127 18 82
4 118 135 136 119
4 126 125 137 138
4 132 131 139 140
4 131 126 138 139
4 141 121 122 142
4 143 144 128 127
4 145 146 134 133
4 146 143 127 134
4 135 4 7 136
4 138 137 17 80
4 140 139 79 78
4 139 138 80 79
4 147 141 142 148
4 90 89 144 143
4 31 30 146 145
4 30 90 143 146
