ply
format ascii 1.0
comment Created by Blender 2.73 (sub 0) - www.blender.org, source file: 'hatchHole.blend'
element vertex 44
property float x
property float y
property float z
property float nx
property float ny
property float nz
property uchar red
property uchar green
property uchar blue
element face 13
property list uchar uint vertex_indices
end_header
-2.999998 2.999999 0.000631 0.000000 0.000000 1.000000 120 68 22
-3.000000 -2.999998 0.000631 0.000000 0.000000 1.000000 120 68 22
-2.830120 -2.830119 0.000631 0.000000 0.000000 1.000000 143 100 62
-2.830119 2.830120 0.000631 0.000000 0.000000 1.000000 135 96 61
2.925418 2.925419 -0.104380 0.815299 -0.000000 -0.579040 121 70 25
3.000000 2.999998 0.000631 0.815299 -0.000000 -0.579040 124 73 29
2.999997 -3.000001 0.000631 0.815299 -0.000000 -0.579040 120 68 22
2.925418 -2.925419 -0.104380 0.815299 -0.000000 -0.579040 121 70 24
2.925418 -2.925419 -0.104380 -0.000000 -0.815297 -0.579043 120 68 22
2.999997 -3.000001 0.000631 -0.000000 -0.815297 -0.579043 120 68 22
-3.000000 -2.999998 0.000631 -0.000000 -0.815297 -0.579043 126 76 32
-2.925418 -2.925418 -0.104380 -0.000000 -0.815297 -0.579043 123 72 27
-2.925418 -2.925418 -0.104380 -0.815296 0.000000 -0.579044 120 68 22
-3.000000 -2.999998 0.000631 -0.815296 0.000000 -0.579044 121 69 23
-2.999998 2.999999 0.000631 -0.815296 0.000000 -0.579044 120 69 23
-2.925417 2.925420 -0.104380 -0.815296 0.000000 -0.579044 120 68 22
3.000000 2.999998 0.000631 0.000000 0.815304 -0.579033 120 68 22
2.925418 2.925419 -0.104380 0.000000 0.815304 -0.579033 120 68 22
-2.925417 2.925420 -0.104380 0.000000 0.815304 -0.579033 120 68 22
-2.999998 2.999999 0.000631 0.000000 0.815304 -0.579033 120 68 22
-2.830119 2.830120 0.000631 1.000000 -0.000000 0.000000 135 96 61
-2.830120 -2.830119 0.000631 1.000000 -0.000000 0.000000 143 100 62
-2.830120 -2.830119 -0.075905 1.000000 -0.000000 0.000000 10 3 1
-2.830119 2.830120 -0.075905 1.000000 -0.000000 0.000000 2 2 2
2.999997 -3.000001 0.000631 0.000000 0.000000 1.000000 120 68 22
2.830117 -2.830121 0.000631 0.000000 0.000000 1.000000 126 76 32
3.000000 2.999998 0.000631 0.000000 -0.000000 1.000000 120 68 22
2.830121 2.830118 0.000631 0.000000 -0.000000 1.000000 136 91 52
2.830121 2.830118 -0.075905 0.000000 -0.000000 1.000000 1 0 0
-2.830119 2.830120 -0.075905 0.000000 -0.000000 1.000000 5 4 3
-2.830120 -2.830119 -0.075905 0.000000 -0.000000 1.000000 10 3 1
2.830117 -2.830121 -0.075905 0.000000 -0.000000 1.000000 19 14 10
-2.830120 -2.830119 0.000631 0.000000 1.000000 0.000000 143 100 62
2.830117 -2.830121 0.000631 0.000000 1.000000 0.000000 126 76 33
2.830117 -2.830121 -0.075905 0.000000 1.000000 0.000000 25 15 9
-2.830120 -2.830119 -0.075905 0.000000 1.000000 0.000000 10 3 1
2.830121 2.830118 0.000631 -0.000000 -1.000000 0.000000 136 91 52
-2.830119 2.830120 0.000631 -0.000000 -1.000000 0.000000 135 96 61
-2.830119 2.830120 -0.075905 -0.000000 -1.000000 0.000000 2 2 2
2.830121 2.830118 -0.075905 -0.000000 -1.000000 0.000000 1 0 0
2.830117 -2.830121 0.000631 -1.000000 0.000001 0.000000 127 77 34
2.830121 2.830118 0.000631 -1.000000 0.000001 0.000000 136 91 52
2.830121 2.830118 -0.075905 -1.000000 0.000001 0.000000 1 0 0
2.830117 -2.830121 -0.075905 -1.000000 0.000001 0.000000 22 15 9
4 0 1 2 3
4 4 5 6 7
4 8 9 10 11
4 12 13 14 15
4 16 17 18 19
4 20 21 22 23
4 1 24 25 2
4 26 0 3 27
4 24 26 27 25
4 28 29 30 31
4 32 33 34 35
4 36 37 38 39
4 40 41 42 43
