ply
format ascii 1.0
comment Created by Blender 2.71 (sub 0) - www.blender.org, source file: 'IngotCast.blend'
element vertex 48
property float x
property float y
property float z
property float nx
property float ny
property float nz
element face 24
property list uchar uint vertex_indices
end_header
1.999999 0.999999 -0.000000 0.000000 0.000000 -1.000000
1.999999 -1.000000 -0.000000 0.000000 0.000000 -1.000000
0.537240 0.267008 -0.000000 0.000000 0.000000 -1.000000
-1.999999 -0.999999 -0.000000 0.000000 -0.000000 -1.000000
-0.537240 -0.267008 -0.000000 0.000000 -0.000000 -1.000000
0.537240 -0.267008 -0.000000 0.000000 0.000000 -1.000000
-1.999998 1.000000 -0.000000 0.000000 0.000000 -1.000000
-0.537240 0.267008 -0.000000 0.000000 0.000000 -1.000000
2.000000 0.999999 0.632856 0.000000 1.000000 0.000001
1.999999 0.999999 -0.000000 0.000000 1.000000 0.000001
-1.999998 1.000000 -0.000000 0.000000 1.000000 0.000001
-1.999999 1.000000 0.632856 0.000000 1.000000 0.000001
1.999999 0.999999 -0.000000 1.000000 -0.000001 0.000000
2.000000 0.999999 0.632856 1.000000 -0.000001 0.000000
1.999998 -1.000000 0.632856 1.000000 -0.000001 0.000000
1.999999 -1.000000 -0.000000 1.000000 -0.000001 0.000000
1.999999 -1.000000 -0.000000 -0.000000 -1.000000 -0.000000
1.999998 -1.000000 0.632856 -0.000000 -1.000000 -0.000000
-2.000000 -0.999999 0.632856 -0.000000 -1.000000 -0.000000
-1.999999 -0.999999 -0.000000 -0.000000 -1.000000 -0.000000
-1.999999 -0.999999 -0.000000 -1.000000 0.000000 -0.000001
-2.000000 -0.999999 0.632856 -1.000000 0.000000 -0.000001
-1.999999 1.000000 0.632856 -1.000000 0.000000 -0.000001
-1.999998 1.000000 -0.000000 -1.000000 0.000000 -0.000001
2.000000 0.999999 0.632856 -0.000000 -0.000000 1.000000
-1.999999 1.000000 0.632856 -0.000000 -0.000000 1.000000
0.663555 0.329787 0.632856 -0.000000 -0.000000 1.000000
-2.000000 -0.999999 0.632856 0.000000 -0.000000 1.000000
-0.663555 -0.329787 0.632856 0.000000 -0.000000 1.000000
-0.663555 0.329787 0.632856 0.000000 0.000000 1.000000
1.999998 -1.000000 0.632856 0.000000 -0.000000 1.000000
0.663555 -0.329787 0.632856 0.000000 0.000000 1.000000
-0.663555 0.329787 0.632856 0.980657 0.000000 0.195734
-0.663555 -0.329787 0.632856 0.980657 0.000000 0.195734
-0.537240 -0.267008 -0.000000 0.980657 0.000000 0.195734
-0.537240 0.267008 -0.000000 0.980657 0.000000 0.195734
0.663555 0.329787 0.632856 0.000000 -0.995116 0.098714
-0.663555 0.329787 0.632856 0.000000 -0.995116 0.098714
-0.537240 0.267008 -0.000000 0.000000 -0.995116 0.098714
0.537240 0.267008 -0.000000 0.000000 -0.995116 0.098714
-0.663555 -0.329787 0.632856 0.000000 0.995116 0.098714
0.663555 -0.329787 0.632856 0.000000 0.995116 0.098714
0.537240 -0.267008 -0.000000 0.000000 0.995116 0.098714
-0.537240 -0.267008 -0.000000 0.000000 0.995116 0.098714
0.663555 -0.329787 0.632856 -0.980657 0.000000 0.195734
0.663555 0.329787 0.632856 -0.980657 0.000000 0.195734
0.537240 0.267008 -0.000000 -0.980657 0.000000 0.195734
0.537240 -0.267008 -0.000000 -0.980657 0.000000 0.195734
3 0 1 2
3 1 3 4
3 1 5 2
3 1 4 5
3 0 2 6
3 7 4 3
3 2 7 6
3 7 3 6
4 8 9 10 11
4 12 13 14 15
4 16 17 18 19
4 20 21 22 23
3 24 25 26
3 25 27 28
3 25 29 26
3 25 28 29
3 24 26 30
3 31 28 27
3 26 31 30
3 31 27 30
4 32 33 34 35
4 36 37 38 39
4 40 41 42 43
4 44 45 46 47
