ply
format ascii 1.0
comment Created by Blender 2.71 (sub 0) - www.blender.org, source file: 'mailbox.blend'
element vertex 77
property float x
property float y
property float z
property float nx
property float ny
property float nz
property uchar red
property uchar green
property uchar blue
element face 20
property list uchar uint vertex_indices
end_header
1.499999 0.998505 0.054652 0.000000 0.054652 -0.998505 158 93 31
1.499999 -0.737415 -0.040361 0.000000 0.054652 -0.998505 158 93 31
-1.499999 -0.737415 -0.040361 0.000000 0.054652 -0.998505 158 93 31
-1.499999 0.998506 0.054652 0.000000 0.054652 -0.998505 159 94 32
1.499999 0.998505 0.054652 1.000000 -0.000000 0.000000 158 93 31
1.500000 0.802458 3.636503 1.000000 -0.000000 0.000000 158 93 31
1.499998 -0.933463 3.541490 1.000000 -0.000000 0.000000 158 93 31
1.499999 -0.737415 -0.040361 1.000000 -0.000000 0.000000 158 93 31
1.499999 -0.737415 -0.040361 -0.000000 -0.998505 -0.054652 168 109 54
1.499998 -0.933463 3.541490 -0.000000 -0.998505 -0.054652 161 97 37
-1.500000 -0.933462 3.541490 -0.000000 -0.998505 -0.054652 158 93 31
-1.499999 -0.737415 -0.040361 -0.000000 -0.998505 -0.054652 158 93 31
-1.499999 -0.737415 -0.040361 -1.000000 0.000000 -0.000000 158 93 31
-1.500000 -0.933462 3.541490 -1.000000 0.000000 -0.000000 158 93 31
-1.499999 0.802458 3.636503 -1.000000 0.000000 -0.000000 158 93 31
-1.499999 0.998506 0.054652 -1.000000 0.000000 -0.000000 159 94 32
1.500000 0.802458 3.636503 0.000000 0.998505 0.054652 158 93 31
1.499999 0.998505 0.054652 0.000000 0.998505 0.054652 158 93 31
-1.499999 0.998506 0.054652 0.000000 0.998505 0.054652 158 93 31
-1.499999 0.802458 3.636503 0.000000 0.998505 0.054652 158 93 31
-1.500000 -0.933462 3.541490 0.000000 -0.029932 0.999552 153 90 31
1.499998 -0.933463 3.541490 0.000000 -0.029932 0.999552 149 90 36
1.440703 -0.842787 3.544205 0.000000 -0.029932 0.999552 100 59 31
-1.440704 -0.842786 3.544206 0.000000 -0.029932 0.999552 86 49 28
-1.499999 0.802458 3.636503 -0.000000 -0.056012 0.998430 152 90 31
-1.500000 -0.933462 3.541490 -0.000000 -0.056012 0.998430 153 90 31
-1.440704 -0.842786 3.544206 -0.000000 -0.056012 0.998430 86 49 28
-1.440704 0.711783 3.633788 -0.000000 -0.056012 0.998430 89 52 28
-1.440704 -0.842786 3.544206 0.000000 0.998344 0.057530 86 49 28
1.440703 -0.842787 3.544205 0.000000 0.998344 0.057530 100 59 31
1.440703 -0.649361 0.187577 0.000000 0.998344 0.057530 13 7 6
-1.440704 -0.649360 0.187578 0.000000 0.998344 0.057530 26 15 11
-1.440704 0.711783 3.633788 1.000000 -0.000001 -0.000000 89 52 28
-1.440704 -0.842786 3.544206 1.000000 -0.000001 -0.000000 86 49 28
-1.440704 -0.649360 0.187578 1.000000 -0.000001 -0.000000 26 15 11
-1.440704 0.905209 0.277160 1.000000 -0.000001 -0.000000 18 10 8
1.500000 0.802458 3.636503 -0.000000 -0.029932 0.999552 140 82 30
-1.499999 0.802458 3.636503 -0.000000 -0.029932 0.999552 152 90 31
-1.440704 0.711783 3.633788 -0.000000 -0.029932 0.999552 89 52 28
1.440704 0.711782 3.633788 -0.000000 -0.029932 0.999552 88 51 26
1.499998 -0.933463 3.541490 0.000000 -0.056012 0.998430 146 86 30
1.500000 0.802458 3.636503 0.000000 -0.056012 0.998430 140 82 30
1.440704 0.711782 3.633788 0.000000 -0.056012 0.998430 88 51 26
1.440703 -0.842787 3.544205 0.000000 -0.056012 0.998430 99 57 28
-1.440704 -0.649360 0.187578 0.000000 -0.057530 0.998344 26 15 11
1.440703 -0.649361 0.187577 0.000000 -0.057530 0.998344 13 7 6
1.440704 0.905209 0.277160 0.000000 -0.057530 0.998344 31 17 15
-1.440704 0.905209 0.277160 -0.000000 -0.057530 0.998344 18 10 8
-1.440704 -0.649360 0.187578 -0.000000 -0.057530 0.998344 26 15 12
1.440704 0.711782 3.633788 -0.000000 -0.998344 -0.057530 88 51 26
-1.440704 0.711783 3.633788 -0.000000 -0.998344 -0.057530 89 52 28
-1.440704 0.905209 0.277160 -0.000000 -0.998344 -0.057530 18 10 8
1.440704 0.905209 0.277160 -0.000000 -0.998344 -0.057530 31 17 15
1.440703 -0.842787 3.544205 -1.000000 0.000001 0.000000 99 57 28
1.440704 0.711782 3.633788 -1.000000 0.000001 0.000000 88 51 26
1.440704 0.905209 0.277160 -1.000000 0.000001 0.000000 31 17 15
1.440703 -0.649361 0.187577 -1.000000 0.000001 0.000000 13 7 6
-1.000000 0.695258 0.079833 0.000000 -1.000000 -0.000001 255 255 255
1.000000 0.695258 0.079833 0.000000 -1.000000 -0.000001 255 255 255
1.000000 0.695256 3.337856 0.000000 -1.000000 -0.000001 255 255 255
-1.000000 0.695256 3.337856 0.000000 -1.000000 -0.000001 255 255 255
-1.263280 0.477410 0.097195 0.000000 -0.999151 0.041211 255 255 255
0.736720 0.477410 0.097195 0.000000 -0.999151 0.041211 255 255 255
0.736720 0.611789 3.355218 0.000000 -0.999151 0.041211 255 255 255
-1.263280 0.611789 3.355218 0.000000 -0.999151 0.041211 255 255 255
-1.062876 0.353143 -0.067746 0.000000 -0.997977 0.063568 255 255 255
0.937124 0.353143 -0.067746 0.000000 -0.997977 0.063568 255 255 255
0.937124 0.560669 3.190277 0.000000 -0.997977 0.063568 255 255 255
-1.062876 0.560669 3.190277 0.000000 -0.997977 0.063568 255 255 255
-1.326156 0.135295 -0.050384 0.000000 -0.997822 0.065965 255 255 255
0.673844 0.135295 -0.050384 0.000000 -0.997822 0.065965 255 255 255
0.673844 0.350681 3.207639 0.000000 -0.997822 0.065965 255 255 255
-1.326156 0.350681 3.207639 0.000000 -0.997822 0.065965 255 255 255
-1.074558 0.043245 -0.224005 0.000000 -0.998319 0.057960 255 255 255
0.925442 0.043245 -0.224005 0.000000 -0.998319 0.057960 255 255 255
0.925442 0.232399 3.034018 0.000000 -0.998319 0.057960 255 255 255
-1.074558 0.232399 3.034018 0.000000 -0.998319 0.057960 255 255 255
4 0 1 2 3
4 4 5 6 7
4 8 9 10 11
4 12 13 14 15
4 16 17 18 19
4 20 21 22 23
4 24 25 26 27
4 28 29 30 31
4 32 33 34 35
4 36 37 38 39
4 40 41 42 43
3 44 45 46
3 47 48 46
4 49 50 51 52
4 53 54 55 56
4 57 58 59 60
4 61 62 63 64
4 65 66 67 68
4 69 70 71 72
4 73 74 75 76
