ply
format ascii 1.0
comment Created by Blender 2.73 (sub 0) - www.blender.org, source file: 'wall.blend'
element vertex 199
property float x
property float y
property float z
property float nx
property float ny
property float nz
property uchar red
property uchar green
property uchar blue
element face 53
property list uchar uint vertex_indices
end_header
15.715771 -0.238247 -0.251130 0.747867 -0.017850 -0.663609 107 54 0
15.715771 0.003846 -0.257642 0.747867 -0.017850 -0.663609 107 54 0
18.188616 0.078754 2.527165 0.747867 -0.017850 -0.663609 107 54 0
18.188616 -0.163340 2.533677 0.747867 -0.017850 -0.663609 107 54 0
-7.879519 -0.152348 2.543418 0.001178 -0.999623 0.027436 114 57 0
-18.188616 -0.163376 2.533678 0.001178 -0.999623 0.027436 107 54 0
-15.715771 -0.238283 -0.251129 0.001178 -0.999623 0.027436 99 50 0
-7.879519 -0.220603 0.005934 0.001178 -0.999623 0.027436 103 52 0
-7.879519 -0.000011 0.000000 0.032835 -0.026875 -0.999099 107 54 0
-7.879519 -0.220603 0.005934 0.032835 -0.026875 -0.999099 107 54 0
-15.715771 -0.238283 -0.251129 0.032835 -0.026875 -0.999099 99 50 0
-15.715771 0.003810 -0.257641 0.032835 -0.026875 -0.999099 99 50 0
14.666833 1.119407 41.611393 -0.000000 0.026898 0.999638 107 54 0
14.666833 0.898815 41.617329 -0.000000 0.026898 0.999638 107 54 0
27.450373 0.898819 41.617329 -0.000000 0.026898 0.999638 107 54 0
27.450373 1.119411 41.611393 -0.000000 0.026898 0.999638 107 54 0
20.609787 0.159736 5.537815 0.779379 -0.016848 -0.626325 107 54 0
20.609787 -0.082357 5.544327 0.779379 -0.016848 -0.626325 107 54 0
18.188616 -0.163340 2.533677 0.779379 -0.016848 -0.626325 107 54 0
18.188616 0.078754 2.527165 0.779379 -0.016848 -0.626325 107 54 0
-7.879519 -0.055802 6.132688 0.000925 -0.999629 0.027228 115 58 0
-20.609787 -0.082394 5.544328 0.000925 -0.999629 0.027228 107 54 0
-18.188616 -0.163376 2.533678 0.000925 -0.999629 0.027228 107 54 0
-7.879519 -0.152348 2.543418 0.000925 -0.999629 0.027228 114 57 0
27.450373 1.119411 41.611393 0.982503 -0.005008 -0.186178 107 54 0
27.450373 0.898819 41.617329 0.982503 -0.005008 -0.186178 107 54 0
20.609787 -0.082357 5.544327 0.982503 -0.005008 -0.186178 107 54 0
20.609787 0.159736 5.537815 0.982503 -0.005008 -0.186178 107 54 0
-14.572429 0.898793 41.617329 0.000415 -0.999632 0.027121 107 54 0
-27.450373 0.898786 41.617329 0.000415 -0.999632 0.027121 115 58 0
-20.609787 -0.082394 5.544328 0.000415 -0.999632 0.027121 107 54 0
-7.879519 -0.055802 6.132688 0.000415 -0.999632 0.027121 115 58 0
7.930565 -0.220582 0.005933 -0.001183 -0.999623 0.027438 99 50 0
15.715771 -0.238247 -0.251130 -0.001183 -0.999623 0.027438 99 50 0
18.188616 -0.163340 2.533677 -0.001183 -0.999623 0.027438 107 54 0
7.930565 -0.152327 2.543417 -0.001183 -0.999623 0.027438 109 54 0
15.715771 0.003846 -0.257642 -0.033050 -0.026875 -0.999092 99 50 0
15.715771 -0.238247 -0.251130 -0.033050 -0.026875 -0.999092 99 50 0
7.930565 -0.220582 0.005933 -0.033050 -0.026875 -0.999092 104 52 0
7.930565 0.000011 -0.000000 -0.033050 -0.026875 -0.999092 105 53 0
7.007645 1.119402 41.611397 -0.000000 0.026881 0.999639 107 54 0
7.007647 0.898808 41.617325 -0.000000 0.026881 0.999639 107 54 0
14.666833 0.898815 41.617329 -0.000000 0.026881 0.999639 107 54 0
14.666833 1.119407 41.611393 -0.000000 0.026881 0.999639 107 54 0
20.609787 -0.082357 5.544327 -0.000928 -0.999629 0.027229 107 54 0
7.930565 -0.055780 6.132688 -0.000928 -0.999629 0.027229 115 58 0
7.930565 -0.152327 2.543417 -0.000928 -0.999629 0.027229 109 54 0
18.188616 -0.163340 2.533677 -0.000928 -0.999629 0.027229 107 54 0
27.450373 0.898819 41.617329 -0.000417 -0.999632 0.027121 107 54 0
14.666833 0.898815 41.617329 -0.000417 -0.999632 0.027121 107 54 0
7.930565 -0.055780 6.132688 -0.000417 -0.999632 0.027121 115 58 0
20.609787 -0.082357 5.544327 -0.000417 -0.999632 0.027121 107 54 0
7.930565 -0.152327 2.543417 0.000001 -0.999638 0.026889 109 54 0
3.789134 -0.152333 2.543417 0.000001 -0.999638 0.026889 115 58 0
3.789134 -0.220588 0.005934 0.000001 -0.999638 0.026889 99 50 0
7.930565 -0.220582 0.005933 0.000001 -0.999638 0.026889 99 50 0
7.930565 0.000011 -0.000000 0.000000 -0.026889 -0.999638 106 53 0
7.930565 -0.220582 0.005933 0.000000 -0.026889 -0.999638 106 54 0
3.789134 -0.220588 0.005934 0.000000 -0.026889 -0.999638 100 51 1
3.789134 0.000005 -0.000000 0.000000 -0.026889 -0.999638 114 69 22
-3.846359 -0.055796 6.132687 -0.000000 0.026888 0.999638 115 58 0
-7.879519 -0.055802 6.132688 -0.000000 0.026888 0.999638 115 58 0
-7.879519 -0.268283 6.138402 -0.000000 0.026888 0.999638 115 58 0
-3.846359 -0.268278 6.138403 -0.000000 0.026888 0.999638 115 58 0
14.666833 0.898815 41.617329 0.000001 -0.999638 0.026892 107 54 0
7.007647 0.898808 41.617325 0.000001 -0.999638 0.026892 107 54 0
3.789134 -0.055786 6.132688 0.000001 -0.999638 0.026892 115 58 0
7.930565 -0.055780 6.132688 0.000001 -0.999638 0.026892 115 58 0
-7.113482 1.119390 41.611389 -0.000000 0.026889 0.999638 107 54 0
-7.113481 0.898799 41.617329 -0.000000 0.026889 0.999638 107 54 0
7.007647 0.898808 41.617325 -0.000000 0.026889 0.999638 107 54 0
7.007645 1.119402 41.611397 -0.000000 0.026889 0.999638 107 54 0
-3.846359 -0.152343 2.543418 0.000001 -0.999638 0.026889 115 58 0
-3.846359 -0.220598 0.005934 0.000001 -0.999638 0.026889 107 54 0
3.789134 0.000005 -0.000000 0.000000 -0.026889 -0.999638 154 118 80
3.789134 -0.220588 0.005934 0.000000 -0.026889 -0.999638 116 67 15
-3.846359 -0.220598 0.005934 0.000000 -0.026889 -0.999638 107 54 0
-3.846360 -0.000005 0.000000 0.000000 -0.026889 -0.999638 107 54 0
3.789134 -0.055786 6.132688 0.000001 -0.999638 0.026889 115 58 0
-3.846359 -0.055796 6.132687 0.000001 -0.999638 0.026889 115 58 0
-7.113481 0.898799 41.617329 0.000001 -0.999638 0.026892 107 54 0
-3.846359 -0.055796 6.132687 0.000001 -0.999638 0.026892 115 58 0
-14.572429 1.119385 41.611393 0.000000 0.026907 0.999638 108 55 1
-14.572429 0.898793 41.617329 0.000000 0.026907 0.999638 108 56 2
-7.113481 0.898799 41.617329 0.000000 0.026907 0.999638 107 54 0
-7.113482 1.119390 41.611389 0.000000 0.026907 0.999638 107 54 0
-7.879519 -0.152348 2.543418 0.000001 -0.999638 0.026889 114 57 0
-7.879519 -0.220603 0.005934 0.000001 -0.999638 0.026889 103 52 0
-3.846360 -0.000005 0.000000 -0.000000 -0.026889 -0.999638 109 57 3
-7.879519 -0.220603 0.005934 -0.000000 -0.026889 -0.999638 103 52 0
-7.879519 -0.000011 0.000000 -0.000000 -0.026889 -0.999638 106 54 0
-7.879519 -0.055802 6.132688 -1.000000 0.000000 0.000000 113 63 12
-7.879519 -0.152348 2.543418 -1.000000 0.000000 0.000000 107 54 0
-7.879519 -0.364830 2.549134 -1.000000 0.000000 0.000000 107 54 0
-7.879519 -0.268283 6.138402 -1.000000 0.000000 0.000000 147 108 68
-14.572429 0.898793 41.617329 0.000001 -0.999638 0.026892 107 54 0
-7.879519 -0.055802 6.132688 0.000001 -0.999638 0.026892 115 58 0
-27.450373 1.119378 41.611393 -0.000000 0.026898 0.999638 115 58 0
-27.450373 0.898786 41.617329 -0.000000 0.026898 0.999638 115 58 0
-14.572429 0.898793 41.617329 -0.000000 0.026898 0.999638 108 55 2
-14.572429 1.119385 41.611393 -0.000000 0.026898 0.999638 108 55 1
-18.188616 -0.163376 2.533678 -0.747867 -0.017850 -0.663609 107 54 0
-18.188616 0.078718 2.527166 -0.747867 -0.017850 -0.663609 107 54 0
-15.715771 0.003810 -0.257641 -0.747867 -0.017850 -0.663609 99 50 0
-15.715771 -0.238283 -0.251129 -0.747867 -0.017850 -0.663609 99 50 0
-20.609787 -0.082394 5.544328 -0.779380 -0.016848 -0.626326 107 54 0
-20.609787 0.159700 5.537816 -0.779380 -0.016848 -0.626326 107 54 0
-18.188616 0.078718 2.527166 -0.779380 -0.016848 -0.626326 107 54 0
-18.188616 -0.163376 2.533678 -0.779380 -0.016848 -0.626326 107 54 0
-27.450373 0.898786 41.617329 -0.982503 -0.005008 -0.186178 107 54 0
-27.450373 1.119378 41.611393 -0.982503 -0.005008 -0.186178 107 54 0
-20.609787 0.159700 5.537816 -0.982503 -0.005008 -0.186178 124 79 30
-20.609787 -0.082394 5.544328 -0.982503 -0.005008 -0.186178 109 56 2
-3.846359 -0.268278 6.138403 0.000001 -0.999638 0.026890 115 58 0
-7.879519 -0.268283 6.138402 0.000001 -0.999638 0.026890 115 58 0
-7.740164 -0.271619 6.014386 0.000001 -0.999638 0.026890 115 58 0
-3.985714 -0.271614 6.014386 0.000001 -0.999638 0.026890 115 58 0
-7.879519 -0.268283 6.138402 0.000001 -0.999638 0.026889 115 58 0
-7.879519 -0.364830 2.549134 0.000001 -0.999638 0.026889 112 56 0
-7.740164 -0.361494 2.673151 0.000001 -0.999638 0.026889 114 57 0
-7.740164 -0.271619 6.014386 0.000001 -0.999638 0.026889 115 58 0
-7.879519 -0.152348 2.543418 -0.000000 -0.026889 -0.999638 110 58 5
-3.846359 -0.152343 2.543418 -0.000000 -0.026889 -0.999638 107 54 0
-3.846359 -0.364824 2.549133 -0.000000 -0.026889 -0.999638 107 54 0
-7.879519 -0.364830 2.549134 -0.000000 -0.026889 -0.999638 108 55 1
-3.846359 -0.152343 2.543418 1.000000 -0.000000 0.000000 115 58 0
-3.846359 -0.055796 6.132687 1.000000 -0.000000 0.000000 115 58 0
-3.846359 -0.268278 6.138403 1.000000 -0.000000 0.000000 115 58 0
-3.846359 -0.364824 2.549133 1.000000 -0.000000 0.000000 115 58 0
3.789134 -0.055786 6.132688 -1.000000 0.000000 0.000000 115 58 0
3.789134 -0.152333 2.543417 -1.000000 0.000000 0.000000 115 58 0
3.789134 -0.364814 2.549133 -1.000000 0.000000 0.000000 115 58 0
3.789134 -0.268267 6.138402 -1.000000 0.000000 0.000000 115 58 0
7.930565 -0.055780 6.132688 -0.000000 0.026887 0.999638 115 58 0
3.789134 -0.055786 6.132688 -0.000000 0.026887 0.999638 115 58 0
3.789134 -0.268267 6.138402 -0.000000 0.026887 0.999638 115 58 0
7.930566 -0.268262 6.138403 -0.000000 0.026887 0.999638 115 58 0
3.789134 -0.152333 2.543417 0.000000 -0.026889 -0.999638 107 54 0
7.930565 -0.152327 2.543417 0.000000 -0.026889 -0.999638 107 54 0
7.930566 -0.364809 2.549133 0.000000 -0.026889 -0.999638 107 54 0
3.789134 -0.364814 2.549133 0.000000 -0.026889 -0.999638 107 54 0
7.930565 -0.152327 2.543417 1.000000 0.000004 -0.000000 107 54 0
7.930565 -0.055780 6.132688 1.000000 0.000004 -0.000000 107 54 0
7.930566 -0.268262 6.138403 1.000000 0.000004 -0.000000 107 54 0
7.930566 -0.364809 2.549133 1.000000 0.000004 -0.000000 107 54 0
-3.985714 -0.271614 6.014386 0.000000 -0.026889 -0.999638 107 54 0
-7.740164 -0.271619 6.014386 0.000000 -0.026889 -0.999638 107 54 0
-7.738619 0.161455 6.002737 0.000000 -0.026889 -0.999638 107 54 0
-3.984169 0.161460 6.002737 0.000000 -0.026889 -0.999638 107 54 0
-7.740164 -0.271619 6.014386 0.999994 -0.003566 0.000096 115 58 0
-7.740164 -0.361494 2.673151 0.999994 -0.003566 0.000096 114 57 0
-7.738619 0.071581 2.661501 0.999994 -0.003566 0.000096 115 58 0
-7.738619 0.161455 6.002737 0.999994 -0.003566 0.000096 115 58 0
-3.846359 -0.364824 2.549133 0.000001 -0.999638 0.026889 115 58 0
-3.985714 -0.361489 2.673150 0.000001 -0.999638 0.026889 115 58 0
-3.846359 -0.364824 2.549133 0.000003 -0.999638 0.026889 115 58 0
-3.846359 -0.268278 6.138403 0.000003 -0.999638 0.026889 115 58 0
-3.985714 -0.271614 6.014386 0.000003 -0.999638 0.026889 115 58 0
-3.985714 -0.361489 2.673150 0.000003 -0.999638 0.026889 115 58 0
3.789134 -0.268267 6.138402 0.000000 -0.999638 0.026889 115 58 0
3.789134 -0.364814 2.549133 0.000000 -0.999638 0.026889 115 58 0
3.932230 -0.361478 2.673150 0.000000 -0.999638 0.026889 115 58 0
3.932230 -0.271603 6.014385 0.000000 -0.999638 0.026889 115 58 0
7.930566 -0.268262 6.138403 0.000001 -0.999638 0.026891 115 58 0
3.789134 -0.268267 6.138402 0.000001 -0.999638 0.026891 115 58 0
3.932230 -0.271603 6.014385 0.000001 -0.999638 0.026891 115 58 0
7.787470 -0.271598 6.014385 0.000001 -0.999638 0.026891 115 58 0
3.789134 -0.364814 2.549133 0.000001 -0.999638 0.026888 115 58 0
7.930566 -0.364809 2.549133 0.000001 -0.999638 0.026888 107 54 0
7.787470 -0.361473 2.673150 0.000001 -0.999638 0.026888 112 55 0
3.932230 -0.361478 2.673150 0.000001 -0.999638 0.026888 115 58 0
7.930566 -0.364809 2.549133 0.000003 -0.999638 0.026889 107 54 0
7.930566 -0.268262 6.138403 0.000003 -0.999638 0.026889 115 58 0
7.787470 -0.271598 6.014385 0.000003 -0.999638 0.026889 115 58 0
7.787470 -0.361473 2.673150 0.000003 -0.999638 0.026889 112 55 0
-7.740164 -0.361494 2.673151 -0.000000 0.026890 0.999638 114 57 0
-3.985714 -0.361489 2.673150 -0.000000 0.026890 0.999638 115 58 0
-3.984169 0.071586 2.661501 -0.000000 0.026890 0.999638 115 58 0
-7.738619 0.071581 2.661501 -0.000000 0.026890 0.999638 115 58 0
-3.985714 -0.361489 2.673150 -0.999994 0.003565 -0.000096 107 54 0
-3.985714 -0.271614 6.014386 -0.999994 0.003565 -0.000096 107 54 0
-3.984169 0.161460 6.002737 -0.999994 0.003565 -0.000096 107 54 0
-3.984169 0.071586 2.661501 -0.999994 0.003565 -0.000096 107 54 0
3.932230 -0.271603 6.014385 0.999994 -0.003564 0.000096 107 54 0
3.932230 -0.361478 2.673150 0.999994 -0.003564 0.000096 107 54 0
3.933774 0.071596 2.661500 0.999994 -0.003564 0.000096 107 54 0
3.933774 0.161471 6.002736 0.999994 -0.003564 0.000096 107 54 0
7.787470 -0.271598 6.014385 0.000000 -0.026889 -0.999638 107 54 0
3.932230 -0.271603 6.014385 0.000000 -0.026889 -0.999638 107 54 0
3.933774 0.161471 6.002736 0.000000 -0.026889 -0.999638 107 54 0
7.789015 0.161476 6.002736 0.000000 -0.026889 -0.999638 107 54 0
3.932230 -0.361478 2.673150 -0.000000 0.026890 0.999638 115 58 0
7.787470 -0.361473 2.673150 -0.000000 0.026890 0.999638 112 55 0
7.789015 0.071601 2.661500 -0.000000 0.026890 0.999638 114 57 0
3.933774 0.071596 2.661500 -0.000000 0.026890 0.999638 115 58 0
7.787470 -0.361473 2.673150 -0.999994 0.003566 -0.000096 112 55 0
7.787470 -0.271598 6.014385 -0.999994 0.003566 -0.000096 115 58 0
7.789015 0.161476 6.002736 -0.999994 0.003566 -0.000096 115 58 0
7.789015 0.071601 2.661500 -0.999994 0.003566 -0.000096 114 57 0
4 0 1 2 3
4 4 5 6 7
4 8 9 10 11
4 12 13 14 15
4 16 17 18 19
4 20 21 22 23
4 24 25 26 27
4 28 29 30 31
4 32 33 34 35
4 36 37 38 39
4 40 41 42 43
4 44 45 46 47
4 48 49 50 51
4 52 53 54 55
4 56 57 58 59
4 60 61 62 63
4 64 65 66 67
4 68 69 70 71
4 53 72 73 54
4 74 75 76 77
4 78 79 72 53
4 65 80 81 66
4 82 83 84 85
4 72 86 87 73
4 88 76 89 90
4 91 92 93 94
4 80 95 96 81
4 97 98 99 100
4 101 102 103 104
4 105 106 107 108
4 109 110 111 112
4 113 114 115 116
4 117 118 119 120
4 121 122 123 124
4 125 126 127 128
4 129 130 131 132
4 133 134 135 136
4 137 138 139 140
4 141 142 143 144
4 145 146 147 148
4 149 150 151 152
4 118 153 154 119
4 155 156 157 158
4 159 160 161 162
4 163 164 165 166
4 167 168 169 170
4 171 172 173 174
4 175 176 177 178
4 179 180 181 182
4 183 184 185 186
4 187 188 189 190
4 191 192 193 194
4 195 196 197 198
