ply
format ascii 1.0
comment Created by Blender 2.71 (sub 0) - www.blender.org, source file: 'BroadswordBlade.blend'
element vertex 228
property float x
property float y
property float z
property float nx
property float ny
property float nz
element face 62
property list uchar uint vertex_indices
end_header
0.000000 0.004067 0.013598 -1.000000 0.000000 0.000000
0.000000 0.012202 0.013598 -1.000000 0.000000 0.000000
0.000000 0.012202 -0.013598 -1.000000 0.000000 0.000000
0.000000 0.004067 -0.013598 -1.000000 0.000000 0.000000
0.900000 0.048551 0.000109 0.419171 0.907907 0.000000
1.000000 0.002382 0.000038 0.419171 0.907907 0.000000
1.000000 0.002382 -0.000038 0.419171 0.907907 0.000000
0.900000 0.048551 -0.000109 0.419171 0.907907 0.000000
1.000000 -0.000794 0.000038 1.000000 0.000000 -0.000000
1.000000 -0.002382 0.000038 1.000000 0.000000 -0.000000
1.000000 -0.002382 -0.000038 1.000000 0.000000 -0.000000
1.000000 -0.000794 -0.000038 1.000000 0.000000 -0.000000
0.000000 -0.012202 -0.013598 0.001094 -0.999999 0.000000
0.111939 -0.012080 -0.013317 0.001094 -0.999999 0.000000
0.111939 -0.012080 0.013317 0.001094 -0.999999 0.000000
0.000000 -0.012202 0.013598 0.001094 -0.999999 0.000000
0.900000 0.016184 -0.007644 0.103591 0.215486 -0.970997
0.900000 0.048551 -0.000109 0.103591 0.215486 -0.970997
1.000000 0.002382 -0.000038 0.103591 0.215486 -0.970997
1.000000 0.000794 -0.000038 0.103591 0.215486 -0.970997
0.111939 0.004027 0.013317 0.002513 0.000000 0.999997
0.111939 0.012080 0.013317 0.002513 0.000000 0.999997
0.000000 0.012202 0.013598 0.002513 0.000000 0.999997
0.000000 0.004067 0.013598 0.002513 0.000000 0.999997
0.700000 0.055674 0.000130 0.035593 0.999366 0.000000
0.900000 0.048551 0.000109 0.035593 0.999366 0.000000
0.900000 0.048551 -0.000109 0.035593 0.999366 0.000000
0.700000 0.055674 -0.000130 0.035593 0.999366 0.000000
1.000000 -0.002382 0.000038 0.419171 -0.907907 0.000000
0.900000 -0.048551 0.000109 0.419171 -0.907907 0.000000
0.900000 -0.048551 -0.000109 0.419171 -0.907907 0.000000
1.000000 -0.002382 -0.000038 0.419171 -0.907907 0.000000
0.700000 0.018558 -0.009149 0.009215 0.231755 -0.972731
0.700000 0.055674 -0.000130 0.009215 0.231755 -0.972731
0.900000 0.048551 -0.000109 0.009215 0.231755 -0.972731
0.900000 0.016184 -0.007644 0.009215 0.231755 -0.972731
1.000000 0.000794 0.000038 0.103591 0.215486 0.970997
1.000000 0.002382 0.000038 0.103591 0.215486 0.970997
0.900000 0.048551 0.000109 0.103591 0.215486 0.970997
0.900000 0.016184 0.007644 0.103591 0.215486 0.970997
0.300000 -0.073234 0.000169 0.076899 -0.997039 0.000000
0.150000 -0.084803 0.000188 0.076899 -0.997039 0.000000
0.150000 -0.084803 -0.000188 0.076899 -0.997039 0.000000
0.300000 -0.073234 -0.000169 0.076899 -0.997039 0.000000
0.300000 0.024411 0.011930 0.016028 0.229044 0.973284
0.300000 0.073234 0.000169 0.016028 0.229044 0.973284
0.150000 0.084803 0.000188 0.016028 0.229044 0.973284
0.150000 0.028268 0.013221 0.016028 0.229044 0.973284
0.111939 0.012080 0.013317 -0.885992 0.463700 0.000000
0.150000 0.084803 0.000188 -0.885992 0.463700 0.000000
0.150000 0.084803 -0.000188 -0.885992 0.463700 0.000000
0.111939 0.012080 -0.013317 -0.885992 0.463700 0.000000
0.111939 0.004027 -0.013317 -0.081397 0.197153 -0.976988
0.111939 0.012080 -0.013317 -0.081397 0.197153 -0.976988
0.150000 0.084803 -0.000188 -0.081397 0.197153 -0.976988
0.150000 0.028268 -0.013221 -0.081397 0.197153 -0.976988
0.150000 -0.084803 0.000188 -0.885992 -0.463700 0.000000
0.111939 -0.012080 0.013317 -0.885992 -0.463700 0.000000
0.111939 -0.012080 -0.013317 -0.885992 -0.463700 0.000000
0.150000 -0.084803 -0.000188 -0.885992 -0.463700 0.000000
0.150000 0.028268 0.013221 -0.081397 0.197153 0.976988
0.150000 0.084803 0.000188 -0.081397 0.197153 0.976988
0.111939 0.012080 0.013317 -0.081397 0.197153 0.976988
0.111939 0.004027 0.013317 -0.081397 0.197153 0.976988
0.000000 0.012202 0.013598 0.001094 0.999999 0.000000
0.111939 0.012080 0.013317 0.001094 0.999999 0.000000
0.111939 0.012080 -0.013317 0.001094 0.999999 0.000000
0.000000 0.012202 -0.013598 0.001094 0.999999 0.000000
0.000000 0.004067 -0.013598 0.002513 0.000000 -0.999997
0.000000 0.012202 -0.013598 0.002513 0.000000 -0.999997
0.111939 0.012080 -0.013317 0.002513 0.000000 -0.999997
0.111939 0.004027 -0.013317 0.002513 0.000000 -0.999997
0.000000 -0.004067 -0.013598 -1.000000 0.000000 -0.000000
0.000000 -0.012202 -0.013598 -1.000000 0.000000 -0.000000
0.000000 -0.012202 0.013598 -1.000000 0.000000 -0.000000
0.000000 -0.004067 0.013598 -1.000000 0.000000 -0.000000
1.000000 0.002382 0.000038 1.000000 0.000000 -0.000000
1.000000 0.000794 0.000038 1.000000 0.000000 -0.000000
1.000000 0.000794 -0.000038 1.000000 0.000000 -0.000000
1.000000 0.002382 -0.000038 1.000000 0.000000 -0.000000
0.900000 -0.048551 -0.000109 0.103591 -0.215486 -0.970997
0.900000 -0.016184 -0.007644 0.103591 -0.215486 -0.970997
1.000000 -0.000794 -0.000038 0.103591 -0.215486 -0.970997
1.000000 -0.002382 -0.000038 0.103591 -0.215486 -0.970997
0.900000 -0.016184 -0.007644 0.075837 0.000000 -0.997120
0.900000 0.016184 -0.007644 0.075837 0.000000 -0.997120
1.000000 0.000794 -0.000038 0.075837 0.000000 -0.997120
1.000000 -0.000794 -0.000038 0.075837 0.000000 -0.997120
0.111939 -0.012080 0.013317 0.002513 0.000000 0.999997
0.111939 -0.004027 0.013317 0.002513 0.000000 0.999997
0.000000 -0.004067 0.013598 0.002513 0.000000 0.999997
0.000000 -0.012202 0.013598 0.002513 0.000000 0.999997
0.700000 -0.055674 -0.000130 0.009215 -0.231755 -0.972731
0.700000 -0.018558 -0.009149 0.009215 -0.231755 -0.972731
0.900000 -0.016184 -0.007644 0.009215 -0.231755 -0.972731
0.900000 -0.048551 -0.000109 0.009215 -0.231755 -0.972731
0.700000 -0.018558 -0.009149 0.007525 0.000000 -0.999972
0.700000 0.018558 -0.009149 0.007525 0.000000 -0.999972
0.900000 0.016184 -0.007644 0.007525 0.000000 -0.999972
0.900000 -0.016184 -0.007644 0.007525 0.000000 -0.999972
1.000000 -0.002382 0.000038 0.103591 -0.215486 0.970997
1.000000 -0.000794 0.000038 0.103591 -0.215486 0.970997
0.900000 -0.016184 0.007644 0.103591 -0.215486 0.970997
0.900000 -0.048551 0.000109 0.103591 -0.215486 0.970997
1.000000 -0.000794 0.000038 0.075837 0.000000 0.997120
1.000000 0.000794 0.000038 0.075837 0.000000 0.997120
0.900000 0.016184 0.007644 0.075837 0.000000 0.997120
0.900000 -0.016184 0.007644 0.075837 0.000000 0.997120
0.300000 -0.073234 0.000169 0.016028 -0.229044 0.973284
0.300000 -0.024411 0.011930 0.016028 -0.229044 0.973284
0.150000 -0.028268 0.013221 0.016028 -0.229044 0.973284
0.150000 -0.084803 0.000188 0.016028 -0.229044 0.973284
0.300000 -0.024411 0.011930 0.008612 0.000000 0.999963
0.300000 0.024411 0.011930 0.008612 0.000000 0.999963
0.150000 0.028268 0.013221 0.008612 0.000000 0.999963
0.150000 -0.028268 0.013221 0.008612 0.000000 0.999963
0.111939 -0.012080 -0.013317 -0.081397 -0.197153 -0.976988
0.111939 -0.004027 -0.013317 -0.081397 -0.197153 -0.976988
0.150000 -0.028268 -0.013221 -0.081397 -0.197153 -0.976988
0.150000 -0.084803 -0.000188 -0.081397 -0.197153 -0.976988
0.111939 -0.004027 -0.013317 0.002513 0.000000 -0.999997
0.150000 0.028268 -0.013221 0.002513 0.000000 -0.999997
0.150000 -0.028268 -0.013221 0.002513 0.000000 -0.999997
0.150000 -0.084803 0.000188 -0.081397 -0.197153 0.976988
0.150000 -0.028268 0.013221 -0.081397 -0.197153 0.976988
0.111939 -0.004027 0.013317 -0.081397 -0.197153 0.976988
0.111939 -0.012080 0.013317 -0.081397 -0.197153 0.976988
0.150000 -0.028268 0.013221 0.002513 0.000000 0.999997
0.150000 0.028268 0.013221 0.002513 0.000000 0.999997
0.000000 -0.012202 -0.013598 0.002513 0.000000 -0.999997
0.000000 -0.004067 -0.013598 0.002513 0.000000 -0.999997
0.111939 -0.012080 -0.013317 0.002513 0.000000 -0.999997
0.300000 0.073234 0.000169 0.044911 0.998991 0.000000
0.500000 0.064243 0.000158 0.044911 0.998991 0.000000
0.500000 0.064243 -0.000158 0.044911 0.998991 0.000000
0.300000 0.073234 -0.000169 0.044911 0.998991 0.000000
0.300000 0.024411 -0.011930 0.009258 0.240385 -0.970633
0.300000 0.073234 -0.000169 0.009258 0.240385 -0.970633
0.500000 0.064243 -0.000158 0.009258 0.240385 -0.970633
0.500000 0.021414 -0.011095 0.009258 0.240385 -0.970633
0.700000 -0.055674 0.000130 0.042803 -0.999084 0.000000
0.500000 -0.064243 0.000158 0.042803 -0.999084 0.000000
0.500000 -0.064243 -0.000158 0.042803 -0.999084 0.000000
0.700000 -0.055674 -0.000130 0.042803 -0.999084 0.000000
0.700000 0.018558 0.009149 0.011705 0.242186 0.970159
0.700000 0.055674 0.000130 0.011705 0.242186 0.970159
0.500000 0.064243 0.000158 0.011705 0.242186 0.970159
0.500000 0.021414 0.011095 0.011705 0.242186 0.970159
0.300000 -0.073234 -0.000169 0.009258 -0.240385 -0.970633
0.300000 -0.024411 -0.011930 0.009258 -0.240385 -0.970633
0.500000 -0.021414 -0.011095 0.009258 -0.240385 -0.970633
0.500000 -0.064243 -0.000158 0.009258 -0.240385 -0.970633
0.300000 -0.024411 -0.011930 0.004171 0.000000 -0.999991
0.300000 0.024411 -0.011930 0.004171 0.000000 -0.999991
0.500000 0.021414 -0.011095 0.004171 0.000000 -0.999991
0.500000 -0.021414 -0.011095 0.004171 0.000000 -0.999991
0.700000 -0.055674 0.000130 0.011705 -0.242186 0.970159
0.700000 -0.018558 0.009149 0.011705 -0.242186 0.970159
0.500000 -0.021414 0.011095 0.011705 -0.242186 0.970159
0.500000 -0.064243 0.000158 0.011705 -0.242186 0.970159
0.700000 -0.018558 0.009149 0.009731 0.000000 0.999953
0.700000 0.018558 0.009149 0.009731 0.000000 0.999953
0.500000 0.021414 0.011095 0.009731 0.000000 0.999953
0.500000 -0.021414 0.011095 0.009731 0.000000 0.999953
0.500000 -0.064243 0.000158 0.044911 -0.998991 0.000000
0.300000 -0.073234 0.000169 0.044911 -0.998991 0.000000
0.300000 -0.073234 -0.000169 0.044911 -0.998991 0.000000
0.500000 -0.064243 -0.000158 0.044911 -0.998991 0.000000
0.500000 0.021414 0.011095 0.009258 0.240385 0.970633
0.500000 0.064243 0.000158 0.009258 0.240385 0.970633
0.300000 0.073234 0.000169 0.009258 0.240385 0.970633
0.300000 0.024411 0.011930 0.009258 0.240385 0.970633
0.500000 -0.064243 0.000158 0.009258 -0.240385 0.970633
0.500000 -0.021414 0.011095 0.009258 -0.240385 0.970633
0.300000 -0.024411 0.011930 0.009258 -0.240385 0.970633
0.300000 -0.073234 0.000169 0.009258 -0.240385 0.970633
0.500000 -0.021414 0.011095 0.004171 0.000000 0.999991
0.500000 0.021414 0.011095 0.004171 0.000000 0.999991
0.300000 0.024411 0.011930 0.004171 0.000000 0.999991
0.300000 -0.024411 0.011930 0.004171 0.000000 0.999991
0.150000 0.084803 0.000188 0.076899 0.997039 0.000000
0.300000 0.073234 0.000169 0.076899 0.997039 0.000000
0.300000 0.073234 -0.000169 0.076899 0.997039 0.000000
0.150000 0.084803 -0.000188 0.076899 0.997039 0.000000
0.150000 0.028268 -0.013221 0.016028 0.229044 -0.973284
0.150000 0.084803 -0.000188 0.016028 0.229044 -0.973284
0.300000 0.073234 -0.000169 0.016028 0.229044 -0.973284
0.300000 0.024411 -0.011930 0.016028 0.229044 -0.973284
0.150000 -0.084803 -0.000188 0.016028 -0.229044 -0.973284
0.150000 -0.028268 -0.013221 0.016028 -0.229044 -0.973284
0.300000 -0.024411 -0.011930 0.016028 -0.229044 -0.973284
0.300000 -0.073234 -0.000169 0.016028 -0.229044 -0.973284
0.150000 -0.028268 -0.013221 0.008612 0.000000 -0.999963
0.150000 0.028268 -0.013221 0.008612 0.000000 -0.999963
0.300000 0.024411 -0.011930 0.008612 0.000000 -0.999963
0.300000 -0.024411 -0.011930 0.008612 0.000000 -0.999963
0.500000 0.064243 0.000158 0.042803 0.999084 0.000000
0.700000 0.055674 0.000130 0.042803 0.999084 0.000000
0.700000 0.055674 -0.000130 0.042803 0.999084 0.000000
0.500000 0.064243 -0.000158 0.042803 0.999084 0.000000
0.500000 0.021414 -0.011095 0.011705 0.242186 -0.970159
0.500000 0.064243 -0.000158 0.011705 0.242186 -0.970159
0.700000 0.055674 -0.000130 0.011705 0.242186 -0.970159
0.700000 0.018558 -0.009149 0.011705 0.242186 -0.970159
0.500000 -0.064243 -0.000158 0.011705 -0.242186 -0.970159
0.500000 -0.021414 -0.011095 0.011705 -0.242186 -0.970159
0.700000 -0.018558 -0.009149 0.011705 -0.242186 -0.970159
0.700000 -0.055674 -0.000130 0.011705 -0.242186 -0.970159
0.500000 -0.021414 -0.011095 0.009731 0.000000 -0.999953
0.500000 0.021414 -0.011095 0.009731 0.000000 -0.999953
0.700000 0.018558 -0.009149 0.009731 0.000000 -0.999953
0.700000 -0.018558 -0.009149 0.009731 0.000000 -0.999953
0.900000 -0.048551 0.000109 0.035593 -0.999366 0.000000
0.700000 -0.055674 0.000130 0.035593 -0.999366 0.000000
0.700000 -0.055674 -0.000130 0.035593 -0.999366 0.000000
0.900000 -0.048551 -0.000109 0.035593 -0.999366 0.000000
0.900000 0.016184 0.007644 0.009215 0.231755 0.972731
0.900000 0.048551 0.000109 0.009215 0.231755 0.972731
0.700000 0.055674 0.000130 0.009215 0.231755 0.972731
0.700000 0.018558 0.009149 0.009215 0.231755 0.972731
0.900000 -0.048551 0.000109 0.009215 -0.231755 0.972731
0.900000 -0.016184 0.007644 0.009215 -0.231755 0.972731
0.700000 -0.018558 0.009149 0.009215 -0.231755 0.972731
0.700000 -0.055674 0.000130 0.009215 -0.231755 0.972731
0.900000 -0.016184 0.007644 0.007525 0.000000 0.999972
0.900000 0.016184 0.007644 0.007525 0.000000 0.999972
0.700000 0.018558 0.009149 0.007525 0.000000 0.999972
0.700000 -0.018558 0.009149 0.007525 0.000000 0.999972
4 0 1 2 3
4 4 5 6 7
4 8 9 10 11
4 12 13 14 15
4 16 17 18 19
4 20 21 22 23
4 24 25 26 27
4 28 29 30 31
4 32 33 34 35
4 36 37 38 39
4 40 41 42 43
4 44 45 46 47
4 48 49 50 51
4 52 53 54 55
4 56 57 58 59
4 60 61 62 63
4 64 65 66 67
4 68 69 70 71
4 72 73 74 75
4 75 0 3 72
4 76 77 78 79
4 77 8 11 78
4 80 81 82 83
4 84 85 86 87
4 88 89 90 91
4 89 20 23 90
4 92 93 94 95
4 96 97 98 99
4 100 101 102 103
4 104 105 106 107
4 108 109 110 111
4 112 113 114 115
4 116 117 118 119
4 120 71 121 122
4 123 124 125 126
4 127 128 20 89
4 129 130 120 131
4 130 68 71 120
4 132 133 134 135
4 136 137 138 139
4 140 141 142 143
4 144 145 146 147
4 148 149 150 151
4 152 153 154 155
4 156 157 158 159
4 160 161 162 163
4 164 165 166 167
4 168 169 170 171
4 172 173 174 175
4 176 177 178 179
4 180 181 182 183
4 184 185 186 187
4 188 189 190 191
4 192 193 194 195
4 196 197 198 199
4 200 201 202 203
4 204 205 206 207
4 208 209 210 211
4 212 213 214 215
4 216 217 218 219
4 220 221 222 223
4 224 225 226 227
