ply
format ascii 1.0
comment Created by Blender 2.71 (sub 0) - www.blender.org, source file: 'BroadswordBlade.blend'
element vertex 228
property float x
property float y
property float z
property float nx
property float ny
property float nz
element face 62
property list uchar uint vertex_indices
end_header
0.000000 0.004067 0.015109 -1.000000 0.000000 0.000000
0.000000 0.012202 0.015109 -1.000000 0.000000 0.000000
0.000000 0.012202 -0.015109 -1.000000 0.000000 0.000000
0.000000 0.004067 -0.015109 -1.000000 0.000000 0.000000
0.900000 0.044011 0.006029 0.384321 0.923200 0.000000
1.000000 0.002382 0.002130 0.384321 0.923200 0.000000
1.000000 0.002382 -0.002130 0.384321 0.923200 0.000000
0.900000 0.044011 -0.006029 0.384321 0.923200 0.000000
1.000000 -0.000794 0.002130 1.000000 0.000000 -0.000000
1.000000 -0.002382 0.002130 1.000000 0.000000 -0.000000
1.000000 -0.002382 -0.002130 1.000000 0.000000 -0.000000
1.000000 -0.000794 -0.002130 1.000000 0.000000 -0.000000
0.000000 -0.012202 -0.015109 0.001094 -0.999999 0.000000
0.111939 -0.012080 -0.014797 0.001094 -0.999999 0.000000
0.111939 -0.012080 0.014797 0.001094 -0.999999 0.000000
0.000000 -0.012202 0.015109 0.001094 -0.999999 0.000000
0.900000 0.014670 -0.008493 0.072998 0.079221 -0.994181
0.900000 0.044011 -0.006029 0.072998 0.079221 -0.994181
1.000000 0.002382 -0.002130 0.072998 0.079221 -0.994181
1.000000 0.000794 -0.002130 0.072998 0.079221 -0.994181
0.111939 0.004027 0.014797 0.002792 0.000000 0.999996
0.111939 0.012080 0.014797 0.002792 0.000000 0.999996
0.000000 0.012202 0.015109 0.002792 0.000000 0.999996
0.000000 0.004067 0.015109 0.002792 0.000000 0.999996
0.700000 0.052333 0.007342 0.041574 0.999135 0.000000
0.900000 0.044011 0.006029 0.041574 0.999135 0.000000
0.900000 0.044011 -0.006029 0.041574 0.999135 0.000000
0.700000 0.052333 -0.007342 0.041574 0.999135 0.000000
1.000000 -0.002382 0.002130 0.384321 -0.923200 0.000000
0.900000 -0.044011 0.006029 0.384321 -0.923200 0.000000
0.900000 -0.044011 -0.006029 0.384321 -0.923200 0.000000
1.000000 -0.002382 -0.002130 0.384321 -0.923200 0.000000
0.700000 0.017444 -0.010344 0.010234 0.084791 -0.996346
0.700000 0.052333 -0.007342 0.010234 0.084791 -0.996346
0.900000 0.044011 -0.006029 0.010234 0.084791 -0.996346
0.900000 0.014670 -0.008493 0.010234 0.084791 -0.996346
1.000000 0.000794 0.002130 0.072998 0.079221 0.994181
1.000000 0.002382 0.002130 0.072998 0.079221 0.994181
0.900000 0.044011 0.006029 0.072998 0.079221 0.994181
0.900000 0.014670 0.008493 0.072998 0.079221 0.994181
0.300000 -0.072604 0.009328 0.081056 -0.996710 0.000000
0.150000 -0.084803 0.010428 0.081056 -0.996710 0.000000
0.150000 -0.084803 -0.010428 0.081056 -0.996710 0.000000
0.300000 -0.072604 -0.009328 0.081056 -0.996710 0.000000
0.300000 0.024201 0.013141 0.012963 0.076727 0.996968
0.300000 0.072604 0.009328 0.012963 0.076727 0.996968
0.150000 0.084803 0.010428 0.012963 0.076727 0.996968
0.150000 0.028268 0.014690 0.012963 0.076727 0.996968
0.111939 0.012080 0.014797 -0.885992 0.463700 0.000000
0.150000 0.084803 0.010428 -0.885992 0.463700 0.000000
0.150000 0.084803 -0.010428 -0.885992 0.463700 0.000000
0.111939 0.012080 -0.014797 -0.885992 0.463700 0.000000
0.111939 0.004027 -0.014797 -0.025216 0.065835 -0.997512
0.111939 0.012080 -0.014797 -0.025216 0.065835 -0.997512
0.150000 0.084803 -0.010428 -0.025216 0.065835 -0.997512
0.150000 0.028268 -0.014690 -0.025216 0.065835 -0.997512
0.150000 -0.084803 0.010428 -0.885992 -0.463700 0.000000
0.111939 -0.012080 0.014797 -0.885992 -0.463700 0.000000
0.111939 -0.012080 -0.014797 -0.885992 -0.463700 0.000000
0.150000 -0.084803 -0.010428 -0.885992 -0.463700 0.000000
0.150000 0.028268 0.014690 -0.025216 0.065835 0.997512
0.150000 0.084803 0.010428 -0.025216 0.065835 0.997512
0.111939 0.012080 0.014797 -0.025216 0.065835 0.997512
0.111939 0.004027 0.014797 -0.025216 0.065835 0.997512
0.000000 0.012202 0.015109 0.001094 0.999999 0.000000
0.111939 0.012080 0.014797 0.001094 0.999999 0.000000
0.111939 0.012080 -0.014797 0.001094 0.999999 0.000000
0.000000 0.012202 -0.015109 0.001094 0.999999 0.000000
0.000000 0.004067 -0.015109 0.002792 0.000000 -0.999996
0.000000 0.012202 -0.015109 0.002792 0.000000 -0.999996
0.111939 0.012080 -0.014797 0.002792 0.000000 -0.999996
0.111939 0.004027 -0.014797 0.002792 0.000000 -0.999996
0.000000 -0.004067 -0.015109 -1.000000 0.000000 -0.000000
0.000000 -0.012202 -0.015109 -1.000000 0.000000 -0.000000
0.000000 -0.012202 0.015109 -1.000000 0.000000 -0.000000
0.000000 -0.004067 0.015109 -1.000000 0.000000 -0.000000
1.000000 0.002382 0.002130 1.000000 0.000000 -0.000000
1.000000 0.000794 0.002130 1.000000 0.000000 -0.000000
1.000000 0.000794 -0.002130 1.000000 0.000000 -0.000000
1.000000 0.002382 -0.002130 1.000000 0.000000 -0.000000
0.900000 -0.044011 -0.006029 0.072998 -0.079221 -0.994181
0.900000 -0.014670 -0.008493 0.072998 -0.079221 -0.994181
1.000000 -0.000794 -0.002130 0.072998 -0.079221 -0.994181
1.000000 -0.002382 -0.002130 0.072998 -0.079221 -0.994181
0.900000 -0.014670 -0.008493 0.063505 0.000000 -0.997981
0.900000 0.014670 -0.008493 0.063505 0.000000 -0.997981
1.000000 0.000794 -0.002130 0.063505 0.000000 -0.997981
1.000000 -0.000794 -0.002130 0.063505 0.000000 -0.997981
0.111939 -0.012080 0.014797 0.002792 0.000000 0.999996
0.111939 -0.004027 0.014797 0.002792 0.000000 0.999996
0.000000 -0.004067 0.015109 0.002792 0.000000 0.999996
0.000000 -0.012202 0.015109 0.002792 0.000000 0.999996
0.700000 -0.052333 -0.007342 0.010234 -0.084791 -0.996346
0.700000 -0.017444 -0.010344 0.010234 -0.084791 -0.996346
0.900000 -0.014670 -0.008493 0.010234 -0.084791 -0.996346
0.900000 -0.044011 -0.006029 0.010234 -0.084791 -0.996346
0.700000 -0.017444 -0.010344 0.009253 0.000000 -0.999957
0.700000 0.017444 -0.010344 0.009253 0.000000 -0.999957
0.900000 0.014670 -0.008493 0.009253 0.000000 -0.999957
0.900000 -0.014670 -0.008493 0.009253 0.000000 -0.999957
1.000000 -0.002382 0.002130 0.072998 -0.079221 0.994181
1.000000 -0.000794 0.002130 0.072998 -0.079221 0.994181
0.900000 -0.014670 0.008493 0.072998 -0.079221 0.994181
0.900000 -0.044011 0.006029 0.072998 -0.079221 0.994181
1.000000 -0.000794 0.002130 0.063505 0.000000 0.997981
1.000000 0.000794 0.002130 0.063505 0.000000 0.997981
0.900000 0.014670 0.008493 0.063505 0.000000 0.997981
0.900000 -0.014670 0.008493 0.063505 0.000000 0.997981
0.300000 -0.072604 0.009328 0.012963 -0.076727 0.996968
0.300000 -0.024201 0.013141 0.012963 -0.076727 0.996968
0.150000 -0.028268 0.014690 0.012963 -0.076727 0.996968
0.150000 -0.084803 0.010428 0.012963 -0.076727 0.996968
0.300000 -0.024201 0.013141 0.010328 0.000000 0.999947
0.300000 0.024201 0.013141 0.010328 0.000000 0.999947
0.150000 0.028268 0.014690 0.010328 0.000000 0.999947
0.150000 -0.028268 0.014690 0.010328 0.000000 0.999947
0.111939 -0.012080 -0.014797 -0.025216 -0.065835 -0.997512
0.111939 -0.004027 -0.014797 -0.025216 -0.065835 -0.997512
0.150000 -0.028268 -0.014690 -0.025216 -0.065835 -0.997512
0.150000 -0.084803 -0.010428 -0.025216 -0.065835 -0.997512
0.111939 -0.004027 -0.014797 0.002792 0.000000 -0.999996
0.150000 0.028268 -0.014690 0.002792 0.000000 -0.999996
0.150000 -0.028268 -0.014690 0.002792 0.000000 -0.999996
0.150000 -0.084803 0.010428 -0.025216 -0.065835 0.997512
0.150000 -0.028268 0.014690 -0.025216 -0.065835 0.997512
0.111939 -0.004027 0.014797 -0.025216 -0.065835 0.997512
0.111939 -0.012080 0.014797 -0.025216 -0.065835 0.997512
0.150000 -0.028268 0.014690 0.002792 0.000000 0.999996
0.150000 0.028268 0.014690 0.002792 0.000000 0.999996
0.000000 -0.012202 -0.015109 0.002792 0.000000 -0.999996
0.000000 -0.004067 -0.015109 0.002792 0.000000 -0.999996
0.111939 -0.012080 -0.014797 0.002792 0.000000 -0.999996
0.300000 0.072604 0.009328 0.063306 0.997994 0.000000
0.500000 0.059918 0.008162 0.063306 0.997994 0.000000
0.500000 0.059918 -0.008162 0.063306 0.997994 0.000000
0.300000 0.072604 -0.009328 0.063306 0.997994 0.000000
0.300000 0.024201 -0.013141 0.010411 0.080659 -0.996687
0.300000 0.072604 -0.009328 0.010411 0.080659 -0.996687
0.500000 0.059918 -0.008162 0.010411 0.080659 -0.996687
0.500000 0.019973 -0.011498 0.010411 0.080659 -0.996687
0.700000 -0.052333 0.007342 0.037895 -0.999282 0.000000
0.500000 -0.059918 0.008162 0.037895 -0.999282 0.000000
0.500000 -0.059918 -0.008162 0.037895 -0.999282 0.000000
0.700000 -0.052333 -0.007342 0.037895 -0.999282 0.000000
0.700000 0.017444 0.010344 0.007050 0.084390 0.996408
0.700000 0.052333 0.007342 0.007050 0.084390 0.996408
0.500000 0.059918 0.008162 0.007050 0.084390 0.996408
0.500000 0.019973 0.011498 0.007050 0.084390 0.996408
0.300000 -0.072604 -0.009328 0.010411 -0.080659 -0.996687
0.300000 -0.024201 -0.013141 0.010411 -0.080659 -0.996687
0.500000 -0.019973 -0.011498 0.010411 -0.080659 -0.996687
0.500000 -0.059918 -0.008162 0.010411 -0.080659 -0.996687
0.300000 -0.024201 -0.013141 0.008214 0.000000 -0.999966
0.300000 0.024201 -0.013141 0.008214 0.000000 -0.999966
0.500000 0.019973 -0.011498 0.008214 0.000000 -0.999966
0.500000 -0.019973 -0.011498 0.008214 0.000000 -0.999966
0.700000 -0.052333 0.007342 0.007050 -0.084390 0.996408
0.700000 -0.017444 0.010344 0.007050 -0.084390 0.996408
0.500000 -0.019973 0.011498 0.007050 -0.084390 0.996408
0.500000 -0.059918 0.008162 0.007050 -0.084390 0.996408
0.700000 -0.017444 0.010344 0.005771 0.000000 0.999983
0.700000 0.017444 0.010344 0.005771 0.000000 0.999983
0.500000 0.019973 0.011498 0.005771 0.000000 0.999983
0.500000 -0.019973 0.011498 0.005771 0.000000 0.999983
0.500000 -0.059918 0.008162 0.063306 -0.997994 0.000000
0.300000 -0.072604 0.009328 0.063306 -0.997994 0.000000
0.300000 -0.072604 -0.009328 0.063306 -0.997994 0.000000
0.500000 -0.059918 -0.008162 0.063306 -0.997994 0.000000
0.500000 0.019973 0.011498 0.010411 0.080659 0.996687
0.500000 0.059918 0.008162 0.010411 0.080659 0.996687
0.300000 0.072604 0.009328 0.010411 0.080659 0.996687
0.300000 0.024201 0.013141 0.010411 0.080659 0.996687
0.500000 -0.059918 0.008162 0.010411 -0.080659 0.996687
0.500000 -0.019973 0.011498 0.010411 -0.080659 0.996687
0.300000 -0.024201 0.013141 0.010411 -0.080659 0.996687
0.300000 -0.072604 0.009328 0.010411 -0.080659 0.996687
0.500000 -0.019973 0.011498 0.008214 0.000000 0.999966
0.500000 0.019973 0.011498 0.008214 0.000000 0.999966
0.300000 0.024201 0.013141 0.008214 0.000000 0.999966
0.300000 -0.024201 0.013141 0.008214 0.000000 0.999966
0.150000 0.084803 0.010428 0.081056 0.996710 0.000000
0.300000 0.072604 0.009328 0.081056 0.996710 0.000000
0.300000 0.072604 -0.009328 0.081056 0.996710 0.000000
0.150000 0.084803 -0.010428 0.081056 0.996710 0.000000
0.150000 0.028268 -0.014690 0.012963 0.076727 -0.996968
0.150000 0.084803 -0.010428 0.012963 0.076727 -0.996968
0.300000 0.072604 -0.009328 0.012963 0.076727 -0.996968
0.300000 0.024201 -0.013141 0.012963 0.076727 -0.996968
0.150000 -0.084803 -0.010428 0.012963 -0.076727 -0.996968
0.150000 -0.028268 -0.014690 0.012963 -0.076727 -0.996968
0.300000 -0.024201 -0.013141 0.012963 -0.076727 -0.996968
0.300000 -0.072604 -0.009328 0.012963 -0.076727 -0.996968
0.150000 -0.028268 -0.014690 0.010328 0.000000 -0.999947
0.150000 0.028268 -0.014690 0.010328 0.000000 -0.999947
0.300000 0.024201 -0.013141 0.010328 0.000000 -0.999947
0.300000 -0.024201 -0.013141 0.010328 0.000000 -0.999947
0.500000 0.059918 0.008162 0.037895 0.999282 0.000000
0.700000 0.052333 0.007342 0.037895 0.999282 0.000000
0.700000 0.052333 -0.007342 0.037895 0.999282 0.000000
0.500000 0.059918 -0.008162 0.037895 0.999282 0.000000
0.500000 0.019973 -0.011498 0.007050 0.084390 -0.996408
0.500000 0.059918 -0.008162 0.007050 0.084390 -0.996408
0.700000 0.052333 -0.007342 0.007050 0.084390 -0.996408
0.700000 0.017444 -0.010344 0.007050 0.084390 -0.996408
0.500000 -0.059918 -0.008162 0.007050 -0.084390 -0.996408
0.500000 -0.019973 -0.011498 0.007050 -0.084390 -0.996408
0.700000 -0.017444 -0.010344 0.007050 -0.084390 -0.996408
0.700000 -0.052333 -0.007342 0.007050 -0.084390 -0.996408
0.500000 -0.019973 -0.011498 0.005771 0.000000 -0.999983
0.500000 0.019973 -0.011498 0.005771 0.000000 -0.999983
0.700000 0.017444 -0.010344 0.005771 0.000000 -0.999983
0.700000 -0.017444 -0.010344 0.005771 0.000000 -0.999983
0.900000 -0.044011 0.006029 0.041574 -0.999135 0.000000
0.700000 -0.052333 0.007342 0.041574 -0.999135 0.000000
0.700000 -0.052333 -0.007342 0.041574 -0.999135 0.000000
0.900000 -0.044011 -0.006029 0.041574 -0.999135 0.000000
0.900000 0.014670 0.008493 0.010234 0.084791 0.996346
0.900000 0.044011 0.006029 0.010234 0.084791 0.996346
0.700000 0.052333 0.007342 0.010234 0.084791 0.996346
0.700000 0.017444 0.010344 0.010234 0.084791 0.996346
0.900000 -0.044011 0.006029 0.010234 -0.084791 0.996346
0.900000 -0.014670 0.008493 0.010234 -0.084791 0.996346
0.700000 -0.017444 0.010344 0.010234 -0.084791 0.996346
0.700000 -0.052333 0.007342 0.010234 -0.084791 0.996346
0.900000 -0.014670 0.008493 0.009253 0.000000 0.999957
0.900000 0.014670 0.008493 0.009253 0.000000 0.999957
0.700000 0.017444 0.010344 0.009253 0.000000 0.999957
0.700000 -0.017444 0.010344 0.009253 0.000000 0.999957
4 0 1 2 3
4 4 5 6 7
4 8 9 10 11
4 12 13 14 15
4 16 17 18 19
4 20 21 22 23
4 24 25 26 27
4 28 29 30 31
4 32 33 34 35
4 36 37 38 39
4 40 41 42 43
4 44 45 46 47
4 48 49 50 51
4 52 53 54 55
4 56 57 58 59
4 60 61 62 63
4 64 65 66 67
4 68 69 70 71
4 72 73 74 75
4 75 0 3 72
4 76 77 78 79
4 77 8 11 78
4 80 81 82 83
4 84 85 86 87
4 88 89 90 91
4 89 20 23 90
4 92 93 94 95
4 96 97 98 99
4 100 101 102 103
4 104 105 106 107
4 108 109 110 111
4 112 113 114 115
4 116 117 118 119
4 120 71 121 122
4 123 124 125 126
4 127 128 20 89
4 129 130 120 131
4 130 68 71 120
4 132 133 134 135
4 136 137 138 139
4 140 141 142 143
4 144 145 146 147
4 148 149 150 151
4 152 153 154 155
4 156 157 158 159
4 160 161 162 163
4 164 165 166 167
4 168 169 170 171
4 172 173 174 175
4 176 177 178 179
4 180 181 182 183
4 184 185 186 187
4 188 189 190 191
4 192 193 194 195
4 196 197 198 199
4 200 201 202 203
4 204 205 206 207
4 208 209 210 211
4 212 213 214 215
4 216 217 218 219
4 220 221 222 223
4 224 225 226 227
