ply
format ascii 1.0
comment Created by Blender 2.71 (sub 0) - www.blender.org, source file: 'GreatswordBladeSharp.blend'
element vertex 184
property float x
property float y
property float z
property float nx
property float ny
property float nz
element face 62
property list uchar uint vertex_indices
end_header
0.000000 0.008643 0.026085 -1.000000 0.000000 0.000000
0.000000 0.025930 0.026085 -1.000000 0.000000 0.000000
0.000000 0.025930 -0.026085 -1.000000 0.000000 0.000000
0.000000 0.008643 -0.026085 -1.000000 0.000000 0.000000
0.900000 0.101788 0.000020 0.713345 0.700813 0.000000
1.000000 0.000000 0.000020 0.713345 0.700813 0.000000
1.000000 0.000000 -0.000020 0.713345 0.700813 0.000000
0.900000 0.101788 -0.000020 0.713345 0.700813 0.000000
1.000000 0.000000 0.000020 0.000000 0.000000 0.000000
1.000000 0.000000 0.000020 0.000000 0.000000 0.000000
1.000000 0.000000 -0.000020 0.000000 0.000000 0.000000
1.000000 0.000000 -0.000020 0.000000 0.000000 0.000000
0.000000 -0.025930 -0.026085 0.000000 -1.000000 -0.000000
0.155328 -0.025930 -0.026085 0.000000 -1.000000 -0.000000
0.155328 -0.025930 0.026085 0.000000 -1.000000 -0.000000
0.000000 -0.025930 0.026085 0.000000 -1.000000 -0.000000
0.900000 0.033021 -0.060277 0.557083 0.547296 -0.624600
0.900000 0.101788 -0.000020 0.557083 0.547296 -0.624600
1.000000 0.000000 -0.000020 0.557083 0.547296 -0.624600
1.000000 0.000000 -0.000020 0.557083 0.547296 -0.624600
0.155328 0.008643 0.026085 -0.000000 0.000000 1.000000
0.155328 0.025930 0.026085 -0.000000 0.000000 1.000000
0.000000 0.025930 0.026085 -0.000000 0.000000 1.000000
0.000000 0.008643 0.026085 -0.000000 0.000000 1.000000
0.300000 0.101788 0.000020 0.000000 1.000000 -0.000000
0.500000 0.101788 0.000020 0.000000 1.000000 -0.000000
0.500000 0.101788 -0.000020 0.000000 1.000000 -0.000000
0.300000 0.101788 -0.000020 0.000000 1.000000 -0.000000
0.700000 -0.101788 0.000020 0.000000 -1.000000 0.000000
0.500000 -0.101788 0.000020 0.000000 -1.000000 0.000000
0.500000 -0.101788 -0.000020 0.000000 -1.000000 0.000000
0.700000 -0.101788 -0.000020 0.000000 -1.000000 0.000000
0.300000 0.033021 -0.060277 0.000000 0.659031 -0.752116
0.300000 0.101788 -0.000020 0.000000 0.659031 -0.752116
0.500000 0.101788 -0.000020 0.000000 0.659031 -0.752116
0.500000 0.033021 -0.060277 0.000000 0.659031 -0.752116
0.700000 0.033021 0.060277 0.000000 0.659031 0.752116
0.700000 0.101788 0.000020 0.000000 0.659031 0.752116
0.500000 0.101788 0.000020 0.000000 0.659031 0.752116
0.500000 0.033021 0.060277 0.000000 0.659031 0.752116
0.700000 0.101788 0.000020 0.000000 1.000000 -0.000000
0.700000 0.101788 -0.000020 0.000000 1.000000 -0.000000
0.700000 0.101788 -0.000020 0.000000 0.659031 -0.752116
0.700000 0.033021 -0.060277 0.000000 0.659031 -0.752116
0.900000 -0.101788 0.000020 0.000000 -1.000000 0.000000
0.900000 -0.101788 -0.000020 0.000000 -1.000000 0.000000
0.900000 0.033021 0.060277 0.000000 0.659031 0.752116
0.900000 0.101788 0.000020 0.000000 0.659031 0.752116
0.300000 -0.101788 0.000020 0.000000 -1.000000 0.000000
0.300000 -0.101788 -0.000020 0.000000 -1.000000 0.000000
0.300000 0.101788 0.000020 0.000000 0.659031 0.752116
0.300000 0.033021 0.060277 0.000000 0.659031 0.752116
0.200000 0.101788 0.000020 0.000000 1.000000 -0.000000
0.200000 0.101788 -0.000020 0.000000 1.000000 -0.000000
0.200000 0.033021 -0.060277 0.000000 0.659031 -0.752116
0.200000 0.101788 -0.000020 0.000000 0.659031 -0.752116
0.200000 -0.101788 0.000020 0.000000 -1.000000 0.000000
0.200000 -0.101788 -0.000020 0.000000 -1.000000 0.000000
0.200000 0.101788 0.000020 0.000000 0.659031 0.752116
0.200000 0.033021 0.060277 0.000000 0.659031 0.752116
0.155328 0.025930 0.026085 -0.861687 0.507440 0.000000
0.200000 0.101788 0.000020 -0.861687 0.507440 0.000000
0.200000 0.101788 -0.000020 -0.861687 0.507440 0.000000
0.155328 0.025930 -0.026085 -0.861687 0.507440 0.000000
0.155328 0.008643 -0.026085 -0.583240 0.465919 -0.665395
0.155328 0.025930 -0.026085 -0.583240 0.465919 -0.665395
0.200000 0.101788 -0.000020 -0.583240 0.465919 -0.665395
0.200000 0.033021 -0.060277 -0.583240 0.465919 -0.665395
0.900000 0.101788 0.000020 0.000000 1.000000 -0.000000
0.900000 0.101788 -0.000020 0.000000 1.000000 -0.000000
0.900000 0.101788 -0.000020 0.000000 0.659031 -0.752116
0.900000 0.033021 -0.060277 0.000000 0.659031 -0.752116
1.000000 0.000000 0.000020 0.713345 -0.700813 0.000000
0.900000 -0.101788 0.000020 0.713345 -0.700813 0.000000
0.900000 -0.101788 -0.000020 0.713345 -0.700813 0.000000
1.000000 0.000000 -0.000020 0.713345 -0.700813 0.000000
1.000000 0.000000 0.000020 0.557083 0.547296 0.624600
1.000000 0.000000 0.000020 0.557083 0.547296 0.624600
0.900000 0.101788 0.000020 0.557083 0.547296 0.624600
0.900000 0.033021 0.060277 0.557083 0.547296 0.624600
0.200000 -0.101788 0.000020 -0.861687 -0.507440 0.000000
0.155328 -0.025930 0.026085 -0.861687 -0.507440 0.000000
0.155328 -0.025930 -0.026085 -0.861687 -0.507440 0.000000
0.200000 -0.101788 -0.000020 -0.861687 -0.507440 0.000000
0.200000 0.033021 0.060277 -0.583240 0.465919 0.665395
0.200000 0.101788 0.000020 -0.583240 0.465919 0.665395
0.155328 0.025930 0.026085 -0.583240 0.465919 0.665395
0.155328 0.008643 0.026085 -0.583240 0.465919 0.665395
0.000000 0.025930 0.026085 0.000000 1.000000 -0.000000
0.155328 0.025930 0.026085 0.000000 1.000000 -0.000000
0.155328 0.025930 -0.026085 0.000000 1.000000 -0.000000
0.000000 0.025930 -0.026085 0.000000 1.000000 -0.000000
0.000000 0.008643 -0.026085 -0.000000 0.000000 -1.000000
0.000000 0.025930 -0.026085 -0.000000 0.000000 -1.000000
0.155328 0.025930 -0.026085 -0.000000 0.000000 -1.000000
0.155328 0.008643 -0.026085 -0.000000 0.000000 -1.000000
0.000000 -0.008643 -0.026085 -1.000000 0.000000 -0.000000
0.000000 -0.025930 -0.026085 -1.000000 0.000000 -0.000000
0.000000 -0.025930 0.026085 -1.000000 0.000000 -0.000000
0.000000 -0.008643 0.026085 -1.000000 0.000000 -0.000000
1.000000 0.000000 0.000020 0.000000 0.000000 0.000000
1.000000 0.000000 0.000020 0.000000 0.000000 0.000000
1.000000 0.000000 -0.000020 0.000000 0.000000 0.000000
1.000000 0.000000 -0.000020 0.000000 0.000000 0.000000
0.900000 -0.101788 -0.000020 0.557083 -0.547296 -0.624600
0.900000 -0.033021 -0.060277 0.557083 -0.547296 -0.624600
1.000000 0.000000 -0.000020 0.557083 -0.547296 -0.624600
1.000000 0.000000 -0.000020 0.557083 -0.547296 -0.624600
0.900000 -0.033021 -0.060277 0.516110 0.000000 -0.856522
0.900000 0.033021 -0.060277 0.516110 0.000000 -0.856522
1.000000 0.000000 -0.000020 0.516110 0.000000 -0.856522
1.000000 0.000000 -0.000020 0.516110 0.000000 -0.856522
0.155328 -0.025930 0.026085 -0.000000 0.000000 1.000000
0.155328 -0.008643 0.026085 -0.000000 0.000000 1.000000
0.000000 -0.008643 0.026085 -0.000000 0.000000 1.000000
0.000000 -0.025930 0.026085 -0.000000 0.000000 1.000000
0.300000 -0.101788 -0.000020 0.000000 -0.659031 -0.752116
0.300000 -0.033021 -0.060277 0.000000 -0.659031 -0.752116
0.500000 -0.033021 -0.060277 0.000000 -0.659031 -0.752116
0.500000 -0.101788 -0.000020 0.000000 -0.659031 -0.752116
0.300000 -0.033021 -0.060277 -0.000000 0.000000 -1.000000
0.300000 0.033021 -0.060277 -0.000000 0.000000 -1.000000
0.500000 0.033021 -0.060277 -0.000000 0.000000 -1.000000
0.500000 -0.033021 -0.060277 -0.000000 0.000000 -1.000000
0.700000 -0.101788 0.000020 0.000000 -0.659031 0.752116
0.700000 -0.033021 0.060277 0.000000 -0.659031 0.752116
0.500000 -0.033021 0.060277 0.000000 -0.659031 0.752116
0.500000 -0.101788 0.000020 0.000000 -0.659031 0.752116
0.700000 -0.033021 0.060277 -0.000000 0.000000 1.000000
0.700000 0.033021 0.060277 -0.000000 0.000000 1.000000
0.500000 0.033021 0.060277 -0.000000 0.000000 1.000000
0.500000 -0.033021 0.060277 -0.000000 0.000000 1.000000
0.700000 -0.033021 -0.060277 0.000000 -0.659031 -0.752116
0.700000 -0.101788 -0.000020 0.000000 -0.659031 -0.752116
0.700000 0.033021 -0.060277 -0.000000 0.000000 -1.000000
0.700000 -0.033021 -0.060277 -0.000000 0.000000 -1.000000
0.900000 -0.101788 0.000020 0.000000 -0.659031 0.752116
0.900000 -0.033021 0.060277 0.000000 -0.659031 0.752116
0.900000 -0.033021 0.060277 -0.000000 0.000000 1.000000
0.900000 0.033021 0.060277 -0.000000 0.000000 1.000000
0.300000 -0.033021 0.060277 0.000000 -0.659031 0.752116
0.300000 -0.101788 0.000020 0.000000 -0.659031 0.752116
0.300000 0.033021 0.060277 -0.000000 0.000000 1.000000
0.300000 -0.033021 0.060277 -0.000000 0.000000 1.000000
0.200000 -0.101788 -0.000020 0.000000 -0.659031 -0.752116
0.200000 -0.033021 -0.060277 0.000000 -0.659031 -0.752116
0.200000 -0.033021 -0.060277 -0.000000 0.000000 -1.000000
0.200000 0.033021 -0.060277 -0.000000 0.000000 -1.000000
0.200000 -0.033021 0.060277 0.000000 -0.659031 0.752116
0.200000 -0.101788 0.000020 0.000000 -0.659031 0.752116
0.200000 0.033021 0.060277 -0.000000 0.000000 1.000000
0.200000 -0.033021 0.060277 -0.000000 0.000000 1.000000
0.155328 -0.025930 -0.026085 -0.583240 -0.465919 -0.665395
0.155328 -0.008643 -0.026085 -0.583240 -0.465919 -0.665395
0.200000 -0.033021 -0.060277 -0.583240 -0.465919 -0.665395
0.200000 -0.101788 -0.000020 -0.583240 -0.465919 -0.665395
0.155328 -0.008643 -0.026085 -0.607794 0.000000 -0.794095
0.155328 0.008643 -0.026085 -0.607794 0.000000 -0.794095
0.200000 0.033021 -0.060277 -0.607794 0.000000 -0.794095
0.200000 -0.033021 -0.060277 -0.607794 0.000000 -0.794095
0.900000 -0.033021 -0.060277 0.000000 -0.659031 -0.752116
0.900000 -0.101788 -0.000020 0.000000 -0.659031 -0.752116
0.900000 0.033021 -0.060277 -0.000000 0.000000 -1.000000
0.900000 -0.033021 -0.060277 -0.000000 0.000000 -1.000000
1.000000 0.000000 0.000020 0.557083 -0.547296 0.624600
1.000000 0.000000 0.000020 0.557083 -0.547296 0.624600
0.900000 -0.033021 0.060277 0.557083 -0.547296 0.624600
0.900000 -0.101788 0.000020 0.557083 -0.547296 0.624600
1.000000 0.000000 0.000020 0.516110 0.000000 0.856522
1.000000 0.000000 0.000020 0.516110 0.000000 0.856522
0.900000 0.033021 0.060277 0.516110 0.000000 0.856522
0.900000 -0.033021 0.060277 0.516110 0.000000 0.856522
0.200000 -0.101788 0.000020 -0.583240 -0.465919 0.665395
0.200000 -0.033021 0.060277 -0.583240 -0.465919 0.665395
0.155328 -0.008643 0.026085 -0.583240 -0.465919 0.665395
0.155328 -0.025930 0.026085 -0.583240 -0.465919 0.665395
0.200000 -0.033021 0.060277 -0.607794 0.000000 0.794095
0.200000 0.033021 0.060277 -0.607794 0.000000 0.794095
0.155328 0.008643 0.026085 -0.607794 0.000000 0.794095
0.155328 -0.008643 0.026085 -0.607794 0.000000 0.794095
0.000000 -0.025930 -0.026085 -0.000000 0.000000 -1.000000
0.000000 -0.008643 -0.026085 -0.000000 0.000000 -1.000000
0.155328 -0.008643 -0.026085 -0.000000 0.000000 -1.000000
0.155328 -0.025930 -0.026085 -0.000000 0.000000 -1.000000
4 0 1 2 3
4 4 5 6 7
4 8 9 10 11
4 12 13 14 15
4 16 17 18 19
4 20 21 22 23
4 24 25 26 27
4 28 29 30 31
4 32 33 34 35
4 36 37 38 39
4 25 40 41 26
4 35 34 42 43
4 44 28 31 45
4 46 47 37 36
4 29 48 49 30
4 39 38 50 51
4 52 24 27 53
4 54 55 33 32
4 48 56 57 49
4 51 50 58 59
4 60 61 62 63
4 64 65 66 67
4 40 68 69 41
4 43 42 70 71
4 72 73 74 75
4 76 77 78 79
4 80 81 82 83
4 84 85 86 87
4 88 89 90 91
4 92 93 94 95
4 96 97 98 99
4 99 0 3 96
4 100 101 102 103
4 101 8 11 102
4 104 105 106 107
4 108 109 110 111
4 112 113 114 115
4 113 20 23 114
4 116 117 118 119
4 120 121 122 123
4 124 125 126 127
4 128 129 130 131
4 119 118 132 133
4 123 122 134 135
4 136 137 125 124
4 138 139 129 128
4 127 126 140 141
4 131 130 142 143
4 144 145 117 116
4 146 147 121 120
4 141 140 148 149
4 143 142 150 151
4 152 153 154 155
4 156 157 158 159
4 133 132 160 161
4 135 134 162 163
4 164 165 166 167
4 168 169 170 171
4 172 173 174 175
4 176 177 178 179
4 180 181 182 183
4 181 92 95 182
