ply
format ascii 1.0
comment Created by Blender 2.71 (sub 0) - www.blender.org, source file: 'castingTable.blend'
element vertex 197
property float x
property float y
property float z
property float nx
property float ny
property float nz
property uchar red
property uchar green
property uchar blue
element face 78
property list uchar uint vertex_indices
end_header
5.130558 1.652064 1.902754 -0.000000 1.000000 0.000000 57 57 57
5.130557 1.652065 0.000000 -0.000000 1.000000 0.000000 74 74 74
4.587960 1.652065 0.000000 -0.000000 1.000000 0.000000 77 77 77
-4.587960 1.652065 1.430821 -0.000000 1.000000 0.000001 63 61 60
-4.587960 1.652066 0.000000 -0.000000 1.000000 0.000001 56 56 56
-5.130556 1.652066 0.000000 -0.000000 1.000000 0.000001 77 70 67
4.587960 1.652064 1.430821 -0.000000 1.000000 0.000000 56 56 56
-5.130557 1.652065 1.902754 0.000000 1.000000 0.000001 56 56 56
-5.130557 1.652065 1.902754 0.000000 1.000000 0.000000 56 56 56
-4.587960 1.652065 1.430821 0.000000 1.000000 0.000000 63 61 60
5.130557 1.652065 0.000000 1.000000 0.000000 -0.000001 74 74 74
5.130558 1.652064 1.902754 1.000000 0.000000 -0.000001 58 58 58
5.130557 1.101377 0.000000 1.000000 0.000000 -0.000001 77 77 77
5.130555 -1.652066 1.902754 1.000000 0.000000 0.000001 56 56 56
5.130557 -1.652065 0.000000 1.000000 0.000000 0.000001 56 56 56
5.130557 -1.101377 0.000000 1.000000 0.000000 0.000001 56 56 56
5.130558 1.652064 1.902754 1.000000 -0.000001 -0.000000 58 58 58
5.130558 1.101377 1.430821 1.000000 -0.000001 -0.000000 56 56 56
5.130557 1.101377 0.000000 1.000000 -0.000001 -0.000000 77 77 77
5.130555 -1.652066 1.902754 1.000000 -0.000001 0.000001 56 56 56
5.130557 -1.101377 0.000000 1.000000 -0.000001 0.000001 56 56 56
5.130556 -1.101377 1.430821 1.000000 -0.000001 0.000001 56 56 56
5.130558 1.652064 1.902754 1.000000 -0.000001 -0.000001 58 58 58
5.130556 -1.101377 1.430821 1.000000 -0.000001 -0.000001 56 56 56
5.130558 1.101377 1.430821 1.000000 -0.000001 -0.000001 56 56 56
5.130558 1.652064 1.902754 1.000000 -0.000001 0.000001 58 58 58
-5.130557 1.652065 1.902754 0.000000 0.000000 1.000000 77 77 77
-5.130558 -1.652064 1.902754 0.000000 0.000000 1.000000 56 56 56
-5.030457 -1.526612 1.902754 0.000000 0.000000 1.000000 56 56 56
-5.030456 1.526612 1.902754 0.000000 0.000000 1.000000 77 71 68
-5.130558 -1.652065 0.000000 -1.000000 0.000001 -0.000000 77 70 67
-5.130558 -1.652064 1.902754 -1.000000 0.000001 -0.000000 56 56 56
-5.130557 -1.101377 0.000000 -1.000000 0.000001 -0.000000 77 77 77
-5.130557 1.652065 1.902754 -1.000000 0.000000 -0.000000 77 77 77
-5.130556 1.652066 0.000000 -1.000000 0.000000 -0.000000 56 56 56
-5.130556 1.101377 0.000000 -1.000000 0.000000 -0.000000 56 56 56
-5.130558 -1.652064 1.902754 -1.000000 -0.000001 -0.000001 56 56 56
-5.130558 -1.101377 1.430821 -1.000000 -0.000001 -0.000001 56 56 56
-5.130557 -1.101377 0.000000 -1.000000 -0.000001 -0.000001 77 77 77
-5.130557 1.101377 1.430821 -1.000000 0.000000 -0.000000 56 56 56
-5.130558 -1.652064 1.902754 -1.000000 0.000001 0.000001 56 56 56
-5.130557 1.101377 1.430821 -1.000000 0.000001 0.000001 56 56 56
-5.130558 -1.101377 1.430821 -1.000000 0.000001 0.000001 56 56 56
-5.130558 -1.652064 1.902754 -1.000000 0.000000 -0.000001 56 56 56
-5.130557 1.652065 1.902754 -1.000000 0.000000 -0.000001 77 77 77
-5.130557 1.101377 1.430821 -1.000000 0.000000 -0.000001 56 56 56
5.130557 -1.652065 0.000000 0.000000 -1.000000 -0.000001 76 76 76
5.130555 -1.652066 1.902754 0.000000 -1.000000 -0.000001 63 61 59
4.587960 -1.652065 0.000000 0.000000 -1.000000 -0.000001 69 69 69
-5.130558 -1.652064 1.902754 0.000000 -1.000000 0.000000 56 56 56
-5.130558 -1.652065 0.000000 0.000000 -1.000000 0.000000 77 70 67
-4.587960 -1.652065 0.000000 0.000000 -1.000000 0.000000 76 75 75
4.587960 -1.652066 1.430821 -0.000000 -1.000000 -0.000001 62 60 59
-4.587960 -1.652065 1.430821 -0.000000 -1.000000 -0.000000 56 56 56
-4.587960 -1.652065 1.430821 -0.000000 -1.000000 -0.000001 56 56 56
5.130555 -1.652066 1.902754 -0.000000 -1.000000 0.000000 63 61 59
4.587960 -1.101377 1.430821 0.000000 -0.000000 -1.000000 56 56 56
-4.587960 -1.101377 1.430821 0.000000 -0.000000 -1.000000 56 56 56
-4.587960 1.101377 1.430821 0.000000 -0.000000 -1.000000 56 56 56
4.587960 1.101377 1.430821 0.000000 -0.000000 -1.000000 56 56 56
4.587960 -1.321653 1.430821 0.000000 0.000000 -1.000000 56 56 56
-4.587960 -1.321653 1.430821 0.000000 0.000000 -1.000000 56 56 56
4.838404 1.101377 1.430821 0.000000 0.000000 -1.000000 56 56 56
4.838404 -1.101377 1.430821 0.000000 0.000000 -1.000000 56 56 56
-4.587960 1.321653 1.430821 -0.000000 0.000000 -1.000000 56 56 56
4.587960 1.321653 1.430821 -0.000000 0.000000 -1.000000 56 56 56
-4.838404 -1.101377 1.430821 0.000000 -0.000000 -1.000000 56 56 56
-4.838404 1.101377 1.430821 0.000000 -0.000000 -1.000000 56 56 56
-4.838404 -1.321653 1.430821 0.000000 -0.000000 -1.000000 56 56 56
-4.838404 -1.101377 1.430821 0.000000 -0.000000 -1.000000 56 56 56
4.587960 -1.652066 1.430821 0.000000 -0.000000 -1.000000 62 60 59
-4.587960 -1.652065 1.430821 0.000000 -0.000000 -1.000000 56 56 56
4.587960 -1.321653 1.430821 0.000000 -0.000000 -1.000000 77 70 67
4.838404 -1.321653 1.430821 0.000000 0.000000 -1.000000 56 56 56
4.587960 -1.321653 1.430821 0.000000 0.000000 -1.000000 56 56 56
5.130558 1.101377 1.430821 0.000000 0.000000 -1.000000 56 56 56
5.130556 -1.101377 1.430821 0.000000 0.000000 -1.000000 56 56 56
4.838404 1.321653 1.430821 0.000000 0.000000 -1.000000 56 56 56
4.838404 1.101377 1.430821 0.000000 0.000000 -1.000000 56 56 56
-4.587960 1.652065 1.430821 0.000000 0.000000 -1.000000 56 56 56
4.587960 1.652064 1.430821 0.000000 0.000000 -1.000000 56 56 56
-4.838404 1.321653 1.430821 -0.000000 0.000000 -1.000000 56 56 56
-4.587960 1.321653 1.430821 -0.000000 0.000000 -1.000000 56 56 56
-5.130558 -1.101377 1.430821 -0.000000 0.000000 -1.000000 56 56 56
-5.130557 1.101377 1.430821 -0.000000 0.000000 -1.000000 56 56 56
4.587960 -1.321653 0.000000 -1.000000 0.000000 -0.000000 77 77 77
4.587960 -1.652065 0.000000 -1.000000 0.000000 -0.000000 69 69 69
4.587960 -1.652066 1.430821 -1.000000 0.000000 -0.000000 62 60 59
4.587960 -1.321653 1.430821 -1.000000 0.000000 -0.000000 77 70 67
-4.587960 -1.321653 0.000000 0.000000 1.000000 0.000000 56 56 56
-4.838404 -1.321653 0.000000 0.000000 1.000000 0.000000 56 56 56
-4.838404 -1.321653 1.430821 0.000000 1.000000 0.000000 57 57 57
-4.587960 -1.321653 1.430821 0.000000 1.000000 0.000000 56 56 56
-4.838404 -1.321653 0.000000 1.000000 0.000000 0.000000 56 56 56
-4.838404 -1.101377 0.000000 1.000000 0.000000 0.000000 56 56 56
-4.838404 -1.101377 1.430821 1.000000 0.000000 0.000000 56 56 56
-4.838404 -1.321653 1.430821 1.000000 0.000000 0.000000 56 56 56
-4.587960 -1.321653 1.430821 1.000000 0.000000 -0.000000 56 56 56
-4.587960 -1.652065 1.430821 1.000000 0.000000 -0.000000 56 56 56
-4.587960 -1.652065 0.000000 1.000000 0.000000 -0.000000 56 56 56
-4.587960 -1.321653 0.000000 1.000000 0.000000 -0.000000 56 56 56
4.838404 1.101377 0.000000 0.000000 -1.000000 -0.000000 56 56 56
5.130557 1.101377 0.000000 0.000000 -1.000000 -0.000000 56 56 56
5.130558 1.101377 1.430821 0.000000 -1.000000 -0.000000 56 56 56
4.838404 1.101377 1.430821 0.000000 -1.000000 -0.000000 56 56 56
4.838404 -1.101377 0.000000 -1.000000 0.000000 -0.000000 56 56 56
4.838404 -1.321653 0.000000 -1.000000 0.000000 -0.000000 56 56 56
4.838404 -1.321653 1.430821 -1.000000 0.000000 -0.000000 75 69 66
4.838404 -1.101377 1.430821 -1.000000 0.000000 -0.000000 74 68 66
4.838404 -1.321653 0.000000 0.000000 1.000000 0.000000 56 56 56
4.587960 -1.321653 0.000000 0.000000 1.000000 0.000000 56 56 56
4.587960 -1.321653 1.430821 0.000000 1.000000 0.000000 56 56 56
4.838404 -1.321653 1.430821 0.000000 1.000000 0.000000 56 56 56
4.838404 -1.101377 1.430821 0.000000 1.000000 -0.000000 56 56 56
5.130556 -1.101377 1.430821 0.000000 1.000000 -0.000000 56 56 56
5.130557 -1.101377 0.000000 0.000000 1.000000 -0.000000 56 56 56
4.838404 -1.101377 0.000000 0.000000 1.000000 -0.000000 56 56 56
-4.587960 1.321653 0.000000 1.000000 0.000000 0.000000 75 68 66
-4.587960 1.652066 0.000000 1.000000 0.000000 0.000000 56 56 56
-4.587960 1.652065 1.430821 1.000000 0.000000 0.000000 63 61 60
-4.587960 1.321653 1.430821 1.000000 0.000000 0.000000 76 69 66
4.587960 1.321653 0.000000 0.000000 -1.000000 -0.000000 56 56 56
4.838404 1.321653 0.000000 0.000000 -1.000000 -0.000000 62 62 62
4.838404 1.321653 1.430821 0.000000 -1.000000 -0.000000 56 56 56
4.587960 1.321653 1.430821 0.000000 -1.000000 -0.000000 56 56 56
4.838404 1.321653 0.000000 -1.000000 0.000000 -0.000000 56 56 56
4.838404 1.101377 0.000000 -1.000000 0.000000 -0.000000 56 56 56
4.838404 1.101377 1.430821 -1.000000 0.000000 -0.000000 56 56 56
4.838404 1.321653 1.430821 -1.000000 0.000000 -0.000000 56 56 56
4.587960 1.321653 1.430821 -1.000000 0.000000 0.000000 56 56 56
4.587960 1.652064 1.430821 -1.000000 0.000000 0.000000 56 56 56
4.587960 1.652065 0.000000 -1.000000 0.000000 0.000000 56 56 56
4.587960 1.321653 0.000000 -1.000000 0.000000 0.000000 56 56 56
-4.838404 -1.101377 0.000000 0.000000 1.000000 0.000000 56 56 56
-5.130557 -1.101377 0.000000 0.000000 1.000000 0.000000 56 56 56
-5.130558 -1.101377 1.430821 0.000000 1.000000 0.000000 56 56 56
-4.838404 -1.101377 1.430821 0.000000 1.000000 0.000000 56 56 56
-4.838404 1.101377 0.000000 1.000000 0.000000 0.000000 77 70 67
-4.838404 1.321653 0.000000 1.000000 0.000000 0.000000 77 70 67
-4.838404 1.321653 1.430821 1.000000 0.000000 0.000000 56 56 56
-4.838404 1.101377 1.430821 1.000000 0.000000 0.000000 56 56 56
-4.838404 1.321653 0.000000 0.000000 -1.000000 -0.000000 56 56 56
-4.587960 1.321653 0.000000 0.000000 -1.000000 -0.000000 56 56 56
-4.587960 1.321653 1.430821 0.000000 -1.000000 -0.000000 56 56 56
-4.838404 1.321653 1.430821 0.000000 -1.000000 -0.000000 56 56 56
-4.838404 1.101377 1.430821 0.000000 -1.000000 0.000000 56 56 56
-5.130557 1.101377 1.430821 0.000000 -1.000000 0.000000 56 56 56
-5.130556 1.101377 0.000000 0.000000 -1.000000 0.000000 56 56 56
-4.838404 1.101377 0.000000 0.000000 -1.000000 0.000000 56 56 56
5.130557 -1.652065 0.000000 -0.000000 0.000000 1.000000 56 56 56
5.130557 -1.101377 0.000000 -0.000000 0.000000 1.000000 56 56 56
4.838404 -1.101377 0.000000 -0.000000 0.000000 1.000000 56 56 56
4.838404 -1.321653 0.000000 -0.000000 0.000000 1.000000 56 56 56
4.587960 -1.321653 0.000000 -0.000000 0.000000 1.000000 56 56 56
4.587960 -1.652065 0.000000 -0.000000 0.000000 1.000000 56 56 56
5.130557 1.101377 0.000000 -0.000000 0.000000 1.000000 56 56 56
5.130557 1.652065 0.000000 -0.000000 0.000000 1.000000 56 56 56
4.587960 1.652065 0.000000 -0.000000 0.000000 1.000000 56 56 56
4.838404 1.321653 0.000000 -0.000000 -0.000000 1.000000 56 56 56
4.587960 1.321653 0.000000 -0.000000 0.000000 1.000000 56 56 56
4.838404 1.101377 0.000000 -0.000000 0.000000 1.000000 56 56 56
-5.130558 -1.652065 0.000000 -0.000000 0.000000 -1.000000 77 70 67
-5.130557 -1.101377 0.000000 -0.000000 0.000000 -1.000000 56 56 56
-4.838404 -1.101377 0.000000 -0.000000 0.000000 -1.000000 56 56 56
-4.838404 -1.321653 0.000000 -0.000000 0.000000 -1.000000 57 57 57
-4.587960 -1.321653 0.000000 -0.000000 0.000000 -1.000000 56 56 56
-4.587960 -1.652065 0.000000 -0.000000 0.000000 -1.000000 59 58 57
-5.130556 1.101377 0.000000 -0.000000 -0.000000 -1.000000 56 56 56
-5.130556 1.652066 0.000000 -0.000000 -0.000000 -1.000000 56 56 56
-4.587960 1.652066 0.000000 -0.000000 -0.000000 -1.000000 56 56 56
-4.838404 1.321653 0.000000 -0.000000 0.000000 -1.000000 56 56 56
-4.587960 1.321653 0.000000 -0.000000 0.000000 -1.000000 56 56 56
-4.838404 1.101377 0.000000 -0.000000 0.000000 -1.000000 56 56 56
-5.030456 1.526612 1.902754 1.000000 -0.000001 0.000000 75 69 66
-5.030457 -1.526612 1.902754 1.000000 -0.000001 0.000000 56 56 56
-5.030457 -1.526612 1.575213 1.000000 -0.000001 0.000000 56 56 56
-5.030456 1.526612 1.575213 1.000000 -0.000001 0.000000 77 70 67
5.130555 -1.652066 1.902754 0.000000 0.000000 1.000000 54 54 54
5.030454 -1.526613 1.902754 0.000000 0.000000 1.000000 45 45 45
5.130558 1.652064 1.902754 -0.000000 0.000000 1.000000 59 59 58
5.030457 1.526611 1.902754 -0.000000 0.000000 1.000000 75 69 66
5.030457 1.526611 1.575213 0.000000 -0.000000 1.000000 77 70 67
-5.030456 1.526612 1.575213 0.000000 -0.000000 1.000000 77 70 67
-5.030457 -1.526612 1.575213 0.000000 -0.000000 1.000000 56 56 56
5.030454 -1.526613 1.575213 0.000000 -0.000000 1.000000 44 44 44
-5.030457 -1.526612 1.902754 0.000000 1.000000 0.000000 56 56 56
5.030454 -1.526613 1.902754 0.000000 1.000000 0.000000 45 45 45
5.030454 -1.526613 1.575213 0.000000 1.000000 0.000000 44 44 44
-5.030457 -1.526612 1.575213 0.000000 1.000000 0.000000 56 56 56
5.030454 -1.526613 1.902754 -1.000000 0.000001 0.000000 45 45 45
5.030457 1.526611 1.902754 -1.000000 0.000001 0.000000 76 70 67
5.030457 1.526611 1.575213 -1.000000 0.000001 0.000000 77 70 67
5.030454 -1.526613 1.575213 -1.000000 0.000001 0.000000 44 44 44
5.030457 1.526611 1.902754 -0.000000 -1.000000 0.000000 57 57 57
-5.030456 1.526612 1.902754 -0.000000 -1.000000 0.000000 77 77 77
-5.030456 1.526612 1.575213 -0.000000 -1.000000 0.000000 77 77 77
5.030457 1.526611 1.575213 -0.000000 -1.000000 0.000000 56 56 56
3 0 1 2
3 3 4 5
3 0 2 6
3 3 5 7
3 0 6 8
3 6 9 8
3 10 11 12
3 13 14 15
3 16 17 18
3 19 20 21
3 22 23 24
3 25 19 21
4 26 27 28 29
3 30 31 32
3 33 34 35
3 36 37 38
3 33 35 39
3 40 41 42
3 43 44 45
3 46 47 48
3 49 50 51
3 47 52 48
3 49 51 53
3 47 54 52
3 55 49 53
4 56 57 58 59
4 56 60 61 57
4 59 62 63 56
4 58 64 65 59
4 57 66 67 58
4 61 68 69 57
4 70 71 61 72
4 63 73 74 56
4 75 76 63 62
4 65 77 78 59
4 79 80 65 64
4 67 81 82 58
4 83 84 67 66
4 85 86 87 88
4 89 90 91 92
4 93 94 95 96
4 97 98 99 100
4 101 102 103 104
4 105 106 107 108
4 109 110 111 112
4 113 114 115 116
4 117 118 119 120
4 121 122 123 124
4 125 126 127 128
4 129 130 131 132
4 133 134 135 136
4 137 138 139 140
4 141 142 143 144
4 145 146 147 148
3 149 150 151
3 149 151 152
3 149 152 153
3 149 153 154
3 155 156 157
3 155 157 158
3 158 157 159
3 155 158 160
3 161 162 163
3 161 163 164
3 161 164 165
3 161 165 166
3 167 168 169
3 167 169 170
3 170 169 171
3 167 170 172
4 173 174 175 176
4 27 177 178 28
4 177 179 180 178
4 179 26 29 180
4 181 182 183 184
4 185 186 187 188
4 189 190 191 192
4 193 194 195 196
