ply
format ascii 1.0
comment Created by Blender 2.71 (sub 0) - www.blender.org, source file: 'castingTable.blend'
element vertex 193
property float x
property float y
property float z
property float nx
property float ny
property float nz
property uchar red
property uchar green
property uchar blue
element face 78
property list uchar uint vertex_indices
end_header
5.130558 2.652064 1.902754 -0.000000 1.000000 0.000000 57 57 57
5.130557 2.652065 0.000000 -0.000000 1.000000 0.000000 74 74 74
4.587960 2.652065 0.000000 -0.000000 1.000000 0.000000 77 77 77
-4.587960 2.652065 1.430821 -0.000000 1.000000 0.000001 63 61 60
-4.587960 2.652066 0.000000 -0.000000 1.000000 0.000001 56 56 56
-5.130556 2.652066 0.000000 -0.000000 1.000000 0.000001 77 70 67
4.587960 2.652064 1.430821 0.000000 1.000000 0.000000 56 56 56
-5.130557 2.652065 1.902754 0.000000 1.000000 0.000001 56 56 56
-5.130557 2.652065 1.902754 0.000000 1.000000 0.000000 56 56 56
-4.587960 2.652065 1.430821 0.000000 1.000000 0.000000 63 61 60
5.130557 2.652065 0.000000 1.000000 0.000000 -0.000001 74 74 74
5.130558 2.652064 1.902754 1.000000 0.000000 -0.000001 58 58 58
5.130557 2.101377 0.000000 1.000000 0.000000 -0.000001 77 77 77
5.130555 -2.652066 1.902754 1.000000 0.000000 0.000001 56 56 56
5.130557 -2.652065 0.000000 1.000000 0.000000 0.000001 56 56 56
5.130557 -2.101377 0.000000 1.000000 0.000000 0.000001 56 56 56
5.130558 2.652064 1.902754 1.000000 -0.000001 -0.000000 58 58 58
5.130558 2.101377 1.430821 1.000000 -0.000001 -0.000000 56 56 56
5.130557 2.101377 0.000000 1.000000 -0.000001 -0.000000 77 77 77
5.130555 -2.652066 1.902754 1.000000 -0.000001 0.000001 56 56 56
5.130557 -2.101377 0.000000 1.000000 -0.000001 0.000001 56 56 56
5.130556 -2.101377 1.430821 1.000000 -0.000001 0.000001 56 56 56
5.130558 2.652064 1.902754 1.000000 -0.000000 -0.000002 58 58 58
5.130556 -2.101377 1.430821 1.000000 -0.000000 -0.000002 56 56 56
5.130558 2.101377 1.430821 1.000000 -0.000000 -0.000002 56 56 56
5.130558 2.652064 1.902754 1.000000 -0.000001 0.000001 58 58 58
-5.130557 2.652065 1.902754 0.000000 0.000000 1.000000 77 77 77
-5.130558 -2.652065 1.902754 0.000000 0.000000 1.000000 56 56 56
-5.030457 -2.526612 1.902754 0.000000 0.000000 1.000000 56 56 56
-5.030456 2.526612 1.902754 0.000000 0.000000 1.000000 77 71 68
-5.130558 -2.652065 0.000000 -1.000000 0.000001 -0.000000 77 70 67
-5.130558 -2.652065 1.902754 -1.000000 0.000001 -0.000000 56 56 56
-5.130557 -2.101377 0.000000 -1.000000 0.000001 -0.000000 77 77 77
-5.130557 2.652065 1.902754 -1.000000 0.000000 -0.000000 77 77 77
-5.130556 2.652066 0.000000 -1.000000 0.000000 -0.000000 56 56 56
-5.130556 2.101377 0.000000 -1.000000 0.000000 -0.000000 56 56 56
-5.130558 -2.652065 1.902754 -1.000000 -0.000001 -0.000001 56 56 56
-5.130558 -2.101377 1.430821 -1.000000 -0.000001 -0.000001 56 56 56
-5.130557 -2.101377 0.000000 -1.000000 -0.000001 -0.000001 77 77 77
-5.130557 2.101377 1.430821 -1.000000 0.000000 -0.000000 56 56 56
-5.130558 -2.652065 1.902754 -1.000000 0.000000 0.000000 56 56 56
-5.130558 -2.101377 1.430821 -1.000000 0.000000 0.000000 56 56 56
5.130557 -2.652065 0.000000 0.000000 -1.000000 -0.000001 76 76 76
5.130555 -2.652066 1.902754 0.000000 -1.000000 -0.000001 63 61 59
4.587960 -2.652065 0.000000 0.000000 -1.000000 -0.000001 69 69 69
-5.130558 -2.652065 1.902754 0.000000 -1.000000 0.000000 56 56 56
-5.130558 -2.652065 0.000000 0.000000 -1.000000 0.000000 77 70 67
-4.587960 -2.652065 0.000000 0.000000 -1.000000 0.000000 76 75 75
4.587960 -2.652066 1.430821 0.000000 -1.000000 -0.000001 62 60 59
-4.587960 -2.652065 1.430821 -0.000000 -1.000000 -0.000000 56 56 56
5.130555 -2.652066 1.902754 -0.000000 -1.000000 -0.000000 63 61 59
4.587960 -2.652066 1.430821 -0.000000 -1.000000 -0.000000 62 60 59
4.587960 -2.101377 1.430821 0.000000 -0.000000 -1.000000 56 56 56
-4.587960 -2.101377 1.430821 0.000000 -0.000000 -1.000000 56 56 56
-4.587960 2.101377 1.430821 0.000000 -0.000000 -1.000000 56 56 56
4.587960 2.101377 1.430821 0.000000 -0.000000 -1.000000 56 56 56
4.587960 -2.321653 1.430821 0.000000 0.000000 -1.000000 56 56 56
-4.587960 -2.321653 1.430821 0.000000 0.000000 -1.000000 56 56 56
4.838404 2.101377 1.430821 0.000000 0.000000 -1.000000 56 56 56
4.838404 -2.101377 1.430821 0.000000 0.000000 -1.000000 56 56 56
-4.587960 2.321653 1.430821 -0.000000 0.000000 -1.000000 56 56 56
4.587960 2.321653 1.430821 -0.000000 0.000000 -1.000000 56 56 56
-4.838404 -2.101377 1.430821 0.000000 -0.000000 -1.000000 56 56 56
-4.838404 2.101377 1.430821 0.000000 -0.000000 -1.000000 56 56 56
-4.838404 -2.321653 1.430821 0.000000 -0.000000 -1.000000 56 56 56
-4.838404 -2.101377 1.430821 0.000000 -0.000000 -1.000000 56 56 56
4.587960 -2.652066 1.430821 0.000000 -0.000000 -1.000000 62 60 59
-4.587960 -2.652065 1.430821 0.000000 -0.000000 -1.000000 56 56 56
4.587960 -2.321653 1.430821 0.000000 -0.000000 -1.000000 77 70 67
4.838404 -2.321653 1.430821 0.000000 0.000000 -1.000000 56 56 56
4.587960 -2.321653 1.430821 0.000000 0.000000 -1.000000 56 56 56
5.130558 2.101377 1.430821 0.000000 0.000000 -1.000000 56 56 56
5.130556 -2.101377 1.430821 0.000000 0.000000 -1.000000 56 56 56
4.838404 2.321653 1.430821 0.000000 0.000000 -1.000000 56 56 56
4.838404 2.101377 1.430821 0.000000 0.000000 -1.000000 56 56 56
-4.587960 2.652065 1.430821 0.000000 0.000000 -1.000000 56 56 56
4.587960 2.652064 1.430821 0.000000 0.000000 -1.000000 56 56 56
-4.838404 2.321653 1.430821 -0.000000 0.000000 -1.000000 56 56 56
-4.587960 2.321653 1.430821 -0.000000 0.000000 -1.000000 56 56 56
-5.130558 -2.101377 1.430821 -0.000000 0.000000 -1.000000 56 56 56
-5.130557 2.101377 1.430821 -0.000000 0.000000 -1.000000 56 56 56
4.587960 -2.321653 0.000000 -1.000000 0.000000 -0.000000 77 77 77
4.587960 -2.652065 0.000000 -1.000000 0.000000 -0.000000 69 69 69
4.587960 -2.652066 1.430821 -1.000000 0.000000 -0.000000 62 60 59
4.587960 -2.321653 1.430821 -1.000000 0.000000 -0.000000 77 70 67
-4.587960 -2.321653 0.000000 0.000000 1.000000 0.000000 56 56 56
-4.838404 -2.321653 0.000000 0.000000 1.000000 0.000000 56 56 56
-4.838404 -2.321653 1.430821 0.000000 1.000000 0.000000 57 57 57
-4.587960 -2.321653 1.430821 0.000000 1.000000 0.000000 56 56 56
-4.838404 -2.321653 0.000000 1.000000 0.000000 0.000000 56 56 56
-4.838404 -2.101377 0.000000 1.000000 0.000000 0.000000 56 56 56
-4.838404 -2.101377 1.430821 1.000000 0.000000 0.000000 56 56 56
-4.838404 -2.321653 1.430821 1.000000 0.000000 0.000000 56 56 56
-4.587960 -2.321653 1.430821 1.000000 0.000000 -0.000000 56 56 56
-4.587960 -2.652065 1.430821 1.000000 0.000000 -0.000000 56 56 56
-4.587960 -2.652065 0.000000 1.000000 0.000000 -0.000000 56 56 56
-4.587960 -2.321653 0.000000 1.000000 0.000000 -0.000000 56 56 56
4.838404 2.101377 0.000000 0.000000 -1.000000 -0.000000 56 56 56
5.130557 2.101377 0.000000 0.000000 -1.000000 -0.000000 56 56 56
5.130558 2.101377 1.430821 0.000000 -1.000000 -0.000000 56 56 56
4.838404 2.101377 1.430821 0.000000 -1.000000 -0.000000 56 56 56
4.838404 -2.101377 0.000000 -1.000000 0.000000 -0.000000 56 56 56
4.838404 -2.321653 0.000000 -1.000000 0.000000 -0.000000 56 56 56
4.838404 -2.321653 1.430821 -1.000000 0.000000 -0.000000 75 69 66
4.838404 -2.101377 1.430821 -1.000000 0.000000 -0.000000 74 68 66
4.838404 -2.321653 0.000000 0.000000 1.000000 0.000000 56 56 56
4.587960 -2.321653 0.000000 0.000000 1.000000 0.000000 56 56 56
4.587960 -2.321653 1.430821 0.000000 1.000000 0.000000 56 56 56
4.838404 -2.321653 1.430821 0.000000 1.000000 0.000000 56 56 56
4.838404 -2.101377 1.430821 0.000000 1.000000 -0.000000 56 56 56
5.130556 -2.101377 1.430821 0.000000 1.000000 -0.000000 56 56 56
5.130557 -2.101377 0.000000 0.000000 1.000000 -0.000000 56 56 56
4.838404 -2.101377 0.000000 0.000000 1.000000 -0.000000 56 56 56
-4.587960 2.321653 0.000000 1.000000 0.000000 0.000000 75 68 66
-4.587960 2.652066 0.000000 1.000000 0.000000 0.000000 56 56 56
-4.587960 2.652065 1.430821 1.000000 0.000000 0.000000 63 61 60
-4.587960 2.321653 1.430821 1.000000 0.000000 0.000000 76 69 66
4.587960 2.321653 0.000000 0.000000 -1.000000 -0.000000 56 56 56
4.838404 2.321653 0.000000 0.000000 -1.000000 -0.000000 62 62 62
4.838404 2.321653 1.430821 0.000000 -1.000000 -0.000000 56 56 56
4.587960 2.321653 1.430821 0.000000 -1.000000 -0.000000 56 56 56
4.838404 2.321653 0.000000 -1.000000 0.000000 -0.000000 56 56 56
4.838404 2.101377 0.000000 -1.000000 0.000000 -0.000000 56 56 56
4.838404 2.101377 1.430821 -1.000000 0.000000 -0.000000 56 56 56
4.838404 2.321653 1.430821 -1.000000 0.000000 -0.000000 56 56 56
4.587960 2.321653 1.430821 -1.000000 0.000000 0.000000 56 56 56
4.587960 2.652064 1.430821 -1.000000 0.000000 0.000000 56 56 56
4.587960 2.652065 0.000000 -1.000000 0.000000 0.000000 56 56 56
4.587960 2.321653 0.000000 -1.000000 0.000000 0.000000 56 56 56
-4.838404 -2.101377 0.000000 0.000000 1.000000 0.000000 56 56 56
-5.130557 -2.101377 0.000000 0.000000 1.000000 0.000000 56 56 56
-5.130558 -2.101377 1.430821 0.000000 1.000000 0.000000 56 56 56
-4.838404 -2.101377 1.430821 0.000000 1.000000 0.000000 56 56 56
-4.838404 2.101377 0.000000 1.000000 0.000000 0.000000 77 70 67
-4.838404 2.321653 0.000000 1.000000 0.000000 0.000000 77 70 67
-4.838404 2.321653 1.430821 1.000000 0.000000 0.000000 56 56 56
-4.838404 2.101377 1.430821 1.000000 0.000000 0.000000 56 56 56
-4.838404 2.321653 0.000000 0.000000 -1.000000 -0.000000 56 56 56
-4.587960 2.321653 0.000000 0.000000 -1.000000 -0.000000 56 56 56
-4.587960 2.321653 1.430821 0.000000 -1.000000 -0.000000 56 56 56
-4.838404 2.321653 1.430821 0.000000 -1.000000 -0.000000 56 56 56
-4.838404 2.101377 1.430821 0.000000 -1.000000 0.000000 56 56 56
-5.130557 2.101377 1.430821 0.000000 -1.000000 0.000000 56 56 56
-5.130556 2.101377 0.000000 0.000000 -1.000000 0.000000 56 56 56
-4.838404 2.101377 0.000000 0.000000 -1.000000 0.000000 56 56 56
5.130557 -2.652065 0.000000 -0.000000 0.000000 1.000000 56 56 56
5.130557 -2.101377 0.000000 -0.000000 0.000000 1.000000 56 56 56
4.838404 -2.101377 0.000000 -0.000000 0.000000 1.000000 56 56 56
4.838404 -2.321653 0.000000 -0.000000 0.000000 1.000000 56 56 56
4.587960 -2.321653 0.000000 -0.000000 0.000000 1.000000 56 56 56
4.587960 -2.652065 0.000000 -0.000000 0.000000 1.000000 56 56 56
5.130557 2.101377 0.000000 -0.000000 0.000000 1.000000 56 56 56
5.130557 2.652065 0.000000 -0.000000 0.000000 1.000000 56 56 56
4.587960 2.652065 0.000000 -0.000000 0.000000 1.000000 56 56 56
4.838404 2.321653 0.000000 -0.000000 -0.000000 1.000000 56 56 56
4.587960 2.321653 0.000000 -0.000000 0.000000 1.000000 56 56 56
4.838404 2.101377 0.000000 -0.000000 0.000000 1.000000 56 56 56
-5.130558 -2.652065 0.000000 -0.000000 0.000000 -1.000000 77 70 67
-5.130557 -2.101377 0.000000 -0.000000 0.000000 -1.000000 56 56 56
-4.838404 -2.101377 0.000000 -0.000000 0.000000 -1.000000 56 56 56
-4.838404 -2.321653 0.000000 -0.000000 0.000000 -1.000000 57 57 57
-4.587960 -2.321653 0.000000 -0.000000 0.000000 -1.000000 56 56 56
-4.587960 -2.652065 0.000000 -0.000000 0.000000 -1.000000 59 58 57
-5.130556 2.101377 0.000000 -0.000000 -0.000000 -1.000000 56 56 56
-5.130556 2.652066 0.000000 -0.000000 -0.000000 -1.000000 56 56 56
-4.587960 2.652066 0.000000 -0.000000 -0.000000 -1.000000 56 56 56
-4.838404 2.321653 0.000000 -0.000000 0.000000 -1.000000 56 56 56
-4.587960 2.321653 0.000000 -0.000000 0.000000 -1.000000 56 56 56
-4.838404 2.101377 0.000000 -0.000000 0.000000 -1.000000 56 56 56
-5.030456 2.526612 1.902754 1.000000 -0.000000 0.000000 75 69 66
-5.030457 -2.526612 1.902754 1.000000 -0.000000 0.000000 56 56 56
-5.030457 -2.526612 1.575213 1.000000 -0.000000 0.000000 56 56 56
-5.030456 2.526612 1.575213 1.000000 -0.000000 0.000000 77 70 67
5.130555 -2.652066 1.902754 0.000000 0.000000 1.000000 54 54 54
5.030454 -2.526613 1.902754 0.000000 0.000000 1.000000 45 45 45
5.130558 2.652064 1.902754 -0.000000 0.000000 1.000000 59 59 58
5.030457 2.526611 1.902754 -0.000000 0.000000 1.000000 75 69 66
5.030457 2.526611 1.575213 0.000000 -0.000000 1.000000 77 70 67
-5.030456 2.526612 1.575213 0.000000 -0.000000 1.000000 77 70 67
-5.030457 -2.526612 1.575213 0.000000 -0.000000 1.000000 56 56 56
5.030454 -2.526613 1.575213 0.000000 -0.000000 1.000000 44 44 44
-5.030457 -2.526612 1.902754 0.000000 1.000000 0.000000 56 56 56
5.030454 -2.526613 1.902754 0.000000 1.000000 0.000000 45 45 45
5.030454 -2.526613 1.575213 0.000000 1.000000 0.000000 44 44 44
-5.030457 -2.526612 1.575213 0.000000 1.000000 0.000000 56 56 56
5.030454 -2.526613 1.902754 -1.000000 0.000001 0.000000 45 45 45
5.030457 2.526611 1.902754 -1.000000 0.000001 0.000000 76 70 67
5.030457 2.526611 1.575213 -1.000000 0.000001 0.000000 77 70 67
5.030454 -2.526613 1.575213 -1.000000 0.000001 0.000000 44 44 44
5.030457 2.526611 1.902754 -0.000000 -1.000000 0.000000 57 57 57
-5.030456 2.526612 1.902754 -0.000000 -1.000000 0.000000 77 77 77
-5.030456 2.526612 1.575213 -0.000000 -1.000000 0.000000 77 77 77
5.030457 2.526611 1.575213 -0.000000 -1.000000 0.000000 56 56 56
3 0 1 2
3 3 4 5
3 0 2 6
3 3 5 7
3 0 6 8
3 6 9 8
3 10 11 12
3 13 14 15
3 16 17 18
3 19 20 21
3 22 23 24
3 25 19 21
4 26 27 28 29
3 30 31 32
3 33 34 35
3 36 37 38
3 33 35 39
3 40 39 41
3 40 33 39
3 42 43 44
3 45 46 47
3 43 48 44
3 45 47 49
3 50 49 51
3 50 45 49
4 52 53 54 55
4 52 56 57 53
4 55 58 59 52
4 54 60 61 55
4 53 62 63 54
4 57 64 65 53
4 66 67 57 68
4 59 69 70 52
4 71 72 59 58
4 61 73 74 55
4 75 76 61 60
4 63 77 78 54
4 79 80 63 62
4 81 82 83 84
4 85 86 87 88
4 89 90 91 92
4 93 94 95 96
4 97 98 99 100
4 101 102 103 104
4 105 106 107 108
4 109 110 111 112
4 113 114 115 116
4 117 118 119 120
4 121 122 123 124
4 125 126 127 128
4 129 130 131 132
4 133 134 135 136
4 137 138 139 140
4 141 142 143 144
3 145 146 147
3 145 147 148
3 145 148 149
3 145 149 150
3 151 152 153
3 151 153 154
3 154 153 155
3 151 154 156
3 157 158 159
3 157 159 160
3 157 160 161
3 157 161 162
3 163 164 165
3 163 165 166
3 166 165 167
3 163 166 168
4 169 170 171 172
4 27 173 174 28
4 173 175 176 174
4 175 26 29 176
4 177 178 179 180
4 181 182 183 184
4 185 186 187 188
4 189 190 191 192
