ply
format ascii 1.0
comment Created by Blender 2.71 (sub 0) - www.blender.org, source file: 'fireplace.blend'
element vertex 336
property float x
property float y
property float z
property float nx
property float ny
property float nz
property uchar red
property uchar green
property uchar blue
element face 104
property list uchar uint vertex_indices
end_header
3.500000 3.500000 0.000000 0.000000 0.000000 -1.000000 79 79 79
3.500000 -3.500000 0.000000 0.000000 0.000000 -1.000000 80 80 80
-3.500000 -3.499999 0.000000 0.000000 0.000000 -1.000000 79 79 79
-3.499999 3.500001 0.000000 0.000000 0.000000 -1.000000 79 79 79
3.500002 3.499998 2.169310 0.000000 1.000000 0.000001 79 79 79
3.500000 3.500000 0.000000 0.000000 1.000000 0.000001 79 79 79
-3.499999 3.500001 0.000000 0.000000 1.000000 0.000001 79 79 79
-3.500000 3.500000 2.169310 0.000000 1.000000 0.000001 79 79 79
3.500000 3.500000 0.000000 1.000000 0.000000 -0.000001 79 79 79
3.500002 3.499998 2.169310 1.000000 0.000000 -0.000001 79 79 79
3.500000 -3.500000 0.000000 1.000000 0.000000 -0.000001 79 79 79
3.500002 3.499998 2.169310 1.000000 -0.000001 0.000000 79 79 79
3.500000 0.634405 2.169310 1.000000 -0.000001 0.000000 79 79 79
3.500000 0.500000 1.571101 1.000000 -0.000001 0.000000 79 79 79
3.499999 -2.500000 1.571101 1.000000 -0.000001 0.000001 79 79 79
3.499998 -2.634405 2.169310 1.000000 -0.000001 0.000001 79 79 79
3.499998 -3.500002 2.169310 1.000000 -0.000001 0.000001 79 79 79
3.500002 3.499998 2.169310 1.000000 -0.000001 0.000003 79 79 79
3.500000 0.500000 1.571101 1.000000 -0.000001 0.000003 79 79 79
3.500000 -3.500000 0.000000 1.000000 -0.000001 0.000003 79 79 79
3.500000 -3.500000 0.000000 1.000000 -0.000001 0.000001 79 79 79
3.500000 0.500000 1.571101 1.000000 -0.000000 0.000001 79 79 79
3.499999 -2.500000 1.571101 1.000000 -0.000000 0.000001 79 79 79
3.500000 -3.500000 0.000000 1.000000 -0.000000 0.000001 79 79 79
3.500000 -3.500000 0.000000 -0.000000 -1.000000 -0.000000 79 79 79
3.499998 -3.500002 2.169310 -0.000000 -1.000000 -0.000000 79 79 79
-3.500001 -3.499999 2.169310 -0.000000 -1.000000 -0.000000 79 79 79
-3.500000 -3.499999 0.000000 -0.000000 -1.000000 -0.000000 79 79 79
-3.500000 -3.499999 0.000000 -1.000000 0.000000 -0.000000 79 79 79
-3.500001 -3.499999 2.169310 -1.000000 0.000000 -0.000000 79 79 79
-3.500000 3.500000 2.169310 -1.000000 0.000000 -0.000000 79 79 79
-3.499999 3.500001 0.000000 -1.000000 0.000000 -0.000000 79 79 79
3.500002 3.499998 2.169310 -0.000000 -0.000000 1.000000 79 79 79
-3.500000 3.500000 2.169310 -0.000000 -0.000000 1.000000 79 79 79
3.500000 0.634405 2.169310 -0.000000 -0.000000 1.000000 79 79 79
-3.500001 -3.499999 2.169310 0.000000 0.000000 1.000000 79 79 79
3.499998 -3.500002 2.169310 0.000000 0.000000 1.000000 79 79 79
3.499998 -2.634405 2.169310 0.000000 0.000000 1.000000 79 79 79
-0.157076 0.634405 2.169310 0.000000 0.000000 1.000000 79 79 79
-0.157076 -2.634405 2.169310 -0.000000 0.000000 1.000000 79 79 79
-0.157076 0.634405 2.169310 0.969977 0.000000 0.243197 79 79 79
-0.157076 -2.634405 2.169310 0.969977 0.000000 0.243197 79 79 79
-0.007090 -2.500000 1.571101 0.969977 0.000000 0.243197 79 79 79
-0.007090 0.500000 1.571101 0.969977 0.000000 0.243197 79 79 79
3.500000 0.500000 1.571101 0.000000 -0.975677 0.219214 79 79 79
3.500000 0.634405 2.169310 0.000000 -0.975677 0.219214 79 79 79
-0.157076 0.634405 2.169310 0.000000 -0.975677 0.219214 79 79 79
-0.007090 0.500000 1.571101 0.000000 -0.975677 0.219214 79 79 79
-0.007090 -2.500000 1.571101 0.000000 0.000000 0.000000 255 255 255
3.499999 -2.500000 1.571101 0.000000 0.000000 0.000000 255 255 255
3.173278 -2.500000 1.571101 0.000000 0.000000 0.000000 255 255 255
-0.007090 -2.500000 1.571101 0.000000 0.000000 0.000000 255 255 255
-0.157076 -2.634405 2.169310 0.000000 0.975677 0.219214 79 79 79
3.499998 -2.634405 2.169310 0.000000 0.975677 0.219214 79 79 79
3.499999 -2.500000 1.571101 0.000000 0.975677 0.219214 79 79 79
-0.007090 -2.500000 1.571101 0.000000 0.975677 0.219214 79 79 79
-0.007090 0.500000 1.571101 0.000000 0.000000 0.000000 255 255 255
-0.007090 0.500000 1.571101 0.000000 0.000000 0.000000 255 255 255
3.500000 0.500000 1.571101 0.000000 0.000000 0.000000 255 255 255
3.173279 0.500000 1.571101 0.000000 0.000000 0.000000 255 255 255
3.499999 -2.500000 1.571101 -0.000000 0.000000 1.000000 79 79 79
3.500000 0.500000 1.571101 -0.000000 0.000000 1.000000 79 79 79
3.173279 0.500000 1.571101 -0.000000 0.000000 1.000000 79 79 79
3.173278 -2.500000 1.571101 -0.000000 0.000000 1.000000 79 79 79
3.173279 0.500000 1.571101 0.000000 0.000000 0.000000 255 255 255
3.173278 -2.500000 1.571101 0.000000 0.000000 0.000000 255 255 255
3.173278 -2.500000 1.571101 -1.000000 0.000000 0.000000 79 79 79
3.173279 0.500000 1.571101 -1.000000 0.000000 0.000000 79 79 79
3.173279 0.500000 1.207816 -1.000000 0.000000 0.000000 247 24 3
3.173278 -2.500000 1.207816 -1.000000 0.000000 0.000000 250 24 2
-0.007090 -2.500000 1.571101 0.000000 1.000000 -0.000000 79 79 79
3.173278 -2.500000 1.571101 0.000000 1.000000 -0.000000 79 79 79
3.173278 -2.500000 1.207816 0.000000 1.000000 -0.000000 250 24 2
-0.007090 -2.500000 1.207816 0.000000 1.000000 -0.000000 246 25 4
-0.007090 0.500000 1.571101 1.000000 0.000000 -0.000000 79 79 79
-0.007090 -2.500000 1.571101 1.000000 0.000000 -0.000000 79 79 79
-0.007090 -2.500000 1.207816 1.000000 0.000000 -0.000000 246 25 4
-0.007090 0.500000 1.207816 1.000000 0.000000 -0.000000 250 24 2
3.173279 0.500000 1.571101 0.000000 -1.000000 0.000000 79 79 79
-0.007090 0.500000 1.571101 0.000000 -1.000000 0.000000 79 79 79
-0.007090 0.500000 1.207816 0.000000 -1.000000 0.000000 250 24 2
3.173279 0.500000 1.207816 0.000000 -1.000000 0.000000 247 24 3
3.173279 0.500000 1.207816 0.000000 0.000000 0.000000 179 123 73
-0.007090 0.500000 1.207816 0.000000 0.000000 0.000000 235 72 31
3.173279 0.500000 1.207816 0.000000 0.000000 0.000000 179 123 73
-0.007090 -2.500000 1.207816 0.000000 0.000000 0.000000 209 137 71
3.173278 -2.500000 1.207816 0.000000 0.000000 0.000000 255 22 0
3.173278 -2.500000 1.207816 0.000000 0.000000 0.000000 255 22 0
-0.007090 0.500000 1.207816 0.000000 0.000000 1.000000 235 72 31
3.173278 -2.500000 1.207816 0.000000 0.000000 1.000000 255 22 0
3.173279 0.500000 1.207816 0.000000 0.000000 1.000000 179 123 73
-0.007090 -2.500000 1.207816 0.000000 -0.000000 1.000000 209 137 71
-1.706447 2.891073 1.897215 0.362932 0.923557 0.123786 79 79 79
-3.385760 2.891073 6.820829 0.362932 0.923557 0.123786 79 79 79
-3.030722 2.731563 6.969969 0.362932 0.923557 0.123786 79 79 79
-1.351409 2.731563 2.046355 0.362932 0.923557 0.123786 79 79 79
-1.351409 2.731563 2.046355 0.874722 0.381906 0.298344 79 79 79
-3.030722 2.731563 6.969969 0.874722 0.381906 0.298344 79 79 79
-2.883660 2.346472 7.031745 0.874722 0.381906 0.298344 79 79 79
-1.204347 2.346472 2.108131 0.874722 0.381906 0.298344 79 79 79
-1.204347 2.346472 2.108131 0.874722 -0.381906 0.298344 79 79 79
-2.883660 2.346472 7.031745 0.874722 -0.381906 0.298344 79 79 79
-3.030722 1.961381 6.969969 0.874722 -0.381906 0.298344 79 79 79
-1.351409 1.961381 2.046355 0.874722 -0.381906 0.298344 79 79 79
-1.351409 1.961381 2.046355 0.362932 -0.923557 0.123786 79 79 79
-3.030722 1.961381 6.969969 0.362932 -0.923557 0.123786 79 79 79
-3.385760 1.801871 6.820829 0.362932 -0.923557 0.123786 79 79 79
-1.706447 1.801871 1.897215 0.362932 -0.923557 0.123786 79 79 79
-1.706447 1.801871 1.897215 -0.362933 -0.923557 -0.123787 79 79 79
-3.385760 1.801871 6.820829 -0.362933 -0.923557 -0.123787 79 79 79
-3.740798 1.961381 6.671689 -0.362933 -0.923557 -0.123787 79 79 79
-2.061486 1.961381 1.748074 -0.362933 -0.923557 -0.123787 79 79 79
-2.061486 1.961381 1.748074 -0.874722 -0.381906 -0.298344 79 79 79
-3.740798 1.961381 6.671689 -0.874722 -0.381906 -0.298344 79 79 79
-3.887860 2.346472 6.609912 -0.874722 -0.381906 -0.298344 79 79 79
-2.208547 2.346472 1.686298 -0.874722 -0.381906 -0.298344 79 79 79
-3.385760 2.891073 6.820829 -0.275710 0.917130 -0.287849 79 79 79
-3.740798 2.731563 6.671689 -0.275710 0.917130 -0.287849 79 79 79
-3.856979 2.731563 6.763954 -0.275710 0.917130 -0.287849 79 79 79
-3.635219 2.891073 7.078783 -0.275710 0.917130 -0.287849 79 79 79
-2.061486 2.731563 1.748074 -0.362932 0.923557 -0.123786 79 79 79
-3.740798 2.731563 6.671689 -0.362932 0.923557 -0.123786 79 79 79
-3.385760 2.891073 6.820829 -0.362932 0.923557 -0.123786 79 79 79
-1.706447 2.891073 1.897215 -0.362932 0.923557 -0.123786 79 79 79
-2.208547 2.346472 1.686298 -0.874722 0.381906 -0.298344 79 79 79
-3.887860 2.346472 6.609912 -0.874722 0.381906 -0.298344 79 79 79
-3.740798 2.731563 6.671689 -0.874722 0.381906 -0.298344 79 79 79
-2.061486 2.731563 1.748074 -0.874722 0.381906 -0.298344 79 79 79
-3.635219 2.891073 7.078783 -0.184861 0.917417 -0.352382 79 79 79
-3.856979 2.731563 6.763954 -0.184861 0.917417 -0.352382 79 79 79
-3.973444 2.731563 6.840938 -0.184861 0.917417 -0.352382 79 79 79
-3.944039 2.891073 7.224905 -0.184861 0.917417 -0.352382 79 79 79
-3.740798 2.731563 6.671689 -0.511999 0.354108 -0.782601 79 79 79
-3.887860 2.346472 6.609912 -0.511999 0.354108 -0.782601 79 79 79
-3.948834 2.346472 6.633547 -0.511999 0.354108 -0.782601 79 79 79
-3.856979 2.731563 6.763954 -0.511999 0.354108 -0.782601 79 79 79
-3.887860 2.346472 6.609912 -0.511999 -0.354109 -0.782601 79 79 79
-3.740798 1.961381 6.671689 -0.511999 -0.354109 -0.782601 79 79 79
-3.856979 1.961381 6.763954 -0.511999 -0.354109 -0.782601 79 79 79
-3.948834 2.346472 6.633547 -0.511999 -0.354109 -0.782601 79 79 79
-3.740798 1.961381 6.671689 -0.275711 -0.917129 -0.287850 79 79 79
-3.385760 1.801871 6.820829 -0.275711 -0.917129 -0.287850 79 79 79
-3.635219 1.801871 7.078783 -0.275711 -0.917129 -0.287850 79 79 79
-3.856979 1.961381 6.763954 -0.275711 -0.917129 -0.287850 79 79 79
-3.385760 1.801871 6.820829 0.290781 -0.917990 0.269705 79 79 79
-3.030722 1.961381 6.969969 0.290781 -0.917990 0.269705 79 79 79
-3.413459 1.961381 7.393612 0.290781 -0.917990 0.269705 79 79 79
-3.635219 1.801871 7.078783 0.290781 -0.917990 0.269705 79 79 79
-3.030722 1.961381 6.969969 0.692081 -0.369428 0.620118 79 79 79
-2.883660 2.346472 7.031745 0.692081 -0.369428 0.620118 79 79 79
-3.321603 2.346472 7.524019 0.692081 -0.369428 0.620118 79 79 79
-3.413459 1.961381 7.393612 0.692081 -0.369428 0.620118 79 79 79
-2.883660 2.346472 7.031745 0.692081 0.369428 0.620118 79 79 79
-3.030722 2.731563 6.969969 0.692081 0.369428 0.620118 79 79 79
-3.413459 2.731563 7.393612 0.692081 0.369428 0.620118 79 79 79
-3.321603 2.346472 7.524019 0.692081 0.369428 0.620118 79 79 79
-3.030722 2.731563 6.969969 0.290780 0.917990 0.269705 79 79 79
-3.385760 2.891073 6.820829 0.290780 0.917990 0.269705 79 79 79
-3.635219 2.891073 7.078783 0.290780 0.917990 0.269705 79 79 79
-3.413459 2.731563 7.393612 0.290780 0.917990 0.269705 79 79 79
-3.944039 2.891073 7.224905 -0.029221 0.923880 -0.381566 79 79 79
-3.973444 2.731563 6.840938 -0.029221 0.923880 -0.381566 79 79 79
-5.777133 2.731563 6.979068 -0.029221 0.923880 -0.381566 79 79 79
-5.747727 2.891073 7.363035 -0.029221 0.923880 -0.381566 79 79 79
-3.856979 2.731563 6.763954 -0.592472 0.352303 -0.724472 79 79 79
-3.948834 2.346472 6.633547 -0.592472 0.352303 -0.724472 79 79 79
-3.985624 2.346472 6.681894 -0.592472 0.352303 -0.724472 79 79 79
-3.973444 2.731563 6.840938 -0.592472 0.352303 -0.724472 79 79 79
-3.948834 2.346472 6.633547 -0.592472 -0.352303 -0.724472 79 79 79
-3.856979 1.961381 6.763954 -0.592472 -0.352303 -0.724472 79 79 79
-3.973444 1.961381 6.840938 -0.592472 -0.352303 -0.724472 79 79 79
-3.985624 2.346472 6.681894 -0.592472 -0.352303 -0.724472 79 79 79
-3.856979 1.961381 6.763954 -0.184861 -0.917416 -0.352383 79 79 79
-3.635219 1.801871 7.078783 -0.184861 -0.917416 -0.352383 79 79 79
-3.944039 1.801871 7.224905 -0.184861 -0.917416 -0.352383 79 79 79
-3.973444 1.961381 6.840938 -0.184861 -0.917416 -0.352383 79 79 79
-3.635219 1.801871 7.078783 0.161208 -0.918396 0.361331 79 79 79
-3.413459 1.961381 7.393612 0.161208 -0.918396 0.361331 79 79 79
-3.914634 1.961381 7.608871 0.161208 -0.918396 0.361331 79 79 79
-3.944039 1.801871 7.224905 0.161208 -0.918396 0.361331 79 79 79
-3.413459 1.961381 7.393612 0.362852 -0.370372 0.855081 79 79 79
-3.321603 2.346472 7.524019 0.362852 -0.370372 0.855081 79 79 79
-3.902454 2.346472 7.767916 0.362852 -0.370372 0.855081 79 79 79
-3.914634 1.961381 7.608871 0.362852 -0.370372 0.855081 79 79 79
-3.321603 2.346472 7.524019 0.362852 0.370372 0.855081 79 79 79
-3.413459 2.731563 7.393612 0.362852 0.370372 0.855081 79 79 79
-3.914634 2.731563 7.608871 0.362852 0.370372 0.855081 79 79 79
-3.902454 2.346472 7.767916 0.362852 0.370372 0.855081 79 79 79
-3.413459 2.731563 7.393612 0.161208 0.918396 0.361331 79 79 79
-3.635219 2.891073 7.078783 0.161208 0.918396 0.361331 79 79 79
-3.944039 2.891073 7.224905 0.161208 0.918396 0.361331 79 79 79
-3.914634 2.731563 7.608871 0.161208 0.918396 0.361331 85 85 85
-3.973444 2.731563 6.840938 -0.070546 0.382683 -0.921182 79 79 79
-3.985624 2.346472 6.681894 -0.070546 0.382683 -0.921182 79 79 79
-5.789312 2.346472 6.820024 -0.070546 0.382683 -0.921182 79 79 79
-5.777133 2.731563 6.979068 -0.070546 0.382683 -0.921182 79 79 79
-3.985624 2.346472 6.681894 -0.070546 -0.382684 -0.921182 79 79 79
-3.973444 1.961381 6.840938 -0.070546 -0.382684 -0.921182 79 79 79
-5.777133 1.961381 6.979068 -0.070546 -0.382684 -0.921182 79 79 79
-5.789312 2.346472 6.820024 -0.070546 -0.382684 -0.921182 79 79 79
-3.973444 1.961381 6.840938 -0.029221 -0.923879 -0.381566 79 79 79
-3.944039 1.801871 7.224905 -0.029221 -0.923879 -0.381566 79 79 79
-5.747727 1.801871 7.363035 -0.029221 -0.923879 -0.381566 79 79 79
-5.777133 1.961381 6.979068 -0.029221 -0.923879 -0.381566 79 79 79
-3.944039 1.801871 7.224905 0.029221 -0.923880 0.381566 79 79 79
-3.914634 1.961381 7.608871 0.029221 -0.923880 0.381566 79 79 79
-5.718322 1.961381 7.747001 0.029221 -0.923880 0.381566 79 79 79
-5.747727 1.801871 7.363035 0.029221 -0.923880 0.381566 79 79 79
-3.914634 1.961381 7.608871 0.070546 -0.382684 0.921182 79 79 79
-3.902454 2.346472 7.767916 0.070546 -0.382684 0.921182 79 79 79
-5.706142 2.346472 7.906046 0.070546 -0.382684 0.921182 79 79 79
-5.718322 1.961381 7.747001 0.070546 -0.382684 0.921182 79 79 79
-3.902454 2.346472 7.767916 0.070546 0.382684 0.921182 79 79 79
-3.914634 2.731563 7.608871 0.070546 0.382684 0.921182 85 85 85
-5.718322 2.731563 7.747001 0.070546 0.382684 0.921182 79 79 79
-5.706142 2.346472 7.906046 0.070546 0.382684 0.921182 79 79 79
-3.914634 2.731563 7.608871 0.029221 0.923880 0.381566 85 85 85
-3.944039 2.891073 7.224905 0.029221 0.923880 0.381566 79 79 79
-5.747727 2.891073 7.363035 0.029221 0.923880 0.381566 79 79 79
-5.718322 2.731563 7.747001 0.029221 0.923880 0.381566 79 79 79
-0.013336 0.656319 2.111346 0.000000 0.000000 -1.000000 79 79 79
0.020581 0.432109 2.111346 0.000000 0.000000 -1.000000 79 79 79
-0.170741 0.464083 2.111346 0.000000 0.000000 -1.000000 79 79 79
-0.170741 0.656319 2.111346 0.000000 0.000000 -1.000000 79 79 79
-0.170741 0.464083 2.303582 -1.000000 0.000000 0.000000 79 79 79
-0.170741 0.656319 2.303582 -1.000000 0.000000 0.000000 79 79 79
-0.170741 0.656319 2.111346 -1.000000 0.000000 0.000000 79 79 79
-0.170741 0.464083 2.111346 -1.000000 0.000000 0.000000 79 79 79
-0.013336 0.656319 2.303582 -0.000000 1.000000 0.000000 79 79 79
-0.013336 0.656319 2.111346 -0.000000 1.000000 0.000000 79 79 79
-0.170741 0.656319 2.111346 -0.000000 1.000000 0.000000 79 79 79
-0.170741 0.656319 2.303582 -0.000000 1.000000 0.000000 79 79 79
0.020581 0.432109 2.303582 -0.000000 0.000000 1.000000 79 79 79
-0.013336 0.656319 2.303582 -0.000000 0.000000 1.000000 79 79 79
-0.170741 0.656319 2.303582 -0.000000 0.000000 1.000000 79 79 79
-0.170741 0.464083 2.303582 -0.000000 0.000000 1.000000 79 79 79
-0.170741 -2.481210 2.303582 0.000000 -0.000000 1.000000 79 79 79
0.020581 -2.481210 2.303582 0.000000 -0.000000 1.000000 79 79 79
-0.170741 -2.691411 2.303582 0.000000 -0.000000 1.000000 79 79 79
-0.013336 -2.691411 2.303582 0.000000 -0.000000 1.000000 79 79 79
0.020581 -2.481210 2.111346 0.000000 0.000000 -1.000000 79 79 79
-0.170741 -2.481210 2.111346 0.000000 0.000000 -1.000000 79 79 79
-0.170741 -2.481210 2.111346 -1.000000 0.000000 0.000000 79 79 79
-0.170741 -2.481210 2.303582 -1.000000 0.000000 0.000000 79 79 79
0.020581 0.432109 2.111346 1.000000 -0.000000 0.000000 79 79 79
0.020581 0.432109 2.303582 1.000000 -0.000000 0.000000 79 79 79
0.020581 -2.481210 2.303582 1.000000 -0.000000 0.000000 79 79 79
0.020581 -2.481210 2.111346 1.000000 -0.000000 0.000000 79 79 79
-0.013336 -2.691411 2.111346 0.000000 -1.000000 0.000000 79 79 79
-0.013336 -2.691411 2.303582 0.000000 -1.000000 0.000000 79 79 79
-0.170741 -2.691411 2.303582 0.000000 -1.000000 0.000000 79 79 79
-0.170741 -2.691411 2.111346 0.000000 -1.000000 0.000000 79 79 79
-0.013336 -2.691411 2.111346 0.000000 0.000000 -1.000000 79 79 79
-0.170741 -2.691411 2.111346 0.000000 0.000000 -1.000000 79 79 79
-0.170741 -2.691411 2.111346 -1.000000 0.000000 0.000000 79 79 79
-0.170741 -2.691411 2.303582 -1.000000 0.000000 0.000000 79 79 79
3.323411 -2.481210 2.111346 -0.000000 0.000000 -1.000000 79 79 79
3.350332 -2.691411 2.111346 -0.000000 0.000000 -1.000000 79 79 79
3.489598 -2.481210 2.111346 -0.000000 0.000000 -1.000000 79 79 79
3.489598 -2.691411 2.111346 -0.000000 0.000000 -1.000000 79 79 79
3.350332 -2.691411 2.303582 0.000000 0.000000 1.000000 79 79 79
3.323411 -2.481210 2.303582 0.000000 0.000000 1.000000 79 79 79
3.350332 -2.691411 2.111346 -0.000000 -1.000000 0.000000 79 79 79
3.350332 -2.691411 2.303582 -0.000000 -1.000000 0.000000 79 79 79
0.020581 -2.481210 2.111346 0.000000 1.000000 0.000000 79 79 79
0.020581 -2.481210 2.303582 0.000000 1.000000 0.000000 79 79 79
3.323411 -2.481210 2.303582 0.000000 1.000000 0.000000 79 79 79
3.323411 -2.481210 2.111346 0.000000 1.000000 0.000000 79 79 79
3.489598 -2.481210 2.111346 1.000000 -0.000000 0.000000 79 79 79
3.489598 -2.481210 2.303582 1.000000 -0.000000 0.000000 79 79 79
3.489598 -2.691411 2.303582 1.000000 -0.000000 0.000000 79 79 79
3.489598 -2.691411 2.111346 1.000000 -0.000000 0.000000 79 79 79
3.489598 -2.691411 2.303582 0.000000 0.000000 1.000000 79 79 79
3.489598 -2.481210 2.303582 0.000000 0.000000 1.000000 79 79 79
3.489598 -2.691411 2.111346 -0.000000 -1.000000 0.000000 79 79 79
3.489598 -2.691411 2.303582 -0.000000 -1.000000 0.000000 79 79 79
3.489598 0.462268 2.303582 0.000000 0.000000 1.000000 79 79 79
3.323411 0.430294 2.303582 0.000000 0.000000 1.000000 79 79 79
3.489598 0.657637 2.303582 0.000000 0.000000 1.000000 79 79 79
3.350332 0.657637 2.303582 0.000000 0.000000 1.000000 79 79 79
3.323411 0.430294 2.111346 0.000000 -0.000000 -1.000000 79 79 79
3.489598 0.462268 2.111346 0.000000 -0.000000 -1.000000 79 79 79
3.489598 0.462268 2.111346 1.000000 0.000000 0.000000 79 79 79
3.489598 0.462268 2.303582 1.000000 0.000000 0.000000 79 79 79
3.323411 -2.481210 2.111346 -1.000000 -0.000000 0.000000 79 79 79
3.323411 -2.481210 2.303582 -1.000000 -0.000000 0.000000 79 79 79
3.323411 0.430294 2.303582 -1.000000 -0.000000 0.000000 79 79 79
3.323411 0.430294 2.111346 -1.000000 -0.000000 0.000000 79 79 79
3.350332 0.657637 2.111346 0.000000 1.000000 0.000000 79 79 79
3.350332 0.657637 2.303582 0.000000 1.000000 0.000000 79 79 79
3.489598 0.657637 2.303582 0.000000 1.000000 0.000000 79 79 79
3.489598 0.657637 2.111346 0.000000 1.000000 0.000000 79 79 79
3.350332 0.657637 2.111346 0.000000 -0.000000 -1.000000 79 79 79
3.489598 0.657637 2.111346 0.000000 -0.000000 -1.000000 79 79 79
3.489598 0.657637 2.111346 1.000000 0.000000 0.000000 79 79 79
3.489598 0.657637 2.303582 1.000000 0.000000 0.000000 79 79 79
0.020581 0.432109 2.303582 -0.000549 -1.000000 0.000000 79 79 79
0.020581 0.432109 2.111346 -0.000549 -1.000000 0.000000 79 79 79
3.323411 0.430294 2.111346 -0.000549 -1.000000 0.000000 79 79 79
3.323411 0.430294 2.303582 -0.000549 -1.000000 0.000000 79 79 79
-0.013336 0.656319 2.303582 -0.000392 1.000000 0.000000 79 79 79
3.350332 0.657637 2.303582 -0.000392 1.000000 0.000000 79 79 79
3.350332 0.657637 2.111346 -0.000392 1.000000 0.000000 79 79 79
-0.013336 0.656319 2.111346 -0.000392 1.000000 0.000000 79 79 79
1.234051 -2.634972 2.173898 0.000000 0.000000 1.000000 79 79 79
1.373536 -2.495487 2.173898 0.000000 0.000000 1.000000 79 79 79
-0.026272 -1.095681 2.173898 0.000000 0.000000 1.000000 79 79 79
-0.165756 -1.235166 2.173898 0.000000 0.000000 1.000000 79 79 79
1.928488 -2.628773 2.173898 0.000000 0.000000 1.000000 79 79 79
2.067972 -2.489289 2.173898 0.000000 0.000000 1.000000 79 79 79
-0.026272 -0.395047 2.173898 0.000000 0.000000 1.000000 79 79 79
-0.165756 -0.534532 2.173898 0.000000 0.000000 1.000000 79 79 79
0.518110 -2.630521 2.173898 0.000000 0.000000 1.000000 79 79 79
0.657594 -2.491036 2.173898 0.000000 0.000000 1.000000 79 79 79
-0.026272 -1.807169 2.173898 0.000000 0.000000 1.000000 79 79 79
-0.165756 -1.946654 2.173898 0.000000 0.000000 1.000000 79 79 79
2.692616 -2.631273 2.173898 0.000000 0.000000 1.000000 79 79 79
2.832100 -2.491788 2.173898 0.000000 0.000000 1.000000 79 79 79
-0.026272 0.366579 2.173898 0.000000 0.000000 1.000000 79 79 79
-0.165756 0.227095 2.173898 0.000000 0.000000 1.000000 79 79 79
3.334962 -2.461003 2.173898 0.000000 0.000000 1.000000 79 79 79
3.474447 -2.321518 2.173898 0.000000 0.000000 1.000000 79 79 79
0.522244 0.630679 2.173898 0.000000 0.000000 1.000000 79 79 79
0.382759 0.491195 2.173898 0.000000 0.000000 1.000000 79 79 79
3.344477 -1.708693 2.173898 0.000000 0.000000 1.000000 79 79 79
3.483961 -1.569208 2.173898 0.000000 0.000000 1.000000 79 79 79
1.304387 0.610364 2.173898 0.000000 0.000000 1.000000 79 79 79
1.164902 0.470879 2.173898 0.000000 0.000000 1.000000 79 79 79
3.345990 -0.917908 2.173898 0.000000 0.000000 1.000000 79 79 79
3.485475 -0.778423 2.173898 0.000000 0.000000 1.000000 79 79 79
2.106845 0.600206 2.173898 0.000000 0.000000 1.000000 79 79 79
1.967360 0.460722 2.173898 0.000000 0.000000 1.000000 79 79 79
3.350153 -0.200877 2.173898 0.000000 0.000000 1.000000 79 79 79
3.489638 -0.061392 2.173898 0.000000 0.000000 1.000000 79 79 79
2.797569 0.630679 2.173898 0.000000 0.000000 1.000000 79 79 79
2.658084 0.491195 2.173898 0.000000 0.000000 1.000000 79 79 79
4 0 1 2 3
4 4 5 6 7
3 8 9 10
3 11 12 13
3 14 15 16
3 17 18 19
3 14 16 20
3 21 22 23
4 24 25 26 27
4 28 29 30 31
3 32 33 34
3 35 36 37
3 33 38 34
3 35 37 39
3 33 39 38
3 33 35 39
4 40 41 42 43
4 44 45 46 47
4 48 49 50 51
4 52 53 54 55
4 56 48 51 57
4 58 56 57 59
4 60 61 62 63
4 50 59 64 65
4 66 67 68 69
4 70 71 72 73
4 74 75 76 77
4 78 79 80 81
3 82 83 84
3 85 86 87
3 88 89 90
3 88 91 89
4 92 93 94 95
4 96 97 98 99
4 100 101 102 103
4 104 105 106 107
4 108 109 110 111
4 112 113 114 115
4 116 117 118 119
4 120 121 122 123
4 124 125 126 127
4 128 129 130 131
4 132 133 134 135
4 136 137 138 139
4 140 141 142 143
4 144 145 146 147
4 148 149 150 151
4 152 153 154 155
4 156 157 158 159
4 160 161 162 163
4 164 165 166 167
4 168 169 170 171
4 172 173 174 175
4 176 177 178 179
4 180 181 182 183
4 184 185 186 187
4 188 189 190 191
4 192 193 194 195
4 196 197 198 199
4 200 201 202 203
4 204 205 206 207
4 208 209 210 211
4 212 213 214 215
4 216 217 218 219
4 220 221 222 223
4 224 225 226 227
4 228 229 230 231
4 232 233 234 235
4 232 235 236 237
4 237 236 238 239
4 222 221 240 241
4 224 227 242 243
4 244 245 246 247
4 248 249 250 251
4 241 240 252 253
4 243 242 254 255
4 252 240 256 257
4 257 256 258 259
4 237 239 260 261
4 249 248 262 263
4 264 265 266 267
4 268 269 270 271
4 261 260 272 273
4 263 262 274 275
4 261 273 276 277
4 277 276 278 279
4 258 256 280 281
4 269 268 282 283
4 284 285 286 287
4 288 289 290 291
4 281 280 292 293
4 283 282 294 295
4 296 297 298 299
4 220 292 280 221
4 300 301 302 303
4 232 277 279 233
4 304 305 306 307
4 308 309 310 311
4 312 313 314 315
4 316 317 318 319
4 320 321 322 323
4 324 325 326 327
4 328 329 330 331
4 332 333 334 335
