ply
format ascii 1.0
comment Created by Blender 2.71 (sub 0) - www.blender.org, source file: 'floor.blend'
element vertex 22
property float x
property float y
property float z
property float nx
property float ny
property float nz
property uchar red
property uchar green
property uchar blue
element face 17
property list uchar uint vertex_indices
end_header
6.666666 6.666666 0.000000 0.000000 0.000000 1.000000 78 50 7
16.000000 6.666668 0.000000 0.000000 0.000000 1.000000 92 55 0
16.000000 12.000000 0.000000 0.000000 0.000000 1.000000 92 58 8
6.666666 12.000000 0.000000 0.000000 0.000000 1.000000 74 47 7
-6.666666 6.666666 0.000000 0.000000 0.000000 1.000000 92 58 8
-6.666666 12.000000 0.000000 0.000000 0.000000 1.000000 92 58 8
6.666666 -6.666666 0.000000 0.000000 0.000000 1.000000 92 58 8
16.000000 0.555552 0.000000 0.000000 0.000000 1.000000 74 47 7
-16.000000 6.666666 0.000000 0.000000 0.000000 1.000000 92 55 0
-16.000000 12.000000 0.000000 0.000000 0.000000 1.000000 90 57 8
-3.000000 -2.000000 0.000000 0.000000 0.000000 1.000000 91 57 7
-6.666666 -6.666666 0.000000 0.000000 0.000000 1.000000 92 58 8
3.000000 -2.000000 0.000000 0.000000 0.000000 1.000000 90 57 7
3.000000 4.000000 0.000000 0.000000 0.000000 1.000000 85 54 7
-3.000000 4.000000 0.000000 0.000000 0.000000 1.000000 89 56 7
6.666666 -12.000000 0.000000 0.000000 0.000000 1.000000 74 47 7
16.000000 -12.000000 0.000000 0.000000 0.000000 1.000000 74 47 7
-16.000000 -6.666666 0.000000 0.000000 0.000000 1.000000 77 49 7
-6.666666 -12.000000 0.000000 0.000000 0.000000 1.000000 92 55 0
-16.000000 -12.000000 0.000000 0.000000 0.000000 1.000000 92 58 8
24.000000 -12.000000 0.000000 0.000000 0.000000 1.000000 74 47 7
24.000000 0.500000 0.000000 0.000000 0.000000 1.000000 74 47 7
4 0 1 2 3
4 4 0 3 5
4 1 0 6 7
4 8 4 5 9
3 10 11 12
3 6 0 13
3 11 6 12
3 6 13 12
3 10 14 11
3 14 13 0
3 14 4 11
3 14 0 4
4 15 16 7 6
4 17 11 4 8
4 18 15 6 11
4 19 18 11 17
4 7 16 20 21
