ply
format ascii 1.0
comment Created by Blender 2.71 (sub 0) - www.blender.org, source file: 'longWall.blend'
element vertex 138
property float x
property float y
property float z
property float nx
property float ny
property float nz
property uchar red
property uchar green
property uchar blue
element face 37
property list uchar uint vertex_indices
end_header
-8.767605 -0.152348 2.543418 0.001407 -0.999580 0.028949 114 57 0
-20.238693 -0.163376 2.533678 0.001407 -0.999580 0.028949 107 54 0
-17.487139 -0.238283 0.000000 0.001407 -0.999580 0.028949 99 50 0
-8.767605 -0.220603 0.000000 0.001407 -0.999580 0.028949 103 52 0
-8.767605 -0.055802 6.132688 0.000832 -0.999629 0.027228 115 58 0
-22.932751 -0.082394 5.544328 0.000832 -0.999629 0.027228 107 54 0
-20.238693 -0.163376 2.533678 0.000832 -0.999629 0.027228 107 54 0
-8.767605 -0.152348 2.543418 0.000832 -0.999629 0.027228 114 57 0
-16.214861 0.898793 41.617329 0.000373 -0.999632 0.027121 107 54 0
-30.544327 0.898786 41.617329 0.000373 -0.999632 0.027121 115 58 0
-22.932751 -0.082394 5.544328 0.000373 -0.999632 0.027121 107 54 0
-8.767605 -0.055802 6.132688 0.000373 -0.999632 0.027121 115 58 0
8.824405 -0.220582 0.000000 -0.001414 -0.999580 0.028952 99 50 0
17.487066 -0.238247 0.000000 -0.001414 -0.999580 0.028952 99 50 0
20.238623 -0.163340 2.533677 -0.001414 -0.999580 0.028952 107 54 0
8.824405 -0.152327 2.543417 -0.001414 -0.999580 0.028952 109 54 0
22.932678 -0.082357 5.544327 -0.000834 -0.999629 0.027229 107 54 0
8.824405 -0.055780 6.132688 -0.000834 -0.999629 0.027229 115 58 0
8.824405 -0.152327 2.543417 -0.000834 -0.999629 0.027229 109 54 0
20.238623 -0.163340 2.533677 -0.000834 -0.999629 0.027229 107 54 0
30.544254 0.898819 41.617329 -0.000374 -0.999632 0.027121 107 54 0
16.319904 0.898815 41.617329 -0.000374 -0.999632 0.027121 107 54 0
8.824405 -0.055780 6.132688 -0.000374 -0.999632 0.027121 115 58 0
22.932678 -0.082357 5.544327 -0.000374 -0.999632 0.027121 107 54 0
8.824405 -0.152327 2.543417 0.000001 -0.999640 0.026826 109 54 0
4.216201 -0.152333 2.543417 0.000001 -0.999640 0.026826 115 58 0
4.216201 -0.220588 -0.000000 0.000001 -0.999640 0.026826 99 50 0
8.824405 -0.220582 0.000000 0.000001 -0.999640 0.026826 99 50 0
-4.279876 -0.055796 6.132687 -0.000000 0.026888 0.999638 115 58 0
-8.767605 -0.055802 6.132688 -0.000000 0.026888 0.999638 115 58 0
-8.767605 -0.268283 6.138402 -0.000000 0.026888 0.999638 115 58 0
-4.279876 -0.268278 6.138403 -0.000000 0.026888 0.999638 115 58 0
16.319904 0.898815 41.617329 0.000001 -0.999638 0.026892 107 54 0
7.797466 0.898808 41.617325 0.000001 -0.999638 0.026892 107 54 0
4.216201 -0.055786 6.132688 0.000001 -0.999638 0.026892 115 58 0
8.824405 -0.055780 6.132688 0.000001 -0.999638 0.026892 115 58 0
-4.279876 -0.152343 2.543418 0.000001 -0.999640 0.026826 115 58 0
-4.279876 -0.220598 0.000000 0.000001 -0.999640 0.026826 107 54 0
4.216201 -0.055786 6.132688 0.000001 -0.999638 0.026889 115 58 0
-4.279876 -0.055796 6.132687 0.000001 -0.999638 0.026889 115 58 0
-4.279876 -0.152343 2.543418 0.000001 -0.999638 0.026889 115 58 0
4.216201 -0.152333 2.543417 0.000001 -0.999638 0.026889 115 58 0
-7.915228 0.898799 41.617329 0.000001 -0.999638 0.026892 107 54 0
-4.279876 -0.055796 6.132687 0.000001 -0.999638 0.026892 115 58 0
-8.767605 -0.152348 2.543418 0.000001 -0.999640 0.026826 114 57 0
-8.767605 -0.220603 0.000000 0.000001 -0.999640 0.026826 103 52 0
-8.767605 -0.055802 6.132688 -1.000000 0.000000 0.000000 113 63 12
-8.767605 -0.152348 2.543418 -1.000000 0.000000 0.000000 107 54 0
-8.767605 -0.364830 2.549134 -1.000000 0.000000 0.000000 107 54 0
-8.767605 -0.268283 6.138402 -1.000000 0.000000 0.000000 147 108 68
-16.214861 0.898793 41.617329 0.000001 -0.999638 0.026892 107 54 0
-8.767605 -0.055802 6.132688 0.000001 -0.999638 0.026892 115 58 0
-4.279876 -0.268278 6.138403 0.000001 -0.999638 0.026890 115 58 0
-8.767605 -0.268283 6.138402 0.000001 -0.999638 0.026890 115 58 0
-8.612544 -0.271619 6.014386 0.000001 -0.999638 0.026890 115 58 0
-4.434937 -0.271614 6.014386 0.000001 -0.999638 0.026890 115 58 0
-8.767605 -0.268283 6.138402 0.000001 -0.999638 0.026889 115 58 0
-8.767605 -0.364830 2.549134 0.000001 -0.999638 0.026889 112 56 0
-8.612544 -0.361494 2.673151 0.000001 -0.999638 0.026889 114 57 0
-8.612544 -0.271619 6.014386 0.000001 -0.999638 0.026889 115 58 0
-8.767605 -0.152348 2.543418 -0.000000 -0.026889 -0.999638 110 58 5
-4.279876 -0.152343 2.543418 -0.000000 -0.026889 -0.999638 107 54 0
-4.279876 -0.364824 2.549133 -0.000000 -0.026889 -0.999638 107 54 0
-8.767605 -0.364830 2.549134 -0.000000 -0.026889 -0.999638 108 55 1
-4.279876 -0.152343 2.543418 1.000000 -0.000000 0.000000 115 58 0
-4.279876 -0.055796 6.132687 1.000000 -0.000000 0.000000 115 58 0
-4.279876 -0.268278 6.138403 1.000000 -0.000000 0.000000 115 58 0
-4.279876 -0.364824 2.549133 1.000000 -0.000000 0.000000 115 58 0
4.216201 -0.055786 6.132688 -1.000000 0.000000 0.000000 115 58 0
4.216201 -0.152333 2.543417 -1.000000 0.000000 0.000000 115 58 0
4.216201 -0.364814 2.549133 -1.000000 0.000000 0.000000 115 58 0
4.216201 -0.268267 6.138402 -1.000000 0.000000 0.000000 115 58 0
8.824405 -0.055780 6.132688 -0.000000 0.026887 0.999638 115 58 0
4.216201 -0.055786 6.132688 -0.000000 0.026887 0.999638 115 58 0
4.216201 -0.268267 6.138402 -0.000000 0.026887 0.999638 115 58 0
8.824406 -0.268262 6.138403 -0.000000 0.026887 0.999638 115 58 0
4.216201 -0.152333 2.543417 0.000000 -0.026889 -0.999638 107 54 0
8.824405 -0.152327 2.543417 0.000000 -0.026889 -0.999638 107 54 0
8.824406 -0.364809 2.549133 0.000000 -0.026889 -0.999638 107 54 0
4.216201 -0.364814 2.549133 0.000000 -0.026889 -0.999638 107 54 0
8.824405 -0.152327 2.543417 1.000000 0.000004 -0.000000 107 54 0
8.824405 -0.055780 6.132688 1.000000 0.000004 -0.000000 107 54 0
8.824406 -0.268262 6.138403 1.000000 0.000004 -0.000000 107 54 0
8.824406 -0.364809 2.549133 1.000000 0.000004 -0.000000 107 54 0
-4.434937 -0.271614 6.014386 0.000000 -0.026889 -0.999638 107 54 0
-8.612544 -0.271619 6.014386 0.000000 -0.026889 -0.999638 107 54 0
-8.610825 0.161455 6.002737 0.000000 -0.026889 -0.999638 107 54 0
-4.433217 0.161460 6.002737 0.000000 -0.026889 -0.999638 107 54 0
-8.612544 -0.271619 6.014386 0.999992 -0.003967 0.000107 115 58 0
-8.612544 -0.361494 2.673151 0.999992 -0.003967 0.000107 114 57 0
-8.610825 0.071581 2.661501 0.999992 -0.003967 0.000107 115 58 0
-8.610825 0.161455 6.002737 0.999992 -0.003967 0.000107 115 58 0
-4.279876 -0.364824 2.549133 0.000001 -0.999638 0.026889 115 58 0
-4.434937 -0.361489 2.673150 0.000001 -0.999638 0.026889 115 58 0
-4.279876 -0.364824 2.549133 0.000002 -0.999638 0.026889 115 58 0
-4.279876 -0.268278 6.138403 0.000002 -0.999638 0.026889 115 58 0
-4.434937 -0.271614 6.014386 0.000002 -0.999638 0.026889 115 58 0
-4.434937 -0.361489 2.673150 0.000002 -0.999638 0.026889 115 58 0
4.216201 -0.268267 6.138402 0.000000 -0.999638 0.026889 115 58 0
4.216201 -0.364814 2.549133 0.000000 -0.999638 0.026889 115 58 0
4.375424 -0.361478 2.673150 0.000000 -0.999638 0.026889 115 58 0
4.375424 -0.271603 6.014385 0.000000 -0.999638 0.026889 115 58 0
8.824406 -0.268262 6.138403 0.000001 -0.999638 0.026891 115 58 0
4.216201 -0.268267 6.138402 0.000001 -0.999638 0.026891 115 58 0
4.375424 -0.271603 6.014385 0.000001 -0.999638 0.026891 115 58 0
8.665181 -0.271598 6.014385 0.000001 -0.999638 0.026891 115 58 0
4.216201 -0.364814 2.549133 0.000001 -0.999638 0.026888 115 58 0
8.824406 -0.364809 2.549133 0.000001 -0.999638 0.026888 107 54 0
8.665181 -0.361473 2.673150 0.000001 -0.999638 0.026888 112 55 0
4.375424 -0.361478 2.673150 0.000001 -0.999638 0.026888 115 58 0
8.824406 -0.364809 2.549133 0.000002 -0.999638 0.026889 107 54 0
8.824406 -0.268262 6.138403 0.000002 -0.999638 0.026889 115 58 0
8.665181 -0.271598 6.014385 0.000002 -0.999638 0.026889 115 58 0
8.665181 -0.361473 2.673150 0.000002 -0.999638 0.026889 112 55 0
-8.612544 -0.361494 2.673151 -0.000000 0.026890 0.999638 114 57 0
-4.434937 -0.361489 2.673150 -0.000000 0.026890 0.999638 115 58 0
-4.433217 0.071586 2.661501 -0.000000 0.026890 0.999638 115 58 0
-8.610825 0.071581 2.661501 -0.000000 0.026890 0.999638 115 58 0
-4.434937 -0.361489 2.673150 -0.999992 0.003967 -0.000107 107 54 0
-4.434937 -0.271614 6.014386 -0.999992 0.003967 -0.000107 107 54 0
-4.433217 0.161460 6.002737 -0.999992 0.003967 -0.000107 107 54 0
-4.433217 0.071586 2.661501 -0.999992 0.003967 -0.000107 107 54 0
4.375424 -0.271603 6.014385 0.999992 -0.003965 0.000107 107 54 0
4.375424 -0.361478 2.673150 0.999992 -0.003965 0.000107 107 54 0
4.377143 0.071596 2.661500 0.999992 -0.003965 0.000107 107 54 0
4.377143 0.161471 6.002736 0.999992 -0.003965 0.000107 107 54 0
8.665181 -0.271598 6.014385 0.000000 -0.026889 -0.999638 107 54 0
4.375424 -0.271603 6.014385 0.000000 -0.026889 -0.999638 107 54 0
4.377143 0.161471 6.002736 0.000000 -0.026889 -0.999638 107 54 0
8.666901 0.161476 6.002736 0.000000 -0.026889 -0.999638 107 54 0
4.375424 -0.361478 2.673150 -0.000000 0.026890 0.999638 115 58 0
8.665181 -0.361473 2.673150 -0.000000 0.026890 0.999638 112 55 0
8.666901 0.071601 2.661500 -0.000000 0.026890 0.999638 114 57 0
4.377143 0.071596 2.661500 -0.000000 0.026890 0.999638 115 58 0
8.665181 -0.361473 2.673150 -0.999992 0.003967 -0.000107 112 55 0
8.665181 -0.271598 6.014385 -0.999992 0.003967 -0.000107 115 58 0
8.666901 0.161476 6.002736 -0.999992 0.003967 -0.000107 115 58 0
8.666901 0.071601 2.661500 -0.999992 0.003967 -0.000107 114 57 0
4 0 1 2 3
4 4 5 6 7
4 8 9 10 11
4 12 13 14 15
4 16 17 18 19
4 20 21 22 23
4 24 25 26 27
4 28 29 30 31
4 32 33 34 35
4 25 36 37 26
4 38 39 40 41
4 33 42 43 34
4 36 44 45 37
4 46 47 48 49
4 42 50 51 43
4 52 53 54 55
4 56 57 58 59
4 60 61 62 63
4 64 65 66 67
4 68 69 70 71
4 72 73 74 75
4 76 77 78 79
4 80 81 82 83
4 84 85 86 87
4 88 89 90 91
4 57 92 93 58
4 94 95 96 97
4 98 99 100 101
4 102 103 104 105
4 106 107 108 109
4 110 111 112 113
4 114 115 116 117
4 118 119 120 121
4 122 123 124 125
4 126 127 128 129
4 130 131 132 133
4 134 135 136 137
