ply
format ascii 1.0
comment Created by Blender 2.71 (sub 0) - www.blender.org, source file: 'shortWall12.blend'
element vertex 20
property float x
property float y
property float z
property float nx
property float ny
property float nz
property uchar red
property uchar green
property uchar blue
element face 5
property list uchar uint vertex_indices
end_header
-4.000000 12.000000 0.000000 -0.996988 0.000000 0.077549 171 86 0
-4.000000 8.000000 0.000000 -0.996988 0.000000 0.077549 171 86 0
-0.888658 10.295710 40.000000 -0.996988 0.000000 0.077549 171 86 0
-0.888658 21.254892 40.000000 -0.996988 0.000000 0.077549 153 78 0
-4.000000 8.000000 0.000000 0.000000 -0.998357 0.057298 171 86 0
0.000000 8.000000 0.000000 0.000000 -0.998357 0.057298 160 80 0
2.865641 10.295710 40.000000 0.000000 -0.998357 0.057298 171 86 0
-0.888658 10.295710 40.000000 0.000000 -0.998357 0.057298 171 86 0
4.000000 -12.000000 0.000000 -0.994624 0.000000 0.103554 171 86 0
8.164566 -23.104876 40.000000 -0.994624 0.000000 0.103554 150 76 0
8.164566 2.172086 40.000000 -0.994624 0.000000 0.103554 171 86 0
4.000000 0.000000 0.000000 -0.994624 0.000000 0.103554 150 76 0
2.865641 2.172086 40.000000 0.000000 -0.998529 0.054222 171 86 0
0.000000 0.000000 0.000000 0.000000 -0.998529 0.054222 160 81 0
4.000000 0.000000 0.000000 0.000000 -0.998529 0.054222 150 76 0
8.164566 2.172086 40.000000 0.000000 -0.998529 0.054222 171 86 0
0.000000 0.000000 0.000000 -0.997444 0.000000 0.071458 160 81 0
2.865641 2.172086 40.000000 -0.997444 0.000000 0.071458 171 86 0
2.865641 10.295710 40.000000 -0.997444 0.000000 0.071458 171 86 0
0.000000 8.000000 0.000000 -0.997444 0.000000 0.071458 160 80 0
4 0 1 2 3
4 4 5 6 7
4 8 9 10 11
4 12 13 14 15
4 16 17 18 19
