ply
format ascii 1.0
comment Created by Blender 2.71 (sub 0) - www.blender.org, source file: 'shortWall12.blend'
element vertex 12
property float x
property float y
property float z
property float nx
property float ny
property float nz
property uchar red
property uchar green
property uchar blue
element face 3
property list uchar uint vertex_indices
end_header
-4.000028 11.999990 0.000000 -0.999976 -0.000002 0.006857 115 58 0
-4.000001 -0.000009 0.000000 -0.999976 -0.000002 0.006857 115 58 0
-3.712186 3.712168 41.974861 -0.999976 -0.000002 0.006857 115 58 0
-3.712247 31.520603 41.974861 -0.999976 -0.000002 0.006857 115 58 0
-3.712186 3.712168 41.974861 0.000002 -0.996112 0.088094 115 58 0
-4.000001 -0.000009 0.000000 0.000002 -0.996112 0.088094 115 58 0
4.000000 0.000009 0.000000 0.000002 -0.996112 0.088094 115 58 0
11.136521 3.712202 41.974861 0.000002 -0.996112 0.088094 115 58 0
11.136521 3.712202 41.974861 -0.985853 -0.000002 0.167614 115 58 0
4.000000 0.000009 0.000000 -0.985853 -0.000002 0.167614 115 58 0
4.000026 -11.999990 0.000000 -0.985853 -0.000002 0.167614 115 58 0
11.136591 -27.442717 41.974861 -0.985853 -0.000002 0.167614 115 58 0
4 0 1 2 3
4 4 5 6 7
4 8 9 10 11
