ply
format ascii 1.0
comment Created by Blender 2.71 (sub 0) - www.blender.org, source file: 'table.blend'
element vertex 470
property float x
property float y
property float z
property float nx
property float ny
property float nz
property uchar red
property uchar green
property uchar blue
element face 132
property list uchar uint vertex_indices
end_header
-1.965788 3.440111 0.019186 0.000000 0.000000 -1.000000 148 99 53
1.965773 3.440120 0.019186 0.000000 0.000000 -1.000000 149 100 54
1.965788 -3.440112 0.019186 0.000000 0.000000 -1.000000 148 99 53
-1.965774 -3.440119 0.019186 0.000000 0.000000 -1.000000 148 99 53
-2.000006 3.499995 2.552676 0.000000 0.000000 1.000000 148 91 21
-1.999992 -3.500003 2.552676 0.000000 0.000000 1.000000 148 99 53
2.000007 -3.499995 2.552676 0.000000 0.000000 1.000000 148 93 27
1.999993 3.500000 2.552676 0.000000 0.000000 1.000000 148 99 53
-2.000006 3.499995 2.299768 -0.000001 1.000000 0.000000 148 99 53
-2.000006 3.499995 2.552676 -0.000001 1.000000 0.000000 148 99 53
1.999993 3.500000 2.552676 -0.000001 1.000000 0.000000 148 99 53
1.999993 3.500001 2.299768 -0.000001 1.000000 0.000000 148 99 53
1.999993 3.500001 2.299768 1.000000 0.000002 -0.000000 148 99 53
1.999993 3.500000 2.552676 1.000000 0.000002 -0.000000 148 99 53
2.000007 -3.499995 2.552676 1.000000 0.000002 -0.000000 148 93 29
2.000007 -3.499995 2.299768 1.000000 0.000002 -0.000000 148 99 53
2.000007 -3.499995 2.299768 0.000002 -1.000000 -0.000000 148 99 53
2.000007 -3.499995 2.552676 0.000002 -1.000000 -0.000000 148 93 29
-1.999992 -3.500003 2.552676 0.000002 -1.000000 -0.000000 148 99 53
-1.999992 -3.500002 2.299768 0.000002 -1.000000 -0.000000 148 99 53
-1.965773 -3.440120 2.223521 -1.000000 -0.000002 0.000000 148 99 53
-1.965788 3.440113 2.223521 -1.000000 -0.000002 0.000000 148 99 53
-1.965787 3.258279 2.165264 -1.000000 -0.000002 0.000000 148 99 53
-1.965774 -3.258286 2.165264 -1.000000 -0.000002 0.000000 148 99 53
-2.000006 3.499995 2.552676 -1.000000 -0.000002 0.000000 148 99 53
-2.000006 3.499995 2.299768 -1.000000 -0.000002 0.000000 148 99 53
-1.999992 -3.500002 2.299768 -1.000000 -0.000002 0.000000 148 99 53
-1.999992 -3.500003 2.552676 -1.000000 -0.000002 0.000000 148 99 53
1.965788 -3.440113 2.223521 0.000001 -0.786445 -0.617660 148 99 53
2.000007 -3.499995 2.299768 0.000001 -0.786445 -0.617660 148 99 53
-1.999992 -3.500002 2.299768 0.000001 -0.786445 -0.617660 148 99 53
-1.965773 -3.440120 2.223521 0.000001 -0.786445 -0.617660 148 97 46
1.965774 3.440118 2.223521 0.912334 0.000002 -0.409448 148 99 53
1.999993 3.500001 2.299768 0.912334 0.000002 -0.409448 148 99 53
2.000007 -3.499995 2.299768 0.912334 0.000002 -0.409448 148 99 53
1.965788 -3.440113 2.223521 0.912334 0.000002 -0.409448 148 99 53
-1.965788 3.440113 2.223521 -0.000001 0.786443 -0.617663 148 99 53
-2.000006 3.499995 2.299768 -0.000001 0.786443 -0.617663 148 99 53
1.999993 3.500001 2.299768 -0.000001 0.786443 -0.617663 148 99 53
1.965774 3.440118 2.223521 -0.000001 0.786443 -0.617663 148 99 53
-1.965788 3.440111 0.019186 -0.000002 1.000000 0.000000 148 99 53
-1.965788 3.440113 2.223521 -0.000002 1.000000 0.000000 148 99 53
1.965774 3.440118 2.223521 -0.000002 1.000000 0.000000 148 99 53
1.965773 3.440120 0.019186 -0.000002 1.000000 0.000000 148 99 53
1.965774 3.440118 2.223521 1.000000 0.000002 0.000000 148 99 53
1.965788 -3.440113 2.223521 1.000000 0.000002 0.000000 148 99 53
1.965788 -3.294232 2.176783 1.000000 0.000002 0.000000 148 99 53
1.965774 3.294238 2.176783 1.000000 0.000002 0.000000 148 99 53
1.965788 -3.440112 0.019186 0.000002 -1.000000 -0.000000 148 99 53
1.965788 -3.440113 2.223521 0.000002 -1.000000 -0.000000 148 99 53
-1.965773 -3.440120 2.223521 0.000002 -1.000000 -0.000000 148 97 46
-1.965774 -3.440119 0.019186 0.000002 -1.000000 -0.000000 148 99 53
-2.000006 3.499995 2.299768 -0.912334 -0.000002 -0.409448 148 99 53
-1.965788 3.440113 2.223521 -0.912334 -0.000002 -0.409448 148 99 53
-1.965773 -3.440120 2.223521 -0.912334 -0.000002 -0.409448 148 99 53
-1.999992 -3.500002 2.299768 -0.912334 -0.000002 -0.409448 148 99 53
-1.965774 -3.258286 2.165264 -0.000000 -0.000000 -1.000000 148 99 53
-1.965787 3.258279 2.165264 -0.000000 -0.000000 -1.000000 148 99 53
0.466117 3.258284 2.165264 -0.000000 -0.000000 -1.000000 148 99 53
0.466131 -3.258281 2.165264 -0.000000 -0.000000 -1.000000 148 99 53
-1.965774 -3.440119 0.019186 -1.000000 -0.000003 0.000000 148 99 53
-1.965773 -3.440120 2.223521 -1.000000 -0.000003 0.000000 148 99 53
-1.965774 -3.258286 2.165264 -1.000000 -0.000003 0.000000 148 99 53
-1.965774 -3.258285 0.077443 -1.000000 -0.000003 0.000000 148 99 53
-1.965788 3.440113 2.223521 -1.000000 -0.000003 0.000000 148 99 53
-1.965788 3.440111 0.019186 -1.000000 -0.000003 0.000000 148 99 53
-1.965788 3.258277 0.077443 -1.000000 -0.000003 0.000000 148 99 53
-1.965787 3.258279 2.165264 -1.000000 -0.000003 0.000000 148 99 53
-1.965788 3.440111 0.019186 -1.000000 -0.000002 0.000000 148 99 53
-1.965774 -3.440119 0.019186 -1.000000 -0.000002 0.000000 148 99 53
-1.965774 -3.258285 0.077443 -1.000000 -0.000002 0.000000 148 99 53
-1.965788 3.258277 0.077443 -1.000000 -0.000002 0.000000 148 99 53
0.466117 3.258284 2.165264 -1.000000 -0.000002 0.000000 148 99 53
0.466116 3.258282 0.077442 -1.000000 -0.000002 0.000000 148 99 53
0.466130 -3.258280 0.077442 -1.000000 -0.000002 0.000000 148 99 53
0.466131 -3.258281 2.165264 -1.000000 -0.000002 0.000000 148 99 53
-1.965774 -3.258285 0.077443 -0.000002 1.000000 0.000000 148 99 53
-1.965774 -3.258286 2.165264 -0.000002 1.000000 0.000000 148 99 53
0.466131 -3.258281 2.165264 -0.000002 1.000000 0.000000 148 99 53
0.466130 -3.258280 0.077442 -0.000002 1.000000 0.000000 148 99 53
-1.965787 3.258279 2.165264 0.000002 -1.000000 0.000001 148 100 54
-1.965788 3.258277 0.077443 0.000002 -1.000000 0.000001 148 99 53
0.466116 3.258282 0.077442 0.000002 -1.000000 0.000001 148 99 53
0.466117 3.258284 2.165264 0.000002 -1.000000 0.000001 148 99 53
-1.965788 3.258277 0.077443 0.000000 0.000000 1.000000 148 99 53
-1.965774 -3.258285 0.077443 0.000000 0.000000 1.000000 148 99 53
0.466130 -3.258280 0.077442 0.000000 0.000000 1.000000 148 99 53
0.466116 3.258282 0.077442 0.000000 0.000000 1.000000 148 99 53
1.965774 3.294238 2.176783 -0.000000 -0.000000 -1.000000 148 99 53
1.965788 -3.294232 2.176783 -0.000000 -0.000000 -1.000000 148 99 53
0.626999 -3.294235 2.176784 -0.000000 -0.000000 -1.000000 148 99 53
0.626986 3.294235 2.176784 -0.000000 -0.000000 -1.000000 148 99 53
1.965788 -3.440112 0.019186 1.000000 0.000002 0.000000 148 99 53
1.965788 -3.294232 0.065924 1.000000 0.000002 0.000000 148 99 53
1.965773 3.440120 0.019186 1.000000 0.000002 -0.000000 148 99 53
1.965773 3.294240 0.065924 1.000000 0.000002 -0.000000 148 99 53
0.626985 3.294237 0.065924 1.000000 0.000002 -0.000000 148 99 53
0.626986 3.294235 2.176784 1.000000 0.000002 -0.000000 148 99 53
0.626999 -3.294235 2.176784 1.000000 0.000002 -0.000000 148 99 53
0.626999 -3.294235 0.065924 1.000000 0.000002 -0.000000 148 99 53
1.965788 -3.294232 2.176783 -0.000002 1.000000 0.000000 148 99 53
1.965788 -3.294232 0.065924 -0.000002 1.000000 0.000000 148 99 53
0.626999 -3.294235 0.065924 -0.000002 1.000000 0.000000 148 99 53
0.626999 -3.294235 2.176784 -0.000002 1.000000 0.000000 148 99 53
1.965773 3.294240 0.065924 0.000002 -1.000000 -0.000001 148 99 53
1.965774 3.294238 2.176783 0.000002 -1.000000 -0.000001 148 99 53
0.626986 3.294235 2.176784 0.000002 -1.000000 -0.000001 148 99 53
0.626985 3.294237 0.065924 0.000002 -1.000000 -0.000001 148 99 53
1.965788 -3.294232 0.065924 0.000000 0.000000 1.000000 148 99 53
1.965773 3.294240 0.065924 0.000000 0.000000 1.000000 148 99 53
0.626985 3.294237 0.065924 0.000000 0.000000 1.000000 148 99 53
0.626999 -3.294235 0.065924 0.000000 0.000000 1.000000 148 99 53
-0.169941 2.138619 2.765267 -0.039334 -0.999194 0.008065 131 70 6
-0.663068 2.158465 2.819047 -0.039334 -0.999194 0.008065 144 67 2
-0.674809 2.158465 2.761783 -0.039334 -0.999194 0.008065 148 68 0
-0.181682 2.138619 2.708002 -0.039334 -0.999194 0.008065 130 70 6
-0.169941 2.138619 2.765267 0.039338 -0.999193 -0.008065 131 70 6
-0.181682 2.138619 2.708002 0.039338 -0.999193 -0.008065 130 70 6
0.311445 2.158467 2.654221 0.039338 -0.999193 -0.008065 148 68 0
0.323186 2.158467 2.711486 0.039338 -0.999193 -0.008065 144 69 2
-0.169941 2.138619 2.765267 0.093494 -0.878709 0.468113 131 70 6
0.323186 2.158467 2.711486 0.093494 -0.878709 0.468113 144 69 2
0.201861 2.173904 2.757243 0.093494 -0.878709 0.468113 144 68 1
-0.161135 2.158466 2.808215 0.093494 -0.878709 0.468113 130 70 6
-0.169941 2.138619 2.765267 0.010432 -0.875392 0.483301 131 70 6
-0.161135 2.158466 2.808215 0.010432 -0.875392 0.483301 130 70 6
-0.528698 2.173902 2.836918 0.010432 -0.875392 0.483301 148 68 0
-0.663068 2.158465 2.819047 0.010432 -0.875392 0.483301 144 67 2
0.487561 2.376788 2.693559 0.979622 0.000002 -0.200850 148 68 0
0.487561 2.297399 2.693559 0.979622 0.000002 -0.200850 148 68 0
0.475820 2.297399 2.636294 0.979622 0.000002 -0.200850 148 68 0
0.475820 2.376788 2.636294 0.979622 0.000002 -0.200850 148 68 0
0.487561 2.376788 2.693559 0.333182 0.940384 -0.068314 148 68 0
0.475820 2.376788 2.636294 0.333182 0.940384 -0.068314 148 68 0
0.311445 2.436329 2.654221 0.333182 0.940384 -0.068314 148 68 0
0.323185 2.436329 2.711486 0.333182 0.940384 -0.068314 130 70 6
0.487561 2.376788 2.693559 0.261366 0.589799 0.764084 148 68 0
0.323185 2.436329 2.711486 0.261366 0.589799 0.764084 130 70 6
0.201860 2.420892 2.757243 0.261366 0.589799 0.764084 148 68 0
0.331991 2.376787 2.754434 0.261366 0.589799 0.764084 130 70 6
0.487561 2.376788 2.693559 0.364401 0.000001 0.931242 148 68 0
0.331991 2.376787 2.754434 0.364401 0.000001 0.931242 130 70 6
0.331991 2.297398 2.754434 0.364401 0.000001 0.931242 147 68 0
0.487561 2.297399 2.693559 0.364401 0.000001 0.931242 130 70 6
-0.169942 2.456175 2.765267 0.039334 0.999194 -0.008065 130 70 6
0.323185 2.436329 2.711486 0.039334 0.999194 -0.008065 130 70 6
0.311445 2.436329 2.654221 0.039334 0.999194 -0.008065 148 68 0
-0.181683 2.456175 2.708002 0.039334 0.999194 -0.008065 131 70 6
-0.169942 2.456175 2.765267 -0.039338 0.999193 0.008065 130 70 6
-0.181683 2.456175 2.708002 -0.039338 0.999193 0.008065 131 70 6
-0.674810 2.436327 2.761783 -0.039338 0.999193 0.008065 147 68 0
-0.663069 2.436327 2.819047 -0.039338 0.999193 0.008065 147 68 0
-0.169942 2.456175 2.765267 0.010429 0.875390 0.483305 130 70 6
-0.663069 2.436327 2.819047 0.010429 0.875390 0.483305 147 68 0
-0.528698 2.420890 2.836918 0.010429 0.875390 0.483305 148 68 0
-0.161136 2.436328 2.808215 0.010429 0.875390 0.483305 130 70 6
-0.169942 2.456175 2.765267 0.093490 0.878708 0.468115 130 70 6
-0.161136 2.436328 2.808215 0.093490 0.878708 0.468115 130 70 6
0.201860 2.420892 2.757243 0.093490 0.878708 0.468115 148 68 0
0.323185 2.436329 2.711486 0.093490 0.878708 0.468115 130 70 6
-0.775131 2.376848 2.714133 0.969755 0.000002 -0.244081 46 36 40
-0.775131 2.297396 2.714133 0.969755 0.000002 -0.244081 46 36 40
-0.785343 2.297396 2.673558 0.969755 0.000002 -0.244081 46 36 40
-0.785344 2.482415 2.673558 0.969755 0.000002 -0.244081 46 36 40
-0.751630 2.217944 2.828753 -0.545560 -0.830574 0.111856 46 36 40
-0.763381 2.217944 2.771443 -0.545560 -0.830574 0.111856 46 36 40
-0.674809 2.158465 2.761783 -0.545560 -0.830574 0.111856 148 68 0
-0.663068 2.158465 2.819047 -0.545560 -0.830574 0.111856 144 67 2
-0.751630 2.217944 2.828753 -0.141442 -0.565282 0.812681 46 36 40
-0.663068 2.158465 2.819047 -0.141442 -0.565282 0.812681 144 67 2
-0.528698 2.173902 2.836918 -0.141442 -0.565282 0.812681 148 68 0
-0.654262 2.218007 2.861996 -0.141442 -0.565282 0.812681 46 36 40
-0.751630 2.217944 2.828753 -0.323108 -0.000001 0.946362 130 70 6
-0.654262 2.218007 2.861996 -0.323108 -0.000001 0.946362 144 69 1
-0.654263 2.297396 2.861996 -0.323108 -0.000001 0.946362 144 69 2
-0.751631 2.297396 2.828753 -0.323108 -0.000001 0.946362 130 70 6
-0.158201 2.376786 2.822531 0.079305 0.000000 0.996850 130 70 6
-0.654263 2.376785 2.861996 0.079305 0.000000 0.996850 137 68 4
-0.654263 2.297396 2.861996 0.079305 0.000000 0.996850 127 62 8
-0.158200 2.297397 2.822531 0.079305 0.000000 0.996850 130 70 6
-0.158201 2.376786 2.822531 0.137598 0.000000 0.990488 130 70 6
-0.158200 2.297397 2.822531 0.137598 0.000000 0.990488 130 70 6
0.331991 2.297398 2.754434 0.137598 0.000000 0.990488 147 68 0
0.331991 2.376787 2.754434 0.137598 0.000000 0.990488 130 70 6
-0.158201 2.376786 2.822531 0.137610 0.282087 0.949469 130 70 6
0.331991 2.376787 2.754434 0.137610 0.282087 0.949469 130 70 6
0.201860 2.420892 2.757243 0.137610 0.282087 0.949469 130 70 6
-0.161136 2.436328 2.808215 0.137610 0.282087 0.949469 130 70 6
-0.158201 2.376786 2.822531 0.070549 0.280378 0.957294 130 70 6
-0.161136 2.436328 2.808215 0.070549 0.280378 0.957294 130 70 6
-0.528698 2.420890 2.836918 0.070549 0.280378 0.957294 148 68 0
-0.654263 2.376785 2.861996 0.070549 0.280378 0.957294 121 59 11
-0.205164 2.218008 2.593473 -0.137598 -0.000000 -0.990488 148 68 0
-0.695356 2.218007 2.661570 -0.137598 -0.000000 -0.990488 140 66 3
-0.695356 2.297396 2.661570 -0.137598 -0.000000 -0.990488 146 67 1
-0.205164 2.297397 2.593473 -0.137598 -0.000000 -0.990488 148 68 0
-0.205164 2.218008 2.593473 -0.079305 -0.000000 -0.996850 148 68 0
-0.205164 2.297397 2.593473 -0.079305 -0.000000 -0.996850 148 68 0
0.290898 2.297398 2.554008 -0.079305 -0.000000 -0.996850 148 68 0
0.290899 2.218009 2.554008 -0.079305 -0.000000 -0.996850 148 68 0
-0.205164 2.218008 2.593473 -0.070549 -0.280378 -0.957294 148 68 0
0.290899 2.218009 2.554008 -0.070549 -0.280378 -0.957294 148 68 0
0.165334 2.173904 2.579086 -0.070549 -0.280378 -0.957294 131 70 6
-0.202228 2.158466 2.607789 -0.070549 -0.280378 -0.957294 148 68 0
-0.205164 2.218008 2.593473 -0.137610 -0.282088 -0.949468 148 68 0
-0.202228 2.158466 2.607789 -0.137610 -0.282088 -0.949468 148 68 0
-0.565225 2.173902 2.658762 -0.137610 -0.282088 -0.949468 148 68 0
-0.695356 2.218007 2.661570 -0.137610 -0.282088 -0.949468 140 66 3
-0.205164 2.376786 2.593473 -0.137611 0.282088 -0.949468 148 68 0
-0.695356 2.376785 2.661570 -0.137611 0.282088 -0.949468 147 68 0
-0.565225 2.420890 2.658762 -0.137611 0.282088 -0.949468 147 68 0
-0.202229 2.436328 2.607789 -0.137611 0.282088 -0.949468 148 68 0
-0.205164 2.376786 2.593473 -0.070550 0.280379 -0.957293 148 68 0
-0.202229 2.436328 2.607789 -0.070550 0.280379 -0.957293 148 68 0
0.165333 2.420892 2.579086 -0.070550 0.280379 -0.957293 148 68 0
0.290898 2.376787 2.554008 -0.070550 0.280379 -0.957293 148 68 0
-0.205164 2.376786 2.593473 -0.079305 -0.000000 -0.996850 148 68 0
0.290898 2.376787 2.554008 -0.079305 -0.000000 -0.996850 148 68 0
-0.205164 2.376786 2.593473 -0.137598 -0.000000 -0.990488 148 68 0
-0.695356 2.376785 2.661570 -0.137598 -0.000000 -0.990488 148 68 0
-0.158200 2.218008 2.822531 0.070550 -0.280375 0.957294 130 70 6
-0.654262 2.218007 2.861996 0.070550 -0.280375 0.957294 132 63 7
-0.528698 2.173902 2.836918 0.070550 -0.280375 0.957294 148 68 0
-0.161135 2.158466 2.808215 0.070550 -0.280375 0.957294 130 70 6
-0.158200 2.218008 2.822531 0.137611 -0.282084 0.949469 130 70 6
-0.161135 2.158466 2.808215 0.137611 -0.282084 0.949469 130 70 6
0.201861 2.173904 2.757243 0.137611 -0.282084 0.949469 130 70 6
0.331992 2.218009 2.754434 0.137611 -0.282084 0.949469 130 70 6
-0.158200 2.218008 2.822531 0.137598 0.000000 0.990488 130 70 6
0.331992 2.218009 2.754434 0.137598 0.000000 0.990488 148 68 0
-0.158200 2.218008 2.822531 0.079305 0.000000 0.996850 130 70 6
-0.654262 2.218007 2.861996 0.079305 0.000000 0.996850 132 63 7
-0.751631 2.376848 2.828753 -0.545564 0.830571 0.111857 70 46 30
-0.663069 2.436327 2.819047 -0.545564 0.830571 0.111857 148 68 0
-0.674810 2.436327 2.761783 -0.545564 0.830571 0.111857 147 68 0
-0.763381 2.376848 2.771443 -0.545564 0.830571 0.111857 47 37 39
-0.763381 2.376848 2.771443 0.979471 0.017570 -0.200819 47 37 39
-0.775131 2.376848 2.714133 0.979471 0.017570 -0.200819 46 36 40
-0.785344 2.482415 2.673558 0.979471 0.017570 -0.200819 46 36 40
-0.765233 2.482415 2.771645 0.979471 0.017570 -0.200819 46 36 40
-0.751631 2.376848 2.828753 -0.323108 -0.000001 0.946362 130 70 6
-0.654263 2.376785 2.861996 -0.323108 -0.000001 0.946362 139 69 3
-0.751631 2.376848 2.828753 -0.141445 0.565282 0.812680 108 62 14
-0.654263 2.376785 2.861996 -0.141445 0.565282 0.812680 121 59 11
-0.528698 2.420890 2.836918 -0.141445 0.565282 0.812680 148 68 0
-0.663069 2.436327 2.819047 -0.141445 0.565282 0.812680 147 68 0
0.487561 2.218010 2.693559 0.333188 -0.940383 -0.068311 148 68 0
0.323186 2.158467 2.711486 0.333188 -0.940383 -0.068311 144 69 2
0.311445 2.158467 2.654221 0.333188 -0.940383 -0.068311 148 68 0
0.475821 2.218009 2.636294 0.333188 -0.940383 -0.068311 139 70 6
0.487561 2.218010 2.693559 0.979622 0.000002 -0.200850 148 68 0
0.475821 2.218009 2.636294 0.979622 0.000002 -0.200850 148 68 0
0.487561 2.218010 2.693559 0.364401 0.000001 0.931242 130 70 6
0.331992 2.218009 2.754434 0.364401 0.000001 0.931242 148 68 0
0.487561 2.218010 2.693559 0.261369 -0.589796 0.764085 148 68 0
0.331992 2.218009 2.754434 0.261369 -0.589796 0.764085 142 69 2
0.201861 2.173904 2.757243 0.261369 -0.589796 0.764085 144 68 1
0.323186 2.158467 2.711486 0.261369 -0.589796 0.764085 144 69 2
0.464080 2.218009 2.579030 0.084683 -0.574639 -0.814014 148 68 0
0.299704 2.158467 2.596957 0.084683 -0.574639 -0.814014 148 68 0
0.165334 2.173904 2.579086 0.084683 -0.574639 -0.814014 131 70 6
0.290899 2.218009 2.554008 0.084683 -0.574639 -0.814014 148 68 0
0.464080 2.218009 2.579030 0.142997 0.000000 -0.989723 148 68 0
0.290899 2.218009 2.554008 0.142997 0.000000 -0.989723 148 68 0
0.290898 2.297398 2.554008 0.142997 0.000000 -0.989723 148 68 0
0.464080 2.297399 2.579030 0.142997 0.000000 -0.989723 148 68 0
0.464080 2.218009 2.579030 0.979622 0.000002 -0.200850 148 68 0
0.464080 2.297399 2.579030 0.979622 0.000002 -0.200850 148 68 0
0.464080 2.218009 2.579030 0.333187 -0.940383 -0.068313 148 68 0
0.475821 2.218009 2.636294 0.333187 -0.940383 -0.068313 139 70 6
0.311445 2.158467 2.654221 0.333187 -0.940383 -0.068313 148 68 0
0.299704 2.158467 2.596957 0.333187 -0.940383 -0.068313 148 68 0
-0.775131 2.376848 2.714133 -0.319399 0.584979 -0.745509 46 36 40
-0.686550 2.436327 2.704518 -0.319399 0.584979 -0.745509 148 68 0
-0.565225 2.420890 2.658762 -0.319399 0.584979 -0.745509 147 68 0
-0.695356 2.376785 2.661570 -0.319399 0.584979 -0.745509 147 68 0
-0.775131 2.376848 2.714133 -0.550194 -0.000001 -0.835037 130 70 6
-0.695356 2.376785 2.661570 -0.550194 -0.000001 -0.835037 148 68 0
-0.695356 2.297396 2.661570 -0.550194 -0.000001 -0.835037 147 68 0
-0.775131 2.297396 2.714133 -0.550194 -0.000001 -0.835037 130 70 6
-0.775131 2.217944 2.714133 0.979471 -0.017565 -0.200819 46 36 40
-0.763381 2.217944 2.771443 0.979471 -0.017565 -0.200819 46 36 40
-0.765232 2.112377 2.771645 0.979471 -0.017565 -0.200819 49 37 39
-0.785343 2.112377 2.673558 0.979471 -0.017565 -0.200819 48 37 39
-0.775131 2.376848 2.714133 -0.545565 0.830571 0.111856 46 36 40
-0.763381 2.376848 2.771443 -0.545565 0.830571 0.111856 47 37 39
-0.674810 2.436327 2.761783 -0.545565 0.830571 0.111856 147 68 0
-0.686550 2.436327 2.704518 -0.545565 0.830571 0.111856 148 68 0
-0.775131 2.217944 2.714133 -0.550194 -0.000001 -0.835037 130 70 6
-0.695356 2.218007 2.661570 -0.550194 -0.000001 -0.835037 146 68 1
-0.775131 2.217944 2.714133 -0.319397 -0.584982 -0.745508 46 36 40
-0.695356 2.218007 2.661570 -0.319397 -0.584982 -0.745508 146 68 1
-0.565225 2.173902 2.658762 -0.319397 -0.584982 -0.745508 148 68 0
-0.686550 2.158465 2.704518 -0.319397 -0.584982 -0.745508 112 56 15
-0.775131 2.217944 2.714133 -0.545560 -0.830573 0.111855 46 36 40
-0.686550 2.158465 2.704518 -0.545560 -0.830573 0.111855 112 56 15
-0.674809 2.158465 2.761783 -0.545560 -0.830573 0.111855 148 68 0
-0.763381 2.217944 2.771443 -0.545560 -0.830573 0.111855 46 36 40
-0.775131 2.217944 2.714133 0.969755 0.000002 -0.244081 46 36 40
-0.785343 2.112377 2.673558 0.969755 0.000002 -0.244081 48 37 39
-0.193423 2.456175 2.650737 -0.010432 0.875391 -0.483304 148 68 0
0.299704 2.436329 2.596957 -0.010432 0.875391 -0.483304 148 68 0
0.165333 2.420892 2.579086 -0.010432 0.875391 -0.483304 148 68 0
-0.202229 2.436328 2.607789 -0.010432 0.875391 -0.483304 148 68 0
-0.193423 2.456175 2.650737 -0.093494 0.878707 -0.468116 148 68 0
-0.202229 2.436328 2.607789 -0.093494 0.878707 -0.468116 148 68 0
-0.565225 2.420890 2.658762 -0.093494 0.878707 -0.468116 147 68 0
-0.686550 2.436327 2.704518 -0.093494 0.878707 -0.468116 148 68 0
-0.193423 2.456175 2.650737 -0.039338 0.999193 0.008065 148 68 0
-0.686550 2.436327 2.704518 -0.039338 0.999193 0.008065 148 68 0
-0.193423 2.456175 2.650737 0.039334 0.999193 -0.008064 148 68 0
-0.181683 2.456175 2.708002 0.039334 0.999193 -0.008064 131 70 6
0.311445 2.436329 2.654221 0.039334 0.999193 -0.008064 148 68 0
0.299704 2.436329 2.596957 0.039334 0.999193 -0.008064 148 68 0
0.464079 2.376788 2.579030 0.142997 0.000000 -0.989723 148 68 0
0.290898 2.376787 2.554008 0.142997 0.000000 -0.989723 148 68 0
0.464079 2.376788 2.579030 0.084681 0.574641 -0.814012 148 68 0
0.290898 2.376787 2.554008 0.084681 0.574641 -0.814012 148 68 0
0.165333 2.420892 2.579086 0.084681 0.574641 -0.814012 148 68 0
0.299704 2.436329 2.596957 0.084681 0.574641 -0.814012 148 68 0
0.464079 2.376788 2.579030 0.333183 0.940384 -0.068312 148 68 0
0.299704 2.436329 2.596957 0.333183 0.940384 -0.068312 148 68 0
0.311445 2.436329 2.654221 0.333183 0.940384 -0.068312 148 68 0
0.475820 2.376788 2.636294 0.333183 0.940384 -0.068312 148 68 0
0.464079 2.376788 2.579030 0.979622 0.000002 -0.200850 148 68 0
-0.193423 2.138619 2.650737 -0.093491 -0.878708 -0.468114 130 70 6
-0.686550 2.158465 2.704518 -0.093491 -0.878708 -0.468114 112 56 15
-0.565225 2.173902 2.658762 -0.093491 -0.878708 -0.468114 148 68 0
-0.202228 2.158466 2.607789 -0.093491 -0.878708 -0.468114 148 68 0
-0.193423 2.138619 2.650737 -0.010428 -0.875391 -0.483303 130 70 6
-0.202228 2.158466 2.607789 -0.010428 -0.875391 -0.483303 148 68 0
0.165334 2.173904 2.579086 -0.010428 -0.875391 -0.483303 131 70 6
0.299704 2.158467 2.596957 -0.010428 -0.875391 -0.483303 148 68 0
-0.193423 2.138619 2.650737 0.039338 -0.999193 -0.008065 130 70 6
0.299704 2.158467 2.596957 0.039338 -0.999193 -0.008065 148 68 0
-0.193423 2.138619 2.650737 -0.039334 -0.999193 0.008065 130 70 6
-0.181682 2.138619 2.708002 -0.039334 -0.999193 0.008065 130 70 6
-0.674809 2.158465 2.761783 -0.039334 -0.999193 0.008065 148 68 0
-0.686550 2.158465 2.704518 -0.039334 -0.999193 0.008065 112 56 15
-0.785344 2.482415 2.673558 0.969886 0.000002 0.243561 46 36 40
-0.785343 2.297396 2.673558 0.969886 0.000002 0.243561 46 36 40
-0.756781 2.297396 2.559821 0.969886 0.000002 0.243561 46 36 40
-0.756783 2.908526 2.559821 0.969886 0.000002 0.243561 46 36 40
-0.765233 2.482415 2.771645 0.972728 -0.118432 -0.199437 46 36 40
-0.785344 2.482415 2.673558 0.972728 -0.118432 -0.199437 46 36 40
-0.756783 2.908526 2.559821 0.972728 -0.118432 -0.199437 46 36 40
-0.714488 2.908526 2.766110 0.972728 -0.118432 -0.199437 46 36 40
-0.785343 2.112377 2.673558 0.972727 0.118436 -0.199437 48 37 39
-0.765232 2.112377 2.771645 0.972727 0.118436 -0.199437 49 37 39
-0.714485 1.686266 2.766110 0.972727 0.118436 -0.199437 46 36 40
-0.756780 1.686266 2.559821 0.972727 0.118436 -0.199437 46 36 40
-0.785343 2.112377 2.673558 0.969886 0.000002 0.243561 48 37 39
-0.756780 1.686266 2.559821 0.969886 0.000002 0.243561 46 36 40
-0.751631 2.297396 2.828753 0.987621 0.000002 -0.156859 46 36 40
-0.751631 2.376848 2.828753 0.987621 0.000002 -0.156859 49 37 39
-0.745122 2.482415 2.869731 0.987621 0.000002 -0.156859 46 36 40
-0.745122 2.297396 2.869731 0.987621 0.000002 -0.156859 46 36 40
-0.751631 2.376848 2.828753 0.979471 0.017569 -0.200820 49 38 38
-0.763381 2.376848 2.771443 0.979471 0.017569 -0.200820 47 37 39
-0.765233 2.482415 2.771645 0.979471 0.017569 -0.200820 46 36 40
-0.745122 2.482415 2.869731 0.979471 0.017569 -0.200820 46 36 40
-0.751630 2.217944 2.828753 0.987621 0.000002 -0.156859 46 36 40
-0.751631 2.297396 2.828753 0.987621 0.000002 -0.156859 147 68 0
-0.745122 2.112377 2.869731 0.987621 0.000002 -0.156859 49 37 39
-0.763381 2.217944 2.771443 0.979471 -0.017565 -0.200820 46 36 40
-0.751630 2.217944 2.828753 0.979471 -0.017565 -0.200820 46 36 40
-0.745122 2.112377 2.869731 0.979471 -0.017565 -0.200820 49 37 39
-0.765232 2.112377 2.771645 0.979471 -0.017565 -0.200820 49 37 39
-0.756783 2.908526 2.559821 -0.108418 -0.000000 -0.994105 46 36 40
-0.756781 2.297396 2.559821 -0.108418 -0.000000 -0.994105 47 36 40
-1.185777 2.297395 2.606608 -0.108418 -0.000000 -0.994105 46 36 40
-1.185779 2.908525 2.606608 -0.108418 -0.000000 -0.994105 46 36 40
-0.756783 2.908526 2.559821 -0.035392 0.945225 -0.324495 47 37 41
-1.185779 2.908525 2.606608 -0.035392 0.945225 -0.324495 46 36 40
-1.071547 2.940733 2.687967 -0.035392 0.945225 -0.324495 46 36 40
-0.833386 2.940733 2.661993 -0.035392 0.945225 -0.324495 46 36 40
-0.756780 1.686266 2.559821 0.000002 -1.000000 -0.000000 46 36 40
-0.714485 1.686266 2.766110 0.000002 -1.000000 -0.000000 46 36 40
-1.143481 1.686265 2.812897 0.000002 -1.000000 -0.000000 46 36 40
-1.185776 1.686265 2.606608 0.000002 -1.000000 -0.000000 46 36 40
-0.756780 1.686266 2.559821 -0.108418 -0.000000 -0.994105 46 36 40
-1.185776 1.686265 2.606608 -0.108418 -0.000000 -0.994105 46 36 40
-0.745122 2.297396 2.869731 0.815244 0.000002 -0.579117 46 36 40
-0.745122 2.482415 2.869731 0.815244 0.000002 -0.579117 46 36 40
-0.672193 2.908526 2.972399 0.815244 0.000002 -0.579117 46 36 40
-0.672191 2.297396 2.972399 0.815244 0.000002 -0.579117 46 36 40
-0.745122 2.482415 2.869731 0.972727 -0.118432 -0.199437 46 36 40
-0.765233 2.482415 2.771645 0.972727 -0.118432 -0.199437 46 36 40
-0.714488 2.908526 2.766110 0.972727 -0.118432 -0.199437 46 36 40
-0.672193 2.908526 2.972399 0.972727 -0.118432 -0.199437 46 36 40
-0.745122 2.112377 2.869731 0.815244 0.000002 -0.579117 49 37 39
-0.672190 1.686266 2.972399 0.815244 0.000002 -0.579117 46 36 40
-0.745122 2.112377 2.869731 0.972727 0.118436 -0.199437 49 37 39
-0.672190 1.686266 2.972399 0.972727 0.118436 -0.199437 46 36 40
-1.185779 2.908525 2.606608 -0.990913 -0.000002 -0.134507 46 36 40
-1.185777 2.297395 2.606608 -0.990913 -0.000002 -0.134507 46 36 40
-1.192656 2.297395 2.657284 -0.990913 -0.000002 -0.134507 46 36 40
-1.192657 2.763854 2.657284 -0.990913 -0.000002 -0.134507 46 36 40
-1.143484 2.908525 2.812897 -0.972993 0.116141 0.199491 46 36 40
-1.185779 2.908525 2.606608 -0.972993 0.116141 0.199491 46 36 40
-1.192657 2.763854 2.657284 -0.972993 0.116141 0.199491 46 36 40
-1.160375 2.763854 2.814739 -0.972993 0.116141 0.199491 51 38 38
-1.185776 1.686265 2.606608 -0.972992 -0.116145 0.199491 48 37 39
-1.143481 1.686265 2.812897 -0.972992 -0.116145 0.199491 46 36 40
-1.160372 1.830936 2.814739 -0.972992 -0.116145 0.199491 46 36 40
-1.192655 1.830936 2.657284 -0.972992 -0.116145 0.199491 46 36 40
-1.185776 1.686265 2.606608 -0.990913 -0.000002 -0.134507 48 37 39
-1.192655 1.830936 2.657284 -0.990913 -0.000002 -0.134507 46 36 40
-0.672191 2.297396 2.972399 0.108419 0.000000 0.994105 46 36 40
-0.672193 2.908526 2.972399 0.108419 0.000000 0.994105 46 36 40
-1.101189 2.908525 3.019186 0.108419 0.000000 0.994105 46 36 40
-1.101187 2.297395 3.019186 0.108419 0.000000 0.994105 46 36 40
-1.101189 2.908525 3.019186 0.035388 0.945225 0.324495 46 36 40
-0.672193 2.908526 2.972399 0.035388 0.945225 0.324495 46 36 40
-0.786425 2.940733 2.891040 0.035388 0.945225 0.324495 46 36 40
-1.024586 2.940733 2.917014 0.035388 0.945225 0.324495 46 36 40
-0.672190 1.686266 2.972399 0.108419 0.000000 0.994105 46 36 40
-1.101186 1.686265 3.019186 0.108419 0.000000 0.994105 46 36 40
-0.672190 1.686266 2.972399 0.000002 -1.000000 -0.000000 48 37 39
-1.101186 1.686265 3.019186 0.000002 -1.000000 -0.000000 46 36 40
-1.128090 1.830936 2.972194 -0.979622 -0.000002 0.200851 46 36 40
-1.128091 2.297395 2.972194 -0.979622 -0.000002 0.200851 46 36 40
-1.160374 2.297395 2.814739 -0.979622 -0.000002 0.200851 46 36 40
-1.160372 1.830936 2.814739 -0.979622 -0.000002 0.200851 46 36 40
-1.128092 2.763854 2.972194 -0.979622 -0.000002 0.200851 46 36 40
-1.160375 2.763854 2.814739 -0.979622 -0.000002 0.200851 51 38 38
-1.192657 2.763854 2.657284 -0.979622 -0.000002 0.200850 46 36 40
-1.192656 2.297395 2.657284 -0.979622 -0.000002 0.200850 46 36 40
-1.160374 2.297395 2.814739 -0.979622 -0.000002 0.200850 46 36 40
-1.160375 2.763854 2.814739 -0.979622 -0.000002 0.200850 51 38 38
-1.192655 1.830936 2.657284 -0.979622 -0.000002 0.200850 46 36 40
-1.160372 1.830936 2.814739 -0.979622 -0.000002 0.200850 46 36 40
-1.101187 2.297395 3.019186 -0.867837 -0.000002 0.496849 46 36 40
-1.101189 2.908525 3.019186 -0.867837 -0.000002 0.496849 46 36 40
-1.128092 2.763854 2.972194 -0.867837 -0.000002 0.496849 46 36 40
-1.128091 2.297395 2.972194 -0.867837 -0.000002 0.496849 46 36 40
-1.101189 2.908525 3.019186 -0.972992 0.116141 0.199492 46 36 40
-1.143484 2.908525 2.812897 -0.972992 0.116141 0.199492 46 36 40
-1.160375 2.763854 2.814739 -0.972992 0.116141 0.199492 51 38 38
-1.128092 2.763854 2.972194 -0.972992 0.116141 0.199492 46 36 40
-1.101186 1.686265 3.019186 -0.867837 -0.000002 0.496848 46 36 40
-1.101187 2.297395 3.019186 -0.867837 -0.000002 0.496848 46 36 40
-1.128091 2.297395 2.972194 -0.867837 -0.000002 0.496848 46 36 40
-1.128090 1.830936 2.972194 -0.867837 -0.000002 0.496848 46 36 40
-1.143481 1.686265 2.812897 -0.972992 -0.116145 0.199492 46 36 40
-1.101186 1.686265 3.019186 -0.972992 -0.116145 0.199492 46 36 40
-1.128090 1.830936 2.972194 -0.972992 -0.116145 0.199492 46 36 40
-1.160372 1.830936 2.814739 -0.972992 -0.116145 0.199492 46 36 40
-0.809905 2.940733 2.776516 -0.000002 1.000000 0.000000 46 36 40
-0.833386 2.940733 2.661993 -0.000002 1.000000 0.000000 46 36 40
-1.071547 2.940733 2.687967 -0.000002 1.000000 0.000000 46 36 40
-1.048066 2.940733 2.802490 -0.000002 1.000000 0.000000 46 36 40
-0.786425 2.940733 2.891040 -0.000003 1.000000 -0.000001 46 36 40
-0.809905 2.940733 2.776516 -0.000003 1.000000 -0.000001 46 36 40
-1.048066 2.940733 2.802490 -0.000003 1.000000 -0.000001 46 36 40
-1.024586 2.940733 2.917014 -0.000003 1.000000 -0.000001 46 36 40
-1.185779 2.908525 2.606608 -0.312871 0.947627 0.064147 46 36 40
-1.143484 2.908525 2.812897 -0.312871 0.947627 0.064147 46 36 40
-1.048066 2.940733 2.802490 -0.312871 0.947627 0.064147 46 36 40
-1.071547 2.940733 2.687967 -0.312871 0.947627 0.064147 46 36 40
-1.101189 2.908525 3.019186 -0.312871 0.947627 0.064147 46 36 40
-1.024586 2.940733 2.917014 -0.312871 0.947627 0.064147 46 36 40
-0.714488 2.908526 2.766110 0.312867 0.947628 -0.064147 46 36 40
-0.756783 2.908526 2.559821 0.312867 0.947628 -0.064147 47 37 41
-0.833386 2.940733 2.661993 0.312867 0.947628 -0.064147 46 36 40
-0.809905 2.940733 2.776516 0.312867 0.947628 -0.064147 46 36 40
-0.672193 2.908526 2.972399 0.312867 0.947628 -0.064148 46 36 40
-0.714488 2.908526 2.766110 0.312867 0.947628 -0.064148 46 36 40
-0.809905 2.940733 2.776516 0.312867 0.947628 -0.064148 46 36 40
-0.786425 2.940733 2.891040 0.312867 0.947628 -0.064148 46 36 40
4 0 1 2 3
4 4 5 6 7
4 8 9 10 11
4 12 13 14 15
4 16 17 18 19
4 20 21 22 23
4 24 25 26 27
4 28 29 30 31
4 32 33 34 35
4 36 37 38 39
4 40 41 42 43
4 44 45 46 47
4 48 49 50 51
4 52 53 54 55
4 56 57 58 59
4 60 61 62 63
4 64 65 66 67
4 68 69 70 71
4 72 73 74 75
4 76 77 78 79
4 80 81 82 83
4 84 85 86 87
4 88 89 90 91
4 45 92 93 46
4 94 44 47 95
4 92 94 95 93
4 96 97 98 99
4 100 101 102 103
4 104 105 106 107
4 108 109 110 111
4 112 113 114 115
4 116 117 118 119
4 120 121 122 123
4 124 125 126 127
4 128 129 130 131
4 132 133 134 135
4 136 137 138 139
4 140 141 142 143
4 144 145 146 147
4 148 149 150 151
4 152 153 154 155
4 156 157 158 159
4 160 161 162 163
4 164 165 166 167
4 168 169 170 171
4 172 173 174 175
4 176 177 178 179
4 180 181 182 183
4 184 185 186 187
4 188 189 190 191
4 192 193 194 195
4 196 197 198 199
4 200 201 202 203
4 204 205 206 207
4 208 209 210 211
4 212 213 214 215
4 216 217 198 197
4 218 195 194 219
4 220 221 222 223
4 224 225 226 227
4 228 229 182 181
4 230 179 178 231
4 232 233 234 235
4 236 237 238 239
4 240 175 174 241
4 242 243 244 245
4 246 247 248 249
4 250 251 130 129
4 252 143 142 253
4 254 255 256 257
4 258 259 260 261
4 262 263 264 265
4 266 267 130 251
4 268 269 270 271
4 272 273 274 275
4 276 277 278 279
4 280 281 282 283
4 284 285 286 287
4 288 279 278 289
4 290 291 292 293
4 294 295 296 297
4 161 298 299 162
4 300 301 302 303
4 304 305 306 307
4 308 309 150 149
4 310 311 312 313
4 314 265 264 315
4 316 317 318 319
4 320 321 322 323
4 324 131 130 267
4 325 326 327 328
4 329 330 331 332
4 333 334 118 117
4 335 336 337 338
4 339 340 341 342
4 343 344 345 346
4 347 348 349 350
4 340 351 352 341
4 353 354 355 356
4 357 358 359 360
4 361 362 356 363
4 364 365 366 367
4 368 369 370 371
4 372 373 374 375
4 376 377 378 379
4 369 380 381 370
4 382 383 384 385
4 386 387 388 389
4 390 382 385 391
4 348 392 393 349
4 394 395 396 397
4 398 399 400 401
4 402 403 404 405
4 395 406 407 396
4 408 409 410 411
4 412 413 414 415
4 416 408 411 417
4 377 418 419 378
4 420 421 422 423
4 424 425 422 421
4 426 427 428 429
4 430 431 428 427
4 432 433 434 435
4 436 437 438 439
4 440 441 442 443
4 444 445 446 447
4 448 449 450 451
4 452 453 454 455
4 456 457 458 459
4 457 460 461 458
4 462 463 464 465
4 466 467 468 469
