ply
format ascii 1.0
comment Created by Blender 2.71 (sub 0) - www.blender.org, source file: 'IngotCast.blend'
element vertex 48
property float x
property float y
property float z
property float nx
property float ny
property float nz
element face 24
property list uchar uint vertex_indices
end_header
1.500000 1.499999 0.000000 0.000000 0.000000 -1.000000
1.500000 -1.499999 0.000000 0.000000 0.000000 -1.000000
0.805860 0.400512 0.000000 0.000000 0.000000 -1.000000
-1.500000 -1.499999 0.000000 0.000000 -0.000000 -1.000000
-0.805860 -0.400512 0.000000 0.000000 -0.000000 -1.000000
0.805860 -0.400512 0.000000 0.000000 0.000000 -1.000000
-1.499999 1.500000 0.000000 0.000000 0.000000 -1.000000
-0.805860 0.400512 0.000000 0.000000 0.000000 -1.000000
1.500002 1.499998 0.632856 0.000000 1.000000 0.000001
1.500000 1.499999 0.000000 0.000000 1.000000 0.000001
-1.499999 1.500000 0.000000 0.000000 1.000000 0.000001
-1.500000 1.499999 0.632856 0.000000 1.000000 0.000001
1.500000 1.499999 0.000000 1.000000 -0.000001 0.000000
1.500002 1.499998 0.632856 1.000000 -0.000001 0.000000
1.499998 -1.500000 0.632856 1.000000 -0.000001 0.000000
1.500000 -1.499999 0.000000 1.000000 -0.000001 0.000000
1.500000 -1.499999 0.000000 -0.000000 -1.000000 -0.000001
1.499998 -1.500000 0.632856 -0.000000 -1.000000 -0.000001
-1.500001 -1.499999 0.632856 -0.000000 -1.000000 -0.000001
-1.500000 -1.499999 0.000000 -0.000000 -1.000000 -0.000001
-1.500000 -1.499999 0.000000 -1.000000 0.000000 -0.000001
-1.500001 -1.499999 0.632856 -1.000000 0.000000 -0.000001
-1.500000 1.499999 0.632856 -1.000000 0.000000 -0.000001
-1.499999 1.500000 0.000000 -1.000000 0.000000 -0.000001
1.500002 1.499998 0.632856 -0.000000 -0.000000 1.000000
-1.500000 1.499999 0.632856 -0.000000 -0.000000 1.000000
0.995332 0.494680 0.632856 -0.000000 -0.000000 1.000000
-1.500001 -1.499999 0.632856 0.000000 -0.000000 1.000000
-0.995332 -0.494680 0.632856 0.000000 -0.000000 1.000000
-0.995332 0.494680 0.632856 0.000000 0.000000 1.000000
1.499998 -1.500000 0.632856 0.000000 -0.000000 1.000000
0.995332 -0.494680 0.632856 0.000000 0.000000 1.000000
-0.995332 0.494680 0.632856 0.957986 0.000000 0.286814
-0.995332 -0.494680 0.632856 0.957986 0.000000 0.286814
-0.805860 -0.400512 0.000000 0.957986 0.000000 0.286814
-0.805860 0.400512 0.000000 0.957986 0.000000 0.286814
0.995332 0.494680 0.632856 0.000000 -0.989110 0.147178
-0.995332 0.494680 0.632856 0.000000 -0.989110 0.147178
-0.805860 0.400512 0.000000 0.000000 -0.989110 0.147178
0.805860 0.400512 0.000000 0.000000 -0.989110 0.147178
-0.995332 -0.494680 0.632856 0.000000 0.989110 0.147178
0.995332 -0.494680 0.632856 0.000000 0.989110 0.147178
0.805860 -0.400512 0.000000 0.000000 0.989110 0.147178
-0.805860 -0.400512 0.000000 0.000000 0.989110 0.147178
0.995332 -0.494680 0.632856 -0.957986 0.000000 0.286814
0.995332 0.494680 0.632856 -0.957986 0.000000 0.286814
0.805860 0.400512 0.000000 -0.957986 0.000000 0.286814
0.805860 -0.400512 0.000000 -0.957986 0.000000 0.286814
3 0 1 2
3 1 3 4
3 1 5 2
3 1 4 5
3 0 2 6
3 7 4 3
3 2 7 6
3 7 3 6
4 8 9 10 11
4 12 13 14 15
4 16 17 18 19
4 20 21 22 23
3 24 25 26
3 25 27 28
3 25 29 26
3 25 28 29
3 24 26 30
3 31 28 27
3 26 31 30
3 31 27 30
4 32 33 34 35
4 36 37 38 39
4 40 41 42 43
4 44 45 46 47
